<?xml version="1.0" encoding="UTF-8"?>
<svg xmlns="http://www.w3.org/2000/svg" xmlns:xlink="http://www.w3.org/1999/xlink" width="523.752pt" height="512.06pt" viewBox="0 0 523.752 512.06">
<defs>
<g>
<g id="glyph-0-0">
<path d="M 7.046875 0 L 7.046875 -0.828125 L 5 -0.828125 L 5 -11.03125 C 5 -11.59375 4.90625 -11.59375 4.296875 -11.59375 C 3.140625 -10.46875 1.28125 -10.46875 0.65625 -10.46875 L 0.65625 -9.625 C 1.109375 -9.625 1.953125 -9.625 2.890625 -9.9375 L 2.890625 -0.828125 L 0.90625 -0.828125 L 0.90625 0 C 1.578125 -0.046875 3.1875 -0.046875 3.953125 -0.046875 C 4.703125 -0.046875 6.375 -0.046875 7.046875 0 Z M 7.046875 0 "/>
</g>
</g>
</defs>
<path fill="none" stroke-width="0.12022" stroke-linecap="butt" stroke-linejoin="miter" stroke="rgb(0%, 0%, 0%)" stroke-opacity="1" stroke-dasharray="0 1.99255" stroke-miterlimit="10" d="M 0.000450626 0.000156573 L 472.682981 472.682687 " transform="matrix(0.998168, 0, 0, -0.998168, 21.241738, 498.015781)"/>
<path fill="none" stroke-width="0.3985" stroke-linecap="butt" stroke-linejoin="miter" stroke="rgb(0%, 0%, 0%)" stroke-opacity="1" stroke-miterlimit="10" d="M 0.000450626 0.000156573 L 472.682981 0.000156573 M 0.000450626 26.25921 L 472.682981 26.25921 M 0.000450626 52.518264 L 472.682981 52.518264 M 0.000450626 78.781231 L 472.682981 78.781231 M 0.000450626 105.040284 L 472.682981 105.040284 M 0.000450626 131.299338 L 472.682981 131.299338 M 0.000450626 157.558391 L 472.682981 157.558391 M 0.000450626 183.817445 L 472.682981 183.817445 M 0.000450626 210.076498 L 472.682981 210.076498 M 0.000450626 236.339465 L 472.682981 236.339465 M 0.000450626 262.598518 L 472.682981 262.598518 M 0.000450626 288.857572 L 472.682981 288.857572 M 0.000450626 315.116625 L 472.682981 315.116625 M 0.000450626 341.375679 L 472.682981 341.375679 M 0.000450626 367.638646 L 472.682981 367.638646 M 0.000450626 393.897699 L 472.682981 393.897699 M 0.000450626 420.156753 L 472.682981 420.156753 M 0.000450626 446.415806 L 472.682981 446.415806 M 0.000450626 472.67486 L 472.682981 472.67486 M 0.000450626 0.000156573 L 0.000450626 472.682687 M 26.259504 0.000156573 L 26.259504 472.682687 M 52.518558 0.000156573 L 52.518558 472.682687 M 78.777611 0.000156573 L 78.777611 472.682687 M 105.040578 0.000156573 L 105.040578 472.682687 M 131.299632 0.000156573 L 131.299632 472.682687 M 157.558685 0.000156573 L 157.558685 472.682687 M 183.817739 0.000156573 L 183.817739 472.682687 M 210.076792 0.000156573 L 210.076792 472.682687 M 236.339759 0.000156573 L 236.339759 472.682687 M 262.598813 0.000156573 L 262.598813 472.682687 M 288.857866 0.000156573 L 288.857866 472.682687 M 315.11692 0.000156573 L 315.11692 472.682687 M 341.375973 0.000156573 L 341.375973 472.682687 M 367.63894 0.000156573 L 367.63894 472.682687 M 393.897993 0.000156573 L 393.897993 472.682687 M 420.157047 0.000156573 L 420.157047 472.682687 M 446.4161 0.000156573 L 446.4161 472.682687 M 472.675154 0.000156573 L 472.675154 472.682687 " transform="matrix(0.998168, 0, 0, -0.998168, 21.241738, 498.015781)"/>
<path fill="none" stroke-width="1.55907" stroke-linecap="square" stroke-linejoin="miter" stroke="rgb(0%, 0%, 0%)" stroke-opacity="1" stroke-miterlimit="10" d="M 0.000450626 0.000156573 L 472.682981 0.000156573 M 0.000450626 472.67486 L 472.682981 472.67486 M 0.000450626 0.000156573 L 0.000450626 472.682687 M 472.671241 0.000156573 L 472.671241 472.682687 " transform="matrix(0.998168, 0, 0, -0.998168, 21.241738, 498.015781)"/>
<path fill-rule="nonzero" fill="rgb(0%, 0%, 0%)" fill-opacity="1" stroke-width="0.3985" stroke-linecap="butt" stroke-linejoin="miter" stroke="rgb(0%, 0%, 0%)" stroke-opacity="1" stroke-miterlimit="10" d="M 239.619206 236.339465 C 239.619206 238.151379 238.151673 239.618912 236.339759 239.618912 C 234.523932 239.618912 233.056399 238.151379 233.056399 236.339465 C 233.056399 234.527551 234.523932 233.056105 236.339759 233.056105 C 238.151673 233.056105 239.619206 234.527551 239.619206 236.339465 Z M 239.619206 236.339465 " transform="matrix(0.998168, 0, 0, -0.998168, 21.241738, 498.015781)"/>
<path fill-rule="nonzero" fill="rgb(0%, 0%, 0%)" fill-opacity="1" stroke-width="0.3985" stroke-linecap="butt" stroke-linejoin="miter" stroke="rgb(0%, 0%, 0%)" stroke-opacity="1" stroke-miterlimit="10" d="M 82.060971 78.781231 C 82.060971 80.593144 80.593438 82.060677 78.777611 82.060677 C 76.965697 82.060677 75.498165 80.593144 75.498165 78.781231 C 75.498165 76.965403 76.965697 75.49787 78.777611 75.49787 C 80.593438 75.49787 82.060971 76.965403 82.060971 78.781231 Z M 82.060971 78.781231 " transform="matrix(0.998168, 0, 0, -0.998168, 21.241738, 498.015781)"/>
<path fill-rule="nonzero" fill="rgb(0%, 0%, 0%)" fill-opacity="1" stroke-width="0.3985" stroke-linecap="butt" stroke-linejoin="miter" stroke="rgb(0%, 0%, 0%)" stroke-opacity="1" stroke-miterlimit="10" d="M 397.17744 78.781231 C 397.17744 80.593144 395.709907 82.060677 393.897993 82.060677 C 392.08608 82.060677 390.614633 80.593144 390.614633 78.781231 C 390.614633 76.965403 392.08608 75.49787 393.897993 75.49787 C 395.709907 75.49787 397.17744 76.965403 397.17744 78.781231 Z M 397.17744 78.781231 " transform="matrix(0.998168, 0, 0, -0.998168, 21.241738, 498.015781)"/>
<path fill-rule="nonzero" fill="rgb(0%, 0%, 0%)" fill-opacity="1" stroke-width="0.3985" stroke-linecap="butt" stroke-linejoin="miter" stroke="rgb(0%, 0%, 0%)" stroke-opacity="1" stroke-miterlimit="10" d="M 82.060971 393.897699 C 82.060971 395.709613 80.593438 397.181059 78.777611 397.181059 C 76.965697 397.181059 75.498165 395.709613 75.498165 393.897699 C 75.498165 392.085786 76.965697 390.614339 78.777611 390.614339 C 80.593438 390.614339 82.060971 392.085786 82.060971 393.897699 Z M 82.060971 393.897699 " transform="matrix(0.998168, 0, 0, -0.998168, 21.241738, 498.015781)"/>
<path fill-rule="nonzero" fill="rgb(0%, 0%, 0%)" fill-opacity="1" stroke-width="0.3985" stroke-linecap="butt" stroke-linejoin="miter" stroke="rgb(0%, 0%, 0%)" stroke-opacity="1" stroke-miterlimit="10" d="M 397.17744 393.897699 C 397.17744 395.709613 395.709907 397.181059 393.897993 397.181059 C 392.08608 397.181059 390.614633 395.709613 390.614633 393.897699 C 390.614633 392.085786 392.08608 390.614339 393.897993 390.614339 C 395.709907 390.614339 397.17744 392.085786 397.17744 393.897699 Z M 397.17744 393.897699 " transform="matrix(0.998168, 0, 0, -0.998168, 21.241738, 498.015781)"/>
<path fill-rule="nonzero" fill="rgb(0%, 0%, 0%)" fill-opacity="1" stroke-width="0.3985" stroke-linecap="butt" stroke-linejoin="miter" stroke="rgb(0%, 0%, 0%)" stroke-opacity="1" stroke-miterlimit="10" d="M 82.060971 78.781231 C 82.060971 80.593144 80.593438 82.060677 78.777611 82.060677 C 76.965697 82.060677 75.498165 80.593144 75.498165 78.781231 C 75.498165 76.965403 76.965697 75.49787 78.777611 75.49787 C 80.593438 75.49787 82.060971 76.965403 82.060971 78.781231 Z M 82.060971 78.781231 " transform="matrix(0.998168, 0, 0, -0.998168, 21.241738, 498.015781)"/>
<path fill-rule="nonzero" fill="rgb(0%, 0%, 0%)" fill-opacity="1" stroke-width="0.3985" stroke-linecap="butt" stroke-linejoin="miter" stroke="rgb(0%, 0%, 0%)" stroke-opacity="1" stroke-miterlimit="10" d="M 397.17744 78.781231 C 397.17744 80.593144 395.709907 82.060677 393.897993 82.060677 C 392.08608 82.060677 390.614633 80.593144 390.614633 78.781231 C 390.614633 76.965403 392.08608 75.49787 393.897993 75.49787 C 395.709907 75.49787 397.17744 76.965403 397.17744 78.781231 Z M 397.17744 78.781231 " transform="matrix(0.998168, 0, 0, -0.998168, 21.241738, 498.015781)"/>
<path fill-rule="nonzero" fill="rgb(0%, 0%, 0%)" fill-opacity="1" stroke-width="0.3985" stroke-linecap="butt" stroke-linejoin="miter" stroke="rgb(0%, 0%, 0%)" stroke-opacity="1" stroke-miterlimit="10" d="M 82.060971 393.897699 C 82.060971 395.709613 80.593438 397.181059 78.777611 397.181059 C 76.965697 397.181059 75.498165 395.709613 75.498165 393.897699 C 75.498165 392.085786 76.965697 390.614339 78.777611 390.614339 C 80.593438 390.614339 82.060971 392.085786 82.060971 393.897699 Z M 82.060971 393.897699 " transform="matrix(0.998168, 0, 0, -0.998168, 21.241738, 498.015781)"/>
<path fill-rule="nonzero" fill="rgb(0%, 0%, 0%)" fill-opacity="1" stroke-width="0.3985" stroke-linecap="butt" stroke-linejoin="miter" stroke="rgb(0%, 0%, 0%)" stroke-opacity="1" stroke-miterlimit="10" d="M 397.17744 393.897699 C 397.17744 395.709613 395.709907 397.181059 393.897993 397.181059 C 392.08608 397.181059 390.614633 395.709613 390.614633 393.897699 C 390.614633 392.085786 392.08608 390.614339 393.897993 390.614339 C 395.709907 390.614339 397.17744 392.085786 397.17744 393.897699 Z M 397.17744 393.897699 " transform="matrix(0.998168, 0, 0, -0.998168, 21.241738, 498.015781)"/>
<path fill-rule="nonzero" fill="rgb(0%, 0%, 0%)" fill-opacity="1" stroke-width="0.3985" stroke-linecap="butt" stroke-linejoin="miter" stroke="rgb(0%, 0%, 0%)" stroke-opacity="1" stroke-miterlimit="10" d="M 82.060971 236.339465 C 82.060971 238.151379 80.593438 239.618912 78.777611 239.618912 C 76.965697 239.618912 75.498165 238.151379 75.498165 236.339465 C 75.498165 234.527551 76.965697 233.056105 78.777611 233.056105 C 80.593438 233.056105 82.060971 234.527551 82.060971 236.339465 Z M 82.060971 236.339465 " transform="matrix(0.998168, 0, 0, -0.998168, 21.241738, 498.015781)"/>
<path fill-rule="nonzero" fill="rgb(0%, 0%, 0%)" fill-opacity="1" stroke-width="0.3985" stroke-linecap="butt" stroke-linejoin="miter" stroke="rgb(0%, 0%, 0%)" stroke-opacity="1" stroke-miterlimit="10" d="M 239.619206 393.897699 C 239.619206 395.709613 238.151673 397.181059 236.339759 397.181059 C 234.523932 397.181059 233.056399 395.709613 233.056399 393.897699 C 233.056399 392.085786 234.523932 390.614339 236.339759 390.614339 C 238.151673 390.614339 239.619206 392.085786 239.619206 393.897699 Z M 239.619206 393.897699 " transform="matrix(0.998168, 0, 0, -0.998168, 21.241738, 498.015781)"/>
<path fill-rule="nonzero" fill="rgb(0%, 0%, 0%)" fill-opacity="1" stroke-width="0.3985" stroke-linecap="butt" stroke-linejoin="miter" stroke="rgb(0%, 0%, 0%)" stroke-opacity="1" stroke-miterlimit="10" d="M 239.619206 78.781231 C 239.619206 80.593144 238.151673 82.060677 236.339759 82.060677 C 234.523932 82.060677 233.056399 80.593144 233.056399 78.781231 C 233.056399 76.965403 234.523932 75.49787 236.339759 75.49787 C 238.151673 75.49787 239.619206 76.965403 239.619206 78.781231 Z M 239.619206 78.781231 " transform="matrix(0.998168, 0, 0, -0.998168, 21.241738, 498.015781)"/>
<path fill-rule="nonzero" fill="rgb(0%, 0%, 0%)" fill-opacity="1" stroke-width="0.3985" stroke-linecap="butt" stroke-linejoin="miter" stroke="rgb(0%, 0%, 0%)" stroke-opacity="1" stroke-miterlimit="10" d="M 397.17744 236.339465 C 397.17744 238.151379 395.709907 239.618912 393.897993 239.618912 C 392.08608 239.618912 390.614633 238.151379 390.614633 236.339465 C 390.614633 234.527551 392.08608 233.056105 393.897993 233.056105 C 395.709907 233.056105 397.17744 234.527551 397.17744 236.339465 Z M 397.17744 236.339465 " transform="matrix(0.998168, 0, 0, -0.998168, 21.241738, 498.015781)"/>
<path fill-rule="nonzero" fill="rgb(100%, 100%, 100%)" fill-opacity="1" stroke-width="0.3985" stroke-linecap="butt" stroke-linejoin="miter" stroke="rgb(100%, 100%, 100%)" stroke-opacity="1" stroke-miterlimit="10" d="M 433.286574 393.897699 C 433.286574 401.149268 427.408616 407.027226 420.157047 407.027226 C 412.905478 407.027226 407.02752 401.149268 407.02752 393.897699 C 407.02752 386.646131 412.905478 380.768173 420.157047 380.768173 C 427.408616 380.768173 433.286574 386.646131 433.286574 393.897699 Z M 433.286574 393.897699 " transform="matrix(0.998168, 0, 0, -0.998168, 21.241738, 498.015781)"/>
<path fill-rule="nonzero" fill="rgb(0%, 0%, 0%)" fill-opacity="1" stroke-width="1.1998" stroke-linecap="butt" stroke-linejoin="miter" stroke="rgb(100%, 100%, 100%)" stroke-opacity="1" stroke-miterlimit="10" d="M 433.235699 393.897699 C 433.235699 401.117961 427.381222 406.976352 420.157047 406.976352 C 412.932872 406.976352 407.078395 401.117961 407.078395 393.897699 C 407.078395 386.673525 412.932872 380.819047 420.157047 380.819047 C 427.381222 380.819047 433.235699 386.673525 433.235699 393.897699 Z M 433.235699 393.897699 " transform="matrix(0.998168, 0, 0, -0.998168, 21.241738, 498.015781)"/>
<path fill-rule="nonzero" fill="rgb(100%, 100%, 100%)" fill-opacity="1" stroke-width="0.3985" stroke-linecap="butt" stroke-linejoin="miter" stroke="rgb(100%, 100%, 100%)" stroke-opacity="1" stroke-miterlimit="10" d="M 91.911051 78.781231 C 91.911051 86.032799 86.02918 91.910757 78.777611 91.910757 C 71.529956 91.910757 65.648084 86.032799 65.648084 78.781231 C 65.648084 71.529662 71.529956 65.64779 78.777611 65.64779 C 86.02918 65.64779 91.911051 71.529662 91.911051 78.781231 Z M 91.911051 78.781231 " transform="matrix(0.998168, 0, 0, -0.998168, 21.241738, 498.015781)"/>
<path fill-rule="nonzero" fill="rgb(0%, 0%, 0%)" fill-opacity="1" stroke-width="1.1998" stroke-linecap="butt" stroke-linejoin="miter" stroke="rgb(100%, 100%, 100%)" stroke-opacity="1" stroke-miterlimit="10" d="M 91.856263 78.781231 C 91.856263 86.001492 86.001786 91.855969 78.777611 91.855969 C 71.55735 91.855969 65.702872 86.001492 65.702872 78.781231 C 65.702872 71.557056 71.55735 65.702578 78.777611 65.702578 C 86.001786 65.702578 91.856263 71.557056 91.856263 78.781231 Z M 91.856263 78.781231 " transform="matrix(0.998168, 0, 0, -0.998168, 21.241738, 498.015781)"/>
<path fill-rule="nonzero" fill="rgb(100%, 100%, 100%)" fill-opacity="1" stroke-width="0.3985" stroke-linecap="butt" stroke-linejoin="miter" stroke="rgb(100%, 100%, 100%)" stroke-opacity="1" stroke-miterlimit="10" d="M 144.429158 52.518264 C 144.429158 59.769832 138.5512 65.64779 131.299632 65.64779 C 124.048063 65.64779 118.170105 59.769832 118.170105 52.518264 C 118.170105 45.266695 124.048063 39.388737 131.299632 39.388737 C 138.5512 39.388737 144.429158 45.266695 144.429158 52.518264 Z M 144.429158 52.518264 " transform="matrix(0.998168, 0, 0, -0.998168, 21.241738, 498.015781)"/>
<path fill-rule="nonzero" fill="rgb(0%, 0%, 0%)" fill-opacity="1" stroke-width="1.1998" stroke-linecap="butt" stroke-linejoin="miter" stroke="rgb(100%, 100%, 100%)" stroke-opacity="1" stroke-miterlimit="10" d="M 144.378284 52.518264 C 144.378284 59.742438 138.519893 65.596916 131.299632 65.596916 C 124.075457 65.596916 118.220979 59.742438 118.220979 52.518264 C 118.220979 45.298002 124.075457 39.443525 131.299632 39.443525 C 138.519893 39.443525 144.378284 45.298002 144.378284 52.518264 Z M 144.378284 52.518264 " transform="matrix(0.998168, 0, 0, -0.998168, 21.241738, 498.015781)"/>
<path fill-rule="nonzero" fill="rgb(100%, 100%, 100%)" fill-opacity="1" stroke-width="0.3985" stroke-linecap="butt" stroke-linejoin="miter" stroke="rgb(100%, 100%, 100%)" stroke-opacity="1" stroke-miterlimit="10" d="M 91.911051 236.339465 C 91.911051 243.591034 86.02918 249.468992 78.777611 249.468992 C 71.529956 249.468992 65.648084 243.591034 65.648084 236.339465 C 65.648084 229.087896 71.529956 223.209938 78.777611 223.209938 C 86.02918 223.209938 91.911051 229.087896 91.911051 236.339465 Z M 91.911051 236.339465 " transform="matrix(0.998168, 0, 0, -0.998168, 21.241738, 498.015781)"/>
<path fill-rule="nonzero" fill="rgb(0%, 0%, 0%)" fill-opacity="1" stroke-width="1.1998" stroke-linecap="butt" stroke-linejoin="miter" stroke="rgb(100%, 100%, 100%)" stroke-opacity="1" stroke-miterlimit="10" d="M 91.856263 236.339465 C 91.856263 243.559726 86.001786 249.414204 78.777611 249.414204 C 71.55735 249.414204 65.702872 243.559726 65.702872 236.339465 C 65.702872 229.11529 71.55735 223.260813 78.777611 223.260813 C 86.001786 223.260813 91.856263 229.11529 91.856263 236.339465 Z M 91.856263 236.339465 " transform="matrix(0.998168, 0, 0, -0.998168, 21.241738, 498.015781)"/>
<path fill-rule="nonzero" fill="rgb(100%, 100%, 100%)" fill-opacity="1" stroke-width="0.3985" stroke-linecap="butt" stroke-linejoin="miter" stroke="rgb(100%, 100%, 100%)" stroke-opacity="1" stroke-miterlimit="10" d="M 91.911051 262.598518 C 91.911051 269.850087 86.02918 275.728045 78.777611 275.728045 C 71.529956 275.728045 65.648084 269.850087 65.648084 262.598518 C 65.648084 255.34695 71.529956 249.468992 78.777611 249.468992 C 86.02918 249.468992 91.911051 255.34695 91.911051 262.598518 Z M 91.911051 262.598518 " transform="matrix(0.998168, 0, 0, -0.998168, 21.241738, 498.015781)"/>
<path fill-rule="nonzero" fill="rgb(0%, 0%, 0%)" fill-opacity="1" stroke-width="1.1998" stroke-linecap="butt" stroke-linejoin="miter" stroke="rgb(100%, 100%, 100%)" stroke-opacity="1" stroke-miterlimit="10" d="M 91.856263 262.598518 C 91.856263 269.81878 86.001786 275.677171 78.777611 275.677171 C 71.55735 275.677171 65.702872 269.81878 65.702872 262.598518 C 65.702872 255.374344 71.55735 249.519866 78.777611 249.519866 C 86.001786 249.519866 91.856263 255.374344 91.856263 262.598518 Z M 91.856263 262.598518 " transform="matrix(0.998168, 0, 0, -0.998168, 21.241738, 498.015781)"/>
<path fill-rule="nonzero" fill="rgb(100%, 100%, 100%)" fill-opacity="1" stroke-width="0.3985" stroke-linecap="butt" stroke-linejoin="miter" stroke="rgb(100%, 100%, 100%)" stroke-opacity="1" stroke-miterlimit="10" d="M 65.648084 236.339465 C 65.648084 243.591034 59.770126 249.468992 52.518558 249.468992 C 45.266989 249.468992 39.389031 243.591034 39.389031 236.339465 C 39.389031 229.087896 45.266989 223.209938 52.518558 223.209938 C 59.770126 223.209938 65.648084 229.087896 65.648084 236.339465 Z M 65.648084 236.339465 " transform="matrix(0.998168, 0, 0, -0.998168, 21.241738, 498.015781)"/>
<path fill-rule="nonzero" fill="rgb(0%, 0%, 0%)" fill-opacity="1" stroke-width="1.1998" stroke-linecap="butt" stroke-linejoin="miter" stroke="rgb(100%, 100%, 100%)" stroke-opacity="1" stroke-miterlimit="10" d="M 65.59721 236.339465 C 65.59721 243.559726 59.742732 249.414204 52.518558 249.414204 C 45.298296 249.414204 39.443819 243.559726 39.443819 236.339465 C 39.443819 229.11529 45.298296 223.260813 52.518558 223.260813 C 59.742732 223.260813 65.59721 229.11529 65.59721 236.339465 Z M 65.59721 236.339465 " transform="matrix(0.998168, 0, 0, -0.998168, 21.241738, 498.015781)"/>
<path fill-rule="nonzero" fill="rgb(100%, 100%, 100%)" fill-opacity="1" stroke-width="0.3985" stroke-linecap="butt" stroke-linejoin="miter" stroke="rgb(100%, 100%, 100%)" stroke-opacity="1" stroke-miterlimit="10" d="M 91.911051 210.080411 C 91.911051 217.328067 86.02918 223.209938 78.777611 223.209938 C 71.529956 223.209938 65.648084 217.328067 65.648084 210.080411 C 65.648084 202.828843 71.529956 196.946971 78.777611 196.946971 C 86.02918 196.946971 91.911051 202.828843 91.911051 210.080411 Z M 91.911051 210.080411 " transform="matrix(0.998168, 0, 0, -0.998168, 21.241738, 498.015781)"/>
<path fill-rule="nonzero" fill="rgb(0%, 0%, 0%)" fill-opacity="1" stroke-width="1.1998" stroke-linecap="butt" stroke-linejoin="miter" stroke="rgb(100%, 100%, 100%)" stroke-opacity="1" stroke-miterlimit="10" d="M 91.856263 210.080411 C 91.856263 217.300673 86.001786 223.15515 78.777611 223.15515 C 71.55735 223.15515 65.702872 217.300673 65.702872 210.080411 C 65.702872 202.856237 71.55735 197.001759 78.777611 197.001759 C 86.001786 197.001759 91.856263 202.856237 91.856263 210.080411 Z M 91.856263 210.080411 " transform="matrix(0.998168, 0, 0, -0.998168, 21.241738, 498.015781)"/>
<path fill-rule="nonzero" fill="rgb(100%, 100%, 100%)" fill-opacity="1" stroke-width="0.3985" stroke-linecap="butt" stroke-linejoin="miter" stroke="rgb(100%, 100%, 100%)" stroke-opacity="1" stroke-miterlimit="10" d="M 118.170105 236.339465 C 118.170105 243.591034 112.292147 249.468992 105.040578 249.468992 C 97.789009 249.468992 91.911051 243.591034 91.911051 236.339465 C 91.911051 229.087896 97.789009 223.209938 105.040578 223.209938 C 112.292147 223.209938 118.170105 229.087896 118.170105 236.339465 Z M 118.170105 236.339465 " transform="matrix(0.998168, 0, 0, -0.998168, 21.241738, 498.015781)"/>
<path fill-rule="nonzero" fill="rgb(0%, 0%, 0%)" fill-opacity="1" stroke-width="1.1998" stroke-linecap="butt" stroke-linejoin="miter" stroke="rgb(100%, 100%, 100%)" stroke-opacity="1" stroke-miterlimit="10" d="M 118.115317 236.339465 C 118.115317 243.559726 112.260839 249.414204 105.040578 249.414204 C 97.816403 249.414204 91.961926 243.559726 91.961926 236.339465 C 91.961926 229.11529 97.816403 223.260813 105.040578 223.260813 C 112.260839 223.260813 118.115317 229.11529 118.115317 236.339465 Z M 118.115317 236.339465 " transform="matrix(0.998168, 0, 0, -0.998168, 21.241738, 498.015781)"/>
<path fill-rule="nonzero" fill="rgb(100%, 100%, 100%)" fill-opacity="1" stroke-width="0.3985" stroke-linecap="butt" stroke-linejoin="miter" stroke="rgb(100%, 100%, 100%)" stroke-opacity="1" stroke-miterlimit="10" d="M 249.469286 236.339465 C 249.469286 243.591034 243.591328 249.468992 236.339759 249.468992 C 229.08819 249.468992 223.210232 243.591034 223.210232 236.339465 C 223.210232 229.087896 229.08819 223.209938 236.339759 223.209938 C 243.591328 223.209938 249.469286 229.087896 249.469286 236.339465 Z M 249.469286 236.339465 " transform="matrix(0.998168, 0, 0, -0.998168, 21.241738, 498.015781)"/>
<path fill-rule="nonzero" fill="rgb(0%, 0%, 0%)" fill-opacity="1" stroke-width="1.1998" stroke-linecap="butt" stroke-linejoin="miter" stroke="rgb(100%, 100%, 100%)" stroke-opacity="1" stroke-miterlimit="10" d="M 249.414498 236.339465 C 249.414498 243.559726 243.56002 249.414204 236.339759 249.414204 C 229.115584 249.414204 223.261107 243.559726 223.261107 236.339465 C 223.261107 229.11529 229.115584 223.260813 236.339759 223.260813 C 243.56002 223.260813 249.414498 229.11529 249.414498 236.339465 Z M 249.414498 236.339465 " transform="matrix(0.998168, 0, 0, -0.998168, 21.241738, 498.015781)"/>
<path fill-rule="nonzero" fill="rgb(100%, 100%, 100%)" fill-opacity="1" stroke-width="0.3985" stroke-linecap="butt" stroke-linejoin="miter" stroke="rgb(100%, 100%, 100%)" stroke-opacity="1" stroke-miterlimit="10" d="M 223.206319 288.857572 C 223.206319 296.109141 217.328361 301.987099 210.076792 301.987099 C 202.825223 301.987099 196.947265 296.109141 196.947265 288.857572 C 196.947265 281.606003 202.825223 275.728045 210.076792 275.728045 C 217.328361 275.728045 223.206319 281.606003 223.206319 288.857572 Z M 223.206319 288.857572 " transform="matrix(0.998168, 0, 0, -0.998168, 21.241738, 498.015781)"/>
<path fill-rule="nonzero" fill="rgb(0%, 0%, 0%)" fill-opacity="1" stroke-width="1.1998" stroke-linecap="butt" stroke-linejoin="miter" stroke="rgb(100%, 100%, 100%)" stroke-opacity="1" stroke-miterlimit="10" d="M 223.155444 288.857572 C 223.155444 296.081747 217.300967 301.936224 210.076792 301.936224 C 202.856531 301.936224 197.002053 296.081747 197.002053 288.857572 C 197.002053 281.637311 202.856531 275.77892 210.076792 275.77892 C 217.300967 275.77892 223.155444 281.637311 223.155444 288.857572 Z M 223.155444 288.857572 " transform="matrix(0.998168, 0, 0, -0.998168, 21.241738, 498.015781)"/>
<path fill-rule="nonzero" fill="rgb(100%, 100%, 100%)" fill-opacity="1" stroke-width="0.3985" stroke-linecap="butt" stroke-linejoin="miter" stroke="rgb(100%, 100%, 100%)" stroke-opacity="1" stroke-miterlimit="10" d="M 39.389031 288.857572 C 39.389031 296.109141 33.511073 301.987099 26.259504 301.987099 C 19.007935 301.987099 13.129977 296.109141 13.129977 288.857572 C 13.129977 281.606003 19.007935 275.728045 26.259504 275.728045 C 33.511073 275.728045 39.389031 281.606003 39.389031 288.857572 Z M 39.389031 288.857572 " transform="matrix(0.998168, 0, 0, -0.998168, 21.241738, 498.015781)"/>
<path fill-rule="nonzero" fill="rgb(0%, 0%, 0%)" fill-opacity="1" stroke-width="1.1998" stroke-linecap="butt" stroke-linejoin="miter" stroke="rgb(100%, 100%, 100%)" stroke-opacity="1" stroke-miterlimit="10" d="M 39.338156 288.857572 C 39.338156 296.081747 33.483679 301.936224 26.259504 301.936224 C 19.039243 301.936224 13.180852 296.081747 13.180852 288.857572 C 13.180852 281.637311 19.039243 275.77892 26.259504 275.77892 C 33.483679 275.77892 39.338156 281.637311 39.338156 288.857572 Z M 39.338156 288.857572 " transform="matrix(0.998168, 0, 0, -0.998168, 21.241738, 498.015781)"/>
<path fill-rule="nonzero" fill="rgb(100%, 100%, 100%)" fill-opacity="1" stroke-width="0.3985" stroke-linecap="butt" stroke-linejoin="miter" stroke="rgb(100%, 100%, 100%)" stroke-opacity="1" stroke-miterlimit="10" d="M 39.389031 262.598518 C 39.389031 269.850087 33.511073 275.728045 26.259504 275.728045 C 19.007935 275.728045 13.129977 269.850087 13.129977 262.598518 C 13.129977 255.34695 19.007935 249.468992 26.259504 249.468992 C 33.511073 249.468992 39.389031 255.34695 39.389031 262.598518 Z M 39.389031 262.598518 " transform="matrix(0.998168, 0, 0, -0.998168, 21.241738, 498.015781)"/>
<path fill-rule="nonzero" fill="rgb(0%, 0%, 0%)" fill-opacity="1" stroke-width="1.1998" stroke-linecap="butt" stroke-linejoin="miter" stroke="rgb(100%, 100%, 100%)" stroke-opacity="1" stroke-miterlimit="10" d="M 39.338156 262.598518 C 39.338156 269.81878 33.483679 275.677171 26.259504 275.677171 C 19.039243 275.677171 13.180852 269.81878 13.180852 262.598518 C 13.180852 255.374344 19.039243 249.519866 26.259504 249.519866 C 33.483679 249.519866 39.338156 255.374344 39.338156 262.598518 Z M 39.338156 262.598518 " transform="matrix(0.998168, 0, 0, -0.998168, 21.241738, 498.015781)"/>
<path fill-rule="nonzero" fill="rgb(100%, 100%, 100%)" fill-opacity="1" stroke-width="0.3985" stroke-linecap="butt" stroke-linejoin="miter" stroke="rgb(100%, 100%, 100%)" stroke-opacity="1" stroke-miterlimit="10" d="M 65.648084 341.375679 C 65.648084 348.627248 59.770126 354.509119 52.518558 354.509119 C 45.266989 354.509119 39.389031 348.627248 39.389031 341.375679 C 39.389031 334.128024 45.266989 328.246152 52.518558 328.246152 C 59.770126 328.246152 65.648084 334.128024 65.648084 341.375679 Z M 65.648084 341.375679 " transform="matrix(0.998168, 0, 0, -0.998168, 21.241738, 498.015781)"/>
<path fill-rule="nonzero" fill="rgb(0%, 0%, 0%)" fill-opacity="1" stroke-width="1.1998" stroke-linecap="butt" stroke-linejoin="miter" stroke="rgb(100%, 100%, 100%)" stroke-opacity="1" stroke-miterlimit="10" d="M 65.59721 341.375679 C 65.59721 348.599854 59.742732 354.454331 52.518558 354.454331 C 45.298296 354.454331 39.443819 348.599854 39.443819 341.375679 C 39.443819 334.155418 45.298296 328.30094 52.518558 328.30094 C 59.742732 328.30094 65.59721 334.155418 65.59721 341.375679 Z M 65.59721 341.375679 " transform="matrix(0.998168, 0, 0, -0.998168, 21.241738, 498.015781)"/>
<path fill-rule="nonzero" fill="rgb(100%, 100%, 100%)" fill-opacity="1" stroke-width="0.3985" stroke-linecap="butt" stroke-linejoin="miter" stroke="rgb(100%, 100%, 100%)" stroke-opacity="1" stroke-miterlimit="10" d="M 91.911051 367.638646 C 91.911051 374.890215 86.02918 380.768173 78.777611 380.768173 C 71.529956 380.768173 65.648084 374.890215 65.648084 367.638646 C 65.648084 360.387077 71.529956 354.509119 78.777611 354.509119 C 86.02918 354.509119 91.911051 360.387077 91.911051 367.638646 Z M 91.911051 367.638646 " transform="matrix(0.998168, 0, 0, -0.998168, 21.241738, 498.015781)"/>
<path fill-rule="nonzero" fill="rgb(0%, 0%, 0%)" fill-opacity="1" stroke-width="1.1998" stroke-linecap="butt" stroke-linejoin="miter" stroke="rgb(100%, 100%, 100%)" stroke-opacity="1" stroke-miterlimit="10" d="M 91.856263 367.638646 C 91.856263 374.858907 86.001786 380.713385 78.777611 380.713385 C 71.55735 380.713385 65.702872 374.858907 65.702872 367.638646 C 65.702872 360.414471 71.55735 354.559994 78.777611 354.559994 C 86.001786 354.559994 91.856263 360.414471 91.856263 367.638646 Z M 91.856263 367.638646 " transform="matrix(0.998168, 0, 0, -0.998168, 21.241738, 498.015781)"/>
<path fill-rule="nonzero" fill="rgb(100%, 100%, 100%)" fill-opacity="1" stroke-width="0.3985" stroke-linecap="butt" stroke-linejoin="miter" stroke="rgb(100%, 100%, 100%)" stroke-opacity="1" stroke-miterlimit="10" d="M 91.911051 393.897699 C 91.911051 401.149268 86.02918 407.027226 78.777611 407.027226 C 71.529956 407.027226 65.648084 401.149268 65.648084 393.897699 C 65.648084 386.646131 71.529956 380.768173 78.777611 380.768173 C 86.02918 380.768173 91.911051 386.646131 91.911051 393.897699 Z M 91.911051 393.897699 " transform="matrix(0.998168, 0, 0, -0.998168, 21.241738, 498.015781)"/>
<path fill-rule="nonzero" fill="rgb(0%, 0%, 0%)" fill-opacity="1" stroke-width="1.1998" stroke-linecap="butt" stroke-linejoin="miter" stroke="rgb(100%, 100%, 100%)" stroke-opacity="1" stroke-miterlimit="10" d="M 91.856263 393.897699 C 91.856263 401.117961 86.001786 406.976352 78.777611 406.976352 C 71.55735 406.976352 65.702872 401.117961 65.702872 393.897699 C 65.702872 386.673525 71.55735 380.819047 78.777611 380.819047 C 86.001786 380.819047 91.856263 386.673525 91.856263 393.897699 Z M 91.856263 393.897699 " transform="matrix(0.998168, 0, 0, -0.998168, 21.241738, 498.015781)"/>
<path fill-rule="nonzero" fill="rgb(100%, 100%, 100%)" fill-opacity="1" stroke-width="0.3985" stroke-linecap="butt" stroke-linejoin="miter" stroke="rgb(100%, 100%, 100%)" stroke-opacity="1" stroke-miterlimit="10" d="M 65.648084 393.897699 C 65.648084 401.149268 59.770126 407.027226 52.518558 407.027226 C 45.266989 407.027226 39.389031 401.149268 39.389031 393.897699 C 39.389031 386.646131 45.266989 380.768173 52.518558 380.768173 C 59.770126 380.768173 65.648084 386.646131 65.648084 393.897699 Z M 65.648084 393.897699 " transform="matrix(0.998168, 0, 0, -0.998168, 21.241738, 498.015781)"/>
<path fill-rule="nonzero" fill="rgb(0%, 0%, 0%)" fill-opacity="1" stroke-width="1.1998" stroke-linecap="butt" stroke-linejoin="miter" stroke="rgb(100%, 100%, 100%)" stroke-opacity="1" stroke-miterlimit="10" d="M 65.59721 393.897699 C 65.59721 401.117961 59.742732 406.976352 52.518558 406.976352 C 45.298296 406.976352 39.443819 401.117961 39.443819 393.897699 C 39.443819 386.673525 45.298296 380.819047 52.518558 380.819047 C 59.742732 380.819047 65.59721 386.673525 65.59721 393.897699 Z M 65.59721 393.897699 " transform="matrix(0.998168, 0, 0, -0.998168, 21.241738, 498.015781)"/>
<path fill-rule="nonzero" fill="rgb(100%, 100%, 100%)" fill-opacity="1" stroke-width="0.3985" stroke-linecap="butt" stroke-linejoin="miter" stroke="rgb(100%, 100%, 100%)" stroke-opacity="1" stroke-miterlimit="10" d="M 65.648084 420.156753 C 65.648084 427.408322 59.770126 433.28628 52.518558 433.28628 C 45.266989 433.28628 39.389031 427.408322 39.389031 420.156753 C 39.389031 412.905184 45.266989 407.027226 52.518558 407.027226 C 59.770126 407.027226 65.648084 412.905184 65.648084 420.156753 Z M 65.648084 420.156753 " transform="matrix(0.998168, 0, 0, -0.998168, 21.241738, 498.015781)"/>
<path fill-rule="nonzero" fill="rgb(0%, 0%, 0%)" fill-opacity="1" stroke-width="1.1998" stroke-linecap="butt" stroke-linejoin="miter" stroke="rgb(100%, 100%, 100%)" stroke-opacity="1" stroke-miterlimit="10" d="M 65.59721 420.156753 C 65.59721 427.380928 59.742732 433.235405 52.518558 433.235405 C 45.298296 433.235405 39.443819 427.380928 39.443819 420.156753 C 39.443819 412.932578 45.298296 407.078101 52.518558 407.078101 C 59.742732 407.078101 65.59721 412.932578 65.59721 420.156753 Z M 65.59721 420.156753 " transform="matrix(0.998168, 0, 0, -0.998168, 21.241738, 498.015781)"/>
<path fill-rule="nonzero" fill="rgb(100%, 100%, 100%)" fill-opacity="1" stroke-width="0.3985" stroke-linecap="butt" stroke-linejoin="miter" stroke="rgb(100%, 100%, 100%)" stroke-opacity="1" stroke-miterlimit="10" d="M 118.170105 367.638646 C 118.170105 374.890215 112.292147 380.768173 105.040578 380.768173 C 97.789009 380.768173 91.911051 374.890215 91.911051 367.638646 C 91.911051 360.387077 97.789009 354.509119 105.040578 354.509119 C 112.292147 354.509119 118.170105 360.387077 118.170105 367.638646 Z M 118.170105 367.638646 " transform="matrix(0.998168, 0, 0, -0.998168, 21.241738, 498.015781)"/>
<path fill-rule="nonzero" fill="rgb(0%, 0%, 0%)" fill-opacity="1" stroke-width="1.1998" stroke-linecap="butt" stroke-linejoin="miter" stroke="rgb(100%, 100%, 100%)" stroke-opacity="1" stroke-miterlimit="10" d="M 118.115317 367.638646 C 118.115317 374.858907 112.260839 380.713385 105.040578 380.713385 C 97.816403 380.713385 91.961926 374.858907 91.961926 367.638646 C 91.961926 360.414471 97.816403 354.559994 105.040578 354.559994 C 112.260839 354.559994 118.115317 360.414471 118.115317 367.638646 Z M 118.115317 367.638646 " transform="matrix(0.998168, 0, 0, -0.998168, 21.241738, 498.015781)"/>
<path fill-rule="nonzero" fill="rgb(100%, 100%, 100%)" fill-opacity="1" stroke-width="0.3985" stroke-linecap="butt" stroke-linejoin="miter" stroke="rgb(100%, 100%, 100%)" stroke-opacity="1" stroke-miterlimit="10" d="M 144.429158 393.897699 C 144.429158 401.149268 138.5512 407.027226 131.299632 407.027226 C 124.048063 407.027226 118.170105 401.149268 118.170105 393.897699 C 118.170105 386.646131 124.048063 380.768173 131.299632 380.768173 C 138.5512 380.768173 144.429158 386.646131 144.429158 393.897699 Z M 144.429158 393.897699 " transform="matrix(0.998168, 0, 0, -0.998168, 21.241738, 498.015781)"/>
<path fill-rule="nonzero" fill="rgb(0%, 0%, 0%)" fill-opacity="1" stroke-width="1.1998" stroke-linecap="butt" stroke-linejoin="miter" stroke="rgb(100%, 100%, 100%)" stroke-opacity="1" stroke-miterlimit="10" d="M 144.378284 393.897699 C 144.378284 401.117961 138.519893 406.976352 131.299632 406.976352 C 124.075457 406.976352 118.220979 401.117961 118.220979 393.897699 C 118.220979 386.673525 124.075457 380.819047 131.299632 380.819047 C 138.519893 380.819047 144.378284 386.673525 144.378284 393.897699 Z M 144.378284 393.897699 " transform="matrix(0.998168, 0, 0, -0.998168, 21.241738, 498.015781)"/>
<path fill-rule="nonzero" fill="rgb(100%, 100%, 100%)" fill-opacity="1" stroke-width="0.3985" stroke-linecap="butt" stroke-linejoin="miter" stroke="rgb(100%, 100%, 100%)" stroke-opacity="1" stroke-miterlimit="10" d="M 170.688212 367.638646 C 170.688212 374.890215 164.810254 380.768173 157.558685 380.768173 C 150.307116 380.768173 144.429158 374.890215 144.429158 367.638646 C 144.429158 360.387077 150.307116 354.509119 157.558685 354.509119 C 164.810254 354.509119 170.688212 360.387077 170.688212 367.638646 Z M 170.688212 367.638646 " transform="matrix(0.998168, 0, 0, -0.998168, 21.241738, 498.015781)"/>
<path fill-rule="nonzero" fill="rgb(0%, 0%, 0%)" fill-opacity="1" stroke-width="1.1998" stroke-linecap="butt" stroke-linejoin="miter" stroke="rgb(100%, 100%, 100%)" stroke-opacity="1" stroke-miterlimit="10" d="M 170.637337 367.638646 C 170.637337 374.858907 164.78286 380.713385 157.558685 380.713385 C 150.33451 380.713385 144.480033 374.858907 144.480033 367.638646 C 144.480033 360.414471 150.33451 354.559994 157.558685 354.559994 C 164.78286 354.559994 170.637337 360.414471 170.637337 367.638646 Z M 170.637337 367.638646 " transform="matrix(0.998168, 0, 0, -0.998168, 21.241738, 498.015781)"/>
<path fill-rule="nonzero" fill="rgb(100%, 100%, 100%)" fill-opacity="1" stroke-width="0.3985" stroke-linecap="butt" stroke-linejoin="miter" stroke="rgb(100%, 100%, 100%)" stroke-opacity="1" stroke-miterlimit="10" d="M 196.947265 367.638646 C 196.947265 374.890215 191.069307 380.768173 183.817739 380.768173 C 176.56617 380.768173 170.688212 374.890215 170.688212 367.638646 C 170.688212 360.387077 176.56617 354.509119 183.817739 354.509119 C 191.069307 354.509119 196.947265 360.387077 196.947265 367.638646 Z M 196.947265 367.638646 " transform="matrix(0.998168, 0, 0, -0.998168, 21.241738, 498.015781)"/>
<path fill-rule="nonzero" fill="rgb(0%, 0%, 0%)" fill-opacity="1" stroke-width="1.1998" stroke-linecap="butt" stroke-linejoin="miter" stroke="rgb(100%, 100%, 100%)" stroke-opacity="1" stroke-miterlimit="10" d="M 196.896391 367.638646 C 196.896391 374.858907 191.041913 380.713385 183.817739 380.713385 C 176.597477 380.713385 170.743 374.858907 170.743 367.638646 C 170.743 360.414471 176.597477 354.559994 183.817739 354.559994 C 191.041913 354.559994 196.896391 360.414471 196.896391 367.638646 Z M 196.896391 367.638646 " transform="matrix(0.998168, 0, 0, -0.998168, 21.241738, 498.015781)"/>
<path fill-rule="nonzero" fill="rgb(100%, 100%, 100%)" fill-opacity="1" stroke-width="0.3985" stroke-linecap="butt" stroke-linejoin="miter" stroke="rgb(100%, 100%, 100%)" stroke-opacity="1" stroke-miterlimit="10" d="M 196.947265 393.897699 C 196.947265 401.149268 191.069307 407.027226 183.817739 407.027226 C 176.56617 407.027226 170.688212 401.149268 170.688212 393.897699 C 170.688212 386.646131 176.56617 380.768173 183.817739 380.768173 C 191.069307 380.768173 196.947265 386.646131 196.947265 393.897699 Z M 196.947265 393.897699 " transform="matrix(0.998168, 0, 0, -0.998168, 21.241738, 498.015781)"/>
<path fill-rule="nonzero" fill="rgb(0%, 0%, 0%)" fill-opacity="1" stroke-width="1.1998" stroke-linecap="butt" stroke-linejoin="miter" stroke="rgb(100%, 100%, 100%)" stroke-opacity="1" stroke-miterlimit="10" d="M 196.896391 393.897699 C 196.896391 401.117961 191.041913 406.976352 183.817739 406.976352 C 176.597477 406.976352 170.743 401.117961 170.743 393.897699 C 170.743 386.673525 176.597477 380.819047 183.817739 380.819047 C 191.041913 380.819047 196.896391 386.673525 196.896391 393.897699 Z M 196.896391 393.897699 " transform="matrix(0.998168, 0, 0, -0.998168, 21.241738, 498.015781)"/>
<path fill-rule="nonzero" fill="rgb(100%, 100%, 100%)" fill-opacity="1" stroke-width="0.3985" stroke-linecap="butt" stroke-linejoin="miter" stroke="rgb(100%, 100%, 100%)" stroke-opacity="1" stroke-miterlimit="10" d="M 196.947265 341.375679 C 196.947265 348.627248 191.069307 354.509119 183.817739 354.509119 C 176.56617 354.509119 170.688212 348.627248 170.688212 341.375679 C 170.688212 334.128024 176.56617 328.246152 183.817739 328.246152 C 191.069307 328.246152 196.947265 334.128024 196.947265 341.375679 Z M 196.947265 341.375679 " transform="matrix(0.998168, 0, 0, -0.998168, 21.241738, 498.015781)"/>
<path fill-rule="nonzero" fill="rgb(0%, 0%, 0%)" fill-opacity="1" stroke-width="1.1998" stroke-linecap="butt" stroke-linejoin="miter" stroke="rgb(100%, 100%, 100%)" stroke-opacity="1" stroke-miterlimit="10" d="M 196.896391 341.375679 C 196.896391 348.599854 191.041913 354.454331 183.817739 354.454331 C 176.597477 354.454331 170.743 348.599854 170.743 341.375679 C 170.743 334.155418 176.597477 328.30094 183.817739 328.30094 C 191.041913 328.30094 196.896391 334.155418 196.896391 341.375679 Z M 196.896391 341.375679 " transform="matrix(0.998168, 0, 0, -0.998168, 21.241738, 498.015781)"/>
<path fill-rule="nonzero" fill="rgb(100%, 100%, 100%)" fill-opacity="1" stroke-width="0.3985" stroke-linecap="butt" stroke-linejoin="miter" stroke="rgb(100%, 100%, 100%)" stroke-opacity="1" stroke-miterlimit="10" d="M 275.728339 367.638646 C 275.728339 374.890215 269.850381 380.768173 262.598813 380.768173 C 255.347244 380.768173 249.469286 374.890215 249.469286 367.638646 C 249.469286 360.387077 255.347244 354.509119 262.598813 354.509119 C 269.850381 354.509119 275.728339 360.387077 275.728339 367.638646 Z M 275.728339 367.638646 " transform="matrix(0.998168, 0, 0, -0.998168, 21.241738, 498.015781)"/>
<path fill-rule="nonzero" fill="rgb(0%, 0%, 0%)" fill-opacity="1" stroke-width="1.1998" stroke-linecap="butt" stroke-linejoin="miter" stroke="rgb(100%, 100%, 100%)" stroke-opacity="1" stroke-miterlimit="10" d="M 275.673551 367.638646 C 275.673551 374.858907 269.819074 380.713385 262.598813 380.713385 C 255.374638 380.713385 249.52016 374.858907 249.52016 367.638646 C 249.52016 360.414471 255.374638 354.559994 262.598813 354.559994 C 269.819074 354.559994 275.673551 360.414471 275.673551 367.638646 Z M 275.673551 367.638646 " transform="matrix(0.998168, 0, 0, -0.998168, 21.241738, 498.015781)"/>
<path fill-rule="nonzero" fill="rgb(100%, 100%, 100%)" fill-opacity="1" stroke-width="0.3985" stroke-linecap="butt" stroke-linejoin="miter" stroke="rgb(100%, 100%, 100%)" stroke-opacity="1" stroke-miterlimit="10" d="M 39.389031 446.415806 C 39.389031 453.667375 33.511073 459.545333 26.259504 459.545333 C 19.007935 459.545333 13.129977 453.667375 13.129977 446.415806 C 13.129977 439.164238 19.007935 433.28628 26.259504 433.28628 C 33.511073 433.28628 39.389031 439.164238 39.389031 446.415806 Z M 39.389031 446.415806 " transform="matrix(0.998168, 0, 0, -0.998168, 21.241738, 498.015781)"/>
<path fill-rule="nonzero" fill="rgb(0%, 0%, 0%)" fill-opacity="1" stroke-width="1.1998" stroke-linecap="butt" stroke-linejoin="miter" stroke="rgb(100%, 100%, 100%)" stroke-opacity="1" stroke-miterlimit="10" d="M 39.338156 446.415806 C 39.338156 453.639981 33.483679 459.494459 26.259504 459.494459 C 19.039243 459.494459 13.180852 453.639981 13.180852 446.415806 C 13.180852 439.195545 19.039243 433.341068 26.259504 433.341068 C 33.483679 433.341068 39.338156 439.195545 39.338156 446.415806 Z M 39.338156 446.415806 " transform="matrix(0.998168, 0, 0, -0.998168, 21.241738, 498.015781)"/>
<path fill-rule="nonzero" fill="rgb(100%, 100%, 100%)" fill-opacity="1" stroke-width="0.3985" stroke-linecap="butt" stroke-linejoin="miter" stroke="rgb(100%, 100%, 100%)" stroke-opacity="1" stroke-miterlimit="10" d="M 407.02752 52.518264 C 407.02752 59.769832 401.149562 65.64779 393.897993 65.64779 C 386.646425 65.64779 380.768467 59.769832 380.768467 52.518264 C 380.768467 45.266695 386.646425 39.388737 393.897993 39.388737 C 401.149562 39.388737 407.02752 45.266695 407.02752 52.518264 Z M 407.02752 52.518264 " transform="matrix(0.998168, 0, 0, -0.998168, 21.241738, 498.015781)"/>
<path fill-rule="nonzero" fill="rgb(100%, 100%, 100%)" fill-opacity="1" stroke-width="1.1998" stroke-linecap="butt" stroke-linejoin="miter" stroke="rgb(0%, 0%, 0%)" stroke-opacity="1" stroke-miterlimit="10" d="M 405.876974 52.518264 C 405.876974 59.135858 400.515588 64.501158 393.897993 64.501158 C 387.280399 64.501158 381.915099 59.135858 381.915099 52.518264 C 381.915099 45.904582 387.280399 40.539283 393.897993 40.539283 C 400.515588 40.539283 405.876974 45.904582 405.876974 52.518264 Z M 405.876974 52.518264 " transform="matrix(0.998168, 0, 0, -0.998168, 21.241738, 498.015781)"/>
<path fill-rule="nonzero" fill="rgb(100%, 100%, 100%)" fill-opacity="1" stroke-width="0.3985" stroke-linecap="butt" stroke-linejoin="miter" stroke="rgb(100%, 100%, 100%)" stroke-opacity="1" stroke-miterlimit="10" d="M 433.286574 105.040284 C 433.286574 112.291853 427.408616 118.169811 420.157047 118.169811 C 412.905478 118.169811 407.02752 112.291853 407.02752 105.040284 C 407.02752 97.788715 412.905478 91.910757 420.157047 91.910757 C 427.408616 91.910757 433.286574 97.788715 433.286574 105.040284 Z M 433.286574 105.040284 " transform="matrix(0.998168, 0, 0, -0.998168, 21.241738, 498.015781)"/>
<path fill-rule="nonzero" fill="rgb(100%, 100%, 100%)" fill-opacity="1" stroke-width="1.1998" stroke-linecap="butt" stroke-linejoin="miter" stroke="rgb(0%, 0%, 0%)" stroke-opacity="1" stroke-miterlimit="10" d="M 432.136028 105.040284 C 432.136028 111.657879 426.774642 117.019265 420.157047 117.019265 C 413.539452 117.019265 408.178066 111.657879 408.178066 105.040284 C 408.178066 98.422689 413.539452 93.05739 420.157047 93.05739 C 426.774642 93.05739 432.136028 98.422689 432.136028 105.040284 Z M 432.136028 105.040284 " transform="matrix(0.998168, 0, 0, -0.998168, 21.241738, 498.015781)"/>
<path fill-rule="nonzero" fill="rgb(100%, 100%, 100%)" fill-opacity="1" stroke-width="0.3985" stroke-linecap="butt" stroke-linejoin="miter" stroke="rgb(100%, 100%, 100%)" stroke-opacity="1" stroke-miterlimit="10" d="M 144.429158 236.339465 C 144.429158 243.591034 138.5512 249.468992 131.299632 249.468992 C 124.048063 249.468992 118.170105 243.591034 118.170105 236.339465 C 118.170105 229.087896 124.048063 223.209938 131.299632 223.209938 C 138.5512 223.209938 144.429158 229.087896 144.429158 236.339465 Z M 144.429158 236.339465 " transform="matrix(0.998168, 0, 0, -0.998168, 21.241738, 498.015781)"/>
<path fill-rule="nonzero" fill="rgb(100%, 100%, 100%)" fill-opacity="1" stroke-width="1.1998" stroke-linecap="butt" stroke-linejoin="miter" stroke="rgb(0%, 0%, 0%)" stroke-opacity="1" stroke-miterlimit="10" d="M 143.278613 236.339465 C 143.278613 242.95706 137.917226 248.318446 131.299632 248.318446 C 124.682037 248.318446 119.316737 242.95706 119.316737 236.339465 C 119.316737 229.72187 124.682037 224.35657 131.299632 224.35657 C 137.917226 224.35657 143.278613 229.72187 143.278613 236.339465 Z M 143.278613 236.339465 " transform="matrix(0.998168, 0, 0, -0.998168, 21.241738, 498.015781)"/>
<path fill-rule="nonzero" fill="rgb(100%, 100%, 100%)" fill-opacity="1" stroke-width="0.3985" stroke-linecap="butt" stroke-linejoin="miter" stroke="rgb(100%, 100%, 100%)" stroke-opacity="1" stroke-miterlimit="10" d="M 196.947265 236.339465 C 196.947265 243.591034 191.069307 249.468992 183.817739 249.468992 C 176.56617 249.468992 170.688212 243.591034 170.688212 236.339465 C 170.688212 229.087896 176.56617 223.209938 183.817739 223.209938 C 191.069307 223.209938 196.947265 229.087896 196.947265 236.339465 Z M 196.947265 236.339465 " transform="matrix(0.998168, 0, 0, -0.998168, 21.241738, 498.015781)"/>
<path fill-rule="nonzero" fill="rgb(100%, 100%, 100%)" fill-opacity="1" stroke-width="1.1998" stroke-linecap="butt" stroke-linejoin="miter" stroke="rgb(0%, 0%, 0%)" stroke-opacity="1" stroke-miterlimit="10" d="M 195.800633 236.339465 C 195.800633 242.95706 190.435333 248.318446 183.817739 248.318446 C 177.200144 248.318446 171.838758 242.95706 171.838758 236.339465 C 171.838758 229.72187 177.200144 224.35657 183.817739 224.35657 C 190.435333 224.35657 195.800633 229.72187 195.800633 236.339465 Z M 195.800633 236.339465 " transform="matrix(0.998168, 0, 0, -0.998168, 21.241738, 498.015781)"/>
<path fill-rule="nonzero" fill="rgb(100%, 100%, 100%)" fill-opacity="1" stroke-width="0.3985" stroke-linecap="butt" stroke-linejoin="miter" stroke="rgb(100%, 100%, 100%)" stroke-opacity="1" stroke-miterlimit="10" d="M 170.688212 288.857572 C 170.688212 296.109141 164.810254 301.987099 157.558685 301.987099 C 150.307116 301.987099 144.429158 296.109141 144.429158 288.857572 C 144.429158 281.606003 150.307116 275.728045 157.558685 275.728045 C 164.810254 275.728045 170.688212 281.606003 170.688212 288.857572 Z M 170.688212 288.857572 " transform="matrix(0.998168, 0, 0, -0.998168, 21.241738, 498.015781)"/>
<path fill-rule="nonzero" fill="rgb(100%, 100%, 100%)" fill-opacity="1" stroke-width="1.1998" stroke-linecap="butt" stroke-linejoin="miter" stroke="rgb(0%, 0%, 0%)" stroke-opacity="1" stroke-miterlimit="10" d="M 169.54158 288.857572 C 169.54158 295.475167 164.17628 300.840466 157.558685 300.840466 C 150.941091 300.840466 145.579704 295.475167 145.579704 288.857572 C 145.579704 282.239977 150.941091 276.878591 157.558685 276.878591 C 164.17628 276.878591 169.54158 282.239977 169.54158 288.857572 Z M 169.54158 288.857572 " transform="matrix(0.998168, 0, 0, -0.998168, 21.241738, 498.015781)"/>
<path fill-rule="nonzero" fill="rgb(100%, 100%, 100%)" fill-opacity="1" stroke-width="0.3985" stroke-linecap="butt" stroke-linejoin="miter" stroke="rgb(100%, 100%, 100%)" stroke-opacity="1" stroke-miterlimit="10" d="M 118.170105 262.598518 C 118.170105 269.850087 112.292147 275.728045 105.040578 275.728045 C 97.789009 275.728045 91.911051 269.850087 91.911051 262.598518 C 91.911051 255.34695 97.789009 249.468992 105.040578 249.468992 C 112.292147 249.468992 118.170105 255.34695 118.170105 262.598518 Z M 118.170105 262.598518 " transform="matrix(0.998168, 0, 0, -0.998168, 21.241738, 498.015781)"/>
<path fill-rule="nonzero" fill="rgb(100%, 100%, 100%)" fill-opacity="1" stroke-width="1.1998" stroke-linecap="butt" stroke-linejoin="miter" stroke="rgb(0%, 0%, 0%)" stroke-opacity="1" stroke-miterlimit="10" d="M 117.019559 262.598518 C 117.019559 269.216113 111.654259 274.577499 105.040578 274.577499 C 98.422984 274.577499 93.057684 269.216113 93.057684 262.598518 C 93.057684 255.980924 98.422984 250.615624 105.040578 250.615624 C 111.654259 250.615624 117.019559 255.980924 117.019559 262.598518 Z M 117.019559 262.598518 " transform="matrix(0.998168, 0, 0, -0.998168, 21.241738, 498.015781)"/>
<path fill-rule="nonzero" fill="rgb(100%, 100%, 100%)" fill-opacity="1" stroke-width="0.3985" stroke-linecap="butt" stroke-linejoin="miter" stroke="rgb(100%, 100%, 100%)" stroke-opacity="1" stroke-miterlimit="10" d="M 118.170105 288.857572 C 118.170105 296.109141 112.292147 301.987099 105.040578 301.987099 C 97.789009 301.987099 91.911051 296.109141 91.911051 288.857572 C 91.911051 281.606003 97.789009 275.728045 105.040578 275.728045 C 112.292147 275.728045 118.170105 281.606003 118.170105 288.857572 Z M 118.170105 288.857572 " transform="matrix(0.998168, 0, 0, -0.998168, 21.241738, 498.015781)"/>
<path fill-rule="nonzero" fill="rgb(100%, 100%, 100%)" fill-opacity="1" stroke-width="1.1998" stroke-linecap="butt" stroke-linejoin="miter" stroke="rgb(0%, 0%, 0%)" stroke-opacity="1" stroke-miterlimit="10" d="M 117.019559 288.857572 C 117.019559 295.475167 111.654259 300.840466 105.040578 300.840466 C 98.422984 300.840466 93.057684 295.475167 93.057684 288.857572 C 93.057684 282.239977 98.422984 276.878591 105.040578 276.878591 C 111.654259 276.878591 117.019559 282.239977 117.019559 288.857572 Z M 117.019559 288.857572 " transform="matrix(0.998168, 0, 0, -0.998168, 21.241738, 498.015781)"/>
<path fill-rule="nonzero" fill="rgb(100%, 100%, 100%)" fill-opacity="1" stroke-width="0.3985" stroke-linecap="butt" stroke-linejoin="miter" stroke="rgb(100%, 100%, 100%)" stroke-opacity="1" stroke-miterlimit="10" d="M 91.911051 288.857572 C 91.911051 296.109141 86.02918 301.987099 78.777611 301.987099 C 71.529956 301.987099 65.648084 296.109141 65.648084 288.857572 C 65.648084 281.606003 71.529956 275.728045 78.777611 275.728045 C 86.02918 275.728045 91.911051 281.606003 91.911051 288.857572 Z M 91.911051 288.857572 " transform="matrix(0.998168, 0, 0, -0.998168, 21.241738, 498.015781)"/>
<path fill-rule="nonzero" fill="rgb(100%, 100%, 100%)" fill-opacity="1" stroke-width="1.1998" stroke-linecap="butt" stroke-linejoin="miter" stroke="rgb(0%, 0%, 0%)" stroke-opacity="1" stroke-miterlimit="10" d="M 90.760506 288.857572 C 90.760506 295.475167 85.395206 300.840466 78.777611 300.840466 C 72.16393 300.840466 66.79863 295.475167 66.79863 288.857572 C 66.79863 282.239977 72.16393 276.878591 78.777611 276.878591 C 85.395206 276.878591 90.760506 282.239977 90.760506 288.857572 Z M 90.760506 288.857572 " transform="matrix(0.998168, 0, 0, -0.998168, 21.241738, 498.015781)"/>
<path fill-rule="nonzero" fill="rgb(100%, 100%, 100%)" fill-opacity="1" stroke-width="0.3985" stroke-linecap="butt" stroke-linejoin="miter" stroke="rgb(100%, 100%, 100%)" stroke-opacity="1" stroke-miterlimit="10" d="M 65.648084 288.857572 C 65.648084 296.109141 59.770126 301.987099 52.518558 301.987099 C 45.266989 301.987099 39.389031 296.109141 39.389031 288.857572 C 39.389031 281.606003 45.266989 275.728045 52.518558 275.728045 C 59.770126 275.728045 65.648084 281.606003 65.648084 288.857572 Z M 65.648084 288.857572 " transform="matrix(0.998168, 0, 0, -0.998168, 21.241738, 498.015781)"/>
<path fill-rule="nonzero" fill="rgb(100%, 100%, 100%)" fill-opacity="1" stroke-width="1.1998" stroke-linecap="butt" stroke-linejoin="miter" stroke="rgb(0%, 0%, 0%)" stroke-opacity="1" stroke-miterlimit="10" d="M 64.501452 288.857572 C 64.501452 295.475167 59.136152 300.840466 52.518558 300.840466 C 45.900963 300.840466 40.539577 295.475167 40.539577 288.857572 C 40.539577 282.239977 45.900963 276.878591 52.518558 276.878591 C 59.136152 276.878591 64.501452 282.239977 64.501452 288.857572 Z M 64.501452 288.857572 " transform="matrix(0.998168, 0, 0, -0.998168, 21.241738, 498.015781)"/>
<path fill-rule="nonzero" fill="rgb(100%, 100%, 100%)" fill-opacity="1" stroke-width="0.3985" stroke-linecap="butt" stroke-linejoin="miter" stroke="rgb(100%, 100%, 100%)" stroke-opacity="1" stroke-miterlimit="10" d="M 65.648084 262.598518 C 65.648084 269.850087 59.770126 275.728045 52.518558 275.728045 C 45.266989 275.728045 39.389031 269.850087 39.389031 262.598518 C 39.389031 255.34695 45.266989 249.468992 52.518558 249.468992 C 59.770126 249.468992 65.648084 255.34695 65.648084 262.598518 Z M 65.648084 262.598518 " transform="matrix(0.998168, 0, 0, -0.998168, 21.241738, 498.015781)"/>
<path fill-rule="nonzero" fill="rgb(100%, 100%, 100%)" fill-opacity="1" stroke-width="1.1998" stroke-linecap="butt" stroke-linejoin="miter" stroke="rgb(0%, 0%, 0%)" stroke-opacity="1" stroke-miterlimit="10" d="M 64.501452 262.598518 C 64.501452 269.216113 59.136152 274.577499 52.518558 274.577499 C 45.900963 274.577499 40.539577 269.216113 40.539577 262.598518 C 40.539577 255.980924 45.900963 250.615624 52.518558 250.615624 C 59.136152 250.615624 64.501452 255.980924 64.501452 262.598518 Z M 64.501452 262.598518 " transform="matrix(0.998168, 0, 0, -0.998168, 21.241738, 498.015781)"/>
<path fill-rule="nonzero" fill="rgb(100%, 100%, 100%)" fill-opacity="1" stroke-width="0.3985" stroke-linecap="butt" stroke-linejoin="miter" stroke="rgb(100%, 100%, 100%)" stroke-opacity="1" stroke-miterlimit="10" d="M 39.389031 315.116625 C 39.389031 322.368194 33.511073 328.246152 26.259504 328.246152 C 19.007935 328.246152 13.129977 322.368194 13.129977 315.116625 C 13.129977 307.865057 19.007935 301.987099 26.259504 301.987099 C 33.511073 301.987099 39.389031 307.865057 39.389031 315.116625 Z M 39.389031 315.116625 " transform="matrix(0.998168, 0, 0, -0.998168, 21.241738, 498.015781)"/>
<path fill-rule="nonzero" fill="rgb(100%, 100%, 100%)" fill-opacity="1" stroke-width="1.1998" stroke-linecap="butt" stroke-linejoin="miter" stroke="rgb(0%, 0%, 0%)" stroke-opacity="1" stroke-miterlimit="10" d="M 38.242399 315.116625 C 38.242399 321.73422 32.877099 327.09952 26.259504 327.09952 C 19.64191 327.09952 14.280523 321.73422 14.280523 315.116625 C 14.280523 308.499031 19.64191 303.137644 26.259504 303.137644 C 32.877099 303.137644 38.242399 308.499031 38.242399 315.116625 Z M 38.242399 315.116625 " transform="matrix(0.998168, 0, 0, -0.998168, 21.241738, 498.015781)"/>
<path fill-rule="nonzero" fill="rgb(100%, 100%, 100%)" fill-opacity="1" stroke-width="0.3985" stroke-linecap="butt" stroke-linejoin="miter" stroke="rgb(100%, 100%, 100%)" stroke-opacity="1" stroke-miterlimit="10" d="M 65.648084 315.116625 C 65.648084 322.368194 59.770126 328.246152 52.518558 328.246152 C 45.266989 328.246152 39.389031 322.368194 39.389031 315.116625 C 39.389031 307.865057 45.266989 301.987099 52.518558 301.987099 C 59.770126 301.987099 65.648084 307.865057 65.648084 315.116625 Z M 65.648084 315.116625 " transform="matrix(0.998168, 0, 0, -0.998168, 21.241738, 498.015781)"/>
<path fill-rule="nonzero" fill="rgb(100%, 100%, 100%)" fill-opacity="1" stroke-width="1.1998" stroke-linecap="butt" stroke-linejoin="miter" stroke="rgb(0%, 0%, 0%)" stroke-opacity="1" stroke-miterlimit="10" d="M 64.501452 315.116625 C 64.501452 321.73422 59.136152 327.09952 52.518558 327.09952 C 45.900963 327.09952 40.539577 321.73422 40.539577 315.116625 C 40.539577 308.499031 45.900963 303.137644 52.518558 303.137644 C 59.136152 303.137644 64.501452 308.499031 64.501452 315.116625 Z M 64.501452 315.116625 " transform="matrix(0.998168, 0, 0, -0.998168, 21.241738, 498.015781)"/>
<path fill-rule="nonzero" fill="rgb(100%, 100%, 100%)" fill-opacity="1" stroke-width="0.3985" stroke-linecap="butt" stroke-linejoin="miter" stroke="rgb(100%, 100%, 100%)" stroke-opacity="1" stroke-miterlimit="10" d="M 223.206319 367.638646 C 223.206319 374.890215 217.328361 380.768173 210.076792 380.768173 C 202.825223 380.768173 196.947265 374.890215 196.947265 367.638646 C 196.947265 360.387077 202.825223 354.509119 210.076792 354.509119 C 217.328361 354.509119 223.206319 360.387077 223.206319 367.638646 Z M 223.206319 367.638646 " transform="matrix(0.998168, 0, 0, -0.998168, 21.241738, 498.015781)"/>
<path fill-rule="nonzero" fill="rgb(100%, 100%, 100%)" fill-opacity="1" stroke-width="1.1998" stroke-linecap="butt" stroke-linejoin="miter" stroke="rgb(0%, 0%, 0%)" stroke-opacity="1" stroke-miterlimit="10" d="M 222.059687 367.638646 C 222.059687 374.25624 216.694387 379.617627 210.076792 379.617627 C 203.463111 379.617627 198.097811 374.25624 198.097811 367.638646 C 198.097811 361.021051 203.463111 355.655751 210.076792 355.655751 C 216.694387 355.655751 222.059687 361.021051 222.059687 367.638646 Z M 222.059687 367.638646 " transform="matrix(0.998168, 0, 0, -0.998168, 21.241738, 498.015781)"/>
<path fill-rule="nonzero" fill="rgb(100%, 100%, 100%)" fill-opacity="1" stroke-width="0.3985" stroke-linecap="butt" stroke-linejoin="miter" stroke="rgb(100%, 100%, 100%)" stroke-opacity="1" stroke-miterlimit="10" d="M 223.206319 446.415806 C 223.206319 453.667375 217.328361 459.545333 210.076792 459.545333 C 202.825223 459.545333 196.947265 453.667375 196.947265 446.415806 C 196.947265 439.164238 202.825223 433.28628 210.076792 433.28628 C 217.328361 433.28628 223.206319 439.164238 223.206319 446.415806 Z M 223.206319 446.415806 " transform="matrix(0.998168, 0, 0, -0.998168, 21.241738, 498.015781)"/>
<path fill-rule="nonzero" fill="rgb(100%, 100%, 100%)" fill-opacity="1" stroke-width="1.1998" stroke-linecap="butt" stroke-linejoin="miter" stroke="rgb(0%, 0%, 0%)" stroke-opacity="1" stroke-miterlimit="10" d="M 222.059687 446.415806 C 222.059687 453.033401 216.694387 458.398701 210.076792 458.398701 C 203.463111 458.398701 198.097811 453.033401 198.097811 446.415806 C 198.097811 439.798212 203.463111 434.436825 210.076792 434.436825 C 216.694387 434.436825 222.059687 439.798212 222.059687 446.415806 Z M 222.059687 446.415806 " transform="matrix(0.998168, 0, 0, -0.998168, 21.241738, 498.015781)"/>
<path fill-rule="nonzero" fill="rgb(100%, 100%, 100%)" fill-opacity="1" stroke-width="0.3985" stroke-linecap="butt" stroke-linejoin="miter" stroke="rgb(100%, 100%, 100%)" stroke-opacity="1" stroke-miterlimit="10" d="M 170.688212 420.156753 C 170.688212 427.408322 164.810254 433.28628 157.558685 433.28628 C 150.307116 433.28628 144.429158 427.408322 144.429158 420.156753 C 144.429158 412.905184 150.307116 407.027226 157.558685 407.027226 C 164.810254 407.027226 170.688212 412.905184 170.688212 420.156753 Z M 170.688212 420.156753 " transform="matrix(0.998168, 0, 0, -0.998168, 21.241738, 498.015781)"/>
<path fill-rule="nonzero" fill="rgb(100%, 100%, 100%)" fill-opacity="1" stroke-width="1.1998" stroke-linecap="butt" stroke-linejoin="miter" stroke="rgb(0%, 0%, 0%)" stroke-opacity="1" stroke-miterlimit="10" d="M 169.54158 420.156753 C 169.54158 426.774347 164.17628 432.139647 157.558685 432.139647 C 150.941091 432.139647 145.579704 426.774347 145.579704 420.156753 C 145.579704 413.539158 150.941091 408.177772 157.558685 408.177772 C 164.17628 408.177772 169.54158 413.539158 169.54158 420.156753 Z M 169.54158 420.156753 " transform="matrix(0.998168, 0, 0, -0.998168, 21.241738, 498.015781)"/>
<path fill-rule="nonzero" fill="rgb(100%, 100%, 100%)" fill-opacity="1" stroke-width="0.3985" stroke-linecap="butt" stroke-linejoin="miter" stroke="rgb(100%, 100%, 100%)" stroke-opacity="1" stroke-miterlimit="10" d="M 170.688212 393.897699 C 170.688212 401.149268 164.810254 407.027226 157.558685 407.027226 C 150.307116 407.027226 144.429158 401.149268 144.429158 393.897699 C 144.429158 386.646131 150.307116 380.768173 157.558685 380.768173 C 164.810254 380.768173 170.688212 386.646131 170.688212 393.897699 Z M 170.688212 393.897699 " transform="matrix(0.998168, 0, 0, -0.998168, 21.241738, 498.015781)"/>
<path fill-rule="nonzero" fill="rgb(100%, 100%, 100%)" fill-opacity="1" stroke-width="1.1998" stroke-linecap="butt" stroke-linejoin="miter" stroke="rgb(0%, 0%, 0%)" stroke-opacity="1" stroke-miterlimit="10" d="M 169.54158 393.897699 C 169.54158 400.515294 164.17628 405.87668 157.558685 405.87668 C 150.941091 405.87668 145.579704 400.515294 145.579704 393.897699 C 145.579704 387.280105 150.941091 381.914805 157.558685 381.914805 C 164.17628 381.914805 169.54158 387.280105 169.54158 393.897699 Z M 169.54158 393.897699 " transform="matrix(0.998168, 0, 0, -0.998168, 21.241738, 498.015781)"/>
<path fill-rule="nonzero" fill="rgb(100%, 100%, 100%)" fill-opacity="1" stroke-width="0.3985" stroke-linecap="butt" stroke-linejoin="miter" stroke="rgb(100%, 100%, 100%)" stroke-opacity="1" stroke-miterlimit="10" d="M 144.429158 420.156753 C 144.429158 427.408322 138.5512 433.28628 131.299632 433.28628 C 124.048063 433.28628 118.170105 427.408322 118.170105 420.156753 C 118.170105 412.905184 124.048063 407.027226 131.299632 407.027226 C 138.5512 407.027226 144.429158 412.905184 144.429158 420.156753 Z M 144.429158 420.156753 " transform="matrix(0.998168, 0, 0, -0.998168, 21.241738, 498.015781)"/>
<path fill-rule="nonzero" fill="rgb(100%, 100%, 100%)" fill-opacity="1" stroke-width="1.1998" stroke-linecap="butt" stroke-linejoin="miter" stroke="rgb(0%, 0%, 0%)" stroke-opacity="1" stroke-miterlimit="10" d="M 143.278613 420.156753 C 143.278613 426.774347 137.917226 432.139647 131.299632 432.139647 C 124.682037 432.139647 119.316737 426.774347 119.316737 420.156753 C 119.316737 413.539158 124.682037 408.177772 131.299632 408.177772 C 137.917226 408.177772 143.278613 413.539158 143.278613 420.156753 Z M 143.278613 420.156753 " transform="matrix(0.998168, 0, 0, -0.998168, 21.241738, 498.015781)"/>
<path fill-rule="nonzero" fill="rgb(100%, 100%, 100%)" fill-opacity="1" stroke-width="0.3985" stroke-linecap="butt" stroke-linejoin="miter" stroke="rgb(100%, 100%, 100%)" stroke-opacity="1" stroke-miterlimit="10" d="M 118.170105 420.156753 C 118.170105 427.408322 112.292147 433.28628 105.040578 433.28628 C 97.789009 433.28628 91.911051 427.408322 91.911051 420.156753 C 91.911051 412.905184 97.789009 407.027226 105.040578 407.027226 C 112.292147 407.027226 118.170105 412.905184 118.170105 420.156753 Z M 118.170105 420.156753 " transform="matrix(0.998168, 0, 0, -0.998168, 21.241738, 498.015781)"/>
<path fill-rule="nonzero" fill="rgb(100%, 100%, 100%)" fill-opacity="1" stroke-width="1.1998" stroke-linecap="butt" stroke-linejoin="miter" stroke="rgb(0%, 0%, 0%)" stroke-opacity="1" stroke-miterlimit="10" d="M 117.019559 420.156753 C 117.019559 426.774347 111.654259 432.139647 105.040578 432.139647 C 98.422984 432.139647 93.057684 426.774347 93.057684 420.156753 C 93.057684 413.539158 98.422984 408.177772 105.040578 408.177772 C 111.654259 408.177772 117.019559 413.539158 117.019559 420.156753 Z M 117.019559 420.156753 " transform="matrix(0.998168, 0, 0, -0.998168, 21.241738, 498.015781)"/>
<path fill-rule="nonzero" fill="rgb(100%, 100%, 100%)" fill-opacity="1" stroke-width="0.3985" stroke-linecap="butt" stroke-linejoin="miter" stroke="rgb(100%, 100%, 100%)" stroke-opacity="1" stroke-miterlimit="10" d="M 118.170105 393.897699 C 118.170105 401.149268 112.292147 407.027226 105.040578 407.027226 C 97.789009 407.027226 91.911051 401.149268 91.911051 393.897699 C 91.911051 386.646131 97.789009 380.768173 105.040578 380.768173 C 112.292147 380.768173 118.170105 386.646131 118.170105 393.897699 Z M 118.170105 393.897699 " transform="matrix(0.998168, 0, 0, -0.998168, 21.241738, 498.015781)"/>
<path fill-rule="nonzero" fill="rgb(100%, 100%, 100%)" fill-opacity="1" stroke-width="1.1998" stroke-linecap="butt" stroke-linejoin="miter" stroke="rgb(0%, 0%, 0%)" stroke-opacity="1" stroke-miterlimit="10" d="M 117.019559 393.897699 C 117.019559 400.515294 111.654259 405.87668 105.040578 405.87668 C 98.422984 405.87668 93.057684 400.515294 93.057684 393.897699 C 93.057684 387.280105 98.422984 381.914805 105.040578 381.914805 C 111.654259 381.914805 117.019559 387.280105 117.019559 393.897699 Z M 117.019559 393.897699 " transform="matrix(0.998168, 0, 0, -0.998168, 21.241738, 498.015781)"/>
<path fill-rule="nonzero" fill="rgb(100%, 100%, 100%)" fill-opacity="1" stroke-width="0.3985" stroke-linecap="butt" stroke-linejoin="miter" stroke="rgb(100%, 100%, 100%)" stroke-opacity="1" stroke-miterlimit="10" d="M 91.911051 420.156753 C 91.911051 427.408322 86.02918 433.28628 78.777611 433.28628 C 71.529956 433.28628 65.648084 427.408322 65.648084 420.156753 C 65.648084 412.905184 71.529956 407.027226 78.777611 407.027226 C 86.02918 407.027226 91.911051 412.905184 91.911051 420.156753 Z M 91.911051 420.156753 " transform="matrix(0.998168, 0, 0, -0.998168, 21.241738, 498.015781)"/>
<path fill-rule="nonzero" fill="rgb(100%, 100%, 100%)" fill-opacity="1" stroke-width="1.1998" stroke-linecap="butt" stroke-linejoin="miter" stroke="rgb(0%, 0%, 0%)" stroke-opacity="1" stroke-miterlimit="10" d="M 90.760506 420.156753 C 90.760506 426.774347 85.395206 432.139647 78.777611 432.139647 C 72.16393 432.139647 66.79863 426.774347 66.79863 420.156753 C 66.79863 413.539158 72.16393 408.177772 78.777611 408.177772 C 85.395206 408.177772 90.760506 413.539158 90.760506 420.156753 Z M 90.760506 420.156753 " transform="matrix(0.998168, 0, 0, -0.998168, 21.241738, 498.015781)"/>
<path fill-rule="nonzero" fill="rgb(100%, 100%, 100%)" fill-opacity="1" stroke-width="0.3985" stroke-linecap="butt" stroke-linejoin="miter" stroke="rgb(100%, 100%, 100%)" stroke-opacity="1" stroke-miterlimit="10" d="M 65.648084 446.415806 C 65.648084 453.667375 59.770126 459.545333 52.518558 459.545333 C 45.266989 459.545333 39.389031 453.667375 39.389031 446.415806 C 39.389031 439.164238 45.266989 433.28628 52.518558 433.28628 C 59.770126 433.28628 65.648084 439.164238 65.648084 446.415806 Z M 65.648084 446.415806 " transform="matrix(0.998168, 0, 0, -0.998168, 21.241738, 498.015781)"/>
<path fill-rule="nonzero" fill="rgb(100%, 100%, 100%)" fill-opacity="1" stroke-width="1.1998" stroke-linecap="butt" stroke-linejoin="miter" stroke="rgb(0%, 0%, 0%)" stroke-opacity="1" stroke-miterlimit="10" d="M 64.501452 446.415806 C 64.501452 453.033401 59.136152 458.398701 52.518558 458.398701 C 45.900963 458.398701 40.539577 453.033401 40.539577 446.415806 C 40.539577 439.798212 45.900963 434.436825 52.518558 434.436825 C 59.136152 434.436825 64.501452 439.798212 64.501452 446.415806 Z M 64.501452 446.415806 " transform="matrix(0.998168, 0, 0, -0.998168, 21.241738, 498.015781)"/>
<path fill-rule="nonzero" fill="rgb(100%, 100%, 100%)" fill-opacity="1" stroke-width="0.3985" stroke-linecap="butt" stroke-linejoin="miter" stroke="rgb(100%, 100%, 100%)" stroke-opacity="1" stroke-miterlimit="10" d="M 39.389031 472.67486 C 39.389031 479.926429 33.511073 485.804387 26.259504 485.804387 C 19.007935 485.804387 13.129977 479.926429 13.129977 472.67486 C 13.129977 465.423291 19.007935 459.545333 26.259504 459.545333 C 33.511073 459.545333 39.389031 465.423291 39.389031 472.67486 Z M 39.389031 472.67486 " transform="matrix(0.998168, 0, 0, -0.998168, 21.241738, 498.015781)"/>
<path fill-rule="nonzero" fill="rgb(100%, 100%, 100%)" fill-opacity="1" stroke-width="1.1998" stroke-linecap="butt" stroke-linejoin="miter" stroke="rgb(0%, 0%, 0%)" stroke-opacity="1" stroke-miterlimit="10" d="M 38.242399 472.67486 C 38.242399 479.292454 32.877099 484.657754 26.259504 484.657754 C 19.64191 484.657754 14.280523 479.292454 14.280523 472.67486 C 14.280523 466.061179 19.64191 460.695879 26.259504 460.695879 C 32.877099 460.695879 38.242399 466.061179 38.242399 472.67486 Z M 38.242399 472.67486 " transform="matrix(0.998168, 0, 0, -0.998168, 21.241738, 498.015781)"/>
<path fill-rule="nonzero" fill="rgb(100%, 100%, 100%)" fill-opacity="1" stroke-width="0.3985" stroke-linecap="butt" stroke-linejoin="miter" stroke="rgb(100%, 100%, 100%)" stroke-opacity="1" stroke-miterlimit="10" d="M 39.389031 420.156753 C 39.389031 427.408322 33.511073 433.28628 26.259504 433.28628 C 19.007935 433.28628 13.129977 427.408322 13.129977 420.156753 C 13.129977 412.905184 19.007935 407.027226 26.259504 407.027226 C 33.511073 407.027226 39.389031 412.905184 39.389031 420.156753 Z M 39.389031 420.156753 " transform="matrix(0.998168, 0, 0, -0.998168, 21.241738, 498.015781)"/>
<path fill-rule="nonzero" fill="rgb(100%, 100%, 100%)" fill-opacity="1" stroke-width="1.1998" stroke-linecap="butt" stroke-linejoin="miter" stroke="rgb(0%, 0%, 0%)" stroke-opacity="1" stroke-miterlimit="10" d="M 38.242399 420.156753 C 38.242399 426.774347 32.877099 432.139647 26.259504 432.139647 C 19.64191 432.139647 14.280523 426.774347 14.280523 420.156753 C 14.280523 413.539158 19.64191 408.177772 26.259504 408.177772 C 32.877099 408.177772 38.242399 413.539158 38.242399 420.156753 Z M 38.242399 420.156753 " transform="matrix(0.998168, 0, 0, -0.998168, 21.241738, 498.015781)"/>
<path fill-rule="nonzero" fill="rgb(0%, 0%, 0%)" fill-opacity="1" stroke-width="0.3985" stroke-linecap="butt" stroke-linejoin="miter" stroke="rgb(0%, 0%, 0%)" stroke-opacity="1" stroke-miterlimit="10" d="M 244.060938 236.339465 C 244.060938 240.558133 240.644522 243.974549 236.425854 243.974549 C 232.207187 243.974549 228.786857 240.558133 228.786857 236.339465 C 228.786857 232.120797 232.207187 228.700468 236.425854 228.700468 C 240.644522 228.700468 244.060938 232.120797 244.060938 236.339465 Z M 244.060938 236.339465 " transform="matrix(0.998168, 0, 0, -0.998168, 21.241738, 498.015781)"/>
<g fill="rgb(100%, 100%, 100%)" fill-opacity="1">
<use xlink:href="#glyph-0-0" x="253.380595" y="267.910191"/>
</g>
</svg>
