<svg xmlns="http://www.w3.org/2000/svg" viewBox="0 0 576 512">
	<path fill="#FF7F00" d="M549.655 124.083c-6.281-23.652-24.847-42.195-48.431-48.492C456.317 64 288 64 288 64s-168.317 0-213.224 11.591c-23.584 6.297-42.15 24.84-48.431 48.492C16 168.248 16 256 16 256s0 87.752 10.345 131.917c6.281 23.652 24.847 42.195 48.431 48.492C119.683 448 288 448 288 448s168.317 0 213.224-11.591c23.584-6.297 42.15-24.84 48.431-48.492C560 343.752 560 256 560 256s0-87.752-10.345-131.917zM232 334V178l142 78-142 78z" />
</svg>
