<svg id="Layer_1" data-name="Layer 1" xmlns="http://www.w3.org/2000/svg" viewBox="0 0 272 272"><path d="M192.28,79.15c-.54-1.12.21-2.6,1.24-3.56,1.34-1.25,2.1-3.75,1.41-4.4-4.94-4.62-2.39-9.34-.79-14.18.45-1.35,1.15-3.86-1.49-1-.73-3.66-4.47.65-6.06-2.5A38.07,38.07,0,0,0,179.41,44c-3.84-3.78-9.33-5.71-14.82-6.7-1.72-.31-4.52,1.59-3.29-2.69.4-1.36-1.7-1.74-3-.93a4.88,4.88,0,0,1-4.26.77c-6.8-2.59-10.83,1.35-14.53,6-2.3,2.92-5.27,3-8.16,1s-6.23-4.62-10.31-1.72c-4.75,3.38-5.23,3.19-8.31-2.1-.53-.92-1.27-1.59-2.43-1.2-.58.19-1.12.33-.92,1.34.5,2.46.41,2.25-2,2.13-6.11-.32-12.52-2.63-18,2.43a4.91,4.91,0,0,1-2.79.93c-4.1.4-4.89,3.07-4.91,6.55,0,2.89-5.79,10.06-8.57,10-3.13-.09-1.78,1-1.43,2.56,1.2,5.29,4.15,10.61.13,16-.34.46-.85,1.42-.1,1.72,5.87,2.38,5,7.71,5.57,12.42.3,2.7,3.51,4.52,5.74,3.07C85,94.33,85.39,92,85.88,90,87,85.3,88,80.61,90.27,76.3c2.84-5.36,7-7.58,13-6.86a71,71,0,0,0,16.1.08c1.84-.2,2.94-2.6,5-1.59,6.89,3.43,14.61,1.75,21.75,3.66,6.84,1.83,14.88,1.42,17.77,10.18,1.22,3.71,6.24,4.56,6.81,9.41,1.31-5.36,4.4-3.61,7.34-2.71s3.75,3.09,4.29,5.59a3.9,3.9,0,0,0,4.23,3.41c2.16-.12,2.58-2.69,2.27-3.82-1.92-7,3.6-9.85,7.37-14.14C194.64,78.67,193,80.71,192.28,79.15ZM76.2,64.57c-.29-.37-.59-.74-.88-1.12a13.41,13.41,0,0,1,7.1-7l.83,1.06Zm4.58,1.85c-1,.41-2.09.79-2.85.1-.93-.85.33-1.54,1-2,2.85-2.12,5.56-4.48,9.79-4.93C86.37,62.1,84.47,64.89,80.78,66.42Zm93.34,15c-.32.84-1.28.64-2,.58A4.91,4.91,0,0,1,168,79.8c-2.54-5-6.1-8.67-11.48-10.61,4.84.67,9.34,1.77,12.09,6.57,1,1.82,3.12,2.33,4.53,3.68C173.7,80,174.44,80.62,174.12,81.45Zm.48-4.7c-.22.52-.8.43-1.24.42A2.63,2.63,0,0,1,170.93,76a10.64,10.64,0,0,0-6.61-6c2.9.25,5.59.77,7.11,3.59.57,1.07,1.81,1.31,2.62,2.08C174.39,75.89,174.81,76.24,174.6,76.75Z"/><path d="M153.75,177.93c-3-.57-5.12-2.33-7.61-3.28-2.2-.84-3.42-2.39-3.41-4.38,0-3.91,1.82-.06,2.65-.46,1.05-.51.29-1.43.2-2.14-.23-1.8,1-2.1,2.27-2.66a2.2,2.2,0,0,1,3.25,1.15c1.75,3.23,4.58,4.33,8.12,4.76,9.86,1.2,12.88,5.61,12.77,15.46a103.32,103.32,0,0,1-6.13,33.3c-2,5.75-5.38,11.3-11.28,14.5-1.38.74-2.81,1.4-4.23,1-5.69-1.41-11.4.42-17-.22-4.91-.56-7.24-5.3-11-7.76-5.55-3.62-5.38-10.73-9.29-15.4-2.3-2.74-4-5.35-1.94-9.56a13.49,13.49,0,0,0-.13-11.64c-4.42-8.39.74-12.68,6.89-16.25a17.53,17.53,0,0,1,5.08-2,10.37,10.37,0,0,0,7.06-5c1.81-2.94,3.68-5,6.3-.48,1.07,1.86,5.66.76,4.61,4.51-.68,2.44-3.43,3.42-5.38,4.92s-2.68,3.1.14,4.44C139.51,182.69,149.69,181.15,153.75,177.93Zm-12.41,37.41c6.14-.14,11.42-.53,13.82-6.67.35-.88,1.45-1.44,1.86-2.3,2.67-5.65,7.69-9.89,9.64-16,1.34-4.14-2.16-9.18-6.22-8.27-6.19,1.37-12.36.13-18.55.73a97,97,0,0,1-14.76.69c-3.31-.2-7.06-1.8-8.76,2-1.49,3.34-4.86,7.53.84,10.65,1,.53.5,1.85.83,2.72A25.22,25.22,0,0,0,141.34,215.34Z"/><path d="M181.3,123.62H168.08c.57-.63,2.09.32,2.75-1.29-3.18-1.6-6.31-.84-9.21.51s-6,1.69-9,2.67a3.35,3.35,0,0,1-4.25-1.56c-1-1.54-.29-2.87.85-4s2.43-3.07,3.71-3.12c7.51-.3,15-2.7,22.56-.61C179.22,117.27,179.19,120.82,181.3,123.62Z"/><path d="M113.2,124.18c-4.15,0-8.29,0-12.44,0-1.08,0-2.61.46-3.08-.91-.57-1.69,1.2-2.18,2.18-2.87,3.41-2.45,7.67-1.67,11.48-2.49a29,29,0,0,1,13.76.47c2.19.61,4.43,2,4.16,4.29s-3,1.37-4.62,1.43c-3.81.15-7.63.05-11.44.05Z"/><path d="M134,128.09c3.38-1.3,7-.55,10.46-1.56,1.41-.41,2.42.69,2.55,2.3.23,2.68.5,5.36.79,8.42-3-2.6-.69-7.2-4.09-8.88C140.69,126.86,137.33,128.32,134,128.09Z"/><path d="M183.9,123.87c5.31-1.44,6.91.22,6.32,4.36-.15,1-.35,2-1.57,2.08-1.4.14-1.53-.88-1.55-1.9C187.06,126.53,186.44,125,183.9,123.87Z"/><path d="M95.82,124.83c-6.7-1.45-8.73.21-8,4.36.19,1,.44,1.95,2,2.07,1.77.14,1.94-.88,2-1.9C91.82,127.48,92.61,125.91,95.82,124.83Z"/><path d="M145.55,195.07a5.26,5.26,0,0,1-4.5,4.48c-2.17.38-3.11-1.74-3.53-3.39-.59-2.26,1.47-2.19,2.84-2.2C142.15,194,144.2,193.48,145.55,195.07Z"/><path d="M122.89,130.75v.05c0,.89-1.24,1.61-2.78,1.61s-2.63-.64-2.77-1.45c-3-.14-6.07-.23-9.07.9,3.1-3.35,3.11-3.31,12.3-4.45,1.65-.2,3.87-1.6,4.21.67A2.39,2.39,0,0,1,122.89,130.75Z"/><path d="M171.13,130.81a11,11,0,0,0-4.14-.95,2.5,2.5,0,0,1-2.32,1.22,2.58,2.58,0,0,1-2.25-1.09l-1.33.06c-2.32,0-3.8-1.11-3.56-3,.28-2.28,2.11-.88,3.47-.67C168.57,127.51,168.58,127.47,171.13,130.81Z"/></svg>