<?xml version="1.0" encoding="UTF-8" standalone="no"?>
<!-- Created with Inkscape (http://www.inkscape.org/) -->

<svg
   version="1.1"
   id="svg1"
   width="189.49719"
   height="227.29411"
   viewBox="0 0 189.49719 227.29411"
   sodipodi:docname="sample_1.pdf"
   xmlns:inkscape="http://www.inkscape.org/namespaces/inkscape"
   xmlns:sodipodi="http://sodipodi.sourceforge.net/DTD/sodipodi-0.dtd"
   xmlns="http://www.w3.org/2000/svg"
   xmlns:svg="http://www.w3.org/2000/svg">
  <defs
     id="defs1" />
  <sodipodi:namedview
     id="namedview1"
     pagecolor="#ffffff"
     bordercolor="#000000"
     borderopacity="0.25"
     inkscape:showpageshadow="2"
     inkscape:pageopacity="0.0"
     inkscape:pagecheckerboard="0"
     inkscape:deskcolor="#d1d1d1"
     showgrid="false" />
  <g
     id="g1"
     inkscape:groupmode="layer"
     inkscape:label="1"
     transform="translate(-61.705001,-57.458236)">
    <path
       id="path2"
       d="M 0,0 H 141.7341 M 0,18.898 H 141.7341 M 0,37.796 H 141.7341 M 0,56.694 H 141.7341 M 0,75.59201 H 141.7341 M 0,94.49002 H 141.7341 M 0,113.38802 H 141.7341 M 0,132.28603 H 141.7341 M 0,151.18404 H 141.7341 M 0,170.07208 H 141.7341 M 0,0 V 170.08049 M 15.74826,0 V 170.08049 M 31.49652,0 V 170.08049 M 47.24478,0 V 170.08049 M 62.99304,0 V 170.08049 M 78.7413,0 V 170.08049 M 94.48956,0 V 170.08049 M 110.23782,0 V 170.08049 M 125.98608,0 V 170.08049 M 141.7244,0 v 170.08049"
       style="fill:none;stroke:#000000;stroke-width:0.3985;stroke-linecap:butt;stroke-linejoin:miter;stroke-miterlimit:10;stroke-dasharray:none;stroke-opacity:1"
       transform="matrix(1.3333333,0,0,-1.3333333,61.970667,284.48667)" />
    <path
       id="path3"
       d="M 7.8739,16.06314 3.46461,13.79535 3.14929,3.77951 h 9.44924 L 12.2832,13.79535 7.8739,16.06314"
       style="fill:none;stroke:#000000;stroke-width:0.3985;stroke-linecap:butt;stroke-linejoin:miter;stroke-miterlimit:10;stroke-dasharray:none;stroke-opacity:1"
       transform="matrix(1.3333333,0,0,-1.3333333,61.970667,284.48667)" />
    <path
       id="path4"
       d="M 5.9881172,-5.5308125 5.4842109,-6.0347187 C 4.4412422,-5.7300312 2.4959297,-5.3901875 0.92561719,-5.273 l 0.0117188,0.140625 C 1.7342109,-5.1440937 2.5662422,-5.1909687 3.3513984,-5.2612812 v 0.796875 H 0.38655469 l 0.0585938,0.2109375 H 2.8123359 c -0.5859375,0.7734375 -1.5117187,1.5234375 -2.53124996,2.015625 l 0.0703125,0.1171875 C 1.5701484,-2.5776875 2.6482734,-3.257375 3.3513984,-4.1128437 v 1.5703125 h 0.070312 c 0.234375,0 0.3867188,-0.1289063 0.3867188,-0.1523438 v -1.5585937 h 0.058594 c 0.5390625,0.9023437 1.5820313,1.5820312 2.671875,1.9570312 0.046875,-0.2226562 0.1992188,-0.375 0.3984375,-0.3984375 l 0.011719,-0.082031 C 5.8826484,-3.023 4.6990547,-3.538625 4.0662422,-4.2534687 h 2.5664062 c 0.1054688,0 0.1757813,-0.035156 0.1875,-0.1171875 C 6.5857734,-4.5933125 6.1990547,-4.8745625 6.1990547,-4.8745625 L 5.8592109,-4.4644062 H 3.8084297 v -0.84375 c 0.6796875,-0.070312 1.2890625,-0.1523438 1.8046875,-0.234375 0.1757812,0.070312 0.3164062,0.070312 0.375,0.011719 z M 5.1209297,-2.132375 v 0.8671875 H 2.0623359 V -2.132375 Z M 2.0623359,0.398875 V 0.08246875 H 5.1209297 V 0.5160625 h 0.070312 c 0.1523437,0 0.3867187,-0.1171875 0.3984375,-0.15234375 V -2.0737812 c 0.1289062,-0.023437 0.234375,-0.070312 0.28125,-0.1289063 l -0.5625,-0.4335937 -0.2460938,0.28125 H 2.1092109 L 1.6053047,-2.5776875 v 3.12890625 h 0.070312 c 0.1992187,0 0.3867187,-0.1171875 0.3867192,-0.15234375 z m 0,-0.5390625 V -1.05425 h 3.0585938 v 0.9140625 z m 0,0"
       style="fill:#000000;fill-opacity:1;fill-rule:nonzero;stroke:none"
       aria-label="香"
       transform="matrix(1.3333333,0,0,1.3333333,67.676,275.53067)" />
    <path
       id="path5"
       d="M 23.62218,16.06314 19.21289,13.79535 18.89757,3.77951 h 9.44923 l -0.31534,10.01584 -4.40928,2.26779"
       style="fill:none;stroke:#000000;stroke-width:0.3985;stroke-linecap:butt;stroke-linejoin:miter;stroke-miterlimit:10;stroke-dasharray:none;stroke-opacity:1"
       transform="matrix(1.3333333,0,0,-1.3333333,61.970667,284.48667)" />
    <path
       id="path6"
       d="m 1.46375,-6.0112812 v 1.6523437 H 0.3621875 L 0.42078125,-4.148 H 1.37 c -0.2109375,1.078125 -0.5625,2.1445313 -1.13671875,2.9648438 l 0.10546875,0.09375 c 0.48046875,-0.5273438 0.8554688,-1.125 1.125,-1.7929688 V 0.55121875 H 1.5692188 C 1.7332813,0.55121875 1.9325,0.44575 1.9325,0.38715625 V -3.0933125 c 0.234375,0.2929688 0.5039063,0.703125 0.5976563,1.0195313 C 2.96375,-1.7456562 3.3270313,-2.6128437 1.9325,-3.257375 V -4.148 h 0.9023438 c 0.09375,0 0.1640625,-0.035156 0.1757812,-0.1054687 C 2.8114063,-4.476125 2.4715625,-4.7690937 2.4715625,-4.7690937 L 2.166875,-4.3589375 H 1.9325 V -5.7300312 C 2.12,-5.7651875 2.166875,-5.8355 2.1903125,-5.9409687 Z m 2.9179688,0.070312 v 1.1953125 H 2.9871875 l 0.058594,0.2109375 H 4.3817188 V -3.2105 H 2.729375 l 0.058594,0.1992188 H 6.71375 c 0.09375,0 0.1640625,-0.035156 0.1875,-0.1054688 C 6.666875,-3.351125 6.2801563,-3.6440937 6.2801563,-3.6440937 L 5.9403125,-3.2105 H 4.8504688 v -1.3242187 h 1.5 c 0.1054687,0 0.1757812,-0.046875 0.1875,-0.1171875 -0.234375,-0.2226563 -0.609375,-0.515625 -0.609375,-0.515625 l -0.328125,0.421875 h -0.75 V -5.6597187 C 5.02625,-5.6831562 5.0965625,-5.7534687 5.12,-5.8589375 Z m 0,3.0820312 v 1.2304688 H 2.823125 l 0.058594,0.2109375 h 1.5 V 0.15278125 H 2.3075 l 0.058594,0.2109375 h 4.394531 c 0.1054688,0 0.1757813,-0.0351563 0.1875,-0.1171875 C 6.71375,0.023875 6.33875,-0.2808125 6.33875,-0.2808125 L 5.9989063,0.15278125 H 4.8504688 V -1.4175312 h 1.6054687 c 0.09375,0 0.1757813,-0.035156 0.1875,-0.1171875 C 6.4207813,-1.7456562 6.0457813,-2.0620625 6.0457813,-2.0620625 L 5.7059375,-1.6284687 H 4.8504688 V -2.5776875 C 5.02625,-2.6128437 5.0965625,-2.6714375 5.12,-2.7769062 Z m 0,0"
       style="fill:#000000;fill-opacity:1;fill-rule:nonzero;stroke:none"
       aria-label="桂"
       transform="matrix(1.3333333,0,0,1.3333333,88.673333,275.53067)" />
    <path
       id="path7"
       d="M 39.37045,16.06314 34.96117,13.79535 34.64584,3.77951 h 9.44922 l -0.31532,10.01584 -4.40929,2.26779"
       style="fill:none;stroke:#000000;stroke-width:0.3985;stroke-linecap:butt;stroke-linejoin:miter;stroke-miterlimit:10;stroke-dasharray:none;stroke-opacity:1"
       transform="matrix(1.3333333,0,0,-1.3333333,61.970667,284.48667)" />
    <path
       id="path8"
       d="m 2.5077188,-2.226125 c -0.070312,0.4921875 -0.1875,1.0664063 -0.3046875,1.44140625 l 0.1289062,0.0585938 C 2.5545938,-1.0425311 2.7538125,-1.4878436 2.917875,-1.8862812 c 0.1523438,0.011719 0.234375,-0.058594 0.2578125,-0.140625 z m -1.8398438,0.058594 -0.09375,0.035156 c 0.12890625,0.3867188 0.26953125,0.9726563 0.24609375,1.4296875 C 1.1835,-0.30425 1.65225,-1.1831562 0.667875,-2.167531 Z m 3.2929688,-1.9570313 h 1.96875 v 1.0664063 h -1.96875 z m 0,-0.2109375 v -1.0429687 h 1.96875 V -4.3355 Z M 2.7069375,-0.023 3.011625,0.57465625 C 3.0819375,0.55121875 3.1405313,0.492625 3.1639688,0.398875 4.1131875,0.01215625 4.8163125,-0.31596875 5.3202188,-0.55034375 L 5.2850625,-0.6558125 3.9608438,-0.30425 v -2.5429687 h 0.6210937 c 0.2578125,1.59375 0.9023438,2.7070312 2.015625,3.37499995 0.082031,-0.2109375 0.2460938,-0.33984375 0.4335938,-0.3515625 L 7.0545938,0.0941875 C 6.3514688,-0.2105 5.7655313,-0.7026875 5.3436563,-1.3472187 5.7655313,-1.523 6.2694375,-1.8159687 6.667875,-2.1089375 6.8085,-2.0620625 6.8905313,-2.0737812 6.9256875,-2.132375 L 6.386625,-2.5776875 c -0.3398437,0.3984375 -0.7851562,0.8085938 -1.125,1.078125 -0.2460937,-0.3867187 -0.421875,-0.84375 -0.5507812,-1.3476562 h 1.21875 v 0.3164062 h 0.070312 c 0.2109375,0 0.3867187,-0.1054687 0.3867187,-0.140625 V -5.3081562 C 6.52725,-5.319875 6.6092813,-5.36675 6.6561563,-5.4253437 l -0.5742188,-0.4335938 -0.2226562,0.28125 H 4.042875 L 3.5155313,-5.8003437 v 5.60156245 C 3.1756875,-0.11675 2.8944375,-0.0464375 2.7069375,-0.023 Z M 1.980375,-5.648 c 0.1757813,0 0.2460938,-0.058594 0.2695313,-0.1289062 L 1.5585,-6.0112812 c -0.2226562,0.75 -0.8203125,1.9101562 -1.41796875,2.5429687 L 0.246,-3.398 c 0.69140625,-0.5390625 1.3007813,-1.4179687 1.6640625,-2.1328125 0.421875,0.3867188 0.75,0.8203125 0.890625,1.1367188 0.4101563,0.2929687 0.9375,-0.5625 -0.8203125,-1.2539063 z M 0.28115625,-0.05815625 0.621,0.5395 C 0.6913125,0.5160625 0.74990625,0.45746875 0.77334375,0.36371875 1.886625,-0.03471875 2.6952188,-0.36284375 3.2577188,-0.6089375 L 3.2342813,-0.71440625 1.980375,-0.4214375 v -2.1445312 h 1.0898438 c 0.1054687,0 0.1640625,-0.035156 0.1875,-0.1171875 -0.2109375,-0.2109375 -0.5625,-0.4921875 -0.5625,-0.4921875 L 2.3905313,-2.7769062 H 1.980375 v -0.9609375 h 0.8789063 c 0.1054687,0 0.1757812,-0.035156 0.1875,-0.1054688 C 2.8358438,-4.05425 2.5077188,-4.3355 2.5077188,-4.3355 L 2.2030313,-3.9487812 H 0.84365625 L 0.90225,-3.7378437 h 0.6445313 v 0.9609375 H 0.32803125 l 0.0585938,0.2109375 H 1.5467813 v 2.2382812 C 0.996,-0.19878125 0.5506875,-0.10503125 0.28115625,-0.05815625 Z m 0,0"
       style="fill:#000000;fill-opacity:1;fill-rule:nonzero;stroke:none"
       aria-label="銀"
       transform="matrix(1.3333333,0,0,1.3333333,109.672,275.53067)" />
    <path
       id="path9"
       d="M 55.11873,16.06314 50.70944,13.79535 50.39412,3.77951 h 9.44922 l -0.31532,10.01584 -4.40929,2.26779"
       style="fill:none;stroke:#000000;stroke-width:0.3985;stroke-linecap:butt;stroke-linejoin:miter;stroke-miterlimit:10;stroke-dasharray:none;stroke-opacity:1"
       transform="matrix(1.3333333,0,0,-1.3333333,61.970667,284.48667)" />
    <path
       id="path10"
       d="m 1.6396016,-1.757375 -0.09375,0.035156 C 1.8036641,-1.3355 2.0966328,-0.73784375 2.1317891,-0.26909375 2.5888203,0.17621875 3.0810078,-0.8901875 1.6396016,-1.757375 Z m 3.4335937,-0.035156 c -0.2226562,0.5859375 -0.515625,1.2304687 -0.7382812,1.6289062 l 0.1054687,0.0703125 c 0.3515625,-0.328125 0.75,-0.83203125 1.078125,-1.3007812 0.140625,0.023437 0.234375,-0.035156 0.2695313,-0.1171875 z M 3.7255391,-5.648 c 0.5273437,1.0195313 1.6289062,1.9570313 2.7890625,2.5429688 0.046875,-0.1875 0.2226562,-0.3515625 0.4453125,-0.3984375 l 0.011719,-0.1054688 C 5.7177266,-4.1128437 4.5106953,-4.851125 3.8661641,-5.74175 4.0419453,-5.753469 4.1356953,-5.788625 4.1474141,-5.882375 L 3.2919453,-6.0815937 c -0.3984375,1.0078125 -1.875,2.4375 -3.08203124,3.1171875 l 0.0585938,0.1054687 C 1.6161641,-3.4800312 3.0341328,-4.6401875 3.7255391,-5.648 Z M 0.40913281,0.1410625 0.46772656,0.34028125 H 6.6083516 c 0.1054687,0 0.1757812,-0.0351563 0.1992187,-0.10546875 -0.2578125,-0.234375 -0.6796875,-0.5625 -0.6796875,-0.5625 l -0.3632812,0.46875 h -1.96875 v -2.1914062 h 2.5195312 c 0.1054688,0 0.1640625,-0.035156 0.1875,-0.1171875 C 6.2567891,-2.3901875 5.8583516,-2.694875 5.8583516,-2.694875 L 5.5067891,-2.2612812 H 3.7958516 v -1.1484375 h 1.3359375 c 0.09375,0 0.1640625,-0.035156 0.1875,-0.1171875 -0.2460938,-0.2109375 -0.609375,-0.46875 -0.609375,-0.4804688 L 4.3935078,-3.6206562 H 1.7802266 l 0.058594,0.2109375 h 1.4765625 v 1.1484375 H 0.74897656 l 0.0585938,0.2109375 H 3.3153828 v 2.1914062 z m 0,0"
       style="fill:#000000;fill-opacity:1;fill-rule:nonzero;stroke:none"
       aria-label="金"
       transform="matrix(1.3333333,0,0,1.3333333,130.66933,275.53067)" />
    <path
       id="path11"
       d="M 70.867,16.06314 66.45772,13.79535 66.1424,3.77951 h 9.44921 L 75.27629,13.79535 70.867,16.06314"
       style="fill:none;stroke:#000000;stroke-width:0.3985;stroke-linecap:butt;stroke-linejoin:miter;stroke-miterlimit:10;stroke-dasharray:none;stroke-opacity:1"
       transform="matrix(1.3333333,0,0,-1.3333333,61.970667,284.48667)" />
    <path
       id="path12"
       d="m 4.4658203,-2.226125 -0.070312,0.058594 C 4.8056641,-1.8159687 5.2744141,-1.2534687 5.3798828,-0.773 5.9541016,-0.36284375 6.3291016,-1.6284687 4.4658203,-2.226125 Z M 0.75097656,-5.36675 0.82128906,-5.1558125 H 3.2939453 v 2.2617188 H 1.0791016 l 0.058594,0.1992187 h 2.15625 V 0.01215625 H 0.34082031 L 0.39941406,0.211375 H 6.6806641 c 0.1171875,0 0.1875,-0.0351563 0.2109375,-0.10546875 -0.2695313,-0.24609375 -0.6914063,-0.5625 -0.6914063,-0.5625 l -0.375,0.46875 H 3.7744141 V -2.694875 h 2.2382812 c 0.09375,0 0.1640625,-0.035156 0.1875,-0.1054687 C 5.9541016,-3.0347187 5.5322266,-3.351125 5.5322266,-3.351125 L 5.1689453,-2.8940937 H 3.7744141 v -2.2617188 h 2.5195312 c 0.1054688,0 0.1875,-0.035156 0.1992188,-0.1054687 -0.2578125,-0.2460938 -0.6914063,-0.5625 -0.6914063,-0.5625 L 5.4384766,-5.36675 Z m 0,0"
       style="fill:#000000;fill-opacity:1;fill-rule:nonzero;stroke:none"
       aria-label="玉"
       transform="matrix(1.3333333,0,0,1.3333333,151.66667,275.53067)" />
    <path
       id="path13"
       d="M 86.61528,16.06314 82.206,13.79535 81.89069,3.77951 h 9.4492 l -0.31531,10.01584 -4.4093,2.26779"
       style="fill:none;stroke:#000000;stroke-width:0.3985;stroke-linecap:butt;stroke-linejoin:miter;stroke-miterlimit:10;stroke-dasharray:none;stroke-opacity:1"
       transform="matrix(1.3333333,0,0,-1.3333333,61.970667,284.48667)" />
    <path
       id="path14"
       d="m 1.6406719,-1.757375 -0.09375,0.035156 C 1.8047344,-1.3355 2.0977031,-0.73784375 2.1328594,-0.26909375 2.5898906,0.17621875 3.0820781,-0.8901875 1.6406719,-1.757375 Z m 3.4335937,-0.035156 c -0.2226562,0.5859375 -0.515625,1.2304687 -0.7382812,1.6289062 l 0.1054687,0.0703125 c 0.3515625,-0.328125 0.75,-0.83203125 1.078125,-1.3007812 0.140625,0.023437 0.234375,-0.035156 0.2695313,-0.1171875 z M 3.7266094,-5.648 c 0.5273437,1.0195313 1.6289062,1.9570313 2.7890625,2.5429688 0.046875,-0.1875 0.2226562,-0.3515625 0.4453125,-0.3984375 l 0.011719,-0.1054688 C 5.7187969,-4.1128437 4.5117656,-4.851125 3.8672344,-5.74175 4.0430156,-5.753469 4.1367656,-5.788625 4.1484844,-5.882375 L 3.2930156,-6.0815937 c -0.3984375,1.0078125 -1.875,2.4375 -3.08203122,3.1171875 l 0.0585938,0.1054687 C 1.6172344,-3.4800312 3.0352031,-4.6401875 3.7266094,-5.648 Z M 0.41020313,0.1410625 0.46879688,0.34028125 H 6.6094219 c 0.1054687,0 0.1757812,-0.0351563 0.1992187,-0.10546875 -0.2578125,-0.234375 -0.6796875,-0.5625 -0.6796875,-0.5625 l -0.3632812,0.46875 h -1.96875 v -2.1914062 h 2.5195312 c 0.1054688,0 0.1640625,-0.035156 0.1875,-0.1171875 C 6.2578594,-2.3901875 5.8594219,-2.694875 5.8594219,-2.694875 L 5.5078594,-2.2612812 H 3.7969219 v -1.1484375 h 1.3359375 c 0.09375,0 0.1640625,-0.035156 0.1875,-0.1171875 -0.2460938,-0.2109375 -0.609375,-0.46875 -0.609375,-0.4804688 L 4.3945781,-3.6206562 H 1.7812969 l 0.058594,0.2109375 h 1.4765625 v 1.1484375 H 0.75004688 l 0.0585938,0.2109375 H 3.3164531 v 2.1914062 z m 0,0"
       style="fill:#000000;fill-opacity:1;fill-rule:nonzero;stroke:none"
       aria-label="金"
       transform="matrix(1.3333333,0,0,1.3333333,172.664,275.53067)" />
    <path
       id="path15"
       d="M 102.36356,16.06314 97.95427,13.79535 97.63896,3.77951 h 9.44921 l -0.31531,10.01584 -4.4093,2.26779"
       style="fill:none;stroke:#000000;stroke-width:0.3985;stroke-linecap:butt;stroke-linejoin:miter;stroke-miterlimit:10;stroke-dasharray:none;stroke-opacity:1"
       transform="matrix(1.3333333,0,0,-1.3333333,61.970667,284.48667)" />
    <path
       id="path16"
       d="m 2.5069297,-2.226125 c -0.070312,0.4921875 -0.1875,1.0664063 -0.3046875,1.44140625 l 0.1289062,0.0585938 c 0.2226563,-0.31640615 0.421875,-0.76171865 0.5859375,-1.16015625 0.1523438,0.011719 0.234375,-0.058594 0.2578125,-0.140625 z m -1.83984376,0.058594 -0.09375,0.035156 c 0.12890625,0.3867188 0.26953125,0.9726563 0.24609375,1.4296875 C 1.1827109,-0.30425 1.6514609,-1.1831562 0.66708594,-2.167531 Z M 3.9600547,-4.1245625 h 1.96875 v 1.0664063 h -1.96875 z m 0,-0.2109375 v -1.0429687 h 1.96875 V -4.3355 Z M 2.7061484,-0.023 3.0108359,0.57465625 C 3.0811484,0.55121875 3.1397422,0.492625 3.1631797,0.398875 4.1123984,0.01215625 4.8155234,-0.31596875 5.3194297,-0.55034375 L 5.2842734,-0.6558125 3.9600547,-0.30425 v -2.5429687 h 0.6210937 c 0.2578125,1.59375 0.9023438,2.7070312 2.015625,3.37499995 0.082031,-0.2109375 0.2460938,-0.33984375 0.4335938,-0.3515625 L 7.0538047,0.0941875 C 6.3506797,-0.2105 5.7647422,-0.7026875 5.3428672,-1.3472187 5.7647422,-1.523 6.2686484,-1.8159687 6.6670859,-2.1089375 c 0.140625,0.046875 0.2226563,0.035156 0.2578125,-0.023437 l -0.5390625,-0.445313 c -0.3398437,0.3984375 -0.7851562,0.8085938 -1.125,1.078125 -0.2460937,-0.3867187 -0.421875,-0.84375 -0.5507812,-1.3476562 h 1.21875 v 0.3164062 h 0.070312 c 0.2109375,0 0.3867187,-0.1054687 0.3867187,-0.140625 v -2.6367187 c 0.140625,-0.011719 0.2226563,-0.058594 0.2695313,-0.1171875 l -0.5742188,-0.4335938 -0.2226562,0.28125 H 4.0420859 L 3.5147422,-5.8003437 v 5.60156245 C 3.1748984,-0.11675 2.8936484,-0.0464375 2.7061484,-0.023 Z M 1.9795859,-5.648 c 0.1757813,0 0.2460938,-0.058594 0.2695313,-0.1289062 l -0.6914063,-0.234375 c -0.2226562,0.75 -0.82031246,1.9101562 -1.41796871,2.5429687 L 0.24521094,-3.398 c 0.69140625,-0.5390625 1.30078126,-1.4179687 1.66406246,-2.1328125 0.421875,0.3867188 0.75,0.8203125 0.890625,1.1367188 0.4101563,0.2929687 0.9375,-0.5625 -0.8203125,-1.2539063 z M 0.28036719,-0.05815625 0.62021094,0.5395 C 0.69052344,0.5160625 0.74911719,0.45746875 0.77255469,0.36371875 1.8858359,-0.03471875 2.6944297,-0.36284375 3.2569297,-0.6089375 L 3.2334922,-0.71440625 1.9795859,-0.4214375 v -2.1445312 h 1.0898438 c 0.1054687,0 0.1640625,-0.035156 0.1875,-0.1171875 -0.2109375,-0.2109375 -0.5625,-0.4921875 -0.5625,-0.4921875 L 2.3897422,-2.7769062 H 1.9795859 v -0.9609375 h 0.8789063 c 0.1054687,0 0.1757812,-0.035156 0.1875,-0.1054688 C 2.8350547,-4.05425 2.5069297,-4.3355 2.5069297,-4.3355 L 2.2022422,-3.9487812 H 0.84286719 l 0.0585938,0.2109375 H 1.5459922 v 0.9609375 H 0.32724219 l 0.0585938,0.2109375 H 1.5459922 v 2.2382812 c -0.55078126,0.12890625 -0.99609376,0.22265625 -1.26562501,0.26953125 z m 0,0"
       style="fill:#000000;fill-opacity:1;fill-rule:nonzero;stroke:none"
       aria-label="銀"
       transform="matrix(1.3333333,0,0,1.3333333,193.66133,275.53067)" />
    <path
       id="path17"
       d="m 118.11185,16.06314 -4.4093,-2.26779 -0.31531,-10.01584 h 9.4492 l -0.31531,10.01584 -4.40928,2.26779"
       style="fill:none;stroke:#000000;stroke-width:0.3985;stroke-linecap:butt;stroke-linejoin:miter;stroke-miterlimit:10;stroke-dasharray:none;stroke-opacity:1"
       transform="matrix(1.3333333,0,0,-1.3333333,61.970667,284.48667)" />
    <path
       id="path18"
       d="m 1.4659609,-6.0112812 v 1.6523437 H 0.36439844 L 0.42299219,-4.148 H 1.3722109 c -0.2109375,1.078125 -0.56249996,2.1445313 -1.13671871,2.9648438 l 0.10546875,0.09375 C 0.82142969,-1.61675 1.1964297,-2.2144062 1.4659609,-2.882375 v 3.43359375 h 0.1054688 c 0.1640625,0 0.3632812,-0.10546875 0.3632812,-0.1640625 V -3.0933125 c 0.234375,0.2929688 0.5039063,0.703125 0.5976563,1.0195313 0.4335937,0.328125 0.796875,-0.5390625 -0.5976563,-1.1835938 V -4.148 h 0.9023438 c 0.09375,0 0.1640625,-0.035156 0.1757812,-0.1054687 -0.1992187,-0.2226563 -0.5390625,-0.515625 -0.5390625,-0.515625 l -0.3046875,0.4101562 h -0.234375 v -1.3710937 c 0.1875,-0.035156 0.234375,-0.1054688 0.2578125,-0.2109375 z m 2.9179688,0.070312 v 1.1953125 H 2.9893984 l 0.058594,0.2109375 H 4.3839297 V -3.2105 H 2.7315859 l 0.058594,0.1992188 h 3.9257812 c 0.09375,0 0.1640625,-0.035156 0.1875,-0.1054688 C 6.6690859,-3.351125 6.2823672,-3.6440937 6.2823672,-3.6440937 L 5.9425234,-3.2105 H 4.8526797 v -1.3242187 h 1.5 c 0.1054687,0 0.1757812,-0.046875 0.1875,-0.1171875 -0.234375,-0.2226563 -0.609375,-0.515625 -0.609375,-0.515625 l -0.328125,0.421875 h -0.75 v -0.9140625 c 0.1757812,-0.023437 0.2460937,-0.09375 0.2695312,-0.1992188 z m 0,3.0820312 v 1.2304688 H 2.8253359 l 0.058594,0.2109375 h 1.5 v 1.57031295 h -2.074219 l 0.058594,0.2109375 h 4.3945312 c 0.1054688,0 0.1757813,-0.0351563 0.1875,-0.1171875 C 6.7159609,0.023875 6.3409609,-0.2808125 6.3409609,-0.2808125 L 6.0011172,0.15278125 H 4.8526797 V -1.4175312 h 1.6054687 c 0.09375,0 0.1757813,-0.035156 0.1875,-0.1171875 C 6.4229922,-1.7456562 6.0479922,-2.0620625 6.0479922,-2.0620625 L 5.7081484,-1.6284687 H 4.8526797 v -0.9492188 c 0.1757812,-0.035156 0.2460937,-0.09375 0.2695312,-0.1992187 z m 0,0"
       style="fill:#000000;fill-opacity:1;fill-rule:nonzero;stroke:none"
       aria-label="桂"
       transform="matrix(1.3333333,0,0,1.3333333,214.65867,275.53067)" />
    <path
       id="path19"
       d="M 133.86012,16.06314 129.4508,13.79535 129.1355,3.77951 h 9.44922 l -0.31531,10.01584 -4.40929,2.26779"
       style="fill:none;stroke:#000000;stroke-width:0.3985;stroke-linecap:butt;stroke-linejoin:miter;stroke-miterlimit:10;stroke-dasharray:none;stroke-opacity:1"
       transform="matrix(1.3333333,0,0,-1.3333333,61.970667,284.48667)" />
    <path
       id="path20"
       d="M 5.9884688,-5.5308125 5.4845625,-6.0347187 C 4.4415938,-5.7300312 2.4962813,-5.3901875 0.92596875,-5.273 l 0.0117188,0.140625 C 1.7345626,-5.144094 2.5665938,-5.190969 3.3517501,-5.2612812 v 0.796875 H 0.38690625 L 0.4455,-4.2534687 h 2.3671875 c -0.5859375,0.7734375 -1.5117187,1.5234375 -2.53125,2.015625 L 0.35175,-2.1206562 c 1.21875,-0.4570313 2.296875,-1.1367188 3,-1.9921875 v 1.5703125 h 0.070312 c 0.234375,0 0.3867188,-0.1289063 0.3867188,-0.1523438 v -1.5585937 h 0.058594 c 0.5390625,0.9023437 1.5820313,1.5820312 2.671875,1.9570312 0.046875,-0.2226562 0.1992188,-0.375 0.3984375,-0.3984375 l 0.011719,-0.082031 C 5.883,-3.023 4.6994063,-3.538625 4.0665938,-4.2534687 H 6.633 c 0.1054688,0 0.1757813,-0.035156 0.1875,-0.1171875 C 6.586125,-4.5933125 6.1994063,-4.8745625 6.1994063,-4.8745625 L 5.8595625,-4.4644062 H 3.8087813 v -0.84375 c 0.6796875,-0.070312 1.2890625,-0.1523438 1.8046875,-0.234375 0.1757812,0.070312 0.3164062,0.070312 0.375,0.011719 z M 5.1212813,-2.132375 v 0.8671875 H 2.0626875 V -2.132375 Z M 2.0626875,0.398875 V 0.08246875 H 5.1212813 V 0.5160625 h 0.070312 c 0.1523437,0 0.3867187,-0.1171875 0.3984375,-0.15234375 V -2.0737812 c 0.1289062,-0.023437 0.234375,-0.070312 0.28125,-0.1289063 l -0.5625,-0.4335937 -0.2460938,0.28125 H 2.1095625 L 1.6056563,-2.5776875 v 3.12890625 h 0.070312 c 0.1992187,0 0.3867187,-0.1171875 0.3867192,-0.15234375 z m 0,-0.5390625 V -1.05425 h 3.0585938 v 0.9140625 z m 0,0"
       style="fill:#000000;fill-opacity:1;fill-rule:nonzero;stroke:none"
       aria-label="香"
       transform="matrix(1.3333333,0,0,1.3333333,235.656,275.53067)" />
    <path
       id="path21"
       d="m 23.62218,34.96117 -4.40929,-2.2678 -0.31532,-10.01585 h 9.44923 l -0.31534,10.01585 -4.40928,2.2678"
       style="fill:none;stroke:#000000;stroke-width:0.3985;stroke-linecap:butt;stroke-linejoin:miter;stroke-miterlimit:10;stroke-dasharray:none;stroke-opacity:1"
       transform="matrix(1.3333333,0,0,-1.3333333,61.970667,284.48667)" />
    <path
       id="path22"
       d="M 1.9559375,-3.8916016 H 3.479375 v 1.0664063 H 1.9559375 Z m 0.082031,-0.1992187 -0.328125,-0.1523438 c 0.2695312,-0.2578125 0.5273437,-0.5273437 0.75,-0.8085937 h 1.640625 c -0.140625,0.2929687 -0.3632813,0.6914062 -0.5625,0.9609375 z m -0.082031,1.4765625 H 3.479375 v 1.1132812 H 1.8621875 c 0.082031,-0.375 0.09375,-0.75 0.09375,-1.1015625 z m 0.515625,-3.421875 c -0.4101562,0.9492187 -1.2890625,2.015625 -2.16796875,2.625 l 0.09375,0.082031 c 0.375,-0.1875 0.75000005,-0.4453125 1.08984375,-0.7265625 v 1.4648438 c 0,1.125 -0.1757812,2.19140624 -1.21875,3.04687499 l 0.09375,0.09375 C 1.229375,0.04589844 1.6278125,-0.61035156 1.8153125,-1.2900391 h 3.7617188 v 1.07812504 c 0,0.1171875 -0.035156,0.1640625 -0.1875,0.1640625 -0.1757813,0 -1.078125,-0.0703125 -1.078125,-0.0703125 V -9.765625e-4 C 4.698125,0.04589844 4.9090625,0.11621094 5.0379688,0.19824219 c 0.1171875,0.0703125 0.1640625,0.19921875 0.1875,0.3515625 0.75,-0.0703125 0.8320312,-0.328125 0.8320312,-0.703125 V -3.8095703 c 0.1289063,-0.023437 0.234375,-0.082031 0.28125,-0.1289063 L 5.7528125,-4.3837891 5.5184375,-4.0908203 H 3.71375 c 0.3515625,-0.2578125 0.7148438,-0.6445313 0.9492188,-0.9023438 0.1523437,-0.011719 0.234375,-0.023437 0.2929687,-0.070312 L 4.416875,-5.5673828 4.1121875,-5.2626953 h -1.5 c 0.1171875,-0.1523438 0.234375,-0.3164063 0.328125,-0.46875 0.1757813,0.011719 0.234375,-0.011719 0.2695313,-0.082031 z m 3.1054688,2.1445312 v 1.0664063 h -1.640625 v -1.0664063 z m 0,1.2773438 v 1.1132812 h -1.640625 v -1.1132812 z m 0,0"
       style="fill:#000000;fill-opacity:1;fill-rule:nonzero;stroke:none"
       aria-label="角"
       transform="matrix(1.3333333,0,0,1.3333333,88.673333,250.33333)" />
    <path
       id="path23"
       d="m 118.11185,34.96117 -4.4093,-2.2678 -0.31531,-10.01585 h 9.4492 l -0.31531,10.01585 -4.40928,2.2678"
       style="fill:none;stroke:#000000;stroke-width:0.3985;stroke-linecap:butt;stroke-linejoin:miter;stroke-miterlimit:10;stroke-dasharray:none;stroke-opacity:1"
       transform="matrix(1.3333333,0,0,-1.3333333,61.970667,284.48667)" />
    <path
       id="path24"
       d="m 6.1300234,-5.5322266 c -0.140625,0.2226563 -0.3632812,0.5859375 -0.5273437,0.8203125 -0.1289063,-0.023437 -0.2695313,-0.046875 -0.421875,-0.058594 -0.035156,-0.1757813 -0.058594,-0.3632813 -0.058594,-0.5390625 0.1289063,-0.011719 0.2226563,-0.046875 0.2695313,-0.1054688 L 4.8409609,-5.8486328 4.5831484,-5.5556641 H 0.66908594 l 0.0703125,0.1992188 H 4.6651797 c 0.09375,1.21875 0.46875,2.2734375 1.4882812,2.6953125 0.2929688,0.140625 0.609375,0.2109375 0.7148438,0.023437 0.058594,-0.09375 0.011719,-0.1875 -0.1523438,-0.3398438 l 0.058594,-0.7382812 -0.09375,-0.023437 c -0.058594,0.2109375 -0.140625,0.4335937 -0.1992188,0.5859375 -0.035156,0.082031 -0.058594,0.082031 -0.1757812,0.046875 -0.6210938,-0.2109375 -0.9609375,-0.8554688 -1.1015625,-1.546875 0.375,0.1992187 0.8085937,0.5390625 0.984375,0.8203125 0.421875,0.1640625 0.5742187,-0.5390625 -0.421875,-0.8320313 0.2226562,-0.1523437 0.4804687,-0.3398437 0.6328125,-0.4570312 0.140625,0.035156 0.2109375,0.011719 0.2460937,-0.046875 z m -0.1054687,3.0234375 c -0.1289063,0.2226563 -0.3515625,0.5742188 -0.515625,0.8320313 -0.1171875,-0.023437 -0.2460938,-0.046875 -0.375,-0.070312 -0.046875,-0.2578125 -0.070312,-0.5273438 -0.070312,-0.796875 0.1289062,-0.023437 0.2226562,-0.058594 0.2695312,-0.09375 l -0.5507812,-0.4453125 -0.2578125,0.28125 H 3.6456484 v -2.0507813 c 0.1523438,-0.023437 0.2109375,-0.082031 0.2226563,-0.1757812 L 3.1768984,-5.1103508 V -2.801757 H 2.1104922 v -1.21875 c 0.1640625,-0.035156 0.2226562,-0.1054688 0.2460937,-0.1992188 l -0.3984375,-0.035156 c 0.2578125,-0.1523438 0.4804688,-0.3046875 0.65625,-0.4453125 0.1640625,0.035156 0.2695313,0.011719 0.328125,-0.058594 l -0.6445312,-0.328125 c -0.3515625,0.4335938 -1.1484375,1.0546875 -1.85156251,1.40625 l 0.0585938,0.09375 C 0.89174219,-3.7041016 1.2784609,-3.8916016 1.6417422,-4.0791016 v 1.2773438 H 0.28236719 l 0.0585938,0.1992187 H 1.6417422 c -0.023437,1.1015625 -0.2460938,2.26171879 -1.33593751,3.05859379 l 0.0820313,0.09375 c 1.38281241,-0.75 1.68750001,-2.00390629 1.71093751,-3.15234379 h 1.078125 v 3.16406254 h 0.09375 c 0.1757813,0 0.375,-0.1171875 0.375,-0.17578125 V -2.6025391 h 0.9492187 c 0.070312,1.4179688 0.4335938,2.61328129 1.5820313,3.03515629 0.3046875,0.140625 0.6328125,0.19921875 0.7265625,0.0117188 0.046875,-0.09375 0.011719,-0.1875 -0.1523438,-0.328125 l 0.046875,-0.796875 -0.09375,-0.0234375 c -0.058594,0.24609375 -0.1289062,0.45703125 -0.1992187,0.6328125 -0.023437,0.08203125 -0.058594,0.09375 -0.1757813,0.05859375 -0.6679687,-0.22265625 -1.0195312,-0.8671875 -1.171875,-1.59374994 0.3867188,0.2109375 0.84375,0.5742187 1.03125,0.85546869 C 6.622211,-0.57519526 6.762836,-1.3017577 5.684711,-1.6298827 l 0.6328125,-0.4921876 c 0.1523437,0.035156 0.2109375,0.011719 0.234375,-0.046875 z m 0,0"
       style="fill:#000000;fill-opacity:1;fill-rule:nonzero;stroke:none"
       aria-label="飛"
       transform="matrix(1.3333333,0,0,1.3333333,214.65867,250.33333)" />
    <path
       id="path25"
       d="M 7.8739,53.85919 3.46461,51.59138 3.14929,41.57553 h 9.44924 L 12.2832,51.59138 7.8739,53.85919"
       style="fill:none;stroke:#000000;stroke-width:0.3985;stroke-linecap:butt;stroke-linejoin:miter;stroke-miterlimit:10;stroke-dasharray:none;stroke-opacity:1"
       transform="matrix(1.3333333,0,0,-1.3333333,61.970667,284.48667)" />
    <path
       id="path26"
       d="m 4.7342109,-3.1283672 -0.070312,0.082031 c 0.5625,0.3398437 1.3125,0.9492187 1.5820313,1.453125 C 6.8318677,-1.32368 6.9607739,-2.54243 4.7342109,-3.1283672 Z m -2.671875,-0.1054687 c -0.3164062,0.6445312 -1.0078125,1.4882812 -1.73437496,2.015625 l 0.0703125,0.09375 c 0.85546876,-0.421875 1.64062496,-1.125 2.06249996,-1.6875 0.1640625,0.023437 0.234375,-0.011719 0.2695313,-0.070312 z m 1.3007813,-0.28125 v 1.8632812 c 0,0.09375 -0.035156,0.1289063 -0.1523438,0.1289063 -0.140625,0 -0.8554687,-0.046875 -0.8554687,-0.046875 v 0.1171875 c 0.3164062,0.035156 0.4804687,0.082031 0.5859375,0.1640625 0.1054687,0.070312 0.1289062,0.1875 0.1523437,0.32812496 0.6679688,-0.0585938 0.7382813,-0.28124996 0.7382813,-0.66796876 v -1.6289062 c 0.1640625,-0.011719 0.2226562,-0.070312 0.2460937,-0.1757813 z m 1.6992187,1.3828125 c -1.1601562,1.65234371 -2.625,2.17968746 -4.47656246,2.55468746 l 0.0351563,0.140625 c 1.99218746,-0.234375 3.48046866,-0.703125 4.78124996,-2.26171876 0.1757812,0.035156 0.2578125,0.011719 0.3046875,-0.058594 z m -3.375,-3.3515625 v 1.734375 H 0.30452344 l 0.0585938,0.2109375 H 6.7029609 c 0.1054688,0 0.1640625,-0.035156 0.1875,-0.1171875 C 6.6443672,-3.8900859 6.2224922,-4.1947734 6.2224922,-4.1947734 L 5.8592109,-3.7494609 H 3.8318672 v -0.9960938 h 2.0507812 c 0.1054688,0 0.1757813,-0.035156 0.1875,-0.1054687 C 5.8240547,-5.0736797 5.4373359,-5.3900859 5.4373359,-5.3900859 L 5.0740547,-4.9447734 H 3.8318672 v -0.8203125 c 0.1875,-0.023437 0.2578125,-0.09375 0.2695312,-0.1875 l -0.7382812,-0.082031 v 2.2851563 h -1.21875 v -1.4765625 c 0.1523437,-0.035156 0.2109375,-0.09375 0.234375,-0.1875 z m 0,0"
       style="fill:#000000;fill-opacity:1;fill-rule:nonzero;stroke:none"
       aria-label="歩"
       transform="matrix(1.3333333,0,0,1.3333333,67.676,225.136)" />
    <path
       id="path27"
       d="M 23.62218,53.85919 19.21289,51.59138 18.89757,41.57553 h 9.44923 l -0.31534,10.01585 -4.40928,2.26781"
       style="fill:none;stroke:#000000;stroke-width:0.3985;stroke-linecap:butt;stroke-linejoin:miter;stroke-miterlimit:10;stroke-dasharray:none;stroke-opacity:1"
       transform="matrix(1.3333333,0,0,-1.3333333,61.970667,284.48667)" />
    <path
       id="path28"
       d="m 4.7332813,-3.1283672 -0.070312,0.082031 c 0.5625,0.3398437 1.3125,0.9492187 1.5820312,1.453125 C 6.830938,-1.32368 6.9598443,-2.54243 4.7332813,-3.1283672 Z M 2.0614063,-3.2338359 C 1.745,-2.5893047 1.0535938,-1.7455547 0.32703125,-1.2182109 l 0.0703125,0.09375 c 0.85546875,-0.421875 1.64062505,-1.125 2.06250005,-1.6875 0.1640625,0.023437 0.234375,-0.011719 0.2695312,-0.070312 z m 1.3007812,-0.28125 v 1.8632812 c 0,0.09375 -0.035156,0.1289063 -0.1523437,0.1289063 -0.140625,0 -0.8554688,-0.046875 -0.8554688,-0.046875 v 0.1171875 c 0.3164063,0.035156 0.4804688,0.082031 0.5859375,0.1640625 0.1054688,0.070312 0.1289063,0.1875 0.1523438,0.32812496 C 3.760625,-1.0189922 3.8309375,-1.2416484 3.8309375,-1.6283672 V -3.2572734 C 3.995,-3.2689922 4.0535938,-3.3275859 4.0770313,-3.4330547 Z m 1.6992188,1.3828125 C 3.90125,-0.47992969 2.4364063,0.04741406 0.58484375,0.42241406 L 0.62,0.56303906 c 1.9921875,-0.234375 3.4804688,-0.703125 4.78125,-2.26171876 0.1757813,0.035156 0.2578125,0.011719 0.3046875,-0.058594 z m -3.375,-3.3515625 v 1.734375 H 0.30359375 l 0.0585938,0.2109375 H 6.7020313 c 0.1054687,0 0.1640625,-0.035156 0.1875,-0.1171875 C 6.6434375,-3.8900859 6.2215625,-4.1947734 6.2215625,-4.1947734 L 5.8582813,-3.7494609 H 3.8309375 v -0.9960938 h 2.0507813 c 0.1054687,0 0.1757812,-0.035156 0.1875,-0.1054687 C 5.823125,-5.0736797 5.4364063,-5.3900859 5.4364063,-5.3900859 L 5.073125,-4.9447734 H 3.8309375 v -0.8203125 c 0.1875,-0.023437 0.2578125,-0.09375 0.2695313,-0.1875 l -0.7382813,-0.082031 v 2.2851563 h -1.21875 v -1.4765625 c 0.1523438,-0.035156 0.2109375,-0.09375 0.234375,-0.1875 z m 0,0"
       style="fill:#000000;fill-opacity:1;fill-rule:nonzero;stroke:none"
       aria-label="歩"
       transform="matrix(1.3333333,0,0,1.3333333,88.673333,225.136)" />
    <path
       id="path29"
       d="M 39.37045,53.85919 34.96117,51.59138 34.64584,41.57553 h 9.44922 l -0.31532,10.01585 -4.40929,2.26781"
       style="fill:none;stroke:#000000;stroke-width:0.3985;stroke-linecap:butt;stroke-linejoin:miter;stroke-miterlimit:10;stroke-dasharray:none;stroke-opacity:1"
       transform="matrix(1.3333333,0,0,-1.3333333,61.970667,284.48667)" />
    <path
       id="path30"
       d="m 4.7342813,-3.1283672 -0.070312,0.082031 c 0.5625,0.3398437 1.3125,0.9492187 1.5820312,1.453125 C 6.831938,-1.32368 6.9608443,-2.54243 4.7342813,-3.1283672 Z M 2.0624063,-3.2338359 C 1.746,-2.5893047 1.0545938,-1.7455547 0.32803125,-1.2182109 l 0.0703125,0.09375 c 0.85546875,-0.421875 1.64062505,-1.125 2.06250005,-1.6875 0.1640625,0.023437 0.234375,-0.011719 0.2695312,-0.070312 z m 1.3007812,-0.28125 v 1.8632812 c 0,0.09375 -0.035156,0.1289063 -0.1523437,0.1289063 -0.140625,0 -0.8554688,-0.046875 -0.8554688,-0.046875 v 0.1171875 c 0.3164063,0.035156 0.4804688,0.082031 0.5859375,0.1640625 0.1054688,0.070312 0.1289063,0.1875 0.1523438,0.32812496 C 3.761625,-1.0189922 3.8319375,-1.2416484 3.8319375,-1.6283672 V -3.2572734 C 3.996,-3.2689922 4.0545938,-3.3275859 4.0780313,-3.4330547 Z m 1.6992188,1.3828125 C 3.90225,-0.47992969 2.4374063,0.04741406 0.58584375,0.42241406 L 0.621,0.56303906 c 1.9921875,-0.234375 3.4804688,-0.703125 4.78125,-2.26171876 0.1757813,0.035156 0.2578125,0.011719 0.3046875,-0.058594 z m -3.375,-3.3515625 v 1.734375 H 0.30459375 l 0.0585938,0.2109375 H 6.7030313 c 0.1054687,0 0.1640625,-0.035156 0.1875,-0.1171875 C 6.6444375,-3.8900859 6.2225625,-4.1947734 6.2225625,-4.1947734 L 5.8592813,-3.7494609 H 3.8319375 v -0.9960938 h 2.0507813 c 0.1054687,0 0.1757812,-0.035156 0.1875,-0.1054687 C 5.824125,-5.0736797 5.4374063,-5.3900859 5.4374063,-5.3900859 L 5.074125,-4.9447734 H 3.8319375 v -0.8203125 c 0.1875,-0.023437 0.2578125,-0.09375 0.2695313,-0.1875 l -0.7382813,-0.082031 v 2.2851563 h -1.21875 v -1.4765625 c 0.1523438,-0.035156 0.2109375,-0.09375 0.234375,-0.1875 z m 0,0"
       style="fill:#000000;fill-opacity:1;fill-rule:nonzero;stroke:none"
       aria-label="歩"
       transform="matrix(1.3333333,0,0,1.3333333,109.672,225.136)" />
    <path
       id="path31"
       d="M 55.11873,53.85919 50.70944,51.59138 50.39412,41.57553 h 9.44922 l -0.31532,10.01585 -4.40929,2.26781"
       style="fill:none;stroke:#000000;stroke-width:0.3985;stroke-linecap:butt;stroke-linejoin:miter;stroke-miterlimit:10;stroke-dasharray:none;stroke-opacity:1"
       transform="matrix(1.3333333,0,0,-1.3333333,61.970667,284.48667)" />
    <path
       id="path32"
       d="m 4.7333516,-3.1283672 -0.070312,0.082031 c 0.5625,0.3398437 1.3125,0.9492187 1.5820312,1.453125 C 6.8310083,-1.32368 6.9599146,-2.54243 4.7333516,-3.1283672 Z m -2.671875,-0.1054687 c -0.3164063,0.6445312 -1.0078125,1.4882812 -1.73437504,2.015625 l 0.0703125,0.09375 c 0.85546874,-0.421875 1.64062504,-1.125 2.06250004,-1.6875 0.1640625,0.023437 0.234375,-0.011719 0.2695312,-0.070312 z m 1.3007812,-0.28125 v 1.8632812 c 0,0.09375 -0.035156,0.1289063 -0.1523437,0.1289063 -0.140625,0 -0.8554688,-0.046875 -0.8554688,-0.046875 v 0.1171875 c 0.3164063,0.035156 0.4804688,0.082031 0.5859375,0.1640625 0.1054688,0.070312 0.1289063,0.1875 0.1523438,0.32812496 0.6679687,-0.0585938 0.7382812,-0.28124996 0.7382812,-0.66796876 v -1.6289062 c 0.1640625,-0.011719 0.2226563,-0.070312 0.2460938,-0.1757813 z m 1.6992188,1.3828125 c -1.1601563,1.65234371 -2.625,2.17968746 -4.47656254,2.55468746 l 0.0351563,0.140625 c 1.99218754,-0.234375 3.48046884,-0.703125 4.78124994,-2.26171876 0.1757813,0.035156 0.2578125,0.011719 0.3046875,-0.058594 z m -3.375,-3.3515625 v 1.734375 H 0.30366406 l 0.0585938,0.2109375 H 6.7021016 c 0.1054687,0 0.1640625,-0.035156 0.1875,-0.1171875 C 6.6435078,-3.8900859 6.2216328,-4.1947734 6.2216328,-4.1947734 L 5.8583516,-3.7494609 H 3.8310078 v -0.9960938 h 2.0507813 c 0.1054687,0 0.1757812,-0.035156 0.1875,-0.1054687 C 5.8231953,-5.0736797 5.4364766,-5.3900859 5.4364766,-5.3900859 L 5.0731953,-4.9447734 H 3.8310078 v -0.8203125 c 0.1875,-0.023437 0.2578125,-0.09375 0.2695313,-0.1875 l -0.7382813,-0.082031 v 2.2851563 h -1.21875 v -1.4765625 c 0.1523438,-0.035156 0.2109375,-0.09375 0.234375,-0.1875 z m 0,0"
       style="fill:#000000;fill-opacity:1;fill-rule:nonzero;stroke:none"
       aria-label="歩"
       transform="matrix(1.3333333,0,0,1.3333333,130.66933,225.136)" />
    <path
       id="path33"
       d="M 70.867,53.85919 66.45772,51.59138 66.1424,41.57553 h 9.44921 L 75.27629,51.59138 70.867,53.85919"
       style="fill:none;stroke:#000000;stroke-width:0.3985;stroke-linecap:butt;stroke-linejoin:miter;stroke-miterlimit:10;stroke-dasharray:none;stroke-opacity:1"
       transform="matrix(1.3333333,0,0,-1.3333333,61.970667,284.48667)" />
    <path
       id="path34"
       d="m 4.7353516,-3.1283672 -0.070312,0.082031 c 0.5625,0.3398437 1.3125,0.9492187 1.5820312,1.453125 C 6.8330083,-1.32368 6.9619146,-2.54243 4.7353516,-3.1283672 Z m -2.671875,-0.1054687 c -0.3164063,0.6445312 -1.0078125,1.4882812 -1.73437504,2.015625 l 0.0703125,0.09375 c 0.85546874,-0.421875 1.64062504,-1.125 2.06250004,-1.6875 0.1640625,0.023437 0.234375,-0.011719 0.2695312,-0.070312 z m 1.3007812,-0.28125 v 1.8632812 c 0,0.09375 -0.035156,0.1289063 -0.1523437,0.1289063 -0.140625,0 -0.8554688,-0.046875 -0.8554688,-0.046875 v 0.1171875 c 0.3164063,0.035156 0.4804688,0.082031 0.5859375,0.1640625 0.1054688,0.070312 0.1289063,0.1875 0.1523438,0.32812496 0.6679687,-0.0585938 0.7382812,-0.28124996 0.7382812,-0.66796876 v -1.6289062 c 0.1640625,-0.011719 0.2226563,-0.070312 0.2460938,-0.1757813 z m 1.6992188,1.3828125 c -1.1601563,1.65234371 -2.625,2.17968746 -4.47656254,2.55468746 l 0.0351563,0.140625 c 1.99218754,-0.234375 3.48046884,-0.703125 4.78125004,-2.26171876 0.1757812,0.035156 0.2578125,0.011719 0.3046875,-0.058594 z m -3.375,-3.3515625 v 1.734375 H 0.30566406 l 0.0585938,0.2109375 H 6.7041016 c 0.1054687,0 0.1640625,-0.035156 0.1875,-0.1171875 C 6.6455078,-3.8900859 6.2236328,-4.1947734 6.2236328,-4.1947734 L 5.8603516,-3.7494609 H 3.8330078 v -0.9960938 h 2.0507813 c 0.1054687,0 0.1757812,-0.035156 0.1875,-0.1054687 C 5.8251953,-5.0736797 5.4384766,-5.3900859 5.4384766,-5.3900859 L 5.0751953,-4.9447734 H 3.8330078 v -0.8203125 c 0.1875,-0.023437 0.2578125,-0.09375 0.2695313,-0.1875 l -0.7382813,-0.082031 v 2.2851563 h -1.21875 v -1.4765625 c 0.1523438,-0.035156 0.2109375,-0.09375 0.234375,-0.1875 z m 0,0"
       style="fill:#000000;fill-opacity:1;fill-rule:nonzero;stroke:none"
       aria-label="歩"
       transform="matrix(1.3333333,0,0,1.3333333,151.66667,225.136)" />
    <path
       id="path35"
       d="M 86.61528,53.85919 82.206,51.59138 81.89069,41.57553 h 9.4492 l -0.31531,10.01585 -4.4093,2.26781"
       style="fill:none;stroke:#000000;stroke-width:0.3985;stroke-linecap:butt;stroke-linejoin:miter;stroke-miterlimit:10;stroke-dasharray:none;stroke-opacity:1"
       transform="matrix(1.3333333,0,0,-1.3333333,61.970667,284.48667)" />
    <path
       id="path36"
       d="m 4.7344219,-3.1283672 -0.070312,0.082031 c 0.5625,0.3398437 1.3125,0.9492187 1.5820312,1.453125 C 6.8320786,-1.32368 6.9609849,-2.54243 4.7344219,-3.1283672 Z m -2.671875,-0.1054687 c -0.3164063,0.6445312 -1.0078125,1.4882812 -1.73437502,2.015625 l 0.0703125,0.09375 c 0.85546872,-0.421875 1.64062502,-1.125 2.06250002,-1.6875 0.1640625,0.023437 0.234375,-0.011719 0.2695312,-0.070312 z m 1.3007812,-0.28125 v 1.8632812 c 0,0.09375 -0.035156,0.1289063 -0.1523437,0.1289063 -0.140625,0 -0.8554688,-0.046875 -0.8554688,-0.046875 v 0.1171875 c 0.3164063,0.035156 0.4804688,0.082031 0.5859375,0.1640625 0.1054688,0.070312 0.1289063,0.1875 0.1523438,0.32812496 0.6679687,-0.0585938 0.7382812,-0.28124996 0.7382812,-0.66796876 v -1.6289062 c 0.1640625,-0.011719 0.2226563,-0.070312 0.2460938,-0.1757813 z m 1.6992188,1.3828125 c -1.1601563,1.65234371 -2.625,2.17968746 -4.47656252,2.55468746 l 0.0351563,0.140625 c 1.99218752,-0.234375 3.48046872,-0.703125 4.78124992,-2.26171876 0.1757813,0.035156 0.2578125,0.011719 0.3046875,-0.058594 z m -3.375,-3.3515625 v 1.734375 H 0.30473438 l 0.0585938,0.2109375 H 6.7031719 c 0.1054687,0 0.1640625,-0.035156 0.1875,-0.1171875 C 6.6445781,-3.8900859 6.2227031,-4.1947734 6.2227031,-4.1947734 L 5.8594219,-3.7494609 H 3.8320781 v -0.9960938 h 2.0507813 c 0.1054687,0 0.1757812,-0.035156 0.1875,-0.1054687 C 5.8242656,-5.0736797 5.4375469,-5.3900859 5.4375469,-5.3900859 L 5.0742656,-4.9447734 H 3.8320781 v -0.8203125 c 0.1875,-0.023437 0.2578125,-0.09375 0.2695313,-0.1875 l -0.7382813,-0.082031 v 2.2851563 h -1.21875 v -1.4765625 c 0.1523438,-0.035156 0.2109375,-0.09375 0.234375,-0.1875 z m 0,0"
       style="fill:#000000;fill-opacity:1;fill-rule:nonzero;stroke:none"
       aria-label="歩"
       transform="matrix(1.3333333,0,0,1.3333333,172.664,225.136)" />
    <path
       id="path37"
       d="M 102.36356,53.85919 97.95427,51.59138 97.63896,41.57553 h 9.44921 l -0.31531,10.01585 -4.4093,2.26781"
       style="fill:none;stroke:#000000;stroke-width:0.3985;stroke-linecap:butt;stroke-linejoin:miter;stroke-miterlimit:10;stroke-dasharray:none;stroke-opacity:1"
       transform="matrix(1.3333333,0,0,-1.3333333,61.970667,284.48667)" />
    <path
       id="path38"
       d="m 4.7334922,-3.1283672 -0.070312,0.082031 c 0.5625,0.3398437 1.3125,0.9492187 1.5820312,1.453125 C 6.8311489,-1.32368 6.9600552,-2.54243 4.7334922,-3.1283672 Z m -2.671875,-0.1054687 c -0.3164063,0.6445312 -1.0078125,1.4882812 -1.73437501,2.015625 l 0.0703125,0.09375 c 0.85546871,-0.421875 1.64062501,-1.125 2.06250001,-1.6875 0.1640625,0.023437 0.234375,-0.011719 0.2695312,-0.070312 z m 1.3007812,-0.28125 v 1.8632812 c 0,0.09375 -0.035156,0.1289063 -0.1523437,0.1289063 -0.140625,0 -0.8554688,-0.046875 -0.8554688,-0.046875 v 0.1171875 c 0.3164063,0.035156 0.4804688,0.082031 0.5859375,0.1640625 0.1054688,0.070312 0.1289063,0.1875 0.1523438,0.32812496 0.6679687,-0.0585938 0.7382812,-0.28124996 0.7382812,-0.66796876 v -1.6289062 c 0.1640625,-0.011719 0.2226563,-0.070312 0.2460938,-0.1757813 z m 1.6992188,1.3828125 c -1.1601563,1.65234371 -2.625,2.17968746 -4.47656251,2.55468746 l 0.0351563,0.140625 c 1.99218741,-0.234375 3.48046871,-0.703125 4.78124991,-2.26171876 0.1757813,0.035156 0.2578125,0.011719 0.3046875,-0.058594 z m -3.375,-3.3515625 v 1.734375 H 0.30380469 l 0.0585938,0.2109375 H 6.7022422 c 0.1054687,0 0.1640625,-0.035156 0.1875,-0.1171875 C 6.6436484,-3.8900859 6.2217734,-4.1947734 6.2217734,-4.1947734 L 5.8584922,-3.7494609 H 3.8311484 v -0.9960938 h 2.0507813 c 0.1054687,0 0.1757812,-0.035156 0.1875,-0.1054687 C 5.8233359,-5.0736797 5.4366172,-5.3900859 5.4366172,-5.3900859 L 5.0733359,-4.9447734 H 3.8311484 v -0.8203125 c 0.1875,-0.023437 0.2578125,-0.09375 0.2695313,-0.1875 l -0.7382813,-0.082031 v 2.2851563 h -1.21875 v -1.4765625 c 0.1523438,-0.035156 0.2109375,-0.09375 0.234375,-0.1875 z m 0,0"
       style="fill:#000000;fill-opacity:1;fill-rule:nonzero;stroke:none"
       aria-label="歩"
       transform="matrix(1.3333333,0,0,1.3333333,193.66133,225.136)" />
    <path
       id="path39"
       d="m 118.11185,53.85919 -4.4093,-2.26781 -0.31531,-10.01585 h 9.4492 l -0.31531,10.01585 -4.40928,2.26781"
       style="fill:none;stroke:#000000;stroke-width:0.3985;stroke-linecap:butt;stroke-linejoin:miter;stroke-miterlimit:10;stroke-dasharray:none;stroke-opacity:1"
       transform="matrix(1.3333333,0,0,-1.3333333,61.970667,284.48667)" />
    <path
       id="path40"
       d="m 4.7354922,-3.1283672 -0.070312,0.082031 c 0.5625,0.3398437 1.3125,0.9492187 1.5820312,1.453125 C 6.8331489,-1.32368 6.9620552,-2.54243 4.7354922,-3.1283672 Z m -2.671875,-0.1054687 c -0.3164063,0.6445312 -1.0078125,1.4882812 -1.73437501,2.015625 l 0.0703125,0.09375 c 0.85546871,-0.421875 1.64062501,-1.125 2.06250001,-1.6875 0.1640625,0.023437 0.234375,-0.011719 0.2695312,-0.070312 z m 1.3007812,-0.28125 v 1.8632812 c 0,0.09375 -0.035156,0.1289063 -0.1523437,0.1289063 -0.140625,0 -0.8554688,-0.046875 -0.8554688,-0.046875 v 0.1171875 c 0.3164063,0.035156 0.4804688,0.082031 0.5859375,0.1640625 0.1054688,0.070312 0.1289063,0.1875 0.1523438,0.32812496 0.6679687,-0.0585938 0.7382812,-0.28124996 0.7382812,-0.66796876 v -1.6289062 c 0.1640625,-0.011719 0.2226563,-0.070312 0.2460938,-0.1757813 z m 1.6992188,1.3828125 c -1.1601563,1.65234371 -2.625,2.17968746 -4.47656251,2.55468746 l 0.0351563,0.140625 c 1.99218751,-0.234375 3.48046871,-0.703125 4.78125001,-2.26171876 0.1757812,0.035156 0.2578125,0.011719 0.3046875,-0.058594 z m -3.375,-3.3515625 v 1.734375 H 0.30580469 l 0.0585938,0.2109375 H 6.7042422 c 0.1054687,0 0.1640625,-0.035156 0.1875,-0.1171875 C 6.6456484,-3.8900859 6.2237734,-4.1947734 6.2237734,-4.1947734 L 5.8604922,-3.7494609 H 3.8331484 v -0.9960938 h 2.0507813 c 0.1054687,0 0.1757812,-0.035156 0.1875,-0.1054687 C 5.8253359,-5.0736797 5.4386172,-5.3900859 5.4386172,-5.3900859 L 5.0753359,-4.9447734 H 3.8331484 v -0.8203125 c 0.1875,-0.023437 0.2578125,-0.09375 0.2695313,-0.1875 l -0.7382813,-0.082031 v 2.2851563 h -1.21875 v -1.4765625 c 0.1523438,-0.035156 0.2109375,-0.09375 0.234375,-0.1875 z m 0,0"
       style="fill:#000000;fill-opacity:1;fill-rule:nonzero;stroke:none"
       aria-label="歩"
       transform="matrix(1.3333333,0,0,1.3333333,214.65867,225.136)" />
    <path
       id="path41"
       d="m 133.86012,53.85919 -4.40932,-2.26781 -0.3153,-10.01585 h 9.44922 l -0.31531,10.01585 -4.40929,2.26781"
       style="fill:none;stroke:#000000;stroke-width:0.3985;stroke-linecap:butt;stroke-linejoin:miter;stroke-miterlimit:10;stroke-dasharray:none;stroke-opacity:1"
       transform="matrix(1.3333333,0,0,-1.3333333,61.970667,284.48667)" />
    <path
       id="path42"
       d="m 4.7345625,-3.1283672 -0.070312,0.082031 c 0.5625,0.3398437 1.3125,0.9492187 1.5820313,1.453125 C 6.8322193,-1.32368 6.9611255,-2.54243 4.7345625,-3.1283672 Z m -2.671875,-0.1054687 c -0.3164062,0.6445312 -1.0078125,1.4882812 -1.734375,2.015625 l 0.0703125,0.09375 c 0.8554688,-0.421875 1.640625,-1.125 2.0625,-1.6875 0.1640625,0.023437 0.234375,-0.011719 0.2695313,-0.070312 z m 1.3007813,-0.28125 v 1.8632812 c 0,0.09375 -0.035156,0.1289063 -0.1523438,0.1289063 -0.140625,0 -0.8554687,-0.046875 -0.8554687,-0.046875 v 0.1171875 c 0.3164062,0.035156 0.4804687,0.082031 0.5859375,0.1640625 0.1054687,0.070312 0.1289062,0.1875 0.1523437,0.32812496 0.6679688,-0.0585938 0.7382813,-0.28124996 0.7382813,-0.66796876 v -1.6289062 c 0.1640625,-0.011719 0.2226562,-0.070312 0.2460937,-0.1757813 z m 1.6992187,1.3828125 c -1.1601562,1.65234371 -2.625,2.17968746 -4.4765625,2.55468746 l 0.0351563,0.140625 c 1.9921875,-0.234375 3.4804687,-0.703125 4.78125,-2.26171876 0.1757812,0.035156 0.2578125,0.011719 0.3046875,-0.058594 z m -3.375,-3.3515625 v 1.734375 H 0.304875 l 0.0585938,0.2109375 h 6.3398437 c 0.1054688,0 0.1640625,-0.035156 0.1875,-0.1171875 C 6.6447188,-3.8900859 6.2228438,-4.1947734 6.2228438,-4.1947734 L 5.8595625,-3.7494609 H 3.8322188 V -4.7455547 H 5.883 c 0.1054688,0 0.1757813,-0.035156 0.1875,-0.1054687 C 5.8244063,-5.0736797 5.4376875,-5.3900859 5.4376875,-5.3900859 L 5.0744063,-4.9447734 H 3.8322188 v -0.8203125 c 0.1875,-0.023437 0.2578125,-0.09375 0.2695312,-0.1875 l -0.7382812,-0.082031 v 2.2851563 h -1.21875 v -1.4765625 c 0.1523437,-0.035156 0.2109375,-0.09375 0.234375,-0.1875 z m 0,0"
       style="fill:#000000;fill-opacity:1;fill-rule:nonzero;stroke:none"
       aria-label="歩"
       transform="matrix(1.3333333,0,0,1.3333333,235.656,225.136)" />
    <path
       id="path43"
       d="M 23.62218,72.75719 19.21289,70.48941 18.89757,60.47356 h 9.44923 l -0.31534,10.01585 -4.40928,2.26778"
       style="fill:none;stroke:#ff0000;stroke-width:0.3985;stroke-linecap:butt;stroke-linejoin:miter;stroke-miterlimit:10;stroke-dasharray:none;stroke-opacity:1"
       transform="matrix(1.3333333,0,0,-1.3333333,61.970667,284.48667)" />
    <path
       id="path44"
       d="m 1.1707813,-1.5692578 c 0.011719,0.57421874 -0.30468755,1.06640624 -0.6210938,1.25390624 -0.15234375,0.09375 -0.2578125,0.234375 -0.1875,0.38671875 0.09375,0.1640625 0.3515625,0.140625 0.5390625,0.01171875 0.3046875,-0.2109375 0.6210938,-0.7734375 0.3867188,-1.65234374 z m 1.0078125,0.011719 -0.1054688,0.023437 c 0.1171875,0.375 0.2109375,0.94921879 0.1523438,1.39453129 0.3632812,0.4453125 0.890625,-0.45703125 -0.046875,-1.41796829 z m 1.0078125,-0.070312 -0.09375,0.058594 c 0.234375,0.3164062 0.4921875,0.82031249 0.515625,1.23046874 0.421875,0.36328125 0.8671875,-0.5859375 -0.421875,-1.28906274 z m 1.0664062,-0.140625 -0.070312,0.058594 c 0.3046875,0.234375 0.6914063,0.65625 0.7851563,0.98437499 0.46875,0.28125 0.75,-0.66796879 -0.7148443,-1.04296899 z M 1.8504688,-5.2489453 h 1.6054687 v 0.8554687 H 1.8504688 Z M 1.3934375,-5.4716016 v 3.75 H 1.46375 c 0.2460938,0 0.3867188,-0.1171875 0.3867188,-0.1523437 v -0.1875 H 6.104375 c -0.09375,1.06640624 -0.2929687,1.81640624 -0.5039062,1.98046874 -0.070312,0.0703125 -0.1523438,0.08203125 -0.2695313,0.08203125 -0.1640625,0 -0.6796875,-0.046875 -0.9726562,-0.08203125 v 0.12890625 c 0.2578125,0.046875 0.5507812,0.10546875 0.6445312,0.1875 0.1054688,0.0703125 0.1289063,0.1875 0.1289063,0.31640625 0.3164062,0 0.5859375,-0.0703125 0.7734375,-0.22265625 0.328125,-0.2578125 0.5625,-1.1015625 0.6679687,-2.33203129 0.140625,-0.023437 0.234375,-0.058594 0.28125,-0.1054687 L 6.3153125,-2.5653516 6.0457813,-2.2723828 H 3.9246875 v -0.8554688 h 2.0273438 c 0.082031,0 0.1523437,-0.035156 0.1757812,-0.1171875 -0.234375,-0.2109375 -0.6210937,-0.515625 -0.6210937,-0.515625 l -0.328125,0.421875 H 3.9246875 v -0.84375 h 2.0039063 c 0.1054687,0 0.1757812,-0.035156 0.1875,-0.1171875 -0.234375,-0.2109375 -0.609375,-0.5039062 -0.609375,-0.5039062 l -0.328125,0.4101562 H 3.9246875 V -5.2489453 H 6.104375 c 0.1054688,0 0.1757813,-0.035156 0.1992188,-0.1171875 C 6.0457813,-5.5887891 5.6590625,-5.8934766 5.6590625,-5.8934766 L 5.3075,-5.4716016 H 1.9442188 l -0.5507813,-0.234375 z m 0.4570313,1.2890625 h 1.6054687 v 0.84375 H 1.8504688 Z m 0,1.0546875 h 1.6054687 v 0.8554688 H 1.8504688 Z m 0,0"
       style="fill:#ff0000;fill-opacity:1;fill-rule:nonzero;stroke:none"
       aria-label="馬"
       transform="matrix(1.3333333,0,0,1.3333333,88.673333,199.94)" />
    <path
       id="path45"
       d="m 118.11185,72.75719 -4.4093,-2.26778 -0.31531,-10.01585 h 9.4492 l -0.31531,10.01585 -4.40928,2.26778"
       style="fill:none;stroke:#ff0000;stroke-width:0.3985;stroke-linecap:butt;stroke-linejoin:miter;stroke-miterlimit:10;stroke-dasharray:none;stroke-opacity:1"
       transform="matrix(1.3333333,0,0,-1.3333333,61.970667,284.48667)" />
    <path
       id="path46"
       d="m 1.1143984,-4.9794141 -0.09375,0.046875 c 0.140625,0.2578125 0.2929688,0.65625 0.28125,0.9726563 0.375,0.3632812 0.84375,-0.421875 -0.1875,-1.0195313 z m 0.5859375,-1.03125 v 0.7851563 H 0.38783594 l 0.046875,0.2109375 H 2.5440859 c -0.09375,0.3632812 -0.234375,0.84375 -0.3515625,1.2070312 H 0.29408594 l 0.0585938,0.1992188 H 3.6339297 c 0.1054687,0 0.1640625,-0.035156 0.1875,-0.1054688 C 3.5987734,-3.9247266 3.2472109,-4.2176953 3.2472109,-4.2176953 L 2.9425234,-3.8075391 H 2.3565859 c 0.2226563,-0.28125 0.4453125,-0.6328125 0.5976563,-0.890625 0.1523437,0.011719 0.2460937,-0.046875 0.2695312,-0.140625 L 2.6026797,-5.0145703 h 0.9492187 c 0.09375,0 0.1523438,-0.023437 0.1757813,-0.1054688 C 3.5050234,-5.3426953 3.1417422,-5.6239453 3.1417422,-5.6239453 L 2.8370547,-5.2255078 H 2.1573672 v -0.5273438 c 0.1640625,-0.035156 0.2226562,-0.09375 0.234375,-0.1875 z m 2.25,2.671875 v 3.30468754 c 0,0.38671875 0.1289063,0.515625 0.7148438,0.515625 h 0.8320312 c 1.2070313,0 1.4414063,-0.0820313 1.4414063,-0.3046875 0,-0.09375 -0.046875,-0.140625 -0.2109375,-0.19921875 l -0.023437,-0.5859375 h -0.09375 c -0.070312,0.26953125 -0.140625,0.50390625 -0.1992188,0.5859375 -0.023437,0.046875 -0.082031,0.05859375 -0.1523437,0.05859375 C 6.1417422,0.04792969 5.8722109,0.04792969 5.5206484,0.04792969 H 4.7472109 c -0.3046875,0 -0.3398437,-0.03515625 -0.3398437,-0.1875 v -0.57421875 h 2.0742187 c 0.09375,0 0.1640625,-0.0351563 0.1757813,-0.10546875 C 6.4581484,-1.0184766 6.1300234,-1.2528516 6.1300234,-1.2528516 L 5.8370547,-0.92472656 H 4.4073672 V -1.5106641 h 1.921875 c 0.09375,0 0.1523437,-0.035156 0.1757812,-0.1171875 C 6.3058047,-1.8036328 5.9776797,-2.0380078 5.9776797,-2.0380078 L 5.7081484,-1.7216016 H 4.4073672 v -0.5742187 h 1.9570312 c 0.1054688,0 0.1757813,-0.046875 0.1875,-0.1171875 -0.1992187,-0.1875 -0.5390625,-0.4335938 -0.5390625,-0.4335938 l -0.28125,0.328125 H 4.4073672 v -0.609375 h 1.5117187 v 0.1640625 h 0.070312 c 0.1523438,0 0.375,-0.1054687 0.3867188,-0.140625 v -0.890625 c 0.140625,-0.035156 0.2578125,-0.09375 0.3046875,-0.1523437 l -0.5742188,-0.4335938 -0.2460937,0.28125 h -1.453125 v -0.609375 h 2.1914062 c 0.1054688,0 0.1757813,-0.035156 0.1992188,-0.1171875 -0.2460938,-0.2226562 -0.6210938,-0.515625 -0.6210938,-0.515625 l -0.328125,0.421875 H 4.4073672 v -0.6328125 c 0.1875,-0.035156 0.2578125,-0.1054687 0.2578125,-0.1992187 l -0.7148438,-0.082031 v 2.3085938 h 0.082031 c 0.1757812,0 0.375,-0.1054688 0.375,-0.1640625 v -0.1992188 h 1.5117187 v 0.75 H 4.4893984 l -0.5390625,-0.234375 z m -1.21875,1.359375 v 0.703125 h -1.453125 v -0.703125 z m 0,-0.2109375 h -1.453125 v -0.6328125 h 1.453125 z M 0.82142969,-3.0458203 v 3.60937499 h 0.0703125 c 0.19921871,0 0.38671871,-0.10546875 0.38671871,-0.1640625 V -1.0653516 h 1.453125 v 0.98437504 c 0,0.09375 -0.023437,0.12890625 -0.1289062,0.12890625 -0.1289063,0 -0.6210938,-0.03515625 -0.6210938,-0.03515625 v 0.10546875 c 0.2460938,0.0234375 0.375,0.0820313 0.4570313,0.15234375 0.070312,0.0585938 0.1054687,0.1640625 0.1054687,0.29296875 0.5742188,-0.046875 0.65625,-0.2578125 0.65625,-0.609375 V -2.7411328 c 0.140625,-0.023437 0.2578125,-0.082031 0.3046875,-0.140625 l -0.609375,-0.4453125 -0.234375,0.28125 H 1.3018984 L 0.82142969,-3.2684766 Z m 0,0"
       style="fill:#ff0000;fill-opacity:1;fill-rule:nonzero;stroke:none"
       aria-label="龍"
       transform="matrix(1.3333333,0,0,1.3333333,214.65867,199.94)" />
    <path
       id="path47"
       d="M 55.11873,72.75719 50.70944,70.48941 50.39412,60.47356 h 9.44922 l -0.31532,10.01585 -4.40929,2.26778"
       style="fill:none;stroke:#ff0000;stroke-width:0.3985;stroke-linecap:butt;stroke-linejoin:miter;stroke-miterlimit:10;stroke-dasharray:none;stroke-opacity:1"
       transform="matrix(1.3333333,0,0,-1.3333333,61.970667,284.48667)" />
    <path
       id="path48"
       d="m 3.7724141,-5.6356641 c 0.515625,1.078125 1.6171875,2.0625 2.7890625,2.6835938 0.046875,-0.1757813 0.2226562,-0.3398438 0.4335937,-0.3867188 l 0.023437,-0.09375 c -1.265625,-0.5507812 -2.4609375,-1.359375 -3.1171875,-2.296875 0.1875,-0.023437 0.2695313,-0.046875 0.2929688,-0.1289062 L 3.3388203,-6.0809766 c -0.3984375,1.0546875 -1.875,2.578125 -3.09374999,3.2929688 l 0.0585938,0.1171875 C 1.6630391,-3.3387891 3.0810078,-4.5692578 3.7724141,-5.6356641 Z m -3.29296879,5.71875004 0.046875,0.2109375 H 6.6083516 c 0.09375,0 0.1640625,-0.0351563 0.1875,-0.10546875 -0.2578125,-0.234375 -0.6679688,-0.55078125 -0.6679688,-0.55078125 L 5.7646016,0.08308594 H 3.8192891 V -1.4520703 h 2.0625 c 0.09375,0 0.1640625,-0.035156 0.1875,-0.1171875 C 5.8231953,-1.7801953 5.4364766,-2.0731641 5.4364766,-2.0731641 l -0.3515625,0.4101563 h -1.265625 v -1.359375 h 1.7929687 c 0.1054688,0 0.1757813,-0.046875 0.1875,-0.1171875 -0.234375,-0.2109375 -0.5976562,-0.4804688 -0.5976562,-0.4804688 l -0.328125,0.3867188 h -3.375 l 0.058594,0.2109375 h 1.78125 v 1.359375 H 1.3935078 l 0.046875,0.2109375 h 1.8984375 v 1.53515624 z m 0,0"
       style="fill:#ff0000;fill-opacity:1;fill-rule:nonzero;stroke:none"
       aria-label="全"
       transform="matrix(1.3333333,0,0,1.3333333,130.66933,199.94)" />
    <path
       id="path49"
       d="M 70.867,72.75719 66.45772,70.48941 66.1424,60.47356 h 9.44921 L 75.27629,70.48941 70.867,72.75719"
       style="fill:none;stroke:#ff0000;stroke-width:0.3985;stroke-linecap:butt;stroke-linejoin:miter;stroke-miterlimit:10;stroke-dasharray:none;stroke-opacity:1"
       transform="matrix(1.3333333,0,0,-1.3333333,61.970667,284.48667)" />
    <path
       id="path50"
       d="m 2.0048828,-3.5731641 0.058594,0.1992188 H 5.004883 c 0.09375,0 0.1640625,-0.035156 0.1875,-0.1171875 C 4.958008,-3.7020703 4.583008,-4.0184766 4.583008,-4.0184766 l -0.3398437,0.4453125 z m 1.7226563,-2.1328125 c 0.515625,1.125 1.6289062,2.1796875 2.8242187,2.8476563 0.058594,-0.1757813 0.2226563,-0.3398438 0.4453125,-0.375 l 0.011719,-0.09375 c -1.2890625,-0.5976563 -2.484375,-1.4765625 -3.140625,-2.4726563 0.1757812,-0.023437 0.2695312,-0.046875 0.2929687,-0.1289062 l -0.84375,-0.2226563 c -0.3984375,1.1132813 -1.8984375,2.6953125 -3.11718749,3.4570313 l 0.046875,0.1054687 C 1.6181641,-3.2919141 3.0478516,-4.5926953 3.7275391,-5.7059766 Z m -2.5664063,3.4101563 0.070312,0.1992187 h 3.9375 c -0.3164062,0.7265625 -0.796875,1.79296879 -1.2304687,2.60156254 0.2109375,0.09375 0.3632812,0.10546875 0.4921875,0.0703125 0.421875,-0.80859375 0.9609375,-1.94531254 1.2421875,-2.56640624 0.1640625,-0.011719 0.28125,-0.058594 0.3398437,-0.1171875 l -0.5625,-0.4921875 -0.2695312,0.3046875 z m 0,0"
       style="fill:#ff0000;fill-opacity:1;fill-rule:nonzero;stroke:none"
       aria-label="今"
       transform="matrix(1.3333333,0,0,1.3333333,151.66667,199.94)" />
    <path
       id="path51"
       d="M 86.61528,72.75719 82.206,70.48941 81.89069,60.47356 h 9.4492 l -0.31531,10.01585 -4.4093,2.26778"
       style="fill:none;stroke:#ff0000;stroke-width:0.3985;stroke-linecap:butt;stroke-linejoin:miter;stroke-miterlimit:10;stroke-dasharray:none;stroke-opacity:1"
       transform="matrix(1.3333333,0,0,-1.3333333,61.970667,284.48667)" />
    <path
       id="path52"
       d="m 1.6641094,-2.1083203 v 2.68359374 h 0.082031 c 0.1875,0 0.3867188,-0.1171875 0.3867188,-0.1640625 V 0.04792969 h 3 v 0.4921875 h 0.070312 c 0.1523437,0 0.3867187,-0.1171875 0.3984375,-0.15234375 V -1.8153516 c 0.1289062,-0.023437 0.234375,-0.09375 0.2695312,-0.140625 L 5.3203594,-2.3778516 5.0625469,-2.1083203 H 2.1680156 L 1.6641094,-2.3309766 Z m 0.46875,1.94531249 V -1.8856641 h 3 v 1.72265629 z m 1.21875,-5.87109379 v 1.2304688 H 0.42192188 l 0.0585938,0.2109375 H 2.9297344 c -0.5625,0.9375 -1.5234375,1.8164062 -2.67187502,2.390625 l 0.0820313,0.1054687 C 1.6172344,-2.5887891 2.6719219,-3.3505078 3.3516094,-4.2997266 v 1.921875 h 0.082031 c 0.1757813,0 0.375,-0.1054687 0.375,-0.1640625 v -2.0507812 h 0.023437 c 0.5625,1.0078125 1.640625,1.8398437 2.7070313,2.3320312 0.070312,-0.234375 0.2109375,-0.375 0.4101562,-0.4101562 l 0.011719,-0.070312 C 5.9062969,-3.0809766 4.6523906,-3.7723828 4.0195781,-4.5926953 h 2.5898438 c 0.1054687,0 0.1640625,-0.035156 0.1875,-0.1171875 C 6.5508281,-4.9325391 6.1641094,-5.2489453 6.1641094,-5.2489453 L 5.8008281,-4.8036328 H 3.8086406 v -0.9609375 c 0.1875,-0.023437 0.2460938,-0.09375 0.2695313,-0.1875 z m 0,0"
       style="fill:#ff0000;fill-opacity:1;fill-rule:nonzero;stroke:none"
       aria-label="杏"
       transform="matrix(1.3333333,0,0,1.3333333,172.664,199.94)" />
    <path
       id="path53"
       d="M 70.867,91.65521 66.45772,89.38742 66.1424,79.37157 h 9.44921 L 75.27629,89.38742 70.867,91.65521"
       style="fill:none;stroke:#ff0000;stroke-width:0.3985;stroke-linecap:butt;stroke-linejoin:miter;stroke-miterlimit:10;stroke-dasharray:none;stroke-opacity:1"
       transform="matrix(1.3333333,0,0,-1.3333333,61.970667,284.48667)" />
    <path
       id="path54"
       d="m 3.6337891,0.19885938 c 0.984375,0 1.5703125,-0.10546875 1.8398437,-0.17578125 0.140625,-0.046875 0.2578125,-0.12890625 0.2578125,-0.22265625 0,-0.22265625 -0.2226562,-0.28125 -0.4804687,-0.28125 -0.2109375,0 -0.75,0.19921875 -1.7695313,0.19921875 -1.125,0 -1.5234375,-0.33984375 -1.5234375,-0.76171873 0,-0.6679688 0.796875,-1.2773438 1.3710938,-1.6054688 0.4921875,-0.2929687 1.3007812,-0.6679687 1.7460937,-0.8203125 0.2929688,-0.1054687 0.46875,-0.1523437 0.46875,-0.3046875 0,-0.1523437 -0.1875,-0.4335937 -0.4453125,-0.5742187 -0.1289062,-0.070312 -0.3164062,-0.1054688 -0.5039062,-0.140625 l -0.070312,0.1171875 c 0.1523437,0.082031 0.3164062,0.1757812 0.375,0.3046875 0.046875,0.09375 0.011719,0.140625 -0.09375,0.1992187 -0.2695313,0.1523438 -1.0195313,0.515625 -1.546875,0.84375 -0.2109375,-0.1523437 -0.3164063,-0.3515625 -0.3984375,-0.5976562 -0.09375,-0.2929688 -0.1523438,-0.8203125 -0.1523438,-1.0898438 -0.011719,-0.1757812 0.046875,-0.2460937 0.046875,-0.375 0,-0.1640625 -0.3867187,-0.3984375 -0.7148437,-0.3984375 -0.140625,0 -0.2695313,0.023437 -0.4570313,0.070312 l 0.011719,0.1523438 c 0.1054687,0.023437 0.28125,0.046875 0.3867187,0.09375 0.1523438,0.046875 0.1875,0.1289062 0.2109375,0.234375 0.070312,0.5273437 0.1757813,1.1367187 0.3164063,1.5117187 0.070312,0.2226563 0.2109375,0.4570313 0.421875,0.609375 -0.46875,0.3398438 -1.3125,1.03125 -1.3125,1.85156253 0,0.75 0.7617187,1.16015625 2.0156243,1.16015675 z m 0,0"
       style="fill:#ff0000;fill-opacity:1;fill-rule:nonzero;stroke:none"
       aria-label="と"
       transform="matrix(1.3333333,0,0,1.3333333,151.66667,174.74267)" />
  </g>
</svg>
