<?xml version="1.0" encoding="UTF-8" standalone="no"?>
<!-- Created with Inkscape (http://www.inkscape.org/) -->

<svg
   version="1.1"
   id="svg1"
   width="517.96094"
   height="599.63165"
   viewBox="0 0 517.96094 599.63165"
   sodipodi:docname="shogi.pdf"
   xmlns:inkscape="http://www.inkscape.org/namespaces/inkscape"
   xmlns:sodipodi="http://sodipodi.sourceforge.net/DTD/sodipodi-0.dtd"
   xmlns="http://www.w3.org/2000/svg"
   xmlns:svg="http://www.w3.org/2000/svg">
  <defs
     id="defs1" />
  <sodipodi:namedview
     id="namedview1"
     pagecolor="#ffffff"
     bordercolor="#000000"
     borderopacity="0.25"
     inkscape:showpageshadow="2"
     inkscape:pageopacity="0.0"
     inkscape:pagecheckerboard="0"
     inkscape:deskcolor="#d1d1d1" />
  <g
     id="g1"
     inkscape:groupmode="layer"
     inkscape:label="3"
     transform="translate(-147.97656,-333.95312)">
    <path
       id="path4"
       d="M 0,0 H 354.33527 M 0,47.24438 H 354.33527 M 0,94.48877 H 354.33527 M 0,141.73315 H 354.33527 M 0,188.97755 H 354.33527 M 0,236.22194 H 354.33527 M 0,283.46632 H 354.33527 M 0,330.71072 H 354.33527 M 0,377.95511 H 354.33527 M 0,425.1995 H 354.33527 M 0,0 V 425.20123 M 39.37045,0 V 425.20123 M 78.74092,0 V 425.20123 M 118.11139,0 V 425.20123 M 157.48184,0 V 425.20123 M 196.85231,0 V 425.20123 M 236.22278,0 V 425.20123 M 275.59323,0 V 425.20123 M 314.9637,0 V 425.20123 M 354.33417,0 v 425.20123"
       style="fill:none;stroke:#000000;stroke-width:0.34013;stroke-linecap:butt;stroke-linejoin:miter;stroke-miterlimit:10;stroke-dasharray:none;stroke-opacity:1"
       transform="matrix(1.3333333,0,0,-1.3333333,149.016,932.54533)" />
    <path
       id="path5"
       d="M 0,0 V 425.20123 H 354.33527 V 0 Z"
       style="fill:none;stroke:#000000;stroke-width:1.55916;stroke-linecap:butt;stroke-linejoin:miter;stroke-miterlimit:10;stroke-dasharray:none;stroke-opacity:1"
       transform="matrix(1.3333333,0,0,-1.3333333,149.016,932.54533)" />
    <path
       id="path6"
       d="m 4.5469297,-3.282125 c 0,-2.671875 -1.1367188,-3.3515625 -2.0273438,-3.3515625 -0.5507812,0 -1.03125,0.1757812 -1.4648437,0.6210937 -0.41015626,0.4570313 -0.63281251,0.8671875 -0.63281251,1.6171875 0,1.2421875 0.87890621,2.2265625 1.99218751,2.2265625 0.609375,0 1.0078125,-0.421875 1.2421875,-0.9960937 v 0.3164062 c 0,2.3320313 -1.03125,2.78906255 -1.6171875,2.78906255 -0.1640625,0 -0.703125,-0.0234375 -0.9726563,-0.36328125 0.4335938,0 0.515625,-0.28125 0.515625,-0.45703125 0,-0.30468755 -0.234375,-0.45703125 -0.4570312,-0.45703125 -0.16406251,0 -0.45703126,0.09375 -0.45703126,0.48046875 0,0.66796875 0.53906246,1.078125 1.38281246,1.078125 1.2890625,0 2.4960938,-1.35937505 2.4960938,-3.50390625 z M 3.6328672,-4.1961875 c 0,0.8320312 -0.3398438,1.7929687 -1.2070313,1.7929687 -0.1640625,0 -0.6210937,0 -0.9257812,-0.6210937 -0.1875,-0.375 -0.1875,-0.8671875 -0.1875,-1.359375 0,-0.5390625 0,-1.0078125 0.2109375,-1.3710938 0.2695312,-0.5039062 0.6445312,-0.6328125 0.9960937,-0.6328125 0.4570313,0 0.7851563,0.3398438 0.9609375,0.7851563 0.1171875,0.3164062 0.1523438,0.9492187 0.1523438,1.40625 z m 0,0"
       style="fill:#000000;fill-opacity:1;fill-rule:nonzero;stroke:none"
       aria-label="9"
       transform="matrix(1.3333333,0,0,1.3333333,171.94133,342.93867)" />
    <path
       id="path7"
       d="m 4.5460703,-1.6766563 c 0,-0.3515625 -0.1054687,-0.8085937 -0.4804687,-1.21875 -0.1875,-0.2109375 -0.3515625,-0.3164062 -0.984375,-0.7148437 0.7148437,-0.3632813 1.2070312,-0.8789063 1.2070312,-1.5351563 0,-0.9257812 -0.890625,-1.4882812 -1.7929687,-1.4882812 -0.9960938,0 -1.80468754,0.7382812 -1.80468754,1.6640625 0,0.1757812 0.0117188,0.6210937 0.43359374,1.0898437 0.1054688,0.1289063 0.4804688,0.375 0.7265625,0.5390625 -0.5742187,0.2929688 -1.42968749,0.84375 -1.42968749,1.8398438 0,1.0546875 1.00781249,1.72265625 2.06249999,1.72265625 1.125,0 2.0625,-0.83203125 2.0625,-1.89843755 z m -0.703125,-3.46875 c 0,0.5625 -0.3867187,1.0429688 -0.984375,1.3945313 L 1.6281016,-4.54775 c -0.46875,-0.3046875 -0.5039063,-0.6445313 -0.5039063,-0.8085938 0,-0.609375 0.6445313,-1.03125 1.359375,-1.03125 0.7265625,0 1.359375,0.515625 1.359375,1.2421875 z m 0.2109375,3.8320313 c 0,0.73828125 -0.75,1.25390625 -1.5585937,1.25390625 -0.8671875,0 -1.58203129,-0.62109375 -1.58203129,-1.44140625 0,-0.5859375 0.31640629,-1.21875 1.17187499,-1.6875 l 1.21875,0.7734375 c 0.28125,0.1875 0.75,0.4921875 0.75,1.1015625 z m 0,0"
       style="fill:#000000;fill-opacity:1;fill-rule:nonzero;stroke:none"
       aria-label="8"
       transform="matrix(1.3333333,0,0,1.3333333,224.43467,342.93867)" />
    <path
       id="path8"
       d="M 4.8293906,-6.4110313 H 2.4153281 c -1.21875,0 -1.2421875,-0.1289062 -1.2773437,-0.328125 H 0.89189063 l -0.328125,2.0507813 h 0.24609375 c 0.0234375,-0.1523438 0.1171875,-0.7851563 0.24609372,-0.9023438 0.070312,-0.058594 0.84375,-0.058594 0.9726563,-0.058594 h 2.0625 L 2.9778281,-4.079 c -0.890625,1.3476562 -1.21875,2.7304687 -1.21875,3.75 0,0.09375 0,0.55078125 0.4570313,0.55078125 0.4570312,0 0.4570312,-0.45703125 0.4570312,-0.55078125 v -0.50390625 c 0,-0.55078125 0.023437,-1.10156255 0.1054688,-1.64062505 0.046875,-0.2226562 0.1757812,-1.078125 0.6210937,-1.6992187 l 1.3476563,-1.8984375 c 0.082031,-0.1171875 0.082031,-0.140625 0.082031,-0.3398438 z m 0,0"
       style="fill:#000000;fill-opacity:1;fill-rule:nonzero;stroke:none"
       aria-label="7"
       transform="matrix(1.3333333,0,0,1.3333333,276.928,342.93867)" />
    <path
       id="path9"
       d="m 4.5472812,-2.0282188 c 0,-1.265625 -0.8789062,-2.2265625 -1.9921875,-2.2265625 -0.6679687,0 -1.0429687,0.5039063 -1.2421875,0.984375 v -0.234375 c 0,-2.5195312 1.2421875,-2.8828125 1.7460938,-2.8828125 0.234375,0 0.65625,0.058594 0.8789062,0.3984375 -0.1523437,0 -0.5507812,0 -0.5507812,0.4453125 0,0.3164063 0.234375,0.4570313 0.4570312,0.4570313 0.1640625,0 0.4570313,-0.082031 0.4570313,-0.46875 0,-0.5976563 -0.4335938,-1.078125 -1.265625,-1.078125 -1.2773438,0 -2.61328125,1.2890625 -2.61328125,3.4804687 0,2.6601563 1.14843745,3.37500005 2.07421875,3.37500005 1.1132812,0 2.0507812,-0.9375 2.0507812,-2.25000005 z m -0.890625,-0.011719 c 0,0.4804687 0,0.9726562 -0.1640625,1.3359375 -0.3046875,0.59765625 -0.7617187,0.64453125 -0.9960937,0.64453125 -0.6210938,0 -0.9257813,-0.59765625 -0.984375,-0.75 C 1.3363437,-1.2782188 1.3363437,-2.0750938 1.3363437,-2.250875 c 0,-0.7734375 0.3164063,-1.7695313 1.21875,-1.7695313 0.1523438,0 0.609375,0 0.9257813,0.609375 0.1757812,0.375 0.1757812,0.8789063 0.1757812,1.3710935 z m 0,0"
       style="fill:#000000;fill-opacity:1;fill-rule:nonzero;stroke:none"
       aria-label="6"
       transform="matrix(1.3333333,0,0,1.3333333,329.42133,342.93867)" />
    <path
       id="path10"
       d="m 4.4761094,-2.0047813 c 0,-1.1835937 -0.8203125,-2.1796875 -1.8984375,-2.1796875 -0.4804688,0 -0.9023438,0.1640625 -1.265625,0.5039063 v -1.9335938 c 0.1992187,0.058594 0.5273437,0.1289063 0.84375,0.1289063 1.2304687,0 1.9335937,-0.9140625 1.9335937,-1.0429688 0,-0.058594 -0.035156,-0.1054687 -0.1054687,-0.1054687 0,0 -0.035156,0 -0.082031,0.023437 -0.1992187,0.09375 -0.6796875,0.2929687 -1.3476562,0.2929687 -0.3984375,0 -0.8554688,-0.070312 -1.3242188,-0.28125 -0.082031,-0.023437 -0.1289062,-0.023437 -0.1289062,-0.023437 -0.09375,0 -0.09375,0.082031 -0.09375,0.234375 v 2.953125 c 0,0.1757813 0,0.2578125 0.140625,0.2578125 0.070312,0 0.082031,-0.035156 0.1289062,-0.09375 0.1054688,-0.1523437 0.4804688,-0.6914062 1.2773438,-0.6914062 0.5273437,0 0.7734375,0.4570312 0.8554687,0.6328125 0.1523438,0.375 0.1757813,0.7617187 0.1757813,1.2539062 0,0.3515625 0,0.9492188 -0.234375,1.3710938 -0.2460938,0.38671875 -0.609375,0.64453125 -1.0664063,0.64453125 -0.7265625,0 -1.30078122,-0.52734375 -1.46484372,-1.11328125 0.0234375,0.011719 0.0585938,0.011719 0.1640625,0.011719 0.32812502,0 0.50390622,-0.2460937 0.50390622,-0.4804687 0,-0.2460938 -0.1757812,-0.4921875 -0.50390622,-0.4921875 -0.140625,0 -0.48046875,0.070312 -0.48046875,0.5273437 0,0.8554688 0.67968747,1.82812505 1.79296877,1.82812505 1.1601562,0 2.1796875,-0.9609375 2.1796872,-2.22656285 z m 0,0"
       style="fill:#000000;fill-opacity:1;fill-rule:nonzero;stroke:none"
       aria-label="5"
       transform="matrix(1.3333333,0,0,1.3333333,381.91467,342.93867)" />
    <path
       id="path11"
       d="M 4.6861875,-1.6407734 V -1.9571797 H 3.6900938 v -4.5234375 c 0,-0.1992187 0,-0.2578125 -0.1523438,-0.2578125 -0.09375,0 -0.1171875,0 -0.1992187,0.1171875 l -3.0585938,4.6640625 v 0.3164063 H 2.928375 v 0.86718746 c 0,0.3515625 -0.023437,0.46875 -0.7617187,0.46875 H 1.9557188 V -1.484375e-4 C 2.365875,-0.03530469 2.8932188,-0.03530469 3.303375,-0.03530469 c 0.421875,0 0.9492188,0 1.359375,0.0351562525 V -0.30483594 H 4.4518125 c -0.7382812,0 -0.7617187,-0.1171875 -0.7617187,-0.46875 V -1.6407734 Z M 2.9869688,-1.9571797 H 0.5611875 l 2.4257813,-3.7148437 z m 0,0"
       style="fill:#000000;fill-opacity:1;fill-rule:nonzero;stroke:none"
       aria-label="4"
       transform="matrix(1.3333333,0,0,1.3333333,434.408,343.23067)" />
    <path
       id="path12"
       d="m 4.5476328,-1.7000938 c 0,-0.8203125 -0.6210937,-1.59375 -1.6523437,-1.8046875 0.8085937,-0.2695312 1.3945312,-0.9726562 1.3945312,-1.7578125 0,-0.8203125 -0.8789062,-1.3710937 -1.8398437,-1.3710937 -1.0078125,0 -1.75781254,0.5976562 -1.75781254,1.3476562 0,0.3398438 0.2109375,0.5273438 0.50390624,0.5273438 0.3046875,0 0.5039063,-0.2226563 0.5039063,-0.515625 0,-0.4921875 -0.46875,-0.4921875 -0.609375,-0.4921875 0.3046875,-0.4921875 0.9609375,-0.6210938 1.3242187,-0.6210938 0.4101563,0 0.9492188,0.2226563 0.9492188,1.1132813 0,0.1289062 -0.011719,0.703125 -0.2695313,1.1367187 -0.3046875,0.4804688 -0.6445312,0.515625 -0.890625,0.515625 -0.082031,0.011719 -0.3164062,0.035156 -0.3867187,0.035156 -0.082031,0.011719 -0.1523438,0.023437 -0.1523438,0.1171875 0,0.1171875 0.070312,0.1171875 0.234375,0.1171875 h 0.4453125 c 0.8085938,0 1.1835938,0.6679687 1.1835938,1.6523437 0,1.3476563 -0.6914063,1.64062505 -1.125,1.64062505 -0.4335938,0 -1.171875,-0.17578125 -1.52343754,-0.76171875 C 1.2312266,-0.76259375 1.5359141,-0.98525 1.5359141,-1.36025 c 0,-0.3632813 -0.2695313,-0.5625 -0.56250004,-0.5625 -0.234375,0 -0.55078125,0.140625 -0.55078125,0.5742187 0,0.91406255 0.92578129,1.57031255 2.00390629,1.57031255 1.21875,0 2.1210937,-0.9140625 2.1210937,-1.92187505 z m 0,0"
       style="fill:#000000;fill-opacity:1;fill-rule:nonzero;stroke:none"
       aria-label="3"
       transform="matrix(1.3333333,0,0,1.3333333,486.90133,342.93867)" />
    <path
       id="path13"
       d="M 4.4764609,-1.7345234 H 4.2186484 c -0.046875,0.3046875 -0.1171875,0.73828121 -0.2109375,0.89062496 -0.070312,0.0820313 -0.7265625,0.0820313 -0.9492187,0.0820313 H 1.2655234 L 2.3202109,-1.7931172 c 1.5585938,-1.3710937 2.15625,-1.9101562 2.15625,-2.90625 0,-1.1367187 -0.9023437,-1.9335937 -2.1210937,-1.9335937 -1.125,0 -1.85156251,0.9140625 -1.85156251,1.8046875 0,0.5507812 0.4921875,0.5507812 0.52734371,0.5507812 0.1640625,0 0.515625,-0.1171875 0.515625,-0.5273437 0,-0.2578125 -0.1875,-0.515625 -0.5273437,-0.515625 -0.0820313,0 -0.10546876,0 -0.12890626,0.011719 0.22265626,-0.6445312 0.76171876,-1.0195312 1.33593746,-1.0195312 0.9140625,0 1.3359375,0.8085937 1.3359375,1.6289062 0,0.796875 -0.4921875,1.5820313 -1.0429687,2.203125 L 0.60927344,-0.36342969 C 0.50380469,-0.25796094 0.50380469,-0.23452344 0.50380469,-1.484375e-4 H 4.1952109 Z m 0,0"
       style="fill:#000000;fill-opacity:1;fill-rule:nonzero;stroke:none"
       aria-label="2"
       transform="matrix(1.3333333,0,0,1.3333333,539.39467,343.23067)" />
    <path
       id="path14"
       d="M 4.1709141,-1.484375e-4 V -0.30483594 H 3.8545078 c -0.9023437,0 -0.9257812,-0.1171875 -0.9257812,-0.48046875 V -6.3751484 c 0,-0.234375 0,-0.2578125 -0.234375,-0.2578125 -0.609375,0.6328125 -1.4882813,0.6328125 -1.80468754,0.6328125 v 0.3164062 c 0.19921874,0 0.78515624,0 1.30078124,-0.2578125 v 5.15625001 c 0,0.3515625 -0.035156,0.48046875 -0.9257812,0.48046875 H 0.94825781 V -1.484375e-4 C 1.2998203,-0.03530469 2.1552891,-0.03530469 2.5537266,-0.03530469 c 0.3984375,0 1.265625,0 1.6171875,0.0351562525 z m 0,0"
       style="fill:#000000;fill-opacity:1;fill-rule:nonzero;stroke:none"
       aria-label="1"
       transform="matrix(1.3333333,0,0,1.3333333,591.888,343.23067)" />
    <path
       id="path15"
       d="M 3.3154687,2.578125e-4 V -0.30442969 H 3.0576562 c -0.7851562,0 -0.8203125,-0.1171875 -0.8203125,-0.46875 V -6.0231797 c 0,-0.3632812 0.035156,-0.46875 0.8203125,-0.46875 h 0.2578125 v -0.3164062 c -0.3515625,0.035156 -1.1367187,0.035156 -1.5117187,0.035156 -0.3867188,0 -1.171875,0 -1.5234375,-0.035156 v 0.3164062 H 0.538125 c 0.7851562,0 0.8203125,0.1054688 0.8203125,0.46875 v 5.25000001 c 0,0.3515625 -0.035156,0.46875 -0.8203125,0.46875 H 0.2803125 V 2.578125e-4 C 0.631875,-0.03489844 1.4170312,-0.03489844 1.7920312,-0.03489844 c 0.3867188,0 1.171875,0 1.5234375,0.0351562525 z m 0,0"
       style="fill:#000000;fill-opacity:1;fill-rule:nonzero;stroke:none"
       aria-label="I"
       transform="matrix(1.3333333,0,0,1.3333333,641.22,401.652)" />
    <path
       id="path16"
       d="m 3.3154687,0.00139844 v -0.3046875 H 3.0576562 c -0.7851562,0 -0.8203125,-0.1171875 -0.8203125,-0.46875 V -6.0220391 c 0,-0.3632812 0.035156,-0.46875 0.8203125,-0.46875 h 0.2578125 v -0.3164062 c -0.3515625,0.035156 -1.1367187,0.035156 -1.5117187,0.035156 -0.3867188,0 -1.171875,0 -1.5234375,-0.035156 v 0.3164062 H 0.538125 c 0.7851562,0 0.8203125,0.1054688 0.8203125,0.46875 v 5.25000004 c 0,0.3515625 -0.035156,0.46875 -0.8203125,0.46875 H 0.2803125 v 0.3046875 c 0.3515625,-0.03515625 1.1367187,-0.03515625 1.5117187,-0.03515625 0.3867188,0 1.171875,0 1.5234375,0.03515625 z m 3.8759766,0 v -0.3046875 H 6.9336328 c -0.7851562,0 -0.8203125,-0.1171875 -0.8203125,-0.46875 V -6.0220391 c 0,-0.3632812 0.035156,-0.46875 0.8203125,-0.46875 h 0.2578125 v -0.3164062 c -0.3515625,0.035156 -1.1367187,0.035156 -1.5117187,0.035156 -0.3867188,0 -1.171875,0 -1.5234375,-0.035156 v 0.3164062 h 0.2578125 c 0.7851562,0 0.8203125,0.1054688 0.8203125,0.46875 v 5.25000004 c 0,0.3515625 -0.035156,0.46875 -0.8203125,0.46875 H 4.1562891 v 0.3046875 c 0.3515625,-0.03515625 1.1367187,-0.03515625 1.5117187,-0.03515625 0.3867188,0 1.171875,0 1.5234375,0.03515625 z m 0,0"
       style="fill:#000000;fill-opacity:1;fill-rule:nonzero;stroke:none"
       aria-label="II"
       transform="matrix(1.3333333,0,0,1.3333333,641.22,464.64267)" />
    <path
       id="path17"
       d="m 3.3154687,-0.00139062 v -0.3046875 H 3.0576562 c -0.7851562,0 -0.8203125,-0.1171875 -0.8203125,-0.46875 V -6.0248281 c 0,-0.3632813 0.035156,-0.46875 0.8203125,-0.46875 h 0.2578125 v -0.3164063 c -0.3515625,0.035156 -1.1367187,0.035156 -1.5117187,0.035156 -0.3867188,0 -1.171875,0 -1.5234375,-0.035156 v 0.3164063 H 0.538125 c 0.7851562,0 0.8203125,0.1054687 0.8203125,0.46875 v 5.24999998 c 0,0.3515625 -0.035156,0.46875 -0.8203125,0.46875 H 0.2803125 v 0.3046875 c 0.3515625,-0.03515625 1.1367187,-0.03515625 1.5117187,-0.03515625 0.3867188,0 1.171875,0 1.5234375,0.03515625 z m 3.8759766,0 v -0.3046875 H 6.9336328 c -0.7851562,0 -0.8203125,-0.1171875 -0.8203125,-0.46875 V -6.0248281 c 0,-0.3632813 0.035156,-0.46875 0.8203125,-0.46875 h 0.2578125 v -0.3164063 c -0.3515625,0.035156 -1.1367187,0.035156 -1.5117187,0.035156 -0.3867188,0 -1.171875,0 -1.5234375,-0.035156 v 0.3164063 h 0.2578125 c 0.7851562,0 0.8203125,0.1054687 0.8203125,0.46875 v 5.24999998 c 0,0.3515625 -0.035156,0.46875 -0.8203125,0.46875 H 4.1562891 v 0.3046875 c 0.3515625,-0.03515625 1.1367187,-0.03515625 1.5117187,-0.03515625 0.3867188,0 1.171875,0 1.5234375,0.03515625 z m 3.8759767,0 v -0.3046875 h -0.257813 c -0.785156,0 -0.8203121,-0.1171875 -0.8203121,-0.46875 V -6.0248281 c 0,-0.3632813 0.035156,-0.46875 0.8203121,-0.46875 h 0.257813 v -0.3164063 c -0.351563,0.035156 -1.1367189,0.035156 -1.5117189,0.035156 -0.3867187,0 -1.171875,0 -1.5234375,-0.035156 v 0.3164063 h 0.2578125 c 0.7851563,0 0.8203125,0.1054687 0.8203125,0.46875 v 5.24999998 c 0,0.3515625 -0.035156,0.46875 -0.8203125,0.46875 H 8.0322656 v 0.3046875 c 0.3515625,-0.03515625 1.1367188,-0.03515625 1.5117188,-0.03515625 0.3867187,0 1.1718746,0 1.5234376,0.03515625 z m 0,0"
       style="fill:#000000;fill-opacity:1;fill-rule:nonzero;stroke:none"
       aria-label="III"
       transform="matrix(1.3333333,0,0,1.3333333,641.22,527.63467)" />
    <path
       id="path18"
       d="M 3.3154687,3.515625e-4 V -0.30433594 H 3.0576562 c -0.7851562,0 -0.8203125,-0.1171875 -0.8203125,-0.46875 V -6.0230859 c 0,-0.3632813 0.035156,-0.46875 0.8203125,-0.46875 h 0.2578125 v -0.3164063 c -0.3515625,0.035156 -1.1367187,0.035156 -1.5117187,0.035156 -0.3867188,0 -1.171875,0 -1.5234375,-0.035156 v 0.3164063 H 0.538125 c 0.7851562,0 0.8203125,0.1054687 0.8203125,0.46875 v 5.24999996 c 0,0.3515625 -0.035156,0.46875 -0.8203125,0.46875 H 0.2803125 V 3.515625e-4 C 0.631875,-0.03480469 1.4170312,-0.03480469 1.7920312,-0.03480469 c 0.3867188,0 1.171875,0 1.5234375,0.0351562525 z M 10.874062,-6.4918359 v -0.3164063 c -0.316406,0.023437 -0.714843,0.035156 -0.9726558,0.035156 l -1.1367187,-0.035156 v 0.3164063 c 0.515625,0.011719 0.7265625,0.2695312 0.7265625,0.4921875 0,0.082031 -0.023437,0.140625 -0.046875,0.1992187 L 7.61625,-0.99574219 5.7178125,-6.0230859 c -0.058594,-0.140625 -0.058594,-0.1875 -0.058594,-0.1875 0,-0.28125 0.5625,-0.28125 0.8203125,-0.28125 v -0.3164063 c -0.3632812,0.035156 -1.0546875,0.035156 -1.4296875,0.035156 l -1.265625,-0.035156 v 0.3164063 c 0.6445313,0 0.84375,0 0.9726563,0.375 L 7.0771875,3.515625e-4 C 7.1475,0.18785156 7.194375,0.22300781 7.3232812,0.22300781 c 0.1640625,0 0.1875,-0.0585938 0.234375,-0.1875 L 9.7842187,-5.8238672 c 0.140625,-0.375 0.4101563,-0.65625 1.0898433,-0.6679687 z m 0,0"
       style="fill:#000000;fill-opacity:1;fill-rule:nonzero;stroke:none"
       aria-label="IV"
       transform="matrix(1.3333333,0,0,1.3333333,641.22,590.48)" />
    <path
       id="path19"
       d="M 7.2764062,-6.4916953 V -6.8081016 C 6.96,-6.7846641 6.5615625,-6.7729453 6.30375,-6.7729453 l -1.1367188,-0.035156 v 0.3164063 c 0.515625,0.011719 0.7265625,0.2695312 0.7265625,0.4921875 0,0.082031 -0.023437,0.140625 -0.046875,0.1992187 L 4.0185937,-0.99560156 2.1201562,-6.0229453 c -0.058594,-0.140625 -0.058594,-0.1875 -0.058594,-0.1875 0,-0.28125 0.5625,-0.28125 0.8203125,-0.28125 v -0.3164063 c -0.3632813,0.035156 -1.0546875,0.035156 -1.4296875,0.035156 l -1.265625,-0.035156 v 0.3164063 c 0.64453125,0 0.84375,0 0.9726562,0.375 L 3.4795312,4.921875e-4 C 3.5498437,0.18799219 3.5967187,0.22314844 3.725625,0.22314844 c 0.1640625,0 0.1875,-0.0585938 0.234375,-0.1875 L 6.1865625,-5.8237266 c 0.140625,-0.375 0.4101562,-0.65625 1.0898437,-0.6679687 z m 0,0"
       style="fill:#000000;fill-opacity:1;fill-rule:nonzero;stroke:none"
       aria-label="V"
       transform="matrix(1.3333333,0,0,1.3333333,641.22,653.472)" />
    <path
       id="path20"
       d="M 7.2764062,-6.4915547 V -6.8079609 C 6.96,-6.7845234 6.5615625,-6.7728047 6.30375,-6.7728047 l -1.1367188,-0.035156 v 0.3164062 c 0.515625,0.011719 0.7265625,0.2695313 0.7265625,0.4921875 0,0.082031 -0.023437,0.140625 -0.046875,0.1992188 L 4.0185937,-0.99546094 2.1201562,-6.0228047 c -0.058594,-0.140625 -0.058594,-0.1875 -0.058594,-0.1875 0,-0.28125 0.5625,-0.28125 0.8203125,-0.28125 v -0.3164062 c -0.3632813,0.035156 -1.0546875,0.035156 -1.4296875,0.035156 l -1.265625,-0.035156 v 0.3164062 c 0.64453125,0 0.84375,0 0.9726562,0.375 L 3.4795312,6.328125e-4 C 3.5498437,0.18813281 3.5967187,0.22328906 3.725625,0.22328906 c 0.1640625,0 0.1875,-0.0585938 0.234375,-0.1875 L 6.1865625,-5.8235859 c 0.140625,-0.375 0.4101562,-0.65625 1.0898437,-0.6679688 z M 10.789102,6.328125e-4 V -0.30405469 h -0.257813 c -0.7851562,0 -0.8203124,-0.1171875 -0.8203124,-0.46875 V -6.0228047 c 0,-0.3632812 0.035156,-0.46875 0.8203124,-0.46875 h 0.257813 v -0.3164062 c -0.351563,0.035156 -1.1367192,0.035156 -1.5117192,0.035156 -0.3867187,0 -1.171875,0 -1.5234375,-0.035156 v 0.3164062 h 0.2578125 c 0.7851563,0 0.8203125,0.1054688 0.8203125,0.46875 v 5.25000001 c 0,0.3515625 -0.035156,0.46875 -0.8203125,0.46875 H 7.7539453 V 6.328125e-4 C 8.1055078,-0.03452344 8.8906641,-0.03452344 9.2656641,-0.03452344 c 0.3867187,0 1.1718749,0 1.5234379,0.0351562525 z m 0,0"
       style="fill:#000000;fill-opacity:1;fill-rule:nonzero;stroke:none"
       aria-label="VI"
       transform="matrix(1.3333333,0,0,1.3333333,641.22,716.464)" />
    <path
       id="path21"
       d="M 7.2764062,-6.4914141 V -6.8078203 C 6.96,-6.7843828 6.5615625,-6.7726641 6.30375,-6.7726641 l -1.1367188,-0.035156 v 0.3164062 c 0.515625,0.011719 0.7265625,0.2695313 0.7265625,0.4921875 0,0.082031 -0.023437,0.140625 -0.046875,0.1992188 L 4.0185937,-0.99532031 2.1201562,-6.0226641 c -0.058594,-0.140625 -0.058594,-0.1875 -0.058594,-0.1875 0,-0.28125 0.5625,-0.28125 0.8203125,-0.28125 v -0.3164062 c -0.3632813,0.035156 -1.0546875,0.035156 -1.4296875,0.035156 l -1.265625,-0.035156 v 0.3164062 c 0.64453125,0 0.84375,0 0.9726562,0.375 L 3.4795312,7.734375e-4 C 3.5498437,0.18827344 3.5967187,0.22342969 3.725625,0.22342969 c 0.1640625,0 0.1875,-0.0585938 0.234375,-0.1875 L 6.1865625,-5.8234453 c 0.140625,-0.375 0.4101562,-0.65625 1.0898437,-0.6679688 z M 10.789102,7.734375e-4 V -0.30391406 h -0.257813 c -0.7851562,0 -0.8203124,-0.1171875 -0.8203124,-0.46875 V -6.0226641 c 0,-0.3632812 0.035156,-0.46875 0.8203124,-0.46875 h 0.257813 v -0.3164062 c -0.351563,0.035156 -1.1367192,0.035156 -1.5117192,0.035156 -0.3867187,0 -1.171875,0 -1.5234375,-0.035156 v 0.3164062 h 0.2578125 c 0.7851563,0 0.8203125,0.1054688 0.8203125,0.46875 v 5.25000004 c 0,0.3515625 -0.035156,0.46875 -0.8203125,0.46875 H 7.7539453 V 7.734375e-4 C 8.1055078,-0.03438281 8.8906641,-0.03438281 9.2656641,-0.03438281 c 0.3867187,0 1.1718749,0 1.5234379,0.0351562475 z m 3.875976,0 V -0.30391406 h -0.257812 c -0.785157,0 -0.820313,-0.1171875 -0.820313,-0.46875 V -6.0226641 c 0,-0.3632812 0.03516,-0.46875 0.820313,-0.46875 h 0.257812 v -0.3164062 c -0.351562,0.035156 -1.136719,0.035156 -1.511719,0.035156 -0.386718,0 -1.171875,0 -1.523437,-0.035156 v 0.3164062 h 0.257812 c 0.785157,0 0.820313,0.1054688 0.820313,0.46875 v 5.25000004 c 0,0.3515625 -0.03516,0.46875 -0.820313,0.46875 H 11.629922 V 7.734375e-4 C 11.981484,-0.03438281 12.766641,-0.03438281 13.141641,-0.03438281 c 0.386718,0 1.171875,0 1.523437,0.0351562475 z m 0,0"
       style="fill:#000000;fill-opacity:1;fill-rule:nonzero;stroke:none"
       aria-label="VII"
       transform="matrix(1.3333333,0,0,1.3333333,641.22,779.456)" />
    <path
       id="path22"
       d="M 7.2764062,-6.4912734 V -6.8076797 C 6.96,-6.7842422 6.5615625,-6.7725234 6.30375,-6.7725234 l -1.1367188,-0.035156 v 0.3164063 c 0.515625,0.011719 0.7265625,0.2695312 0.7265625,0.4921875 0,0.082031 -0.023437,0.140625 -0.046875,0.1992187 L 4.0185937,-0.99517969 2.1201562,-6.0225234 c -0.058594,-0.140625 -0.058594,-0.1875 -0.058594,-0.1875 0,-0.28125 0.5625,-0.28125 0.8203125,-0.28125 v -0.3164063 c -0.3632813,0.035156 -1.0546875,0.035156 -1.4296875,0.035156 l -1.265625,-0.035156 v 0.3164063 c 0.64453125,0 0.84375,0 0.9726562,0.375 L 3.4795312,9.140625e-4 C 3.5498437,0.18841406 3.5967187,0.22357031 3.725625,0.22357031 c 0.1640625,0 0.1875,-0.0585938 0.234375,-0.1875 L 6.1865625,-5.8233047 c 0.140625,-0.375 0.4101562,-0.65625 1.0898437,-0.6679687 z M 10.789102,9.140625e-4 V -0.30377344 h -0.257813 c -0.7851562,0 -0.8203124,-0.1171875 -0.8203124,-0.46875 V -6.0225234 c 0,-0.3632813 0.035156,-0.46875 0.8203124,-0.46875 h 0.257813 v -0.3164063 c -0.351563,0.035156 -1.1367192,0.035156 -1.5117192,0.035156 -0.3867187,0 -1.171875,0 -1.5234375,-0.035156 v 0.3164063 h 0.2578125 c 0.7851563,0 0.8203125,0.1054687 0.8203125,0.46875 v 5.24999996 c 0,0.3515625 -0.035156,0.46875 -0.8203125,0.46875 H 7.7539453 V 9.140625e-4 C 8.1055078,-0.03424219 8.8906641,-0.03424219 9.2656641,-0.03424219 c 0.3867187,0 1.1718749,0 1.5234379,0.0351562525 z m 3.875976,0 V -0.30377344 h -0.257812 c -0.785157,0 -0.820313,-0.1171875 -0.820313,-0.46875 V -6.0225234 c 0,-0.3632813 0.03516,-0.46875 0.820313,-0.46875 h 0.257812 v -0.3164063 c -0.351562,0.035156 -1.136719,0.035156 -1.511719,0.035156 -0.386718,0 -1.171875,0 -1.523437,-0.035156 v 0.3164063 h 0.257812 c 0.785157,0 0.820313,0.1054687 0.820313,0.46875 v 5.24999996 c 0,0.3515625 -0.03516,0.46875 -0.820313,0.46875 H 11.629922 V 9.140625e-4 C 11.981484,-0.03424219 12.766641,-0.03424219 13.141641,-0.03424219 c 0.386718,0 1.171875,0 1.523437,0.0351562525 z m 3.873047,0 V -0.30377344 h -0.257813 c -0.785156,0 -0.820312,-0.1171875 -0.820312,-0.46875 V -6.0225234 c 0,-0.3632813 0.03516,-0.46875 0.820312,-0.46875 h 0.257813 v -0.3164063 c -0.351563,0.035156 -1.136719,0.035156 -1.511719,0.035156 -0.386719,0 -1.171875,0 -1.523437,-0.035156 v 0.3164063 h 0.257812 c 0.785156,0 0.820313,0.1054687 0.820313,0.46875 v 5.24999996 c 0,0.3515625 -0.03516,0.46875 -0.820313,0.46875 H 15.502969 V 9.140625e-4 C 15.854531,-0.03424219 16.639687,-0.03424219 17.014687,-0.03424219 c 0.386719,0 1.171875,0 1.523438,0.0351562525 z m 0,0"
       style="fill:#000000;fill-opacity:1;fill-rule:nonzero;stroke:none"
       aria-label="VIII"
       transform="matrix(1.3333333,0,0,1.3333333,641.22,842.448)" />
    <path
       id="path23"
       d="M 3.3154687,4.53125e-4 V -0.30423437 H 3.0576562 c -0.7851562,0 -0.8203125,-0.1171875 -0.8203125,-0.46875 V -6.0229844 c 0,-0.3632812 0.035156,-0.46875 0.8203125,-0.46875 h 0.2578125 v -0.3164062 c -0.3515625,0.035156 -1.1367187,0.035156 -1.5117187,0.035156 -0.3867188,0 -1.171875,0 -1.5234375,-0.035156 v 0.3164062 H 0.538125 c 0.7851562,0 0.8203125,0.1054688 0.8203125,0.46875 v 5.25000003 c 0,0.3515625 -0.035156,0.46875 -0.8203125,0.46875 H 0.2803125 V 4.53125e-4 C 0.631875,-0.03470312 1.4170312,-0.03470312 1.7920312,-0.03470312 c 0.3867188,0 1.171875,0 1.5234375,0.035156245 z m 7.5117183,0 V -0.30423437 h -0.1875 c -0.515625,0 -0.726562,-0.0585938 -0.9374995,-0.36328125 L 7.6045312,-3.8432969 8.9639062,-5.8472031 c 0.2226563,-0.3164063 0.5625,-0.6328125 1.4414058,-0.6445313 v -0.3164062 l -1.101562,0.035156 c -0.3984375,0 -0.8789063,0 -1.2773438,-0.035156 v 0.3164062 c 0.3984375,0.011719 0.6210938,0.2226563 0.6210938,0.4570313 0,0.09375 -0.023437,0.1171875 -0.09375,0.2226562 l -1.1367188,1.6875 -1.2773437,-1.921875 C 6.11625,-6.0815781 6.069375,-6.1518906 6.069375,-6.1987656 c 0,-0.1171875 0.2226562,-0.28125 0.6445312,-0.2929688 v -0.3164062 c -0.3515625,0.035156 -1.078125,0.035156 -1.453125,0.035156 L 3.96,-6.8081406 v 0.3164062 h 0.1992187 c 0.5390625,0 0.7382813,0.070312 0.9257813,0.3515625 l 1.828125,2.765625 -1.6289063,2.41406253 c -0.140625,0.19921875 -0.4453125,0.65625 -1.453125,0.65625 V 4.53125e-4 L 4.944375,-0.03470312 c 0.3632812,0 0.9140625,0 1.2773437,0.035156245 V -0.30423437 c -0.46875,-0.0117188 -0.6328125,-0.28125 -0.6328125,-0.45703125 0,-0.09375 0.035156,-0.140625 0.1054688,-0.24609378 l 1.40625,-2.0859375 1.5820312,2.37890628 c 0.011719,0.0351563 0.046875,0.0820313 0.046875,0.10546875 0,0.1171875 -0.2226562,0.29296875 -0.6445312,0.3046875 V 4.53125e-4 C 8.4248437,-0.03470312 9.1514062,-0.03470312 9.538125,-0.03470312 Z m 0,0"
       style="fill:#000000;fill-opacity:1;fill-rule:nonzero;stroke:none"
       aria-label="IX"
       transform="matrix(1.3333333,0,0,1.3333333,641.22,905.58533)" />
    <path
       id="path24"
       d="m 59.05678,381.73611 13.22836,6.80376 0.9451,30.04726 H 44.88332 l 0.94509,-30.04726 z"
       style="fill:none;stroke:#000000;stroke-width:0.85039;stroke-linecap:butt;stroke-linejoin:miter;stroke-miterlimit:10;stroke-dasharray:none;stroke-opacity:1"
       transform="matrix(1.3333333,0,0,-1.3333333,149.016,932.54533)" />
    <path
       id="path25"
       d="M 0.8791237,0.04014974 1.0451393,0.53819661 H 16.679905 c 0.253906,0 0.439453,-0.0683594 0.488281,-0.26367187 C 16.504124,-0.32117839 15.439671,-1.1317253 15.439671,-1.1317253 L 14.511936,0.04014974 H 9.5998268 V -6.6102409 H 15.19553 c 0.244141,0 0.429687,-0.097656 0.46875,-0.2929687 -0.634766,-0.5761719 -1.640625,-1.3671875 -1.640625,-1.3671875 l -0.917969,1.1132812 H 9.5998268 v -5.7519531 h 6.2402342 c 0.273438,0 0.429688,-0.08789 0.46875,-0.283203 -0.634765,-0.595703 -1.689453,-1.40625 -1.689453,-1.40625 l -0.9375,1.152344 H 1.6701393 l 0.1464844,0.537109 h 6.5429687 v 5.7519531 H 2.4416237 l 0.1464844,0.546875 h 5.7714843 v 6.65039064 z m 0,0"
       style="fill:#000000;fill-opacity:1;fill-rule:nonzero;stroke:none"
       aria-label="王"
       transform="matrix(-1.6,0,0,-1.6,242.13707,386.18533)" />
    <path
       id="path26"
       d="M 59.05678,323.62607 48.03311,317.95624 47.24553,292.9168 h 23.6225 l -0.78759,25.03944 z"
       style="fill:none;stroke:#000000;stroke-width:0.85039;stroke-linecap:butt;stroke-linejoin:miter;stroke-miterlimit:10;stroke-dasharray:none;stroke-opacity:1"
       transform="matrix(1.3333333,0,0,-1.3333333,149.016,932.54533)" />
    <path
       id="path27"
       d="m 11.823297,-7.8170625 -0.152344,0.1992188 c 1.394531,0.84375 3.269531,2.390625 3.9375,3.6210937 1.453125,0.6914063 1.792969,-2.3554687 -3.785156,-3.8203125 z M 5.1553281,-8.074875 c -0.8085937,1.6054688 -2.53125,3.7265625 -4.34765622,5.015625 l 0.17578125,0.234375 C 3.1279844,-3.8678437 5.1084531,-5.6139375 6.1514219,-7.0319062 6.5615781,-6.9615937 6.7256406,-7.043625 6.8311094,-7.2076875 Z M 8.4131406,-8.778 v 4.640625 c 0,0.2578125 -0.09375,0.3398438 -0.3984375,0.3398438 -0.3632812,0 -2.1328125,-0.1171875 -2.1328125,-0.1171875 v 0.28125 c 0.7851563,0.09375 1.1953125,0.2226562 1.4648438,0.4101562 0.2578125,0.1875 0.328125,0.46875 0.3867187,0.8320313 1.6523438,-0.1640625 1.8515625,-0.7148438 1.8515625,-1.6875 V -8.12175 c 0.3867188,-0.058594 0.5507814,-0.1875 0.6093754,-0.4570312 z m 4.2187504,3.4570313 C 9.7373594,-1.18425 6.0928281,0.12825 1.4756406,1.0423125 l 0.070312,0.3632813 c 4.9921875,-0.5976563 8.6953124,-1.7695313 11.9531254,-5.6484375 0.433594,0.070312 0.632813,0.035156 0.75,-0.140625 z M 4.2061094,-13.711594 v 4.3476565 H 0.74907813 l 0.1640625,0.515625 H 16.733453 c 0.269531,0 0.433594,-0.082031 0.492188,-0.28125 -0.632813,-0.5742187 -1.675782,-1.3476565 -1.675782,-1.3476565 l -0.914062,1.1132815 H 9.5850156 v -2.4843745 h 5.1210934 c 0.246094,0 0.433594,-0.09375 0.46875,-0.28125 -0.609375,-0.539063 -1.605468,-1.335938 -1.605468,-1.335938 l -0.902344,1.101563 H 9.5850156 V -14.403 c 0.4453124,-0.04687 0.6210934,-0.234375 0.6562504,-0.480469 L 8.4131406,-15.05925 v 5.6953125 H 5.3545469 v -3.7031245 c 0.3984375,-0.07031 0.5390625,-0.234375 0.5742187,-0.46875 z m 0,0"
       style="fill:#000000;fill-opacity:1;fill-rule:nonzero;stroke:none"
       aria-label="歩"
       transform="matrix(1.3333333,0,0,1.3333333,215.77467,532.204)" />
    <path
       id="path28"
       d="M 98.42725,277.20851 86.85236,271.25517 86.02539,244.9637 h 24.8037 l -0.82697,26.29147 z"
       style="fill:none;stroke:#000000;stroke-width:0.85039;stroke-linecap:butt;stroke-linejoin:miter;stroke-miterlimit:10;stroke-dasharray:none;stroke-opacity:1"
       transform="matrix(1.3333333,0,0,-1.3333333,149.016,932.54533)" />
    <path
       id="path29"
       d="m 3.6597396,-15.021124 v 4.129465 H 0.90304315 l 0.13392855,0.546875 h 2.3995536 c -0.5245536,2.6785712 -1.4285714,5.3459819 -2.84598215,7.3995533 l 0.25669643,0.234375 C 2.0525967,-4.0278199 2.978936,-5.5345164 3.6597396,-7.2086235 v 8.59375 H 3.916436 c 0.4129464,0 0.8928572,-0.2678572 0.8928572,-0.43526787 V -7.7220164 c 0.6026785,0.7366072 1.2834821,1.7522322 1.4955357,2.5446429 1.09375,0.8258928 2.0089285,-1.3616072 -1.4955357,-2.9464286 v -2.2209819 h 2.265625 c 0.234375,0 0.4129464,-0.08929 0.4575892,-0.290179 -0.5022321,-0.535714 -1.3727678,-1.272321 -1.3727678,-1.272321 l -0.7477679,1.015625 H 4.8092932 v -3.42634 c 0.46875,-0.07813 0.6138392,-0.256696 0.6696428,-0.524553 z m 7.2767854,0.200893 v 2.95759 H 7.4543824 l 0.1450893,0.524553 h 3.3370533 v 3.3035716 H 6.8293824 l 0.1450893,0.5245536 h 9.7879463 c 0.234375,0 0.412947,-0.089286 0.46875,-0.2901786 C 16.63965,-8.3581771 15.69099,-9.1059449 15.69099,-9.1059449 l -0.848215,1.0714285 H 12.1084 v -3.3035716 h 3.761161 c 0.245536,0 0.424107,-0.08929 0.457589,-0.290178 -0.569196,-0.558036 -1.517857,-1.294643 -1.517857,-1.294643 l -0.825893,1.060268 h -1.875 v -2.254465 c 0.446429,-0.07813 0.625,-0.256696 0.669643,-0.513393 z m 0,7.6674111 v 3.0803571 H 7.0637574 l 0.1450893,0.5357143 H 10.936525 V 0.3806622 H 5.7691146 L 5.9142039,0.90521577 H 16.885186 c 0.256696,0 0.435268,-0.10044642 0.457589,-0.29017857 C 16.78474,0.05700149 15.824918,-0.70192708 15.824918,-0.70192708 L 14.987865,0.3806622 H 12.1084 v -3.9174107 h 4.029018 c 0.234375,0 0.424107,-0.089286 0.46875,-0.2901786 -0.580357,-0.5357143 -1.517857,-1.3058036 -1.517857,-1.3058036 l -0.837054,1.0602679 H 12.1084 v -2.3772321 c 0.446429,-0.066964 0.625,-0.234375 0.669643,-0.4799108 z m 0,0"
       style="fill:#000000;fill-opacity:1;fill-rule:nonzero;stroke:none"
       aria-label="桂"
       transform="matrix(1.4,0,0,1.4,267.66933,595.65067)" />
  </g>
</svg>
