<?xml version="1.0" encoding="UTF-8" standalone="no"?>
<!-- Created with Inkscape (http://www.inkscape.org/) -->

<svg
   version="1.1"
   id="svg1"
   width="632.32294"
   height="632.32294"
   viewBox="0 0 632.32293 632.32293"
   sodipodi:docname="neofanaro.io.pdf"
   xmlns:inkscape="http://www.inkscape.org/namespaces/inkscape"
   xmlns:sodipodi="http://sodipodi.sourceforge.net/DTD/sodipodi-0.dtd"
   xmlns="http://www.w3.org/2000/svg"
   xmlns:svg="http://www.w3.org/2000/svg">
  <defs
     id="defs1">
    <clipPath
       clipPathUnits="userSpaceOnUse"
       id="clipPath3">
      <path
         d="M -13.12968,-13.12968 V 498.93645 H 498.93645 V -13.12968 Z"
         id="path3" />
    </clipPath>
    <clipPath
       clipPathUnits="userSpaceOnUse"
       id="clipPath5">
      <path
         d="M -13.12968,-13.12968 V 498.93645 H 498.93645 V -13.12968 Z"
         id="path5" />
    </clipPath>
    <clipPath
       clipPathUnits="userSpaceOnUse"
       id="clipPath7">
      <path
         d="M -13.12968,-13.12968 V 498.93645 H 498.93645 V -13.12968 Z"
         id="path7" />
    </clipPath>
    <clipPath
       clipPathUnits="userSpaceOnUse"
       id="clipPath9">
      <path
         d="M -13.12968,-13.12968 V 498.93645 H 498.93645 V -13.12968 Z"
         id="path9" />
    </clipPath>
    <clipPath
       clipPathUnits="userSpaceOnUse"
       id="clipPath11">
      <path
         d="M -13.12968,-13.12968 V 498.93645 H 498.93645 V -13.12968 Z"
         id="path11" />
    </clipPath>
    <clipPath
       clipPathUnits="userSpaceOnUse"
       id="clipPath13">
      <path
         d="M -13.12968,-13.12968 V 498.93645 H 498.93645 V -13.12968 Z"
         id="path13" />
    </clipPath>
    <clipPath
       clipPathUnits="userSpaceOnUse"
       id="clipPath15">
      <path
         d="M -13.12968,-13.12968 V 498.93645 H 498.93645 V -13.12968 Z"
         id="path15" />
    </clipPath>
    <clipPath
       clipPathUnits="userSpaceOnUse"
       id="clipPath17">
      <path
         d="M -13.12968,-13.12968 V 498.93645 H 498.93645 V -13.12968 Z"
         id="path17" />
    </clipPath>
    <clipPath
       clipPathUnits="userSpaceOnUse"
       id="clipPath19">
      <path
         d="M -13.12968,-13.12968 V 498.93645 H 498.93645 V -13.12968 Z"
         id="path19" />
    </clipPath>
    <clipPath
       clipPathUnits="userSpaceOnUse"
       id="clipPath21">
      <path
         d="M -13.12968,-13.12968 V 498.93645 H 498.93645 V -13.12968 Z"
         id="path21" />
    </clipPath>
    <clipPath
       clipPathUnits="userSpaceOnUse"
       id="clipPath23">
      <path
         d="M -13.12968,-13.12968 V 498.93645 H 498.93645 V -13.12968 Z"
         id="path23" />
    </clipPath>
    <clipPath
       clipPathUnits="userSpaceOnUse"
       id="clipPath25">
      <path
         d="M -13.12968,-13.12968 V 498.93645 H 498.93645 V -13.12968 Z"
         id="path25" />
    </clipPath>
    <clipPath
       clipPathUnits="userSpaceOnUse"
       id="clipPath27">
      <path
         d="M -13.12968,-13.12968 V 498.93645 H 498.93645 V -13.12968 Z"
         id="path27" />
    </clipPath>
    <clipPath
       clipPathUnits="userSpaceOnUse"
       id="clipPath29">
      <path
         d="M -13.12968,-13.12968 V 498.93645 H 498.93645 V -13.12968 Z"
         id="path29" />
    </clipPath>
    <clipPath
       clipPathUnits="userSpaceOnUse"
       id="clipPath31">
      <path
         d="M -13.12968,-13.12968 V 498.93645 H 498.93645 V -13.12968 Z"
         id="path31" />
    </clipPath>
    <clipPath
       clipPathUnits="userSpaceOnUse"
       id="clipPath33">
      <path
         d="M -13.12968,-13.12968 V 498.93645 H 498.93645 V -13.12968 Z"
         id="path33" />
    </clipPath>
    <clipPath
       clipPathUnits="userSpaceOnUse"
       id="clipPath35">
      <path
         d="M -13.12968,-13.12968 V 498.93645 H 498.93645 V -13.12968 Z"
         id="path35" />
    </clipPath>
    <clipPath
       clipPathUnits="userSpaceOnUse"
       id="clipPath37">
      <path
         d="M -13.12968,-13.12968 V 498.93645 H 498.93645 V -13.12968 Z"
         id="path37" />
    </clipPath>
    <clipPath
       clipPathUnits="userSpaceOnUse"
       id="clipPath39">
      <path
         d="M -13.12968,-13.12968 V 498.93645 H 498.93645 V -13.12968 Z"
         id="path39" />
    </clipPath>
    <clipPath
       clipPathUnits="userSpaceOnUse"
       id="clipPath41">
      <path
         d="M -13.12968,-13.12968 V 498.93645 H 498.93645 V -13.12968 Z"
         id="path41" />
    </clipPath>
    <clipPath
       clipPathUnits="userSpaceOnUse"
       id="clipPath43">
      <path
         d="M -13.12968,-13.12968 V 498.93645 H 498.93645 V -13.12968 Z"
         id="path43" />
    </clipPath>
    <clipPath
       clipPathUnits="userSpaceOnUse"
       id="clipPath45">
      <path
         d="M -13.12968,-13.12968 V 498.93645 H 498.93645 V -13.12968 Z"
         id="path45" />
    </clipPath>
    <clipPath
       clipPathUnits="userSpaceOnUse"
       id="clipPath47">
      <path
         d="M -13.12968,-13.12968 V 498.93645 H 498.93645 V -13.12968 Z"
         id="path47" />
    </clipPath>
    <clipPath
       clipPathUnits="userSpaceOnUse"
       id="clipPath49">
      <path
         d="M -13.12968,-13.12968 V 498.93645 H 498.93645 V -13.12968 Z"
         id="path49" />
    </clipPath>
    <clipPath
       clipPathUnits="userSpaceOnUse"
       id="clipPath51">
      <path
         d="M -13.12968,-13.12968 V 498.93645 H 498.93645 V -13.12968 Z"
         id="path51" />
    </clipPath>
    <clipPath
       clipPathUnits="userSpaceOnUse"
       id="clipPath53">
      <path
         d="M -13.12968,-13.12968 V 498.93645 H 498.93645 V -13.12968 Z"
         id="path53" />
    </clipPath>
    <clipPath
       clipPathUnits="userSpaceOnUse"
       id="clipPath55">
      <path
         d="M -13.12968,-13.12968 V 498.93645 H 498.93645 V -13.12968 Z"
         id="path55" />
    </clipPath>
    <clipPath
       clipPathUnits="userSpaceOnUse"
       id="clipPath57">
      <path
         d="M -13.12968,-13.12968 V 498.93645 H 498.93645 V -13.12968 Z"
         id="path57" />
    </clipPath>
    <clipPath
       clipPathUnits="userSpaceOnUse"
       id="clipPath59">
      <path
         d="M -13.12968,-13.12968 V 498.93645 H 498.93645 V -13.12968 Z"
         id="path59" />
    </clipPath>
    <clipPath
       clipPathUnits="userSpaceOnUse"
       id="clipPath61">
      <path
         d="M -13.12968,-13.12968 V 498.93645 H 498.93645 V -13.12968 Z"
         id="path61" />
    </clipPath>
    <clipPath
       clipPathUnits="userSpaceOnUse"
       id="clipPath63">
      <path
         d="M -13.12968,-13.12968 V 498.93645 H 498.93645 V -13.12968 Z"
         id="path63" />
    </clipPath>
    <clipPath
       clipPathUnits="userSpaceOnUse"
       id="clipPath65">
      <path
         d="M -13.12968,-13.12968 V 498.93645 H 498.93645 V -13.12968 Z"
         id="path65" />
    </clipPath>
    <clipPath
       clipPathUnits="userSpaceOnUse"
       id="clipPath67">
      <path
         d="M -13.12968,-13.12968 V 498.93645 H 498.93645 V -13.12968 Z"
         id="path67" />
    </clipPath>
    <clipPath
       clipPathUnits="userSpaceOnUse"
       id="clipPath69">
      <path
         d="M -13.12968,-13.12968 V 498.93645 H 498.93645 V -13.12968 Z"
         id="path69" />
    </clipPath>
    <clipPath
       clipPathUnits="userSpaceOnUse"
       id="clipPath71">
      <path
         d="M -13.12968,-13.12968 V 498.93645 H 498.93645 V -13.12968 Z"
         id="path71" />
    </clipPath>
    <clipPath
       clipPathUnits="userSpaceOnUse"
       id="clipPath73">
      <path
         d="M -13.12968,-13.12968 V 498.93645 H 498.93645 V -13.12968 Z"
         id="path73" />
    </clipPath>
    <clipPath
       clipPathUnits="userSpaceOnUse"
       id="clipPath75">
      <path
         d="M -13.12968,-13.12968 V 498.93645 H 498.93645 V -13.12968 Z"
         id="path75" />
    </clipPath>
    <clipPath
       clipPathUnits="userSpaceOnUse"
       id="clipPath77">
      <path
         d="M -13.12968,-13.12968 V 498.93645 H 498.93645 V -13.12968 Z"
         id="path77" />
    </clipPath>
    <clipPath
       clipPathUnits="userSpaceOnUse"
       id="clipPath79">
      <path
         d="M -13.12968,-13.12968 V 498.93645 H 498.93645 V -13.12968 Z"
         id="path79" />
    </clipPath>
    <clipPath
       clipPathUnits="userSpaceOnUse"
       id="clipPath81">
      <path
         d="M -13.12968,-13.12968 V 498.93645 H 498.93645 V -13.12968 Z"
         id="path81" />
    </clipPath>
    <clipPath
       clipPathUnits="userSpaceOnUse"
       id="clipPath83">
      <path
         d="M -13.12968,-13.12968 V 498.93645 H 498.93645 V -13.12968 Z"
         id="path83" />
    </clipPath>
    <clipPath
       clipPathUnits="userSpaceOnUse"
       id="clipPath85">
      <path
         d="M -13.12968,-13.12968 V 498.93645 H 498.93645 V -13.12968 Z"
         id="path85" />
    </clipPath>
    <clipPath
       clipPathUnits="userSpaceOnUse"
       id="clipPath87">
      <path
         d="M -13.12968,-13.12968 V 498.93645 H 498.93645 V -13.12968 Z"
         id="path87" />
    </clipPath>
    <clipPath
       clipPathUnits="userSpaceOnUse"
       id="clipPath89">
      <path
         d="M -13.12968,-13.12968 V 498.93645 H 498.93645 V -13.12968 Z"
         id="path89" />
    </clipPath>
    <clipPath
       clipPathUnits="userSpaceOnUse"
       id="clipPath91">
      <path
         d="M -13.12968,-13.12968 V 498.93645 H 498.93645 V -13.12968 Z"
         id="path91" />
    </clipPath>
    <clipPath
       clipPathUnits="userSpaceOnUse"
       id="clipPath93">
      <path
         d="M -13.12968,-13.12968 V 498.93645 H 498.93645 V -13.12968 Z"
         id="path93" />
    </clipPath>
    <clipPath
       clipPathUnits="userSpaceOnUse"
       id="clipPath95">
      <path
         d="M -13.12968,-13.12968 V 498.93645 H 498.93645 V -13.12968 Z"
         id="path95" />
    </clipPath>
    <clipPath
       clipPathUnits="userSpaceOnUse"
       id="clipPath97">
      <path
         d="M -13.12968,-13.12968 V 498.93645 H 498.93645 V -13.12968 Z"
         id="path97" />
    </clipPath>
    <clipPath
       clipPathUnits="userSpaceOnUse"
       id="clipPath99">
      <path
         d="M -13.12968,-13.12968 V 498.93645 H 498.93645 V -13.12968 Z"
         id="path99" />
    </clipPath>
    <clipPath
       clipPathUnits="userSpaceOnUse"
       id="clipPath101">
      <path
         d="M -13.12968,-13.12968 V 498.93645 H 498.93645 V -13.12968 Z"
         id="path101" />
    </clipPath>
    <clipPath
       clipPathUnits="userSpaceOnUse"
       id="clipPath103">
      <path
         d="M -13.12968,-13.12968 V 498.93645 H 498.93645 V -13.12968 Z"
         id="path103" />
    </clipPath>
    <clipPath
       clipPathUnits="userSpaceOnUse"
       id="clipPath105">
      <path
         d="M -13.12968,-13.12968 V 498.93645 H 498.93645 V -13.12968 Z"
         id="path105" />
    </clipPath>
    <clipPath
       clipPathUnits="userSpaceOnUse"
       id="clipPath107">
      <path
         d="M -13.12968,-13.12968 V 498.93645 H 498.93645 V -13.12968 Z"
         id="path107" />
    </clipPath>
    <clipPath
       clipPathUnits="userSpaceOnUse"
       id="clipPath109">
      <path
         d="M -13.12968,-13.12968 V 498.93645 H 498.93645 V -13.12968 Z"
         id="path109" />
    </clipPath>
    <clipPath
       clipPathUnits="userSpaceOnUse"
       id="clipPath111">
      <path
         d="M -13.12968,-13.12968 V 498.93645 H 498.93645 V -13.12968 Z"
         id="path111" />
    </clipPath>
    <clipPath
       clipPathUnits="userSpaceOnUse"
       id="clipPath113">
      <path
         d="M -13.12968,-13.12968 V 498.93645 H 498.93645 V -13.12968 Z"
         id="path113" />
    </clipPath>
    <clipPath
       clipPathUnits="userSpaceOnUse"
       id="clipPath115">
      <path
         d="M -13.12968,-13.12968 V 498.93645 H 498.93645 V -13.12968 Z"
         id="path115" />
    </clipPath>
    <clipPath
       clipPathUnits="userSpaceOnUse"
       id="clipPath117">
      <path
         d="M -13.12968,-13.12968 V 498.93645 H 498.93645 V -13.12968 Z"
         id="path117" />
    </clipPath>
    <clipPath
       clipPathUnits="userSpaceOnUse"
       id="clipPath119">
      <path
         d="M -13.12968,-13.12968 V 498.93645 H 498.93645 V -13.12968 Z"
         id="path119" />
    </clipPath>
    <clipPath
       clipPathUnits="userSpaceOnUse"
       id="clipPath121">
      <path
         d="M -13.12968,-13.12968 V 498.93645 H 498.93645 V -13.12968 Z"
         id="path121" />
    </clipPath>
    <clipPath
       clipPathUnits="userSpaceOnUse"
       id="clipPath123">
      <path
         d="M -13.12968,-13.12968 V 498.93645 H 498.93645 V -13.12968 Z"
         id="path123" />
    </clipPath>
    <clipPath
       clipPathUnits="userSpaceOnUse"
       id="clipPath125">
      <path
         d="M -13.12968,-13.12968 V 498.93645 H 498.93645 V -13.12968 Z"
         transform="matrix(1,0,0,-1,-179.053,99.231005)"
         id="path125" />
    </clipPath>
    <clipPath
       clipPathUnits="userSpaceOnUse"
       id="clipPath127">
      <path
         d="M -13.12968,-13.12968 V 498.93645 H 498.93645 V -13.12968 Z"
         id="path127" />
    </clipPath>
    <clipPath
       clipPathUnits="userSpaceOnUse"
       id="clipPath129">
      <path
         d="M -13.12968,-13.12968 V 498.93645 H 498.93645 V -13.12968 Z"
         transform="matrix(1,0,0,-1,-206.305,99.231005)"
         id="path129" />
    </clipPath>
  </defs>
  <sodipodi:namedview
     id="namedview1"
     pagecolor="#ffffff"
     bordercolor="#000000"
     borderopacity="0.25"
     inkscape:showpageshadow="2"
     inkscape:pageopacity="0.0"
     inkscape:pagecheckerboard="0"
     inkscape:deskcolor="#d1d1d1"
     inkscape:zoom="0.84096494"
     inkscape:cx="351.38207"
     inkscape:cy="451.26733"
     inkscape:window-width="1504"
     inkscape:window-height="914"
     inkscape:window-x="4"
     inkscape:window-y="36"
     inkscape:window-maximized="0"
     inkscape:current-layer="g1" />
  <g
     id="g1"
     inkscape:groupmode="layer"
     inkscape:label="1"
     transform="translate(-82.60862,-150.91779)">
    <path
       id="path2"
       d="M 0,0 472.68314,472.68314"
       style="fill:none;stroke:#000000;stroke-width:1;stroke-linecap:butt;stroke-linejoin:miter;stroke-miterlimit:10;stroke-dasharray:0, 1.99255;stroke-dashoffset:0;stroke-opacity:1"
       transform="matrix(1.3333333,0,0,-1.3333333,83.648,782.20133)"
       clip-path="url(#clipPath3)" />
    <path
       id="path4"
       d="M 0,0 H 472.68314 M 0,26.2598 H 472.68314 M 0,52.5196 H 472.68314 M 0,78.7794 H 472.68314 M 0,105.03922 H 472.68314 M 0,131.29903 H 472.68314 M 0,157.55882 H 472.68314 M 0,183.81863 H 472.68314 M 0,210.07845 H 472.68314 M 0,236.33824 H 472.68314 M 0,262.59805 H 472.68314 M 0,288.85786 H 472.68314 M 0,315.11766 H 472.68314 M 0,341.37747 H 472.68314 M 0,367.63728 H 472.68314 M 0,393.89708 H 472.68314 M 0,420.15689 H 472.68314 M 0,446.4167 H 472.68314 M 0,472.6765 H 472.68314 M 0,0 V 472.68314 M 26.2598,0 V 472.68314 M 52.5196,0 V 472.68314 M 78.7794,0 V 472.68314 M 105.03922,0 V 472.68314 M 131.29903,0 V 472.68314 M 157.55882,0 V 472.68314 M 183.81863,0 V 472.68314 M 210.07845,0 V 472.68314 M 236.33824,0 V 472.68314 M 262.59805,0 V 472.68314 M 288.85786,0 V 472.68314 M 315.11766,0 V 472.68314 M 341.37747,0 V 472.68314 M 367.63728,0 V 472.68314 M 393.89708,0 V 472.68314 M 420.15689,0 V 472.68314 M 446.4167,0 V 472.68314 M 472.6765,0 v 472.68314"
       style="fill:none;stroke:#000000;stroke-width:0.3985;stroke-linecap:butt;stroke-linejoin:miter;stroke-miterlimit:10;stroke-dasharray:none;stroke-opacity:1"
       transform="matrix(1.3333333,0,0,-1.3333333,83.648,782.20133)"
       clip-path="url(#clipPath5)" />
    <path
       id="path6"
       d="M 0,0 H 472.68314 M 0,472.67317 H 472.68314 M 0,0 V 472.68314 M 472.67317,0 v 472.68314"
       style="fill:none;stroke:#000000;stroke-width:1.55907;stroke-linecap:square;stroke-linejoin:miter;stroke-miterlimit:10;stroke-dasharray:none;stroke-opacity:1"
       transform="matrix(1.3333333,0,0,-1.3333333,83.648,782.20133)"
       clip-path="url(#clipPath7)" />
    <path
       id="path8"
       d="m 239.6204,236.3383 c 0,1.81269 -1.46941,3.2821 -3.2821,3.2821 -1.81267,0 -3.28209,-1.46941 -3.28209,-3.2821 0,-1.81267 1.46942,-3.28209 3.28209,-3.28209 1.81269,0 3.2821,1.46942 3.2821,3.28209 z"
       style="fill:#000000;fill-opacity:1;fill-rule:nonzero;stroke:#000000;stroke-width:0.3985;stroke-linecap:butt;stroke-linejoin:miter;stroke-miterlimit:10;stroke-dasharray:none;stroke-opacity:1"
       transform="matrix(1.3333333,0,0,-1.3333333,83.648,782.20133)"
       clip-path="url(#clipPath9)" />
    <path
       id="path10"
       d="m 82.06152,78.77942 c 0,1.81268 -1.46942,3.2821 -3.2821,3.2821 -1.81267,0 -3.28209,-1.46942 -3.28209,-3.2821 0,-1.81267 1.46942,-3.28209 3.28209,-3.28209 1.81268,0 3.2821,1.46942 3.2821,3.28209 z"
       style="fill:#000000;fill-opacity:1;fill-rule:nonzero;stroke:#000000;stroke-width:0.3985;stroke-linecap:butt;stroke-linejoin:miter;stroke-miterlimit:10;stroke-dasharray:none;stroke-opacity:1"
       transform="matrix(1.3333333,0,0,-1.3333333,83.648,782.20133)"
       clip-path="url(#clipPath11)" />
    <path
       id="path12"
       d="m 397.17929,78.77942 c 0,1.81268 -1.46944,3.2821 -3.2821,3.2821 -1.81267,0 -3.28209,-1.46942 -3.28209,-3.2821 0,-1.81267 1.46942,-3.28209 3.28209,-3.28209 1.81266,0 3.2821,1.46942 3.2821,3.28209 z"
       style="fill:#000000;fill-opacity:1;fill-rule:nonzero;stroke:#000000;stroke-width:0.3985;stroke-linecap:butt;stroke-linejoin:miter;stroke-miterlimit:10;stroke-dasharray:none;stroke-opacity:1"
       transform="matrix(1.3333333,0,0,-1.3333333,83.648,782.20133)"
       clip-path="url(#clipPath13)" />
    <path
       id="path14"
       d="m 82.06152,393.89719 c 0,1.81266 -1.46942,3.2821 -3.2821,3.2821 -1.81267,0 -3.28209,-1.46944 -3.28209,-3.2821 0,-1.81267 1.46942,-3.28209 3.28209,-3.28209 1.81268,0 3.2821,1.46942 3.2821,3.28209 z"
       style="fill:#000000;fill-opacity:1;fill-rule:nonzero;stroke:#000000;stroke-width:0.3985;stroke-linecap:butt;stroke-linejoin:miter;stroke-miterlimit:10;stroke-dasharray:none;stroke-opacity:1"
       transform="matrix(1.3333333,0,0,-1.3333333,83.648,782.20133)"
       clip-path="url(#clipPath15)" />
    <path
       id="path16"
       d="m 397.17929,393.89719 c 0,1.81266 -1.46944,3.2821 -3.2821,3.2821 -1.81267,0 -3.28209,-1.46944 -3.28209,-3.2821 0,-1.81267 1.46942,-3.28209 3.28209,-3.28209 1.81266,0 3.2821,1.46942 3.2821,3.28209 z"
       style="fill:#000000;fill-opacity:1;fill-rule:nonzero;stroke:#000000;stroke-width:0.3985;stroke-linecap:butt;stroke-linejoin:miter;stroke-miterlimit:10;stroke-dasharray:none;stroke-opacity:1"
       transform="matrix(1.3333333,0,0,-1.3333333,83.648,782.20133)"
       clip-path="url(#clipPath17)" />
    <path
       id="path18"
       d="m 82.06152,78.77942 c 0,1.81268 -1.46942,3.2821 -3.2821,3.2821 -1.81267,0 -3.28209,-1.46942 -3.28209,-3.2821 0,-1.81267 1.46942,-3.28209 3.28209,-3.28209 1.81268,0 3.2821,1.46942 3.2821,3.28209 z"
       style="fill:#000000;fill-opacity:1;fill-rule:nonzero;stroke:#000000;stroke-width:0.3985;stroke-linecap:butt;stroke-linejoin:miter;stroke-miterlimit:10;stroke-dasharray:none;stroke-opacity:1"
       transform="matrix(1.3333333,0,0,-1.3333333,83.648,782.20133)"
       clip-path="url(#clipPath19)" />
    <path
       id="path20"
       d="m 397.17929,78.77942 c 0,1.81268 -1.46944,3.2821 -3.2821,3.2821 -1.81267,0 -3.28209,-1.46942 -3.28209,-3.2821 0,-1.81267 1.46942,-3.28209 3.28209,-3.28209 1.81266,0 3.2821,1.46942 3.2821,3.28209 z"
       style="fill:#000000;fill-opacity:1;fill-rule:nonzero;stroke:#000000;stroke-width:0.3985;stroke-linecap:butt;stroke-linejoin:miter;stroke-miterlimit:10;stroke-dasharray:none;stroke-opacity:1"
       transform="matrix(1.3333333,0,0,-1.3333333,83.648,782.20133)"
       clip-path="url(#clipPath21)" />
    <path
       id="path22"
       d="m 82.06152,393.89719 c 0,1.81266 -1.46942,3.2821 -3.2821,3.2821 -1.81267,0 -3.28209,-1.46944 -3.28209,-3.2821 0,-1.81267 1.46942,-3.28209 3.28209,-3.28209 1.81268,0 3.2821,1.46942 3.2821,3.28209 z"
       style="fill:#000000;fill-opacity:1;fill-rule:nonzero;stroke:#000000;stroke-width:0.3985;stroke-linecap:butt;stroke-linejoin:miter;stroke-miterlimit:10;stroke-dasharray:none;stroke-opacity:1"
       transform="matrix(1.3333333,0,0,-1.3333333,83.648,782.20133)"
       clip-path="url(#clipPath23)" />
    <path
       id="path24"
       d="m 397.17929,393.89719 c 0,1.81266 -1.46944,3.2821 -3.2821,3.2821 -1.81267,0 -3.28209,-1.46944 -3.28209,-3.2821 0,-1.81267 1.46942,-3.28209 3.28209,-3.28209 1.81266,0 3.2821,1.46942 3.2821,3.28209 z"
       style="fill:#000000;fill-opacity:1;fill-rule:nonzero;stroke:#000000;stroke-width:0.3985;stroke-linecap:butt;stroke-linejoin:miter;stroke-miterlimit:10;stroke-dasharray:none;stroke-opacity:1"
       transform="matrix(1.3333333,0,0,-1.3333333,83.648,782.20133)"
       clip-path="url(#clipPath25)" />
    <path
       id="path26"
       d="m 82.06152,236.3383 c 0,1.81269 -1.46942,3.2821 -3.2821,3.2821 -1.81267,0 -3.28209,-1.46941 -3.28209,-3.2821 0,-1.81267 1.46942,-3.28209 3.28209,-3.28209 1.81268,0 3.2821,1.46942 3.2821,3.28209 z"
       style="fill:#000000;fill-opacity:1;fill-rule:nonzero;stroke:#000000;stroke-width:0.3985;stroke-linecap:butt;stroke-linejoin:miter;stroke-miterlimit:10;stroke-dasharray:none;stroke-opacity:1"
       transform="matrix(1.3333333,0,0,-1.3333333,83.648,782.20133)"
       clip-path="url(#clipPath27)" />
    <path
       id="path28"
       d="m 239.6204,393.89719 c 0,1.81266 -1.46941,3.2821 -3.2821,3.2821 -1.81267,0 -3.28209,-1.46944 -3.28209,-3.2821 0,-1.81267 1.46942,-3.28209 3.28209,-3.28209 1.81269,0 3.2821,1.46942 3.2821,3.28209 z"
       style="fill:#000000;fill-opacity:1;fill-rule:nonzero;stroke:#000000;stroke-width:0.3985;stroke-linecap:butt;stroke-linejoin:miter;stroke-miterlimit:10;stroke-dasharray:none;stroke-opacity:1"
       transform="matrix(1.3333333,0,0,-1.3333333,83.648,782.20133)"
       clip-path="url(#clipPath29)" />
    <path
       id="path30"
       d="m 239.6204,78.77942 c 0,1.81268 -1.46941,3.2821 -3.2821,3.2821 -1.81267,0 -3.28209,-1.46942 -3.28209,-3.2821 0,-1.81267 1.46942,-3.28209 3.28209,-3.28209 1.81269,0 3.2821,1.46942 3.2821,3.28209 z"
       style="fill:#000000;fill-opacity:1;fill-rule:nonzero;stroke:#000000;stroke-width:0.3985;stroke-linecap:butt;stroke-linejoin:miter;stroke-miterlimit:10;stroke-dasharray:none;stroke-opacity:1"
       transform="matrix(1.3333333,0,0,-1.3333333,83.648,782.20133)"
       clip-path="url(#clipPath31)" />
    <path
       id="path32"
       d="m 397.17929,236.3383 c 0,1.81269 -1.46944,3.2821 -3.2821,3.2821 -1.81267,0 -3.28209,-1.46941 -3.28209,-3.2821 0,-1.81267 1.46942,-3.28209 3.28209,-3.28209 1.81266,0 3.2821,1.46942 3.2821,3.28209 z"
       style="fill:#000000;fill-opacity:1;fill-rule:nonzero;stroke:#000000;stroke-width:0.3985;stroke-linecap:butt;stroke-linejoin:miter;stroke-miterlimit:10;stroke-dasharray:none;stroke-opacity:1"
       transform="matrix(1.3333333,0,0,-1.3333333,83.648,782.20133)"
       clip-path="url(#clipPath33)" />
    <path
       id="path34"
       d="m 407.02689,393.89719 c 0,7.25141 -5.87829,13.1297 -13.1297,13.1297 -7.25142,0 -13.12969,-5.87829 -13.12969,-13.1297 0,-7.25142 5.87827,-13.12969 13.12969,-13.12969 7.25141,0 13.1297,5.87827 13.1297,13.12969 z"
       style="fill:#ffffff;fill-opacity:1;fill-rule:nonzero;stroke:#ffffff;stroke-width:0.3985;stroke-linecap:butt;stroke-linejoin:miter;stroke-miterlimit:10;stroke-dasharray:none;stroke-opacity:1"
       transform="matrix(1.3333333,0,0,-1.3333333,83.648,782.20133)"
       clip-path="url(#clipPath35)" />
    <path
       id="path36"
       d="m 406.97455,393.89719 c 0,7.22251 -5.85485,13.07736 -13.07736,13.07736 -7.22251,0 -13.07735,-5.85485 -13.07735,-13.07736 0,-7.22251 5.85484,-13.07735 13.07735,-13.07735 7.22251,0 13.07736,5.85484 13.07736,13.07735 z"
       style="fill:#000000;fill-opacity:1;fill-rule:nonzero;stroke:#ffffff;stroke-width:1.1998;stroke-linecap:butt;stroke-linejoin:miter;stroke-miterlimit:10;stroke-dasharray:none;stroke-opacity:1"
       transform="matrix(1.3333333,0,0,-1.3333333,83.648,782.20133)"
       clip-path="url(#clipPath37)" />
    <path
       id="path38"
       d="m 328.24745,420.15701 c 0,7.25142 -5.87828,13.12969 -13.1297,13.12969 -7.25142,0 -13.12968,-5.87827 -13.12968,-13.12969 0,-7.25141 5.87826,-13.12968 13.12968,-13.12968 7.25142,0 13.1297,5.87827 13.1297,13.12968 z"
       style="fill:#ffffff;fill-opacity:1;fill-rule:nonzero;stroke:#ffffff;stroke-width:0.3985;stroke-linecap:butt;stroke-linejoin:miter;stroke-miterlimit:10;stroke-dasharray:none;stroke-opacity:1"
       transform="matrix(1.3333333,0,0,-1.3333333,83.648,782.20133)"
       clip-path="url(#clipPath39)" />
    <path
       id="path40"
       d="m 328.19511,420.15701 c 0,7.22251 -5.85484,13.07735 -13.07736,13.07735 -7.2225,0 -13.07735,-5.85484 -13.07735,-13.07735 0,-7.2225 5.85485,-13.07734 13.07735,-13.07734 7.22252,0 13.07736,5.85484 13.07736,13.07734 z"
       style="fill:#000000;fill-opacity:1;fill-rule:nonzero;stroke:#ffffff;stroke-width:1.1998;stroke-linecap:butt;stroke-linejoin:miter;stroke-miterlimit:10;stroke-dasharray:none;stroke-opacity:1"
       transform="matrix(1.3333333,0,0,-1.3333333,83.648,782.20133)"
       clip-path="url(#clipPath41)" />
    <path
       id="path42"
       d="m 91.90912,420.15701 c 0,7.25142 -5.87827,13.12969 -13.1297,13.12969 -7.25142,0 -13.12969,-5.87827 -13.12969,-13.12969 0,-7.25141 5.87827,-13.12968 13.12969,-13.12968 7.25143,0 13.1297,5.87827 13.1297,13.12968 z"
       style="fill:#ffffff;fill-opacity:1;fill-rule:nonzero;stroke:#ffffff;stroke-width:0.3985;stroke-linecap:butt;stroke-linejoin:miter;stroke-miterlimit:10;stroke-dasharray:none;stroke-opacity:1"
       transform="matrix(1.3333333,0,0,-1.3333333,83.648,782.20133)"
       clip-path="url(#clipPath43)" />
    <path
       id="path44"
       d="m 91.85678,420.15701 c 0,7.22251 -5.85484,13.07735 -13.07736,13.07735 -7.2225,0 -13.07735,-5.85484 -13.07735,-13.07735 0,-7.2225 5.85485,-13.07734 13.07735,-13.07734 7.22252,0 13.07736,5.85484 13.07736,13.07734 z"
       style="fill:#000000;fill-opacity:1;fill-rule:nonzero;stroke:#ffffff;stroke-width:1.1998;stroke-linecap:butt;stroke-linejoin:miter;stroke-miterlimit:10;stroke-dasharray:none;stroke-opacity:1"
       transform="matrix(1.3333333,0,0,-1.3333333,83.648,782.20133)"
       clip-path="url(#clipPath45)" />
    <path
       id="path46"
       d="m 91.90912,367.63739 c 0,7.25142 -5.87827,13.12968 -13.1297,13.12968 -7.25142,0 -13.12969,-5.87826 -13.12969,-13.12968 0,-7.25142 5.87827,-13.1297 13.12969,-13.1297 7.25143,0 13.1297,5.87828 13.1297,13.1297 z"
       style="fill:#ffffff;fill-opacity:1;fill-rule:nonzero;stroke:#ffffff;stroke-width:0.3985;stroke-linecap:butt;stroke-linejoin:miter;stroke-miterlimit:10;stroke-dasharray:none;stroke-opacity:1"
       transform="matrix(1.3333333,0,0,-1.3333333,83.648,782.20133)"
       clip-path="url(#clipPath47)" />
    <path
       id="path48"
       d="m 91.85678,367.63739 c 0,7.22251 -5.85484,13.07735 -13.07736,13.07735 -7.2225,0 -13.07735,-5.85484 -13.07735,-13.07735 0,-7.2225 5.85485,-13.07735 13.07735,-13.07735 7.22252,0 13.07736,5.85485 13.07736,13.07735 z"
       style="fill:#000000;fill-opacity:1;fill-rule:nonzero;stroke:#ffffff;stroke-width:1.1998;stroke-linecap:butt;stroke-linejoin:miter;stroke-miterlimit:10;stroke-dasharray:none;stroke-opacity:1"
       transform="matrix(1.3333333,0,0,-1.3333333,83.648,782.20133)"
       clip-path="url(#clipPath49)" />
    <path
       id="path50"
       d="m 91.90912,78.77942 c 0,7.25143 -5.87827,13.1297 -13.1297,13.1297 -7.25142,0 -13.12969,-5.87827 -13.12969,-13.1297 0,-7.25142 5.87827,-13.12969 13.12969,-13.12969 7.25143,0 13.1297,5.87827 13.1297,13.12969 z"
       style="fill:#ffffff;fill-opacity:1;fill-rule:nonzero;stroke:#ffffff;stroke-width:0.3985;stroke-linecap:butt;stroke-linejoin:miter;stroke-miterlimit:10;stroke-dasharray:none;stroke-opacity:1"
       transform="matrix(1.3333333,0,0,-1.3333333,83.648,782.20133)"
       clip-path="url(#clipPath51)" />
    <path
       id="path52"
       d="m 91.85678,78.77942 c 0,7.22252 -5.85484,13.07736 -13.07736,13.07736 -7.2225,0 -13.07735,-5.85484 -13.07735,-13.07736 0,-7.2225 5.85485,-13.07735 13.07735,-13.07735 7.22252,0 13.07736,5.85485 13.07736,13.07735 z"
       style="fill:#000000;fill-opacity:1;fill-rule:nonzero;stroke:#ffffff;stroke-width:1.1998;stroke-linecap:butt;stroke-linejoin:miter;stroke-miterlimit:10;stroke-dasharray:none;stroke-opacity:1"
       transform="matrix(1.3333333,0,0,-1.3333333,83.648,782.20133)"
       clip-path="url(#clipPath53)" />
    <path
       id="path54"
       d="m 65.6493,52.51962 c 0,7.25142 -5.87826,13.12968 -13.12968,13.12968 -7.25142,0 -13.1297,-5.87826 -13.1297,-13.12968 0,-7.25142 5.87828,-13.1297 13.1297,-13.1297 7.25142,0 13.12968,5.87828 13.12968,13.1297 z"
       style="fill:#ffffff;fill-opacity:1;fill-rule:nonzero;stroke:#ffffff;stroke-width:0.3985;stroke-linecap:butt;stroke-linejoin:miter;stroke-miterlimit:10;stroke-dasharray:none;stroke-opacity:1"
       transform="matrix(1.3333333,0,0,-1.3333333,83.648,782.20133)"
       clip-path="url(#clipPath55)" />
    <path
       id="path56"
       d="m 65.59697,52.51962 c 0,7.22251 -5.85484,13.07735 -13.07735,13.07735 -7.2225,0 -13.07734,-5.85484 -13.07734,-13.07735 0,-7.2225 5.85484,-13.07734 13.07734,-13.07734 7.22251,0 13.07735,5.85484 13.07735,13.07734 z"
       style="fill:#000000;fill-opacity:1;fill-rule:nonzero;stroke:#ffffff;stroke-width:1.1998;stroke-linecap:butt;stroke-linejoin:miter;stroke-miterlimit:10;stroke-dasharray:none;stroke-opacity:1"
       transform="matrix(1.3333333,0,0,-1.3333333,83.648,782.20133)"
       clip-path="url(#clipPath57)" />
    <path
       id="path58"
       d="m 39.3895,26.2598 c 0,7.25142 -5.87828,13.1297 -13.1297,13.1297 -7.25142,0 -13.12969,-5.87828 -13.12969,-13.1297 0,-7.25142 5.87827,-13.12969 13.12969,-13.12969 7.25142,0 13.1297,5.87827 13.1297,13.12969 z"
       style="fill:#ffffff;fill-opacity:1;fill-rule:nonzero;stroke:#ffffff;stroke-width:0.3985;stroke-linecap:butt;stroke-linejoin:miter;stroke-miterlimit:10;stroke-dasharray:none;stroke-opacity:1"
       transform="matrix(1.3333333,0,0,-1.3333333,83.648,782.20133)"
       clip-path="url(#clipPath59)" />
    <path
       id="path60"
       d="m 39.33714,26.2598 c 0,7.2225 -5.85484,13.07734 -13.07734,13.07734 -7.2225,0 -13.07735,-5.85484 -13.07735,-13.07734 0,-7.2225 5.85485,-13.07735 13.07735,-13.07735 7.2225,0 13.07734,5.85485 13.07734,13.07735 z"
       style="fill:#000000;fill-opacity:1;fill-rule:nonzero;stroke:#ffffff;stroke-width:1.1998;stroke-linecap:butt;stroke-linejoin:miter;stroke-miterlimit:10;stroke-dasharray:none;stroke-opacity:1"
       transform="matrix(1.3333333,0,0,-1.3333333,83.648,782.20133)"
       clip-path="url(#clipPath61)" />
    <path
       id="path62"
       d="m 65.6493,131.29906 c 0,7.25142 -5.87826,13.12968 -13.12968,13.12968 -7.25142,0 -13.1297,-5.87826 -13.1297,-13.12968 0,-7.25142 5.87828,-13.1297 13.1297,-13.1297 7.25142,0 13.12968,5.87828 13.12968,13.1297 z"
       style="fill:#ffffff;fill-opacity:1;fill-rule:nonzero;stroke:#ffffff;stroke-width:0.3985;stroke-linecap:butt;stroke-linejoin:miter;stroke-miterlimit:10;stroke-dasharray:none;stroke-opacity:1"
       transform="matrix(1.3333333,0,0,-1.3333333,83.648,782.20133)"
       clip-path="url(#clipPath63)" />
    <path
       id="path64"
       d="m 65.59697,131.29906 c 0,7.2225 -5.85484,13.07734 -13.07735,13.07734 -7.2225,0 -13.07734,-5.85484 -13.07734,-13.07734 0,-7.22251 5.85484,-13.07735 13.07734,-13.07735 7.22251,0 13.07735,5.85484 13.07735,13.07735 z"
       style="fill:#000000;fill-opacity:1;fill-rule:nonzero;stroke:#ffffff;stroke-width:1.1998;stroke-linecap:butt;stroke-linejoin:miter;stroke-miterlimit:10;stroke-dasharray:none;stroke-opacity:1"
       transform="matrix(1.3333333,0,0,-1.3333333,83.648,782.20133)"
       clip-path="url(#clipPath65)" />
    <path
       id="path66"
       d="m 223.20819,78.77942 c 0,7.25143 -5.87826,13.1297 -13.12969,13.1297 -7.25141,0 -13.1297,-5.87827 -13.1297,-13.1297 0,-7.25142 5.87829,-13.12969 13.1297,-13.12969 7.25143,0 13.12969,5.87827 13.12969,13.12969 z"
       style="fill:#ffffff;fill-opacity:1;fill-rule:nonzero;stroke:#ffffff;stroke-width:0.3985;stroke-linecap:butt;stroke-linejoin:miter;stroke-miterlimit:10;stroke-dasharray:none;stroke-opacity:1"
       transform="matrix(1.3333333,0,0,-1.3333333,83.648,782.20133)"
       clip-path="url(#clipPath67)" />
    <path
       id="path68"
       d="m 223.15585,78.77942 c 0,7.22252 -5.85484,13.07736 -13.07735,13.07736 -7.2225,0 -13.07734,-5.85484 -13.07734,-13.07736 0,-7.2225 5.85484,-13.07735 13.07734,-13.07735 7.22251,0 13.07735,5.85485 13.07735,13.07735 z"
       style="fill:#000000;fill-opacity:1;fill-rule:nonzero;stroke:#ffffff;stroke-width:1.1998;stroke-linecap:butt;stroke-linejoin:miter;stroke-miterlimit:10;stroke-dasharray:none;stroke-opacity:1"
       transform="matrix(1.3333333,0,0,-1.3333333,83.648,782.20133)"
       clip-path="url(#clipPath69)" />
    <path
       id="path70"
       d="m 223.20819,52.51962 c 0,7.25142 -5.87826,13.12968 -13.12969,13.12968 -7.25141,0 -13.1297,-5.87826 -13.1297,-13.12968 0,-7.25142 5.87829,-13.1297 13.1297,-13.1297 7.25143,0 13.12969,5.87828 13.12969,13.1297 z"
       style="fill:#ffffff;fill-opacity:1;fill-rule:nonzero;stroke:#ffffff;stroke-width:0.3985;stroke-linecap:butt;stroke-linejoin:miter;stroke-miterlimit:10;stroke-dasharray:none;stroke-opacity:1"
       transform="matrix(1.3333333,0,0,-1.3333333,83.648,782.20133)"
       clip-path="url(#clipPath71)" />
    <path
       id="path72"
       d="m 223.15585,52.51962 c 0,7.22251 -5.85484,13.07735 -13.07735,13.07735 -7.2225,0 -13.07734,-5.85484 -13.07734,-13.07735 0,-7.2225 5.85484,-13.07734 13.07734,-13.07734 7.22251,0 13.07735,5.85484 13.07735,13.07734 z"
       style="fill:#000000;fill-opacity:1;fill-rule:nonzero;stroke:#ffffff;stroke-width:1.1998;stroke-linecap:butt;stroke-linejoin:miter;stroke-miterlimit:10;stroke-dasharray:none;stroke-opacity:1"
       transform="matrix(1.3333333,0,0,-1.3333333,83.648,782.20133)"
       clip-path="url(#clipPath73)" />
    <path
       id="path74"
       d="m 196.94838,105.03925 c 0,7.25141 -5.87828,13.1297 -13.1297,13.1297 -7.25142,0 -13.12968,-5.87829 -13.12968,-13.1297 0,-7.25142 5.87826,-13.12969 13.12968,-13.12969 7.25142,0 13.1297,5.87827 13.1297,13.12969 z"
       style="fill:#ffffff;fill-opacity:1;fill-rule:nonzero;stroke:#ffffff;stroke-width:0.3985;stroke-linecap:butt;stroke-linejoin:miter;stroke-miterlimit:10;stroke-dasharray:none;stroke-opacity:1"
       transform="matrix(1.3333333,0,0,-1.3333333,83.648,782.20133)"
       clip-path="url(#clipPath75)" />
    <path
       id="path76"
       d="m 196.89603,105.03925 c 0,7.2225 -5.85485,13.07735 -13.07735,13.07735 -7.2225,0 -13.07735,-5.85485 -13.07735,-13.07735 0,-7.22251 5.85485,-13.07735 13.07735,-13.07735 7.2225,0 13.07735,5.85484 13.07735,13.07735 z"
       style="fill:#000000;fill-opacity:1;fill-rule:nonzero;stroke:#ffffff;stroke-width:1.1998;stroke-linecap:butt;stroke-linejoin:miter;stroke-miterlimit:10;stroke-dasharray:none;stroke-opacity:1"
       transform="matrix(1.3333333,0,0,-1.3333333,83.648,782.20133)"
       clip-path="url(#clipPath77)" />
    <path
       id="path78"
       d="m 354.50725,78.77942 c 0,7.25143 -5.87827,13.1297 -13.12969,13.1297 -7.25142,0 -13.12968,-5.87827 -13.12968,-13.1297 0,-7.25142 5.87826,-13.12969 13.12968,-13.12969 7.25142,0 13.12969,5.87827 13.12969,13.12969 z"
       style="fill:#ffffff;fill-opacity:1;fill-rule:nonzero;stroke:#ffffff;stroke-width:0.3985;stroke-linecap:butt;stroke-linejoin:miter;stroke-miterlimit:10;stroke-dasharray:none;stroke-opacity:1"
       transform="matrix(1.3333333,0,0,-1.3333333,83.648,782.20133)"
       clip-path="url(#clipPath79)" />
    <path
       id="path80"
       d="m 354.45491,78.77942 c 0,7.22252 -5.85484,13.07736 -13.07735,13.07736 -7.2225,0 -13.07734,-5.85484 -13.07734,-13.07736 0,-7.2225 5.85484,-13.07735 13.07734,-13.07735 7.22251,0 13.07735,5.85485 13.07735,13.07735 z"
       style="fill:#000000;fill-opacity:1;fill-rule:nonzero;stroke:#ffffff;stroke-width:1.1998;stroke-linecap:butt;stroke-linejoin:miter;stroke-miterlimit:10;stroke-dasharray:none;stroke-opacity:1"
       transform="matrix(1.3333333,0,0,-1.3333333,83.648,782.20133)"
       clip-path="url(#clipPath81)" />
    <path
       id="path82"
       d="m 91.90912,52.51962 c 0,7.25142 -5.87827,13.12968 -13.1297,13.12968 -7.25142,0 -13.12969,-5.87826 -13.12969,-13.12968 0,-7.25142 5.87827,-13.1297 13.12969,-13.1297 7.25143,0 13.1297,5.87828 13.1297,13.1297 z"
       style="fill:#ffffff;fill-opacity:1;fill-rule:nonzero;stroke:#ffffff;stroke-width:0.3985;stroke-linecap:butt;stroke-linejoin:miter;stroke-miterlimit:10;stroke-dasharray:none;stroke-opacity:1"
       transform="matrix(1.3333333,0,0,-1.3333333,83.648,782.20133)"
       clip-path="url(#clipPath83)" />
    <path
       id="path84"
       d="m 90.76028,52.51962 c 0,6.61692 -5.36393,11.98087 -11.98086,11.98087 -6.61692,0 -11.98085,-5.36395 -11.98085,-11.98087 0,-6.61692 5.36393,-11.98086 11.98085,-11.98086 6.61693,0 11.98086,5.36394 11.98086,11.98086 z"
       style="fill:#ffffff;fill-opacity:1;fill-rule:nonzero;stroke:#000000;stroke-width:1.1998;stroke-linecap:butt;stroke-linejoin:miter;stroke-miterlimit:10;stroke-dasharray:none;stroke-opacity:1"
       transform="matrix(1.3333333,0,0,-1.3333333,83.648,782.20133)"
       clip-path="url(#clipPath85)" />
    <path
       id="path86"
       d="m 65.6493,26.2598 c 0,7.25142 -5.87826,13.1297 -13.12968,13.1297 -7.25142,0 -13.1297,-5.87828 -13.1297,-13.1297 0,-7.25142 5.87828,-13.12969 13.1297,-13.12969 7.25142,0 13.12968,5.87827 13.12968,13.12969 z"
       style="fill:#ffffff;fill-opacity:1;fill-rule:nonzero;stroke:#ffffff;stroke-width:0.3985;stroke-linecap:butt;stroke-linejoin:miter;stroke-miterlimit:10;stroke-dasharray:none;stroke-opacity:1"
       transform="matrix(1.3333333,0,0,-1.3333333,83.648,782.20133)"
       clip-path="url(#clipPath87)" />
    <path
       id="path88"
       d="m 64.50049,26.2598 c 0,6.61692 -5.36395,11.98086 -11.98087,11.98086 -6.61692,0 -11.98086,-5.36394 -11.98086,-11.98086 0,-6.61692 5.36394,-11.98087 11.98086,-11.98087 6.61692,0 11.98087,5.36395 11.98087,11.98087 z"
       style="fill:#ffffff;fill-opacity:1;fill-rule:nonzero;stroke:#000000;stroke-width:1.1998;stroke-linecap:butt;stroke-linejoin:miter;stroke-miterlimit:10;stroke-dasharray:none;stroke-opacity:1"
       transform="matrix(1.3333333,0,0,-1.3333333,83.648,782.20133)"
       clip-path="url(#clipPath89)" />
    <path
       id="path90"
       d="m 144.42874,52.51962 c 0,7.25142 -5.87826,13.12968 -13.12968,13.12968 -7.25142,0 -13.1297,-5.87826 -13.1297,-13.12968 0,-7.25142 5.87828,-13.1297 13.1297,-13.1297 7.25142,0 13.12968,5.87828 13.12968,13.1297 z"
       style="fill:#ffffff;fill-opacity:1;fill-rule:nonzero;stroke:#ffffff;stroke-width:0.3985;stroke-linecap:butt;stroke-linejoin:miter;stroke-miterlimit:10;stroke-dasharray:none;stroke-opacity:1"
       transform="matrix(1.3333333,0,0,-1.3333333,83.648,782.20133)"
       clip-path="url(#clipPath91)" />
    <path
       id="path92"
       d="m 143.27992,52.51962 c 0,6.61692 -5.36395,11.98087 -11.98086,11.98087 -6.61693,0 -11.98087,-5.36395 -11.98087,-11.98087 0,-6.61692 5.36394,-11.98086 11.98087,-11.98086 6.61691,0 11.98086,5.36394 11.98086,11.98086 z"
       style="fill:#ffffff;fill-opacity:1;fill-rule:nonzero;stroke:#000000;stroke-width:1.1998;stroke-linecap:butt;stroke-linejoin:miter;stroke-miterlimit:10;stroke-dasharray:none;stroke-opacity:1"
       transform="matrix(1.3333333,0,0,-1.3333333,83.648,782.20133)"
       clip-path="url(#clipPath93)" />
    <path
       id="path94"
       d="m 196.94838,78.77942 c 0,7.25143 -5.87828,13.1297 -13.1297,13.1297 -7.25142,0 -13.12968,-5.87827 -13.12968,-13.1297 0,-7.25142 5.87826,-13.12969 13.12968,-13.12969 7.25142,0 13.1297,5.87827 13.1297,13.12969 z"
       style="fill:#ffffff;fill-opacity:1;fill-rule:nonzero;stroke:#ffffff;stroke-width:0.3985;stroke-linecap:butt;stroke-linejoin:miter;stroke-miterlimit:10;stroke-dasharray:none;stroke-opacity:1"
       transform="matrix(1.3333333,0,0,-1.3333333,83.648,782.20133)"
       clip-path="url(#clipPath95)" />
    <path
       id="path96"
       d="m 195.79955,78.77942 c 0,6.61693 -5.36394,11.98086 -11.98087,11.98086 -6.61691,0 -11.98087,-5.36393 -11.98087,-11.98086 0,-6.61692 5.36396,-11.98085 11.98087,-11.98085 6.61693,0 11.98087,5.36393 11.98087,11.98085 z"
       style="fill:#ffffff;fill-opacity:1;fill-rule:nonzero;stroke:#000000;stroke-width:1.1998;stroke-linecap:butt;stroke-linejoin:miter;stroke-miterlimit:10;stroke-dasharray:none;stroke-opacity:1"
       transform="matrix(1.3333333,0,0,-1.3333333,83.648,782.20133)"
       clip-path="url(#clipPath97)" />
    <path
       id="path98"
       d="m 223.20819,105.03925 c 0,7.25141 -5.87826,13.1297 -13.12969,13.1297 -7.25141,0 -13.1297,-5.87829 -13.1297,-13.1297 0,-7.25142 5.87829,-13.12969 13.1297,-13.12969 7.25143,0 13.12969,5.87827 13.12969,13.12969 z"
       style="fill:#ffffff;fill-opacity:1;fill-rule:nonzero;stroke:#ffffff;stroke-width:0.3985;stroke-linecap:butt;stroke-linejoin:miter;stroke-miterlimit:10;stroke-dasharray:none;stroke-opacity:1"
       transform="matrix(1.3333333,0,0,-1.3333333,83.648,782.20133)"
       clip-path="url(#clipPath99)" />
    <path
       id="path100"
       d="m 222.05937,105.03925 c 0,6.61692 -5.36395,11.98086 -11.98087,11.98086 -6.61692,0 -11.98086,-5.36394 -11.98086,-11.98086 0,-6.61692 5.36394,-11.98087 11.98086,-11.98087 6.61692,0 11.98087,5.36395 11.98087,11.98087 z"
       style="fill:#ffffff;fill-opacity:1;fill-rule:nonzero;stroke:#000000;stroke-width:1.1998;stroke-linecap:butt;stroke-linejoin:miter;stroke-miterlimit:10;stroke-dasharray:none;stroke-opacity:1"
       transform="matrix(1.3333333,0,0,-1.3333333,83.648,782.20133)"
       clip-path="url(#clipPath101)" />
    <path
       id="path102"
       d="m 433.2867,78.77942 c 0,7.25143 -5.87827,13.1297 -13.12969,13.1297 -7.25141,0 -13.12968,-5.87827 -13.12968,-13.1297 0,-7.25142 5.87827,-13.12969 13.12968,-13.12969 7.25142,0 13.12969,5.87827 13.12969,13.12969 z"
       style="fill:#ffffff;fill-opacity:1;fill-rule:nonzero;stroke:#ffffff;stroke-width:0.3985;stroke-linecap:butt;stroke-linejoin:miter;stroke-miterlimit:10;stroke-dasharray:none;stroke-opacity:1"
       transform="matrix(1.3333333,0,0,-1.3333333,83.648,782.20133)"
       clip-path="url(#clipPath103)" />
    <path
       id="path104"
       d="m 432.13788,78.77942 c 0,6.61693 -5.36394,11.98086 -11.98087,11.98086 -6.61691,0 -11.98086,-5.36393 -11.98086,-11.98086 0,-6.61692 5.36395,-11.98085 11.98086,-11.98085 6.61693,0 11.98087,5.36393 11.98087,11.98085 z"
       style="fill:#ffffff;fill-opacity:1;fill-rule:nonzero;stroke:#000000;stroke-width:1.1998;stroke-linecap:butt;stroke-linejoin:miter;stroke-miterlimit:10;stroke-dasharray:none;stroke-opacity:1"
       transform="matrix(1.3333333,0,0,-1.3333333,83.648,782.20133)"
       clip-path="url(#clipPath105)" />
    <path
       id="path106"
       d="m 380.76707,78.77942 c 0,7.25143 -5.87826,13.1297 -13.12968,13.1297 -7.25142,0 -13.1297,-5.87827 -13.1297,-13.1297 0,-7.25142 5.87828,-13.12969 13.1297,-13.12969 7.25142,0 13.12968,5.87827 13.12968,13.12969 z"
       style="fill:#ffffff;fill-opacity:1;fill-rule:nonzero;stroke:#ffffff;stroke-width:0.3985;stroke-linecap:butt;stroke-linejoin:miter;stroke-miterlimit:10;stroke-dasharray:none;stroke-opacity:1"
       transform="matrix(1.3333333,0,0,-1.3333333,83.648,782.20133)"
       clip-path="url(#clipPath107)" />
    <path
       id="path108"
       d="m 379.61824,78.77942 c 0,6.61693 -5.36394,11.98086 -11.98085,11.98086 -6.61693,0 -11.98087,-5.36393 -11.98087,-11.98086 0,-6.61692 5.36394,-11.98085 11.98087,-11.98085 6.61691,0 11.98085,5.36393 11.98085,11.98085 z"
       style="fill:#ffffff;fill-opacity:1;fill-rule:nonzero;stroke:#000000;stroke-width:1.1998;stroke-linecap:butt;stroke-linejoin:miter;stroke-miterlimit:10;stroke-dasharray:none;stroke-opacity:1"
       transform="matrix(1.3333333,0,0,-1.3333333,83.648,782.20133)"
       clip-path="url(#clipPath109)" />
    <path
       id="path110"
       d="m 380.76707,52.51962 c 0,7.25142 -5.87826,13.12968 -13.12968,13.12968 -7.25142,0 -13.1297,-5.87826 -13.1297,-13.12968 0,-7.25142 5.87828,-13.1297 13.1297,-13.1297 7.25142,0 13.12968,5.87828 13.12968,13.1297 z"
       style="fill:#ffffff;fill-opacity:1;fill-rule:nonzero;stroke:#ffffff;stroke-width:0.3985;stroke-linecap:butt;stroke-linejoin:miter;stroke-miterlimit:10;stroke-dasharray:none;stroke-opacity:1"
       transform="matrix(1.3333333,0,0,-1.3333333,83.648,782.20133)"
       clip-path="url(#clipPath111)" />
    <path
       id="path112"
       d="m 379.61824,52.51962 c 0,6.61692 -5.36394,11.98087 -11.98085,11.98087 -6.61693,0 -11.98087,-5.36395 -11.98087,-11.98087 0,-6.61692 5.36394,-11.98086 11.98087,-11.98086 6.61691,0 11.98085,5.36394 11.98085,11.98086 z"
       style="fill:#ffffff;fill-opacity:1;fill-rule:nonzero;stroke:#000000;stroke-width:1.1998;stroke-linecap:butt;stroke-linejoin:miter;stroke-miterlimit:10;stroke-dasharray:none;stroke-opacity:1"
       transform="matrix(1.3333333,0,0,-1.3333333,83.648,782.20133)"
       clip-path="url(#clipPath113)" />
    <path
       id="path114"
       d="m 407.02689,210.0785 c 0,7.25143 -5.87829,13.12969 -13.1297,13.12969 -7.25142,0 -13.12969,-5.87826 -13.12969,-13.12969 0,-7.25141 5.87827,-13.1297 13.12969,-13.1297 7.25141,0 13.1297,5.87829 13.1297,13.1297 z"
       style="fill:#ffffff;fill-opacity:1;fill-rule:nonzero;stroke:#ffffff;stroke-width:0.3985;stroke-linecap:butt;stroke-linejoin:miter;stroke-miterlimit:10;stroke-dasharray:none;stroke-opacity:1"
       transform="matrix(1.3333333,0,0,-1.3333333,83.648,782.20133)"
       clip-path="url(#clipPath115)" />
    <path
       id="path116"
       d="m 405.87805,210.0785 c 0,6.61692 -5.36394,11.98087 -11.98086,11.98087 -6.61692,0 -11.98085,-5.36395 -11.98085,-11.98087 0,-6.61692 5.36393,-11.98086 11.98085,-11.98086 6.61692,0 11.98086,5.36394 11.98086,11.98086 z"
       style="fill:#ffffff;fill-opacity:1;fill-rule:nonzero;stroke:#000000;stroke-width:1.1998;stroke-linecap:butt;stroke-linejoin:miter;stroke-miterlimit:10;stroke-dasharray:none;stroke-opacity:1"
       transform="matrix(1.3333333,0,0,-1.3333333,83.648,782.20133)"
       clip-path="url(#clipPath117)" />
    <path
       id="path118"
       d="m 433.2867,315.11775 c 0,7.25142 -5.87827,13.1297 -13.12969,13.1297 -7.25141,0 -13.12968,-5.87828 -13.12968,-13.1297 0,-7.25142 5.87827,-13.12968 13.12968,-13.12968 7.25142,0 13.12969,5.87826 13.12969,13.12968 z"
       style="fill:#ffffff;fill-opacity:1;fill-rule:nonzero;stroke:#ffffff;stroke-width:0.3985;stroke-linecap:butt;stroke-linejoin:miter;stroke-miterlimit:10;stroke-dasharray:none;stroke-opacity:1"
       transform="matrix(1.3333333,0,0,-1.3333333,83.648,782.20133)"
       clip-path="url(#clipPath119)" />
    <path
       id="path120"
       d="m 432.13788,315.11775 c 0,6.61693 -5.36394,11.98087 -11.98087,11.98087 -6.61691,0 -11.98086,-5.36394 -11.98086,-11.98087 0,-6.61691 5.36395,-11.98085 11.98086,-11.98085 6.61693,0 11.98087,5.36394 11.98087,11.98085 z"
       style="fill:#ffffff;fill-opacity:1;fill-rule:nonzero;stroke:#000000;stroke-width:1.1998;stroke-linecap:butt;stroke-linejoin:miter;stroke-miterlimit:10;stroke-dasharray:none;stroke-opacity:1"
       transform="matrix(1.3333333,0,0,-1.3333333,83.648,782.20133)"
       clip-path="url(#clipPath121)" />
    <path
       id="path122"
       d="m 191.54251,105.03925 c 0,4.21825 -3.41949,7.63777 -7.63776,7.63777 -4.21825,0 -7.63775,-3.41952 -7.63775,-7.63777 0,-4.21827 3.4195,-7.63776 7.63775,-7.63776 4.21827,0 7.63776,3.41949 7.63776,7.63776 z"
       style="fill:#000000;fill-opacity:1;fill-rule:nonzero;stroke:#000000;stroke-width:0.3985;stroke-linecap:butt;stroke-linejoin:miter;stroke-miterlimit:10;stroke-dasharray:none;stroke-opacity:1"
       transform="matrix(1.3333333,0,0,-1.3333333,83.648,782.20133)"
       clip-path="url(#clipPath123)" />
    <path
       id="path124"
       d="M 8.3916641,-3.9366016 H 7.5596328 c -0.058594,0.421875 -0.1875,1.3007813 -0.3984375,1.5820313 -0.082031,0.140625 -1.6054687,0.140625 -1.6054687,0.140625 H 3.4229141 c 0.4804687,-0.421875 1.6171875,-1.546875 2.0976562,-1.96875 0.3515625,-0.3398438 1.265625,-1.1132813 1.6289063,-1.453125 0.8671875,-0.890625 1.2421875,-1.7226563 1.2421875,-2.625 0,-1.9453127 -1.6054688,-3.3515627 -3.7617188,-3.3515627 -1.875,0 -3.3164062,1.207031 -3.3164062,2.6953127 0,1.0429687 0.8554687,1.3125 1.2773437,1.3125 0.5625,0 1.2773438,-0.3867188 1.2773438,-1.2773438 0,-0.7265625 -0.46875,-1.1718749 -1.078125,-1.2773439 0.46875,-0.527344 1.1484375,-0.621094 1.453125,-0.621094 1.5,0 1.6992187,1.7929692 1.6992187,2.5195317 0,0.9960937 -0.3398437,2.2148437 -1.6523437,3.84375 l -2.8007813,3.51562499 c -0.1757812,0.2109375 -0.1757812,0.24609375 -0.1757812,0.5859375 V 8.984375e-4 h 6.5273437 z m 0,0"
       style="fill:#f9f9f9;fill-opacity:1;fill-rule:nonzero;stroke:none"
       aria-label="2"
       transform="matrix(1.3333333,0,0,1.3333333,322.38533,649.89333)"
       clip-path="url(#clipPath125)" />
    <path
       id="path126"
       d="m 217.80234,105.03925 c 0,4.21825 -3.4195,7.63777 -7.63776,7.63777 -4.21826,0 -7.63777,-3.41952 -7.63777,-7.63777 0,-4.21827 3.41951,-7.63776 7.63777,-7.63776 4.21826,0 7.63776,3.41949 7.63776,7.63776 z"
       style="fill:#ffffff;fill-opacity:1;fill-rule:nonzero;stroke:#ffffff;stroke-width:0.3985;stroke-linecap:butt;stroke-linejoin:miter;stroke-miterlimit:10;stroke-dasharray:none;stroke-opacity:1"
       transform="matrix(1.3333333,0,0,-1.3333333,83.648,782.20133)"
       clip-path="url(#clipPath127)" />
    <path
       id="path128"
       d="M 7.0556797,8.984375e-4 V -0.83113281 H 5.0048984 V -11.049883 c 0,-0.5625 -0.09375,-0.5625 -0.6914062,-0.5625 -1.171875,1.136719 -3.0351563,1.136719 -3.65625001,1.136719 v 0.8320312 c 0.45703121,0 1.28906251,0 2.23828121,-0.3046875 v 9.11718749 H 0.90333594 V 8.984375e-4 C 1.5830234,-0.05769531 3.1884922,-0.05769531 3.9502109,-0.05769531 c 0.7617188,0 2.4375,0 3.1054688,0.0585937475 z m 0,0"
       style="fill:#000000;fill-opacity:1;fill-rule:nonzero;stroke:none"
       aria-label="1"
       transform="matrix(1.3333333,0,0,1.3333333,358.72133,649.89333)"
       clip-path="url(#clipPath129)" />
  </g>
</svg>
