<?xml version="1.0" encoding="UTF-8" standalone="no"?>
<!-- Created with Inkscape (http://www.inkscape.org/) -->

<svg
   version="1.1"
   id="svg1"
   width="632.32294"
   height="632.32294"
   viewBox="0 0 632.32293 632.32293"
   sodipodi:docname="neofanaro.io.pdf"
   xmlns:inkscape="http://www.inkscape.org/namespaces/inkscape"
   xmlns:sodipodi="http://sodipodi.sourceforge.net/DTD/sodipodi-0.dtd"
   xmlns="http://www.w3.org/2000/svg"
   xmlns:svg="http://www.w3.org/2000/svg">
  <defs
     id="defs1">
    <clipPath
       clipPathUnits="userSpaceOnUse"
       id="clipPath3">
      <path
         d="M -13.12968,-13.12968 V 498.93645 H 498.93645 V -13.12968 Z"
         id="path3" />
    </clipPath>
    <clipPath
       clipPathUnits="userSpaceOnUse"
       id="clipPath5">
      <path
         d="M -13.12968,-13.12968 V 498.93645 H 498.93645 V -13.12968 Z"
         id="path5" />
    </clipPath>
    <clipPath
       clipPathUnits="userSpaceOnUse"
       id="clipPath7">
      <path
         d="M -13.12968,-13.12968 V 498.93645 H 498.93645 V -13.12968 Z"
         id="path7" />
    </clipPath>
    <clipPath
       clipPathUnits="userSpaceOnUse"
       id="clipPath9">
      <path
         d="M -13.12968,-13.12968 V 498.93645 H 498.93645 V -13.12968 Z"
         id="path9" />
    </clipPath>
    <clipPath
       clipPathUnits="userSpaceOnUse"
       id="clipPath11">
      <path
         d="M -13.12968,-13.12968 V 498.93645 H 498.93645 V -13.12968 Z"
         id="path11" />
    </clipPath>
    <clipPath
       clipPathUnits="userSpaceOnUse"
       id="clipPath13">
      <path
         d="M -13.12968,-13.12968 V 498.93645 H 498.93645 V -13.12968 Z"
         id="path13" />
    </clipPath>
    <clipPath
       clipPathUnits="userSpaceOnUse"
       id="clipPath15">
      <path
         d="M -13.12968,-13.12968 V 498.93645 H 498.93645 V -13.12968 Z"
         id="path15" />
    </clipPath>
    <clipPath
       clipPathUnits="userSpaceOnUse"
       id="clipPath17">
      <path
         d="M -13.12968,-13.12968 V 498.93645 H 498.93645 V -13.12968 Z"
         id="path17" />
    </clipPath>
    <clipPath
       clipPathUnits="userSpaceOnUse"
       id="clipPath19">
      <path
         d="M -13.12968,-13.12968 V 498.93645 H 498.93645 V -13.12968 Z"
         id="path19" />
    </clipPath>
    <clipPath
       clipPathUnits="userSpaceOnUse"
       id="clipPath21">
      <path
         d="M -13.12968,-13.12968 V 498.93645 H 498.93645 V -13.12968 Z"
         id="path21" />
    </clipPath>
    <clipPath
       clipPathUnits="userSpaceOnUse"
       id="clipPath23">
      <path
         d="M -13.12968,-13.12968 V 498.93645 H 498.93645 V -13.12968 Z"
         id="path23" />
    </clipPath>
    <clipPath
       clipPathUnits="userSpaceOnUse"
       id="clipPath25">
      <path
         d="M -13.12968,-13.12968 V 498.93645 H 498.93645 V -13.12968 Z"
         id="path25" />
    </clipPath>
    <clipPath
       clipPathUnits="userSpaceOnUse"
       id="clipPath27">
      <path
         d="M -13.12968,-13.12968 V 498.93645 H 498.93645 V -13.12968 Z"
         id="path27" />
    </clipPath>
    <clipPath
       clipPathUnits="userSpaceOnUse"
       id="clipPath29">
      <path
         d="M -13.12968,-13.12968 V 498.93645 H 498.93645 V -13.12968 Z"
         id="path29" />
    </clipPath>
    <clipPath
       clipPathUnits="userSpaceOnUse"
       id="clipPath31">
      <path
         d="M -13.12968,-13.12968 V 498.93645 H 498.93645 V -13.12968 Z"
         id="path31" />
    </clipPath>
    <clipPath
       clipPathUnits="userSpaceOnUse"
       id="clipPath33">
      <path
         d="M -13.12968,-13.12968 V 498.93645 H 498.93645 V -13.12968 Z"
         id="path33" />
    </clipPath>
    <clipPath
       clipPathUnits="userSpaceOnUse"
       id="clipPath35">
      <path
         d="M -13.12968,-13.12968 V 498.93645 H 498.93645 V -13.12968 Z"
         id="path35" />
    </clipPath>
    <clipPath
       clipPathUnits="userSpaceOnUse"
       id="clipPath37">
      <path
         d="M -13.12968,-13.12968 V 498.93645 H 498.93645 V -13.12968 Z"
         id="path37" />
    </clipPath>
    <clipPath
       clipPathUnits="userSpaceOnUse"
       id="clipPath39">
      <path
         d="M -13.12968,-13.12968 V 498.93645 H 498.93645 V -13.12968 Z"
         id="path39" />
    </clipPath>
    <clipPath
       clipPathUnits="userSpaceOnUse"
       id="clipPath41">
      <path
         d="M -13.12968,-13.12968 V 498.93645 H 498.93645 V -13.12968 Z"
         id="path41" />
    </clipPath>
    <clipPath
       clipPathUnits="userSpaceOnUse"
       id="clipPath43">
      <path
         d="M -13.12968,-13.12968 V 498.93645 H 498.93645 V -13.12968 Z"
         id="path43" />
    </clipPath>
    <clipPath
       clipPathUnits="userSpaceOnUse"
       id="clipPath45">
      <path
         d="M -13.12968,-13.12968 V 498.93645 H 498.93645 V -13.12968 Z"
         id="path45" />
    </clipPath>
    <clipPath
       clipPathUnits="userSpaceOnUse"
       id="clipPath47">
      <path
         d="M -13.12968,-13.12968 V 498.93645 H 498.93645 V -13.12968 Z"
         id="path47" />
    </clipPath>
    <clipPath
       clipPathUnits="userSpaceOnUse"
       id="clipPath49">
      <path
         d="M -13.12968,-13.12968 V 498.93645 H 498.93645 V -13.12968 Z"
         id="path49" />
    </clipPath>
    <clipPath
       clipPathUnits="userSpaceOnUse"
       id="clipPath51">
      <path
         d="M -13.12968,-13.12968 V 498.93645 H 498.93645 V -13.12968 Z"
         id="path51" />
    </clipPath>
    <clipPath
       clipPathUnits="userSpaceOnUse"
       id="clipPath53">
      <path
         d="M -13.12968,-13.12968 V 498.93645 H 498.93645 V -13.12968 Z"
         id="path53" />
    </clipPath>
    <clipPath
       clipPathUnits="userSpaceOnUse"
       id="clipPath55">
      <path
         d="M -13.12968,-13.12968 V 498.93645 H 498.93645 V -13.12968 Z"
         id="path55" />
    </clipPath>
    <clipPath
       clipPathUnits="userSpaceOnUse"
       id="clipPath57">
      <path
         d="M -13.12968,-13.12968 V 498.93645 H 498.93645 V -13.12968 Z"
         id="path57" />
    </clipPath>
    <clipPath
       clipPathUnits="userSpaceOnUse"
       id="clipPath59">
      <path
         d="M -13.12968,-13.12968 V 498.93645 H 498.93645 V -13.12968 Z"
         id="path59" />
    </clipPath>
    <clipPath
       clipPathUnits="userSpaceOnUse"
       id="clipPath61">
      <path
         d="M -13.12968,-13.12968 V 498.93645 H 498.93645 V -13.12968 Z"
         id="path61" />
    </clipPath>
    <clipPath
       clipPathUnits="userSpaceOnUse"
       id="clipPath63">
      <path
         d="M -13.12968,-13.12968 V 498.93645 H 498.93645 V -13.12968 Z"
         id="path63" />
    </clipPath>
    <clipPath
       clipPathUnits="userSpaceOnUse"
       id="clipPath65">
      <path
         d="M -13.12968,-13.12968 V 498.93645 H 498.93645 V -13.12968 Z"
         id="path65" />
    </clipPath>
    <clipPath
       clipPathUnits="userSpaceOnUse"
       id="clipPath67">
      <path
         d="M -13.12968,-13.12968 V 498.93645 H 498.93645 V -13.12968 Z"
         id="path67" />
    </clipPath>
    <clipPath
       clipPathUnits="userSpaceOnUse"
       id="clipPath69">
      <path
         d="M -13.12968,-13.12968 V 498.93645 H 498.93645 V -13.12968 Z"
         id="path69" />
    </clipPath>
    <clipPath
       clipPathUnits="userSpaceOnUse"
       id="clipPath71">
      <path
         d="M -13.12968,-13.12968 V 498.93645 H 498.93645 V -13.12968 Z"
         id="path71" />
    </clipPath>
    <clipPath
       clipPathUnits="userSpaceOnUse"
       id="clipPath73">
      <path
         d="M -13.12968,-13.12968 V 498.93645 H 498.93645 V -13.12968 Z"
         id="path73" />
    </clipPath>
    <clipPath
       clipPathUnits="userSpaceOnUse"
       id="clipPath75">
      <path
         d="M -13.12968,-13.12968 V 498.93645 H 498.93645 V -13.12968 Z"
         id="path75" />
    </clipPath>
    <clipPath
       clipPathUnits="userSpaceOnUse"
       id="clipPath77">
      <path
         d="M -13.12968,-13.12968 V 498.93645 H 498.93645 V -13.12968 Z"
         id="path77" />
    </clipPath>
    <clipPath
       clipPathUnits="userSpaceOnUse"
       id="clipPath79">
      <path
         d="M -13.12968,-13.12968 V 498.93645 H 498.93645 V -13.12968 Z"
         id="path79" />
    </clipPath>
    <clipPath
       clipPathUnits="userSpaceOnUse"
       id="clipPath81">
      <path
         d="M -13.12968,-13.12968 V 498.93645 H 498.93645 V -13.12968 Z"
         id="path81" />
    </clipPath>
    <clipPath
       clipPathUnits="userSpaceOnUse"
       id="clipPath83">
      <path
         d="M -13.12968,-13.12968 V 498.93645 H 498.93645 V -13.12968 Z"
         id="path83" />
    </clipPath>
    <clipPath
       clipPathUnits="userSpaceOnUse"
       id="clipPath85">
      <path
         d="M -13.12968,-13.12968 V 498.93645 H 498.93645 V -13.12968 Z"
         id="path85" />
    </clipPath>
    <clipPath
       clipPathUnits="userSpaceOnUse"
       id="clipPath87">
      <path
         d="M -13.12968,-13.12968 V 498.93645 H 498.93645 V -13.12968 Z"
         id="path87" />
    </clipPath>
    <clipPath
       clipPathUnits="userSpaceOnUse"
       id="clipPath89">
      <path
         d="M -13.12968,-13.12968 V 498.93645 H 498.93645 V -13.12968 Z"
         id="path89" />
    </clipPath>
    <clipPath
       clipPathUnits="userSpaceOnUse"
       id="clipPath91">
      <path
         d="M -13.12968,-13.12968 V 498.93645 H 498.93645 V -13.12968 Z"
         id="path91" />
    </clipPath>
    <clipPath
       clipPathUnits="userSpaceOnUse"
       id="clipPath93">
      <path
         d="M -13.12968,-13.12968 V 498.93645 H 498.93645 V -13.12968 Z"
         id="path93" />
    </clipPath>
    <clipPath
       clipPathUnits="userSpaceOnUse"
       id="clipPath95">
      <path
         d="M -13.12968,-13.12968 V 498.93645 H 498.93645 V -13.12968 Z"
         id="path95" />
    </clipPath>
    <clipPath
       clipPathUnits="userSpaceOnUse"
       id="clipPath97">
      <path
         d="M -13.12968,-13.12968 V 498.93645 H 498.93645 V -13.12968 Z"
         id="path97" />
    </clipPath>
    <clipPath
       clipPathUnits="userSpaceOnUse"
       id="clipPath99">
      <path
         d="M -13.12968,-13.12968 V 498.93645 H 498.93645 V -13.12968 Z"
         id="path99" />
    </clipPath>
    <clipPath
       clipPathUnits="userSpaceOnUse"
       id="clipPath101">
      <path
         d="M -13.12968,-13.12968 V 498.93645 H 498.93645 V -13.12968 Z"
         id="path101" />
    </clipPath>
    <clipPath
       clipPathUnits="userSpaceOnUse"
       id="clipPath103">
      <path
         d="M -13.12968,-13.12968 V 498.93645 H 498.93645 V -13.12968 Z"
         id="path103" />
    </clipPath>
    <clipPath
       clipPathUnits="userSpaceOnUse"
       id="clipPath105">
      <path
         d="M -13.12968,-13.12968 V 498.93645 H 498.93645 V -13.12968 Z"
         id="path105" />
    </clipPath>
    <clipPath
       clipPathUnits="userSpaceOnUse"
       id="clipPath107">
      <path
         d="M -13.12968,-13.12968 V 498.93645 H 498.93645 V -13.12968 Z"
         id="path107" />
    </clipPath>
    <clipPath
       clipPathUnits="userSpaceOnUse"
       id="clipPath109">
      <path
         d="M -13.12968,-13.12968 V 498.93645 H 498.93645 V -13.12968 Z"
         id="path109" />
    </clipPath>
    <clipPath
       clipPathUnits="userSpaceOnUse"
       id="clipPath111">
      <path
         d="M -13.12968,-13.12968 V 498.93645 H 498.93645 V -13.12968 Z"
         id="path111" />
    </clipPath>
    <clipPath
       clipPathUnits="userSpaceOnUse"
       id="clipPath113">
      <path
         d="M -13.12968,-13.12968 V 498.93645 H 498.93645 V -13.12968 Z"
         id="path113" />
    </clipPath>
    <clipPath
       clipPathUnits="userSpaceOnUse"
       id="clipPath115">
      <path
         d="M -13.12968,-13.12968 V 498.93645 H 498.93645 V -13.12968 Z"
         id="path115" />
    </clipPath>
    <clipPath
       clipPathUnits="userSpaceOnUse"
       id="clipPath117">
      <path
         d="M -13.12968,-13.12968 V 498.93645 H 498.93645 V -13.12968 Z"
         id="path117" />
    </clipPath>
    <clipPath
       clipPathUnits="userSpaceOnUse"
       id="clipPath119">
      <path
         d="M -13.12968,-13.12968 V 498.93645 H 498.93645 V -13.12968 Z"
         id="path119" />
    </clipPath>
    <clipPath
       clipPathUnits="userSpaceOnUse"
       id="clipPath121">
      <path
         d="M -13.12968,-13.12968 V 498.93645 H 498.93645 V -13.12968 Z"
         id="path121" />
    </clipPath>
    <clipPath
       clipPathUnits="userSpaceOnUse"
       id="clipPath123">
      <path
         d="M -13.12968,-13.12968 V 498.93645 H 498.93645 V -13.12968 Z"
         id="path123" />
    </clipPath>
    <clipPath
       clipPathUnits="userSpaceOnUse"
       id="clipPath125">
      <path
         d="M -13.12968,-13.12968 V 498.93645 H 498.93645 V -13.12968 Z"
         id="path125" />
    </clipPath>
    <clipPath
       clipPathUnits="userSpaceOnUse"
       id="clipPath127">
      <path
         d="M -13.12968,-13.12968 V 498.93645 H 498.93645 V -13.12968 Z"
         id="path127" />
    </clipPath>
    <clipPath
       clipPathUnits="userSpaceOnUse"
       id="clipPath129">
      <path
         d="M -13.12968,-13.12968 V 498.93645 H 498.93645 V -13.12968 Z"
         id="path129" />
    </clipPath>
    <clipPath
       clipPathUnits="userSpaceOnUse"
       id="clipPath131">
      <path
         d="M -13.12968,-13.12968 V 498.93645 H 498.93645 V -13.12968 Z"
         id="path131" />
    </clipPath>
    <clipPath
       clipPathUnits="userSpaceOnUse"
       id="clipPath133">
      <path
         d="M -13.12968,-13.12968 V 498.93645 H 498.93645 V -13.12968 Z"
         id="path133" />
    </clipPath>
    <clipPath
       clipPathUnits="userSpaceOnUse"
       id="clipPath135">
      <path
         d="M -13.12968,-13.12968 V 498.93645 H 498.93645 V -13.12968 Z"
         id="path135" />
    </clipPath>
    <clipPath
       clipPathUnits="userSpaceOnUse"
       id="clipPath137">
      <path
         d="M -13.12968,-13.12968 V 498.93645 H 498.93645 V -13.12968 Z"
         id="path137" />
    </clipPath>
    <clipPath
       clipPathUnits="userSpaceOnUse"
       id="clipPath139">
      <path
         d="M -13.12968,-13.12968 V 498.93645 H 498.93645 V -13.12968 Z"
         id="path139" />
    </clipPath>
    <clipPath
       clipPathUnits="userSpaceOnUse"
       id="clipPath141">
      <path
         d="M -13.12968,-13.12968 V 498.93645 H 498.93645 V -13.12968 Z"
         id="path141" />
    </clipPath>
    <clipPath
       clipPathUnits="userSpaceOnUse"
       id="clipPath143">
      <path
         d="M -13.12968,-13.12968 V 498.93645 H 498.93645 V -13.12968 Z"
         id="path143" />
    </clipPath>
    <clipPath
       clipPathUnits="userSpaceOnUse"
       id="clipPath145">
      <path
         d="M -13.12968,-13.12968 V 498.93645 H 498.93645 V -13.12968 Z"
         id="path145" />
    </clipPath>
    <clipPath
       clipPathUnits="userSpaceOnUse"
       id="clipPath147">
      <path
         d="M -13.12968,-13.12968 V 498.93645 H 498.93645 V -13.12968 Z"
         id="path147" />
    </clipPath>
    <clipPath
       clipPathUnits="userSpaceOnUse"
       id="clipPath149">
      <path
         d="M -13.12968,-13.12968 V 498.93645 H 498.93645 V -13.12968 Z"
         id="path149" />
    </clipPath>
    <clipPath
       clipPathUnits="userSpaceOnUse"
       id="clipPath151">
      <path
         d="M -13.12968,-13.12968 V 498.93645 H 498.93645 V -13.12968 Z"
         id="path151" />
    </clipPath>
    <clipPath
       clipPathUnits="userSpaceOnUse"
       id="clipPath153">
      <path
         d="M -13.12968,-13.12968 V 498.93645 H 498.93645 V -13.12968 Z"
         id="path153" />
    </clipPath>
    <clipPath
       clipPathUnits="userSpaceOnUse"
       id="clipPath155">
      <path
         d="M -13.12968,-13.12968 V 498.93645 H 498.93645 V -13.12968 Z"
         id="path155" />
    </clipPath>
    <clipPath
       clipPathUnits="userSpaceOnUse"
       id="clipPath157">
      <path
         d="M -13.12968,-13.12968 V 498.93645 H 498.93645 V -13.12968 Z"
         id="path157" />
    </clipPath>
    <clipPath
       clipPathUnits="userSpaceOnUse"
       id="clipPath159">
      <path
         d="M -13.12968,-13.12968 V 498.93645 H 498.93645 V -13.12968 Z"
         id="path159" />
    </clipPath>
    <clipPath
       clipPathUnits="userSpaceOnUse"
       id="clipPath161">
      <path
         d="M -13.12968,-13.12968 V 498.93645 H 498.93645 V -13.12968 Z"
         id="path161" />
    </clipPath>
    <clipPath
       clipPathUnits="userSpaceOnUse"
       id="clipPath163">
      <path
         d="M -13.12968,-13.12968 V 498.93645 H 498.93645 V -13.12968 Z"
         id="path163" />
    </clipPath>
    <clipPath
       clipPathUnits="userSpaceOnUse"
       id="clipPath165">
      <path
         d="M -13.12968,-13.12968 V 498.93645 H 498.93645 V -13.12968 Z"
         id="path165" />
    </clipPath>
    <clipPath
       clipPathUnits="userSpaceOnUse"
       id="clipPath167">
      <path
         d="M -13.12968,-13.12968 V 498.93645 H 498.93645 V -13.12968 Z"
         id="path167" />
    </clipPath>
    <clipPath
       clipPathUnits="userSpaceOnUse"
       id="clipPath169">
      <path
         d="M -13.12968,-13.12968 V 498.93645 H 498.93645 V -13.12968 Z"
         id="path169" />
    </clipPath>
    <clipPath
       clipPathUnits="userSpaceOnUse"
       id="clipPath171">
      <path
         d="M -13.12968,-13.12968 V 498.93645 H 498.93645 V -13.12968 Z"
         id="path171" />
    </clipPath>
    <clipPath
       clipPathUnits="userSpaceOnUse"
       id="clipPath173">
      <path
         d="M -13.12968,-13.12968 V 498.93645 H 498.93645 V -13.12968 Z"
         id="path173" />
    </clipPath>
    <clipPath
       clipPathUnits="userSpaceOnUse"
       id="clipPath175">
      <path
         d="M -13.12968,-13.12968 V 498.93645 H 498.93645 V -13.12968 Z"
         id="path175" />
    </clipPath>
    <clipPath
       clipPathUnits="userSpaceOnUse"
       id="clipPath177">
      <path
         d="M -13.12968,-13.12968 V 498.93645 H 498.93645 V -13.12968 Z"
         id="path177" />
    </clipPath>
    <clipPath
       clipPathUnits="userSpaceOnUse"
       id="clipPath179">
      <path
         d="M -13.12968,-13.12968 V 498.93645 H 498.93645 V -13.12968 Z"
         id="path179" />
    </clipPath>
    <clipPath
       clipPathUnits="userSpaceOnUse"
       id="clipPath181">
      <path
         d="M -13.12968,-13.12968 V 498.93645 H 498.93645 V -13.12968 Z"
         transform="matrix(1,0,0,-1,-71.352002,47.508004)"
         id="path181" />
    </clipPath>
    <clipPath
       clipPathUnits="userSpaceOnUse"
       id="clipPath183">
      <path
         d="M -13.12968,-13.12968 V 498.93645 H 498.93645 V -13.12968 Z"
         id="path183" />
    </clipPath>
    <clipPath
       clipPathUnits="userSpaceOnUse"
       id="clipPath185">
      <path
         d="M -13.12968,-13.12968 V 498.93645 H 498.93645 V -13.12968 Z"
         transform="matrix(1,0,0,-1,-71.184002,21.333003)"
         id="path185" />
    </clipPath>
    <clipPath
       clipPathUnits="userSpaceOnUse"
       id="clipPath187">
      <path
         d="M -13.12968,-13.12968 V 498.93645 H 498.93645 V -13.12968 Z"
         id="path187" />
    </clipPath>
    <clipPath
       clipPathUnits="userSpaceOnUse"
       id="clipPath189">
      <path
         d="M -13.12968,-13.12968 V 498.93645 H 498.93645 V -13.12968 Z"
         transform="matrix(1,0,0,-1,-100.132,46.809004)"
         id="path189" />
    </clipPath>
    <clipPath
       clipPathUnits="userSpaceOnUse"
       id="clipPath191">
      <path
         d="M -13.12968,-13.12968 V 498.93645 H 498.93645 V -13.12968 Z"
         id="path191" />
    </clipPath>
    <clipPath
       clipPathUnits="userSpaceOnUse"
       id="clipPath193">
      <path
         d="M -13.12968,-13.12968 V 498.93645 H 498.93645 V -13.12968 Z"
         transform="matrix(1,0,0,-1,-100.132,20.550003)"
         id="path193" />
    </clipPath>
    <clipPath
       clipPathUnits="userSpaceOnUse"
       id="clipPath195">
      <path
         d="M -13.12968,-13.12968 V 498.93645 H 498.93645 V -13.12968 Z"
         id="path195" />
    </clipPath>
    <clipPath
       clipPathUnits="userSpaceOnUse"
       id="clipPath197">
      <path
         d="M -13.12968,-13.12968 V 498.93645 H 498.93645 V -13.12968 Z"
         transform="matrix(1,0,0,-1,-124.728,100.027)"
         id="path197" />
    </clipPath>
    <clipPath
       clipPathUnits="userSpaceOnUse"
       id="clipPath199">
      <path
         d="M -13.12968,-13.12968 V 498.93645 H 498.93645 V -13.12968 Z"
         id="path199" />
    </clipPath>
    <clipPath
       clipPathUnits="userSpaceOnUse"
       id="clipPath201">
      <path
         d="M -13.12968,-13.12968 V 498.93645 H 498.93645 V -13.12968 Z"
         transform="matrix(1,0,0,-1,-176.39001,126.371)"
         id="path201" />
    </clipPath>
    <clipPath
       clipPathUnits="userSpaceOnUse"
       id="clipPath203">
      <path
         d="M -13.12968,-13.12968 V 498.93645 H 498.93645 V -13.12968 Z"
         id="path203" />
    </clipPath>
    <clipPath
       clipPathUnits="userSpaceOnUse"
       id="clipPath205">
      <path
         d="M -13.12968,-13.12968 V 498.93645 H 498.93645 V -13.12968 Z"
         transform="matrix(1,0,0,-1,-177.382,99.454002)"
         id="path205" />
    </clipPath>
    <clipPath
       clipPathUnits="userSpaceOnUse"
       id="clipPath207">
      <path
         d="M -13.12968,-13.12968 V 498.93645 H 498.93645 V -13.12968 Z"
         id="path207" />
    </clipPath>
    <clipPath
       clipPathUnits="userSpaceOnUse"
       id="clipPath209">
      <path
         d="M -13.12968,-13.12968 V 498.93645 H 498.93645 V -13.12968 Z"
         transform="matrix(1,0,0,-1,-228.787,100.111)"
         id="path209" />
    </clipPath>
    <clipPath
       clipPathUnits="userSpaceOnUse"
       id="clipPath211">
      <path
         d="M -13.12968,-13.12968 V 498.93645 H 498.93645 V -13.12968 Z"
         id="path211" />
    </clipPath>
    <clipPath
       clipPathUnits="userSpaceOnUse"
       id="clipPath213">
      <path
         d="M -13.12968,-13.12968 V 498.93645 H 498.93645 V -13.12968 Z"
         transform="matrix(1,0,0,-1,-255.39801,73.759999)"
         id="path213" />
    </clipPath>
  </defs>
  <sodipodi:namedview
     id="namedview1"
     pagecolor="#ffffff"
     bordercolor="#000000"
     borderopacity="0.25"
     inkscape:showpageshadow="2"
     inkscape:pageopacity="0.0"
     inkscape:pagecheckerboard="0"
     inkscape:deskcolor="#d1d1d1" />
  <g
     id="g1"
     inkscape:groupmode="layer"
     inkscape:label="1"
     transform="translate(-82.60862,-150.91779)">
    <path
       id="path2"
       d="M 0,0 472.68314,472.68314"
       style="fill:none;stroke:#000000;stroke-width:1;stroke-linecap:butt;stroke-linejoin:miter;stroke-miterlimit:10;stroke-dasharray:0, 1.99255;stroke-dashoffset:0;stroke-opacity:1"
       transform="matrix(1.3333333,0,0,-1.3333333,83.648,782.20133)"
       clip-path="url(#clipPath3)" />
    <path
       id="path4"
       d="M 0,0 H 472.68314 M 0,26.2598 H 472.68314 M 0,52.5196 H 472.68314 M 0,78.7794 H 472.68314 M 0,105.03922 H 472.68314 M 0,131.29903 H 472.68314 M 0,157.55882 H 472.68314 M 0,183.81863 H 472.68314 M 0,210.07845 H 472.68314 M 0,236.33824 H 472.68314 M 0,262.59805 H 472.68314 M 0,288.85786 H 472.68314 M 0,315.11766 H 472.68314 M 0,341.37747 H 472.68314 M 0,367.63728 H 472.68314 M 0,393.89708 H 472.68314 M 0,420.15689 H 472.68314 M 0,446.4167 H 472.68314 M 0,472.6765 H 472.68314 M 0,0 V 472.68314 M 26.2598,0 V 472.68314 M 52.5196,0 V 472.68314 M 78.7794,0 V 472.68314 M 105.03922,0 V 472.68314 M 131.29903,0 V 472.68314 M 157.55882,0 V 472.68314 M 183.81863,0 V 472.68314 M 210.07845,0 V 472.68314 M 236.33824,0 V 472.68314 M 262.59805,0 V 472.68314 M 288.85786,0 V 472.68314 M 315.11766,0 V 472.68314 M 341.37747,0 V 472.68314 M 367.63728,0 V 472.68314 M 393.89708,0 V 472.68314 M 420.15689,0 V 472.68314 M 446.4167,0 V 472.68314 M 472.6765,0 v 472.68314"
       style="fill:none;stroke:#000000;stroke-width:0.3985;stroke-linecap:butt;stroke-linejoin:miter;stroke-miterlimit:10;stroke-dasharray:none;stroke-opacity:1"
       transform="matrix(1.3333333,0,0,-1.3333333,83.648,782.20133)"
       clip-path="url(#clipPath5)" />
    <path
       id="path6"
       d="M 0,0 H 472.68314 M 0,472.67317 H 472.68314 M 0,0 V 472.68314 M 472.67317,0 v 472.68314"
       style="fill:none;stroke:#000000;stroke-width:1.55907;stroke-linecap:square;stroke-linejoin:miter;stroke-miterlimit:10;stroke-dasharray:none;stroke-opacity:1"
       transform="matrix(1.3333333,0,0,-1.3333333,83.648,782.20133)"
       clip-path="url(#clipPath7)" />
    <path
       id="path8"
       d="m 239.6204,236.3383 c 0,1.81269 -1.46941,3.2821 -3.2821,3.2821 -1.81267,0 -3.28209,-1.46941 -3.28209,-3.2821 0,-1.81267 1.46942,-3.28209 3.28209,-3.28209 1.81269,0 3.2821,1.46942 3.2821,3.28209 z"
       style="fill:#000000;fill-opacity:1;fill-rule:nonzero;stroke:#000000;stroke-width:0.3985;stroke-linecap:butt;stroke-linejoin:miter;stroke-miterlimit:10;stroke-dasharray:none;stroke-opacity:1"
       transform="matrix(1.3333333,0,0,-1.3333333,83.648,782.20133)"
       clip-path="url(#clipPath9)" />
    <path
       id="path10"
       d="m 82.06152,78.77942 c 0,1.81268 -1.46942,3.2821 -3.2821,3.2821 -1.81267,0 -3.28209,-1.46942 -3.28209,-3.2821 0,-1.81267 1.46942,-3.28209 3.28209,-3.28209 1.81268,0 3.2821,1.46942 3.2821,3.28209 z"
       style="fill:#000000;fill-opacity:1;fill-rule:nonzero;stroke:#000000;stroke-width:0.3985;stroke-linecap:butt;stroke-linejoin:miter;stroke-miterlimit:10;stroke-dasharray:none;stroke-opacity:1"
       transform="matrix(1.3333333,0,0,-1.3333333,83.648,782.20133)"
       clip-path="url(#clipPath11)" />
    <path
       id="path12"
       d="m 397.17929,78.77942 c 0,1.81268 -1.46944,3.2821 -3.2821,3.2821 -1.81267,0 -3.28209,-1.46942 -3.28209,-3.2821 0,-1.81267 1.46942,-3.28209 3.28209,-3.28209 1.81266,0 3.2821,1.46942 3.2821,3.28209 z"
       style="fill:#000000;fill-opacity:1;fill-rule:nonzero;stroke:#000000;stroke-width:0.3985;stroke-linecap:butt;stroke-linejoin:miter;stroke-miterlimit:10;stroke-dasharray:none;stroke-opacity:1"
       transform="matrix(1.3333333,0,0,-1.3333333,83.648,782.20133)"
       clip-path="url(#clipPath13)" />
    <path
       id="path14"
       d="m 82.06152,393.89719 c 0,1.81266 -1.46942,3.2821 -3.2821,3.2821 -1.81267,0 -3.28209,-1.46944 -3.28209,-3.2821 0,-1.81267 1.46942,-3.28209 3.28209,-3.28209 1.81268,0 3.2821,1.46942 3.2821,3.28209 z"
       style="fill:#000000;fill-opacity:1;fill-rule:nonzero;stroke:#000000;stroke-width:0.3985;stroke-linecap:butt;stroke-linejoin:miter;stroke-miterlimit:10;stroke-dasharray:none;stroke-opacity:1"
       transform="matrix(1.3333333,0,0,-1.3333333,83.648,782.20133)"
       clip-path="url(#clipPath15)" />
    <path
       id="path16"
       d="m 397.17929,393.89719 c 0,1.81266 -1.46944,3.2821 -3.2821,3.2821 -1.81267,0 -3.28209,-1.46944 -3.28209,-3.2821 0,-1.81267 1.46942,-3.28209 3.28209,-3.28209 1.81266,0 3.2821,1.46942 3.2821,3.28209 z"
       style="fill:#000000;fill-opacity:1;fill-rule:nonzero;stroke:#000000;stroke-width:0.3985;stroke-linecap:butt;stroke-linejoin:miter;stroke-miterlimit:10;stroke-dasharray:none;stroke-opacity:1"
       transform="matrix(1.3333333,0,0,-1.3333333,83.648,782.20133)"
       clip-path="url(#clipPath17)" />
    <path
       id="path18"
       d="m 82.06152,78.77942 c 0,1.81268 -1.46942,3.2821 -3.2821,3.2821 -1.81267,0 -3.28209,-1.46942 -3.28209,-3.2821 0,-1.81267 1.46942,-3.28209 3.28209,-3.28209 1.81268,0 3.2821,1.46942 3.2821,3.28209 z"
       style="fill:#000000;fill-opacity:1;fill-rule:nonzero;stroke:#000000;stroke-width:0.3985;stroke-linecap:butt;stroke-linejoin:miter;stroke-miterlimit:10;stroke-dasharray:none;stroke-opacity:1"
       transform="matrix(1.3333333,0,0,-1.3333333,83.648,782.20133)"
       clip-path="url(#clipPath19)" />
    <path
       id="path20"
       d="m 397.17929,78.77942 c 0,1.81268 -1.46944,3.2821 -3.2821,3.2821 -1.81267,0 -3.28209,-1.46942 -3.28209,-3.2821 0,-1.81267 1.46942,-3.28209 3.28209,-3.28209 1.81266,0 3.2821,1.46942 3.2821,3.28209 z"
       style="fill:#000000;fill-opacity:1;fill-rule:nonzero;stroke:#000000;stroke-width:0.3985;stroke-linecap:butt;stroke-linejoin:miter;stroke-miterlimit:10;stroke-dasharray:none;stroke-opacity:1"
       transform="matrix(1.3333333,0,0,-1.3333333,83.648,782.20133)"
       clip-path="url(#clipPath21)" />
    <path
       id="path22"
       d="m 82.06152,393.89719 c 0,1.81266 -1.46942,3.2821 -3.2821,3.2821 -1.81267,0 -3.28209,-1.46944 -3.28209,-3.2821 0,-1.81267 1.46942,-3.28209 3.28209,-3.28209 1.81268,0 3.2821,1.46942 3.2821,3.28209 z"
       style="fill:#000000;fill-opacity:1;fill-rule:nonzero;stroke:#000000;stroke-width:0.3985;stroke-linecap:butt;stroke-linejoin:miter;stroke-miterlimit:10;stroke-dasharray:none;stroke-opacity:1"
       transform="matrix(1.3333333,0,0,-1.3333333,83.648,782.20133)"
       clip-path="url(#clipPath23)" />
    <path
       id="path24"
       d="m 397.17929,393.89719 c 0,1.81266 -1.46944,3.2821 -3.2821,3.2821 -1.81267,0 -3.28209,-1.46944 -3.28209,-3.2821 0,-1.81267 1.46942,-3.28209 3.28209,-3.28209 1.81266,0 3.2821,1.46942 3.2821,3.28209 z"
       style="fill:#000000;fill-opacity:1;fill-rule:nonzero;stroke:#000000;stroke-width:0.3985;stroke-linecap:butt;stroke-linejoin:miter;stroke-miterlimit:10;stroke-dasharray:none;stroke-opacity:1"
       transform="matrix(1.3333333,0,0,-1.3333333,83.648,782.20133)"
       clip-path="url(#clipPath25)" />
    <path
       id="path26"
       d="m 82.06152,236.3383 c 0,1.81269 -1.46942,3.2821 -3.2821,3.2821 -1.81267,0 -3.28209,-1.46941 -3.28209,-3.2821 0,-1.81267 1.46942,-3.28209 3.28209,-3.28209 1.81268,0 3.2821,1.46942 3.2821,3.28209 z"
       style="fill:#000000;fill-opacity:1;fill-rule:nonzero;stroke:#000000;stroke-width:0.3985;stroke-linecap:butt;stroke-linejoin:miter;stroke-miterlimit:10;stroke-dasharray:none;stroke-opacity:1"
       transform="matrix(1.3333333,0,0,-1.3333333,83.648,782.20133)"
       clip-path="url(#clipPath27)" />
    <path
       id="path28"
       d="m 239.6204,393.89719 c 0,1.81266 -1.46941,3.2821 -3.2821,3.2821 -1.81267,0 -3.28209,-1.46944 -3.28209,-3.2821 0,-1.81267 1.46942,-3.28209 3.28209,-3.28209 1.81269,0 3.2821,1.46942 3.2821,3.28209 z"
       style="fill:#000000;fill-opacity:1;fill-rule:nonzero;stroke:#000000;stroke-width:0.3985;stroke-linecap:butt;stroke-linejoin:miter;stroke-miterlimit:10;stroke-dasharray:none;stroke-opacity:1"
       transform="matrix(1.3333333,0,0,-1.3333333,83.648,782.20133)"
       clip-path="url(#clipPath29)" />
    <path
       id="path30"
       d="m 239.6204,78.77942 c 0,1.81268 -1.46941,3.2821 -3.2821,3.2821 -1.81267,0 -3.28209,-1.46942 -3.28209,-3.2821 0,-1.81267 1.46942,-3.28209 3.28209,-3.28209 1.81269,0 3.2821,1.46942 3.2821,3.28209 z"
       style="fill:#000000;fill-opacity:1;fill-rule:nonzero;stroke:#000000;stroke-width:0.3985;stroke-linecap:butt;stroke-linejoin:miter;stroke-miterlimit:10;stroke-dasharray:none;stroke-opacity:1"
       transform="matrix(1.3333333,0,0,-1.3333333,83.648,782.20133)"
       clip-path="url(#clipPath31)" />
    <path
       id="path32"
       d="m 397.17929,236.3383 c 0,1.81269 -1.46944,3.2821 -3.2821,3.2821 -1.81267,0 -3.28209,-1.46941 -3.28209,-3.2821 0,-1.81267 1.46942,-3.28209 3.28209,-3.28209 1.81266,0 3.2821,1.46942 3.2821,3.28209 z"
       style="fill:#000000;fill-opacity:1;fill-rule:nonzero;stroke:#000000;stroke-width:0.3985;stroke-linecap:butt;stroke-linejoin:miter;stroke-miterlimit:10;stroke-dasharray:none;stroke-opacity:1"
       transform="matrix(1.3333333,0,0,-1.3333333,83.648,782.20133)"
       clip-path="url(#clipPath33)" />
    <path
       id="path34"
       d="m 407.02689,393.89719 c 0,7.25141 -5.87829,13.1297 -13.1297,13.1297 -7.25142,0 -13.12969,-5.87829 -13.12969,-13.1297 0,-7.25142 5.87827,-13.12969 13.12969,-13.12969 7.25141,0 13.1297,5.87827 13.1297,13.12969 z"
       style="fill:#ffffff;fill-opacity:1;fill-rule:nonzero;stroke:#ffffff;stroke-width:0.3985;stroke-linecap:butt;stroke-linejoin:miter;stroke-miterlimit:10;stroke-dasharray:none;stroke-opacity:1"
       transform="matrix(1.3333333,0,0,-1.3333333,83.648,782.20133)"
       clip-path="url(#clipPath35)" />
    <path
       id="path36"
       d="m 406.97455,393.89719 c 0,7.22251 -5.85485,13.07736 -13.07736,13.07736 -7.22251,0 -13.07735,-5.85485 -13.07735,-13.07736 0,-7.22251 5.85484,-13.07735 13.07735,-13.07735 7.22251,0 13.07736,5.85484 13.07736,13.07735 z"
       style="fill:#000000;fill-opacity:1;fill-rule:nonzero;stroke:#ffffff;stroke-width:1.1998;stroke-linecap:butt;stroke-linejoin:miter;stroke-miterlimit:10;stroke-dasharray:none;stroke-opacity:1"
       transform="matrix(1.3333333,0,0,-1.3333333,83.648,782.20133)"
       clip-path="url(#clipPath37)" />
    <path
       id="path38"
       d="m 328.24745,420.15701 c 0,7.25142 -5.87828,13.12969 -13.1297,13.12969 -7.25142,0 -13.12968,-5.87827 -13.12968,-13.12969 0,-7.25141 5.87826,-13.12968 13.12968,-13.12968 7.25142,0 13.1297,5.87827 13.1297,13.12968 z"
       style="fill:#ffffff;fill-opacity:1;fill-rule:nonzero;stroke:#ffffff;stroke-width:0.3985;stroke-linecap:butt;stroke-linejoin:miter;stroke-miterlimit:10;stroke-dasharray:none;stroke-opacity:1"
       transform="matrix(1.3333333,0,0,-1.3333333,83.648,782.20133)"
       clip-path="url(#clipPath39)" />
    <path
       id="path40"
       d="m 328.19511,420.15701 c 0,7.22251 -5.85484,13.07735 -13.07736,13.07735 -7.2225,0 -13.07735,-5.85484 -13.07735,-13.07735 0,-7.2225 5.85485,-13.07734 13.07735,-13.07734 7.22252,0 13.07736,5.85484 13.07736,13.07734 z"
       style="fill:#000000;fill-opacity:1;fill-rule:nonzero;stroke:#ffffff;stroke-width:1.1998;stroke-linecap:butt;stroke-linejoin:miter;stroke-miterlimit:10;stroke-dasharray:none;stroke-opacity:1"
       transform="matrix(1.3333333,0,0,-1.3333333,83.648,782.20133)"
       clip-path="url(#clipPath41)" />
    <path
       id="path42"
       d="m 91.90912,420.15701 c 0,7.25142 -5.87827,13.12969 -13.1297,13.12969 -7.25142,0 -13.12969,-5.87827 -13.12969,-13.12969 0,-7.25141 5.87827,-13.12968 13.12969,-13.12968 7.25143,0 13.1297,5.87827 13.1297,13.12968 z"
       style="fill:#ffffff;fill-opacity:1;fill-rule:nonzero;stroke:#ffffff;stroke-width:0.3985;stroke-linecap:butt;stroke-linejoin:miter;stroke-miterlimit:10;stroke-dasharray:none;stroke-opacity:1"
       transform="matrix(1.3333333,0,0,-1.3333333,83.648,782.20133)"
       clip-path="url(#clipPath43)" />
    <path
       id="path44"
       d="m 91.85678,420.15701 c 0,7.22251 -5.85484,13.07735 -13.07736,13.07735 -7.2225,0 -13.07735,-5.85484 -13.07735,-13.07735 0,-7.2225 5.85485,-13.07734 13.07735,-13.07734 7.22252,0 13.07736,5.85484 13.07736,13.07734 z"
       style="fill:#000000;fill-opacity:1;fill-rule:nonzero;stroke:#ffffff;stroke-width:1.1998;stroke-linecap:butt;stroke-linejoin:miter;stroke-miterlimit:10;stroke-dasharray:none;stroke-opacity:1"
       transform="matrix(1.3333333,0,0,-1.3333333,83.648,782.20133)"
       clip-path="url(#clipPath45)" />
    <path
       id="path46"
       d="m 91.90912,367.63739 c 0,7.25142 -5.87827,13.12968 -13.1297,13.12968 -7.25142,0 -13.12969,-5.87826 -13.12969,-13.12968 0,-7.25142 5.87827,-13.1297 13.12969,-13.1297 7.25143,0 13.1297,5.87828 13.1297,13.1297 z"
       style="fill:#ffffff;fill-opacity:1;fill-rule:nonzero;stroke:#ffffff;stroke-width:0.3985;stroke-linecap:butt;stroke-linejoin:miter;stroke-miterlimit:10;stroke-dasharray:none;stroke-opacity:1"
       transform="matrix(1.3333333,0,0,-1.3333333,83.648,782.20133)"
       clip-path="url(#clipPath47)" />
    <path
       id="path48"
       d="m 91.85678,367.63739 c 0,7.22251 -5.85484,13.07735 -13.07736,13.07735 -7.2225,0 -13.07735,-5.85484 -13.07735,-13.07735 0,-7.2225 5.85485,-13.07735 13.07735,-13.07735 7.22252,0 13.07736,5.85485 13.07736,13.07735 z"
       style="fill:#000000;fill-opacity:1;fill-rule:nonzero;stroke:#ffffff;stroke-width:1.1998;stroke-linecap:butt;stroke-linejoin:miter;stroke-miterlimit:10;stroke-dasharray:none;stroke-opacity:1"
       transform="matrix(1.3333333,0,0,-1.3333333,83.648,782.20133)"
       clip-path="url(#clipPath49)" />
    <path
       id="path50"
       d="m 91.90912,78.77942 c 0,7.25143 -5.87827,13.1297 -13.1297,13.1297 -7.25142,0 -13.12969,-5.87827 -13.12969,-13.1297 0,-7.25142 5.87827,-13.12969 13.12969,-13.12969 7.25143,0 13.1297,5.87827 13.1297,13.12969 z"
       style="fill:#ffffff;fill-opacity:1;fill-rule:nonzero;stroke:#ffffff;stroke-width:0.3985;stroke-linecap:butt;stroke-linejoin:miter;stroke-miterlimit:10;stroke-dasharray:none;stroke-opacity:1"
       transform="matrix(1.3333333,0,0,-1.3333333,83.648,782.20133)"
       clip-path="url(#clipPath51)" />
    <path
       id="path52"
       d="m 91.85678,78.77942 c 0,7.22252 -5.85484,13.07736 -13.07736,13.07736 -7.2225,0 -13.07735,-5.85484 -13.07735,-13.07736 0,-7.2225 5.85485,-13.07735 13.07735,-13.07735 7.22252,0 13.07736,5.85485 13.07736,13.07735 z"
       style="fill:#000000;fill-opacity:1;fill-rule:nonzero;stroke:#ffffff;stroke-width:1.1998;stroke-linecap:butt;stroke-linejoin:miter;stroke-miterlimit:10;stroke-dasharray:none;stroke-opacity:1"
       transform="matrix(1.3333333,0,0,-1.3333333,83.648,782.20133)"
       clip-path="url(#clipPath53)" />
    <path
       id="path54"
       d="m 65.6493,52.51962 c 0,7.25142 -5.87826,13.12968 -13.12968,13.12968 -7.25142,0 -13.1297,-5.87826 -13.1297,-13.12968 0,-7.25142 5.87828,-13.1297 13.1297,-13.1297 7.25142,0 13.12968,5.87828 13.12968,13.1297 z"
       style="fill:#ffffff;fill-opacity:1;fill-rule:nonzero;stroke:#ffffff;stroke-width:0.3985;stroke-linecap:butt;stroke-linejoin:miter;stroke-miterlimit:10;stroke-dasharray:none;stroke-opacity:1"
       transform="matrix(1.3333333,0,0,-1.3333333,83.648,782.20133)"
       clip-path="url(#clipPath55)" />
    <path
       id="path56"
       d="m 65.59697,52.51962 c 0,7.22251 -5.85484,13.07735 -13.07735,13.07735 -7.2225,0 -13.07734,-5.85484 -13.07734,-13.07735 0,-7.2225 5.85484,-13.07734 13.07734,-13.07734 7.22251,0 13.07735,5.85484 13.07735,13.07734 z"
       style="fill:#000000;fill-opacity:1;fill-rule:nonzero;stroke:#ffffff;stroke-width:1.1998;stroke-linecap:butt;stroke-linejoin:miter;stroke-miterlimit:10;stroke-dasharray:none;stroke-opacity:1"
       transform="matrix(1.3333333,0,0,-1.3333333,83.648,782.20133)"
       clip-path="url(#clipPath57)" />
    <path
       id="path58"
       d="m 39.3895,26.2598 c 0,7.25142 -5.87828,13.1297 -13.1297,13.1297 -7.25142,0 -13.12969,-5.87828 -13.12969,-13.1297 0,-7.25142 5.87827,-13.12969 13.12969,-13.12969 7.25142,0 13.1297,5.87827 13.1297,13.12969 z"
       style="fill:#ffffff;fill-opacity:1;fill-rule:nonzero;stroke:#ffffff;stroke-width:0.3985;stroke-linecap:butt;stroke-linejoin:miter;stroke-miterlimit:10;stroke-dasharray:none;stroke-opacity:1"
       transform="matrix(1.3333333,0,0,-1.3333333,83.648,782.20133)"
       clip-path="url(#clipPath59)" />
    <path
       id="path60"
       d="m 39.33714,26.2598 c 0,7.2225 -5.85484,13.07734 -13.07734,13.07734 -7.2225,0 -13.07735,-5.85484 -13.07735,-13.07734 0,-7.2225 5.85485,-13.07735 13.07735,-13.07735 7.2225,0 13.07734,5.85485 13.07734,13.07735 z"
       style="fill:#000000;fill-opacity:1;fill-rule:nonzero;stroke:#ffffff;stroke-width:1.1998;stroke-linecap:butt;stroke-linejoin:miter;stroke-miterlimit:10;stroke-dasharray:none;stroke-opacity:1"
       transform="matrix(1.3333333,0,0,-1.3333333,83.648,782.20133)"
       clip-path="url(#clipPath61)" />
    <path
       id="path62"
       d="m 65.6493,131.29906 c 0,7.25142 -5.87826,13.12968 -13.12968,13.12968 -7.25142,0 -13.1297,-5.87826 -13.1297,-13.12968 0,-7.25142 5.87828,-13.1297 13.1297,-13.1297 7.25142,0 13.12968,5.87828 13.12968,13.1297 z"
       style="fill:#ffffff;fill-opacity:1;fill-rule:nonzero;stroke:#ffffff;stroke-width:0.3985;stroke-linecap:butt;stroke-linejoin:miter;stroke-miterlimit:10;stroke-dasharray:none;stroke-opacity:1"
       transform="matrix(1.3333333,0,0,-1.3333333,83.648,782.20133)"
       clip-path="url(#clipPath63)" />
    <path
       id="path64"
       d="m 65.59697,131.29906 c 0,7.2225 -5.85484,13.07734 -13.07735,13.07734 -7.2225,0 -13.07734,-5.85484 -13.07734,-13.07734 0,-7.22251 5.85484,-13.07735 13.07734,-13.07735 7.22251,0 13.07735,5.85484 13.07735,13.07735 z"
       style="fill:#000000;fill-opacity:1;fill-rule:nonzero;stroke:#ffffff;stroke-width:1.1998;stroke-linecap:butt;stroke-linejoin:miter;stroke-miterlimit:10;stroke-dasharray:none;stroke-opacity:1"
       transform="matrix(1.3333333,0,0,-1.3333333,83.648,782.20133)"
       clip-path="url(#clipPath65)" />
    <path
       id="path66"
       d="m 223.20819,78.77942 c 0,7.25143 -5.87826,13.1297 -13.12969,13.1297 -7.25141,0 -13.1297,-5.87827 -13.1297,-13.1297 0,-7.25142 5.87829,-13.12969 13.1297,-13.12969 7.25143,0 13.12969,5.87827 13.12969,13.12969 z"
       style="fill:#ffffff;fill-opacity:1;fill-rule:nonzero;stroke:#ffffff;stroke-width:0.3985;stroke-linecap:butt;stroke-linejoin:miter;stroke-miterlimit:10;stroke-dasharray:none;stroke-opacity:1"
       transform="matrix(1.3333333,0,0,-1.3333333,83.648,782.20133)"
       clip-path="url(#clipPath67)" />
    <path
       id="path68"
       d="m 223.15585,78.77942 c 0,7.22252 -5.85484,13.07736 -13.07735,13.07736 -7.2225,0 -13.07734,-5.85484 -13.07734,-13.07736 0,-7.2225 5.85484,-13.07735 13.07734,-13.07735 7.22251,0 13.07735,5.85485 13.07735,13.07735 z"
       style="fill:#000000;fill-opacity:1;fill-rule:nonzero;stroke:#ffffff;stroke-width:1.1998;stroke-linecap:butt;stroke-linejoin:miter;stroke-miterlimit:10;stroke-dasharray:none;stroke-opacity:1"
       transform="matrix(1.3333333,0,0,-1.3333333,83.648,782.20133)"
       clip-path="url(#clipPath69)" />
    <path
       id="path70"
       d="m 223.20819,52.51962 c 0,7.25142 -5.87826,13.12968 -13.12969,13.12968 -7.25141,0 -13.1297,-5.87826 -13.1297,-13.12968 0,-7.25142 5.87829,-13.1297 13.1297,-13.1297 7.25143,0 13.12969,5.87828 13.12969,13.1297 z"
       style="fill:#ffffff;fill-opacity:1;fill-rule:nonzero;stroke:#ffffff;stroke-width:0.3985;stroke-linecap:butt;stroke-linejoin:miter;stroke-miterlimit:10;stroke-dasharray:none;stroke-opacity:1"
       transform="matrix(1.3333333,0,0,-1.3333333,83.648,782.20133)"
       clip-path="url(#clipPath71)" />
    <path
       id="path72"
       d="m 223.15585,52.51962 c 0,7.22251 -5.85484,13.07735 -13.07735,13.07735 -7.2225,0 -13.07734,-5.85484 -13.07734,-13.07735 0,-7.2225 5.85484,-13.07734 13.07734,-13.07734 7.22251,0 13.07735,5.85484 13.07735,13.07734 z"
       style="fill:#000000;fill-opacity:1;fill-rule:nonzero;stroke:#ffffff;stroke-width:1.1998;stroke-linecap:butt;stroke-linejoin:miter;stroke-miterlimit:10;stroke-dasharray:none;stroke-opacity:1"
       transform="matrix(1.3333333,0,0,-1.3333333,83.648,782.20133)"
       clip-path="url(#clipPath73)" />
    <path
       id="path74"
       d="m 196.94838,105.03925 c 0,7.25141 -5.87828,13.1297 -13.1297,13.1297 -7.25142,0 -13.12968,-5.87829 -13.12968,-13.1297 0,-7.25142 5.87826,-13.12969 13.12968,-13.12969 7.25142,0 13.1297,5.87827 13.1297,13.12969 z"
       style="fill:#ffffff;fill-opacity:1;fill-rule:nonzero;stroke:#ffffff;stroke-width:0.3985;stroke-linecap:butt;stroke-linejoin:miter;stroke-miterlimit:10;stroke-dasharray:none;stroke-opacity:1"
       transform="matrix(1.3333333,0,0,-1.3333333,83.648,782.20133)"
       clip-path="url(#clipPath75)" />
    <path
       id="path76"
       d="m 196.89603,105.03925 c 0,7.2225 -5.85485,13.07735 -13.07735,13.07735 -7.2225,0 -13.07735,-5.85485 -13.07735,-13.07735 0,-7.22251 5.85485,-13.07735 13.07735,-13.07735 7.2225,0 13.07735,5.85484 13.07735,13.07735 z"
       style="fill:#000000;fill-opacity:1;fill-rule:nonzero;stroke:#ffffff;stroke-width:1.1998;stroke-linecap:butt;stroke-linejoin:miter;stroke-miterlimit:10;stroke-dasharray:none;stroke-opacity:1"
       transform="matrix(1.3333333,0,0,-1.3333333,83.648,782.20133)"
       clip-path="url(#clipPath77)" />
    <path
       id="path78"
       d="m 354.50725,78.77942 c 0,7.25143 -5.87827,13.1297 -13.12969,13.1297 -7.25142,0 -13.12968,-5.87827 -13.12968,-13.1297 0,-7.25142 5.87826,-13.12969 13.12968,-13.12969 7.25142,0 13.12969,5.87827 13.12969,13.12969 z"
       style="fill:#ffffff;fill-opacity:1;fill-rule:nonzero;stroke:#ffffff;stroke-width:0.3985;stroke-linecap:butt;stroke-linejoin:miter;stroke-miterlimit:10;stroke-dasharray:none;stroke-opacity:1"
       transform="matrix(1.3333333,0,0,-1.3333333,83.648,782.20133)"
       clip-path="url(#clipPath79)" />
    <path
       id="path80"
       d="m 354.45491,78.77942 c 0,7.22252 -5.85484,13.07736 -13.07735,13.07736 -7.2225,0 -13.07734,-5.85484 -13.07734,-13.07736 0,-7.2225 5.85484,-13.07735 13.07734,-13.07735 7.22251,0 13.07735,5.85485 13.07735,13.07735 z"
       style="fill:#000000;fill-opacity:1;fill-rule:nonzero;stroke:#ffffff;stroke-width:1.1998;stroke-linecap:butt;stroke-linejoin:miter;stroke-miterlimit:10;stroke-dasharray:none;stroke-opacity:1"
       transform="matrix(1.3333333,0,0,-1.3333333,83.648,782.20133)"
       clip-path="url(#clipPath81)" />
    <path
       id="path82"
       d="m 39.3895,52.51962 c 0,7.25142 -5.87828,13.12968 -13.1297,13.12968 -7.25142,0 -13.12969,-5.87826 -13.12969,-13.12968 0,-7.25142 5.87827,-13.1297 13.12969,-13.1297 7.25142,0 13.1297,5.87828 13.1297,13.1297 z"
       style="fill:#ffffff;fill-opacity:1;fill-rule:nonzero;stroke:#ffffff;stroke-width:0.3985;stroke-linecap:butt;stroke-linejoin:miter;stroke-miterlimit:10;stroke-dasharray:none;stroke-opacity:1"
       transform="matrix(1.3333333,0,0,-1.3333333,83.648,782.20133)"
       clip-path="url(#clipPath83)" />
    <path
       id="path84"
       d="m 39.33714,52.51962 c 0,7.22251 -5.85484,13.07735 -13.07734,13.07735 -7.2225,0 -13.07735,-5.85484 -13.07735,-13.07735 0,-7.2225 5.85485,-13.07734 13.07735,-13.07734 7.2225,0 13.07734,5.85484 13.07734,13.07734 z"
       style="fill:#000000;fill-opacity:1;fill-rule:nonzero;stroke:#ffffff;stroke-width:1.1998;stroke-linecap:butt;stroke-linejoin:miter;stroke-miterlimit:10;stroke-dasharray:none;stroke-opacity:1"
       transform="matrix(1.3333333,0,0,-1.3333333,83.648,782.20133)"
       clip-path="url(#clipPath85)" />
    <path
       id="path86"
       d="m 118.16895,78.77942 c 0,7.25143 -5.87829,13.1297 -13.1297,13.1297 -7.25142,0 -13.12969,-5.87827 -13.12969,-13.1297 0,-7.25142 5.87827,-13.12969 13.12969,-13.12969 7.25141,0 13.1297,5.87827 13.1297,13.12969 z"
       style="fill:#ffffff;fill-opacity:1;fill-rule:nonzero;stroke:#ffffff;stroke-width:0.3985;stroke-linecap:butt;stroke-linejoin:miter;stroke-miterlimit:10;stroke-dasharray:none;stroke-opacity:1"
       transform="matrix(1.3333333,0,0,-1.3333333,83.648,782.20133)"
       clip-path="url(#clipPath87)" />
    <path
       id="path88"
       d="m 118.1166,78.77942 c 0,7.22252 -5.85485,13.07736 -13.07735,13.07736 -7.22251,0 -13.07735,-5.85484 -13.07735,-13.07736 0,-7.2225 5.85484,-13.07735 13.07735,-13.07735 7.2225,0 13.07735,5.85485 13.07735,13.07735 z"
       style="fill:#000000;fill-opacity:1;fill-rule:nonzero;stroke:#ffffff;stroke-width:1.1998;stroke-linecap:butt;stroke-linejoin:miter;stroke-miterlimit:10;stroke-dasharray:none;stroke-opacity:1"
       transform="matrix(1.3333333,0,0,-1.3333333,83.648,782.20133)"
       clip-path="url(#clipPath89)" />
    <path
       id="path90"
       d="m 118.16895,105.03925 c 0,7.25141 -5.87829,13.1297 -13.1297,13.1297 -7.25142,0 -13.12969,-5.87829 -13.12969,-13.1297 0,-7.25142 5.87827,-13.12969 13.12969,-13.12969 7.25141,0 13.1297,5.87827 13.1297,13.12969 z"
       style="fill:#ffffff;fill-opacity:1;fill-rule:nonzero;stroke:#ffffff;stroke-width:0.3985;stroke-linecap:butt;stroke-linejoin:miter;stroke-miterlimit:10;stroke-dasharray:none;stroke-opacity:1"
       transform="matrix(1.3333333,0,0,-1.3333333,83.648,782.20133)"
       clip-path="url(#clipPath91)" />
    <path
       id="path92"
       d="m 118.1166,105.03925 c 0,7.2225 -5.85485,13.07735 -13.07735,13.07735 -7.22251,0 -13.07735,-5.85485 -13.07735,-13.07735 0,-7.22251 5.85484,-13.07735 13.07735,-13.07735 7.2225,0 13.07735,5.85484 13.07735,13.07735 z"
       style="fill:#000000;fill-opacity:1;fill-rule:nonzero;stroke:#ffffff;stroke-width:1.1998;stroke-linecap:butt;stroke-linejoin:miter;stroke-miterlimit:10;stroke-dasharray:none;stroke-opacity:1"
       transform="matrix(1.3333333,0,0,-1.3333333,83.648,782.20133)"
       clip-path="url(#clipPath93)" />
    <path
       id="path94"
       d="m 118.16895,52.51962 c 0,7.25142 -5.87829,13.12968 -13.1297,13.12968 -7.25142,0 -13.12969,-5.87826 -13.12969,-13.12968 0,-7.25142 5.87827,-13.1297 13.12969,-13.1297 7.25141,0 13.1297,5.87828 13.1297,13.1297 z"
       style="fill:#ffffff;fill-opacity:1;fill-rule:nonzero;stroke:#ffffff;stroke-width:0.3985;stroke-linecap:butt;stroke-linejoin:miter;stroke-miterlimit:10;stroke-dasharray:none;stroke-opacity:1"
       transform="matrix(1.3333333,0,0,-1.3333333,83.648,782.20133)"
       clip-path="url(#clipPath95)" />
    <path
       id="path96"
       d="m 118.1166,52.51962 c 0,7.22251 -5.85485,13.07735 -13.07735,13.07735 -7.22251,0 -13.07735,-5.85484 -13.07735,-13.07735 0,-7.2225 5.85484,-13.07734 13.07735,-13.07734 7.2225,0 13.07735,5.85484 13.07735,13.07734 z"
       style="fill:#000000;fill-opacity:1;fill-rule:nonzero;stroke:#ffffff;stroke-width:1.1998;stroke-linecap:butt;stroke-linejoin:miter;stroke-miterlimit:10;stroke-dasharray:none;stroke-opacity:1"
       transform="matrix(1.3333333,0,0,-1.3333333,83.648,782.20133)"
       clip-path="url(#clipPath97)" />
    <path
       id="path98"
       d="m 91.90912,26.2598 c 0,7.25142 -5.87827,13.1297 -13.1297,13.1297 -7.25142,0 -13.12969,-5.87828 -13.12969,-13.1297 0,-7.25142 5.87827,-13.12969 13.12969,-13.12969 7.25143,0 13.1297,5.87827 13.1297,13.12969 z"
       style="fill:#ffffff;fill-opacity:1;fill-rule:nonzero;stroke:#ffffff;stroke-width:0.3985;stroke-linecap:butt;stroke-linejoin:miter;stroke-miterlimit:10;stroke-dasharray:none;stroke-opacity:1"
       transform="matrix(1.3333333,0,0,-1.3333333,83.648,782.20133)"
       clip-path="url(#clipPath99)" />
    <path
       id="path100"
       d="m 91.85678,26.2598 c 0,7.2225 -5.85484,13.07734 -13.07736,13.07734 -7.2225,0 -13.07735,-5.85484 -13.07735,-13.07734 0,-7.2225 5.85485,-13.07735 13.07735,-13.07735 7.22252,0 13.07736,5.85485 13.07736,13.07735 z"
       style="fill:#000000;fill-opacity:1;fill-rule:nonzero;stroke:#ffffff;stroke-width:1.1998;stroke-linecap:butt;stroke-linejoin:miter;stroke-miterlimit:10;stroke-dasharray:none;stroke-opacity:1"
       transform="matrix(1.3333333,0,0,-1.3333333,83.648,782.20133)"
       clip-path="url(#clipPath101)" />
    <path
       id="path102"
       d="m 91.90912,52.51962 c 0,7.25142 -5.87827,13.12968 -13.1297,13.12968 -7.25142,0 -13.12969,-5.87826 -13.12969,-13.12968 0,-7.25142 5.87827,-13.1297 13.12969,-13.1297 7.25143,0 13.1297,5.87828 13.1297,13.1297 z"
       style="fill:#ffffff;fill-opacity:1;fill-rule:nonzero;stroke:#ffffff;stroke-width:0.3985;stroke-linecap:butt;stroke-linejoin:miter;stroke-miterlimit:10;stroke-dasharray:none;stroke-opacity:1"
       transform="matrix(1.3333333,0,0,-1.3333333,83.648,782.20133)"
       clip-path="url(#clipPath103)" />
    <path
       id="path104"
       d="m 91.85678,52.51962 c 0,7.22251 -5.85484,13.07735 -13.07736,13.07735 -7.2225,0 -13.07735,-5.85484 -13.07735,-13.07735 0,-7.2225 5.85485,-13.07734 13.07735,-13.07734 7.22252,0 13.07736,5.85484 13.07736,13.07734 z"
       style="fill:#000000;fill-opacity:1;fill-rule:nonzero;stroke:#ffffff;stroke-width:1.1998;stroke-linecap:butt;stroke-linejoin:miter;stroke-miterlimit:10;stroke-dasharray:none;stroke-opacity:1"
       transform="matrix(1.3333333,0,0,-1.3333333,83.648,782.20133)"
       clip-path="url(#clipPath105)" />
    <path
       id="path106"
       d="m 275.72781,78.77942 c 0,7.25143 -5.87826,13.1297 -13.12968,13.1297 -7.25142,0 -13.12969,-5.87827 -13.12969,-13.1297 0,-7.25142 5.87827,-13.12969 13.12969,-13.12969 7.25142,0 13.12968,5.87827 13.12968,13.12969 z"
       style="fill:#ffffff;fill-opacity:1;fill-rule:nonzero;stroke:#ffffff;stroke-width:0.3985;stroke-linecap:butt;stroke-linejoin:miter;stroke-miterlimit:10;stroke-dasharray:none;stroke-opacity:1"
       transform="matrix(1.3333333,0,0,-1.3333333,83.648,782.20133)"
       clip-path="url(#clipPath107)" />
    <path
       id="path108"
       d="m 275.67548,78.77942 c 0,7.22252 -5.85485,13.07736 -13.07735,13.07736 -7.2225,0 -13.07735,-5.85484 -13.07735,-13.07736 0,-7.2225 5.85485,-13.07735 13.07735,-13.07735 7.2225,0 13.07735,5.85485 13.07735,13.07735 z"
       style="fill:#000000;fill-opacity:1;fill-rule:nonzero;stroke:#ffffff;stroke-width:1.1998;stroke-linecap:butt;stroke-linejoin:miter;stroke-miterlimit:10;stroke-dasharray:none;stroke-opacity:1"
       transform="matrix(1.3333333,0,0,-1.3333333,83.648,782.20133)"
       clip-path="url(#clipPath109)" />
    <path
       id="path110"
       d="m 65.6493,26.2598 c 0,7.25142 -5.87826,13.1297 -13.12968,13.1297 -7.25142,0 -13.1297,-5.87828 -13.1297,-13.1297 0,-7.25142 5.87828,-13.12969 13.1297,-13.12969 7.25142,0 13.12968,5.87827 13.12968,13.12969 z"
       style="fill:#ffffff;fill-opacity:1;fill-rule:nonzero;stroke:#ffffff;stroke-width:0.3985;stroke-linecap:butt;stroke-linejoin:miter;stroke-miterlimit:10;stroke-dasharray:none;stroke-opacity:1"
       transform="matrix(1.3333333,0,0,-1.3333333,83.648,782.20133)"
       clip-path="url(#clipPath111)" />
    <path
       id="path112"
       d="m 64.50049,26.2598 c 0,6.61692 -5.36395,11.98086 -11.98087,11.98086 -6.61692,0 -11.98086,-5.36394 -11.98086,-11.98086 0,-6.61692 5.36394,-11.98087 11.98086,-11.98087 6.61692,0 11.98087,5.36395 11.98087,11.98087 z"
       style="fill:#ffffff;fill-opacity:1;fill-rule:nonzero;stroke:#000000;stroke-width:1.1998;stroke-linecap:butt;stroke-linejoin:miter;stroke-miterlimit:10;stroke-dasharray:none;stroke-opacity:1"
       transform="matrix(1.3333333,0,0,-1.3333333,83.648,782.20133)"
       clip-path="url(#clipPath113)" />
    <path
       id="path114"
       d="m 144.42874,52.51962 c 0,7.25142 -5.87826,13.12968 -13.12968,13.12968 -7.25142,0 -13.1297,-5.87826 -13.1297,-13.12968 0,-7.25142 5.87828,-13.1297 13.1297,-13.1297 7.25142,0 13.12968,5.87828 13.12968,13.1297 z"
       style="fill:#ffffff;fill-opacity:1;fill-rule:nonzero;stroke:#ffffff;stroke-width:0.3985;stroke-linecap:butt;stroke-linejoin:miter;stroke-miterlimit:10;stroke-dasharray:none;stroke-opacity:1"
       transform="matrix(1.3333333,0,0,-1.3333333,83.648,782.20133)"
       clip-path="url(#clipPath115)" />
    <path
       id="path116"
       d="m 143.27992,52.51962 c 0,6.61692 -5.36395,11.98087 -11.98086,11.98087 -6.61693,0 -11.98087,-5.36395 -11.98087,-11.98087 0,-6.61692 5.36394,-11.98086 11.98087,-11.98086 6.61691,0 11.98086,5.36394 11.98086,11.98086 z"
       style="fill:#ffffff;fill-opacity:1;fill-rule:nonzero;stroke:#000000;stroke-width:1.1998;stroke-linecap:butt;stroke-linejoin:miter;stroke-miterlimit:10;stroke-dasharray:none;stroke-opacity:1"
       transform="matrix(1.3333333,0,0,-1.3333333,83.648,782.20133)"
       clip-path="url(#clipPath117)" />
    <path
       id="path118"
       d="m 196.94838,78.77942 c 0,7.25143 -5.87828,13.1297 -13.1297,13.1297 -7.25142,0 -13.12968,-5.87827 -13.12968,-13.1297 0,-7.25142 5.87826,-13.12969 13.12968,-13.12969 7.25142,0 13.1297,5.87827 13.1297,13.12969 z"
       style="fill:#ffffff;fill-opacity:1;fill-rule:nonzero;stroke:#ffffff;stroke-width:0.3985;stroke-linecap:butt;stroke-linejoin:miter;stroke-miterlimit:10;stroke-dasharray:none;stroke-opacity:1"
       transform="matrix(1.3333333,0,0,-1.3333333,83.648,782.20133)"
       clip-path="url(#clipPath119)" />
    <path
       id="path120"
       d="m 195.79955,78.77942 c 0,6.61693 -5.36394,11.98086 -11.98087,11.98086 -6.61691,0 -11.98087,-5.36393 -11.98087,-11.98086 0,-6.61692 5.36396,-11.98085 11.98087,-11.98085 6.61693,0 11.98087,5.36393 11.98087,11.98085 z"
       style="fill:#ffffff;fill-opacity:1;fill-rule:nonzero;stroke:#000000;stroke-width:1.1998;stroke-linecap:butt;stroke-linejoin:miter;stroke-miterlimit:10;stroke-dasharray:none;stroke-opacity:1"
       transform="matrix(1.3333333,0,0,-1.3333333,83.648,782.20133)"
       clip-path="url(#clipPath121)" />
    <path
       id="path122"
       d="m 223.20819,105.03925 c 0,7.25141 -5.87826,13.1297 -13.12969,13.1297 -7.25141,0 -13.1297,-5.87829 -13.1297,-13.1297 0,-7.25142 5.87829,-13.12969 13.1297,-13.12969 7.25143,0 13.12969,5.87827 13.12969,13.12969 z"
       style="fill:#ffffff;fill-opacity:1;fill-rule:nonzero;stroke:#ffffff;stroke-width:0.3985;stroke-linecap:butt;stroke-linejoin:miter;stroke-miterlimit:10;stroke-dasharray:none;stroke-opacity:1"
       transform="matrix(1.3333333,0,0,-1.3333333,83.648,782.20133)"
       clip-path="url(#clipPath123)" />
    <path
       id="path124"
       d="m 222.05937,105.03925 c 0,6.61692 -5.36395,11.98086 -11.98087,11.98086 -6.61692,0 -11.98086,-5.36394 -11.98086,-11.98086 0,-6.61692 5.36394,-11.98087 11.98086,-11.98087 6.61692,0 11.98087,5.36395 11.98087,11.98087 z"
       style="fill:#ffffff;fill-opacity:1;fill-rule:nonzero;stroke:#000000;stroke-width:1.1998;stroke-linecap:butt;stroke-linejoin:miter;stroke-miterlimit:10;stroke-dasharray:none;stroke-opacity:1"
       transform="matrix(1.3333333,0,0,-1.3333333,83.648,782.20133)"
       clip-path="url(#clipPath125)" />
    <path
       id="path126"
       d="m 433.2867,78.77942 c 0,7.25143 -5.87827,13.1297 -13.12969,13.1297 -7.25141,0 -13.12968,-5.87827 -13.12968,-13.1297 0,-7.25142 5.87827,-13.12969 13.12968,-13.12969 7.25142,0 13.12969,5.87827 13.12969,13.12969 z"
       style="fill:#ffffff;fill-opacity:1;fill-rule:nonzero;stroke:#ffffff;stroke-width:0.3985;stroke-linecap:butt;stroke-linejoin:miter;stroke-miterlimit:10;stroke-dasharray:none;stroke-opacity:1"
       transform="matrix(1.3333333,0,0,-1.3333333,83.648,782.20133)"
       clip-path="url(#clipPath127)" />
    <path
       id="path128"
       d="m 432.13788,78.77942 c 0,6.61693 -5.36394,11.98086 -11.98087,11.98086 -6.61691,0 -11.98086,-5.36393 -11.98086,-11.98086 0,-6.61692 5.36395,-11.98085 11.98086,-11.98085 6.61693,0 11.98087,5.36393 11.98087,11.98085 z"
       style="fill:#ffffff;fill-opacity:1;fill-rule:nonzero;stroke:#000000;stroke-width:1.1998;stroke-linecap:butt;stroke-linejoin:miter;stroke-miterlimit:10;stroke-dasharray:none;stroke-opacity:1"
       transform="matrix(1.3333333,0,0,-1.3333333,83.648,782.20133)"
       clip-path="url(#clipPath129)" />
    <path
       id="path130"
       d="m 380.76707,78.77942 c 0,7.25143 -5.87826,13.1297 -13.12968,13.1297 -7.25142,0 -13.1297,-5.87827 -13.1297,-13.1297 0,-7.25142 5.87828,-13.12969 13.1297,-13.12969 7.25142,0 13.12968,5.87827 13.12968,13.12969 z"
       style="fill:#ffffff;fill-opacity:1;fill-rule:nonzero;stroke:#ffffff;stroke-width:0.3985;stroke-linecap:butt;stroke-linejoin:miter;stroke-miterlimit:10;stroke-dasharray:none;stroke-opacity:1"
       transform="matrix(1.3333333,0,0,-1.3333333,83.648,782.20133)"
       clip-path="url(#clipPath131)" />
    <path
       id="path132"
       d="m 379.61824,78.77942 c 0,6.61693 -5.36394,11.98086 -11.98085,11.98086 -6.61693,0 -11.98087,-5.36393 -11.98087,-11.98086 0,-6.61692 5.36394,-11.98085 11.98087,-11.98085 6.61691,0 11.98085,5.36393 11.98085,11.98085 z"
       style="fill:#ffffff;fill-opacity:1;fill-rule:nonzero;stroke:#000000;stroke-width:1.1998;stroke-linecap:butt;stroke-linejoin:miter;stroke-miterlimit:10;stroke-dasharray:none;stroke-opacity:1"
       transform="matrix(1.3333333,0,0,-1.3333333,83.648,782.20133)"
       clip-path="url(#clipPath133)" />
    <path
       id="path134"
       d="m 380.76707,52.51962 c 0,7.25142 -5.87826,13.12968 -13.12968,13.12968 -7.25142,0 -13.1297,-5.87826 -13.1297,-13.12968 0,-7.25142 5.87828,-13.1297 13.1297,-13.1297 7.25142,0 13.12968,5.87828 13.12968,13.1297 z"
       style="fill:#ffffff;fill-opacity:1;fill-rule:nonzero;stroke:#ffffff;stroke-width:0.3985;stroke-linecap:butt;stroke-linejoin:miter;stroke-miterlimit:10;stroke-dasharray:none;stroke-opacity:1"
       transform="matrix(1.3333333,0,0,-1.3333333,83.648,782.20133)"
       clip-path="url(#clipPath135)" />
    <path
       id="path136"
       d="m 379.61824,52.51962 c 0,6.61692 -5.36394,11.98087 -11.98085,11.98087 -6.61693,0 -11.98087,-5.36395 -11.98087,-11.98087 0,-6.61692 5.36394,-11.98086 11.98087,-11.98086 6.61691,0 11.98085,5.36394 11.98085,11.98086 z"
       style="fill:#ffffff;fill-opacity:1;fill-rule:nonzero;stroke:#000000;stroke-width:1.1998;stroke-linecap:butt;stroke-linejoin:miter;stroke-miterlimit:10;stroke-dasharray:none;stroke-opacity:1"
       transform="matrix(1.3333333,0,0,-1.3333333,83.648,782.20133)"
       clip-path="url(#clipPath137)" />
    <path
       id="path138"
       d="m 407.02689,210.0785 c 0,7.25143 -5.87829,13.12969 -13.1297,13.12969 -7.25142,0 -13.12969,-5.87826 -13.12969,-13.12969 0,-7.25141 5.87827,-13.1297 13.12969,-13.1297 7.25141,0 13.1297,5.87829 13.1297,13.1297 z"
       style="fill:#ffffff;fill-opacity:1;fill-rule:nonzero;stroke:#ffffff;stroke-width:0.3985;stroke-linecap:butt;stroke-linejoin:miter;stroke-miterlimit:10;stroke-dasharray:none;stroke-opacity:1"
       transform="matrix(1.3333333,0,0,-1.3333333,83.648,782.20133)"
       clip-path="url(#clipPath139)" />
    <path
       id="path140"
       d="m 405.87805,210.0785 c 0,6.61692 -5.36394,11.98087 -11.98086,11.98087 -6.61692,0 -11.98085,-5.36395 -11.98085,-11.98087 0,-6.61692 5.36393,-11.98086 11.98085,-11.98086 6.61692,0 11.98086,5.36394 11.98086,11.98086 z"
       style="fill:#ffffff;fill-opacity:1;fill-rule:nonzero;stroke:#000000;stroke-width:1.1998;stroke-linecap:butt;stroke-linejoin:miter;stroke-miterlimit:10;stroke-dasharray:none;stroke-opacity:1"
       transform="matrix(1.3333333,0,0,-1.3333333,83.648,782.20133)"
       clip-path="url(#clipPath141)" />
    <path
       id="path142"
       d="m 433.2867,315.11775 c 0,7.25142 -5.87827,13.1297 -13.12969,13.1297 -7.25141,0 -13.12968,-5.87828 -13.12968,-13.1297 0,-7.25142 5.87827,-13.12968 13.12968,-13.12968 7.25142,0 13.12969,5.87826 13.12969,13.12968 z"
       style="fill:#ffffff;fill-opacity:1;fill-rule:nonzero;stroke:#ffffff;stroke-width:0.3985;stroke-linecap:butt;stroke-linejoin:miter;stroke-miterlimit:10;stroke-dasharray:none;stroke-opacity:1"
       transform="matrix(1.3333333,0,0,-1.3333333,83.648,782.20133)"
       clip-path="url(#clipPath143)" />
    <path
       id="path144"
       d="m 432.13788,315.11775 c 0,6.61693 -5.36394,11.98087 -11.98087,11.98087 -6.61691,0 -11.98086,-5.36394 -11.98086,-11.98087 0,-6.61691 5.36395,-11.98085 11.98086,-11.98085 6.61693,0 11.98087,5.36394 11.98087,11.98085 z"
       style="fill:#ffffff;fill-opacity:1;fill-rule:nonzero;stroke:#000000;stroke-width:1.1998;stroke-linecap:butt;stroke-linejoin:miter;stroke-miterlimit:10;stroke-dasharray:none;stroke-opacity:1"
       transform="matrix(1.3333333,0,0,-1.3333333,83.648,782.20133)"
       clip-path="url(#clipPath145)" />
    <path
       id="path146"
       d="m 65.6493,78.77942 c 0,7.25143 -5.87826,13.1297 -13.12968,13.1297 -7.25142,0 -13.1297,-5.87827 -13.1297,-13.1297 0,-7.25142 5.87828,-13.12969 13.1297,-13.12969 7.25142,0 13.12968,5.87827 13.12968,13.12969 z"
       style="fill:#ffffff;fill-opacity:1;fill-rule:nonzero;stroke:#ffffff;stroke-width:0.3985;stroke-linecap:butt;stroke-linejoin:miter;stroke-miterlimit:10;stroke-dasharray:none;stroke-opacity:1"
       transform="matrix(1.3333333,0,0,-1.3333333,83.648,782.20133)"
       clip-path="url(#clipPath147)" />
    <path
       id="path148"
       d="m 64.50049,78.77942 c 0,6.61693 -5.36395,11.98086 -11.98087,11.98086 -6.61692,0 -11.98086,-5.36393 -11.98086,-11.98086 0,-6.61692 5.36394,-11.98085 11.98086,-11.98085 6.61692,0 11.98087,5.36393 11.98087,11.98085 z"
       style="fill:#ffffff;fill-opacity:1;fill-rule:nonzero;stroke:#000000;stroke-width:1.1998;stroke-linecap:butt;stroke-linejoin:miter;stroke-miterlimit:10;stroke-dasharray:none;stroke-opacity:1"
       transform="matrix(1.3333333,0,0,-1.3333333,83.648,782.20133)"
       clip-path="url(#clipPath149)" />
    <path
       id="path150"
       d="m 91.90912,105.03925 c 0,7.25141 -5.87827,13.1297 -13.1297,13.1297 -7.25142,0 -13.12969,-5.87829 -13.12969,-13.1297 0,-7.25142 5.87827,-13.12969 13.12969,-13.12969 7.25143,0 13.1297,5.87827 13.1297,13.12969 z"
       style="fill:#ffffff;fill-opacity:1;fill-rule:nonzero;stroke:#ffffff;stroke-width:0.3985;stroke-linecap:butt;stroke-linejoin:miter;stroke-miterlimit:10;stroke-dasharray:none;stroke-opacity:1"
       transform="matrix(1.3333333,0,0,-1.3333333,83.648,782.20133)"
       clip-path="url(#clipPath151)" />
    <path
       id="path152"
       d="m 90.76028,105.03925 c 0,6.61692 -5.36393,11.98086 -11.98086,11.98086 -6.61692,0 -11.98085,-5.36394 -11.98085,-11.98086 0,-6.61692 5.36393,-11.98087 11.98085,-11.98087 6.61693,0 11.98086,5.36395 11.98086,11.98087 z"
       style="fill:#ffffff;fill-opacity:1;fill-rule:nonzero;stroke:#000000;stroke-width:1.1998;stroke-linecap:butt;stroke-linejoin:miter;stroke-miterlimit:10;stroke-dasharray:none;stroke-opacity:1"
       transform="matrix(1.3333333,0,0,-1.3333333,83.648,782.20133)"
       clip-path="url(#clipPath153)" />
    <path
       id="path154"
       d="m 118.16895,131.29906 c 0,7.25142 -5.87829,13.12968 -13.1297,13.12968 -7.25142,0 -13.12969,-5.87826 -13.12969,-13.12968 0,-7.25142 5.87827,-13.1297 13.12969,-13.1297 7.25141,0 13.1297,5.87828 13.1297,13.1297 z"
       style="fill:#ffffff;fill-opacity:1;fill-rule:nonzero;stroke:#ffffff;stroke-width:0.3985;stroke-linecap:butt;stroke-linejoin:miter;stroke-miterlimit:10;stroke-dasharray:none;stroke-opacity:1"
       transform="matrix(1.3333333,0,0,-1.3333333,83.648,782.20133)"
       clip-path="url(#clipPath155)" />
    <path
       id="path156"
       d="m 117.02011,131.29906 c 0,6.61691 -5.36394,11.98086 -11.98086,11.98086 -6.61692,0 -11.98087,-5.36395 -11.98087,-11.98086 0,-6.61693 5.36395,-11.98087 11.98087,-11.98087 6.61692,0 11.98086,5.36394 11.98086,11.98087 z"
       style="fill:#ffffff;fill-opacity:1;fill-rule:nonzero;stroke:#000000;stroke-width:1.1998;stroke-linecap:butt;stroke-linejoin:miter;stroke-miterlimit:10;stroke-dasharray:none;stroke-opacity:1"
       transform="matrix(1.3333333,0,0,-1.3333333,83.648,782.20133)"
       clip-path="url(#clipPath157)" />
    <path
       id="path158"
       d="m 144.42874,78.77942 c 0,7.25143 -5.87826,13.1297 -13.12968,13.1297 -7.25142,0 -13.1297,-5.87827 -13.1297,-13.1297 0,-7.25142 5.87828,-13.12969 13.1297,-13.12969 7.25142,0 13.12968,5.87827 13.12968,13.12969 z"
       style="fill:#ffffff;fill-opacity:1;fill-rule:nonzero;stroke:#ffffff;stroke-width:0.3985;stroke-linecap:butt;stroke-linejoin:miter;stroke-miterlimit:10;stroke-dasharray:none;stroke-opacity:1"
       transform="matrix(1.3333333,0,0,-1.3333333,83.648,782.20133)"
       clip-path="url(#clipPath159)" />
    <path
       id="path160"
       d="m 143.27992,78.77942 c 0,6.61693 -5.36395,11.98086 -11.98086,11.98086 -6.61693,0 -11.98087,-5.36393 -11.98087,-11.98086 0,-6.61692 5.36394,-11.98085 11.98087,-11.98085 6.61691,0 11.98086,5.36393 11.98086,11.98085 z"
       style="fill:#ffffff;fill-opacity:1;fill-rule:nonzero;stroke:#000000;stroke-width:1.1998;stroke-linecap:butt;stroke-linejoin:miter;stroke-miterlimit:10;stroke-dasharray:none;stroke-opacity:1"
       transform="matrix(1.3333333,0,0,-1.3333333,83.648,782.20133)"
       clip-path="url(#clipPath161)" />
    <path
       id="path162"
       d="m 118.16895,26.2598 c 0,7.25142 -5.87829,13.1297 -13.1297,13.1297 -7.25142,0 -13.12969,-5.87828 -13.12969,-13.1297 0,-7.25142 5.87827,-13.12969 13.12969,-13.12969 7.25141,0 13.1297,5.87827 13.1297,13.12969 z"
       style="fill:#ffffff;fill-opacity:1;fill-rule:nonzero;stroke:#ffffff;stroke-width:0.3985;stroke-linecap:butt;stroke-linejoin:miter;stroke-miterlimit:10;stroke-dasharray:none;stroke-opacity:1"
       transform="matrix(1.3333333,0,0,-1.3333333,83.648,782.20133)"
       clip-path="url(#clipPath163)" />
    <path
       id="path164"
       d="m 117.02011,26.2598 c 0,6.61692 -5.36394,11.98086 -11.98086,11.98086 -6.61692,0 -11.98087,-5.36394 -11.98087,-11.98086 0,-6.61692 5.36395,-11.98087 11.98087,-11.98087 6.61692,0 11.98086,5.36395 11.98086,11.98087 z"
       style="fill:#ffffff;fill-opacity:1;fill-rule:nonzero;stroke:#000000;stroke-width:1.1998;stroke-linecap:butt;stroke-linejoin:miter;stroke-miterlimit:10;stroke-dasharray:none;stroke-opacity:1"
       transform="matrix(1.3333333,0,0,-1.3333333,83.648,782.20133)"
       clip-path="url(#clipPath165)" />
    <path
       id="path166"
       d="m 144.42874,105.03925 c 0,7.25141 -5.87826,13.1297 -13.12968,13.1297 -7.25142,0 -13.1297,-5.87829 -13.1297,-13.1297 0,-7.25142 5.87828,-13.12969 13.1297,-13.12969 7.25142,0 13.12968,5.87827 13.12968,13.12969 z"
       style="fill:#ffffff;fill-opacity:1;fill-rule:nonzero;stroke:#ffffff;stroke-width:0.3985;stroke-linecap:butt;stroke-linejoin:miter;stroke-miterlimit:10;stroke-dasharray:none;stroke-opacity:1"
       transform="matrix(1.3333333,0,0,-1.3333333,83.648,782.20133)"
       clip-path="url(#clipPath167)" />
    <path
       id="path168"
       d="m 143.27992,105.03925 c 0,6.61692 -5.36395,11.98086 -11.98086,11.98086 -6.61693,0 -11.98087,-5.36394 -11.98087,-11.98086 0,-6.61692 5.36394,-11.98087 11.98087,-11.98087 6.61691,0 11.98086,5.36395 11.98086,11.98087 z"
       style="fill:#ffffff;fill-opacity:1;fill-rule:nonzero;stroke:#000000;stroke-width:1.1998;stroke-linecap:butt;stroke-linejoin:miter;stroke-miterlimit:10;stroke-dasharray:none;stroke-opacity:1"
       transform="matrix(1.3333333,0,0,-1.3333333,83.648,782.20133)"
       clip-path="url(#clipPath169)" />
    <path
       id="path170"
       d="m 196.94838,131.29906 c 0,7.25142 -5.87828,13.12968 -13.1297,13.12968 -7.25142,0 -13.12968,-5.87826 -13.12968,-13.12968 0,-7.25142 5.87826,-13.1297 13.12968,-13.1297 7.25142,0 13.1297,5.87828 13.1297,13.1297 z"
       style="fill:#ffffff;fill-opacity:1;fill-rule:nonzero;stroke:#ffffff;stroke-width:0.3985;stroke-linecap:butt;stroke-linejoin:miter;stroke-miterlimit:10;stroke-dasharray:none;stroke-opacity:1"
       transform="matrix(1.3333333,0,0,-1.3333333,83.648,782.20133)"
       clip-path="url(#clipPath171)" />
    <path
       id="path172"
       d="m 195.79955,131.29906 c 0,6.61691 -5.36394,11.98086 -11.98087,11.98086 -6.61691,0 -11.98087,-5.36395 -11.98087,-11.98086 0,-6.61693 5.36396,-11.98087 11.98087,-11.98087 6.61693,0 11.98087,5.36394 11.98087,11.98087 z"
       style="fill:#ffffff;fill-opacity:1;fill-rule:nonzero;stroke:#000000;stroke-width:1.1998;stroke-linecap:butt;stroke-linejoin:miter;stroke-miterlimit:10;stroke-dasharray:none;stroke-opacity:1"
       transform="matrix(1.3333333,0,0,-1.3333333,83.648,782.20133)"
       clip-path="url(#clipPath173)" />
    <path
       id="path174"
       d="m 249.468,105.03925 c 0,7.25141 -5.87828,13.1297 -13.1297,13.1297 -7.25142,0 -13.12968,-5.87829 -13.12968,-13.1297 0,-7.25142 5.87826,-13.12969 13.12968,-13.12969 7.25142,0 13.1297,5.87827 13.1297,13.12969 z"
       style="fill:#ffffff;fill-opacity:1;fill-rule:nonzero;stroke:#ffffff;stroke-width:0.3985;stroke-linecap:butt;stroke-linejoin:miter;stroke-miterlimit:10;stroke-dasharray:none;stroke-opacity:1"
       transform="matrix(1.3333333,0,0,-1.3333333,83.648,782.20133)"
       clip-path="url(#clipPath175)" />
    <path
       id="path176"
       d="m 248.31917,105.03925 c 0,6.61692 -5.36394,11.98086 -11.98087,11.98086 -6.61691,0 -11.98085,-5.36394 -11.98085,-11.98086 0,-6.61692 5.36394,-11.98087 11.98085,-11.98087 6.61693,0 11.98087,5.36395 11.98087,11.98087 z"
       style="fill:#ffffff;fill-opacity:1;fill-rule:nonzero;stroke:#000000;stroke-width:1.1998;stroke-linecap:butt;stroke-linejoin:miter;stroke-miterlimit:10;stroke-dasharray:none;stroke-opacity:1"
       transform="matrix(1.3333333,0,0,-1.3333333,83.648,782.20133)"
       clip-path="url(#clipPath177)" />
    <path
       id="path178"
       d="m 86.50327,52.51962 c 0,4.21826 -3.41951,7.63776 -7.63777,7.63776 -4.21825,0 -7.63776,-3.4195 -7.63776,-7.63776 0,-4.21826 3.41951,-7.63777 7.63776,-7.63777 4.21826,0 7.63777,3.41951 7.63777,7.63777 z"
       style="fill:#000000;fill-opacity:1;fill-rule:nonzero;stroke:#000000;stroke-width:0.3985;stroke-linecap:butt;stroke-linejoin:miter;stroke-miterlimit:10;stroke-dasharray:none;stroke-opacity:1"
       transform="matrix(1.3333333,0,0,-1.3333333,83.648,782.20133)"
       clip-path="url(#clipPath179)" />
    <path
       id="path180"
       d="m 6.0946172,-0.00139844 v -0.71484375 h -1.78125 V -9.5404609 c 0,-0.4804691 -0.070312,-0.4804691 -0.5976563,-0.4804691 -1.0078125,0.9726566 -2.6132812,0.9726566 -3.15234371,0.9726566 v 0.7265625 c 0.3984375,0 1.12500001,0 1.93359371,-0.2695313 v 7.87500001 H 0.78602344 v 0.71484375 c 0.57421876,-0.046875 1.96874996,-0.046875 2.62499996,-0.046875 0.65625,0 2.0976563,0 2.6835938,0.046875 z M 13.896375,-3.3998359 h -0.726562 c -0.04687,0.3632812 -0.152344,1.1132812 -0.328125,1.359375 -0.08203,0.1289062 -1.394532,0.1289062 -1.394532,0.1289062 H 9.6073125 c 0.4101565,-0.375 1.3945315,-1.3359375 1.8046875,-1.6992187 0.304688,-0.2929688 1.101563,-0.9609375 1.40625,-1.2539063 0.75,-0.7734375 1.078125,-1.4882812 1.078125,-2.2734375 0,-1.6757812 -1.382812,-2.8828128 -3.246094,-2.8828128 -1.628906,0 -2.8593747,1.0312503 -2.8593747,2.3203128 0,0.9023438 0.7265625,1.1367188 1.1015625,1.1367188 0.4804687,0 1.1015625,-0.3398438 1.1015625,-1.1015625 0,-0.6328125 -0.3984375,-1.0195313 -0.9375,-1.1015625 0.4101562,-0.46875 0.9960937,-0.5390625 1.2539067,-0.5390625 1.300781,0 1.476562,1.546875 1.476562,2.1679687 0,0.8671875 -0.292969,1.921875 -1.429687,3.328125 L 7.94325,-0.78655469 c -0.1523437,0.1875 -0.1523437,0.22265625 -0.1523437,0.50390625 v 0.28125 h 5.6249997 z m 0,0"
       style="fill:#f9f9f9;fill-opacity:1;fill-rule:nonzero;stroke:none"
       aria-label="12"
       transform="matrix(1.3333333,0,0,1.3333333,178.784,718.85733)"
       clip-path="url(#clipPath181)" />
    <path
       id="path182"
       d="m 86.50327,26.2598 c 0,4.21826 -3.41951,7.63777 -7.63777,7.63777 -4.21825,0 -7.63776,-3.41951 -7.63776,-7.63777 0,-4.21827 3.41951,-7.63776 7.63776,-7.63776 4.21826,0 7.63777,3.41949 7.63777,7.63776 z"
       style="fill:#000000;fill-opacity:1;fill-rule:nonzero;stroke:#000000;stroke-width:0.3985;stroke-linecap:butt;stroke-linejoin:miter;stroke-miterlimit:10;stroke-dasharray:none;stroke-opacity:1"
       transform="matrix(1.3333333,0,0,-1.3333333,83.648,782.20133)"
       clip-path="url(#clipPath183)" />
    <path
       id="path184"
       d="M 6.0926953,3.59375e-4 V -0.71448437 h -1.78125 V -9.5387031 c 0,-0.4804689 -0.070312,-0.4804689 -0.5976562,-0.4804689 -1.0078125,0.9726564 -2.6132813,0.9726564 -3.15234379,0.9726564 v 0.7265625 c 0.3984375,0 1.12499999,0 1.93359379,-0.2695313 v 7.87500003 H 0.78410156 V 3.59375e-4 C 1.3583203,-0.04651562 2.7528516,-0.04651562 3.4091016,-0.04651562 c 0.65625,0 2.0976562,0 2.6835937,0.046874995 z M 14.225508,-4.8863594 c 0,-1.453125 0,-5.1328126 -3.210938,-5.1328126 -3.2226559,0 -3.2226559,3.6562501 -3.2226559,5.1328126 0,1.4765625 0,5.05078128 3.2109379,5.05078128 3.222656,0 3.222656,-3.56249998 3.222656,-5.05078128 z m -1.957031,-0.1757812 c 0,1.0078125 0,2.4023437 -0.05859,3.1289062 -0.105469,1.33593753 -0.890625,1.54687503 -1.195313,1.54687503 -0.292968,0 -1.1132809,-0.1640625 -1.2070309,-1.61718753 -0.058594,-0.7851562 -0.058594,-2.5429687 -0.058594,-3.046875 0,-0.6679687 0,-2.25 0.046875,-2.90625 0.1171875,-1.4648437 1.0546879,-1.5117187 1.2070319,-1.5117187 0.398437,0 1.113281,0.2578125 1.207031,1.5 0.05859,0.6796875 0.05859,2.3671875 0.05859,2.90625 z m 0,0"
       style="fill:#f9f9f9;fill-opacity:1;fill-rule:nonzero;stroke:none"
       aria-label="10"
       transform="matrix(1.3333333,0,0,1.3333333,178.56,753.75733)"
       clip-path="url(#clipPath185)" />
    <path
       id="path186"
       d="m 112.76308,52.51962 c 0,4.21826 -3.4195,7.63776 -7.63776,7.63776 -4.21826,0 -7.63776,-3.4195 -7.63776,-7.63776 0,-4.21826 3.4195,-7.63777 7.63776,-7.63777 4.21826,0 7.63776,3.41951 7.63776,7.63777 z"
       style="fill:#000000;fill-opacity:1;fill-rule:nonzero;stroke:#000000;stroke-width:0.3985;stroke-linecap:butt;stroke-linejoin:miter;stroke-miterlimit:10;stroke-dasharray:none;stroke-opacity:1"
       transform="matrix(1.3333333,0,0,-1.3333333,83.648,782.20133)"
       clip-path="url(#clipPath187)" />
    <path
       id="path188"
       d="m 8.6710625,-3.3517656 c 0,-1.96875 -1.3828125,-2.8359375 -2.0039062,-3.2226563 0.9960937,-0.6796875 1.5234375,-1.3710937 1.5234375,-2.4140625 0,-1.6874996 -1.359375,-2.6249996 -3.1757813,-2.6249996 -2.1445312,0 -3.2226562,1.453125 -3.2226562,3.1406246 0,0.9960938 0.421875,2.0039063 1.453125,2.671875 -0.8671875,0.5390625 -1.9335938,1.3125 -1.9335938,2.9296875 0,2.00390627 1.6171875,3.07031252 3.65625,3.07031252 2.4375,0 3.703125,-1.61718752 3.703125,-3.55078122 z M 6.866375,-8.9884844 c 0,1.03125 -0.5859375,1.6640625 -0.9257812,1.9335938 L 3.8429375,-8.4025469 c -0.1875,-0.1289062 -0.7265625,-0.46875 -0.7265625,-1.1367187 0,-0.9375004 0.8671875,-1.3828124 1.8515625,-1.3828124 1.3476563,0 1.8984375,0.9609374 1.8984375,1.9335936 z m 0.28125,6.6328125 c 0,1.171875 -0.9375,1.79296877 -2.1328125,1.79296877 -1.453125,0 -2.1796875,-1.01953127 -2.1796875,-2.33203127 0,-1.453125 0.8554688,-2.15625 1.1484375,-2.4023437 1.0195313,0.65625 1.0546875,0.65625 1.8867188,1.1835937 0.6679687,0.4453125 1.2773437,0.8320313 1.2773437,1.7578125 z m 0,0"
       style="fill:#f9f9f9;fill-opacity:1;fill-rule:nonzero;stroke:none"
       aria-label="8"
       transform="matrix(1.3333333,0,0,1.3333333,217.15733,719.78933)"
       clip-path="url(#clipPath189)" />
    <path
       id="path190"
       d="m 112.76308,26.2598 c 0,4.21826 -3.4195,7.63777 -7.63776,7.63777 -4.21826,0 -7.63776,-3.41951 -7.63776,-7.63777 0,-4.21827 3.4195,-7.63776 7.63776,-7.63776 4.21826,0 7.63776,3.41949 7.63776,7.63776 z"
       style="fill:#ffffff;fill-opacity:1;fill-rule:nonzero;stroke:#ffffff;stroke-width:0.3985;stroke-linecap:butt;stroke-linejoin:miter;stroke-miterlimit:10;stroke-dasharray:none;stroke-opacity:1"
       transform="matrix(1.3333333,0,0,-1.3333333,83.648,782.20133)"
       clip-path="url(#clipPath191)" />
    <path
       id="path192"
       d="m 8.6710625,-5.8480703 c 0,-1.171875 0,-5.7656247 -3.65625,-5.7656247 -1.3945312,0 -2.0859375,0.480468 -2.6601562,1.042968 -0.796875,0.7851567 -1.0429688,1.5937504 -1.0429688,2.7656254 0,2.5546875 1.6289063,3.7851563 3.4335938,3.7851563 0.2929687,0 1.0664062,-0.023437 1.5117187,-0.8789063 -0.011719,0.46875 -0.011719,0.9257813 -0.046875,1.3828125 -0.082031,1.0664063 -0.1875,1.5351563 -0.4453125,2.0039063 -0.1992187,0.328125 -0.6914062,0.94921874 -1.546875,0.94921874 -0.1640625,0 -0.7617187,-0.0234375 -1.171875,-0.3984375 0.515625,-0.0820312 0.9257813,-0.48046874 0.9257813,-1.10156254 0,-0.5976562 -0.4101563,-1.0898437 -1.1015625,-1.0898437 -0.6328125,0 -1.1132813,0.3984375 -1.1132813,1.1484375 0,1.14843749 0.796875,2.20312499 2.4960938,2.20312499 1.5585937,0 4.4179687,-1.03125 4.4179687,-6.04687499 z M 6.257,-7.9105703 c 0,1.6523437 -0.1757812,3.2460937 -1.3828125,3.2460937 -0.6914062,0 -1.03125,-0.515625 -1.1015625,-1.0078125 C 3.72575,-6.1293203 3.72575,-7.4301016 3.72575,-7.7113516 c 0,-0.8554687 0,-1.7695312 0.1054688,-2.25 0.070312,-0.3750004 0.4101562,-0.9609374 1.21875,-0.9609374 0.6445312,0 0.9375,0.597656 1.078125,1.0429687 0.023437,0.058594 0.1289062,0.3632812 0.1289062,1.96875 z m 0,0"
       style="fill:#000000;fill-opacity:1;fill-rule:nonzero;stroke:none"
       aria-label="9"
       transform="matrix(1.3333333,0,0,1.3333333,217.15733,754.80133)"
       clip-path="url(#clipPath193)" />
    <path
       id="path194"
       d="m 139.02289,105.03925 c 0,4.21825 -3.41949,7.63777 -7.63776,7.63777 -4.21826,0 -7.63777,-3.41952 -7.63777,-7.63777 0,-4.21827 3.41951,-7.63776 7.63777,-7.63776 4.21827,0 7.63776,3.41949 7.63776,7.63776 z"
       style="fill:#ffffff;fill-opacity:1;fill-rule:nonzero;stroke:#ffffff;stroke-width:0.3985;stroke-linecap:butt;stroke-linejoin:miter;stroke-miterlimit:10;stroke-dasharray:none;stroke-opacity:1"
       transform="matrix(1.3333333,0,0,-1.3333333,83.648,782.20133)"
       clip-path="url(#clipPath195)" />
    <path
       id="path196"
       d="M 6.0945938,2.34375e-5 V -0.71482031 h -1.78125 V -9.5390391 c 0,-0.4804689 -0.070312,-0.4804689 -0.5976563,-0.4804689 -1.0078125,0.9726564 -2.6132812,0.9726564 -3.15234375,0.9726564 v 0.7265625 c 0.3984375,0 1.12500005,0 1.93359375,-0.2695312 v 7.87499999 H 0.786 V 2.34375e-5 C 1.3602188,-0.04685156 2.75475,-0.04685156 3.411,-0.04685156 c 0.65625,0 2.0976563,0 2.6835938,0.0468749975 z m 6.6533202,0 V -0.71482031 h -1.78125 V -9.5390391 c 0,-0.4804689 -0.07031,-0.4804689 -0.597656,-0.4804689 -1.0078127,0.9726564 -2.6132814,0.9726564 -3.1523439,0.9726564 v 0.7265625 c 0.3984375,0 1.125,0 1.9335937,-0.2695312 v 7.87499999 H 7.4393203 V 2.34375e-5 C 8.0135391,-0.04685156 9.4080703,-0.04685156 10.06432,-0.04685156 c 0.65625,0 2.097657,0 2.683594,0.0468749975 z m 0,0"
       style="fill:#000000;fill-opacity:1;fill-rule:nonzero;stroke:none"
       aria-label="11"
       transform="matrix(1.3333333,0,0,1.3333333,249.952,648.832)"
       clip-path="url(#clipPath197)" />
    <path
       id="path198"
       d="m 191.54251,131.29906 c 0,4.21826 -3.41949,7.63775 -7.63776,7.63775 -4.21825,0 -7.63775,-3.41949 -7.63775,-7.63775 0,-4.21826 3.4195,-7.63777 7.63775,-7.63777 4.21827,0 7.63776,3.41951 7.63776,7.63777 z"
       style="fill:#ffffff;fill-opacity:1;fill-rule:nonzero;stroke:#ffffff;stroke-width:0.3985;stroke-linecap:butt;stroke-linejoin:miter;stroke-miterlimit:10;stroke-dasharray:none;stroke-opacity:1"
       transform="matrix(1.3333333,0,0,-1.3333333,83.648,782.20133)"
       clip-path="url(#clipPath199)" />
    <path
       id="path200"
       d="M 6.0947031,2.734375e-4 V -0.71457031 h -1.78125 V -9.5387891 c 0,-0.4804689 -0.070312,-0.4804689 -0.5976562,-0.4804689 -1.0078125,0.9726564 -2.6132813,0.9726564 -3.15234377,0.9726564 v 0.7265625 c 0.3984375,0 1.12499997,0 1.93359377,-0.2695312 v 7.87499999 H 0.78610938 V 2.734375e-4 C 1.3603281,-0.04660156 2.7548594,-0.04660156 3.4111094,-0.04660156 c 0.65625,0 2.0976562,0 2.6835937,0.0468749975 z M 13.896461,-3.0934766 c 0,-1.9101562 -1.253906,-3.1640625 -3.082031,-3.1640625 -0.292969,0 -0.9257816,0.011719 -1.6054691,0.46875 v -1.921875 c 0.2460938,0.058594 0.3398438,0.070312 0.7968751,0.070312 2.085937,0 3.292969,-1.7109375 3.292969,-2.109375 0,-0.1054687 -0.03516,-0.2695309 -0.210938,-0.2695309 -0.04687,0 -0.08203,0 -0.199219,0.070312 -0.714843,0.2929687 -1.417968,0.4101562 -2.039062,0.4101562 -0.9375001,0 -1.6054688,-0.2460937 -2.0390626,-0.421875 -0.09375,-0.035156 -0.140625,-0.058594 -0.1875,-0.058594 -0.2226562,0 -0.2226562,0.199219 -0.2226562,0.433594 v 4.4179688 c 0,0.3046875 0,0.5039062 0.3515625,0.5039062 0.1640625,0 0.234375,-0.046875 0.3046875,-0.1523437 0.1640625,-0.2460938 0.6445312,-0.890625 1.6992188,-0.890625 0.960937,0 0.960937,1.1132812 0.960937,2.5195312 0,0.7265625 0,1.3945313 -0.164062,1.8515625 -0.199219,0.59765629 -0.75,0.84375004 -1.230469,0.84375004 -0.5273436,0 -1.1718748,-0.29296875 -1.5351561,-0.94921874 0.7148438,-0.023437 1.0546875,-0.4921875 1.0546875,-1.0195313 0,-0.8085937 -0.6679687,-1.0429687 -1.03125,-1.0429687 -0.2226562,0 -1.0195312,0.140625 -1.0195312,1.0664062 0,1.21875 0.9257812,2.60156254 2.6015628,2.60156254 1.980468,0 3.503906,-1.20703124 3.503906,-3.25781164 z m 0,0"
       style="fill:#000000;fill-opacity:1;fill-rule:nonzero;stroke:none"
       aria-label="15"
       transform="matrix(1.3333333,0,0,1.3333333,318.83467,613.70667)"
       clip-path="url(#clipPath201)" />
    <path
       id="path202"
       d="m 191.45645,105.39609 c 0,4.21826 -3.41951,7.63775 -7.63777,7.63775 -4.21826,0 -7.63776,-3.41949 -7.63776,-7.63775 0,-4.21826 3.4195,-7.63777 7.63776,-7.63777 4.21826,0 7.63777,3.41951 7.63777,7.63777 z"
       style="fill:#000000;fill-opacity:1;fill-rule:nonzero;stroke:#000000;stroke-width:0.3985;stroke-linecap:butt;stroke-linejoin:miter;stroke-miterlimit:10;stroke-dasharray:none;stroke-opacity:1"
       transform="matrix(1.3333333,0,0,-1.3333333,83.648,782.20133)"
       clip-path="url(#clipPath203)" />
    <path
       id="path204"
       d="m 12.257,0.00124219 v -0.796875 H 10.815594 L 7.0655938,-11.436258 C 6.91325,-11.869852 6.7374688,-11.88157 6.4327813,-11.88157 c -0.3046875,0 -0.4921875,0 -0.6445313,0.445312 L 2.178875,-1.1940703 c -0.082031,0.25781249 -0.1054687,0.30468749 -0.5976562,0.36328124 -0.3398438,0.0351563 -0.72656255,0.0351563 -0.98437505,0.0351563 v 0.796875 l 1.80468755,-0.046875 2.0039062,0.046875 v -0.796875 c -0.1289062,0 -1.3242187,0 -1.3242187,-0.21093744 l 0.070312,-0.1992188 0.65625,-1.8867187 H 7.546062 l 0.796875,2.29687494 H 6.9249688 v 0.796875 c 0.6210937,-0.046875 2.0976562,-0.046875 2.7773437,-0.046875 0.6679685,0 1.9453125,0 2.5546875,0.04687495 z M 7.2530938,-3.9011016 H 4.0890313 l 1.5820312,-4.4882812 z m 0,0"
       style="fill:#f9f9f9;fill-opacity:1;fill-rule:nonzero;stroke:none"
       aria-label="A"
       transform="matrix(1.3333333,0,0,1.3333333,320.15733,649.596)"
       clip-path="url(#clipPath205)" />
    <path
       id="path206"
       d="m 244.06215,105.03925 c 0,4.21825 -3.41951,7.63777 -7.63777,7.63777 -4.21826,0 -7.63776,-3.41952 -7.63776,-7.63777 0,-4.21827 3.4195,-7.63776 7.63776,-7.63776 4.21826,0 7.63777,3.41949 7.63777,7.63776 z"
       style="fill:#ffffff;fill-opacity:1;fill-rule:nonzero;stroke:#ffffff;stroke-width:0.3985;stroke-linecap:butt;stroke-linejoin:miter;stroke-miterlimit:10;stroke-dasharray:none;stroke-opacity:1"
       transform="matrix(1.3333333,0,0,-1.3333333,83.648,782.20133)"
       clip-path="url(#clipPath207)" />
    <path
       id="path208"
       d="m 6.0951641,-9.375e-4 v -0.71484375 h -1.78125 V -9.54 c 0,-0.480469 -0.070312,-0.480469 -0.5976563,-0.480469 -1.0078125,0.9726565 -2.6132812,0.9726565 -3.15234374,0.9726565 V -8.32125 c 0.3984375,0 1.12500004,0 1.93359374,-0.2695313 v 7.87500005 H 0.78657031 V -9.375e-4 c 0.57421879,-0.046875 1.96874999,-0.046875 2.62499999,-0.046875 0.65625,0 2.0976563,0 2.6835938,0.046875 z m 8.0478519,-2.7539063 c 0,-0.9023437 -0.46875,-2.1914062 -2.34375,-2.6132812 0.773437,-0.3164063 1.921875,-1.1367188 1.921875,-2.53125 0,-1.2421875 -1.125,-2.121094 -2.964844,-2.121094 -1.6054689,0 -2.5546876,1.1132815 -2.5546876,2.1796877 0,0.7265625 0.5039062,1.0898438 1.0546875,1.0898438 0.6914062,0 1.0664061,-0.4921875 1.0664061,-1.0546875 0,-0.3164063 -0.128906,-0.9609375 -0.9726561,-1.0546875 0.46875,-0.5039063 1.0664061,-0.5625 1.3125001,-0.5625 0.949219,0 0.960937,0.9375 0.960937,1.4648437 0,0.1054688 0,0.9492188 -0.222656,1.5703125 -0.28125,0.6914063 -0.644531,0.7265625 -1.207031,0.75 -0.3867189,0.035156 -0.4921876,0.046875 -0.4921876,0.3164063 0,0.2695312 0.1523437,0.2695312 0.4218746,0.2695312 h 0.398438 c 1.21875,0 1.277344,1.1367188 1.277344,2.2851563 0,0.8203125 0,2.2734375 -1.148438,2.2734375 -0.503906,0 -1.1015624,-0.19921875 -1.4882811,-0.50390625 0.4570312,-0.0937499 0.9609371,-0.44531255 0.9609371,-1.16015625 0,-0.6914063 -0.4804684,-1.1601563 -1.1601559,-1.1601563 -0.6445312,0 -1.171875,0.4101563 -1.171875,1.1835938 0,1.2421875 1.2070313,2.296875 2.9296879,2.296875 2.203125,0 3.421875,-1.3242188 3.421875,-2.9179688 z m 0,0"
       style="fill:#000000;fill-opacity:1;fill-rule:nonzero;stroke:none"
       aria-label="13"
       transform="matrix(1.3333333,0,0,1.3333333,388.69733,648.72)"
       clip-path="url(#clipPath209)" />
    <path
       id="path210"
       d="m 270.32196,78.77942 c 0,4.21826 -3.41949,7.63777 -7.63776,7.63777 -4.21826,0 -7.63775,-3.41951 -7.63775,-7.63777 0,-4.21825 3.41949,-7.63776 7.63775,-7.63776 4.21827,0 7.63776,3.41951 7.63776,7.63776 z"
       style="fill:#000000;fill-opacity:1;fill-rule:nonzero;stroke:#000000;stroke-width:0.3985;stroke-linecap:butt;stroke-linejoin:miter;stroke-miterlimit:10;stroke-dasharray:none;stroke-opacity:1"
       transform="matrix(1.3333333,0,0,-1.3333333,83.648,782.20133)"
       clip-path="url(#clipPath211)" />
    <path
       id="path212"
       d="M 6.0945156,6.015625e-4 V -0.71424219 h -1.78125 V -9.5384609 c 0,-0.4804691 -0.070312,-0.4804691 -0.5976562,-0.4804691 -1.0078125,0.9726566 -2.6132813,0.9726566 -3.15234378,0.9726566 v 0.7265625 c 0.3984375,0 1.12499998,0 1.93359378,-0.2695313 v 7.87500001 H 0.78592187 V 6.015625e-4 C 1.3601406,-0.04627344 2.7546719,-0.04627344 3.4109219,-0.04627344 c 0.65625,0 2.0976562,0 2.6835937,0.0468750025 z m 7.9072264,0 V -0.71424219 H 12.841586 V -2.3900234 h 1.160156 v -0.7148438 h -1.160156 v -6.4453125 c 0,-0.3867187 -0.02344,-0.4921873 -0.445313,-0.4921873 -0.246093,0 -0.328125,0 -0.480468,0.2343748 l -4.6992191,6.703125 v 0.7148438 h 3.7031251 v 1.67578121 H 9.4431484 V 6.015625e-4 C 9.9704922,-0.04627344 11.224398,-0.04627344 11.822055,-0.04627344 c 0.632812,0 1.582031,0 2.179687,0.0468750025 z M 11.095492,-3.1048672 H 7.9665859 l 3.1289061,-4.4414062 z m 0,0"
       style="fill:#000000;fill-opacity:1;fill-rule:nonzero;stroke:none"
       aria-label="14"
       transform="matrix(1.3333333,0,0,1.3333333,424.17867,683.85467)"
       clip-path="url(#clipPath213)" />
  </g>
</svg>
