<?xml version="1.0" encoding="UTF-8" standalone="no"?>
<!-- Created with Inkscape (http://www.inkscape.org/) -->

<svg
   version="1.1"
   id="svg1"
   width="632.32294"
   height="632.32294"
   viewBox="0 0 632.32293 632.32293"
   sodipodi:docname="neofanaro.io.pdf"
   xmlns:inkscape="http://www.inkscape.org/namespaces/inkscape"
   xmlns:sodipodi="http://sodipodi.sourceforge.net/DTD/sodipodi-0.dtd"
   xmlns="http://www.w3.org/2000/svg"
   xmlns:svg="http://www.w3.org/2000/svg">
  <defs
     id="defs1">
    <clipPath
       clipPathUnits="userSpaceOnUse"
       id="clipPath3">
      <path
         d="M -13.12968,-13.12968 V 498.93645 H 498.93645 V -13.12968 Z"
         id="path3" />
    </clipPath>
    <clipPath
       clipPathUnits="userSpaceOnUse"
       id="clipPath5">
      <path
         d="M -13.12968,-13.12968 V 498.93645 H 498.93645 V -13.12968 Z"
         id="path5" />
    </clipPath>
    <clipPath
       clipPathUnits="userSpaceOnUse"
       id="clipPath7">
      <path
         d="M -13.12968,-13.12968 V 498.93645 H 498.93645 V -13.12968 Z"
         id="path7" />
    </clipPath>
    <clipPath
       clipPathUnits="userSpaceOnUse"
       id="clipPath9">
      <path
         d="M -13.12968,-13.12968 V 498.93645 H 498.93645 V -13.12968 Z"
         id="path9" />
    </clipPath>
    <clipPath
       clipPathUnits="userSpaceOnUse"
       id="clipPath11">
      <path
         d="M -13.12968,-13.12968 V 498.93645 H 498.93645 V -13.12968 Z"
         id="path11" />
    </clipPath>
    <clipPath
       clipPathUnits="userSpaceOnUse"
       id="clipPath13">
      <path
         d="M -13.12968,-13.12968 V 498.93645 H 498.93645 V -13.12968 Z"
         id="path13" />
    </clipPath>
    <clipPath
       clipPathUnits="userSpaceOnUse"
       id="clipPath15">
      <path
         d="M -13.12968,-13.12968 V 498.93645 H 498.93645 V -13.12968 Z"
         id="path15" />
    </clipPath>
    <clipPath
       clipPathUnits="userSpaceOnUse"
       id="clipPath17">
      <path
         d="M -13.12968,-13.12968 V 498.93645 H 498.93645 V -13.12968 Z"
         id="path17" />
    </clipPath>
    <clipPath
       clipPathUnits="userSpaceOnUse"
       id="clipPath19">
      <path
         d="M -13.12968,-13.12968 V 498.93645 H 498.93645 V -13.12968 Z"
         id="path19" />
    </clipPath>
    <clipPath
       clipPathUnits="userSpaceOnUse"
       id="clipPath21">
      <path
         d="M -13.12968,-13.12968 V 498.93645 H 498.93645 V -13.12968 Z"
         id="path21" />
    </clipPath>
    <clipPath
       clipPathUnits="userSpaceOnUse"
       id="clipPath23">
      <path
         d="M -13.12968,-13.12968 V 498.93645 H 498.93645 V -13.12968 Z"
         id="path23" />
    </clipPath>
    <clipPath
       clipPathUnits="userSpaceOnUse"
       id="clipPath25">
      <path
         d="M -13.12968,-13.12968 V 498.93645 H 498.93645 V -13.12968 Z"
         id="path25" />
    </clipPath>
    <clipPath
       clipPathUnits="userSpaceOnUse"
       id="clipPath27">
      <path
         d="M -13.12968,-13.12968 V 498.93645 H 498.93645 V -13.12968 Z"
         id="path27" />
    </clipPath>
    <clipPath
       clipPathUnits="userSpaceOnUse"
       id="clipPath29">
      <path
         d="M -13.12968,-13.12968 V 498.93645 H 498.93645 V -13.12968 Z"
         id="path29" />
    </clipPath>
    <clipPath
       clipPathUnits="userSpaceOnUse"
       id="clipPath31">
      <path
         d="M -13.12968,-13.12968 V 498.93645 H 498.93645 V -13.12968 Z"
         id="path31" />
    </clipPath>
    <clipPath
       clipPathUnits="userSpaceOnUse"
       id="clipPath33">
      <path
         d="M -13.12968,-13.12968 V 498.93645 H 498.93645 V -13.12968 Z"
         id="path33" />
    </clipPath>
    <clipPath
       clipPathUnits="userSpaceOnUse"
       id="clipPath35">
      <path
         d="M -13.12968,-13.12968 V 498.93645 H 498.93645 V -13.12968 Z"
         id="path35" />
    </clipPath>
    <clipPath
       clipPathUnits="userSpaceOnUse"
       id="clipPath37">
      <path
         d="M -13.12968,-13.12968 V 498.93645 H 498.93645 V -13.12968 Z"
         id="path37" />
    </clipPath>
    <clipPath
       clipPathUnits="userSpaceOnUse"
       id="clipPath39">
      <path
         d="M -13.12968,-13.12968 V 498.93645 H 498.93645 V -13.12968 Z"
         id="path39" />
    </clipPath>
    <clipPath
       clipPathUnits="userSpaceOnUse"
       id="clipPath41">
      <path
         d="M -13.12968,-13.12968 V 498.93645 H 498.93645 V -13.12968 Z"
         id="path41" />
    </clipPath>
    <clipPath
       clipPathUnits="userSpaceOnUse"
       id="clipPath43">
      <path
         d="M -13.12968,-13.12968 V 498.93645 H 498.93645 V -13.12968 Z"
         id="path43" />
    </clipPath>
    <clipPath
       clipPathUnits="userSpaceOnUse"
       id="clipPath45">
      <path
         d="M -13.12968,-13.12968 V 498.93645 H 498.93645 V -13.12968 Z"
         id="path45" />
    </clipPath>
    <clipPath
       clipPathUnits="userSpaceOnUse"
       id="clipPath47">
      <path
         d="M -13.12968,-13.12968 V 498.93645 H 498.93645 V -13.12968 Z"
         id="path47" />
    </clipPath>
    <clipPath
       clipPathUnits="userSpaceOnUse"
       id="clipPath49">
      <path
         d="M -13.12968,-13.12968 V 498.93645 H 498.93645 V -13.12968 Z"
         id="path49" />
    </clipPath>
    <clipPath
       clipPathUnits="userSpaceOnUse"
       id="clipPath51">
      <path
         d="M -13.12968,-13.12968 V 498.93645 H 498.93645 V -13.12968 Z"
         id="path51" />
    </clipPath>
    <clipPath
       clipPathUnits="userSpaceOnUse"
       id="clipPath53">
      <path
         d="M -13.12968,-13.12968 V 498.93645 H 498.93645 V -13.12968 Z"
         id="path53" />
    </clipPath>
    <clipPath
       clipPathUnits="userSpaceOnUse"
       id="clipPath55">
      <path
         d="M -13.12968,-13.12968 V 498.93645 H 498.93645 V -13.12968 Z"
         id="path55" />
    </clipPath>
    <clipPath
       clipPathUnits="userSpaceOnUse"
       id="clipPath57">
      <path
         d="M -13.12968,-13.12968 V 498.93645 H 498.93645 V -13.12968 Z"
         id="path57" />
    </clipPath>
    <clipPath
       clipPathUnits="userSpaceOnUse"
       id="clipPath59">
      <path
         d="M -13.12968,-13.12968 V 498.93645 H 498.93645 V -13.12968 Z"
         id="path59" />
    </clipPath>
    <clipPath
       clipPathUnits="userSpaceOnUse"
       id="clipPath61">
      <path
         d="M -13.12968,-13.12968 V 498.93645 H 498.93645 V -13.12968 Z"
         id="path61" />
    </clipPath>
    <clipPath
       clipPathUnits="userSpaceOnUse"
       id="clipPath63">
      <path
         d="M -13.12968,-13.12968 V 498.93645 H 498.93645 V -13.12968 Z"
         id="path63" />
    </clipPath>
    <clipPath
       clipPathUnits="userSpaceOnUse"
       id="clipPath65">
      <path
         d="M -13.12968,-13.12968 V 498.93645 H 498.93645 V -13.12968 Z"
         id="path65" />
    </clipPath>
    <clipPath
       clipPathUnits="userSpaceOnUse"
       id="clipPath67">
      <path
         d="M -13.12968,-13.12968 V 498.93645 H 498.93645 V -13.12968 Z"
         id="path67" />
    </clipPath>
    <clipPath
       clipPathUnits="userSpaceOnUse"
       id="clipPath69">
      <path
         d="M -13.12968,-13.12968 V 498.93645 H 498.93645 V -13.12968 Z"
         id="path69" />
    </clipPath>
    <clipPath
       clipPathUnits="userSpaceOnUse"
       id="clipPath71">
      <path
         d="M -13.12968,-13.12968 V 498.93645 H 498.93645 V -13.12968 Z"
         id="path71" />
    </clipPath>
    <clipPath
       clipPathUnits="userSpaceOnUse"
       id="clipPath73">
      <path
         d="M -13.12968,-13.12968 V 498.93645 H 498.93645 V -13.12968 Z"
         id="path73" />
    </clipPath>
    <clipPath
       clipPathUnits="userSpaceOnUse"
       id="clipPath75">
      <path
         d="M -13.12968,-13.12968 V 498.93645 H 498.93645 V -13.12968 Z"
         id="path75" />
    </clipPath>
    <clipPath
       clipPathUnits="userSpaceOnUse"
       id="clipPath77">
      <path
         d="M -13.12968,-13.12968 V 498.93645 H 498.93645 V -13.12968 Z"
         id="path77" />
    </clipPath>
    <clipPath
       clipPathUnits="userSpaceOnUse"
       id="clipPath79">
      <path
         d="M -13.12968,-13.12968 V 498.93645 H 498.93645 V -13.12968 Z"
         id="path79" />
    </clipPath>
    <clipPath
       clipPathUnits="userSpaceOnUse"
       id="clipPath81">
      <path
         d="M -13.12968,-13.12968 V 498.93645 H 498.93645 V -13.12968 Z"
         id="path81" />
    </clipPath>
    <clipPath
       clipPathUnits="userSpaceOnUse"
       id="clipPath83">
      <path
         d="M -13.12968,-13.12968 V 498.93645 H 498.93645 V -13.12968 Z"
         id="path83" />
    </clipPath>
    <clipPath
       clipPathUnits="userSpaceOnUse"
       id="clipPath85">
      <path
         d="M -13.12968,-13.12968 V 498.93645 H 498.93645 V -13.12968 Z"
         id="path85" />
    </clipPath>
    <clipPath
       clipPathUnits="userSpaceOnUse"
       id="clipPath87">
      <path
         d="M -13.12968,-13.12968 V 498.93645 H 498.93645 V -13.12968 Z"
         id="path87" />
    </clipPath>
    <clipPath
       clipPathUnits="userSpaceOnUse"
       id="clipPath89">
      <path
         d="M -13.12968,-13.12968 V 498.93645 H 498.93645 V -13.12968 Z"
         id="path89" />
    </clipPath>
    <clipPath
       clipPathUnits="userSpaceOnUse"
       id="clipPath91">
      <path
         d="M -13.12968,-13.12968 V 498.93645 H 498.93645 V -13.12968 Z"
         id="path91" />
    </clipPath>
    <clipPath
       clipPathUnits="userSpaceOnUse"
       id="clipPath93">
      <path
         d="M -13.12968,-13.12968 V 498.93645 H 498.93645 V -13.12968 Z"
         id="path93" />
    </clipPath>
    <clipPath
       clipPathUnits="userSpaceOnUse"
       id="clipPath95">
      <path
         d="M -13.12968,-13.12968 V 498.93645 H 498.93645 V -13.12968 Z"
         id="path95" />
    </clipPath>
    <clipPath
       clipPathUnits="userSpaceOnUse"
       id="clipPath97">
      <path
         d="M -13.12968,-13.12968 V 498.93645 H 498.93645 V -13.12968 Z"
         id="path97" />
    </clipPath>
    <clipPath
       clipPathUnits="userSpaceOnUse"
       id="clipPath99">
      <path
         d="M -13.12968,-13.12968 V 498.93645 H 498.93645 V -13.12968 Z"
         id="path99" />
    </clipPath>
    <clipPath
       clipPathUnits="userSpaceOnUse"
       id="clipPath101">
      <path
         d="M -13.12968,-13.12968 V 498.93645 H 498.93645 V -13.12968 Z"
         id="path101" />
    </clipPath>
    <clipPath
       clipPathUnits="userSpaceOnUse"
       id="clipPath103">
      <path
         d="M -13.12968,-13.12968 V 498.93645 H 498.93645 V -13.12968 Z"
         id="path103" />
    </clipPath>
    <clipPath
       clipPathUnits="userSpaceOnUse"
       id="clipPath105">
      <path
         d="M -13.12968,-13.12968 V 498.93645 H 498.93645 V -13.12968 Z"
         id="path105" />
    </clipPath>
    <clipPath
       clipPathUnits="userSpaceOnUse"
       id="clipPath107">
      <path
         d="M -13.12968,-13.12968 V 498.93645 H 498.93645 V -13.12968 Z"
         id="path107" />
    </clipPath>
    <clipPath
       clipPathUnits="userSpaceOnUse"
       id="clipPath109">
      <path
         d="M -13.12968,-13.12968 V 498.93645 H 498.93645 V -13.12968 Z"
         id="path109" />
    </clipPath>
    <clipPath
       clipPathUnits="userSpaceOnUse"
       id="clipPath111">
      <path
         d="M -13.12968,-13.12968 V 498.93645 H 498.93645 V -13.12968 Z"
         id="path111" />
    </clipPath>
    <clipPath
       clipPathUnits="userSpaceOnUse"
       id="clipPath113">
      <path
         d="M -13.12968,-13.12968 V 498.93645 H 498.93645 V -13.12968 Z"
         id="path113" />
    </clipPath>
    <clipPath
       clipPathUnits="userSpaceOnUse"
       id="clipPath115">
      <path
         d="M -13.12968,-13.12968 V 498.93645 H 498.93645 V -13.12968 Z"
         id="path115" />
    </clipPath>
    <clipPath
       clipPathUnits="userSpaceOnUse"
       id="clipPath117">
      <path
         d="M -13.12968,-13.12968 V 498.93645 H 498.93645 V -13.12968 Z"
         id="path117" />
    </clipPath>
    <clipPath
       clipPathUnits="userSpaceOnUse"
       id="clipPath119">
      <path
         d="M -13.12968,-13.12968 V 498.93645 H 498.93645 V -13.12968 Z"
         id="path119" />
    </clipPath>
    <clipPath
       clipPathUnits="userSpaceOnUse"
       id="clipPath121">
      <path
         d="M -13.12968,-13.12968 V 498.93645 H 498.93645 V -13.12968 Z"
         id="path121" />
    </clipPath>
    <clipPath
       clipPathUnits="userSpaceOnUse"
       id="clipPath123">
      <path
         d="M -13.12968,-13.12968 V 498.93645 H 498.93645 V -13.12968 Z"
         id="path123" />
    </clipPath>
    <clipPath
       clipPathUnits="userSpaceOnUse"
       id="clipPath125">
      <path
         d="M -13.12968,-13.12968 V 498.93645 H 498.93645 V -13.12968 Z"
         id="path125" />
    </clipPath>
    <clipPath
       clipPathUnits="userSpaceOnUse"
       id="clipPath127">
      <path
         d="M -13.12968,-13.12968 V 498.93645 H 498.93645 V -13.12968 Z"
         id="path127" />
    </clipPath>
    <clipPath
       clipPathUnits="userSpaceOnUse"
       id="clipPath129">
      <path
         d="M -13.12968,-13.12968 V 498.93645 H 498.93645 V -13.12968 Z"
         id="path129" />
    </clipPath>
    <clipPath
       clipPathUnits="userSpaceOnUse"
       id="clipPath131">
      <path
         d="M -13.12968,-13.12968 V 498.93645 H 498.93645 V -13.12968 Z"
         id="path131" />
    </clipPath>
    <clipPath
       clipPathUnits="userSpaceOnUse"
       id="clipPath133">
      <path
         d="M -13.12968,-13.12968 V 498.93645 H 498.93645 V -13.12968 Z"
         id="path133" />
    </clipPath>
    <clipPath
       clipPathUnits="userSpaceOnUse"
       id="clipPath135">
      <path
         d="M -13.12968,-13.12968 V 498.93645 H 498.93645 V -13.12968 Z"
         id="path135" />
    </clipPath>
    <clipPath
       clipPathUnits="userSpaceOnUse"
       id="clipPath137">
      <path
         d="M -13.12968,-13.12968 V 498.93645 H 498.93645 V -13.12968 Z"
         id="path137" />
    </clipPath>
    <clipPath
       clipPathUnits="userSpaceOnUse"
       id="clipPath139">
      <path
         d="M -13.12968,-13.12968 V 498.93645 H 498.93645 V -13.12968 Z"
         id="path139" />
    </clipPath>
    <clipPath
       clipPathUnits="userSpaceOnUse"
       id="clipPath141">
      <path
         d="M -13.12968,-13.12968 V 498.93645 H 498.93645 V -13.12968 Z"
         id="path141" />
    </clipPath>
    <clipPath
       clipPathUnits="userSpaceOnUse"
       id="clipPath143">
      <path
         d="M -13.12968,-13.12968 V 498.93645 H 498.93645 V -13.12968 Z"
         id="path143" />
    </clipPath>
    <clipPath
       clipPathUnits="userSpaceOnUse"
       id="clipPath145">
      <path
         d="M -13.12968,-13.12968 V 498.93645 H 498.93645 V -13.12968 Z"
         id="path145" />
    </clipPath>
    <clipPath
       clipPathUnits="userSpaceOnUse"
       id="clipPath147">
      <path
         d="M -13.12968,-13.12968 V 498.93645 H 498.93645 V -13.12968 Z"
         id="path147" />
    </clipPath>
    <clipPath
       clipPathUnits="userSpaceOnUse"
       id="clipPath149">
      <path
         d="M -13.12968,-13.12968 V 498.93645 H 498.93645 V -13.12968 Z"
         id="path149" />
    </clipPath>
    <clipPath
       clipPathUnits="userSpaceOnUse"
       id="clipPath151">
      <path
         d="M -13.12968,-13.12968 V 498.93645 H 498.93645 V -13.12968 Z"
         id="path151" />
    </clipPath>
    <clipPath
       clipPathUnits="userSpaceOnUse"
       id="clipPath153">
      <path
         d="M -13.12968,-13.12968 V 498.93645 H 498.93645 V -13.12968 Z"
         transform="matrix(1,0,0,-1,-21.495998,46.711999)"
         id="path153" />
    </clipPath>
    <clipPath
       clipPathUnits="userSpaceOnUse"
       id="clipPath155">
      <path
         d="M -13.12968,-13.12968 V 498.93645 H 498.93645 V -13.12968 Z"
         id="path155" />
    </clipPath>
    <clipPath
       clipPathUnits="userSpaceOnUse"
       id="clipPath157">
      <path
         d="M -13.12968,-13.12968 V 498.93645 H 498.93645 V -13.12968 Z"
         transform="matrix(1,0,0,-1,-48.747999,72.970999)"
         id="path157" />
    </clipPath>
    <clipPath
       clipPathUnits="userSpaceOnUse"
       id="clipPath159">
      <path
         d="M -13.12968,-13.12968 V 498.93645 H 498.93645 V -13.12968 Z"
         id="path159" />
    </clipPath>
    <clipPath
       clipPathUnits="userSpaceOnUse"
       id="clipPath161">
      <path
         d="M -13.12968,-13.12968 V 498.93645 H 498.93645 V -13.12968 Z"
         transform="matrix(1,0,0,-1,-73.872999,99.328002)"
         id="path161" />
    </clipPath>
    <clipPath
       clipPathUnits="userSpaceOnUse"
       id="clipPath163">
      <path
         d="M -13.12968,-13.12968 V 498.93645 H 498.93645 V -13.12968 Z"
         id="path163" />
    </clipPath>
    <clipPath
       clipPathUnits="userSpaceOnUse"
       id="clipPath165">
      <path
         d="M -13.12968,-13.12968 V 498.93645 H 498.93645 V -13.12968 Z"
         transform="matrix(1,0,0,-1,-100.66401,125.402)"
         id="path165" />
    </clipPath>
    <clipPath
       clipPathUnits="userSpaceOnUse"
       id="clipPath167">
      <path
         d="M -13.12968,-13.12968 V 498.93645 H 498.93645 V -13.12968 Z"
         id="path167" />
    </clipPath>
    <clipPath
       clipPathUnits="userSpaceOnUse"
       id="clipPath169">
      <path
         d="M -13.12968,-13.12968 V 498.93645 H 498.93645 V -13.12968 Z"
         transform="matrix(1,0,0,-1,-100.132,99.328002)"
         id="path169" />
    </clipPath>
    <clipPath
       clipPathUnits="userSpaceOnUse"
       id="clipPath171">
      <path
         d="M -13.12968,-13.12968 V 498.93645 H 498.93645 V -13.12968 Z"
         id="path171" />
    </clipPath>
    <clipPath
       clipPathUnits="userSpaceOnUse"
       id="clipPath173">
      <path
         d="M -13.12968,-13.12968 V 498.93645 H 498.93645 V -13.12968 Z"
         transform="matrix(1,0,0,-1,-100.54,72.961999)"
         id="path173" />
    </clipPath>
    <clipPath
       clipPathUnits="userSpaceOnUse"
       id="clipPath175">
      <path
         d="M -13.12968,-13.12968 V 498.93645 H 498.93645 V -13.12968 Z"
         id="path175" />
    </clipPath>
    <clipPath
       clipPathUnits="userSpaceOnUse"
       id="clipPath177">
      <path
         d="M -13.12968,-13.12968 V 498.93645 H 498.93645 V -13.12968 Z"
         transform="matrix(1,0,0,-1,-124.863,99.454002)"
         id="path177" />
    </clipPath>
    <clipPath
       clipPathUnits="userSpaceOnUse"
       id="clipPath179">
      <path
         d="M -13.12968,-13.12968 V 498.93645 H 498.93645 V -13.12968 Z"
         id="path179" />
    </clipPath>
    <clipPath
       clipPathUnits="userSpaceOnUse"
       id="clipPath181">
      <path
         d="M -13.12968,-13.12968 V 498.93645 H 498.93645 V -13.12968 Z"
         transform="matrix(1,0,0,-1,-126.534,73.069002)"
         id="path181" />
    </clipPath>
    <clipPath
       clipPathUnits="userSpaceOnUse"
       id="clipPath183">
      <path
         d="M -13.12968,-13.12968 V 498.93645 H 498.93645 V -13.12968 Z"
         id="path183" />
    </clipPath>
    <clipPath
       clipPathUnits="userSpaceOnUse"
       id="clipPath185">
      <path
         d="M -13.12968,-13.12968 V 498.93645 H 498.93645 V -13.12968 Z"
         transform="matrix(1,0,0,-1,-151.788,99.248)"
         id="path185" />
    </clipPath>
  </defs>
  <sodipodi:namedview
     id="namedview1"
     pagecolor="#ffffff"
     bordercolor="#000000"
     borderopacity="0.25"
     inkscape:showpageshadow="2"
     inkscape:pageopacity="0.0"
     inkscape:pagecheckerboard="0"
     inkscape:deskcolor="#d1d1d1" />
  <g
     id="g1"
     inkscape:groupmode="layer"
     inkscape:label="1"
     transform="translate(-82.60862,-150.91779)">
    <path
       id="path2"
       d="M 0,0 472.68314,472.68314"
       style="fill:none;stroke:#000000;stroke-width:1;stroke-linecap:butt;stroke-linejoin:miter;stroke-miterlimit:10;stroke-dasharray:0, 1.99255;stroke-dashoffset:0;stroke-opacity:1"
       transform="matrix(1.3333333,0,0,-1.3333333,83.648,782.20133)"
       clip-path="url(#clipPath3)"
       inkscape:export-filename="../../../../../neofanaro.io/public/articles/okaigo-ai-articles/okaigo_1.2.svg"
       inkscape:export-xdpi="96"
       inkscape:export-ydpi="96" />
    <path
       id="path4"
       d="M 0,0 H 472.68314 M 0,26.2598 H 472.68314 M 0,52.5196 H 472.68314 M 0,78.7794 H 472.68314 M 0,105.03922 H 472.68314 M 0,131.29903 H 472.68314 M 0,157.55882 H 472.68314 M 0,183.81863 H 472.68314 M 0,210.07845 H 472.68314 M 0,236.33824 H 472.68314 M 0,262.59805 H 472.68314 M 0,288.85786 H 472.68314 M 0,315.11766 H 472.68314 M 0,341.37747 H 472.68314 M 0,367.63728 H 472.68314 M 0,393.89708 H 472.68314 M 0,420.15689 H 472.68314 M 0,446.4167 H 472.68314 M 0,472.6765 H 472.68314 M 0,0 V 472.68314 M 26.2598,0 V 472.68314 M 52.5196,0 V 472.68314 M 78.7794,0 V 472.68314 M 105.03922,0 V 472.68314 M 131.29903,0 V 472.68314 M 157.55882,0 V 472.68314 M 183.81863,0 V 472.68314 M 210.07845,0 V 472.68314 M 236.33824,0 V 472.68314 M 262.59805,0 V 472.68314 M 288.85786,0 V 472.68314 M 315.11766,0 V 472.68314 M 341.37747,0 V 472.68314 M 367.63728,0 V 472.68314 M 393.89708,0 V 472.68314 M 420.15689,0 V 472.68314 M 446.4167,0 V 472.68314 M 472.6765,0 v 472.68314"
       style="fill:none;stroke:#000000;stroke-width:0.3985;stroke-linecap:butt;stroke-linejoin:miter;stroke-miterlimit:10;stroke-dasharray:none;stroke-opacity:1"
       transform="matrix(1.3333333,0,0,-1.3333333,83.648,782.20133)"
       clip-path="url(#clipPath5)" />
    <path
       id="path6"
       d="M 0,0 H 472.68314 M 0,472.67317 H 472.68314 M 0,0 V 472.68314 M 472.67317,0 v 472.68314"
       style="fill:none;stroke:#000000;stroke-width:1.55907;stroke-linecap:square;stroke-linejoin:miter;stroke-miterlimit:10;stroke-dasharray:none;stroke-opacity:1"
       transform="matrix(1.3333333,0,0,-1.3333333,83.648,782.20133)"
       clip-path="url(#clipPath7)" />
    <path
       id="path8"
       d="m 239.6204,236.3383 c 0,1.81269 -1.46941,3.2821 -3.2821,3.2821 -1.81267,0 -3.28209,-1.46941 -3.28209,-3.2821 0,-1.81267 1.46942,-3.28209 3.28209,-3.28209 1.81269,0 3.2821,1.46942 3.2821,3.28209 z"
       style="fill:#000000;fill-opacity:1;fill-rule:nonzero;stroke:#000000;stroke-width:0.3985;stroke-linecap:butt;stroke-linejoin:miter;stroke-miterlimit:10;stroke-dasharray:none;stroke-opacity:1"
       transform="matrix(1.3333333,0,0,-1.3333333,83.648,782.20133)"
       clip-path="url(#clipPath9)" />
    <path
       id="path10"
       d="m 82.06152,78.77942 c 0,1.81268 -1.46942,3.2821 -3.2821,3.2821 -1.81267,0 -3.28209,-1.46942 -3.28209,-3.2821 0,-1.81267 1.46942,-3.28209 3.28209,-3.28209 1.81268,0 3.2821,1.46942 3.2821,3.28209 z"
       style="fill:#000000;fill-opacity:1;fill-rule:nonzero;stroke:#000000;stroke-width:0.3985;stroke-linecap:butt;stroke-linejoin:miter;stroke-miterlimit:10;stroke-dasharray:none;stroke-opacity:1"
       transform="matrix(1.3333333,0,0,-1.3333333,83.648,782.20133)"
       clip-path="url(#clipPath11)" />
    <path
       id="path12"
       d="m 397.17929,78.77942 c 0,1.81268 -1.46944,3.2821 -3.2821,3.2821 -1.81267,0 -3.28209,-1.46942 -3.28209,-3.2821 0,-1.81267 1.46942,-3.28209 3.28209,-3.28209 1.81266,0 3.2821,1.46942 3.2821,3.28209 z"
       style="fill:#000000;fill-opacity:1;fill-rule:nonzero;stroke:#000000;stroke-width:0.3985;stroke-linecap:butt;stroke-linejoin:miter;stroke-miterlimit:10;stroke-dasharray:none;stroke-opacity:1"
       transform="matrix(1.3333333,0,0,-1.3333333,83.648,782.20133)"
       clip-path="url(#clipPath13)" />
    <path
       id="path14"
       d="m 82.06152,393.89719 c 0,1.81266 -1.46942,3.2821 -3.2821,3.2821 -1.81267,0 -3.28209,-1.46944 -3.28209,-3.2821 0,-1.81267 1.46942,-3.28209 3.28209,-3.28209 1.81268,0 3.2821,1.46942 3.2821,3.28209 z"
       style="fill:#000000;fill-opacity:1;fill-rule:nonzero;stroke:#000000;stroke-width:0.3985;stroke-linecap:butt;stroke-linejoin:miter;stroke-miterlimit:10;stroke-dasharray:none;stroke-opacity:1"
       transform="matrix(1.3333333,0,0,-1.3333333,83.648,782.20133)"
       clip-path="url(#clipPath15)" />
    <path
       id="path16"
       d="m 397.17929,393.89719 c 0,1.81266 -1.46944,3.2821 -3.2821,3.2821 -1.81267,0 -3.28209,-1.46944 -3.28209,-3.2821 0,-1.81267 1.46942,-3.28209 3.28209,-3.28209 1.81266,0 3.2821,1.46942 3.2821,3.28209 z"
       style="fill:#000000;fill-opacity:1;fill-rule:nonzero;stroke:#000000;stroke-width:0.3985;stroke-linecap:butt;stroke-linejoin:miter;stroke-miterlimit:10;stroke-dasharray:none;stroke-opacity:1"
       transform="matrix(1.3333333,0,0,-1.3333333,83.648,782.20133)"
       clip-path="url(#clipPath17)" />
    <path
       id="path18"
       d="m 82.06152,78.77942 c 0,1.81268 -1.46942,3.2821 -3.2821,3.2821 -1.81267,0 -3.28209,-1.46942 -3.28209,-3.2821 0,-1.81267 1.46942,-3.28209 3.28209,-3.28209 1.81268,0 3.2821,1.46942 3.2821,3.28209 z"
       style="fill:#000000;fill-opacity:1;fill-rule:nonzero;stroke:#000000;stroke-width:0.3985;stroke-linecap:butt;stroke-linejoin:miter;stroke-miterlimit:10;stroke-dasharray:none;stroke-opacity:1"
       transform="matrix(1.3333333,0,0,-1.3333333,83.648,782.20133)"
       clip-path="url(#clipPath19)" />
    <path
       id="path20"
       d="m 397.17929,78.77942 c 0,1.81268 -1.46944,3.2821 -3.2821,3.2821 -1.81267,0 -3.28209,-1.46942 -3.28209,-3.2821 0,-1.81267 1.46942,-3.28209 3.28209,-3.28209 1.81266,0 3.2821,1.46942 3.2821,3.28209 z"
       style="fill:#000000;fill-opacity:1;fill-rule:nonzero;stroke:#000000;stroke-width:0.3985;stroke-linecap:butt;stroke-linejoin:miter;stroke-miterlimit:10;stroke-dasharray:none;stroke-opacity:1"
       transform="matrix(1.3333333,0,0,-1.3333333,83.648,782.20133)"
       clip-path="url(#clipPath21)" />
    <path
       id="path22"
       d="m 82.06152,393.89719 c 0,1.81266 -1.46942,3.2821 -3.2821,3.2821 -1.81267,0 -3.28209,-1.46944 -3.28209,-3.2821 0,-1.81267 1.46942,-3.28209 3.28209,-3.28209 1.81268,0 3.2821,1.46942 3.2821,3.28209 z"
       style="fill:#000000;fill-opacity:1;fill-rule:nonzero;stroke:#000000;stroke-width:0.3985;stroke-linecap:butt;stroke-linejoin:miter;stroke-miterlimit:10;stroke-dasharray:none;stroke-opacity:1"
       transform="matrix(1.3333333,0,0,-1.3333333,83.648,782.20133)"
       clip-path="url(#clipPath23)" />
    <path
       id="path24"
       d="m 397.17929,393.89719 c 0,1.81266 -1.46944,3.2821 -3.2821,3.2821 -1.81267,0 -3.28209,-1.46944 -3.28209,-3.2821 0,-1.81267 1.46942,-3.28209 3.28209,-3.28209 1.81266,0 3.2821,1.46942 3.2821,3.28209 z"
       style="fill:#000000;fill-opacity:1;fill-rule:nonzero;stroke:#000000;stroke-width:0.3985;stroke-linecap:butt;stroke-linejoin:miter;stroke-miterlimit:10;stroke-dasharray:none;stroke-opacity:1"
       transform="matrix(1.3333333,0,0,-1.3333333,83.648,782.20133)"
       clip-path="url(#clipPath25)" />
    <path
       id="path26"
       d="m 82.06152,236.3383 c 0,1.81269 -1.46942,3.2821 -3.2821,3.2821 -1.81267,0 -3.28209,-1.46941 -3.28209,-3.2821 0,-1.81267 1.46942,-3.28209 3.28209,-3.28209 1.81268,0 3.2821,1.46942 3.2821,3.28209 z"
       style="fill:#000000;fill-opacity:1;fill-rule:nonzero;stroke:#000000;stroke-width:0.3985;stroke-linecap:butt;stroke-linejoin:miter;stroke-miterlimit:10;stroke-dasharray:none;stroke-opacity:1"
       transform="matrix(1.3333333,0,0,-1.3333333,83.648,782.20133)"
       clip-path="url(#clipPath27)" />
    <path
       id="path28"
       d="m 239.6204,393.89719 c 0,1.81266 -1.46941,3.2821 -3.2821,3.2821 -1.81267,0 -3.28209,-1.46944 -3.28209,-3.2821 0,-1.81267 1.46942,-3.28209 3.28209,-3.28209 1.81269,0 3.2821,1.46942 3.2821,3.28209 z"
       style="fill:#000000;fill-opacity:1;fill-rule:nonzero;stroke:#000000;stroke-width:0.3985;stroke-linecap:butt;stroke-linejoin:miter;stroke-miterlimit:10;stroke-dasharray:none;stroke-opacity:1"
       transform="matrix(1.3333333,0,0,-1.3333333,83.648,782.20133)"
       clip-path="url(#clipPath29)" />
    <path
       id="path30"
       d="m 239.6204,78.77942 c 0,1.81268 -1.46941,3.2821 -3.2821,3.2821 -1.81267,0 -3.28209,-1.46942 -3.28209,-3.2821 0,-1.81267 1.46942,-3.28209 3.28209,-3.28209 1.81269,0 3.2821,1.46942 3.2821,3.28209 z"
       style="fill:#000000;fill-opacity:1;fill-rule:nonzero;stroke:#000000;stroke-width:0.3985;stroke-linecap:butt;stroke-linejoin:miter;stroke-miterlimit:10;stroke-dasharray:none;stroke-opacity:1"
       transform="matrix(1.3333333,0,0,-1.3333333,83.648,782.20133)"
       clip-path="url(#clipPath31)" />
    <path
       id="path32"
       d="m 397.17929,236.3383 c 0,1.81269 -1.46944,3.2821 -3.2821,3.2821 -1.81267,0 -3.28209,-1.46941 -3.28209,-3.2821 0,-1.81267 1.46942,-3.28209 3.28209,-3.28209 1.81266,0 3.2821,1.46942 3.2821,3.28209 z"
       style="fill:#000000;fill-opacity:1;fill-rule:nonzero;stroke:#000000;stroke-width:0.3985;stroke-linecap:butt;stroke-linejoin:miter;stroke-miterlimit:10;stroke-dasharray:none;stroke-opacity:1"
       transform="matrix(1.3333333,0,0,-1.3333333,83.648,782.20133)"
       clip-path="url(#clipPath33)" />
    <path
       id="path34"
       d="m 407.02689,393.89719 c 0,7.25141 -5.87829,13.1297 -13.1297,13.1297 -7.25142,0 -13.12969,-5.87829 -13.12969,-13.1297 0,-7.25142 5.87827,-13.12969 13.12969,-13.12969 7.25141,0 13.1297,5.87827 13.1297,13.12969 z"
       style="fill:#ffffff;fill-opacity:1;fill-rule:nonzero;stroke:#ffffff;stroke-width:0.3985;stroke-linecap:butt;stroke-linejoin:miter;stroke-miterlimit:10;stroke-dasharray:none;stroke-opacity:1"
       transform="matrix(1.3333333,0,0,-1.3333333,83.648,782.20133)"
       clip-path="url(#clipPath35)" />
    <path
       id="path36"
       d="m 406.97455,393.89719 c 0,7.22251 -5.85485,13.07736 -13.07736,13.07736 -7.22251,0 -13.07735,-5.85485 -13.07735,-13.07736 0,-7.22251 5.85484,-13.07735 13.07735,-13.07735 7.22251,0 13.07736,5.85484 13.07736,13.07735 z"
       style="fill:#000000;fill-opacity:1;fill-rule:nonzero;stroke:#ffffff;stroke-width:1.1998;stroke-linecap:butt;stroke-linejoin:miter;stroke-miterlimit:10;stroke-dasharray:none;stroke-opacity:1"
       transform="matrix(1.3333333,0,0,-1.3333333,83.648,782.20133)"
       clip-path="url(#clipPath37)" />
    <path
       id="path38"
       d="m 328.24745,420.15701 c 0,7.25142 -5.87828,13.12969 -13.1297,13.12969 -7.25142,0 -13.12968,-5.87827 -13.12968,-13.12969 0,-7.25141 5.87826,-13.12968 13.12968,-13.12968 7.25142,0 13.1297,5.87827 13.1297,13.12968 z"
       style="fill:#ffffff;fill-opacity:1;fill-rule:nonzero;stroke:#ffffff;stroke-width:0.3985;stroke-linecap:butt;stroke-linejoin:miter;stroke-miterlimit:10;stroke-dasharray:none;stroke-opacity:1"
       transform="matrix(1.3333333,0,0,-1.3333333,83.648,782.20133)"
       clip-path="url(#clipPath39)" />
    <path
       id="path40"
       d="m 328.19511,420.15701 c 0,7.22251 -5.85484,13.07735 -13.07736,13.07735 -7.2225,0 -13.07735,-5.85484 -13.07735,-13.07735 0,-7.2225 5.85485,-13.07734 13.07735,-13.07734 7.22252,0 13.07736,5.85484 13.07736,13.07734 z"
       style="fill:#000000;fill-opacity:1;fill-rule:nonzero;stroke:#ffffff;stroke-width:1.1998;stroke-linecap:butt;stroke-linejoin:miter;stroke-miterlimit:10;stroke-dasharray:none;stroke-opacity:1"
       transform="matrix(1.3333333,0,0,-1.3333333,83.648,782.20133)"
       clip-path="url(#clipPath41)" />
    <path
       id="path42"
       d="m 91.90912,420.15701 c 0,7.25142 -5.87827,13.12969 -13.1297,13.12969 -7.25142,0 -13.12969,-5.87827 -13.12969,-13.12969 0,-7.25141 5.87827,-13.12968 13.12969,-13.12968 7.25143,0 13.1297,5.87827 13.1297,13.12968 z"
       style="fill:#ffffff;fill-opacity:1;fill-rule:nonzero;stroke:#ffffff;stroke-width:0.3985;stroke-linecap:butt;stroke-linejoin:miter;stroke-miterlimit:10;stroke-dasharray:none;stroke-opacity:1"
       transform="matrix(1.3333333,0,0,-1.3333333,83.648,782.20133)"
       clip-path="url(#clipPath43)" />
    <path
       id="path44"
       d="m 91.85678,420.15701 c 0,7.22251 -5.85484,13.07735 -13.07736,13.07735 -7.2225,0 -13.07735,-5.85484 -13.07735,-13.07735 0,-7.2225 5.85485,-13.07734 13.07735,-13.07734 7.22252,0 13.07736,5.85484 13.07736,13.07734 z"
       style="fill:#000000;fill-opacity:1;fill-rule:nonzero;stroke:#ffffff;stroke-width:1.1998;stroke-linecap:butt;stroke-linejoin:miter;stroke-miterlimit:10;stroke-dasharray:none;stroke-opacity:1"
       transform="matrix(1.3333333,0,0,-1.3333333,83.648,782.20133)"
       clip-path="url(#clipPath45)" />
    <path
       id="path46"
       d="m 91.90912,367.63739 c 0,7.25142 -5.87827,13.12968 -13.1297,13.12968 -7.25142,0 -13.12969,-5.87826 -13.12969,-13.12968 0,-7.25142 5.87827,-13.1297 13.12969,-13.1297 7.25143,0 13.1297,5.87828 13.1297,13.1297 z"
       style="fill:#ffffff;fill-opacity:1;fill-rule:nonzero;stroke:#ffffff;stroke-width:0.3985;stroke-linecap:butt;stroke-linejoin:miter;stroke-miterlimit:10;stroke-dasharray:none;stroke-opacity:1"
       transform="matrix(1.3333333,0,0,-1.3333333,83.648,782.20133)"
       clip-path="url(#clipPath47)" />
    <path
       id="path48"
       d="m 91.85678,367.63739 c 0,7.22251 -5.85484,13.07735 -13.07736,13.07735 -7.2225,0 -13.07735,-5.85484 -13.07735,-13.07735 0,-7.2225 5.85485,-13.07735 13.07735,-13.07735 7.22252,0 13.07736,5.85485 13.07736,13.07735 z"
       style="fill:#000000;fill-opacity:1;fill-rule:nonzero;stroke:#ffffff;stroke-width:1.1998;stroke-linecap:butt;stroke-linejoin:miter;stroke-miterlimit:10;stroke-dasharray:none;stroke-opacity:1"
       transform="matrix(1.3333333,0,0,-1.3333333,83.648,782.20133)"
       clip-path="url(#clipPath49)" />
    <path
       id="path50"
       d="m 91.90912,78.77942 c 0,7.25143 -5.87827,13.1297 -13.1297,13.1297 -7.25142,0 -13.12969,-5.87827 -13.12969,-13.1297 0,-7.25142 5.87827,-13.12969 13.12969,-13.12969 7.25143,0 13.1297,5.87827 13.1297,13.12969 z"
       style="fill:#ffffff;fill-opacity:1;fill-rule:nonzero;stroke:#ffffff;stroke-width:0.3985;stroke-linecap:butt;stroke-linejoin:miter;stroke-miterlimit:10;stroke-dasharray:none;stroke-opacity:1"
       transform="matrix(1.3333333,0,0,-1.3333333,83.648,782.20133)"
       clip-path="url(#clipPath51)" />
    <path
       id="path52"
       d="m 91.85678,78.77942 c 0,7.22252 -5.85484,13.07736 -13.07736,13.07736 -7.2225,0 -13.07735,-5.85484 -13.07735,-13.07736 0,-7.2225 5.85485,-13.07735 13.07735,-13.07735 7.22252,0 13.07736,5.85485 13.07736,13.07735 z"
       style="fill:#000000;fill-opacity:1;fill-rule:nonzero;stroke:#ffffff;stroke-width:1.1998;stroke-linecap:butt;stroke-linejoin:miter;stroke-miterlimit:10;stroke-dasharray:none;stroke-opacity:1"
       transform="matrix(1.3333333,0,0,-1.3333333,83.648,782.20133)"
       clip-path="url(#clipPath53)" />
    <path
       id="path54"
       d="m 65.6493,52.51962 c 0,7.25142 -5.87826,13.12968 -13.12968,13.12968 -7.25142,0 -13.1297,-5.87826 -13.1297,-13.12968 0,-7.25142 5.87828,-13.1297 13.1297,-13.1297 7.25142,0 13.12968,5.87828 13.12968,13.1297 z"
       style="fill:#ffffff;fill-opacity:1;fill-rule:nonzero;stroke:#ffffff;stroke-width:0.3985;stroke-linecap:butt;stroke-linejoin:miter;stroke-miterlimit:10;stroke-dasharray:none;stroke-opacity:1"
       transform="matrix(1.3333333,0,0,-1.3333333,83.648,782.20133)"
       clip-path="url(#clipPath55)" />
    <path
       id="path56"
       d="m 65.59697,52.51962 c 0,7.22251 -5.85484,13.07735 -13.07735,13.07735 -7.2225,0 -13.07734,-5.85484 -13.07734,-13.07735 0,-7.2225 5.85484,-13.07734 13.07734,-13.07734 7.22251,0 13.07735,5.85484 13.07735,13.07734 z"
       style="fill:#000000;fill-opacity:1;fill-rule:nonzero;stroke:#ffffff;stroke-width:1.1998;stroke-linecap:butt;stroke-linejoin:miter;stroke-miterlimit:10;stroke-dasharray:none;stroke-opacity:1"
       transform="matrix(1.3333333,0,0,-1.3333333,83.648,782.20133)"
       clip-path="url(#clipPath57)" />
    <path
       id="path58"
       d="m 39.3895,26.2598 c 0,7.25142 -5.87828,13.1297 -13.1297,13.1297 -7.25142,0 -13.12969,-5.87828 -13.12969,-13.1297 0,-7.25142 5.87827,-13.12969 13.12969,-13.12969 7.25142,0 13.1297,5.87827 13.1297,13.12969 z"
       style="fill:#ffffff;fill-opacity:1;fill-rule:nonzero;stroke:#ffffff;stroke-width:0.3985;stroke-linecap:butt;stroke-linejoin:miter;stroke-miterlimit:10;stroke-dasharray:none;stroke-opacity:1"
       transform="matrix(1.3333333,0,0,-1.3333333,83.648,782.20133)"
       clip-path="url(#clipPath59)" />
    <path
       id="path60"
       d="m 39.33714,26.2598 c 0,7.2225 -5.85484,13.07734 -13.07734,13.07734 -7.2225,0 -13.07735,-5.85484 -13.07735,-13.07734 0,-7.2225 5.85485,-13.07735 13.07735,-13.07735 7.2225,0 13.07734,5.85485 13.07734,13.07735 z"
       style="fill:#000000;fill-opacity:1;fill-rule:nonzero;stroke:#ffffff;stroke-width:1.1998;stroke-linecap:butt;stroke-linejoin:miter;stroke-miterlimit:10;stroke-dasharray:none;stroke-opacity:1"
       transform="matrix(1.3333333,0,0,-1.3333333,83.648,782.20133)"
       clip-path="url(#clipPath61)" />
    <path
       id="path62"
       d="m 65.6493,131.29906 c 0,7.25142 -5.87826,13.12968 -13.12968,13.12968 -7.25142,0 -13.1297,-5.87826 -13.1297,-13.12968 0,-7.25142 5.87828,-13.1297 13.1297,-13.1297 7.25142,0 13.12968,5.87828 13.12968,13.1297 z"
       style="fill:#ffffff;fill-opacity:1;fill-rule:nonzero;stroke:#ffffff;stroke-width:0.3985;stroke-linecap:butt;stroke-linejoin:miter;stroke-miterlimit:10;stroke-dasharray:none;stroke-opacity:1"
       transform="matrix(1.3333333,0,0,-1.3333333,83.648,782.20133)"
       clip-path="url(#clipPath63)" />
    <path
       id="path64"
       d="m 65.59697,131.29906 c 0,7.2225 -5.85484,13.07734 -13.07735,13.07734 -7.2225,0 -13.07734,-5.85484 -13.07734,-13.07734 0,-7.22251 5.85484,-13.07735 13.07734,-13.07735 7.22251,0 13.07735,5.85484 13.07735,13.07735 z"
       style="fill:#000000;fill-opacity:1;fill-rule:nonzero;stroke:#ffffff;stroke-width:1.1998;stroke-linecap:butt;stroke-linejoin:miter;stroke-miterlimit:10;stroke-dasharray:none;stroke-opacity:1"
       transform="matrix(1.3333333,0,0,-1.3333333,83.648,782.20133)"
       clip-path="url(#clipPath65)" />
    <path
       id="path66"
       d="m 223.20819,78.77942 c 0,7.25143 -5.87826,13.1297 -13.12969,13.1297 -7.25141,0 -13.1297,-5.87827 -13.1297,-13.1297 0,-7.25142 5.87829,-13.12969 13.1297,-13.12969 7.25143,0 13.12969,5.87827 13.12969,13.12969 z"
       style="fill:#ffffff;fill-opacity:1;fill-rule:nonzero;stroke:#ffffff;stroke-width:0.3985;stroke-linecap:butt;stroke-linejoin:miter;stroke-miterlimit:10;stroke-dasharray:none;stroke-opacity:1"
       transform="matrix(1.3333333,0,0,-1.3333333,83.648,782.20133)"
       clip-path="url(#clipPath67)" />
    <path
       id="path68"
       d="m 223.15585,78.77942 c 0,7.22252 -5.85484,13.07736 -13.07735,13.07736 -7.2225,0 -13.07734,-5.85484 -13.07734,-13.07736 0,-7.2225 5.85484,-13.07735 13.07734,-13.07735 7.22251,0 13.07735,5.85485 13.07735,13.07735 z"
       style="fill:#000000;fill-opacity:1;fill-rule:nonzero;stroke:#ffffff;stroke-width:1.1998;stroke-linecap:butt;stroke-linejoin:miter;stroke-miterlimit:10;stroke-dasharray:none;stroke-opacity:1"
       transform="matrix(1.3333333,0,0,-1.3333333,83.648,782.20133)"
       clip-path="url(#clipPath69)" />
    <path
       id="path70"
       d="m 223.20819,52.51962 c 0,7.25142 -5.87826,13.12968 -13.12969,13.12968 -7.25141,0 -13.1297,-5.87826 -13.1297,-13.12968 0,-7.25142 5.87829,-13.1297 13.1297,-13.1297 7.25143,0 13.12969,5.87828 13.12969,13.1297 z"
       style="fill:#ffffff;fill-opacity:1;fill-rule:nonzero;stroke:#ffffff;stroke-width:0.3985;stroke-linecap:butt;stroke-linejoin:miter;stroke-miterlimit:10;stroke-dasharray:none;stroke-opacity:1"
       transform="matrix(1.3333333,0,0,-1.3333333,83.648,782.20133)"
       clip-path="url(#clipPath71)" />
    <path
       id="path72"
       d="m 223.15585,52.51962 c 0,7.22251 -5.85484,13.07735 -13.07735,13.07735 -7.2225,0 -13.07734,-5.85484 -13.07734,-13.07735 0,-7.2225 5.85484,-13.07734 13.07734,-13.07734 7.22251,0 13.07735,5.85484 13.07735,13.07734 z"
       style="fill:#000000;fill-opacity:1;fill-rule:nonzero;stroke:#ffffff;stroke-width:1.1998;stroke-linecap:butt;stroke-linejoin:miter;stroke-miterlimit:10;stroke-dasharray:none;stroke-opacity:1"
       transform="matrix(1.3333333,0,0,-1.3333333,83.648,782.20133)"
       clip-path="url(#clipPath73)" />
    <path
       id="path74"
       d="m 196.94838,105.03925 c 0,7.25141 -5.87828,13.1297 -13.1297,13.1297 -7.25142,0 -13.12968,-5.87829 -13.12968,-13.1297 0,-7.25142 5.87826,-13.12969 13.12968,-13.12969 7.25142,0 13.1297,5.87827 13.1297,13.12969 z"
       style="fill:#ffffff;fill-opacity:1;fill-rule:nonzero;stroke:#ffffff;stroke-width:0.3985;stroke-linecap:butt;stroke-linejoin:miter;stroke-miterlimit:10;stroke-dasharray:none;stroke-opacity:1"
       transform="matrix(1.3333333,0,0,-1.3333333,83.648,782.20133)"
       clip-path="url(#clipPath75)" />
    <path
       id="path76"
       d="m 196.89603,105.03925 c 0,7.2225 -5.85485,13.07735 -13.07735,13.07735 -7.2225,0 -13.07735,-5.85485 -13.07735,-13.07735 0,-7.22251 5.85485,-13.07735 13.07735,-13.07735 7.2225,0 13.07735,5.85484 13.07735,13.07735 z"
       style="fill:#000000;fill-opacity:1;fill-rule:nonzero;stroke:#ffffff;stroke-width:1.1998;stroke-linecap:butt;stroke-linejoin:miter;stroke-miterlimit:10;stroke-dasharray:none;stroke-opacity:1"
       transform="matrix(1.3333333,0,0,-1.3333333,83.648,782.20133)"
       clip-path="url(#clipPath77)" />
    <path
       id="path78"
       d="m 354.50725,78.77942 c 0,7.25143 -5.87827,13.1297 -13.12969,13.1297 -7.25142,0 -13.12968,-5.87827 -13.12968,-13.1297 0,-7.25142 5.87826,-13.12969 13.12968,-13.12969 7.25142,0 13.12969,5.87827 13.12969,13.12969 z"
       style="fill:#ffffff;fill-opacity:1;fill-rule:nonzero;stroke:#ffffff;stroke-width:0.3985;stroke-linecap:butt;stroke-linejoin:miter;stroke-miterlimit:10;stroke-dasharray:none;stroke-opacity:1"
       transform="matrix(1.3333333,0,0,-1.3333333,83.648,782.20133)"
       clip-path="url(#clipPath79)" />
    <path
       id="path80"
       d="m 354.45491,78.77942 c 0,7.22252 -5.85484,13.07736 -13.07735,13.07736 -7.2225,0 -13.07734,-5.85484 -13.07734,-13.07736 0,-7.2225 5.85484,-13.07735 13.07734,-13.07735 7.22251,0 13.07735,5.85485 13.07735,13.07735 z"
       style="fill:#000000;fill-opacity:1;fill-rule:nonzero;stroke:#ffffff;stroke-width:1.1998;stroke-linecap:butt;stroke-linejoin:miter;stroke-miterlimit:10;stroke-dasharray:none;stroke-opacity:1"
       transform="matrix(1.3333333,0,0,-1.3333333,83.648,782.20133)"
       clip-path="url(#clipPath81)" />
    <path
       id="path82"
       d="m 39.3895,52.51962 c 0,7.25142 -5.87828,13.12968 -13.1297,13.12968 -7.25142,0 -13.12969,-5.87826 -13.12969,-13.12968 0,-7.25142 5.87827,-13.1297 13.12969,-13.1297 7.25142,0 13.1297,5.87828 13.1297,13.1297 z"
       style="fill:#ffffff;fill-opacity:1;fill-rule:nonzero;stroke:#ffffff;stroke-width:0.3985;stroke-linecap:butt;stroke-linejoin:miter;stroke-miterlimit:10;stroke-dasharray:none;stroke-opacity:1"
       transform="matrix(1.3333333,0,0,-1.3333333,83.648,782.20133)"
       clip-path="url(#clipPath83)" />
    <path
       id="path84"
       d="m 39.33714,52.51962 c 0,7.22251 -5.85484,13.07735 -13.07734,13.07735 -7.2225,0 -13.07735,-5.85484 -13.07735,-13.07735 0,-7.2225 5.85485,-13.07734 13.07735,-13.07734 7.2225,0 13.07734,5.85484 13.07734,13.07734 z"
       style="fill:#000000;fill-opacity:1;fill-rule:nonzero;stroke:#ffffff;stroke-width:1.1998;stroke-linecap:butt;stroke-linejoin:miter;stroke-miterlimit:10;stroke-dasharray:none;stroke-opacity:1"
       transform="matrix(1.3333333,0,0,-1.3333333,83.648,782.20133)"
       clip-path="url(#clipPath85)" />
    <path
       id="path86"
       d="m 118.16895,78.77942 c 0,7.25143 -5.87829,13.1297 -13.1297,13.1297 -7.25142,0 -13.12969,-5.87827 -13.12969,-13.1297 0,-7.25142 5.87827,-13.12969 13.12969,-13.12969 7.25141,0 13.1297,5.87827 13.1297,13.12969 z"
       style="fill:#ffffff;fill-opacity:1;fill-rule:nonzero;stroke:#ffffff;stroke-width:0.3985;stroke-linecap:butt;stroke-linejoin:miter;stroke-miterlimit:10;stroke-dasharray:none;stroke-opacity:1"
       transform="matrix(1.3333333,0,0,-1.3333333,83.648,782.20133)"
       clip-path="url(#clipPath87)" />
    <path
       id="path88"
       d="m 118.1166,78.77942 c 0,7.22252 -5.85485,13.07736 -13.07735,13.07736 -7.22251,0 -13.07735,-5.85484 -13.07735,-13.07736 0,-7.2225 5.85484,-13.07735 13.07735,-13.07735 7.2225,0 13.07735,5.85485 13.07735,13.07735 z"
       style="fill:#000000;fill-opacity:1;fill-rule:nonzero;stroke:#ffffff;stroke-width:1.1998;stroke-linecap:butt;stroke-linejoin:miter;stroke-miterlimit:10;stroke-dasharray:none;stroke-opacity:1"
       transform="matrix(1.3333333,0,0,-1.3333333,83.648,782.20133)"
       clip-path="url(#clipPath89)" />
    <path
       id="path90"
       d="m 118.16895,105.03925 c 0,7.25141 -5.87829,13.1297 -13.1297,13.1297 -7.25142,0 -13.12969,-5.87829 -13.12969,-13.1297 0,-7.25142 5.87827,-13.12969 13.12969,-13.12969 7.25141,0 13.1297,5.87827 13.1297,13.12969 z"
       style="fill:#ffffff;fill-opacity:1;fill-rule:nonzero;stroke:#ffffff;stroke-width:0.3985;stroke-linecap:butt;stroke-linejoin:miter;stroke-miterlimit:10;stroke-dasharray:none;stroke-opacity:1"
       transform="matrix(1.3333333,0,0,-1.3333333,83.648,782.20133)"
       clip-path="url(#clipPath91)" />
    <path
       id="path92"
       d="m 118.1166,105.03925 c 0,7.2225 -5.85485,13.07735 -13.07735,13.07735 -7.22251,0 -13.07735,-5.85485 -13.07735,-13.07735 0,-7.22251 5.85484,-13.07735 13.07735,-13.07735 7.2225,0 13.07735,5.85484 13.07735,13.07735 z"
       style="fill:#000000;fill-opacity:1;fill-rule:nonzero;stroke:#ffffff;stroke-width:1.1998;stroke-linecap:butt;stroke-linejoin:miter;stroke-miterlimit:10;stroke-dasharray:none;stroke-opacity:1"
       transform="matrix(1.3333333,0,0,-1.3333333,83.648,782.20133)"
       clip-path="url(#clipPath93)" />
    <path
       id="path94"
       d="m 91.90912,52.51962 c 0,7.25142 -5.87827,13.12968 -13.1297,13.12968 -7.25142,0 -13.12969,-5.87826 -13.12969,-13.12968 0,-7.25142 5.87827,-13.1297 13.12969,-13.1297 7.25143,0 13.1297,5.87828 13.1297,13.1297 z"
       style="fill:#ffffff;fill-opacity:1;fill-rule:nonzero;stroke:#ffffff;stroke-width:0.3985;stroke-linecap:butt;stroke-linejoin:miter;stroke-miterlimit:10;stroke-dasharray:none;stroke-opacity:1"
       transform="matrix(1.3333333,0,0,-1.3333333,83.648,782.20133)"
       clip-path="url(#clipPath95)" />
    <path
       id="path96"
       d="m 90.76028,52.51962 c 0,6.61692 -5.36393,11.98087 -11.98086,11.98087 -6.61692,0 -11.98085,-5.36395 -11.98085,-11.98087 0,-6.61692 5.36393,-11.98086 11.98085,-11.98086 6.61693,0 11.98086,5.36394 11.98086,11.98086 z"
       style="fill:#ffffff;fill-opacity:1;fill-rule:nonzero;stroke:#000000;stroke-width:1.1998;stroke-linecap:butt;stroke-linejoin:miter;stroke-miterlimit:10;stroke-dasharray:none;stroke-opacity:1"
       transform="matrix(1.3333333,0,0,-1.3333333,83.648,782.20133)"
       clip-path="url(#clipPath97)" />
    <path
       id="path98"
       d="m 65.6493,26.2598 c 0,7.25142 -5.87826,13.1297 -13.12968,13.1297 -7.25142,0 -13.1297,-5.87828 -13.1297,-13.1297 0,-7.25142 5.87828,-13.12969 13.1297,-13.12969 7.25142,0 13.12968,5.87827 13.12968,13.12969 z"
       style="fill:#ffffff;fill-opacity:1;fill-rule:nonzero;stroke:#ffffff;stroke-width:0.3985;stroke-linecap:butt;stroke-linejoin:miter;stroke-miterlimit:10;stroke-dasharray:none;stroke-opacity:1"
       transform="matrix(1.3333333,0,0,-1.3333333,83.648,782.20133)"
       clip-path="url(#clipPath99)" />
    <path
       id="path100"
       d="m 64.50049,26.2598 c 0,6.61692 -5.36395,11.98086 -11.98087,11.98086 -6.61692,0 -11.98086,-5.36394 -11.98086,-11.98086 0,-6.61692 5.36394,-11.98087 11.98086,-11.98087 6.61692,0 11.98087,5.36395 11.98087,11.98087 z"
       style="fill:#ffffff;fill-opacity:1;fill-rule:nonzero;stroke:#000000;stroke-width:1.1998;stroke-linecap:butt;stroke-linejoin:miter;stroke-miterlimit:10;stroke-dasharray:none;stroke-opacity:1"
       transform="matrix(1.3333333,0,0,-1.3333333,83.648,782.20133)"
       clip-path="url(#clipPath101)" />
    <path
       id="path102"
       d="m 144.42874,52.51962 c 0,7.25142 -5.87826,13.12968 -13.12968,13.12968 -7.25142,0 -13.1297,-5.87826 -13.1297,-13.12968 0,-7.25142 5.87828,-13.1297 13.1297,-13.1297 7.25142,0 13.12968,5.87828 13.12968,13.1297 z"
       style="fill:#ffffff;fill-opacity:1;fill-rule:nonzero;stroke:#ffffff;stroke-width:0.3985;stroke-linecap:butt;stroke-linejoin:miter;stroke-miterlimit:10;stroke-dasharray:none;stroke-opacity:1"
       transform="matrix(1.3333333,0,0,-1.3333333,83.648,782.20133)"
       clip-path="url(#clipPath103)" />
    <path
       id="path104"
       d="m 143.27992,52.51962 c 0,6.61692 -5.36395,11.98087 -11.98086,11.98087 -6.61693,0 -11.98087,-5.36395 -11.98087,-11.98087 0,-6.61692 5.36394,-11.98086 11.98087,-11.98086 6.61691,0 11.98086,5.36394 11.98086,11.98086 z"
       style="fill:#ffffff;fill-opacity:1;fill-rule:nonzero;stroke:#000000;stroke-width:1.1998;stroke-linecap:butt;stroke-linejoin:miter;stroke-miterlimit:10;stroke-dasharray:none;stroke-opacity:1"
       transform="matrix(1.3333333,0,0,-1.3333333,83.648,782.20133)"
       clip-path="url(#clipPath105)" />
    <path
       id="path106"
       d="m 196.94838,78.77942 c 0,7.25143 -5.87828,13.1297 -13.1297,13.1297 -7.25142,0 -13.12968,-5.87827 -13.12968,-13.1297 0,-7.25142 5.87826,-13.12969 13.12968,-13.12969 7.25142,0 13.1297,5.87827 13.1297,13.12969 z"
       style="fill:#ffffff;fill-opacity:1;fill-rule:nonzero;stroke:#ffffff;stroke-width:0.3985;stroke-linecap:butt;stroke-linejoin:miter;stroke-miterlimit:10;stroke-dasharray:none;stroke-opacity:1"
       transform="matrix(1.3333333,0,0,-1.3333333,83.648,782.20133)"
       clip-path="url(#clipPath107)" />
    <path
       id="path108"
       d="m 195.79955,78.77942 c 0,6.61693 -5.36394,11.98086 -11.98087,11.98086 -6.61691,0 -11.98087,-5.36393 -11.98087,-11.98086 0,-6.61692 5.36396,-11.98085 11.98087,-11.98085 6.61693,0 11.98087,5.36393 11.98087,11.98085 z"
       style="fill:#ffffff;fill-opacity:1;fill-rule:nonzero;stroke:#000000;stroke-width:1.1998;stroke-linecap:butt;stroke-linejoin:miter;stroke-miterlimit:10;stroke-dasharray:none;stroke-opacity:1"
       transform="matrix(1.3333333,0,0,-1.3333333,83.648,782.20133)"
       clip-path="url(#clipPath109)" />
    <path
       id="path110"
       d="m 223.20819,105.03925 c 0,7.25141 -5.87826,13.1297 -13.12969,13.1297 -7.25141,0 -13.1297,-5.87829 -13.1297,-13.1297 0,-7.25142 5.87829,-13.12969 13.1297,-13.12969 7.25143,0 13.12969,5.87827 13.12969,13.12969 z"
       style="fill:#ffffff;fill-opacity:1;fill-rule:nonzero;stroke:#ffffff;stroke-width:0.3985;stroke-linecap:butt;stroke-linejoin:miter;stroke-miterlimit:10;stroke-dasharray:none;stroke-opacity:1"
       transform="matrix(1.3333333,0,0,-1.3333333,83.648,782.20133)"
       clip-path="url(#clipPath111)" />
    <path
       id="path112"
       d="m 222.05937,105.03925 c 0,6.61692 -5.36395,11.98086 -11.98087,11.98086 -6.61692,0 -11.98086,-5.36394 -11.98086,-11.98086 0,-6.61692 5.36394,-11.98087 11.98086,-11.98087 6.61692,0 11.98087,5.36395 11.98087,11.98087 z"
       style="fill:#ffffff;fill-opacity:1;fill-rule:nonzero;stroke:#000000;stroke-width:1.1998;stroke-linecap:butt;stroke-linejoin:miter;stroke-miterlimit:10;stroke-dasharray:none;stroke-opacity:1"
       transform="matrix(1.3333333,0,0,-1.3333333,83.648,782.20133)"
       clip-path="url(#clipPath113)" />
    <path
       id="path114"
       d="m 433.2867,78.77942 c 0,7.25143 -5.87827,13.1297 -13.12969,13.1297 -7.25141,0 -13.12968,-5.87827 -13.12968,-13.1297 0,-7.25142 5.87827,-13.12969 13.12968,-13.12969 7.25142,0 13.12969,5.87827 13.12969,13.12969 z"
       style="fill:#ffffff;fill-opacity:1;fill-rule:nonzero;stroke:#ffffff;stroke-width:0.3985;stroke-linecap:butt;stroke-linejoin:miter;stroke-miterlimit:10;stroke-dasharray:none;stroke-opacity:1"
       transform="matrix(1.3333333,0,0,-1.3333333,83.648,782.20133)"
       clip-path="url(#clipPath115)" />
    <path
       id="path116"
       d="m 432.13788,78.77942 c 0,6.61693 -5.36394,11.98086 -11.98087,11.98086 -6.61691,0 -11.98086,-5.36393 -11.98086,-11.98086 0,-6.61692 5.36395,-11.98085 11.98086,-11.98085 6.61693,0 11.98087,5.36393 11.98087,11.98085 z"
       style="fill:#ffffff;fill-opacity:1;fill-rule:nonzero;stroke:#000000;stroke-width:1.1998;stroke-linecap:butt;stroke-linejoin:miter;stroke-miterlimit:10;stroke-dasharray:none;stroke-opacity:1"
       transform="matrix(1.3333333,0,0,-1.3333333,83.648,782.20133)"
       clip-path="url(#clipPath117)" />
    <path
       id="path118"
       d="m 380.76707,78.77942 c 0,7.25143 -5.87826,13.1297 -13.12968,13.1297 -7.25142,0 -13.1297,-5.87827 -13.1297,-13.1297 0,-7.25142 5.87828,-13.12969 13.1297,-13.12969 7.25142,0 13.12968,5.87827 13.12968,13.12969 z"
       style="fill:#ffffff;fill-opacity:1;fill-rule:nonzero;stroke:#ffffff;stroke-width:0.3985;stroke-linecap:butt;stroke-linejoin:miter;stroke-miterlimit:10;stroke-dasharray:none;stroke-opacity:1"
       transform="matrix(1.3333333,0,0,-1.3333333,83.648,782.20133)"
       clip-path="url(#clipPath119)" />
    <path
       id="path120"
       d="m 379.61824,78.77942 c 0,6.61693 -5.36394,11.98086 -11.98085,11.98086 -6.61693,0 -11.98087,-5.36393 -11.98087,-11.98086 0,-6.61692 5.36394,-11.98085 11.98087,-11.98085 6.61691,0 11.98085,5.36393 11.98085,11.98085 z"
       style="fill:#ffffff;fill-opacity:1;fill-rule:nonzero;stroke:#000000;stroke-width:1.1998;stroke-linecap:butt;stroke-linejoin:miter;stroke-miterlimit:10;stroke-dasharray:none;stroke-opacity:1"
       transform="matrix(1.3333333,0,0,-1.3333333,83.648,782.20133)"
       clip-path="url(#clipPath121)" />
    <path
       id="path122"
       d="m 380.76707,52.51962 c 0,7.25142 -5.87826,13.12968 -13.12968,13.12968 -7.25142,0 -13.1297,-5.87826 -13.1297,-13.12968 0,-7.25142 5.87828,-13.1297 13.1297,-13.1297 7.25142,0 13.12968,5.87828 13.12968,13.1297 z"
       style="fill:#ffffff;fill-opacity:1;fill-rule:nonzero;stroke:#ffffff;stroke-width:0.3985;stroke-linecap:butt;stroke-linejoin:miter;stroke-miterlimit:10;stroke-dasharray:none;stroke-opacity:1"
       transform="matrix(1.3333333,0,0,-1.3333333,83.648,782.20133)"
       clip-path="url(#clipPath123)" />
    <path
       id="path124"
       d="m 379.61824,52.51962 c 0,6.61692 -5.36394,11.98087 -11.98085,11.98087 -6.61693,0 -11.98087,-5.36395 -11.98087,-11.98087 0,-6.61692 5.36394,-11.98086 11.98087,-11.98086 6.61691,0 11.98085,5.36394 11.98085,11.98086 z"
       style="fill:#ffffff;fill-opacity:1;fill-rule:nonzero;stroke:#000000;stroke-width:1.1998;stroke-linecap:butt;stroke-linejoin:miter;stroke-miterlimit:10;stroke-dasharray:none;stroke-opacity:1"
       transform="matrix(1.3333333,0,0,-1.3333333,83.648,782.20133)"
       clip-path="url(#clipPath125)" />
    <path
       id="path126"
       d="m 407.02689,210.0785 c 0,7.25143 -5.87829,13.12969 -13.1297,13.12969 -7.25142,0 -13.12969,-5.87826 -13.12969,-13.12969 0,-7.25141 5.87827,-13.1297 13.12969,-13.1297 7.25141,0 13.1297,5.87829 13.1297,13.1297 z"
       style="fill:#ffffff;fill-opacity:1;fill-rule:nonzero;stroke:#ffffff;stroke-width:0.3985;stroke-linecap:butt;stroke-linejoin:miter;stroke-miterlimit:10;stroke-dasharray:none;stroke-opacity:1"
       transform="matrix(1.3333333,0,0,-1.3333333,83.648,782.20133)"
       clip-path="url(#clipPath127)" />
    <path
       id="path128"
       d="m 405.87805,210.0785 c 0,6.61692 -5.36394,11.98087 -11.98086,11.98087 -6.61692,0 -11.98085,-5.36395 -11.98085,-11.98087 0,-6.61692 5.36393,-11.98086 11.98085,-11.98086 6.61692,0 11.98086,5.36394 11.98086,11.98086 z"
       style="fill:#ffffff;fill-opacity:1;fill-rule:nonzero;stroke:#000000;stroke-width:1.1998;stroke-linecap:butt;stroke-linejoin:miter;stroke-miterlimit:10;stroke-dasharray:none;stroke-opacity:1"
       transform="matrix(1.3333333,0,0,-1.3333333,83.648,782.20133)"
       clip-path="url(#clipPath129)" />
    <path
       id="path130"
       d="m 433.2867,315.11775 c 0,7.25142 -5.87827,13.1297 -13.12969,13.1297 -7.25141,0 -13.12968,-5.87828 -13.12968,-13.1297 0,-7.25142 5.87827,-13.12968 13.12968,-13.12968 7.25142,0 13.12969,5.87826 13.12969,13.12968 z"
       style="fill:#ffffff;fill-opacity:1;fill-rule:nonzero;stroke:#ffffff;stroke-width:0.3985;stroke-linecap:butt;stroke-linejoin:miter;stroke-miterlimit:10;stroke-dasharray:none;stroke-opacity:1"
       transform="matrix(1.3333333,0,0,-1.3333333,83.648,782.20133)"
       clip-path="url(#clipPath131)" />
    <path
       id="path132"
       d="m 432.13788,315.11775 c 0,6.61693 -5.36394,11.98087 -11.98087,11.98087 -6.61691,0 -11.98086,-5.36394 -11.98086,-11.98087 0,-6.61691 5.36395,-11.98085 11.98086,-11.98085 6.61693,0 11.98087,5.36394 11.98087,11.98085 z"
       style="fill:#ffffff;fill-opacity:1;fill-rule:nonzero;stroke:#000000;stroke-width:1.1998;stroke-linecap:butt;stroke-linejoin:miter;stroke-miterlimit:10;stroke-dasharray:none;stroke-opacity:1"
       transform="matrix(1.3333333,0,0,-1.3333333,83.648,782.20133)"
       clip-path="url(#clipPath133)" />
    <path
       id="path134"
       d="m 65.6493,78.77942 c 0,7.25143 -5.87826,13.1297 -13.12968,13.1297 -7.25142,0 -13.1297,-5.87827 -13.1297,-13.1297 0,-7.25142 5.87828,-13.12969 13.1297,-13.12969 7.25142,0 13.12968,5.87827 13.12968,13.12969 z"
       style="fill:#ffffff;fill-opacity:1;fill-rule:nonzero;stroke:#ffffff;stroke-width:0.3985;stroke-linecap:butt;stroke-linejoin:miter;stroke-miterlimit:10;stroke-dasharray:none;stroke-opacity:1"
       transform="matrix(1.3333333,0,0,-1.3333333,83.648,782.20133)"
       clip-path="url(#clipPath135)" />
    <path
       id="path136"
       d="m 64.50049,78.77942 c 0,6.61693 -5.36395,11.98086 -11.98087,11.98086 -6.61692,0 -11.98086,-5.36393 -11.98086,-11.98086 0,-6.61692 5.36394,-11.98085 11.98086,-11.98085 6.61692,0 11.98087,5.36393 11.98087,11.98085 z"
       style="fill:#ffffff;fill-opacity:1;fill-rule:nonzero;stroke:#000000;stroke-width:1.1998;stroke-linecap:butt;stroke-linejoin:miter;stroke-miterlimit:10;stroke-dasharray:none;stroke-opacity:1"
       transform="matrix(1.3333333,0,0,-1.3333333,83.648,782.20133)"
       clip-path="url(#clipPath137)" />
    <path
       id="path138"
       d="m 91.90912,105.03925 c 0,7.25141 -5.87827,13.1297 -13.1297,13.1297 -7.25142,0 -13.12969,-5.87829 -13.12969,-13.1297 0,-7.25142 5.87827,-13.12969 13.12969,-13.12969 7.25143,0 13.1297,5.87827 13.1297,13.12969 z"
       style="fill:#ffffff;fill-opacity:1;fill-rule:nonzero;stroke:#ffffff;stroke-width:0.3985;stroke-linecap:butt;stroke-linejoin:miter;stroke-miterlimit:10;stroke-dasharray:none;stroke-opacity:1"
       transform="matrix(1.3333333,0,0,-1.3333333,83.648,782.20133)"
       clip-path="url(#clipPath139)" />
    <path
       id="path140"
       d="m 90.76028,105.03925 c 0,6.61692 -5.36393,11.98086 -11.98086,11.98086 -6.61692,0 -11.98085,-5.36394 -11.98085,-11.98086 0,-6.61692 5.36393,-11.98087 11.98085,-11.98087 6.61693,0 11.98086,5.36395 11.98086,11.98087 z"
       style="fill:#ffffff;fill-opacity:1;fill-rule:nonzero;stroke:#000000;stroke-width:1.1998;stroke-linecap:butt;stroke-linejoin:miter;stroke-miterlimit:10;stroke-dasharray:none;stroke-opacity:1"
       transform="matrix(1.3333333,0,0,-1.3333333,83.648,782.20133)"
       clip-path="url(#clipPath141)" />
    <path
       id="path142"
       d="m 118.16895,131.29906 c 0,7.25142 -5.87829,13.12968 -13.1297,13.12968 -7.25142,0 -13.12969,-5.87826 -13.12969,-13.12968 0,-7.25142 5.87827,-13.1297 13.12969,-13.1297 7.25141,0 13.1297,5.87828 13.1297,13.1297 z"
       style="fill:#ffffff;fill-opacity:1;fill-rule:nonzero;stroke:#ffffff;stroke-width:0.3985;stroke-linecap:butt;stroke-linejoin:miter;stroke-miterlimit:10;stroke-dasharray:none;stroke-opacity:1"
       transform="matrix(1.3333333,0,0,-1.3333333,83.648,782.20133)"
       clip-path="url(#clipPath143)" />
    <path
       id="path144"
       d="m 117.02011,131.29906 c 0,6.61691 -5.36394,11.98086 -11.98086,11.98086 -6.61692,0 -11.98087,-5.36395 -11.98087,-11.98086 0,-6.61693 5.36395,-11.98087 11.98087,-11.98087 6.61692,0 11.98086,5.36394 11.98086,11.98087 z"
       style="fill:#ffffff;fill-opacity:1;fill-rule:nonzero;stroke:#000000;stroke-width:1.1998;stroke-linecap:butt;stroke-linejoin:miter;stroke-miterlimit:10;stroke-dasharray:none;stroke-opacity:1"
       transform="matrix(1.3333333,0,0,-1.3333333,83.648,782.20133)"
       clip-path="url(#clipPath145)" />
    <path
       id="path146"
       d="m 144.42874,78.77942 c 0,7.25143 -5.87826,13.1297 -13.12968,13.1297 -7.25142,0 -13.1297,-5.87827 -13.1297,-13.1297 0,-7.25142 5.87828,-13.12969 13.1297,-13.12969 7.25142,0 13.12968,5.87827 13.12968,13.12969 z"
       style="fill:#ffffff;fill-opacity:1;fill-rule:nonzero;stroke:#ffffff;stroke-width:0.3985;stroke-linecap:butt;stroke-linejoin:miter;stroke-miterlimit:10;stroke-dasharray:none;stroke-opacity:1"
       transform="matrix(1.3333333,0,0,-1.3333333,83.648,782.20133)"
       clip-path="url(#clipPath147)" />
    <path
       id="path148"
       d="m 143.27992,78.77942 c 0,6.61693 -5.36395,11.98086 -11.98086,11.98086 -6.61693,0 -11.98087,-5.36393 -11.98087,-11.98086 0,-6.61692 5.36394,-11.98085 11.98087,-11.98085 6.61691,0 11.98086,5.36393 11.98086,11.98085 z"
       style="fill:#ffffff;fill-opacity:1;fill-rule:nonzero;stroke:#000000;stroke-width:1.1998;stroke-linecap:butt;stroke-linejoin:miter;stroke-miterlimit:10;stroke-dasharray:none;stroke-opacity:1"
       transform="matrix(1.3333333,0,0,-1.3333333,83.648,782.20133)"
       clip-path="url(#clipPath149)" />
    <path
       id="path150"
       d="m 33.98364,52.51962 c 0,4.21826 -3.41951,7.63776 -7.63777,7.63776 -4.21826,0 -7.63776,-3.4195 -7.63776,-7.63776 0,-4.21826 3.4195,-7.63777 7.63776,-7.63777 4.21826,0 7.63777,3.41951 7.63777,7.63777 z"
       style="fill:#000000;fill-opacity:1;fill-rule:nonzero;stroke:#000000;stroke-width:0.3985;stroke-linecap:butt;stroke-linejoin:miter;stroke-miterlimit:10;stroke-dasharray:none;stroke-opacity:1"
       transform="matrix(1.3333333,0,0,-1.3333333,83.648,782.20133)"
       clip-path="url(#clipPath151)" />
    <path
       id="path152"
       d="M 8.3900703,-3.9380234 H 7.5580391 c -0.058594,0.421875 -0.1875,1.3007812 -0.3984375,1.5820312 -0.082031,0.140625 -1.6054688,0.140625 -1.6054688,0.140625 H 3.4213203 c 0.4804688,-0.421875 1.6171875,-1.546875 2.0976563,-1.96875 0.3515625,-0.3398437 1.265625,-1.1132812 1.6289062,-1.453125 0.8671875,-0.890625 1.2421875,-1.7226562 1.2421875,-2.625 0,-1.9453128 -1.6054687,-3.3515628 -3.7617187,-3.3515628 -1.875,0 -3.3164063,1.207032 -3.3164063,2.6953128 0,1.0429688 0.8554688,1.3125 1.2773438,1.3125 0.5625,0 1.2773437,-0.3867187 1.2773437,-1.2773437 0,-0.7265625 -0.46875,-1.1718751 -1.078125,-1.2773441 0.46875,-0.527343 1.1484375,-0.621093 1.453125,-0.621093 1.5,0 1.6992188,1.7929683 1.6992188,2.5195308 0,0.9960938 -0.3398438,2.2148438 -1.6523438,3.84375 l -2.8007812,3.51562501 c -0.1757813,0.2109375 -0.1757813,0.24609375 -0.1757813,0.5859375 v 0.3164062525 h 6.5273438 z m 0,0"
       style="fill:#f9f9f9;fill-opacity:1;fill-rule:nonzero;stroke:none"
       aria-label="2"
       transform="matrix(1.3333333,0,0,1.3333333,112.30933,719.91867)"
       clip-path="url(#clipPath153)" />
    <path
       id="path154"
       d="m 60.24345,78.77942 c 0,4.21826 -3.41949,7.63777 -7.63775,7.63777 -4.21826,0 -7.63777,-3.41951 -7.63777,-7.63777 0,-4.21825 3.41951,-7.63776 7.63777,-7.63776 4.21826,0 7.63775,3.41951 7.63775,7.63776 z"
       style="fill:#ffffff;fill-opacity:1;fill-rule:nonzero;stroke:#ffffff;stroke-width:0.3985;stroke-linecap:butt;stroke-linejoin:miter;stroke-miterlimit:10;stroke-dasharray:none;stroke-opacity:1"
       transform="matrix(1.3333333,0,0,-1.3333333,83.648,782.20133)"
       clip-path="url(#clipPath155)" />
    <path
       id="path156"
       d="M 7.0540859,-3.125e-4 V -0.83234375 H 5.0033047 V -11.051094 c 0,-0.5625 -0.09375,-0.5625 -0.6914063,-0.5625 -1.171875,1.136719 -3.0351562,1.136719 -3.65624996,1.136719 v 0.8320312 c 0.45703126,0 1.28906246,0 2.23828126,-0.3046875 v 9.11718755 H 0.90174219 V -3.125e-4 C 1.5814297,-0.05890625 3.1868984,-0.05890625 3.9486172,-0.05890625 c 0.7617187,0 2.4375,0 3.1054687,0.05859375 z m 0,0"
       style="fill:#000000;fill-opacity:1;fill-rule:nonzero;stroke:none"
       aria-label="1"
       transform="matrix(1.3333333,0,0,1.3333333,148.64533,684.90667)"
       clip-path="url(#clipPath157)" />
    <path
       id="path158"
       d="m 86.50327,105.03925 c 0,4.21825 -3.41951,7.63777 -7.63777,7.63777 -4.21825,0 -7.63776,-3.41952 -7.63776,-7.63777 0,-4.21827 3.41951,-7.63776 7.63776,-7.63776 4.21826,0 7.63777,3.41949 7.63777,7.63776 z"
       style="fill:#ffffff;fill-opacity:1;fill-rule:nonzero;stroke:#ffffff;stroke-width:0.3985;stroke-linecap:butt;stroke-linejoin:miter;stroke-miterlimit:10;stroke-dasharray:none;stroke-opacity:1"
       transform="matrix(1.3333333,0,0,-1.3333333,83.648,782.20133)"
       clip-path="url(#clipPath159)" />
    <path
       id="path160"
       d="m 8.6712734,-3.1862812 c 0,-1.0546875 -0.5390625,-2.5429688 -2.71875,-3.0351563 0.9140625,-0.3515625 2.2382813,-1.3125 2.2382813,-2.9296875 0,-1.429687 -1.3125,-2.460937 -3.4453125,-2.460937 -1.8515625,0 -2.953125,1.289062 -2.953125,2.5312495 0,0.8320313 0.5859375,1.265625 1.21875,1.265625 0.796875,0 1.2421875,-0.5742187 1.2421875,-1.2304687 0,-0.3632813 -0.1523438,-1.1132808 -1.1367188,-1.2187498 0.5507813,-0.585938 1.2421875,-0.65625 1.5234375,-0.65625 1.1015625,0 1.125,1.1015623 1.125,1.6992185 0,0.1289063 0,1.1015625 -0.2695312,1.828125 -0.3164063,0.796875 -0.75,0.8320313 -1.3945313,0.8671875 -0.4453125,0.035156 -0.5742187,0.058594 -0.5742187,0.3515625 0,0.328125 0.1757812,0.328125 0.4921875,0.328125 h 0.46875 c 1.3945312,0 1.4648437,1.3125 1.4648437,2.6367188 0,0.9609375 0,2.64843745 -1.3242187,2.64843745 -0.5859375,0 -1.2773438,-0.234375 -1.7226563,-0.58593745 0.5390625,-0.1054688 1.1132813,-0.515625 1.1132813,-1.3476563 0,-0.796875 -0.5625,-1.3476562 -1.3476563,-1.3476562 -0.7382812,0 -1.359375,0.4804687 -1.359375,1.3828125 0,1.4296875 1.3945313,2.6601562 3.3984375,2.6601562 2.5546875,0 3.9609375,-1.546875 3.9609375,-3.3867187 z m 0,0"
       style="fill:#000000;fill-opacity:1;fill-rule:nonzero;stroke:none"
       aria-label="3"
       transform="matrix(1.3333333,0,0,1.3333333,182.14533,649.764)"
       clip-path="url(#clipPath161)" />
    <path
       id="path162"
       d="m 112.76308,131.29906 c 0,4.21826 -3.4195,7.63775 -7.63776,7.63775 -4.21826,0 -7.63776,-3.41949 -7.63776,-7.63775 0,-4.21826 3.4195,-7.63777 7.63776,-7.63777 4.21826,0 7.63776,3.41951 7.63776,7.63777 z"
       style="fill:#ffffff;fill-opacity:1;fill-rule:nonzero;stroke:#ffffff;stroke-width:0.3985;stroke-linecap:butt;stroke-linejoin:miter;stroke-miterlimit:10;stroke-dasharray:none;stroke-opacity:1"
       transform="matrix(1.3333333,0,0,-1.3333333,83.648,782.20133)"
       clip-path="url(#clipPath163)" />
    <path
       id="path164"
       d="m 8.2621094,-10.944312 v -0.46875 H 4.3949219 c -0.1875,0 -0.9492188,-0.02344 -1.4179688,-0.07031 -0.7734375,-0.09375 -0.8085937,-0.234375 -0.8671875,-0.503906 H 1.2777344 L 0.65664063,-7.4755625 H 1.4886719 c 0.09375,-0.609375 0.1757812,-1.3007812 0.4101562,-1.5820312 0.082031,-0.140625 1.4648438,-0.140625 1.7226563,-0.140625 h 2.3671875 l -1.21875,1.6289062 c -0.058594,0.070312 -2.2734375,3.046875 -2.2734375,6.5039063 0,1.26562495 0.984375,1.26562495 1.1015625,1.26562495 0.28125,0 1.1132812,-0.09375 1.1132812,-1.26562495 v -0.9375 c 0,-1.3242188 0.1171875,-4.1484375 0.984375,-5.3203125 l 2.4023438,-3.2812503 c 0.1640625,-0.1875 0.1640625,-0.222656 0.1640625,-0.339843 z m 0,0"
       style="fill:#000000;fill-opacity:1;fill-rule:nonzero;stroke:none"
       aria-label="7"
       transform="matrix(1.3333333,0,0,1.3333333,217.86667,614.99867)"
       clip-path="url(#clipPath165)" />
    <path
       id="path166"
       d="m 112.76308,105.03925 c 0,4.21825 -3.4195,7.63777 -7.63776,7.63777 -4.21826,0 -7.63776,-3.41952 -7.63776,-7.63777 0,-4.21827 3.4195,-7.63776 7.63776,-7.63776 4.21826,0 7.63776,3.41949 7.63776,7.63776 z"
       style="fill:#000000;fill-opacity:1;fill-rule:nonzero;stroke:#000000;stroke-width:0.3985;stroke-linecap:butt;stroke-linejoin:miter;stroke-miterlimit:10;stroke-dasharray:none;stroke-opacity:1"
       transform="matrix(1.3333333,0,0,-1.3333333,83.648,782.20133)"
       clip-path="url(#clipPath167)" />
    <path
       id="path168"
       d="m 8.6710625,-3.6315937 c 0,-2.6132813 -1.6640625,-3.7734375 -3.4453125,-3.7734375 -0.2226562,0 -1.0195312,0 -1.5,0.8671875 0,-0.09375 0,-1.171875 0.1171875,-2.0273438 0.328125,-2.1562495 1.7109375,-2.3554685 2.1328125,-2.3554685 0.375,0 0.796875,0.128906 1.0664063,0.445312 -0.4804688,0.04687 -1.03125,0.386719 -1.03125,1.1132815 0,0.609375 0.4101562,1.1015625 1.1015625,1.1015625 0.6328125,0 1.1132812,-0.4101562 1.1132812,-1.1484375 0,-0.9609375 -0.5625,-2.2031245 -2.2851562,-2.2031245 -1.5820313,0 -4.6289063,1.007812 -4.6289063,6.0117183 0,1.171875 0,5.8007812 3.7382813,5.8007812 1.9335937,0 3.6210937,-1.265625 3.6210937,-3.8320312 z M 6.257,-3.7019062 c 0,0.6679687 0,1.5351562 -0.046875,2.0742187 -0.09375,0.65625 -0.5390625,1.06640625 -1.1953125,1.06640625 -0.5859375,0 -0.9609375,-0.50390625 -1.1367187,-0.99609375 -0.140625,-0.375 -0.140625,-1.453125 -0.140625,-2.0625 0,-1.0429687 0,-3.1523437 1.3710937,-3.1523437 0.65625,0 1.0195313,0.4804687 1.1015625,1.03125 C 6.257,-5.2839375 6.257,-4.1120625 6.257,-3.7019062 Z m 0,0"
       style="fill:#f9f9f9;fill-opacity:1;fill-rule:nonzero;stroke:none"
       aria-label="6"
       transform="matrix(1.3333333,0,0,1.3333333,217.15733,649.764)"
       clip-path="url(#clipPath169)" />
    <path
       id="path170"
       d="m 112.76308,78.77942 c 0,4.21826 -3.4195,7.63777 -7.63776,7.63777 -4.21826,0 -7.63776,-3.41951 -7.63776,-7.63777 0,-4.21825 3.4195,-7.63776 7.63776,-7.63776 4.21826,0 7.63776,3.41951 7.63776,7.63776 z"
       style="fill:#000000;fill-opacity:1;fill-rule:nonzero;stroke:#000000;stroke-width:0.3985;stroke-linecap:butt;stroke-linejoin:miter;stroke-miterlimit:10;stroke-dasharray:none;stroke-opacity:1"
       transform="matrix(1.3333333,0,0,-1.3333333,83.648,782.20133)"
       clip-path="url(#clipPath171)" />
    <path
       id="path172"
       d="M 8.5091562,-5.234375e-4 V -0.83255469 H 7.1615 V -2.7661484 H 8.5091562 V -3.5981797 H 7.1615 v -7.4648433 c 0,-0.445313 -0.011719,-0.574219 -0.515625,-0.574219 -0.28125,0 -0.3632813,0 -0.5507813,0.269531 l -5.43749995,7.7695313 v 0.8320313 H 4.9466562 v 1.93359371 H 3.224 V -5.234375e-4 C 3.8450937,-0.05911719 5.2982187,-0.05911719 5.989625,-0.05911719 c 0.7265625,0 1.828125,0 2.5195312,0.0585937525 z M 5.145875,-3.5981797 H 1.5247812 L 5.145875,-8.7427109 Z m 0,0"
       style="fill:#f9f9f9;fill-opacity:1;fill-rule:nonzero;stroke:none"
       aria-label="4"
       transform="matrix(1.3333333,0,0,1.3333333,217.70133,684.91867)"
       clip-path="url(#clipPath173)" />
    <path
       id="path174"
       d="m 138.93681,105.39609 c 0,4.21826 -3.41949,7.63775 -7.63775,7.63775 -4.21826,0 -7.63777,-3.41949 -7.63777,-7.63775 0,-4.21826 3.41951,-7.63777 7.63777,-7.63777 4.21826,0 7.63775,3.41951 7.63775,7.63777 z"
       style="fill:#ffffff;fill-opacity:1;fill-rule:nonzero;stroke:#ffffff;stroke-width:0.3985;stroke-linecap:butt;stroke-linejoin:miter;stroke-miterlimit:10;stroke-dasharray:none;stroke-opacity:1"
       transform="matrix(1.3333333,0,0,-1.3333333,83.648,782.20133)"
       clip-path="url(#clipPath175)" />
    <path
       id="path176"
       d="m 12.258422,0.00124219 v -0.796875 H 10.817016 L 7.0670156,-11.436258 c -0.1523437,-0.433594 -0.328125,-0.445312 -0.6328125,-0.445312 -0.3046875,0 -0.4921875,0 -0.6445312,0.445312 l -3.609375,10.2421877 c -0.082031,0.25781249 -0.1054688,0.30468749 -0.5976563,0.36328124 -0.3398437,0.0351563 -0.72656247,0.0351563 -0.98437497,0.0351563 v 0.796875 l 1.80468747,-0.046875 2.0039063,0.046875 v -0.796875 c -0.1289063,0 -1.3242188,0 -1.3242188,-0.21093744 l 0.070312,-0.1992188 0.65625,-1.8867187 h 3.7382813 l 0.796875,2.29687494 H 6.9263906 v 0.796875 c 0.6210938,-0.046875 2.0976563,-0.046875 2.7773438,-0.046875 0.6679686,0 1.9453126,0 2.5546876,0.04687495 z M 7.2545156,-3.9011016 H 4.0904531 l 1.5820313,-4.4882812 z m 0,0"
       style="fill:#000000;fill-opacity:1;fill-rule:nonzero;stroke:none"
       aria-label="A"
       transform="matrix(1.3333333,0,0,1.3333333,250.132,649.596)"
       clip-path="url(#clipPath177)" />
    <path
       id="path178"
       d="m 139.02289,78.77942 c 0,4.21826 -3.41949,7.63777 -7.63776,7.63777 -4.21826,0 -7.63777,-3.41951 -7.63777,-7.63777 0,-4.21825 3.41951,-7.63776 7.63777,-7.63776 4.21827,0 7.63776,3.41951 7.63776,7.63776 z"
       style="fill:#ffffff;fill-opacity:1;fill-rule:nonzero;stroke:#ffffff;stroke-width:0.3985;stroke-linecap:butt;stroke-linejoin:miter;stroke-miterlimit:10;stroke-dasharray:none;stroke-opacity:1"
       transform="matrix(1.3333333,0,0,-1.3333333,83.648,782.20133)"
       clip-path="url(#clipPath179)" />
    <path
       id="path180"
       d="m 8.3901563,-3.5849297 c 0,-2.2148437 -1.453125,-3.6679687 -3.5625,-3.6679687 -0.3398438,0 -1.0898438,0.023437 -1.8632813,0.5507812 v -2.2382812 c 0.28125,0.070312 0.3867188,0.09375 0.9140625,0.09375 2.4140625,0 3.8203125,-1.9804686 3.8203125,-2.4492186 0,-0.117188 -0.035156,-0.316406 -0.2578125,-0.316406 -0.046875,0 -0.082031,0 -0.2226562,0.09375 -0.8203125,0.328125 -1.6289063,0.46875 -2.3554688,0.46875 -1.0898437,0 -1.8632812,-0.28125 -2.3671875,-0.492188 -0.1054687,-0.03516 -0.1523437,-0.07031 -0.2109375,-0.07031 -0.2695312,0 -0.2695312,0.234375 -0.2695312,0.515625 v 5.1093746 c 0,0.3515625 0,0.5859375 0.4101562,0.5859375 0.1992188,0 0.2695313,-0.058594 0.3632813,-0.1875 0.1875,-0.28125 0.7382812,-1.0195313 1.9570312,-1.0195313 1.125,0 1.125,1.2890625 1.125,2.9179688 0,0.8320312 0,1.6171875 -0.1992187,2.1445312 -0.234375,0.69140626 -0.8671875,0.98437501 -1.4179688,0.98437501 -0.6210937,0 -1.359375,-0.33984375 -1.7929687,-1.10156251 0.8320312,-0.035156 1.2304687,-0.5742187 1.2304687,-1.1953125 0,-0.9375 -0.7617187,-1.1953125 -1.1953125,-1.1953125 -0.2578125,0 -1.1835937,0.1523438 -1.1835937,1.2304688 0,1.40625 1.078125,3.02343746 3.0117187,3.02343746 2.3085938,0 4.0664063,-1.40624996 4.0664063,-3.78515626 z m 0,0"
       style="fill:#000000;fill-opacity:1;fill-rule:nonzero;stroke:none"
       aria-label="5"
       transform="matrix(1.3333333,0,0,1.3333333,252.36,684.776)"
       clip-path="url(#clipPath181)" />
    <path
       id="path182"
       d="m 165.47952,105.08812 c 0,4.21826 -3.41951,7.63777 -7.63777,7.63777 -4.21826,0 -7.63775,-3.41951 -7.63775,-7.63777 0,-4.21826 3.41949,-7.63776 7.63775,-7.63776 4.21826,0 7.63777,3.4195 7.63777,7.63776 z"
       style="fill:#ffffff;fill-opacity:1;fill-rule:nonzero;stroke:#ffffff;stroke-width:0.3985;stroke-linecap:butt;stroke-linejoin:miter;stroke-miterlimit:10;stroke-dasharray:none;stroke-opacity:1"
       transform="matrix(1.3333333,0,0,-1.3333333,83.648,782.20133)"
       clip-path="url(#clipPath183)" />
    <path
       id="path184"
       d="m 11.13225,-3.1637422 c 0,-1.4296875 -0.972656,-2.6953125 -2.9765625,-2.953125 1.6289062,-0.3164062 2.5195315,-1.3710937 2.5195315,-2.6367187 0,-1.5117191 -1.1953128,-2.9296871 -3.6562503,-2.9296871 H 0.57365625 v 0.808593 H 2.179125 V -0.79655469 H 0.57365625 V 3.203125e-4 H 7.4525625 c 2.5078125,0 3.6796875,-1.5117187125 3.6796875,-3.1640625125 z M 8.2611562,-8.7535859 c 0,1.265625 -0.4804687,2.3671875 -1.8632812,2.3671875 H 4.4056875 V -10.87468 h 2.390625 c 0.3046875,0 1.4648437,0 1.4648437,2.1210941 z m 0.375,5.5546875 c 0,0.7265625 -0.1523437,1.2539062 -0.375,1.6289062 -0.46875,0.77343751 -1.1484375,0.77343751 -1.4296875,0.77343751 H 4.4056875 V -5.7770234 h 2.5898437 c 0.3398438,0 0.890625,0 1.2773438,0.8085937 0.3632812,0.6796875 0.3632812,1.6171875 0.3632812,1.7695313 z m 0,0"
       style="fill:#000000;fill-opacity:1;fill-rule:nonzero;stroke:none"
       aria-label="B"
       transform="matrix(1.3333333,0,0,1.3333333,286.032,649.87067)"
       clip-path="url(#clipPath185)" />
  </g>
</svg>
