<?xml version="1.0" encoding="UTF-8"?>
<svg xmlns="http://www.w3.org/2000/svg" xmlns:xlink="http://www.w3.org/1999/xlink" width="324.781pt" height="248.972pt" viewBox="0 0 324.781 248.972">
<defs>
<g>
<g id="glyph-0-0">
<path d="M 4.546875 -3.28125 C 4.546875 -5.953125 3.40625 -6.625 2.515625 -6.625 C 1.96875 -6.625 1.484375 -6.453125 1.0625 -6 C 0.640625 -5.546875 0.421875 -5.140625 0.421875 -4.390625 C 0.421875 -3.140625 1.296875 -2.171875 2.40625 -2.171875 C 3.015625 -2.171875 3.421875 -2.59375 3.65625 -3.171875 L 3.65625 -2.84375 C 3.65625 -0.515625 2.625 -0.0625 2.046875 -0.0625 C 1.875 -0.0625 1.328125 -0.078125 1.0625 -0.421875 C 1.5 -0.421875 1.578125 -0.703125 1.578125 -0.875 C 1.578125 -1.1875 1.34375 -1.328125 1.125 -1.328125 C 0.96875 -1.328125 0.671875 -1.25 0.671875 -0.859375 C 0.671875 -0.1875 1.203125 0.21875 2.046875 0.21875 C 3.328125 0.21875 4.546875 -1.140625 4.546875 -3.28125 Z M 3.640625 -4.1875 C 3.640625 -3.359375 3.296875 -2.40625 2.421875 -2.40625 C 2.265625 -2.40625 1.796875 -2.40625 1.5 -3.03125 C 1.3125 -3.390625 1.3125 -3.890625 1.3125 -4.375 C 1.3125 -4.921875 1.3125 -5.390625 1.515625 -5.75 C 1.796875 -6.25 2.171875 -6.375 2.515625 -6.375 C 2.96875 -6.375 3.296875 -6.046875 3.46875 -5.59375 C 3.59375 -5.28125 3.640625 -4.640625 3.640625 -4.1875 Z M 3.640625 -4.1875 "/>
</g>
<g id="glyph-0-1">
<path d="M 4.546875 -1.671875 C 4.546875 -2.03125 4.4375 -2.484375 4.0625 -2.890625 C 3.875 -3.109375 3.71875 -3.203125 3.078125 -3.609375 C 3.796875 -3.96875 4.28125 -4.484375 4.28125 -5.140625 C 4.28125 -6.0625 3.390625 -6.625 2.484375 -6.625 C 1.5 -6.625 0.6875 -5.890625 0.6875 -4.96875 C 0.6875 -4.78125 0.703125 -4.34375 1.125 -3.875 C 1.234375 -3.75 1.609375 -3.5 1.84375 -3.328125 C 1.28125 -3.046875 0.421875 -2.484375 0.421875 -1.5 C 0.421875 -0.453125 1.4375 0.21875 2.484375 0.21875 C 3.609375 0.21875 4.546875 -0.609375 4.546875 -1.671875 Z M 3.84375 -5.140625 C 3.84375 -4.578125 3.453125 -4.09375 2.859375 -3.75 L 1.625 -4.546875 C 1.171875 -4.84375 1.125 -5.1875 1.125 -5.359375 C 1.125 -5.96875 1.765625 -6.375 2.484375 -6.375 C 3.203125 -6.375 3.84375 -5.859375 3.84375 -5.140625 Z M 4.046875 -1.3125 C 4.046875 -0.578125 3.296875 -0.0625 2.484375 -0.0625 C 1.625 -0.0625 0.921875 -0.671875 0.921875 -1.5 C 0.921875 -2.078125 1.234375 -2.71875 2.078125 -3.1875 L 3.296875 -2.40625 C 3.578125 -2.21875 4.046875 -1.921875 4.046875 -1.3125 Z M 4.046875 -1.3125 "/>
</g>
<g id="glyph-0-2">
<path d="M 4.828125 -6.40625 L 2.40625 -6.40625 C 1.1875 -6.40625 1.171875 -6.546875 1.140625 -6.734375 L 0.890625 -6.734375 L 0.5625 -4.671875 L 0.8125 -4.671875 C 0.84375 -4.84375 0.921875 -5.46875 1.0625 -5.578125 C 1.125 -5.640625 1.90625 -5.640625 2.03125 -5.640625 L 4.09375 -5.640625 L 2.96875 -4.078125 C 2.078125 -2.734375 1.75 -1.34375 1.75 -0.328125 C 1.75 -0.234375 1.75 0.21875 2.203125 0.21875 C 2.671875 0.21875 2.671875 -0.234375 2.671875 -0.328125 L 2.671875 -0.84375 C 2.671875 -1.390625 2.703125 -1.9375 2.78125 -2.46875 C 2.8125 -2.703125 2.953125 -3.546875 3.390625 -4.171875 L 4.734375 -6.0625 C 4.828125 -6.1875 4.828125 -6.203125 4.828125 -6.40625 Z M 4.828125 -6.40625 "/>
</g>
<g id="glyph-0-3">
<path d="M 4.546875 -2.03125 C 4.546875 -3.296875 3.65625 -4.25 2.5625 -4.25 C 1.875 -4.25 1.515625 -3.75 1.3125 -3.265625 L 1.3125 -3.5 C 1.3125 -6.015625 2.546875 -6.375 3.0625 -6.375 C 3.296875 -6.375 3.71875 -6.3125 3.9375 -5.984375 C 3.78125 -5.984375 3.390625 -5.984375 3.390625 -5.53125 C 3.390625 -5.21875 3.625 -5.078125 3.84375 -5.078125 C 4 -5.078125 4.296875 -5.171875 4.296875 -5.546875 C 4.296875 -6.15625 3.859375 -6.625 3.03125 -6.625 C 1.765625 -6.625 0.421875 -5.34375 0.421875 -3.140625 C 0.421875 -0.484375 1.578125 0.21875 2.5 0.21875 C 3.609375 0.21875 4.546875 -0.71875 4.546875 -2.03125 Z M 3.65625 -2.046875 C 3.65625 -1.5625 3.65625 -1.0625 3.484375 -0.703125 C 3.1875 -0.109375 2.734375 -0.0625 2.5 -0.0625 C 1.875 -0.0625 1.578125 -0.65625 1.515625 -0.8125 C 1.328125 -1.28125 1.328125 -2.0625 1.328125 -2.25 C 1.328125 -3.03125 1.65625 -4.015625 2.546875 -4.015625 C 2.703125 -4.015625 3.171875 -4.015625 3.46875 -3.40625 C 3.65625 -3.03125 3.65625 -2.53125 3.65625 -2.046875 Z M 3.65625 -2.046875 "/>
</g>
<g id="glyph-0-4">
<path d="M 4.46875 -2 C 4.46875 -3.1875 3.65625 -4.1875 2.578125 -4.1875 C 2.09375 -4.1875 1.671875 -4.015625 1.3125 -3.671875 L 1.3125 -5.609375 C 1.515625 -5.546875 1.84375 -5.484375 2.15625 -5.484375 C 3.390625 -5.484375 4.078125 -6.390625 4.078125 -6.515625 C 4.078125 -6.578125 4.046875 -6.625 3.984375 -6.625 C 3.984375 -6.625 3.953125 -6.625 3.90625 -6.59375 C 3.703125 -6.515625 3.21875 -6.3125 2.546875 -6.3125 C 2.15625 -6.3125 1.6875 -6.375 1.21875 -6.59375 C 1.140625 -6.625 1.109375 -6.625 1.109375 -6.625 C 1 -6.625 1 -6.546875 1 -6.375 L 1 -3.4375 C 1 -3.25 1 -3.171875 1.140625 -3.171875 C 1.21875 -3.171875 1.234375 -3.203125 1.28125 -3.265625 C 1.390625 -3.421875 1.75 -3.96875 2.5625 -3.96875 C 3.078125 -3.96875 3.328125 -3.5 3.40625 -3.328125 C 3.5625 -2.953125 3.578125 -2.5625 3.578125 -2.0625 C 3.578125 -1.71875 3.578125 -1.125 3.34375 -0.703125 C 3.109375 -0.3125 2.734375 -0.0625 2.28125 -0.0625 C 1.546875 -0.0625 0.984375 -0.59375 0.8125 -1.171875 C 0.84375 -1.171875 0.875 -1.15625 0.984375 -1.15625 C 1.3125 -1.15625 1.484375 -1.40625 1.484375 -1.640625 C 1.484375 -1.875 1.3125 -2.125 0.984375 -2.125 C 0.84375 -2.125 0.5 -2.0625 0.5 -1.609375 C 0.5 -0.75 1.1875 0.21875 2.296875 0.21875 C 3.453125 0.21875 4.46875 -0.734375 4.46875 -2 Z M 4.46875 -2 "/>
</g>
<g id="glyph-0-5">
<path d="M 4.6875 -1.640625 L 4.6875 -1.953125 L 3.6875 -1.953125 L 3.6875 -6.484375 C 3.6875 -6.671875 3.6875 -6.734375 3.53125 -6.734375 C 3.4375 -6.734375 3.40625 -6.734375 3.328125 -6.625 L 0.28125 -1.953125 L 0.28125 -1.640625 L 2.921875 -1.640625 L 2.921875 -0.78125 C 2.921875 -0.421875 2.90625 -0.3125 2.171875 -0.3125 L 1.953125 -0.3125 L 1.953125 0 C 2.375 -0.03125 2.890625 -0.03125 3.296875 -0.03125 C 3.71875 -0.03125 4.25 -0.03125 4.65625 0 L 4.65625 -0.3125 L 4.453125 -0.3125 C 3.71875 -0.3125 3.6875 -0.421875 3.6875 -0.78125 L 3.6875 -1.640625 Z M 2.984375 -1.953125 L 0.5625 -1.953125 L 2.984375 -5.65625 Z M 2.984375 -1.953125 "/>
</g>
<g id="glyph-0-6">
<path d="M 4.546875 -1.703125 C 4.546875 -2.515625 3.921875 -3.296875 2.890625 -3.5 C 3.703125 -3.765625 4.28125 -4.46875 4.28125 -5.25 C 4.28125 -6.078125 3.40625 -6.625 2.453125 -6.625 C 1.4375 -6.625 0.6875 -6.03125 0.6875 -5.28125 C 0.6875 -4.953125 0.90625 -4.75 1.1875 -4.75 C 1.5 -4.75 1.703125 -4.96875 1.703125 -5.265625 C 1.703125 -5.765625 1.234375 -5.765625 1.078125 -5.765625 C 1.390625 -6.25 2.046875 -6.375 2.40625 -6.375 C 2.8125 -6.375 3.359375 -6.15625 3.359375 -5.265625 C 3.359375 -5.140625 3.34375 -4.5625 3.078125 -4.125 C 2.78125 -3.65625 2.453125 -3.625 2.203125 -3.609375 C 2.125 -3.609375 1.875 -3.578125 1.8125 -3.578125 C 1.734375 -3.578125 1.65625 -3.5625 1.65625 -3.46875 C 1.65625 -3.359375 1.734375 -3.359375 1.90625 -3.359375 L 2.34375 -3.359375 C 3.15625 -3.359375 3.515625 -2.671875 3.515625 -1.703125 C 3.515625 -0.34375 2.84375 -0.0625 2.40625 -0.0625 C 1.96875 -0.0625 1.21875 -0.234375 0.875 -0.8125 C 1.21875 -0.765625 1.53125 -0.984375 1.53125 -1.359375 C 1.53125 -1.71875 1.265625 -1.921875 0.96875 -1.921875 C 0.734375 -1.921875 0.421875 -1.78125 0.421875 -1.34375 C 0.421875 -0.4375 1.34375 0.21875 2.421875 0.21875 C 3.640625 0.21875 4.546875 -0.6875 4.546875 -1.703125 Z M 4.546875 -1.703125 "/>
</g>
<g id="glyph-0-7">
<path d="M 4.46875 -1.734375 L 4.21875 -1.734375 C 4.171875 -1.4375 4.09375 -1 4 -0.84375 C 3.9375 -0.765625 3.28125 -0.765625 3.0625 -0.765625 L 1.265625 -0.765625 L 2.3125 -1.796875 C 3.875 -3.171875 4.46875 -3.703125 4.46875 -4.703125 C 4.46875 -5.828125 3.578125 -6.625 2.359375 -6.625 C 1.234375 -6.625 0.5 -5.71875 0.5 -4.828125 C 0.5 -4.265625 1 -4.265625 1.03125 -4.265625 C 1.1875 -4.265625 1.546875 -4.390625 1.546875 -4.796875 C 1.546875 -5.0625 1.359375 -5.3125 1.015625 -5.3125 C 0.9375 -5.3125 0.921875 -5.3125 0.890625 -5.3125 C 1.109375 -5.953125 1.65625 -6.3125 2.234375 -6.3125 C 3.140625 -6.3125 3.5625 -5.515625 3.5625 -4.703125 C 3.5625 -3.90625 3.0625 -3.109375 2.515625 -2.5 L 0.609375 -0.375 C 0.5 -0.265625 0.5 -0.234375 0.5 0 L 4.1875 0 Z M 4.46875 -1.734375 "/>
</g>
<g id="glyph-0-8">
<path d="M 4.171875 0 L 4.171875 -0.3125 L 3.859375 -0.3125 C 2.953125 -0.3125 2.921875 -0.421875 2.921875 -0.78125 L 2.921875 -6.375 C 2.921875 -6.609375 2.921875 -6.625 2.703125 -6.625 C 2.078125 -5.984375 1.203125 -5.984375 0.890625 -5.984375 L 0.890625 -5.6875 C 1.078125 -5.6875 1.671875 -5.6875 2.1875 -5.9375 L 2.1875 -0.78125 C 2.1875 -0.421875 2.15625 -0.3125 1.265625 -0.3125 L 0.953125 -0.3125 L 0.953125 0 C 1.296875 -0.03125 2.15625 -0.03125 2.5625 -0.03125 C 2.953125 -0.03125 3.828125 -0.03125 4.171875 0 Z M 4.171875 0 "/>
</g>
<g id="glyph-0-9">
<path d="M 7.140625 0 L 7.140625 -0.3125 L 6.953125 -0.3125 C 6.359375 -0.3125 6.21875 -0.375 6.109375 -0.703125 L 3.96875 -6.921875 C 3.90625 -7.0625 3.890625 -7.125 3.734375 -7.125 C 3.578125 -7.125 3.546875 -7.0625 3.5 -6.921875 L 1.4375 -0.96875 C 1.25 -0.46875 0.859375 -0.3125 0.3125 -0.3125 L 0.3125 0 L 1.328125 -0.03125 L 2.484375 0 L 2.484375 -0.3125 C 1.984375 -0.3125 1.734375 -0.5625 1.734375 -0.8125 C 1.734375 -0.84375 1.734375 -0.953125 1.75 -0.96875 L 2.203125 -2.265625 L 4.671875 -2.265625 L 5.203125 -0.75 C 5.203125 -0.703125 5.21875 -0.640625 5.21875 -0.609375 C 5.21875 -0.3125 4.671875 -0.3125 4.40625 -0.3125 L 4.40625 0 C 4.75 -0.03125 5.453125 -0.03125 5.828125 -0.03125 Z M 4.5625 -2.578125 L 2.3125 -2.578125 L 3.4375 -5.8125 Z M 4.5625 -2.578125 "/>
</g>
<g id="glyph-0-10">
<path d="M 6.484375 -1.828125 C 6.484375 -2.6875 5.65625 -3.4375 4.5625 -3.546875 C 5.53125 -3.75 6.203125 -4.375 6.203125 -5.109375 C 6.203125 -5.984375 5.296875 -6.796875 4 -6.796875 L 0.359375 -6.796875 L 0.359375 -6.484375 L 0.59375 -6.484375 C 1.359375 -6.484375 1.390625 -6.375 1.390625 -6.015625 L 1.390625 -0.78125 C 1.390625 -0.421875 1.359375 -0.3125 0.59375 -0.3125 L 0.359375 -0.3125 L 0.359375 0 L 4.265625 0 C 5.578125 0 6.484375 -0.890625 6.484375 -1.828125 Z M 5.25 -5.109375 C 5.25 -4.484375 4.75 -3.640625 3.65625 -3.640625 L 2.203125 -3.640625 L 2.203125 -6.09375 C 2.203125 -6.421875 2.234375 -6.484375 2.703125 -6.484375 L 3.9375 -6.484375 C 4.890625 -6.484375 5.25 -5.640625 5.25 -5.109375 Z M 5.484375 -1.828125 C 5.484375 -1.125 4.96875 -0.3125 3.9375 -0.3125 L 2.703125 -0.3125 C 2.234375 -0.3125 2.203125 -0.375 2.203125 -0.703125 L 2.203125 -3.421875 L 4.078125 -3.421875 C 5.0625 -3.421875 5.484375 -2.5 5.484375 -1.828125 Z M 5.484375 -1.828125 "/>
</g>
<g id="glyph-0-11">
<path d="M 6.625 -2.3125 C 6.625 -2.421875 6.625 -2.484375 6.484375 -2.484375 C 6.375 -2.484375 6.375 -2.421875 6.375 -2.328125 C 6.296875 -0.90625 5.21875 -0.09375 4.140625 -0.09375 C 3.53125 -0.09375 1.578125 -0.421875 1.578125 -3.390625 C 1.578125 -6.375 3.515625 -6.703125 4.125 -6.703125 C 5.21875 -6.703125 6.09375 -5.796875 6.296875 -4.34375 C 6.3125 -4.203125 6.3125 -4.1875 6.453125 -4.1875 C 6.625 -4.1875 6.625 -4.203125 6.625 -4.421875 L 6.625 -6.78125 C 6.625 -6.953125 6.625 -7.015625 6.515625 -7.015625 C 6.46875 -7.015625 6.421875 -7.015625 6.34375 -6.890625 L 5.859375 -6.15625 C 5.484375 -6.515625 4.96875 -7.015625 4.015625 -7.015625 C 2.15625 -7.015625 0.5625 -5.4375 0.5625 -3.40625 C 0.5625 -1.34375 2.171875 0.21875 4.015625 0.21875 C 5.640625 0.21875 6.625 -1.171875 6.625 -2.3125 Z M 6.625 -2.3125 "/>
</g>
<g id="glyph-0-12">
<path d="M 7.03125 -3.34375 C 7.03125 -5.234375 5.6875 -6.796875 3.984375 -6.796875 L 0.34375 -6.796875 L 0.34375 -6.484375 L 0.59375 -6.484375 C 1.359375 -6.484375 1.375 -6.375 1.375 -6.015625 L 1.375 -0.78125 C 1.375 -0.421875 1.359375 -0.3125 0.59375 -0.3125 L 0.34375 -0.3125 L 0.34375 0 L 3.984375 0 C 5.65625 0 7.03125 -1.46875 7.03125 -3.34375 Z M 6.046875 -3.34375 C 6.046875 -2.234375 5.859375 -1.640625 5.5 -1.15625 C 5.296875 -0.890625 4.734375 -0.3125 3.71875 -0.3125 L 2.71875 -0.3125 C 2.25 -0.3125 2.234375 -0.375 2.234375 -0.703125 L 2.234375 -6.09375 C 2.234375 -6.421875 2.25 -6.484375 2.71875 -6.484375 L 3.71875 -6.484375 C 4.328125 -6.484375 5.015625 -6.265625 5.53125 -5.5625 C 5.953125 -4.96875 6.046875 -4.125 6.046875 -3.34375 Z M 6.046875 -3.34375 "/>
</g>
<g id="glyph-0-13">
<path d="M 6.484375 -2.5625 L 6.234375 -2.5625 C 5.984375 -1.03125 5.765625 -0.3125 4.046875 -0.3125 L 2.734375 -0.3125 C 2.265625 -0.3125 2.234375 -0.375 2.234375 -0.703125 L 2.234375 -3.359375 L 3.140625 -3.359375 C 4.09375 -3.359375 4.203125 -3.046875 4.203125 -2.203125 L 4.453125 -2.203125 L 4.453125 -4.84375 L 4.203125 -4.84375 C 4.203125 -3.984375 4.09375 -3.671875 3.140625 -3.671875 L 2.234375 -3.671875 L 2.234375 -6.0625 C 2.234375 -6.390625 2.265625 -6.453125 2.734375 -6.453125 L 4.015625 -6.453125 C 5.53125 -6.453125 5.796875 -5.90625 5.96875 -4.53125 L 6.203125 -4.53125 L 5.9375 -6.765625 L 0.328125 -6.765625 L 0.328125 -6.453125 L 0.5625 -6.453125 C 1.328125 -6.453125 1.359375 -6.34375 1.359375 -5.984375 L 1.359375 -0.78125 C 1.359375 -0.421875 1.328125 -0.3125 0.5625 -0.3125 L 0.328125 -0.3125 L 0.328125 0 L 6.078125 0 Z M 6.484375 -2.5625 "/>
</g>
<g id="glyph-0-14">
<path d="M 6.078125 -4.53125 L 5.796875 -6.765625 L 0.328125 -6.765625 L 0.328125 -6.453125 L 0.5625 -6.453125 C 1.328125 -6.453125 1.359375 -6.34375 1.359375 -5.984375 L 1.359375 -0.78125 C 1.359375 -0.421875 1.328125 -0.3125 0.5625 -0.3125 L 0.328125 -0.3125 L 0.328125 0 C 0.671875 -0.03125 1.453125 -0.03125 1.84375 -0.03125 C 2.25 -0.03125 3.15625 -0.03125 3.515625 0 L 3.515625 -0.3125 L 3.1875 -0.3125 C 2.234375 -0.3125 2.234375 -0.4375 2.234375 -0.78125 L 2.234375 -3.234375 L 3.09375 -3.234375 C 4.046875 -3.234375 4.15625 -2.921875 4.15625 -2.0625 L 4.40625 -2.0625 L 4.40625 -4.703125 L 4.15625 -4.703125 C 4.15625 -3.875 4.046875 -3.546875 3.09375 -3.546875 L 2.234375 -3.546875 L 2.234375 -6.0625 C 2.234375 -6.390625 2.265625 -6.453125 2.734375 -6.453125 L 3.921875 -6.453125 C 5.421875 -6.453125 5.65625 -5.90625 5.828125 -4.53125 Z M 6.078125 -4.53125 "/>
</g>
<g id="glyph-0-15">
<path d="M 7.3125 -2.40625 L 7.3125 -2.71875 L 6.09375 -2.6875 C 5.703125 -2.6875 4.859375 -2.6875 4.5 -2.71875 L 4.5 -2.40625 L 4.8125 -2.40625 C 5.71875 -2.40625 5.75 -2.296875 5.75 -1.9375 L 5.75 -1.296875 C 5.75 -0.171875 4.484375 -0.09375 4.203125 -0.09375 C 3.546875 -0.09375 1.578125 -0.4375 1.578125 -3.40625 C 1.578125 -6.375 3.546875 -6.703125 4.140625 -6.703125 C 5.203125 -6.703125 6.109375 -5.8125 6.3125 -4.34375 C 6.328125 -4.203125 6.328125 -4.1875 6.46875 -4.1875 C 6.625 -4.1875 6.625 -4.203125 6.625 -4.421875 L 6.625 -6.78125 C 6.625 -6.953125 6.625 -7.015625 6.515625 -7.015625 C 6.484375 -7.015625 6.4375 -7.015625 6.359375 -6.890625 L 5.859375 -6.15625 C 5.546875 -6.484375 5 -7.015625 4.015625 -7.015625 C 2.171875 -7.015625 0.5625 -5.4375 0.5625 -3.40625 C 0.5625 -1.359375 2.15625 0.21875 4.046875 0.21875 C 4.765625 0.21875 5.5625 -0.046875 5.90625 -0.625 C 6.03125 -0.40625 6.421875 -0.015625 6.546875 -0.015625 C 6.625 -0.015625 6.625 -0.09375 6.625 -0.234375 L 6.625 -1.96875 C 6.625 -2.359375 6.671875 -2.40625 7.3125 -2.40625 Z M 7.3125 -2.40625 "/>
</g>
<g id="glyph-0-16">
<path d="M 7.125 0 L 7.125 -0.3125 L 6.890625 -0.3125 C 6.125 -0.3125 6.09375 -0.421875 6.09375 -0.78125 L 6.09375 -6.015625 C 6.09375 -6.375 6.125 -6.484375 6.890625 -6.484375 L 7.125 -6.484375 L 7.125 -6.796875 C 6.78125 -6.765625 6.046875 -6.765625 5.65625 -6.765625 C 5.28125 -6.765625 4.53125 -6.765625 4.1875 -6.796875 L 4.1875 -6.484375 L 4.421875 -6.484375 C 5.203125 -6.484375 5.21875 -6.375 5.21875 -6.015625 L 5.21875 -3.6875 L 2.234375 -3.6875 L 2.234375 -6.015625 C 2.234375 -6.375 2.265625 -6.484375 3.03125 -6.484375 L 3.265625 -6.484375 L 3.265625 -6.796875 C 2.921875 -6.765625 2.1875 -6.765625 1.796875 -6.765625 C 1.421875 -6.765625 0.671875 -6.765625 0.328125 -6.796875 L 0.328125 -6.484375 L 0.5625 -6.484375 C 1.328125 -6.484375 1.359375 -6.375 1.359375 -6.015625 L 1.359375 -0.78125 C 1.359375 -0.421875 1.328125 -0.3125 0.5625 -0.3125 L 0.328125 -0.3125 L 0.328125 0 C 0.671875 -0.03125 1.40625 -0.03125 1.796875 -0.03125 C 2.171875 -0.03125 2.921875 -0.03125 3.265625 0 L 3.265625 -0.3125 L 3.03125 -0.3125 C 2.265625 -0.3125 2.234375 -0.421875 2.234375 -0.78125 L 2.234375 -3.390625 L 5.21875 -3.390625 L 5.21875 -0.78125 C 5.21875 -0.421875 5.203125 -0.3125 4.421875 -0.3125 L 4.1875 -0.3125 L 4.1875 0 C 4.53125 -0.03125 5.28125 -0.03125 5.65625 -0.03125 C 6.03125 -0.03125 6.78125 -0.03125 7.125 0 Z M 7.125 0 "/>
</g>
<g id="glyph-0-17">
<path d="M 4.625 -6.484375 L 4.625 -6.796875 L 3.34375 -6.765625 C 2.921875 -6.765625 2.046875 -6.765625 1.671875 -6.796875 L 1.671875 -6.484375 L 2.03125 -6.484375 C 3 -6.484375 3 -6.359375 3 -6.015625 L 3 -1.46875 C 3 -0.5625 2.515625 0 1.984375 0 C 1.921875 0 1.25 0 0.890625 -0.578125 C 1.40625 -0.578125 1.515625 -0.875 1.515625 -1.140625 C 1.515625 -1.5 1.25 -1.6875 0.96875 -1.6875 C 0.75 -1.6875 0.40625 -1.546875 0.40625 -1.109375 C 0.40625 -0.375 1.109375 0.21875 2 0.21875 C 3.015625 0.21875 3.75 -0.484375 3.859375 -1.21875 C 3.859375 -1.296875 3.859375 -1.328125 3.859375 -1.65625 L 3.859375 -6.078125 C 3.859375 -6.484375 4 -6.484375 4.625 -6.484375 Z M 4.625 -6.484375 "/>
</g>
<g id="glyph-1-0">
<path d="M -1.09375 -0.046875 L -1.296875 -0.671875 L -20.84375 -0.671875 C -21.15625 -0.671875 -21.375 -0.578125 -21.4375 -0.34375 C -20.609375 0.40625 -19.28125 1.421875 -19.28125 1.421875 L -18.125 -0.046875 L -11.984375 -0.046875 L -11.984375 8.265625 L -18.96875 8.265625 C -19.28125 8.265625 -19.515625 8.375 -19.5625 8.625 C -18.765625 9.34375 -17.515625 10.328125 -17.515625 10.328125 L -16.375 8.9375 L -11.984375 8.9375 L -11.984375 16.125 L -19.78125 16.125 C -20.125 16.125 -20.3125 16.234375 -20.359375 16.484375 C -19.578125 17.21875 -18.25 18.234375 -18.25 18.234375 L -17.09375 16.796875 L -2.09375 16.796875 L -2.265625 16.125 L -10.4375 16.125 L -10.4375 8.9375 L -3.046875 8.9375 L -3.234375 8.265625 L -10.4375 8.265625 L -10.4375 -0.046875 Z M -1.09375 -0.046875 "/>
</g>
<g id="glyph-2-0">
<path d="M -4.703125 5.0625 L -4.4375 4.9375 C -5.1875 3.828125 -6.03125 2.125 -6.109375 0.765625 C -7.4375 -0.5 -8.859375 2.5625 -4.703125 5.0625 Z M -14.578125 5.171875 C -13.9375 3.46875 -13.09375 1.609375 -12.4375 0.453125 L -12.75 0.265625 C -13.75 1.203125 -14.90625 2.640625 -15.84375 4 C -16.25 3.953125 -16.5 4.109375 -16.609375 4.34375 Z M -10.703125 16.21875 C -12.203125 13.296875 -15.375 10.59375 -18.71875 8.921875 C -18.84375 9.4375 -19.359375 9.9375 -19.96875 10.0625 L -20.015625 10.375 C -16.421875 11.796875 -12.953125 13.9375 -11.09375 16.484375 C -11.609375 16.53125 -11.875 16.625 -11.921875 16.875 L -9.453125 17.453125 C -8.328125 14.5625 -4.0625 10.453125 -0.625 8.515625 L -0.765625 8.21875 C -4.625 9.984375 -8.71875 13.328125 -10.703125 16.21875 Z M -1.171875 -0.390625 L -1.34375 -0.984375 L -18.984375 -0.984375 C -19.265625 -0.984375 -19.484375 -0.890625 -19.546875 -0.65625 C -18.796875 0 -17.59375 0.953125 -17.59375 0.953125 L -16.5625 -0.390625 L -10.90625 -0.390625 L -10.90625 5.890625 L -18.140625 5.890625 C -18.421875 5.890625 -18.609375 5.984375 -18.671875 6.21875 C -17.96875 6.859375 -16.828125 7.71875 -16.828125 7.71875 L -15.828125 6.484375 L -10.90625 6.484375 L -10.90625 9.796875 L -14.734375 9.796875 C -15.015625 9.796875 -15.203125 9.890625 -15.265625 10.125 C -14.578125 10.71875 -13.53125 11.484375 -13.53125 11.5 L -12.59375 10.390625 L -5.109375 10.390625 L -5.265625 9.796875 L -9.515625 9.796875 L -9.515625 6.484375 L -2.140625 6.484375 L -2.3125 5.890625 L -9.515625 5.890625 L -9.515625 -0.390625 Z M -1.171875 -0.390625 "/>
</g>
<g id="glyph-3-0">
<path d="M -15.3125 13.796875 C -14.96875 13.265625 -14.40625 12.359375 -13.984375 11.75 C -13.671875 11.828125 -13.3125 11.875 -12.9375 11.90625 C -12.84375 12.359375 -12.796875 12.8125 -12.78125 13.25 C -13.09375 13.28125 -13.34375 13.390625 -13.453125 13.515625 L -12.09375 14.59375 L -11.453125 13.875 L -1.671875 13.875 L -1.828125 13.375 L -11.640625 13.375 C -11.875 10.328125 -12.8125 7.6875 -15.359375 6.625 C -16.09375 6.28125 -16.890625 6.125 -17.140625 6.59375 C -17.28125 6.828125 -17.171875 7.0625 -16.765625 7.421875 L -16.90625 9.296875 L -16.671875 9.328125 C -16.53125 8.796875 -16.328125 8.265625 -16.1875 7.875 C -16.078125 7.671875 -16.03125 7.65625 -15.765625 7.75 C -14.1875 8.28125 -13.34375 9.875 -12.984375 11.609375 C -13.921875 11.125 -15.015625 10.28125 -15.453125 9.578125 C -16.515625 9.15625 -16.875 10.90625 -14.390625 11.640625 C -14.953125 12.015625 -15.59375 12.484375 -15.984375 12.796875 C -16.328125 12.703125 -16.5 12.75 -16.578125 12.90625 Z M -15.046875 6.25 C -14.71875 5.703125 -14.171875 4.8125 -13.765625 4.1875 C -13.46875 4.234375 -13.15625 4.3125 -12.8125 4.34375 C -12.703125 5.015625 -12.65625 5.671875 -12.625 6.34375 C -12.953125 6.390625 -13.1875 6.484375 -13.3125 6.59375 L -11.953125 7.703125 L -11.296875 7 L -9.109375 7 L -9.109375 12.109375 C -9.484375 12.171875 -9.625 12.328125 -9.671875 12.5625 L -7.9375 12.75 L -7.9375 7 L -5.265625 7 L -5.265625 10.046875 C -5.671875 10.109375 -5.828125 10.296875 -5.875 10.53125 L -4.890625 10.640625 C -5.53125 11.015625 -6.09375 11.390625 -6.515625 11.734375 C -6.9375 11.65625 -7.203125 11.71875 -7.328125 11.890625 L -5.75 12.703125 C -4.84375 11.625 -2.859375 10.0625 -1.109375 9.203125 L -1.25 8.953125 C -2.203125 9.25 -3.203125 9.703125 -4.09375 10.1875 L -4.09375 7 L -0.703125 7 L -0.859375 6.484375 L -4.09375 6.484375 C -4.03125 3.75 -3.46875 0.859375 -0.75 -1.125 L -0.96875 -1.359375 C -4.421875 0.5 -5.171875 3.625 -5.25 6.484375 L -7.9375 6.484375 L -7.9375 -1.40625 L -8.15625 -1.40625 C -8.609375 -1.40625 -9.109375 -1.109375 -9.109375 -0.953125 L -9.109375 6.484375 L -11.484375 6.484375 C -11.65625 2.953125 -12.546875 -0.015625 -15.4375 -1.078125 C -16.1875 -1.421875 -17 -1.578125 -17.25 -1.109375 C -17.359375 -0.875 -17.265625 -0.640625 -16.859375 -0.28125 L -16.984375 1.703125 L -16.75 1.75 C -16.609375 1.15625 -16.421875 0.609375 -16.25 0.171875 C -16.171875 -0.03125 -16.078125 -0.078125 -15.796875 0.03125 C -14.125 0.59375 -13.265625 2.1875 -12.890625 4 C -13.859375 3.46875 -14.984375 2.59375 -15.453125 1.875 C -16.546875 1.4375 -16.875 3.25 -14.1875 4.0625 L -15.78125 5.28125 C -16.15625 5.203125 -16.296875 5.265625 -16.375 5.40625 Z M -15.046875 6.25 "/>
</g>
<g id="glyph-4-0">
<path d="M 18.359375 -16.546875 C 17.953125 -15.90625 17.28125 -14.828125 16.765625 -14.09375 C 16.390625 -14.171875 15.96875 -14.25 15.515625 -14.28125 C 15.40625 -14.828125 15.34375 -15.359375 15.3125 -15.875 C 15.703125 -15.921875 16.015625 -16.046875 16.140625 -16.203125 L 14.5 -17.5 L 13.71875 -16.640625 L 2 -16.640625 L 2.203125 -16.03125 L 13.96875 -16.03125 C 14.25 -12.390625 15.359375 -9.21875 18.421875 -7.953125 C 19.3125 -7.546875 20.25 -7.34375 20.5625 -7.90625 C 20.734375 -8.1875 20.59375 -8.46875 20.109375 -8.90625 L 20.28125 -11.140625 L 20 -11.1875 C 19.828125 -10.5625 19.59375 -9.90625 19.40625 -9.4375 C 19.28125 -9.203125 19.21875 -9.171875 18.890625 -9.28125 C 17.015625 -9.9375 16.015625 -11.84375 15.578125 -13.921875 C 16.703125 -13.34375 18.015625 -12.328125 18.53125 -11.484375 C 19.796875 -10.984375 20.234375 -13.078125 17.265625 -13.96875 C 17.921875 -14.421875 18.703125 -14.96875 19.171875 -15.34375 C 19.59375 -15.234375 19.78125 -15.296875 19.890625 -15.46875 Z M 18.03125 -7.5 C 17.640625 -6.828125 17 -5.78125 16.5 -5.015625 C 16.15625 -5.078125 15.765625 -5.171875 15.359375 -5.21875 C 15.234375 -6.015625 15.171875 -6.8125 15.140625 -7.609375 C 15.53125 -7.671875 15.8125 -7.78125 15.96875 -7.90625 L 14.328125 -9.25 L 13.546875 -8.40625 L 10.921875 -8.40625 L 10.921875 -14.515625 C 11.375 -14.59375 11.546875 -14.78125 11.59375 -15.0625 L 9.53125 -15.296875 L 9.53125 -8.40625 L 6.3125 -8.40625 L 6.3125 -12.046875 C 6.8125 -12.125 6.984375 -12.34375 7.046875 -12.625 L 5.859375 -12.75 C 6.640625 -13.203125 7.296875 -13.65625 7.828125 -14.0625 C 8.3125 -13.984375 8.640625 -14.046875 8.796875 -14.265625 L 6.890625 -15.234375 C 5.8125 -13.9375 3.421875 -12.0625 1.328125 -11.03125 L 1.515625 -10.734375 C 2.65625 -11.09375 3.828125 -11.640625 4.90625 -12.21875 L 4.90625 -8.40625 L 0.84375 -8.40625 L 1.03125 -7.78125 L 4.90625 -7.78125 C 4.828125 -4.5 4.15625 -1.03125 0.90625 1.359375 L 1.15625 1.640625 C 5.296875 -0.609375 6.203125 -4.359375 6.296875 -7.78125 L 9.53125 -7.78125 L 9.53125 1.6875 L 9.78125 1.6875 C 10.328125 1.6875 10.921875 1.328125 10.921875 1.140625 L 10.921875 -7.78125 L 13.765625 -7.78125 C 13.984375 -3.53125 15.046875 0.015625 18.515625 1.296875 C 19.40625 1.703125 20.390625 1.890625 20.6875 1.328125 C 20.8125 1.0625 20.703125 0.78125 20.203125 0.34375 L 20.359375 -2.046875 L 20.078125 -2.09375 C 19.90625 -1.375 19.6875 -0.734375 19.484375 -0.21875 C 19.390625 0.046875 19.28125 0.09375 18.9375 -0.046875 C 16.9375 -0.71875 15.90625 -2.625 15.453125 -4.8125 C 16.609375 -4.15625 17.96875 -3.109375 18.53125 -2.234375 C 19.84375 -1.71875 20.234375 -3.90625 17.015625 -4.875 L 18.921875 -6.328125 C 19.375 -6.25 19.546875 -6.3125 19.625 -6.484375 Z M 18.03125 -7.5 "/>
</g>
<g id="glyph-5-0">
<path d="M 13 -8.59375 L 12.828125 -8.375 C 14.375 -7.453125 16.421875 -5.75 17.15625 -4.390625 C 18.75 -3.640625 19.140625 -6.984375 13 -8.59375 Z M 5.671875 -8.875 C 4.78125 -7.109375 2.890625 -4.78125 0.890625 -3.359375 L 1.09375 -3.109375 C 3.4375 -4.25 5.609375 -6.171875 6.765625 -7.734375 C 7.21875 -7.65625 7.390625 -7.75 7.515625 -7.921875 Z M 9.25 -9.640625 L 9.25 -4.546875 C 9.25 -4.265625 9.15625 -4.171875 8.8125 -4.171875 C 8.421875 -4.171875 6.46875 -4.3125 6.46875 -4.3125 L 6.46875 -4 C 7.328125 -3.890625 7.78125 -3.75 8.078125 -3.53125 C 8.359375 -3.34375 8.4375 -3.03125 8.5 -2.625 C 10.3125 -2.8125 10.53125 -3.421875 10.53125 -4.484375 L 10.53125 -8.9375 C 10.96875 -9 11.140625 -9.125 11.203125 -9.421875 Z M 13.890625 -5.84375 C 10.71875 -1.296875 6.703125 0.140625 1.625 1.140625 L 1.703125 1.546875 C 7.1875 0.890625 11.265625 -0.390625 14.84375 -4.671875 C 15.3125 -4.578125 15.53125 -4.625 15.671875 -4.828125 Z M 4.625 -15.078125 L 4.625 -10.296875 L 0.828125 -10.296875 L 1.015625 -9.71875 L 18.40625 -9.71875 C 18.703125 -9.71875 18.875 -9.828125 18.9375 -10.046875 C 18.25 -10.671875 17.09375 -11.515625 17.09375 -11.515625 L 16.09375 -10.296875 L 10.53125 -10.296875 L 10.53125 -13.03125 L 16.171875 -13.03125 C 16.4375 -13.03125 16.640625 -13.125 16.6875 -13.34375 C 16.015625 -13.9375 14.921875 -14.796875 14.921875 -14.796875 L 13.9375 -13.59375 L 10.53125 -13.59375 L 10.53125 -15.828125 C 11.03125 -15.890625 11.234375 -16.09375 11.265625 -16.359375 L 9.25 -16.5625 L 9.25 -10.296875 L 5.890625 -10.296875 L 5.890625 -14.375 C 6.328125 -14.453125 6.484375 -14.625 6.515625 -14.890625 Z M 4.625 -15.078125 "/>
</g>
<g id="glyph-6-0">
<path d="M 4.09375 -4.40625 L 3.859375 -4.296875 C 4.515625 -3.328125 5.25 -1.84375 5.3125 -0.671875 C 6.46875 0.4375 7.703125 -2.234375 4.09375 -4.40625 Z M 12.6875 -4.484375 C 12.125 -3.015625 11.390625 -1.40625 10.8125 -0.390625 L 11.09375 -0.234375 C 11.96875 -1.046875 12.96875 -2.296875 13.78125 -3.484375 C 14.140625 -3.4375 14.359375 -3.578125 14.453125 -3.765625 Z M 9.3125 -14.109375 C 10.625 -11.578125 13.375 -9.21875 16.28125 -7.765625 C 16.390625 -8.21875 16.84375 -8.640625 17.375 -8.75 L 17.40625 -9.015625 C 14.28125 -10.265625 11.265625 -12.125 9.65625 -14.34375 C 10.09375 -14.375 10.328125 -14.46875 10.375 -14.6875 L 8.234375 -15.1875 C 7.234375 -12.671875 3.546875 -9.09375 0.53125 -7.40625 L 0.671875 -7.15625 C 4.03125 -8.671875 7.578125 -11.59375 9.3125 -14.109375 Z M 1.03125 0.34375 L 1.171875 0.859375 L 16.515625 0.859375 C 16.765625 0.859375 16.9375 0.765625 17 0.578125 C 16.34375 0 15.3125 -0.828125 15.3125 -0.828125 L 14.40625 0.34375 L 9.484375 0.34375 L 9.484375 -5.125 L 15.78125 -5.125 C 16.03125 -5.125 16.1875 -5.203125 16.25 -5.40625 C 15.625 -5.96875 14.640625 -6.71875 14.640625 -6.71875 L 13.765625 -5.640625 L 9.484375 -5.640625 L 9.484375 -8.515625 L 12.8125 -8.515625 C 13.0625 -8.515625 13.21875 -8.609375 13.28125 -8.796875 C 12.6875 -9.328125 11.765625 -9.984375 11.765625 -10.015625 L 10.953125 -9.03125 L 4.4375 -9.03125 L 4.578125 -8.515625 L 8.28125 -8.515625 L 8.28125 -5.640625 L 1.875 -5.640625 L 2.015625 -5.125 L 8.28125 -5.125 L 8.28125 0.34375 Z M 1.03125 0.34375 "/>
</g>
</g>
<clipPath id="clip-0">
<path clip-rule="nonzero" d="M 50 21 L 278 21 L 278 248.875 L 50 248.875 Z M 50 21 "/>
</clipPath>
<clipPath id="clip-1">
<path clip-rule="nonzero" d="M 49 20 L 278 20 L 278 248.875 L 49 248.875 Z M 49 20 "/>
</clipPath>
</defs>
<g clip-path="url(#clip-0)">
<path fill="none" stroke-width="0.34013" stroke-linecap="butt" stroke-linejoin="miter" stroke="rgb(0%, 0%, 0%)" stroke-opacity="1" stroke-miterlimit="10" d="M 0.00133235 0.000901229 L 226.775237 0.000901229 M 0.00133235 25.197567 L 226.775237 25.197567 M 0.00133235 50.394234 L 226.775237 50.394234 M 0.00133235 75.5909 L 226.775237 75.5909 M 0.00133235 100.787566 L 226.775237 100.787566 M 0.00133235 125.984232 L 226.775237 125.984232 M 0.00133235 151.180898 L 226.775237 151.180898 M 0.00133235 176.377564 L 226.775237 176.377564 M 0.00133235 201.57814 L 226.775237 201.57814 M 0.00133235 226.774806 L 226.775237 226.774806 M 0.00133235 0.000901229 L 0.00133235 226.774806 M 25.197999 0.000901229 L 25.197999 226.774806 M 50.394665 0.000901229 L 50.394665 226.774806 M 75.591331 0.000901229 L 75.591331 226.774806 M 100.787997 0.000901229 L 100.787997 226.774806 M 125.984663 0.000901229 L 125.984663 226.774806 M 151.181329 0.000901229 L 151.181329 226.774806 M 176.377996 0.000901229 L 176.377996 226.774806 M 201.574662 0.000901229 L 201.574662 226.774806 M 226.775237 0.000901229 L 226.775237 226.774806 " transform="matrix(0.999326, 0, 0, -0.999326, 50.358044, 248.094651)"/>
</g>
<g clip-path="url(#clip-1)">
<path fill="none" stroke-width="1.55916" stroke-linecap="butt" stroke-linejoin="miter" stroke="rgb(0%, 0%, 0%)" stroke-opacity="1" stroke-miterlimit="10" d="M 0.00133235 0.000901229 L 0.00133235 226.774806 L 226.775237 226.774806 L 226.775237 0.000901229 Z M 0.00133235 0.000901229 " transform="matrix(0.999326, 0, 0, -0.999326, 50.358044, 248.094651)"/>
</g>
<g fill="rgb(0%, 0%, 0%)" fill-opacity="1">
<use xlink:href="#glyph-0-0" x="60.459232" y="10.78267"/>
</g>
<g fill="rgb(0%, 0%, 0%)" fill-opacity="1">
<use xlink:href="#glyph-0-1" x="85.639253" y="10.78267"/>
</g>
<g fill="rgb(0%, 0%, 0%)" fill-opacity="1">
<use xlink:href="#glyph-0-2" x="110.819275" y="10.78267"/>
</g>
<g fill="rgb(0%, 0%, 0%)" fill-opacity="1">
<use xlink:href="#glyph-0-3" x="135.998296" y="10.78267"/>
</g>
<g fill="rgb(0%, 0%, 0%)" fill-opacity="1">
<use xlink:href="#glyph-0-4" x="161.178317" y="10.78267"/>
</g>
<g fill="rgb(0%, 0%, 0%)" fill-opacity="1">
<use xlink:href="#glyph-0-5" x="186.358338" y="11.001523"/>
</g>
<g fill="rgb(0%, 0%, 0%)" fill-opacity="1">
<use xlink:href="#glyph-0-6" x="211.53836" y="10.78267"/>
</g>
<g fill="rgb(0%, 0%, 0%)" fill-opacity="1">
<use xlink:href="#glyph-0-7" x="236.717381" y="11.001523"/>
</g>
<g fill="rgb(0%, 0%, 0%)" fill-opacity="1">
<use xlink:href="#glyph-0-8" x="261.897402" y="11.001523"/>
</g>
<g fill="rgb(0%, 0%, 0%)" fill-opacity="1">
<use xlink:href="#glyph-0-9" x="287.452171" y="37.631566"/>
</g>
<g fill="rgb(0%, 0%, 0%)" fill-opacity="1">
<use xlink:href="#glyph-0-10" x="287.452171" y="62.646698"/>
</g>
<g fill="rgb(0%, 0%, 0%)" fill-opacity="1">
<use xlink:href="#glyph-0-11" x="287.452171" y="87.826719"/>
</g>
<g fill="rgb(0%, 0%, 0%)" fill-opacity="1">
<use xlink:href="#glyph-0-12" x="287.452171" y="113.00674"/>
</g>
<g fill="rgb(0%, 0%, 0%)" fill-opacity="1">
<use xlink:href="#glyph-0-13" x="287.452171" y="138.170772"/>
</g>
<g fill="rgb(0%, 0%, 0%)" fill-opacity="1">
<use xlink:href="#glyph-0-14" x="287.452171" y="163.350793"/>
</g>
<g fill="rgb(0%, 0%, 0%)" fill-opacity="1">
<use xlink:href="#glyph-0-15" x="287.452171" y="188.545804"/>
</g>
<g fill="rgb(0%, 0%, 0%)" fill-opacity="1">
<use xlink:href="#glyph-0-16" x="287.452171" y="213.725826"/>
</g>
<g fill="rgb(0%, 0%, 0%)" fill-opacity="1">
<use xlink:href="#glyph-0-17" x="287.452171" y="238.795921"/>
</g>
<g fill="rgb(0%, 0%, 0%)" fill-opacity="1">
<use xlink:href="#glyph-1-0" x="74.175483" y="25.533724"/>
</g>
<g fill="rgb(0%, 0%, 0%)" fill-opacity="1">
<use xlink:href="#glyph-2-0" x="98.45786" y="26.216263"/>
</g>
<g fill="rgb(0%, 0%, 0%)" fill-opacity="1">
<use xlink:href="#glyph-3-0" x="34.160965" y="27.240573"/>
</g>
<g fill="rgb(0%, 0%, 0%)" fill-opacity="1">
<use xlink:href="#glyph-4-0" x="127.711884" y="42.256447"/>
</g>
<g fill="rgb(0%, 0%, 0%)" fill-opacity="1">
<use xlink:href="#glyph-5-0" x="78.250236" y="91.93395"/>
</g>
<g fill="rgb(0%, 0%, 0%)" fill-opacity="1">
<use xlink:href="#glyph-6-0" x="302.618944" y="242.329538"/>
</g>
</svg>
