<?xml version="1.0" encoding="UTF-8" standalone="no"?>
<!-- Created with Inkscape (http://www.inkscape.org/) -->

<svg
   version="1.1"
   id="svg1"
   width="328.2045"
   height="327.71719"
   viewBox="0 0 328.2045 327.71719"
   sodipodi:docname="shogi.pdf"
   xmlns:inkscape="http://www.inkscape.org/namespaces/inkscape"
   xmlns:sodipodi="http://sodipodi.sourceforge.net/DTD/sodipodi-0.dtd"
   xmlns="http://www.w3.org/2000/svg"
   xmlns:svg="http://www.w3.org/2000/svg">
  <defs
     id="defs1" />
  <sodipodi:namedview
     id="namedview1"
     pagecolor="#ffffff"
     bordercolor="#000000"
     borderopacity="0.25"
     inkscape:showpageshadow="2"
     inkscape:pageopacity="0.0"
     inkscape:pagecheckerboard="0"
     inkscape:deskcolor="#d1d1d1"
     showgrid="false" />
  <g
     id="g1"
     inkscape:groupmode="layer"
     inkscape:label="7"
     transform="translate(-160.63924,-153.35156)">
    <path
       id="path2"
       d="M 0,0 H 226.77457 M 0,25.19705 H 226.77457 M 0,50.39412 H 226.77457 M 0,75.59119 H 226.77457 M 0,100.78825 H 226.77457 M 0,125.98532 H 226.77457 M 0,151.18239 H 226.77457 M 0,176.37946 H 226.77457 M 0,201.57652 H 226.77457 M 0,226.77359 H 226.77457 M 0,0 V 226.77457 M 25.19705,0 V 226.77457 M 50.39412,0 V 226.77457 M 75.59119,0 V 226.77457 M 100.78825,0 V 226.77457 M 125.98532,0 V 226.77457 M 151.18239,0 V 226.77457 M 176.37946,0 V 226.77457 M 201.57652,0 V 226.77457 M 226.77359,0 v 226.77457"
       style="fill:none;stroke:#000000;stroke-width:0.34013;stroke-linecap:butt;stroke-linejoin:miter;stroke-miterlimit:10;stroke-dasharray:none;stroke-opacity:1"
       transform="matrix(1.3333333,0,0,-1.3333333,161.67867,480.02933)" />
    <path
       id="path3"
       d="M 0,0 V 226.77457 H 226.77457 V 0 Z"
       style="fill:none;stroke:#000000;stroke-width:1.55916;stroke-linecap:butt;stroke-linejoin:miter;stroke-miterlimit:10;stroke-dasharray:none;stroke-opacity:1"
       transform="matrix(1.3333333,0,0,-1.3333333,161.67867,480.02933)" />
    <path
       id="path4"
       d="m 4.5480625,-3.2812969 c 0,-2.671875 -1.1367187,-3.3515625 -2.0273437,-3.3515625 -0.5507813,0 -1.03125,0.1757813 -1.4648438,0.6210938 -0.41015625,0.4570312 -0.6328125,0.8671875 -0.6328125,1.6171875 0,1.2421875 0.8789063,2.2265625 1.9921875,2.2265625 0.609375,0 1.0078125,-0.421875 1.2421875,-0.9960938 v 0.3164063 c 0,2.33203122 -1.03125,2.78906247 -1.6171875,2.78906247 -0.1640625,0 -0.703125,-0.0234375 -0.9726562,-0.36328125 0.4335937,0 0.515625,-0.28125 0.515625,-0.45703125 0,-0.30468747 -0.234375,-0.45703127 -0.4570313,-0.45703127 -0.1640625,0 -0.45703125,0.09375 -0.45703125,0.48046877 0,0.66796875 0.53906255,1.078125 1.38281255,1.078125 1.2890625,0 2.4960937,-1.35937497 2.4960937,-3.50390627 z M 3.634,-4.1953594 c 0,0.8320313 -0.3398437,1.7929688 -1.2070312,1.7929688 -0.1640625,0 -0.6210938,0 -0.9257813,-0.6210938 -0.1875,-0.375 -0.1875,-0.8671875 -0.1875,-1.359375 0,-0.5390625 0,-1.0078125 0.2109375,-1.3710937 0.2695313,-0.5039063 0.6445313,-0.6328125 0.9960938,-0.6328125 0.4570312,0 0.7851562,0.3398437 0.9609375,0.7851562 C 3.5988438,-5.2852031 3.634,-4.6523906 3.634,-4.1953594 Z m 0,0"
       style="fill:#000000;fill-opacity:1;fill-rule:nonzero;stroke:none"
       aria-label="9"
       transform="matrix(1.3333333,0,0,1.3333333,175.15467,162.336)" />
    <path
       id="path5"
       d="m 4.546375,-1.6758281 c 0,-0.3515625 -0.1054687,-0.8085938 -0.4804687,-1.21875 -0.1875,-0.2109375 -0.3515625,-0.3164063 -0.984375,-0.7148438 0.7148437,-0.3632812 1.2070312,-0.8789062 1.2070312,-1.5351562 0,-0.9257813 -0.890625,-1.4882813 -1.7929687,-1.4882813 -0.9960938,0 -1.80468755,0.7382813 -1.80468755,1.6640625 0,0.1757813 0.0117188,0.6210938 0.43359375,1.0898438 0.1054688,0.1289062 0.4804688,0.375 0.7265625,0.5390625 -0.5742187,0.2929687 -1.4296875,0.84375 -1.4296875,1.8398437 0,1.05468752 1.0078125,1.72265627 2.0625,1.72265627 1.125,0 2.0625,-0.83203125 2.0625,-1.89843747 z m -0.703125,-3.46875 c 0,0.5625 -0.3867187,1.0429687 -0.984375,1.3945312 L 1.6284063,-4.5469219 C 1.1596563,-4.8516094 1.1245,-5.1914531 1.1245,-5.3555156 c 0,-0.609375 0.6445313,-1.03125 1.359375,-1.03125 0.7265625,0 1.359375,0.515625 1.359375,1.2421875 z m 0.2109375,3.8320312 c 0,0.73828127 -0.75,1.25390627 -1.5585937,1.25390627 -0.8671875,0 -1.5820313,-0.62109375 -1.5820313,-1.44140627 0,-0.5859375 0.3164063,-1.21875 1.171875,-1.6875 l 1.21875,0.7734375 c 0.28125,0.1875 0.75,0.4921875 0.75,1.1015625 z m 0,0"
       style="fill:#000000;fill-opacity:1;fill-rule:nonzero;stroke:none"
       aria-label="8"
       transform="matrix(1.3333333,0,0,1.3333333,208.75067,162.336)" />
    <path
       id="path6"
       d="M 4.8288672,-6.4102031 H 2.4148047 c -1.21875,0 -1.2421875,-0.1289063 -1.2773438,-0.328125 H 0.89136719 l -0.328125,2.0507812 h 0.24609375 c 0.0234375,-0.1523437 0.1171875,-0.7851562 0.24609376,-0.9023437 0.070312,-0.058594 0.84375,-0.058594 0.9726562,-0.058594 h 2.0625 l -1.1132812,1.5703125 c -0.890625,1.3476563 -1.21875,2.7304688 -1.21875,3.75000002 0,0.09375 0,0.55078125 0.4570312,0.55078125 0.4570313,0 0.4570313,-0.45703125 0.4570313,-0.55078125 v -0.50390625 c 0,-0.55078127 0.023437,-1.10156247 0.1054687,-1.64062497 0.046875,-0.2226563 0.1757813,-1.078125 0.6210938,-1.6992188 l 1.3476562,-1.8984375 c 0.082031,-0.1171875 0.082031,-0.140625 0.082031,-0.3398435 z m 0,0"
       style="fill:#000000;fill-opacity:1;fill-rule:nonzero;stroke:none"
       aria-label="7"
       transform="matrix(1.3333333,0,0,1.3333333,242.34667,162.336)" />
    <path
       id="path7"
       d="m 4.5459297,-2.0273906 c 0,-1.265625 -0.8789063,-2.2265625 -1.9921875,-2.2265625 -0.6679688,0 -1.0429688,0.5039062 -1.2421875,0.984375 v -0.234375 c 0,-2.5195313 1.2421875,-2.8828125 1.7460937,-2.8828125 0.234375,0 0.65625,0.058594 0.8789063,0.3984375 -0.1523438,0 -0.5507813,0 -0.5507813,0.4453125 0,0.3164062 0.234375,0.4570312 0.4570313,0.4570312 0.1640625,0 0.4570312,-0.082031 0.4570312,-0.46875 0,-0.5976562 -0.4335937,-1.078125 -1.265625,-1.078125 -1.2773437,0 -2.61328121,1.2890625 -2.61328121,3.4804688 0,2.66015622 1.14843751,3.37499997 2.07421871,3.37499997 1.1132813,0 2.0507813,-0.9375 2.0507813,-2.24999997 z m -0.890625,-0.011719 c 0,0.4804688 0,0.9726563 -0.1640625,1.33593752 -0.3046875,0.59765625 -0.7617188,0.64453125 -0.9960938,0.64453125 -0.6210937,0 -0.9257812,-0.59765625 -0.984375,-0.75 C 1.3349922,-1.2773906 1.3349922,-2.0742656 1.3349922,-2.2500469 c 0,-0.7734375 0.3164062,-1.7695312 1.21875,-1.7695312 0.1523437,0 0.609375,0 0.9257812,0.609375 0.1757813,0.375 0.1757813,0.8789062 0.1757813,1.3710935 z m 0,0"
       style="fill:#000000;fill-opacity:1;fill-rule:nonzero;stroke:none"
       aria-label="6"
       transform="matrix(1.3333333,0,0,1.3333333,275.94267,162.336)" />
    <path
       id="path8"
       d="m 4.4778594,-2.0039531 c 0,-1.1835938 -0.8203125,-2.1796875 -1.8984375,-2.1796875 -0.4804688,0 -0.9023438,0.1640625 -1.265625,0.5039062 v -1.9335937 c 0.1992187,0.058594 0.5273437,0.1289062 0.84375,0.1289062 1.2304687,0 1.9335937,-0.9140625 1.9335937,-1.0429687 0,-0.058594 -0.035156,-0.1054688 -0.1054687,-0.1054688 0,0 -0.035156,0 -0.082031,0.023437 -0.1992187,0.09375 -0.6796875,0.2929688 -1.3476562,0.2929688 -0.3984375,0 -0.8554688,-0.070312 -1.3242188,-0.28125 -0.082031,-0.023437 -0.1289062,-0.023437 -0.1289062,-0.023437 -0.09375,0 -0.09375,0.082031 -0.09375,0.234375 v 2.953125 c 0,0.1757812 0,0.2578125 0.140625,0.2578125 0.070312,0 0.082031,-0.035156 0.1289062,-0.09375 0.1054688,-0.1523438 0.4804688,-0.6914063 1.2773438,-0.6914063 0.5273437,0 0.7734375,0.4570313 0.8554687,0.6328125 0.1523438,0.375 0.1757813,0.7617188 0.1757813,1.2539063 0,0.3515625 0,0.9492187 -0.234375,1.37109372 -0.2460938,0.38671875 -0.609375,0.64453125 -1.0664063,0.64453125 -0.7265625,0 -1.30078122,-0.52734375 -1.46484372,-1.11328127 0.0234375,0.011719 0.0585938,0.011719 0.1640625,0.011719 0.32812502,0 0.50390622,-0.2460938 0.50390622,-0.4804688 0,-0.2460937 -0.1757812,-0.4921875 -0.50390622,-0.4921875 -0.140625,0 -0.48046875,0.070312 -0.48046875,0.5273438 0,0.85546872 0.67968747,1.82812497 1.79296877,1.82812497 1.1601562,0 2.1796875,-0.9609375 2.1796872,-2.22656267 z m 0,0"
       style="fill:#000000;fill-opacity:1;fill-rule:nonzero;stroke:none"
       aria-label="5"
       transform="matrix(1.3333333,0,0,1.3333333,309.53733,162.336)" />
    <path
       id="path9"
       d="M 4.6871094,-1.6399453 V -1.9563516 H 3.6910156 v -4.5234375 c 0,-0.1992187 0,-0.2578125 -0.1523437,-0.2578125 -0.09375,0 -0.1171875,0 -0.1992188,0.1171875 l -3.05859373,4.6640625 v 0.3164063 H 2.9292969 v 0.86718749 c 0,0.3515625 -0.023437,0.46875 -0.7617188,0.46875 H 1.9566406 V 6.796875e-4 C 2.3667969,-0.03447656 2.8941406,-0.03447656 3.3042969,-0.03447656 c 0.421875,0 0.9492187,0 1.359375,0.0351562475 V -0.30400781 H 4.4527344 c -0.7382813,0 -0.7617188,-0.1171875 -0.7617188,-0.46875 V -1.6399453 Z M 2.9878906,-1.9563516 H 0.56210937 L 2.9878906,-5.6711953 Z m 0,0"
       style="fill:#000000;fill-opacity:1;fill-rule:nonzero;stroke:none"
       aria-label="4"
       transform="matrix(1.3333333,0,0,1.3333333,343.13333,162.628)" />
    <path
       id="path10"
       d="m 4.5477266,-1.6992656 c 0,-0.8203125 -0.6210938,-1.59375 -1.6523438,-1.8046875 0.8085938,-0.2695313 1.3945313,-0.9726563 1.3945313,-1.7578125 0,-0.8203125 -0.8789063,-1.3710938 -1.8398438,-1.3710938 -1.0078125,0 -1.75781249,0.5976563 -1.75781249,1.3476563 0,0.3398437 0.2109375,0.5273437 0.50390629,0.5273437 0.3046875,0 0.5039062,-0.2226562 0.5039062,-0.515625 0,-0.4921875 -0.46875,-0.4921875 -0.609375,-0.4921875 0.3046875,-0.4921875 0.9609375,-0.6210937 1.3242188,-0.6210937 0.4101562,0 0.9492187,0.2226562 0.9492187,1.1132812 0,0.1289063 -0.011719,0.703125 -0.2695312,1.1367188 -0.3046875,0.4804687 -0.6445313,0.515625 -0.890625,0.515625 -0.082031,0.011719 -0.3164063,0.035156 -0.3867188,0.035156 -0.082031,0.011719 -0.1523437,0.023437 -0.1523437,0.1171875 0,0.1171875 0.070312,0.1171875 0.234375,0.1171875 h 0.4453125 c 0.8085937,0 1.1835937,0.6679688 1.1835937,1.6523438 0,1.34765622 -0.6914062,1.64062497 -1.125,1.64062497 -0.4335937,0 -1.171875,-0.17578125 -1.52343749,-0.76171875 0.35156249,0.0585938 0.65624999,-0.1640625 0.65624999,-0.53906252 0,-0.3632812 -0.2695312,-0.5625 -0.56249999,-0.5625 -0.234375,0 -0.55078125,0.140625 -0.55078125,0.5742188 0,0.91406247 0.92578124,1.57031247 2.00390624,1.57031247 1.21875,0 2.1210938,-0.9140625 2.1210938,-1.92187477 z m 0,0"
       style="fill:#000000;fill-opacity:1;fill-rule:nonzero;stroke:none"
       aria-label="3"
       transform="matrix(1.3333333,0,0,1.3333333,376.72933,162.336)" />
    <path
       id="path11"
       d="M 4.4757266,-1.7336953 H 4.2179141 c -0.046875,0.3046875 -0.1171875,0.73828124 -0.2109375,0.89062499 -0.070312,0.0820313 -0.7265625,0.0820313 -0.9492188,0.0820313 H 1.2647891 L 2.3194766,-1.7922891 c 1.5585937,-1.3710937 2.15625,-1.9101562 2.15625,-2.90625 0,-1.1367187 -0.9023438,-1.9335937 -2.1210938,-1.9335937 -1.125,0 -1.85156249,0.9140625 -1.85156249,1.8046875 0,0.5507812 0.4921875,0.5507812 0.52734379,0.5507812 0.1640625,0 0.515625,-0.1171875 0.515625,-0.5273437 0,-0.2578125 -0.1875,-0.515625 -0.5273438,-0.515625 -0.0820312,0 -0.10546874,0 -0.12890624,0.011719 C 1.1124453,-5.952445 1.6515078,-6.327445 2.2257266,-6.327445 c 0.9140625,0 1.3359375,0.8085937 1.3359375,1.6289062 0,0.796875 -0.4921875,1.5820313 -1.0429688,2.203125 L 0.60853906,-0.36260156 C 0.50307031,-0.25713281 0.50307031,-0.23369531 0.50307031,6.796875e-4 H 4.1944766 Z m 0,0"
       style="fill:#000000;fill-opacity:1;fill-rule:nonzero;stroke:none"
       aria-label="2"
       transform="matrix(1.3333333,0,0,1.3333333,410.32533,162.628)" />
    <path
       id="path12"
       d="M 4.1732813,6.796875e-4 V -0.30400781 H 3.856875 c -0.9023437,0 -0.9257812,-0.1171875 -0.9257812,-0.48046875 V -6.3743203 c 0,-0.234375 0,-0.2578125 -0.234375,-0.2578125 -0.609375,0.6328125 -1.4882813,0.6328125 -1.80468755,0.6328125 v 0.3164062 c 0.19921875,0 0.78515625,0 1.30078125,-0.2578125 v 5.15625004 c 0,0.3515625 -0.035156,0.48046875 -0.9257812,0.48046875 H 0.950625 V 6.796875e-4 C 1.3021875,-0.03447656 2.1576563,-0.03447656 2.5560938,-0.03447656 c 0.3984375,0 1.265625,0 1.6171875,0.0351562475 z m 0,0"
       style="fill:#000000;fill-opacity:1;fill-rule:nonzero;stroke:none"
       aria-label="1"
       transform="matrix(1.3333333,0,0,1.3333333,443.92,162.628)" />
    <path
       id="path13"
       d="M 7.1363125,9.921875e-4 V -0.30369531 H 6.9605313 c -0.5976563,0 -0.7382813,-0.0703125 -0.84375,-0.3984375 l -2.15625,-6.23437499 c -0.046875,-0.1289063 -0.070312,-0.1992188 -0.2226563,-0.1992188 -0.1640625,0 -0.1875,0.058594 -0.2460937,0.1992188 l -2.0625,5.96484374 C 1.2535,-0.46775781 0.8550625,-0.31541406 0.316,-0.30369531 V 9.921875e-4 L 1.3355313,-0.03416406 2.4839688,9.921875e-4 V -0.30369531 c -0.5039063,0 -0.75,-0.2578125 -0.75,-0.515625 0,-0.0234375 0.011719,-0.12890625 0.023437,-0.140625 L 2.2144375,-2.2724453 H 4.675375 l 0.5273438,1.52343749 c 0.011719,0.046875 0.023437,0.10546875 0.023437,0.140625 0,0.3046875 -0.5507813,0.3046875 -0.8203125,0.3046875 V 9.921875e-4 C 4.7574063,-0.03416406 5.4605313,-0.03416406 5.8355313,-0.03416406 Z M 4.5581875,-2.5771328 H 2.3199063 l 1.1132812,-3.234375 z m 0,0"
       style="fill:#000000;fill-opacity:1;fill-rule:nonzero;stroke:none"
       aria-label="A"
       transform="matrix(1.3333333,0,0,1.3333333,479.07867,199.22133)" />
    <path
       id="path14"
       d="m 6.4800625,-1.8278828 c 0,-0.8671875 -0.8085937,-1.6054688 -1.921875,-1.7226563 0.9726563,-0.1992187 1.6523438,-0.8320312 1.6523438,-1.5703125 0,-0.8671875 -0.9140625,-1.6875 -2.203125,-1.6875 H 0.362875 v 0.3164063 H 0.59725 c 0.7617188,0 0.7851563,0.1054687 0.7851563,0.46875 v 5.24999999 c 0,0.3515625 -0.023437,0.46875 -0.7851563,0.46875 H 0.362875 V 2.421875e-4 h 3.9023438 c 1.3242187,0 2.2148437,-0.8906249975 2.2148437,-1.8281249875 z M 5.2495938,-5.1208516 c 0,0.6328125 -0.4921875,1.4765625 -1.59375,1.4765625 H 2.2144375 v -2.4492187 c 0,-0.328125 0.011719,-0.3984375 0.4804688,-0.3984375 h 1.2421875 c 0.9609375,0 1.3125,0.84375 1.3125,1.3710937 z m 0.234375,3.2929688 c 0,0.703125 -0.515625,1.52343749 -1.5351563,1.52343749 H 2.6949063 c -0.46875,0 -0.4804688,-0.0703125 -0.4804688,-0.3984375 V -3.4216328 h 1.875 c 0.984375,0 1.3945313,0.9257812 1.3945313,1.59375 z m 0,0"
       style="fill:#000000;fill-opacity:1;fill-rule:nonzero;stroke:none"
       aria-label="B"
       transform="matrix(1.3333333,0,0,1.3333333,479.07867,232.59733)" />
    <path
       id="path15"
       d="m 6.6206875,-2.3217578 c 0,-0.1054688 0,-0.1757813 -0.1289062,-0.1757813 -0.1054688,0 -0.1054688,0.070312 -0.1171875,0.1640625 -0.082031,1.42968754 -1.1484375,2.23828129 -2.2265625,2.23828129 -0.609375,0 -2.5664063,-0.33984375 -2.5664063,-3.30468749 0,-2.9765625 1.9453125,-3.3164063 2.5546875,-3.3164063 1.078125,0 1.96875,0.9023438 2.1679688,2.3671875 0.023437,0.1289063 0.023437,0.1640625 0.1640625,0.1640625 0.1523437,0 0.1523437,-0.035156 0.1523437,-0.234375 v -2.3671875 c 0,-0.1640625 0,-0.234375 -0.1054687,-0.234375 -0.035156,0 -0.082031,0 -0.1640625,0.1171875 l -0.4921875,0.7382813 c -0.375,-0.3632813 -0.8789063,-0.8554688 -1.8398438,-0.8554688 -1.8632812,0 -3.45703125,1.5820313 -3.45703125,3.609375 0,2.0625 1.60546875,3.63281254 3.45703125,3.63281254 1.6289063,0 2.6015625,-1.38281254 2.6015625,-2.54296874 z m 0,0"
       style="fill:#000000;fill-opacity:1;fill-rule:nonzero;stroke:none"
       aria-label="C"
       transform="matrix(1.3333333,0,0,1.3333333,479.07867,266.19333)" />
    <path
       id="path16"
       d="m 7.0425625,-3.3517656 c 0,-1.8867188 -1.3476562,-3.4570313 -3.046875,-3.4570313 H 0.35115625 v 0.3164063 h 0.234375 c 0.77343755,0 0.78515625,0.1054687 0.78515625,0.46875 v 5.24999997 c 0,0.3515625 -0.011719,0.46875 -0.78515625,0.46875 h -0.234375 V -2.03125e-4 H 3.9956875 c 1.6757813,0 3.046875,-1.476562475 3.046875,-3.351562475 z m -0.9960937,0 c 0,1.1132812 -0.1875,1.7109375 -0.5507813,2.1914062 -0.1992187,0.26953127 -0.7617187,0.85546877 -1.7695312,0.85546877 H 2.7183438 c -0.46875,0 -0.4921875,-0.0703125 -0.4921875,-0.3984375 V -6.0939531 c 0,-0.328125 0.023437,-0.3984375 0.4921875,-0.3984375 h 0.9960937 c 0.6210938,0 1.3007813,0.2109375 1.8164063,0.9257812 0.421875,0.5859375 0.515625,1.4414063 0.515625,2.2148438 z m 0,0"
       style="fill:#000000;fill-opacity:1;fill-rule:nonzero;stroke:none"
       aria-label="D"
       transform="matrix(1.3333333,0,0,1.3333333,479.07867,299.78933)" />
    <path
       id="path17"
       d="M 6.4917813,-2.5650156 H 6.2456875 C 5.9995938,-1.0298594 5.7652188,-0.30329688 4.0542813,-0.30329688 H 2.7300625 c -0.46875,0 -0.4921875,-0.0703125 -0.4921875,-0.3984375 V -3.3618906 h 0.9023438 c 0.9609375,0 1.078125,0.3164062 1.078125,1.1601562 H 4.4644375 V -4.8384531 H 4.2183438 c 0,0.8554687 -0.1171875,1.1601562 -1.078125,1.1601562 H 2.237875 v -2.390625 c 0,-0.328125 0.023437,-0.3984375 0.4921875,-0.3984375 H 4.019125 c 1.5234375,0 1.7929688,0.5507813 1.9453125,1.9335938 H 6.2105313 L 5.941,-6.7720469 H 0.32771875 v 0.3046875 h 0.234375 c 0.77343755,0 0.79687505,0.1171875 0.79687505,0.46875 v 5.22656252 c 0,0.3515625 -0.023437,0.46875 -0.79687505,0.46875 h -0.234375 v 0.3046875 H 6.081625 Z m 0,0"
       style="fill:#000000;fill-opacity:1;fill-rule:nonzero;stroke:none"
       aria-label="E"
       transform="matrix(1.3333333,0,0,1.3333333,479.07867,333.36533)" />
    <path
       id="path18"
       d="M 6.081625,-4.5344531 5.800375,-6.7727344 H 0.32771875 v 0.3046875 h 0.234375 c 0.77343755,0 0.79687505,0.1171875 0.79687505,0.46875 v 5.22656252 c 0,0.3515625 -0.023437,0.46875 -0.79687505,0.46875 h -0.234375 V 7.03125e-4 C 0.67928125,-0.03445313 1.4527188,-0.03445313 1.8394375,-0.03445313 c 0.4101563,0 1.3125,0 1.6757813,0.035156255 V -0.30398438 h -0.328125 c -0.9492188,0 -0.9492188,-0.12890625 -0.9492188,-0.48046875 V -3.2336719 h 0.8554688 c 0.9609375,0 1.0546875,0.3164063 1.0546875,1.1601563 H 4.4058438 V -4.7102344 H 4.1480313 c 0,0.8320313 -0.09375,1.1601563 -1.0546875,1.1601563 H 2.237875 v -2.5195313 c 0,-0.328125 0.023437,-0.3984375 0.4921875,-0.3984375 H 3.925375 c 1.4882813,0 1.7460938,0.5625 1.8984375,1.9335938 z m 0,0"
       style="fill:#000000;fill-opacity:1;fill-rule:nonzero;stroke:none"
       aria-label="F"
       transform="matrix(1.3333333,0,0,1.3333333,479.07867,366.96)" />
    <path
       id="path19"
       d="m 7.3238125,-2.4153984 v -0.3046875 l -1.21875,0.023437 c -0.3984375,0 -1.2421875,0 -1.6054687,-0.023437 v 0.3046875 H 4.816 c 0.9023438,0 0.9257813,0.1171875 0.9257813,0.4804687 v 0.6328125 c 0,1.12500001 -1.2539063,1.20703126 -1.5351563,1.20703126 -0.65625,0 -2.625,-0.33984375 -2.625,-3.31640626 0,-2.9765625 1.96875,-3.3046875 2.5664063,-3.3046875 1.0664062,0 1.96875,0.9023438 2.1679687,2.3671875 0.023437,0.1289063 0.023437,0.1640625 0.1640625,0.1640625 0.1523438,0 0.1523438,-0.035156 0.1523438,-0.234375 v -2.3671875 c 0,-0.1640625 0,-0.234375 -0.1054688,-0.234375 -0.046875,0 -0.082031,0 -0.1640625,0.1171875 L 5.8706875,-6.1653984 C 5.5425625,-6.4818047 5.0152188,-7.0208672 4.019125,-7.0208672 c -1.8515625,0 -3.45703125,1.5703125 -3.45703125,3.609375 0,2.0507813 1.59375005,3.63281251 3.48046875,3.63281251 0.7265625,0 1.5234375,-0.2578125 1.8632813,-0.85546875 0.1289062,0.22265625 0.5273437,0.62109375 0.6328125,0.62109375 0.09375,0 0.09375,-0.08203125 0.09375,-0.22265625 V -1.9700859 c 0,-0.3867188 0.046875,-0.4453125 0.6914062,-0.4453125 z m 0,0"
       style="fill:#000000;fill-opacity:1;fill-rule:nonzero;stroke:none"
       aria-label="G"
       transform="matrix(1.3333333,0,0,1.3333333,479.07867,400.576)" />
    <path
       id="path20"
       d="m 7.1363125,-9.375e-5 v -0.3046875 H 6.8902188 c -0.7617188,0 -0.7851563,-0.1171875 -0.7851563,-0.46875 V -6.0235313 c 0,-0.3632812 0.023437,-0.46875 0.7851563,-0.46875 h 0.2460937 v -0.3164062 c -0.3515625,0.035156 -1.0898437,0.035156 -1.4648437,0.035156 -0.3867188,0 -1.125,0 -1.4765625,-0.035156 v 0.3164062 h 0.234375 c 0.7734375,0 0.7851562,0.1054688 0.7851562,0.46875 V -3.6915 H 2.237875 v -2.3320313 c 0,-0.3632812 0.023437,-0.46875 0.7851563,-0.46875 H 3.269125 v -0.3164062 c -0.3515625,0.035156 -1.0898437,0.035156 -1.4648437,0.035156 -0.375,0 -1.12500005,0 -1.47656255,-0.035156 v 0.3164062 h 0.234375 c 0.77343755,0 0.79687505,0.1054688 0.79687505,0.46875 v 5.25000005 c 0,0.3515625 -0.023437,0.46875 -0.79687505,0.46875 h -0.234375 V -9.375e-5 C 0.67928125,-0.03525 1.4175625,-0.03525 1.7925625,-0.03525 c 0.375,0 1.125,0 1.4765625,0.03515625 v -0.3046875 H 3.0230313 c -0.7617188,0 -0.7851563,-0.1171875 -0.7851563,-0.46875 V -3.3868125 h 2.9765625 v 2.61328125 c 0,0.3515625 -0.011719,0.46875 -0.7851562,0.46875 H 4.1949063 V -9.375e-5 C 4.5464688,-0.03525 5.28475,-0.03525 5.65975,-0.03525 c 0.375,0 1.125,0 1.4765625,0.03515625 z m 0,0"
       style="fill:#000000;fill-opacity:1;fill-rule:nonzero;stroke:none"
       aria-label="H"
       transform="matrix(1.3333333,0,0,1.3333333,479.07867,434.172)" />
    <path
       id="path21"
       d="m 4.6285,-6.4923672 v -0.3164062 l -1.2773437,0.035156 c -0.421875,0 -1.3007813,0 -1.6757813,-0.035156 v 0.3164062 h 0.3515625 c 0.984375,0 0.984375,0.1289063 0.984375,0.4804688 v 4.5351562 c 0,0.91406251 -0.5039062,1.4765625125 -1.03125,1.4765625125 -0.058594,0 -0.7382812,0 -1.08984375,-0.5742187525 0.51562505,0 0.63281255,-0.3046875 0.63281255,-0.56249996 0,-0.3632813 -0.28125,-0.5625 -0.56250005,-0.5625 -0.2109375,0 -0.55078125,0.140625 -0.55078125,0.5859375 0,0.73828121 0.703125,1.33593746 1.59375,1.33593746 1.0195313,0 1.7460938,-0.703125 1.8515625,-1.45312496 0.011719,-0.070312 0.011719,-0.09375 0.011719,-0.4335938 v -4.4179687 c 0,-0.4101563 0.140625,-0.4101563 0.7617185,-0.4101563 z m 0,0"
       style="fill:#000000;fill-opacity:1;fill-rule:nonzero;stroke:none"
       aria-label="J"
       transform="matrix(1.3333333,0,0,1.3333333,479.07867,467.62133)" />
    <path
       id="path22"
       d="m 0.88023125,0.03708125 0.15937505,0.50625 H 16.677106 c 0.253125,0 0.43125,-0.075 0.4875,-0.271875 -0.665625,-0.6 -1.725,-1.40624995 -1.725,-1.40624995 l -0.9375,1.17187495 H 9.5989813 V -6.6097937 h 5.5874997 c 0.253125,0 0.43125,-0.09375 0.46875,-0.290625 -0.628125,-0.571875 -1.640625,-1.36875 -1.640625,-1.36875 l -0.91875,1.115625 H 9.5989813 v -5.7468753 h 6.2343747 c 0.271875,0 0.43125,-0.09375 0.46875,-0.290625 -0.628125,-0.590625 -1.6875,-1.40625 -1.6875,-1.40625 l -0.9375,1.153125 H 1.6677313 l 0.15,0.54375 h 6.534375 v 5.7468753 h -5.90625 l 0.140625,0.54375 h 5.765625 v 6.64687495 z m 0,0"
       style="fill:#000000;fill-opacity:1;fill-rule:nonzero;stroke:none"
       aria-label="王"
       transform="matrix(-1.6666667,0,0,-1.6666667,193.45533,183.08133)" />
    <path
       id="path23"
       d="m 4.0977092,-4.4022962 -0.234375,0.1019022 c 0.652174,0.9782608 1.3858696,2.4456522 1.4572011,3.63790759 C 6.4720299,0.42786685 7.7152364,-2.2317799 4.0977092,-4.4022962 Z m 8.5903528,-0.091712 c -0.550271,1.4775816 -1.294157,3.0876359 -1.864809,4.09646744 l 0.264945,0.16304348 c 0.886549,-0.80502722 1.895381,-2.06861412 2.700408,-3.25067932 0.356658,0.050951 0.570652,-0.091712 0.662364,-0.2853261 z M 9.3151005,-14.113573 c 1.3145385,2.537364 4.0557065,4.891304 6.9701085,6.3485051 0.112093,-0.4483696 0.560462,-0.8763587 1.100544,-0.9884511 l 0.03057,-0.2751359 c -3.128396,-1.2330161 -6.144701,-3.1080161 -7.7649453,-5.3192931 0.4483693,-0.03057 0.6827443,-0.122283 0.7235053,-0.336278 l -2.1399455,-0.50951 c -0.9884511,2.516983 -4.6875,6.0937496 -7.69361413,7.7853257 l 0.12228261,0.2547554 C 4.0263777,-8.6821875 7.5827636,-11.59659 9.3151005,-14.113573 Z M 1.0304538,0.34634511 1.1731168,0.8660462 H 16.519584 c 0.254756,0 0.427989,-0.091712 0.489131,-0.29551631 -0.652174,-0.57065217261 -1.691576,-1.39605978 -1.691576,-1.39605978 l -0.89674,1.171875 H 9.4883342 V -5.1258016 h 6.2975548 c 0.244565,0 0.407608,-0.091712 0.46875,-0.2853261 -0.611413,-0.560462 -1.599865,-1.3145381 -1.599865,-1.3145381 l -0.886548,1.0801631 H 9.4883342 V -8.519144 h 3.3322008 c 0.244566,0 0.407609,-0.091712 0.46875,-0.2853261 -0.601223,-0.5298913 -1.518342,-1.1922554 -1.518342,-1.2126359 l -0.805027,0.9782609 H 4.4441766 l 0.1426631,0.5197011 h 3.6990489 v 2.8736413 h -6.419837 l 0.1528533,0.5197011 h 6.2669837 v 5.47214671 z m 0,0"
       style="fill:#000000;fill-opacity:1;fill-rule:nonzero;stroke:none"
       aria-label="金"
       transform="matrix(-1.5333333,0,0,-1.5333333,225.85347,183.992)" />
    <path
       id="path24"
       d="m 15.323132,-13.807845 c -0.341797,0.537109 -0.908204,1.435547 -1.337891,2.050781 -0.302734,-0.06836 -0.664063,-0.126953 -1.035156,-0.166015 -0.09766,-0.449219 -0.146485,-0.898438 -0.166016,-1.328125 0.322266,-0.03906 0.576172,-0.146485 0.683594,-0.263672 l -1.367188,-1.083985 -0.644531,0.722657 H 1.6707878 l 0.1660156,0.498046 h 9.8144536 c 0.234375,3.03711 1.171875,5.6835942 3.720703,6.7480473 0.742187,0.3417969 1.533203,0.4980469 1.777343,0.029297 0.146485,-0.234375 0.03906,-0.46875 -0.371093,-0.8203125 l 0.136718,-1.875 -0.234375,-0.029297 c -0.136718,0.5175781 -0.341796,1.0546875 -0.478515,1.4550781 -0.107422,0.1953125 -0.166016,0.2148438 -0.429688,0.1269532 -1.572265,-0.546875 -2.412109,-2.1484375 -2.773437,-3.8671871 0.9375,0.478515 2.03125,1.328125 2.460937,2.0312496 1.064453,0.4101562 1.425782,-1.3281246 -1.054687,-2.0703126 0.55664,-0.380859 1.201172,-0.839844 1.591797,-1.152344 0.341797,0.08789 0.507812,0.03906 0.595703,-0.107422 z m -0.273438,7.5488281 c -0.322266,0.5566406 -0.859375,1.4453125 -1.279297,2.0703125 -0.283203,-0.048828 -0.605469,-0.1269532 -0.947265,-0.1660157 -0.107422,-0.6640625 -0.166016,-1.328125 -0.185547,-1.9921875 0.322265,-0.048828 0.55664,-0.1464843 0.683593,-0.2539062 l -1.367187,-1.1132813 -0.644531,0.703125 H 9.112194 v -5.1074219 c 0.3808594,-0.04883 0.5273438,-0.214844 0.5566406,-0.449219 l -1.71875,-0.195312 v 5.7519529 H 5.2645378 v -3.0371089 c 0.4199218,-0.06836 0.5566406,-0.253907 0.6152343,-0.488282 L 4.893444,-10.643783 c 0.6445313,-0.380859 1.2011719,-0.751953 1.6308594,-1.09375 0.4199219,0.06836 0.6835937,0.01953 0.8105469,-0.166015 L 5.752819,-12.714095 c -0.8984375,1.083984 -2.890625,2.646484 -4.6386719,3.5058593 l 0.1464844,0.2539063 c 0.9472656,-0.3027344 1.9433594,-0.7519532 2.8417969,-1.2402346 v 3.1835939 H 0.70399089 l 0.15625,0.5175782 H 4.1024284 c -0.078125,2.734375 -0.6347656,5.6347656 -3.34960939,7.6269531 l 0.21484375,0.234375 c 3.45703124,-1.875 4.20898434,-5 4.28710934,-7.8613281 h 2.6953125 v 7.9003906 h 0.2148438 c 0.4492187,0 0.9472656,-0.2929688 0.9472656,-0.44921875 V -6.4933919 h 2.373047 c 0.185547,3.5449218 1.064453,6.51367185 3.955078,7.5683593 0.761719,0.3417969 1.572266,0.5078125 1.816406,0.039063 0.107422,-0.23437495 0.01953,-0.46874995 -0.390625,-0.83007808 l 0.126953,-1.99218752 -0.234375,-0.039063 c -0.146484,0.5957031 -0.322265,1.13281252 -0.507812,1.57226565 -0.06836,0.21484375 -0.15625,0.24414062 -0.449219,0.13671875 -1.669922,-0.55664063 -2.529297,-2.1582031 -2.910156,-3.9746094 0.966797,0.546875 2.099609,1.4257813 2.568359,2.1484375 1.103516,0.4296875 1.425782,-1.3867187 -1.259765,-2.1972656 l 1.582031,-1.2207031 c 0.380859,0.068359 0.527344,0.019531 0.595703,-0.1269532 z m 0,0"
       style="fill:#000000;fill-opacity:1;fill-rule:nonzero;stroke:none"
       aria-label="飛"
       transform="matrix(1.6,0,0,1.6,264.88533,205.39333)" />
    <path
       id="path25"
       d="m 11.824347,-7.8205966 -0.159802,0.2024148 c 1.395597,0.8416193 3.270597,2.3863636 3.931108,3.6221591 1.459517,0.6924716 1.800427,-2.3544034 -3.771306,-3.8245739 z M 5.1553125,-8.065625 c -0.8096591,1.5980114 -2.5355114,3.7180398 -4.34659091,5.0071023 l 0.18110796,0.234375 C 3.1311648,-3.8681818 5.1020455,-5.6046875 6.1460795,-7.0322443 c 0.415483,0.074574 0.5752841,-0.010653 0.6818182,-0.1704546 z M 8.4152557,-8.76875 v 4.634233 c 0,0.2556818 -0.095881,0.340909 -0.4048296,0.340909 -0.3515625,0 -2.1306818,-0.1278409 -2.1306818,-0.1278409 v 0.2876421 c 0.7883523,0.095881 1.2038352,0.2130682 1.4701705,0.4154829 0.2556818,0.181108 0.3196022,0.46875 0.3728693,0.8309659 1.6619318,-0.1704545 1.8536932,-0.7244318 1.8536932,-1.693892 V -8.1295455 C 9.9706534,-8.1828125 10.130455,-8.3 10.194375,-8.5769886 Z m 4.2187503,3.4517045 C 9.7362784,-1.1835227 6.0928125,0.12684659 1.469233,1.0430398 l 0.074574,0.3622159 c 4.9964489,-0.59659093 8.703835,-1.76846593 11.953125,-5.6463068 0.426136,0.074574 0.628551,0.03196 0.756392,-0.1491478 z M 4.2071591,-13.711932 v 4.3465911 H 0.75545455 l 0.15980113,0.522017 H 16.735568 c 0.266335,0 0.426137,-0.085227 0.479404,-0.287642 C 16.58642,-9.70625 15.542386,-10.483949 15.542386,-10.483949 l -0.916193,1.1186081 H 9.5764773 v -2.4822441 h 5.1242897 c 0.255682,0 0.426136,-0.08523 0.46875,-0.287642 -0.617898,-0.532671 -1.598011,-1.331676 -1.598011,-1.331676 l -0.90554,1.097301 H 9.5764773 v -2.024148 c 0.4474427,-0.05327 0.6285507,-0.234375 0.6711647,-0.490057 l -1.8323863,-0.181108 v 5.6995741 H 5.3577273 v -3.6967331 c 0.3941761,-0.07457 0.5326704,-0.234375 0.5752841,-0.46875 z m 0,0"
       style="fill:#000000;fill-opacity:1;fill-rule:nonzero;stroke:none"
       aria-label="歩"
       transform="matrix(1.4666667,0,0,1.4666667,198.892,271.67333)" />
  </g>
</svg>
