<?xml version="1.0" encoding="UTF-8" standalone="no"?>
<!-- Created with Inkscape (http://www.inkscape.org/) -->

<svg
   version="1.1"
   id="svg1"
   width="228.63336"
   height="632.32294"
   viewBox="0 0 228.63336 632.32293"
   sodipodi:docname="neofanaro.io.pdf"
   xmlns:inkscape="http://www.inkscape.org/namespaces/inkscape"
   xmlns:sodipodi="http://sodipodi.sourceforge.net/DTD/sodipodi-0.dtd"
   xmlns="http://www.w3.org/2000/svg"
   xmlns:svg="http://www.w3.org/2000/svg">
  <defs
     id="defs1">
    <clipPath
       clipPathUnits="userSpaceOnUse"
       id="clipPath3">
      <path
         d="M 301.98763,-13.12968 V 498.93645 H 498.93645 V -13.12968 Z"
         transform="translate(2.5000001e-6)"
         id="path3" />
    </clipPath>
    <clipPath
       clipPathUnits="userSpaceOnUse"
       id="clipPath5">
      <path
         d="M 301.98763,-13.12968 V 498.93645 H 498.93645 V -13.12968 Z"
         transform="translate(2.5000001e-6)"
         id="path5" />
    </clipPath>
    <clipPath
       clipPathUnits="userSpaceOnUse"
       id="clipPath7">
      <path
         d="M 301.98763,-13.12968 V 498.93645 H 498.93645 V -13.12968 Z"
         transform="translate(2.5000001e-6)"
         id="path7" />
    </clipPath>
    <clipPath
       clipPathUnits="userSpaceOnUse"
       id="clipPath13">
      <path
         d="M 301.98763,-13.12968 V 498.93645 H 498.93645 V -13.12968 Z"
         transform="translate(2.5000001e-6)"
         id="path13" />
    </clipPath>
    <clipPath
       clipPathUnits="userSpaceOnUse"
       id="clipPath17">
      <path
         d="M 301.98763,-13.12968 V 498.93645 H 498.93645 V -13.12968 Z"
         transform="translate(2.5000001e-6)"
         id="path17" />
    </clipPath>
    <clipPath
       clipPathUnits="userSpaceOnUse"
       id="clipPath21">
      <path
         d="M 301.98763,-13.12968 V 498.93645 H 498.93645 V -13.12968 Z"
         transform="translate(2.5000001e-6)"
         id="path21" />
    </clipPath>
    <clipPath
       clipPathUnits="userSpaceOnUse"
       id="clipPath25">
      <path
         d="M 301.98763,-13.12968 V 498.93645 H 498.93645 V -13.12968 Z"
         transform="translate(2.5000001e-6)"
         id="path25" />
    </clipPath>
    <clipPath
       clipPathUnits="userSpaceOnUse"
       id="clipPath33">
      <path
         d="M 301.98763,-13.12968 V 498.93645 H 498.93645 V -13.12968 Z"
         transform="translate(2.5000001e-6)"
         id="path33" />
    </clipPath>
    <clipPath
       clipPathUnits="userSpaceOnUse"
       id="clipPath35">
      <path
         d="M 301.98763,-13.12968 V 498.93645 H 498.93645 V -13.12968 Z"
         transform="translate(2.5000001e-6)"
         id="path35" />
    </clipPath>
    <clipPath
       clipPathUnits="userSpaceOnUse"
       id="clipPath37">
      <path
         d="M 301.98763,-13.12968 V 498.93645 H 498.93645 V -13.12968 Z"
         transform="translate(2.5000001e-6)"
         id="path37" />
    </clipPath>
    <clipPath
       clipPathUnits="userSpaceOnUse"
       id="clipPath39">
      <path
         d="M 301.98763,-13.12968 V 498.93645 H 498.93645 V -13.12968 Z"
         transform="translate(2.5000001e-6)"
         id="path39" />
    </clipPath>
    <clipPath
       clipPathUnits="userSpaceOnUse"
       id="clipPath41">
      <path
         d="M 301.98763,-13.12968 V 498.93645 H 498.93645 V -13.12968 Z"
         transform="translate(2.5000001e-6)"
         id="path41" />
    </clipPath>
    <clipPath
       clipPathUnits="userSpaceOnUse"
       id="clipPath43">
      <path
         d="M 301.98763,-13.12968 V 498.93645 H 498.93645 V -13.12968 Z"
         transform="translate(2.5000001e-6)"
         id="path43" />
    </clipPath>
    <clipPath
       clipPathUnits="userSpaceOnUse"
       id="clipPath45">
      <path
         d="M 301.98763,-13.12968 V 498.93645 H 498.93645 V -13.12968 Z"
         transform="translate(2.5000001e-6)"
         id="path45" />
    </clipPath>
  </defs>
  <sodipodi:namedview
     id="namedview1"
     pagecolor="#ffffff"
     bordercolor="#000000"
     borderopacity="0.25"
     inkscape:showpageshadow="2"
     inkscape:pageopacity="0.0"
     inkscape:pagecheckerboard="0"
     inkscape:deskcolor="#d1d1d1" />
  <g
     id="g1"
     inkscape:groupmode="layer"
     inkscape:label="1"
     transform="translate(-275.00751,-150.91779)">
    <path
       id="path2"
       d="M 0,0 472.68314,472.68314"
       style="fill:none;stroke:#000000;stroke-width:1;stroke-linecap:butt;stroke-linejoin:miter;stroke-miterlimit:10;stroke-dasharray:0, 1.99255;stroke-dashoffset:0;stroke-opacity:1"
       transform="matrix(1.3333333,0,0,-1.3333333,-127.64267,782.20133)"
       clip-path="url(#clipPath3)" />
    <path
       id="path4"
       d="M 0,0 H 472.68314 M 0,26.2598 H 472.68314 M 0,52.5196 H 472.68314 M 0,78.7794 H 472.68314 M 0,105.03922 H 472.68314 M 0,131.29903 H 472.68314 M 0,157.55882 H 472.68314 M 0,183.81863 H 472.68314 M 0,210.07845 H 472.68314 M 0,236.33824 H 472.68314 M 0,262.59805 H 472.68314 M 0,288.85786 H 472.68314 M 0,315.11766 H 472.68314 M 0,341.37747 H 472.68314 M 0,367.63728 H 472.68314 M 0,393.89708 H 472.68314 M 0,420.15689 H 472.68314 M 0,446.4167 H 472.68314 M 0,472.6765 H 472.68314 M 0,0 V 472.68314 M 26.2598,0 V 472.68314 M 52.5196,0 V 472.68314 M 78.7794,0 V 472.68314 M 105.03922,0 V 472.68314 M 131.29903,0 V 472.68314 M 157.55882,0 V 472.68314 M 183.81863,0 V 472.68314 M 210.07845,0 V 472.68314 M 236.33824,0 V 472.68314 M 262.59805,0 V 472.68314 M 288.85786,0 V 472.68314 M 315.11766,0 V 472.68314 M 341.37747,0 V 472.68314 M 367.63728,0 V 472.68314 M 393.89708,0 V 472.68314 M 420.15689,0 V 472.68314 M 446.4167,0 V 472.68314 M 472.6765,0 v 472.68314"
       style="fill:none;stroke:#000000;stroke-width:0.3985;stroke-linecap:butt;stroke-linejoin:miter;stroke-miterlimit:10;stroke-dasharray:none;stroke-opacity:1"
       transform="matrix(1.3333333,0,0,-1.3333333,-127.64267,782.20133)"
       clip-path="url(#clipPath5)" />
    <path
       id="path6"
       d="M 0,0 H 472.68314 M 0,472.67317 H 472.68314 M 0,0 V 472.68314 M 472.67317,0 v 472.68314"
       style="fill:none;stroke:#000000;stroke-width:1.55907;stroke-linecap:square;stroke-linejoin:miter;stroke-miterlimit:10;stroke-dasharray:none;stroke-opacity:1"
       transform="matrix(1.3333333,0,0,-1.3333333,-127.64267,782.20133)"
       clip-path="url(#clipPath7)" />
    <path
       id="path12"
       d="m 397.17929,78.77942 c 0,1.81268 -1.46944,3.2821 -3.2821,3.2821 -1.81267,0 -3.28209,-1.46942 -3.28209,-3.2821 0,-1.81267 1.46942,-3.28209 3.28209,-3.28209 1.81266,0 3.2821,1.46942 3.2821,3.28209 z"
       style="fill:#000000;fill-opacity:1;fill-rule:nonzero;stroke:#000000;stroke-width:0.3985;stroke-linecap:butt;stroke-linejoin:miter;stroke-miterlimit:10;stroke-dasharray:none;stroke-opacity:1"
       transform="matrix(1.3333333,0,0,-1.3333333,-127.64267,782.20133)"
       clip-path="url(#clipPath13)" />
    <path
       id="path16"
       d="m 397.17929,393.89719 c 0,1.81266 -1.46944,3.2821 -3.2821,3.2821 -1.81267,0 -3.28209,-1.46944 -3.28209,-3.2821 0,-1.81267 1.46942,-3.28209 3.28209,-3.28209 1.81266,0 3.2821,1.46942 3.2821,3.28209 z"
       style="fill:#000000;fill-opacity:1;fill-rule:nonzero;stroke:#000000;stroke-width:0.3985;stroke-linecap:butt;stroke-linejoin:miter;stroke-miterlimit:10;stroke-dasharray:none;stroke-opacity:1"
       transform="matrix(1.3333333,0,0,-1.3333333,-127.64267,782.20133)"
       clip-path="url(#clipPath17)" />
    <path
       id="path20"
       d="m 397.17929,78.77942 c 0,1.81268 -1.46944,3.2821 -3.2821,3.2821 -1.81267,0 -3.28209,-1.46942 -3.28209,-3.2821 0,-1.81267 1.46942,-3.28209 3.28209,-3.28209 1.81266,0 3.2821,1.46942 3.2821,3.28209 z"
       style="fill:#000000;fill-opacity:1;fill-rule:nonzero;stroke:#000000;stroke-width:0.3985;stroke-linecap:butt;stroke-linejoin:miter;stroke-miterlimit:10;stroke-dasharray:none;stroke-opacity:1"
       transform="matrix(1.3333333,0,0,-1.3333333,-127.64267,782.20133)"
       clip-path="url(#clipPath21)" />
    <path
       id="path24"
       d="m 397.17929,393.89719 c 0,1.81266 -1.46944,3.2821 -3.2821,3.2821 -1.81267,0 -3.28209,-1.46944 -3.28209,-3.2821 0,-1.81267 1.46942,-3.28209 3.28209,-3.28209 1.81266,0 3.2821,1.46942 3.2821,3.28209 z"
       style="fill:#000000;fill-opacity:1;fill-rule:nonzero;stroke:#000000;stroke-width:0.3985;stroke-linecap:butt;stroke-linejoin:miter;stroke-miterlimit:10;stroke-dasharray:none;stroke-opacity:1"
       transform="matrix(1.3333333,0,0,-1.3333333,-127.64267,782.20133)"
       clip-path="url(#clipPath25)" />
    <path
       id="path32"
       d="m 397.17929,236.3383 c 0,1.81269 -1.46944,3.2821 -3.2821,3.2821 -1.81267,0 -3.28209,-1.46941 -3.28209,-3.2821 0,-1.81267 1.46942,-3.28209 3.28209,-3.28209 1.81266,0 3.2821,1.46942 3.2821,3.28209 z"
       style="fill:#000000;fill-opacity:1;fill-rule:nonzero;stroke:#000000;stroke-width:0.3985;stroke-linecap:butt;stroke-linejoin:miter;stroke-miterlimit:10;stroke-dasharray:none;stroke-opacity:1"
       transform="matrix(1.3333333,0,0,-1.3333333,-127.64267,782.20133)"
       clip-path="url(#clipPath33)" />
    <path
       id="path34"
       d="m 407.02689,393.89719 c 0,7.25141 -5.87829,13.1297 -13.1297,13.1297 -7.25142,0 -13.12969,-5.87829 -13.12969,-13.1297 0,-7.25142 5.87827,-13.12969 13.12969,-13.12969 7.25141,0 13.1297,5.87827 13.1297,13.12969 z"
       style="fill:#ffffff;fill-opacity:1;fill-rule:nonzero;stroke:#ffffff;stroke-width:0.3985;stroke-linecap:butt;stroke-linejoin:miter;stroke-miterlimit:10;stroke-dasharray:none;stroke-opacity:1"
       transform="matrix(1.3333333,0,0,-1.3333333,-127.64267,782.20133)"
       clip-path="url(#clipPath35)" />
    <path
       id="path36"
       d="m 406.97455,393.89719 c 0,7.22251 -5.85485,13.07736 -13.07736,13.07736 -7.22251,0 -13.07735,-5.85485 -13.07735,-13.07736 0,-7.22251 5.85484,-13.07735 13.07735,-13.07735 7.22251,0 13.07736,5.85484 13.07736,13.07735 z"
       style="fill:#000000;fill-opacity:1;fill-rule:nonzero;stroke:#ffffff;stroke-width:1.1998;stroke-linecap:butt;stroke-linejoin:miter;stroke-miterlimit:10;stroke-dasharray:none;stroke-opacity:1"
       transform="matrix(1.3333333,0,0,-1.3333333,-127.64267,782.20133)"
       clip-path="url(#clipPath37)" />
    <path
       id="path38"
       d="m 433.2867,210.0785 c 0,7.25143 -5.87827,13.12969 -13.12969,13.12969 -7.25141,0 -13.12968,-5.87826 -13.12968,-13.12969 0,-7.25141 5.87827,-13.1297 13.12968,-13.1297 7.25142,0 13.12969,5.87829 13.12969,13.1297 z"
       style="fill:#ffffff;fill-opacity:1;fill-rule:nonzero;stroke:#ffffff;stroke-width:0.3985;stroke-linecap:butt;stroke-linejoin:miter;stroke-miterlimit:10;stroke-dasharray:none;stroke-opacity:1"
       transform="matrix(1.3333333,0,0,-1.3333333,-127.64267,782.20133)"
       clip-path="url(#clipPath39)" />
    <path
       id="path40"
       d="m 433.23436,210.0785 c 0,7.22251 -5.85484,13.07735 -13.07735,13.07735 -7.2225,0 -13.07734,-5.85484 -13.07734,-13.07735 0,-7.2225 5.85484,-13.07734 13.07734,-13.07734 7.22251,0 13.07735,5.85484 13.07735,13.07734 z"
       style="fill:#000000;fill-opacity:1;fill-rule:nonzero;stroke:#ffffff;stroke-width:1.1998;stroke-linecap:butt;stroke-linejoin:miter;stroke-miterlimit:10;stroke-dasharray:none;stroke-opacity:1"
       transform="matrix(1.3333333,0,0,-1.3333333,-127.64267,782.20133)"
       clip-path="url(#clipPath41)" />
    <path
       id="path42"
       d="m 407.02689,52.51962 c 0,7.25142 -5.87829,13.12968 -13.1297,13.12968 -7.25142,0 -13.12969,-5.87826 -13.12969,-13.12968 0,-7.25142 5.87827,-13.1297 13.12969,-13.1297 7.25141,0 13.1297,5.87828 13.1297,13.1297 z"
       style="fill:#ffffff;fill-opacity:1;fill-rule:nonzero;stroke:#ffffff;stroke-width:0.3985;stroke-linecap:butt;stroke-linejoin:miter;stroke-miterlimit:10;stroke-dasharray:none;stroke-opacity:1"
       transform="matrix(1.3333333,0,0,-1.3333333,-127.64267,782.20133)"
       clip-path="url(#clipPath43)" />
    <path
       id="path44"
       d="m 406.97455,52.51962 c 0,7.22251 -5.85485,13.07735 -13.07736,13.07735 -7.22251,0 -13.07735,-5.85484 -13.07735,-13.07735 0,-7.2225 5.85484,-13.07734 13.07735,-13.07734 7.22251,0 13.07736,5.85484 13.07736,13.07734 z"
       style="fill:#000000;fill-opacity:1;fill-rule:nonzero;stroke:#ffffff;stroke-width:1.1998;stroke-linecap:butt;stroke-linejoin:miter;stroke-miterlimit:10;stroke-dasharray:none;stroke-opacity:1"
       transform="matrix(1.3333333,0,0,-1.3333333,-127.64267,782.20133)"
       clip-path="url(#clipPath45)" />
  </g>
</svg>
