<?xml version="1.0" encoding="UTF-8"?>
<svg xmlns="http://www.w3.org/2000/svg" xmlns:xlink="http://www.w3.org/1999/xlink" width="208.638pt" height="223.206pt" viewBox="0 0 208.638 223.206">
<defs>
<clipPath id="clip-0">
<path clip-rule="nonzero" d="M 7.960938 24 L 180 24 L 180 222.410156 L 7.960938 222.410156 Z M 7.960938 24 "/>
</clipPath>
<clipPath id="clip-1">
<path clip-rule="nonzero" d="M 7.960938 25 L 179 25 L 179 222.410156 L 7.960938 222.410156 Z M 7.960938 25 "/>
</clipPath>
<clipPath id="clip-2">
<path clip-rule="nonzero" d="M 7.960938 25 L 180 25 L 180 222.410156 L 7.960938 222.410156 Z M 7.960938 25 "/>
</clipPath>
<clipPath id="clip-3">
<path clip-rule="nonzero" d="M 148 0 L 204.210938 0 L 204.210938 57 L 148 57 Z M 148 0 "/>
</clipPath>
<clipPath id="clip-4">
<path clip-rule="nonzero" d="M 148 22 L 204.210938 22 L 204.210938 83 L 148 83 Z M 148 22 "/>
</clipPath>
<clipPath id="clip-5">
<path clip-rule="nonzero" d="M 148 74 L 204.210938 74 L 204.210938 135 L 148 135 Z M 148 74 "/>
</clipPath>
<clipPath id="clip-6">
<path clip-rule="nonzero" d="M 148 127 L 204.210938 127 L 204.210938 187 L 148 187 Z M 148 127 "/>
</clipPath>
<clipPath id="clip-7">
<path clip-rule="nonzero" d="M 149 49 L 204.210938 49 L 204.210938 108 L 149 108 Z M 149 49 "/>
</clipPath>
<clipPath id="clip-8">
<path clip-rule="nonzero" d="M 149 154 L 204.210938 154 L 204.210938 213 L 149 213 Z M 149 154 "/>
</clipPath>
</defs>
<g clip-path="url(#clip-0)">
<path fill="none" stroke-width="0.120427" stroke-linecap="butt" stroke-linejoin="miter" stroke="rgb(0%, 0%, 0%)" stroke-opacity="1" stroke-dasharray="0 1.99255" stroke-miterlimit="10" d="M -0.000242225 0.00131977 L 472.683064 472.684626 " transform="matrix(0.996455, 0, 0, -0.996455, -292.95679, 497.161471)"/>
</g>
<g clip-path="url(#clip-1)">
<path fill="none" stroke-width="0.3985" stroke-linecap="butt" stroke-linejoin="miter" stroke="rgb(0%, 0%, 0%)" stroke-opacity="1" stroke-miterlimit="10" d="M -0.000242225 0.00131977 L 472.683064 0.00131977 M -0.000242225 26.258454 L 472.683064 26.258454 M -0.000242225 52.519509 L 472.683064 52.519509 M -0.000242225 78.780564 L 472.683064 78.780564 M -0.000242225 105.037699 L 472.683064 105.037699 M -0.000242225 131.298754 L 472.683064 131.298754 M -0.000242225 157.559808 L 472.683064 157.559808 M -0.000242225 183.816943 L 472.683064 183.816943 M -0.000242225 210.077998 L 472.683064 210.077998 M -0.000242225 236.339053 L 472.683064 236.339053 M -0.000242225 262.596187 L 472.683064 262.596187 M -0.000242225 288.857242 L 472.683064 288.857242 M -0.000242225 315.118297 L 472.683064 315.118297 M -0.000242225 341.379352 L 472.683064 341.379352 M -0.000242225 367.636486 L 472.683064 367.636486 M -0.000242225 393.897541 L 472.683064 393.897541 M -0.000242225 420.158596 L 472.683064 420.158596 M -0.000242225 446.415731 L 472.683064 446.415731 M -0.000242225 472.676785 L 472.683064 472.676785 M -0.000242225 0.00131977 L -0.000242225 472.684626 M 26.260813 0.00131977 L 26.260813 472.684626 M 52.517947 0.00131977 L 52.517947 472.684626 M 78.779002 0.00131977 L 78.779002 472.684626 M 105.040057 0.00131977 L 105.040057 472.684626 M 131.297192 0.00131977 L 131.297192 472.684626 M 157.558246 0.00131977 L 157.558246 472.684626 M 183.819301 0.00131977 L 183.819301 472.684626 M 210.080356 0.00131977 L 210.080356 472.684626 M 236.337491 0.00131977 L 236.337491 472.684626 M 262.598545 0.00131977 L 262.598545 472.684626 M 288.8596 0.00131977 L 288.8596 472.684626 M 315.116735 0.00131977 L 315.116735 472.684626 M 341.37779 0.00131977 L 341.37779 472.684626 M 367.638845 0.00131977 L 367.638845 472.684626 M 393.895979 0.00131977 L 393.895979 472.684626 M 420.157034 0.00131977 L 420.157034 472.684626 M 446.418089 0.00131977 L 446.418089 472.684626 M 472.675223 0.00131977 L 472.675223 472.684626 " transform="matrix(0.996455, 0, 0, -0.996455, -292.95679, 497.161471)"/>
</g>
<g clip-path="url(#clip-2)">
<path fill="none" stroke-width="1.55907" stroke-linecap="square" stroke-linejoin="miter" stroke="rgb(0%, 0%, 0%)" stroke-opacity="1" stroke-miterlimit="10" d="M -0.000242225 0.00131977 L 472.683064 0.00131977 M -0.000242225 472.672865 L 472.683064 472.672865 M -0.000242225 0.00131977 L -0.000242225 472.684626 M 472.671303 0.00131977 L 472.671303 472.684626 " transform="matrix(0.996455, 0, 0, -0.996455, -292.95679, 497.161471)"/>
</g>
<path fill-rule="nonzero" fill="rgb(0%, 0%, 0%)" fill-opacity="1" stroke-width="0.3985" stroke-linecap="butt" stroke-linejoin="miter" stroke="rgb(0%, 0%, 0%)" stroke-opacity="1" stroke-miterlimit="10" d="M 397.181061 393.897541 C 397.181061 395.708648 395.711007 397.178703 393.895979 397.178703 C 392.084872 397.178703 390.614817 395.708648 390.614817 393.897541 C 390.614817 392.086434 392.084872 390.616379 393.895979 390.616379 C 395.711007 390.616379 397.181061 392.086434 397.181061 393.897541 Z M 397.181061 393.897541 " transform="matrix(0.996455, 0, 0, -0.996455, -292.95679, 497.161471)"/>
<path fill-rule="nonzero" fill="rgb(0%, 0%, 0%)" fill-opacity="1" stroke-width="0.3985" stroke-linecap="butt" stroke-linejoin="miter" stroke="rgb(0%, 0%, 0%)" stroke-opacity="1" stroke-miterlimit="10" d="M 397.181061 393.897541 C 397.181061 395.708648 395.711007 397.178703 393.895979 397.178703 C 392.084872 397.178703 390.614817 395.708648 390.614817 393.897541 C 390.614817 392.086434 392.084872 390.616379 393.895979 390.616379 C 395.711007 390.616379 397.181061 392.086434 397.181061 393.897541 Z M 397.181061 393.897541 " transform="matrix(0.996455, 0, 0, -0.996455, -292.95679, 497.161471)"/>
<path fill-rule="nonzero" fill="rgb(100%, 100%, 100%)" fill-opacity="1" stroke-width="0.3985" stroke-linecap="butt" stroke-linejoin="miter" stroke="rgb(100%, 100%, 100%)" stroke-opacity="1" stroke-miterlimit="10" d="M 459.546656 472.676785 C 459.546656 479.929055 453.666438 485.805353 446.418089 485.805353 C 439.16582 485.805353 433.285601 479.929055 433.285601 472.676785 C 433.285601 465.424516 439.16582 459.548218 446.418089 459.548218 C 453.666438 459.548218 459.546656 465.424516 459.546656 472.676785 Z M 459.546656 472.676785 " transform="matrix(0.996455, 0, 0, -0.996455, -292.95679, 497.161471)"/>
<path fill-rule="nonzero" fill="rgb(0%, 0%, 0%)" fill-opacity="1" stroke-width="1.1998" stroke-linecap="butt" stroke-linejoin="miter" stroke="rgb(100%, 100%, 100%)" stroke-opacity="1" stroke-miterlimit="10" d="M 459.495694 472.676785 C 459.495694 479.897694 453.638997 485.754391 446.418089 485.754391 C 439.193261 485.754391 433.340483 479.897694 433.340483 472.676785 C 433.340483 465.455877 439.193261 459.59918 446.418089 459.59918 C 453.638997 459.59918 459.495694 465.455877 459.495694 472.676785 Z M 459.495694 472.676785 " transform="matrix(0.996455, 0, 0, -0.996455, -292.95679, 497.161471)"/>
<path fill-rule="nonzero" fill="rgb(100%, 100%, 100%)" fill-opacity="1" stroke-width="0.3985" stroke-linecap="butt" stroke-linejoin="miter" stroke="rgb(100%, 100%, 100%)" stroke-opacity="1" stroke-miterlimit="10" d="M 485.807711 472.676785 C 485.807711 479.929055 479.927493 485.805353 472.675223 485.805353 C 465.426874 485.805353 459.546656 479.929055 459.546656 472.676785 C 459.546656 465.424516 465.426874 459.548218 472.675223 459.548218 C 479.927493 459.548218 485.807711 465.424516 485.807711 472.676785 Z M 485.807711 472.676785 " transform="matrix(0.996455, 0, 0, -0.996455, -292.95679, 497.161471)"/>
<path fill-rule="nonzero" fill="rgb(0%, 0%, 0%)" fill-opacity="1" d="M 191.074219 26.160156 C 191.074219 18.964844 185.242188 13.128906 178.042969 13.128906 C 170.847656 13.128906 165.011719 18.964844 165.011719 26.160156 C 165.011719 33.355469 170.847656 39.191406 178.042969 39.191406 C 185.242188 39.191406 191.074219 33.355469 191.074219 26.160156 Z M 191.074219 26.160156 "/>
<g clip-path="url(#clip-3)">
<path fill="none" stroke-width="1.1998" stroke-linecap="butt" stroke-linejoin="miter" stroke="rgb(100%, 100%, 100%)" stroke-opacity="1" stroke-miterlimit="10" d="M 485.752829 472.676785 C 485.752829 479.897694 479.900052 485.754391 472.675223 485.754391 C 465.454315 485.754391 459.597618 479.897694 459.597618 472.676785 C 459.597618 465.455877 465.454315 459.59918 472.675223 459.59918 C 479.900052 459.59918 485.752829 465.455877 485.752829 472.676785 Z M 485.752829 472.676785 " transform="matrix(0.996455, 0, 0, -0.996455, -292.95679, 497.161471)"/>
</g>
<path fill-rule="nonzero" fill="rgb(100%, 100%, 100%)" fill-opacity="1" stroke-width="0.3985" stroke-linecap="butt" stroke-linejoin="miter" stroke="rgb(100%, 100%, 100%)" stroke-opacity="1" stroke-miterlimit="10" d="M 485.807711 446.415731 C 485.807711 453.668 479.927493 459.548218 472.675223 459.548218 C 465.426874 459.548218 459.546656 453.668 459.546656 446.415731 C 459.546656 439.163461 465.426874 433.287163 472.675223 433.287163 C 479.927493 433.287163 485.807711 439.163461 485.807711 446.415731 Z M 485.807711 446.415731 " transform="matrix(0.996455, 0, 0, -0.996455, -292.95679, 497.161471)"/>
<path fill-rule="nonzero" fill="rgb(0%, 0%, 0%)" fill-opacity="1" d="M 191.074219 52.328125 C 191.074219 45.128906 185.242188 39.296875 178.042969 39.296875 C 170.847656 39.296875 165.011719 45.128906 165.011719 52.328125 C 165.011719 59.523438 170.847656 65.359375 178.042969 65.359375 C 185.242188 65.359375 191.074219 59.523438 191.074219 52.328125 Z M 191.074219 52.328125 "/>
<g clip-path="url(#clip-4)">
<path fill="none" stroke-width="1.1998" stroke-linecap="butt" stroke-linejoin="miter" stroke="rgb(100%, 100%, 100%)" stroke-opacity="1" stroke-miterlimit="10" d="M 485.752829 446.415731 C 485.752829 453.640559 479.900052 459.493336 472.675223 459.493336 C 465.454315 459.493336 459.597618 453.640559 459.597618 446.415731 C 459.597618 439.194823 465.454315 433.338125 472.675223 433.338125 C 479.900052 433.338125 485.752829 439.194823 485.752829 446.415731 Z M 485.752829 446.415731 " transform="matrix(0.996455, 0, 0, -0.996455, -292.95679, 497.161471)"/>
</g>
<path fill-rule="nonzero" fill="rgb(100%, 100%, 100%)" fill-opacity="1" stroke-width="0.3985" stroke-linecap="butt" stroke-linejoin="miter" stroke="rgb(100%, 100%, 100%)" stroke-opacity="1" stroke-miterlimit="10" d="M 380.767412 472.676785 C 380.767412 479.929055 374.887194 485.805353 367.638845 485.805353 C 360.386575 485.805353 354.506357 479.929055 354.506357 472.676785 C 354.506357 465.424516 360.386575 459.548218 367.638845 459.548218 C 374.887194 459.548218 380.767412 465.424516 380.767412 472.676785 Z M 380.767412 472.676785 " transform="matrix(0.996455, 0, 0, -0.996455, -292.95679, 497.161471)"/>
<path fill-rule="nonzero" fill="rgb(0%, 0%, 0%)" fill-opacity="1" stroke-width="1.1998" stroke-linecap="butt" stroke-linejoin="miter" stroke="rgb(100%, 100%, 100%)" stroke-opacity="1" stroke-miterlimit="10" d="M 380.71645 472.676785 C 380.71645 479.897694 374.859753 485.754391 367.638845 485.754391 C 360.414016 485.754391 354.561239 479.897694 354.561239 472.676785 C 354.561239 465.455877 360.414016 459.59918 367.638845 459.59918 C 374.859753 459.59918 380.71645 465.455877 380.71645 472.676785 Z M 380.71645 472.676785 " transform="matrix(0.996455, 0, 0, -0.996455, -292.95679, 497.161471)"/>
<path fill-rule="nonzero" fill="rgb(100%, 100%, 100%)" fill-opacity="1" stroke-width="0.3985" stroke-linecap="butt" stroke-linejoin="miter" stroke="rgb(100%, 100%, 100%)" stroke-opacity="1" stroke-miterlimit="10" d="M 380.767412 446.415731 C 380.767412 453.668 374.887194 459.548218 367.638845 459.548218 C 360.386575 459.548218 354.506357 453.668 354.506357 446.415731 C 354.506357 439.163461 360.386575 433.287163 367.638845 433.287163 C 374.887194 433.287163 380.767412 439.163461 380.767412 446.415731 Z M 380.767412 446.415731 " transform="matrix(0.996455, 0, 0, -0.996455, -292.95679, 497.161471)"/>
<path fill-rule="nonzero" fill="rgb(0%, 0%, 0%)" fill-opacity="1" stroke-width="1.1998" stroke-linecap="butt" stroke-linejoin="miter" stroke="rgb(100%, 100%, 100%)" stroke-opacity="1" stroke-miterlimit="10" d="M 380.71645 446.415731 C 380.71645 453.640559 374.859753 459.493336 367.638845 459.493336 C 360.414016 459.493336 354.561239 453.640559 354.561239 446.415731 C 354.561239 439.194823 360.414016 433.338125 367.638845 433.338125 C 374.859753 433.338125 380.71645 439.194823 380.71645 446.415731 Z M 380.71645 446.415731 " transform="matrix(0.996455, 0, 0, -0.996455, -292.95679, 497.161471)"/>
<path fill-rule="nonzero" fill="rgb(100%, 100%, 100%)" fill-opacity="1" stroke-width="0.3985" stroke-linecap="butt" stroke-linejoin="miter" stroke="rgb(100%, 100%, 100%)" stroke-opacity="1" stroke-miterlimit="10" d="M 380.767412 420.158596 C 380.767412 427.406945 374.887194 433.287163 367.638845 433.287163 C 360.386575 433.287163 354.506357 427.406945 354.506357 420.158596 C 354.506357 412.906327 360.386575 407.026109 367.638845 407.026109 C 374.887194 407.026109 380.767412 412.906327 380.767412 420.158596 Z M 380.767412 420.158596 " transform="matrix(0.996455, 0, 0, -0.996455, -292.95679, 497.161471)"/>
<path fill-rule="nonzero" fill="rgb(0%, 0%, 0%)" fill-opacity="1" stroke-width="1.1998" stroke-linecap="butt" stroke-linejoin="miter" stroke="rgb(100%, 100%, 100%)" stroke-opacity="1" stroke-miterlimit="10" d="M 380.71645 420.158596 C 380.71645 427.379504 374.859753 433.236201 367.638845 433.236201 C 360.414016 433.236201 354.561239 427.379504 354.561239 420.158596 C 354.561239 412.933768 360.414016 407.080991 367.638845 407.080991 C 374.859753 407.080991 380.71645 412.933768 380.71645 420.158596 Z M 380.71645 420.158596 " transform="matrix(0.996455, 0, 0, -0.996455, -292.95679, 497.161471)"/>
<path fill-rule="nonzero" fill="rgb(100%, 100%, 100%)" fill-opacity="1" stroke-width="0.3985" stroke-linecap="butt" stroke-linejoin="miter" stroke="rgb(100%, 100%, 100%)" stroke-opacity="1" stroke-miterlimit="10" d="M 407.028467 420.158596 C 407.028467 427.406945 401.148248 433.287163 393.895979 433.287163 C 386.64763 433.287163 380.767412 427.406945 380.767412 420.158596 C 380.767412 412.906327 386.64763 407.026109 393.895979 407.026109 C 401.148248 407.026109 407.028467 412.906327 407.028467 420.158596 Z M 407.028467 420.158596 " transform="matrix(0.996455, 0, 0, -0.996455, -292.95679, 497.161471)"/>
<path fill-rule="nonzero" fill="rgb(0%, 0%, 0%)" fill-opacity="1" stroke-width="1.1998" stroke-linecap="butt" stroke-linejoin="miter" stroke="rgb(100%, 100%, 100%)" stroke-opacity="1" stroke-miterlimit="10" d="M 406.973585 420.158596 C 406.973585 427.379504 401.120807 433.236201 393.895979 433.236201 C 386.675071 433.236201 380.818374 427.379504 380.818374 420.158596 C 380.818374 412.933768 386.675071 407.080991 393.895979 407.080991 C 401.120807 407.080991 406.973585 412.933768 406.973585 420.158596 Z M 406.973585 420.158596 " transform="matrix(0.996455, 0, 0, -0.996455, -292.95679, 497.161471)"/>
<path fill-rule="nonzero" fill="rgb(100%, 100%, 100%)" fill-opacity="1" stroke-width="0.3985" stroke-linecap="butt" stroke-linejoin="miter" stroke="rgb(100%, 100%, 100%)" stroke-opacity="1" stroke-miterlimit="10" d="M 407.028467 393.897541 C 407.028467 401.14981 401.148248 407.026109 393.895979 407.026109 C 386.64763 407.026109 380.767412 401.14981 380.767412 393.897541 C 380.767412 386.645272 386.64763 380.768974 393.895979 380.768974 C 401.148248 380.768974 407.028467 386.645272 407.028467 393.897541 Z M 407.028467 393.897541 " transform="matrix(0.996455, 0, 0, -0.996455, -292.95679, 497.161471)"/>
<path fill-rule="nonzero" fill="rgb(0%, 0%, 0%)" fill-opacity="1" stroke-width="1.1998" stroke-linecap="butt" stroke-linejoin="miter" stroke="rgb(100%, 100%, 100%)" stroke-opacity="1" stroke-miterlimit="10" d="M 406.973585 393.897541 C 406.973585 401.118449 401.120807 406.975147 393.895979 406.975147 C 386.675071 406.975147 380.818374 401.118449 380.818374 393.897541 C 380.818374 386.676633 386.675071 380.819936 393.895979 380.819936 C 401.120807 380.819936 406.973585 386.676633 406.973585 393.897541 Z M 406.973585 393.897541 " transform="matrix(0.996455, 0, 0, -0.996455, -292.95679, 497.161471)"/>
<path fill-rule="nonzero" fill="rgb(100%, 100%, 100%)" fill-opacity="1" stroke-width="0.3985" stroke-linecap="butt" stroke-linejoin="miter" stroke="rgb(100%, 100%, 100%)" stroke-opacity="1" stroke-miterlimit="10" d="M 407.028467 367.636486 C 407.028467 374.888756 401.148248 380.768974 393.895979 380.768974 C 386.64763 380.768974 380.767412 374.888756 380.767412 367.636486 C 380.767412 360.384217 386.64763 354.507919 393.895979 354.507919 C 401.148248 354.507919 407.028467 360.384217 407.028467 367.636486 Z M 407.028467 367.636486 " transform="matrix(0.996455, 0, 0, -0.996455, -292.95679, 497.161471)"/>
<path fill-rule="nonzero" fill="rgb(0%, 0%, 0%)" fill-opacity="1" stroke-width="1.1998" stroke-linecap="butt" stroke-linejoin="miter" stroke="rgb(100%, 100%, 100%)" stroke-opacity="1" stroke-miterlimit="10" d="M 406.973585 367.636486 C 406.973585 374.861315 401.120807 380.714092 393.895979 380.714092 C 386.675071 380.714092 380.818374 374.861315 380.818374 367.636486 C 380.818374 360.415578 386.675071 354.558881 393.895979 354.558881 C 401.120807 354.558881 406.973585 360.415578 406.973585 367.636486 Z M 406.973585 367.636486 " transform="matrix(0.996455, 0, 0, -0.996455, -292.95679, 497.161471)"/>
<path fill-rule="nonzero" fill="rgb(100%, 100%, 100%)" fill-opacity="1" stroke-width="0.3985" stroke-linecap="butt" stroke-linejoin="miter" stroke="rgb(100%, 100%, 100%)" stroke-opacity="1" stroke-miterlimit="10" d="M 433.285601 367.636486 C 433.285601 374.888756 427.409303 380.768974 420.157034 380.768974 C 412.904765 380.768974 407.028467 374.888756 407.028467 367.636486 C 407.028467 360.384217 412.904765 354.507919 420.157034 354.507919 C 427.409303 354.507919 433.285601 360.384217 433.285601 367.636486 Z M 433.285601 367.636486 " transform="matrix(0.996455, 0, 0, -0.996455, -292.95679, 497.161471)"/>
<path fill-rule="nonzero" fill="rgb(0%, 0%, 0%)" fill-opacity="1" stroke-width="1.1998" stroke-linecap="butt" stroke-linejoin="miter" stroke="rgb(100%, 100%, 100%)" stroke-opacity="1" stroke-miterlimit="10" d="M 433.234639 367.636486 C 433.234639 374.861315 427.377942 380.714092 420.157034 380.714092 C 412.936126 380.714092 407.079429 374.861315 407.079429 367.636486 C 407.079429 360.415578 412.936126 354.558881 420.157034 354.558881 C 427.377942 354.558881 433.234639 360.415578 433.234639 367.636486 Z M 433.234639 367.636486 " transform="matrix(0.996455, 0, 0, -0.996455, -292.95679, 497.161471)"/>
<path fill-rule="nonzero" fill="rgb(100%, 100%, 100%)" fill-opacity="1" stroke-width="0.3985" stroke-linecap="butt" stroke-linejoin="miter" stroke="rgb(100%, 100%, 100%)" stroke-opacity="1" stroke-miterlimit="10" d="M 459.546656 367.636486 C 459.546656 374.888756 453.666438 380.768974 446.418089 380.768974 C 439.16582 380.768974 433.285601 374.888756 433.285601 367.636486 C 433.285601 360.384217 439.16582 354.507919 446.418089 354.507919 C 453.666438 354.507919 459.546656 360.384217 459.546656 367.636486 Z M 459.546656 367.636486 " transform="matrix(0.996455, 0, 0, -0.996455, -292.95679, 497.161471)"/>
<path fill-rule="nonzero" fill="rgb(0%, 0%, 0%)" fill-opacity="1" stroke-width="1.1998" stroke-linecap="butt" stroke-linejoin="miter" stroke="rgb(100%, 100%, 100%)" stroke-opacity="1" stroke-miterlimit="10" d="M 459.495694 367.636486 C 459.495694 374.861315 453.638997 380.714092 446.418089 380.714092 C 439.193261 380.714092 433.340483 374.861315 433.340483 367.636486 C 433.340483 360.415578 439.193261 354.558881 446.418089 354.558881 C 453.638997 354.558881 459.495694 360.415578 459.495694 367.636486 Z M 459.495694 367.636486 " transform="matrix(0.996455, 0, 0, -0.996455, -292.95679, 497.161471)"/>
<path fill-rule="nonzero" fill="rgb(100%, 100%, 100%)" fill-opacity="1" stroke-width="0.3985" stroke-linecap="butt" stroke-linejoin="miter" stroke="rgb(100%, 100%, 100%)" stroke-opacity="1" stroke-miterlimit="10" d="M 459.546656 393.897541 C 459.546656 401.14981 453.666438 407.026109 446.418089 407.026109 C 439.16582 407.026109 433.285601 401.14981 433.285601 393.897541 C 433.285601 386.645272 439.16582 380.768974 446.418089 380.768974 C 453.666438 380.768974 459.546656 386.645272 459.546656 393.897541 Z M 459.546656 393.897541 " transform="matrix(0.996455, 0, 0, -0.996455, -292.95679, 497.161471)"/>
<path fill-rule="nonzero" fill="rgb(0%, 0%, 0%)" fill-opacity="1" stroke-width="1.1998" stroke-linecap="butt" stroke-linejoin="miter" stroke="rgb(100%, 100%, 100%)" stroke-opacity="1" stroke-miterlimit="10" d="M 459.495694 393.897541 C 459.495694 401.118449 453.638997 406.975147 446.418089 406.975147 C 439.193261 406.975147 433.340483 401.118449 433.340483 393.897541 C 433.340483 386.676633 439.193261 380.819936 446.418089 380.819936 C 453.638997 380.819936 459.495694 386.676633 459.495694 393.897541 Z M 459.495694 393.897541 " transform="matrix(0.996455, 0, 0, -0.996455, -292.95679, 497.161471)"/>
<path fill-rule="nonzero" fill="rgb(100%, 100%, 100%)" fill-opacity="1" stroke-width="0.3985" stroke-linecap="butt" stroke-linejoin="miter" stroke="rgb(100%, 100%, 100%)" stroke-opacity="1" stroke-miterlimit="10" d="M 485.807711 393.897541 C 485.807711 401.14981 479.927493 407.026109 472.675223 407.026109 C 465.426874 407.026109 459.546656 401.14981 459.546656 393.897541 C 459.546656 386.645272 465.426874 380.768974 472.675223 380.768974 C 479.927493 380.768974 485.807711 386.645272 485.807711 393.897541 Z M 485.807711 393.897541 " transform="matrix(0.996455, 0, 0, -0.996455, -292.95679, 497.161471)"/>
<path fill-rule="nonzero" fill="rgb(0%, 0%, 0%)" fill-opacity="1" d="M 191.074219 104.660156 C 191.074219 97.464844 185.242188 91.628906 178.042969 91.628906 C 170.847656 91.628906 165.011719 97.464844 165.011719 104.660156 C 165.011719 111.855469 170.847656 117.691406 178.042969 117.691406 C 185.242188 117.691406 191.074219 111.855469 191.074219 104.660156 Z M 191.074219 104.660156 "/>
<g clip-path="url(#clip-5)">
<path fill="none" stroke-width="1.1998" stroke-linecap="butt" stroke-linejoin="miter" stroke="rgb(100%, 100%, 100%)" stroke-opacity="1" stroke-miterlimit="10" d="M 485.752829 393.897541 C 485.752829 401.118449 479.900052 406.975147 472.675223 406.975147 C 465.454315 406.975147 459.597618 401.118449 459.597618 393.897541 C 459.597618 386.676633 465.454315 380.819936 472.675223 380.819936 C 479.900052 380.819936 485.752829 386.676633 485.752829 393.897541 Z M 485.752829 393.897541 " transform="matrix(0.996455, 0, 0, -0.996455, -292.95679, 497.161471)"/>
</g>
<path fill-rule="nonzero" fill="rgb(100%, 100%, 100%)" fill-opacity="1" stroke-width="0.3985" stroke-linecap="butt" stroke-linejoin="miter" stroke="rgb(100%, 100%, 100%)" stroke-opacity="1" stroke-miterlimit="10" d="M 459.546656 341.379352 C 459.546656 348.627701 453.666438 354.507919 446.418089 354.507919 C 439.16582 354.507919 433.285601 348.627701 433.285601 341.379352 C 433.285601 334.127083 439.16582 328.246864 446.418089 328.246864 C 453.666438 328.246864 459.546656 334.127083 459.546656 341.379352 Z M 459.546656 341.379352 " transform="matrix(0.996455, 0, 0, -0.996455, -292.95679, 497.161471)"/>
<path fill-rule="nonzero" fill="rgb(0%, 0%, 0%)" fill-opacity="1" stroke-width="1.1998" stroke-linecap="butt" stroke-linejoin="miter" stroke="rgb(100%, 100%, 100%)" stroke-opacity="1" stroke-miterlimit="10" d="M 459.495694 341.379352 C 459.495694 348.60026 453.638997 354.453037 446.418089 354.453037 C 439.193261 354.453037 433.340483 348.60026 433.340483 341.379352 C 433.340483 334.154524 439.193261 328.301746 446.418089 328.301746 C 453.638997 328.301746 459.495694 334.154524 459.495694 341.379352 Z M 459.495694 341.379352 " transform="matrix(0.996455, 0, 0, -0.996455, -292.95679, 497.161471)"/>
<path fill-rule="nonzero" fill="rgb(100%, 100%, 100%)" fill-opacity="1" stroke-width="0.3985" stroke-linecap="butt" stroke-linejoin="miter" stroke="rgb(100%, 100%, 100%)" stroke-opacity="1" stroke-miterlimit="10" d="M 485.807711 341.379352 C 485.807711 348.627701 479.927493 354.507919 472.675223 354.507919 C 465.426874 354.507919 459.546656 348.627701 459.546656 341.379352 C 459.546656 334.127083 465.426874 328.246864 472.675223 328.246864 C 479.927493 328.246864 485.807711 334.127083 485.807711 341.379352 Z M 485.807711 341.379352 " transform="matrix(0.996455, 0, 0, -0.996455, -292.95679, 497.161471)"/>
<path fill-rule="nonzero" fill="rgb(0%, 0%, 0%)" fill-opacity="1" d="M 191.074219 156.992188 C 191.074219 149.796875 185.242188 143.964844 178.042969 143.964844 C 170.847656 143.964844 165.011719 149.796875 165.011719 156.992188 C 165.011719 164.191406 170.847656 170.023438 178.042969 170.023438 C 185.242188 170.023438 191.074219 164.191406 191.074219 156.992188 Z M 191.074219 156.992188 "/>
<g clip-path="url(#clip-6)">
<path fill="none" stroke-width="1.1998" stroke-linecap="butt" stroke-linejoin="miter" stroke="rgb(100%, 100%, 100%)" stroke-opacity="1" stroke-miterlimit="10" d="M 485.752829 341.379352 C 485.752829 348.60026 479.900052 354.453037 472.675223 354.453037 C 465.454315 354.453037 459.597618 348.60026 459.597618 341.379352 C 459.597618 334.154524 465.454315 328.301746 472.675223 328.301746 C 479.900052 328.301746 485.752829 334.154524 485.752829 341.379352 Z M 485.752829 341.379352 " transform="matrix(0.996455, 0, 0, -0.996455, -292.95679, 497.161471)"/>
</g>
<path fill-rule="nonzero" fill="rgb(100%, 100%, 100%)" fill-opacity="1" stroke-width="0.3985" stroke-linecap="butt" stroke-linejoin="miter" stroke="rgb(100%, 100%, 100%)" stroke-opacity="1" stroke-miterlimit="10" d="M 433.285601 472.676785 C 433.285601 479.929055 427.409303 485.805353 420.157034 485.805353 C 412.904765 485.805353 407.028467 479.929055 407.028467 472.676785 C 407.028467 465.424516 412.904765 459.548218 420.157034 459.548218 C 427.409303 459.548218 433.285601 465.424516 433.285601 472.676785 Z M 433.285601 472.676785 " transform="matrix(0.996455, 0, 0, -0.996455, -292.95679, 497.161471)"/>
<path fill-rule="nonzero" fill="rgb(100%, 100%, 100%)" fill-opacity="1" stroke-width="1.1998" stroke-linecap="butt" stroke-linejoin="miter" stroke="rgb(0%, 0%, 0%)" stroke-opacity="1" stroke-miterlimit="10" d="M 432.136999 472.676785 C 432.136999 479.293991 426.77424 484.65675 420.157034 484.65675 C 413.539828 484.65675 408.177069 479.293991 408.177069 472.676785 C 408.177069 466.05958 413.539828 460.696821 420.157034 460.696821 C 426.77424 460.696821 432.136999 466.05958 432.136999 472.676785 Z M 432.136999 472.676785 " transform="matrix(0.996455, 0, 0, -0.996455, -292.95679, 497.161471)"/>
<path fill-rule="nonzero" fill="rgb(100%, 100%, 100%)" fill-opacity="1" stroke-width="0.3985" stroke-linecap="butt" stroke-linejoin="miter" stroke="rgb(100%, 100%, 100%)" stroke-opacity="1" stroke-miterlimit="10" d="M 433.285601 446.415731 C 433.285601 453.668 427.409303 459.548218 420.157034 459.548218 C 412.904765 459.548218 407.028467 453.668 407.028467 446.415731 C 407.028467 439.163461 412.904765 433.287163 420.157034 433.287163 C 427.409303 433.287163 433.285601 439.163461 433.285601 446.415731 Z M 433.285601 446.415731 " transform="matrix(0.996455, 0, 0, -0.996455, -292.95679, 497.161471)"/>
<path fill-rule="nonzero" fill="rgb(100%, 100%, 100%)" fill-opacity="1" stroke-width="1.1998" stroke-linecap="butt" stroke-linejoin="miter" stroke="rgb(0%, 0%, 0%)" stroke-opacity="1" stroke-miterlimit="10" d="M 432.136999 446.415731 C 432.136999 453.032936 426.77424 458.399616 420.157034 458.399616 C 413.539828 458.399616 408.177069 453.032936 408.177069 446.415731 C 408.177069 439.798525 413.539828 434.435766 420.157034 434.435766 C 426.77424 434.435766 432.136999 439.798525 432.136999 446.415731 Z M 432.136999 446.415731 " transform="matrix(0.996455, 0, 0, -0.996455, -292.95679, 497.161471)"/>
<path fill-rule="nonzero" fill="rgb(100%, 100%, 100%)" fill-opacity="1" stroke-width="0.3985" stroke-linecap="butt" stroke-linejoin="miter" stroke="rgb(100%, 100%, 100%)" stroke-opacity="1" stroke-miterlimit="10" d="M 433.285601 420.158596 C 433.285601 427.406945 427.409303 433.287163 420.157034 433.287163 C 412.904765 433.287163 407.028467 427.406945 407.028467 420.158596 C 407.028467 412.906327 412.904765 407.026109 420.157034 407.026109 C 427.409303 407.026109 433.285601 412.906327 433.285601 420.158596 Z M 433.285601 420.158596 " transform="matrix(0.996455, 0, 0, -0.996455, -292.95679, 497.161471)"/>
<path fill-rule="nonzero" fill="rgb(100%, 100%, 100%)" fill-opacity="1" stroke-width="1.1998" stroke-linecap="butt" stroke-linejoin="miter" stroke="rgb(0%, 0%, 0%)" stroke-opacity="1" stroke-miterlimit="10" d="M 432.136999 420.158596 C 432.136999 426.775802 426.77424 432.138561 420.157034 432.138561 C 413.539828 432.138561 408.177069 426.775802 408.177069 420.158596 C 408.177069 413.54139 413.539828 408.174711 420.157034 408.174711 C 426.77424 408.174711 432.136999 413.54139 432.136999 420.158596 Z M 432.136999 420.158596 " transform="matrix(0.996455, 0, 0, -0.996455, -292.95679, 497.161471)"/>
<path fill-rule="nonzero" fill="rgb(100%, 100%, 100%)" fill-opacity="1" stroke-width="0.3985" stroke-linecap="butt" stroke-linejoin="miter" stroke="rgb(100%, 100%, 100%)" stroke-opacity="1" stroke-miterlimit="10" d="M 459.546656 420.158596 C 459.546656 427.406945 453.666438 433.287163 446.418089 433.287163 C 439.16582 433.287163 433.285601 427.406945 433.285601 420.158596 C 433.285601 412.906327 439.16582 407.026109 446.418089 407.026109 C 453.666438 407.026109 459.546656 412.906327 459.546656 420.158596 Z M 459.546656 420.158596 " transform="matrix(0.996455, 0, 0, -0.996455, -292.95679, 497.161471)"/>
<path fill-rule="nonzero" fill="rgb(100%, 100%, 100%)" fill-opacity="1" stroke-width="1.1998" stroke-linecap="butt" stroke-linejoin="miter" stroke="rgb(0%, 0%, 0%)" stroke-opacity="1" stroke-miterlimit="10" d="M 458.398054 420.158596 C 458.398054 426.775802 453.035294 432.138561 446.418089 432.138561 C 439.800883 432.138561 434.434204 426.775802 434.434204 420.158596 C 434.434204 413.54139 439.800883 408.174711 446.418089 408.174711 C 453.035294 408.174711 458.398054 413.54139 458.398054 420.158596 Z M 458.398054 420.158596 " transform="matrix(0.996455, 0, 0, -0.996455, -292.95679, 497.161471)"/>
<path fill-rule="nonzero" fill="rgb(100%, 100%, 100%)" fill-opacity="1" stroke-width="0.3985" stroke-linecap="butt" stroke-linejoin="miter" stroke="rgb(100%, 100%, 100%)" stroke-opacity="1" stroke-miterlimit="10" d="M 485.807711 420.158596 C 485.807711 427.406945 479.927493 433.287163 472.675223 433.287163 C 465.426874 433.287163 459.546656 427.406945 459.546656 420.158596 C 459.546656 412.906327 465.426874 407.026109 472.675223 407.026109 C 479.927493 407.026109 485.807711 412.906327 485.807711 420.158596 Z M 485.807711 420.158596 " transform="matrix(0.996455, 0, 0, -0.996455, -292.95679, 497.161471)"/>
<path fill-rule="nonzero" fill="rgb(100%, 100%, 100%)" fill-opacity="1" d="M 189.984375 78.492188 C 189.984375 71.898438 184.636719 66.554688 178.042969 66.554688 C 171.449219 66.554688 166.105469 71.898438 166.105469 78.492188 C 166.105469 85.085938 171.449219 90.433594 178.042969 90.433594 C 184.636719 90.433594 189.984375 85.085938 189.984375 78.492188 Z M 189.984375 78.492188 "/>
<g clip-path="url(#clip-7)">
<path fill="none" stroke-width="1.1998" stroke-linecap="butt" stroke-linejoin="miter" stroke="rgb(0%, 0%, 0%)" stroke-opacity="1" stroke-miterlimit="10" d="M 484.659108 420.158596 C 484.659108 426.775802 479.292429 432.138561 472.675223 432.138561 C 466.058018 432.138561 460.695259 426.775802 460.695259 420.158596 C 460.695259 413.54139 466.058018 408.174711 472.675223 408.174711 C 479.292429 408.174711 484.659108 413.54139 484.659108 420.158596 Z M 484.659108 420.158596 " transform="matrix(0.996455, 0, 0, -0.996455, -292.95679, 497.161471)"/>
</g>
<path fill-rule="nonzero" fill="rgb(100%, 100%, 100%)" fill-opacity="1" stroke-width="0.3985" stroke-linecap="butt" stroke-linejoin="miter" stroke="rgb(100%, 100%, 100%)" stroke-opacity="1" stroke-miterlimit="10" d="M 354.506357 472.676785 C 354.506357 479.929055 348.630059 485.805353 341.37779 485.805353 C 334.125521 485.805353 328.249222 479.929055 328.249222 472.676785 C 328.249222 465.424516 334.125521 459.548218 341.37779 459.548218 C 348.630059 459.548218 354.506357 465.424516 354.506357 472.676785 Z M 354.506357 472.676785 " transform="matrix(0.996455, 0, 0, -0.996455, -292.95679, 497.161471)"/>
<path fill-rule="nonzero" fill="rgb(100%, 100%, 100%)" fill-opacity="1" stroke-width="1.1998" stroke-linecap="butt" stroke-linejoin="miter" stroke="rgb(0%, 0%, 0%)" stroke-opacity="1" stroke-miterlimit="10" d="M 353.357754 472.676785 C 353.357754 479.293991 347.994995 484.65675 341.37779 484.65675 C 334.760584 484.65675 329.397825 479.293991 329.397825 472.676785 C 329.397825 466.05958 334.760584 460.696821 341.37779 460.696821 C 347.994995 460.696821 353.357754 466.05958 353.357754 472.676785 Z M 353.357754 472.676785 " transform="matrix(0.996455, 0, 0, -0.996455, -292.95679, 497.161471)"/>
<path fill-rule="nonzero" fill="rgb(100%, 100%, 100%)" fill-opacity="1" stroke-width="0.3985" stroke-linecap="butt" stroke-linejoin="miter" stroke="rgb(100%, 100%, 100%)" stroke-opacity="1" stroke-miterlimit="10" d="M 354.506357 446.415731 C 354.506357 453.668 348.630059 459.548218 341.37779 459.548218 C 334.125521 459.548218 328.249222 453.668 328.249222 446.415731 C 328.249222 439.163461 334.125521 433.287163 341.37779 433.287163 C 348.630059 433.287163 354.506357 439.163461 354.506357 446.415731 Z M 354.506357 446.415731 " transform="matrix(0.996455, 0, 0, -0.996455, -292.95679, 497.161471)"/>
<path fill-rule="nonzero" fill="rgb(100%, 100%, 100%)" fill-opacity="1" stroke-width="1.1998" stroke-linecap="butt" stroke-linejoin="miter" stroke="rgb(0%, 0%, 0%)" stroke-opacity="1" stroke-miterlimit="10" d="M 353.357754 446.415731 C 353.357754 453.032936 347.994995 458.399616 341.37779 458.399616 C 334.760584 458.399616 329.397825 453.032936 329.397825 446.415731 C 329.397825 439.798525 334.760584 434.435766 341.37779 434.435766 C 347.994995 434.435766 353.357754 439.798525 353.357754 446.415731 Z M 353.357754 446.415731 " transform="matrix(0.996455, 0, 0, -0.996455, -292.95679, 497.161471)"/>
<path fill-rule="nonzero" fill="rgb(100%, 100%, 100%)" fill-opacity="1" stroke-width="0.3985" stroke-linecap="butt" stroke-linejoin="miter" stroke="rgb(100%, 100%, 100%)" stroke-opacity="1" stroke-miterlimit="10" d="M 354.506357 420.158596 C 354.506357 427.406945 348.630059 433.287163 341.37779 433.287163 C 334.125521 433.287163 328.249222 427.406945 328.249222 420.158596 C 328.249222 412.906327 334.125521 407.026109 341.37779 407.026109 C 348.630059 407.026109 354.506357 412.906327 354.506357 420.158596 Z M 354.506357 420.158596 " transform="matrix(0.996455, 0, 0, -0.996455, -292.95679, 497.161471)"/>
<path fill-rule="nonzero" fill="rgb(100%, 100%, 100%)" fill-opacity="1" stroke-width="1.1998" stroke-linecap="butt" stroke-linejoin="miter" stroke="rgb(0%, 0%, 0%)" stroke-opacity="1" stroke-miterlimit="10" d="M 353.357754 420.158596 C 353.357754 426.775802 347.994995 432.138561 341.37779 432.138561 C 334.760584 432.138561 329.397825 426.775802 329.397825 420.158596 C 329.397825 413.54139 334.760584 408.174711 341.37779 408.174711 C 347.994995 408.174711 353.357754 413.54139 353.357754 420.158596 Z M 353.357754 420.158596 " transform="matrix(0.996455, 0, 0, -0.996455, -292.95679, 497.161471)"/>
<path fill-rule="nonzero" fill="rgb(100%, 100%, 100%)" fill-opacity="1" stroke-width="0.3985" stroke-linecap="butt" stroke-linejoin="miter" stroke="rgb(100%, 100%, 100%)" stroke-opacity="1" stroke-miterlimit="10" d="M 354.506357 393.897541 C 354.506357 401.14981 348.630059 407.026109 341.37779 407.026109 C 334.125521 407.026109 328.249222 401.14981 328.249222 393.897541 C 328.249222 386.645272 334.125521 380.768974 341.37779 380.768974 C 348.630059 380.768974 354.506357 386.645272 354.506357 393.897541 Z M 354.506357 393.897541 " transform="matrix(0.996455, 0, 0, -0.996455, -292.95679, 497.161471)"/>
<path fill-rule="nonzero" fill="rgb(100%, 100%, 100%)" fill-opacity="1" stroke-width="1.1998" stroke-linecap="butt" stroke-linejoin="miter" stroke="rgb(0%, 0%, 0%)" stroke-opacity="1" stroke-miterlimit="10" d="M 353.357754 393.897541 C 353.357754 400.514747 347.994995 405.877506 341.37779 405.877506 C 334.760584 405.877506 329.397825 400.514747 329.397825 393.897541 C 329.397825 387.280336 334.760584 381.917576 341.37779 381.917576 C 347.994995 381.917576 353.357754 387.280336 353.357754 393.897541 Z M 353.357754 393.897541 " transform="matrix(0.996455, 0, 0, -0.996455, -292.95679, 497.161471)"/>
<path fill-rule="nonzero" fill="rgb(100%, 100%, 100%)" fill-opacity="1" stroke-width="0.3985" stroke-linecap="butt" stroke-linejoin="miter" stroke="rgb(100%, 100%, 100%)" stroke-opacity="1" stroke-miterlimit="10" d="M 380.767412 393.897541 C 380.767412 401.14981 374.887194 407.026109 367.638845 407.026109 C 360.386575 407.026109 354.506357 401.14981 354.506357 393.897541 C 354.506357 386.645272 360.386575 380.768974 367.638845 380.768974 C 374.887194 380.768974 380.767412 386.645272 380.767412 393.897541 Z M 380.767412 393.897541 " transform="matrix(0.996455, 0, 0, -0.996455, -292.95679, 497.161471)"/>
<path fill-rule="nonzero" fill="rgb(100%, 100%, 100%)" fill-opacity="1" stroke-width="1.1998" stroke-linecap="butt" stroke-linejoin="miter" stroke="rgb(0%, 0%, 0%)" stroke-opacity="1" stroke-miterlimit="10" d="M 379.618809 393.897541 C 379.618809 400.514747 374.25605 405.877506 367.638845 405.877506 C 361.021639 405.877506 355.65496 400.514747 355.65496 393.897541 C 355.65496 387.280336 361.021639 381.917576 367.638845 381.917576 C 374.25605 381.917576 379.618809 387.280336 379.618809 393.897541 Z M 379.618809 393.897541 " transform="matrix(0.996455, 0, 0, -0.996455, -292.95679, 497.161471)"/>
<path fill-rule="nonzero" fill="rgb(100%, 100%, 100%)" fill-opacity="1" stroke-width="0.3985" stroke-linecap="butt" stroke-linejoin="miter" stroke="rgb(100%, 100%, 100%)" stroke-opacity="1" stroke-miterlimit="10" d="M 380.767412 367.636486 C 380.767412 374.888756 374.887194 380.768974 367.638845 380.768974 C 360.386575 380.768974 354.506357 374.888756 354.506357 367.636486 C 354.506357 360.384217 360.386575 354.507919 367.638845 354.507919 C 374.887194 354.507919 380.767412 360.384217 380.767412 367.636486 Z M 380.767412 367.636486 " transform="matrix(0.996455, 0, 0, -0.996455, -292.95679, 497.161471)"/>
<path fill-rule="nonzero" fill="rgb(100%, 100%, 100%)" fill-opacity="1" stroke-width="1.1998" stroke-linecap="butt" stroke-linejoin="miter" stroke="rgb(0%, 0%, 0%)" stroke-opacity="1" stroke-miterlimit="10" d="M 379.618809 367.636486 C 379.618809 374.253692 374.25605 379.616451 367.638845 379.616451 C 361.021639 379.616451 355.65496 374.253692 355.65496 367.636486 C 355.65496 361.019281 361.021639 355.656522 367.638845 355.656522 C 374.25605 355.656522 379.618809 361.019281 379.618809 367.636486 Z M 379.618809 367.636486 " transform="matrix(0.996455, 0, 0, -0.996455, -292.95679, 497.161471)"/>
<path fill-rule="nonzero" fill="rgb(100%, 100%, 100%)" fill-opacity="1" stroke-width="0.3985" stroke-linecap="butt" stroke-linejoin="miter" stroke="rgb(100%, 100%, 100%)" stroke-opacity="1" stroke-miterlimit="10" d="M 380.767412 341.379352 C 380.767412 348.627701 374.887194 354.507919 367.638845 354.507919 C 360.386575 354.507919 354.506357 348.627701 354.506357 341.379352 C 354.506357 334.127083 360.386575 328.246864 367.638845 328.246864 C 374.887194 328.246864 380.767412 334.127083 380.767412 341.379352 Z M 380.767412 341.379352 " transform="matrix(0.996455, 0, 0, -0.996455, -292.95679, 497.161471)"/>
<path fill-rule="nonzero" fill="rgb(100%, 100%, 100%)" fill-opacity="1" stroke-width="1.1998" stroke-linecap="butt" stroke-linejoin="miter" stroke="rgb(0%, 0%, 0%)" stroke-opacity="1" stroke-miterlimit="10" d="M 379.618809 341.379352 C 379.618809 347.992637 374.25605 353.359316 367.638845 353.359316 C 361.021639 353.359316 355.65496 347.992637 355.65496 341.379352 C 355.65496 334.762146 361.021639 329.395467 367.638845 329.395467 C 374.25605 329.395467 379.618809 334.762146 379.618809 341.379352 Z M 379.618809 341.379352 " transform="matrix(0.996455, 0, 0, -0.996455, -292.95679, 497.161471)"/>
<path fill-rule="nonzero" fill="rgb(100%, 100%, 100%)" fill-opacity="1" stroke-width="0.3985" stroke-linecap="butt" stroke-linejoin="miter" stroke="rgb(100%, 100%, 100%)" stroke-opacity="1" stroke-miterlimit="10" d="M 433.285601 341.379352 C 433.285601 348.627701 427.409303 354.507919 420.157034 354.507919 C 412.904765 354.507919 407.028467 348.627701 407.028467 341.379352 C 407.028467 334.127083 412.904765 328.246864 420.157034 328.246864 C 427.409303 328.246864 433.285601 334.127083 433.285601 341.379352 Z M 433.285601 341.379352 " transform="matrix(0.996455, 0, 0, -0.996455, -292.95679, 497.161471)"/>
<path fill-rule="nonzero" fill="rgb(100%, 100%, 100%)" fill-opacity="1" stroke-width="1.1998" stroke-linecap="butt" stroke-linejoin="miter" stroke="rgb(0%, 0%, 0%)" stroke-opacity="1" stroke-miterlimit="10" d="M 432.136999 341.379352 C 432.136999 347.992637 426.77424 353.359316 420.157034 353.359316 C 413.539828 353.359316 408.177069 347.992637 408.177069 341.379352 C 408.177069 334.762146 413.539828 329.395467 420.157034 329.395467 C 426.77424 329.395467 432.136999 334.762146 432.136999 341.379352 Z M 432.136999 341.379352 " transform="matrix(0.996455, 0, 0, -0.996455, -292.95679, 497.161471)"/>
<path fill-rule="nonzero" fill="rgb(100%, 100%, 100%)" fill-opacity="1" stroke-width="0.3985" stroke-linecap="butt" stroke-linejoin="miter" stroke="rgb(100%, 100%, 100%)" stroke-opacity="1" stroke-miterlimit="10" d="M 407.028467 341.379352 C 407.028467 348.627701 401.148248 354.507919 393.895979 354.507919 C 386.64763 354.507919 380.767412 348.627701 380.767412 341.379352 C 380.767412 334.127083 386.64763 328.246864 393.895979 328.246864 C 401.148248 328.246864 407.028467 334.127083 407.028467 341.379352 Z M 407.028467 341.379352 " transform="matrix(0.996455, 0, 0, -0.996455, -292.95679, 497.161471)"/>
<path fill-rule="nonzero" fill="rgb(100%, 100%, 100%)" fill-opacity="1" stroke-width="1.1998" stroke-linecap="butt" stroke-linejoin="miter" stroke="rgb(0%, 0%, 0%)" stroke-opacity="1" stroke-miterlimit="10" d="M 405.879864 341.379352 C 405.879864 347.992637 400.513185 353.359316 393.895979 353.359316 C 387.278774 353.359316 381.916015 347.992637 381.916015 341.379352 C 381.916015 334.762146 387.278774 329.395467 393.895979 329.395467 C 400.513185 329.395467 405.879864 334.762146 405.879864 341.379352 Z M 405.879864 341.379352 " transform="matrix(0.996455, 0, 0, -0.996455, -292.95679, 497.161471)"/>
<path fill-rule="nonzero" fill="rgb(100%, 100%, 100%)" fill-opacity="1" stroke-width="0.3985" stroke-linecap="butt" stroke-linejoin="miter" stroke="rgb(100%, 100%, 100%)" stroke-opacity="1" stroke-miterlimit="10" d="M 459.546656 315.118297 C 459.546656 322.370566 453.666438 328.246864 446.418089 328.246864 C 439.16582 328.246864 433.285601 322.370566 433.285601 315.118297 C 433.285601 307.866028 439.16582 301.98973 446.418089 301.98973 C 453.666438 301.98973 459.546656 307.866028 459.546656 315.118297 Z M 459.546656 315.118297 " transform="matrix(0.996455, 0, 0, -0.996455, -292.95679, 497.161471)"/>
<path fill-rule="nonzero" fill="rgb(100%, 100%, 100%)" fill-opacity="1" stroke-width="1.1998" stroke-linecap="butt" stroke-linejoin="miter" stroke="rgb(0%, 0%, 0%)" stroke-opacity="1" stroke-miterlimit="10" d="M 458.398054 315.118297 C 458.398054 321.735503 453.035294 327.098262 446.418089 327.098262 C 439.800883 327.098262 434.434204 321.735503 434.434204 315.118297 C 434.434204 308.501091 439.800883 303.138332 446.418089 303.138332 C 453.035294 303.138332 458.398054 308.501091 458.398054 315.118297 Z M 458.398054 315.118297 " transform="matrix(0.996455, 0, 0, -0.996455, -292.95679, 497.161471)"/>
<path fill-rule="nonzero" fill="rgb(100%, 100%, 100%)" fill-opacity="1" stroke-width="0.3985" stroke-linecap="butt" stroke-linejoin="miter" stroke="rgb(100%, 100%, 100%)" stroke-opacity="1" stroke-miterlimit="10" d="M 485.807711 315.118297 C 485.807711 322.370566 479.927493 328.246864 472.675223 328.246864 C 465.426874 328.246864 459.546656 322.370566 459.546656 315.118297 C 459.546656 307.866028 465.426874 301.98973 472.675223 301.98973 C 479.927493 301.98973 485.807711 307.866028 485.807711 315.118297 Z M 485.807711 315.118297 " transform="matrix(0.996455, 0, 0, -0.996455, -292.95679, 497.161471)"/>
<path fill-rule="nonzero" fill="rgb(100%, 100%, 100%)" fill-opacity="1" d="M 189.984375 183.160156 C 189.984375 176.566406 184.636719 171.222656 178.042969 171.222656 C 171.449219 171.222656 166.105469 176.566406 166.105469 183.160156 C 166.105469 189.753906 171.449219 195.097656 178.042969 195.097656 C 184.636719 195.097656 189.984375 189.753906 189.984375 183.160156 Z M 189.984375 183.160156 "/>
<g clip-path="url(#clip-8)">
<path fill="none" stroke-width="1.1998" stroke-linecap="butt" stroke-linejoin="miter" stroke="rgb(0%, 0%, 0%)" stroke-opacity="1" stroke-miterlimit="10" d="M 484.659108 315.118297 C 484.659108 321.735503 479.292429 327.098262 472.675223 327.098262 C 466.058018 327.098262 460.695259 321.735503 460.695259 315.118297 C 460.695259 308.501091 466.058018 303.138332 472.675223 303.138332 C 479.292429 303.138332 484.659108 308.501091 484.659108 315.118297 Z M 484.659108 315.118297 " transform="matrix(0.996455, 0, 0, -0.996455, -292.95679, 497.161471)"/>
</g>
<path fill-rule="nonzero" fill="rgb(100%, 100%, 100%)" fill-opacity="1" stroke-width="0.3985" stroke-linecap="butt" stroke-linejoin="miter" stroke="rgb(100%, 100%, 100%)" stroke-opacity="1" stroke-miterlimit="10" d="M 433.285601 315.118297 C 433.285601 322.370566 427.409303 328.246864 420.157034 328.246864 C 412.904765 328.246864 407.028467 322.370566 407.028467 315.118297 C 407.028467 307.866028 412.904765 301.98973 420.157034 301.98973 C 427.409303 301.98973 433.285601 307.866028 433.285601 315.118297 Z M 433.285601 315.118297 " transform="matrix(0.996455, 0, 0, -0.996455, -292.95679, 497.161471)"/>
<path fill-rule="nonzero" fill="rgb(100%, 100%, 100%)" fill-opacity="1" stroke-width="1.1998" stroke-linecap="butt" stroke-linejoin="miter" stroke="rgb(0%, 0%, 0%)" stroke-opacity="1" stroke-miterlimit="10" d="M 432.136999 315.118297 C 432.136999 321.735503 426.77424 327.098262 420.157034 327.098262 C 413.539828 327.098262 408.177069 321.735503 408.177069 315.118297 C 408.177069 308.501091 413.539828 303.138332 420.157034 303.138332 C 426.77424 303.138332 432.136999 308.501091 432.136999 315.118297 Z M 432.136999 315.118297 " transform="matrix(0.996455, 0, 0, -0.996455, -292.95679, 497.161471)"/>
</svg>
