<?xml version="1.0" encoding="UTF-8" standalone="no"?>
<!-- Created with Inkscape (http://www.inkscape.org/) -->

<svg
   version="1.1"
   id="svg1"
   width="632.32294"
   height="648.78979"
   viewBox="0 0 632.32293 648.78978"
   sodipodi:docname="neofanaro.io.pdf"
   xmlns:inkscape="http://www.inkscape.org/namespaces/inkscape"
   xmlns:sodipodi="http://sodipodi.sourceforge.net/DTD/sodipodi-0.dtd"
   xmlns="http://www.w3.org/2000/svg"
   xmlns:svg="http://www.w3.org/2000/svg">
  <defs
     id="defs1">
    <clipPath
       clipPathUnits="userSpaceOnUse"
       id="clipPath3">
      <path
         d="M -13.12968,-13.12968 V 498.93645 H 498.93645 V -13.12968 Z"
         id="path3" />
    </clipPath>
    <clipPath
       clipPathUnits="userSpaceOnUse"
       id="clipPath5">
      <path
         d="M -13.12968,-13.12968 V 498.93645 H 498.93645 V -13.12968 Z"
         id="path5" />
    </clipPath>
    <clipPath
       clipPathUnits="userSpaceOnUse"
       id="clipPath7">
      <path
         d="M -13.12968,-13.12968 V 498.93645 H 498.93645 V -13.12968 Z"
         id="path7" />
    </clipPath>
    <clipPath
       clipPathUnits="userSpaceOnUse"
       id="clipPath9">
      <path
         d="M -13.12968,-13.12968 V 498.93645 H 498.93645 V -13.12968 Z"
         id="path9" />
    </clipPath>
    <clipPath
       clipPathUnits="userSpaceOnUse"
       id="clipPath11">
      <path
         d="M -13.12968,-13.12968 V 498.93645 H 498.93645 V -13.12968 Z"
         id="path11" />
    </clipPath>
    <clipPath
       clipPathUnits="userSpaceOnUse"
       id="clipPath13">
      <path
         d="M -13.12968,-13.12968 V 498.93645 H 498.93645 V -13.12968 Z"
         id="path13" />
    </clipPath>
    <clipPath
       clipPathUnits="userSpaceOnUse"
       id="clipPath15">
      <path
         d="M -13.12968,-13.12968 V 498.93645 H 498.93645 V -13.12968 Z"
         id="path15" />
    </clipPath>
    <clipPath
       clipPathUnits="userSpaceOnUse"
       id="clipPath17">
      <path
         d="M -13.12968,-13.12968 V 498.93645 H 498.93645 V -13.12968 Z"
         id="path17" />
    </clipPath>
    <clipPath
       clipPathUnits="userSpaceOnUse"
       id="clipPath19">
      <path
         d="M -13.12968,-13.12968 V 498.93645 H 498.93645 V -13.12968 Z"
         id="path19" />
    </clipPath>
    <clipPath
       clipPathUnits="userSpaceOnUse"
       id="clipPath21">
      <path
         d="M -13.12968,-13.12968 V 498.93645 H 498.93645 V -13.12968 Z"
         id="path21" />
    </clipPath>
    <clipPath
       clipPathUnits="userSpaceOnUse"
       id="clipPath23">
      <path
         d="M -13.12968,-13.12968 V 498.93645 H 498.93645 V -13.12968 Z"
         id="path23" />
    </clipPath>
    <clipPath
       clipPathUnits="userSpaceOnUse"
       id="clipPath25">
      <path
         d="M -13.12968,-13.12968 V 498.93645 H 498.93645 V -13.12968 Z"
         id="path25" />
    </clipPath>
    <clipPath
       clipPathUnits="userSpaceOnUse"
       id="clipPath27">
      <path
         d="M -13.12968,-13.12968 V 498.93645 H 498.93645 V -13.12968 Z"
         id="path27" />
    </clipPath>
    <clipPath
       clipPathUnits="userSpaceOnUse"
       id="clipPath29">
      <path
         d="M -13.12968,-13.12968 V 498.93645 H 498.93645 V -13.12968 Z"
         id="path29" />
    </clipPath>
    <clipPath
       clipPathUnits="userSpaceOnUse"
       id="clipPath31">
      <path
         d="M -13.12968,-13.12968 V 498.93645 H 498.93645 V -13.12968 Z"
         id="path31" />
    </clipPath>
    <clipPath
       clipPathUnits="userSpaceOnUse"
       id="clipPath33">
      <path
         d="M -13.12968,-13.12968 V 498.93645 H 498.93645 V -13.12968 Z"
         id="path33" />
    </clipPath>
    <clipPath
       clipPathUnits="userSpaceOnUse"
       id="clipPath35">
      <path
         d="M -13.12968,-13.12968 V 498.93645 H 498.93645 V -13.12968 Z"
         id="path35" />
    </clipPath>
    <clipPath
       clipPathUnits="userSpaceOnUse"
       id="clipPath37">
      <path
         d="M -13.12968,-13.12968 V 498.93645 H 498.93645 V -13.12968 Z"
         id="path37" />
    </clipPath>
    <clipPath
       clipPathUnits="userSpaceOnUse"
       id="clipPath39">
      <path
         d="M -13.12968,-13.12968 V 498.93645 H 498.93645 V -13.12968 Z"
         id="path39" />
    </clipPath>
    <clipPath
       clipPathUnits="userSpaceOnUse"
       id="clipPath41">
      <path
         d="M -13.12968,-13.12968 V 498.93645 H 498.93645 V -13.12968 Z"
         id="path41" />
    </clipPath>
    <clipPath
       clipPathUnits="userSpaceOnUse"
       id="clipPath43">
      <path
         d="M -13.12968,-13.12968 V 498.93645 H 498.93645 V -13.12968 Z"
         id="path43" />
    </clipPath>
    <clipPath
       clipPathUnits="userSpaceOnUse"
       id="clipPath45">
      <path
         d="M -13.12968,-13.12968 V 498.93645 H 498.93645 V -13.12968 Z"
         id="path45" />
    </clipPath>
    <clipPath
       clipPathUnits="userSpaceOnUse"
       id="clipPath47">
      <path
         d="M -13.12968,-13.12968 V 498.93645 H 498.93645 V -13.12968 Z"
         id="path47" />
    </clipPath>
    <clipPath
       clipPathUnits="userSpaceOnUse"
       id="clipPath49">
      <path
         d="M -13.12968,-13.12968 V 498.93645 H 498.93645 V -13.12968 Z"
         id="path49" />
    </clipPath>
    <clipPath
       clipPathUnits="userSpaceOnUse"
       id="clipPath51">
      <path
         d="M -13.12968,-13.12968 V 498.93645 H 498.93645 V -13.12968 Z"
         id="path51" />
    </clipPath>
    <clipPath
       clipPathUnits="userSpaceOnUse"
       id="clipPath53">
      <path
         d="M -13.12968,-13.12968 V 498.93645 H 498.93645 V -13.12968 Z"
         id="path53" />
    </clipPath>
    <clipPath
       clipPathUnits="userSpaceOnUse"
       id="clipPath55">
      <path
         d="M -13.12968,-13.12968 V 498.93645 H 498.93645 V -13.12968 Z"
         id="path55" />
    </clipPath>
    <clipPath
       clipPathUnits="userSpaceOnUse"
       id="clipPath57">
      <path
         d="M -13.12968,-13.12968 V 498.93645 H 498.93645 V -13.12968 Z"
         id="path57" />
    </clipPath>
    <clipPath
       clipPathUnits="userSpaceOnUse"
       id="clipPath59">
      <path
         d="M -13.12968,-13.12968 V 498.93645 H 498.93645 V -13.12968 Z"
         id="path59" />
    </clipPath>
    <clipPath
       clipPathUnits="userSpaceOnUse"
       id="clipPath61">
      <path
         d="M -13.12968,-13.12968 V 498.93645 H 498.93645 V -13.12968 Z"
         id="path61" />
    </clipPath>
    <clipPath
       clipPathUnits="userSpaceOnUse"
       id="clipPath63">
      <path
         d="M -13.12968,-13.12968 V 498.93645 H 498.93645 V -13.12968 Z"
         id="path63" />
    </clipPath>
    <clipPath
       clipPathUnits="userSpaceOnUse"
       id="clipPath65">
      <path
         d="M -13.12968,-13.12968 V 498.93645 H 498.93645 V -13.12968 Z"
         id="path65" />
    </clipPath>
    <clipPath
       clipPathUnits="userSpaceOnUse"
       id="clipPath67">
      <path
         d="M -13.12968,-13.12968 V 498.93645 H 498.93645 V -13.12968 Z"
         id="path67" />
    </clipPath>
    <clipPath
       clipPathUnits="userSpaceOnUse"
       id="clipPath69">
      <path
         d="M -13.12968,-13.12968 V 498.93645 H 498.93645 V -13.12968 Z"
         id="path69" />
    </clipPath>
    <clipPath
       clipPathUnits="userSpaceOnUse"
       id="clipPath71">
      <path
         d="M -13.12968,-13.12968 V 498.93645 H 498.93645 V -13.12968 Z"
         id="path71" />
    </clipPath>
    <clipPath
       clipPathUnits="userSpaceOnUse"
       id="clipPath73">
      <path
         d="M -13.12968,-13.12968 V 498.93645 H 498.93645 V -13.12968 Z"
         id="path73" />
    </clipPath>
    <clipPath
       clipPathUnits="userSpaceOnUse"
       id="clipPath75">
      <path
         d="M -13.12968,-13.12968 V 498.93645 H 498.93645 V -13.12968 Z"
         id="path75" />
    </clipPath>
    <clipPath
       clipPathUnits="userSpaceOnUse"
       id="clipPath77">
      <path
         d="M -13.12968,-13.12968 V 498.93645 H 498.93645 V -13.12968 Z"
         id="path77" />
    </clipPath>
    <clipPath
       clipPathUnits="userSpaceOnUse"
       id="clipPath79">
      <path
         d="M -13.12968,-13.12968 V 498.93645 H 498.93645 V -13.12968 Z"
         id="path79" />
    </clipPath>
    <clipPath
       clipPathUnits="userSpaceOnUse"
       id="clipPath81">
      <path
         d="M -13.12968,-13.12968 V 498.93645 H 498.93645 V -13.12968 Z"
         id="path81" />
    </clipPath>
    <clipPath
       clipPathUnits="userSpaceOnUse"
       id="clipPath83">
      <path
         d="M -13.12968,-13.12968 V 498.93645 H 498.93645 V -13.12968 Z"
         id="path83" />
    </clipPath>
    <clipPath
       clipPathUnits="userSpaceOnUse"
       id="clipPath85">
      <path
         d="M -13.12968,-13.12968 V 498.93645 H 498.93645 V -13.12968 Z"
         id="path85" />
    </clipPath>
    <clipPath
       clipPathUnits="userSpaceOnUse"
       id="clipPath87">
      <path
         d="M -13.12968,-13.12968 V 498.93645 H 498.93645 V -13.12968 Z"
         id="path87" />
    </clipPath>
    <clipPath
       clipPathUnits="userSpaceOnUse"
       id="clipPath89">
      <path
         d="M -13.12968,-13.12968 V 498.93645 H 498.93645 V -13.12968 Z"
         id="path89" />
    </clipPath>
    <clipPath
       clipPathUnits="userSpaceOnUse"
       id="clipPath91">
      <path
         d="M -13.12968,-13.12968 V 498.93645 H 498.93645 V -13.12968 Z"
         id="path91" />
    </clipPath>
    <clipPath
       clipPathUnits="userSpaceOnUse"
       id="clipPath93">
      <path
         d="M -13.12968,-13.12968 V 498.93645 H 498.93645 V -13.12968 Z"
         id="path93" />
    </clipPath>
    <clipPath
       clipPathUnits="userSpaceOnUse"
       id="clipPath95">
      <path
         d="M -13.12968,-13.12968 V 498.93645 H 498.93645 V -13.12968 Z"
         id="path95" />
    </clipPath>
    <clipPath
       clipPathUnits="userSpaceOnUse"
       id="clipPath97">
      <path
         d="M -13.12968,-13.12968 V 498.93645 H 498.93645 V -13.12968 Z"
         id="path97" />
    </clipPath>
    <clipPath
       clipPathUnits="userSpaceOnUse"
       id="clipPath99">
      <path
         d="M -13.12968,-13.12968 V 498.93645 H 498.93645 V -13.12968 Z"
         id="path99" />
    </clipPath>
    <clipPath
       clipPathUnits="userSpaceOnUse"
       id="clipPath101">
      <path
         d="M -13.12968,-13.12968 V 498.93645 H 498.93645 V -13.12968 Z"
         id="path101" />
    </clipPath>
    <clipPath
       clipPathUnits="userSpaceOnUse"
       id="clipPath103">
      <path
         d="M -13.12968,-13.12968 V 498.93645 H 498.93645 V -13.12968 Z"
         id="path103" />
    </clipPath>
    <clipPath
       clipPathUnits="userSpaceOnUse"
       id="clipPath105">
      <path
         d="M -13.12968,-13.12968 V 498.93645 H 498.93645 V -13.12968 Z"
         id="path105" />
    </clipPath>
    <clipPath
       clipPathUnits="userSpaceOnUse"
       id="clipPath107">
      <path
         d="M -13.12968,-13.12968 V 498.93645 H 498.93645 V -13.12968 Z"
         id="path107" />
    </clipPath>
    <clipPath
       clipPathUnits="userSpaceOnUse"
       id="clipPath109">
      <path
         d="M -13.12968,-13.12968 V 498.93645 H 498.93645 V -13.12968 Z"
         id="path109" />
    </clipPath>
    <clipPath
       clipPathUnits="userSpaceOnUse"
       id="clipPath111">
      <path
         d="M -13.12968,-13.12968 V 498.93645 H 498.93645 V -13.12968 Z"
         id="path111" />
    </clipPath>
    <clipPath
       clipPathUnits="userSpaceOnUse"
       id="clipPath113">
      <path
         d="M -13.12968,-13.12968 V 498.93645 H 498.93645 V -13.12968 Z"
         id="path113" />
    </clipPath>
    <clipPath
       clipPathUnits="userSpaceOnUse"
       id="clipPath115">
      <path
         d="M -13.12968,-13.12968 V 498.93645 H 498.93645 V -13.12968 Z"
         id="path115" />
    </clipPath>
    <clipPath
       clipPathUnits="userSpaceOnUse"
       id="clipPath117">
      <path
         d="M -13.12968,-13.12968 V 498.93645 H 498.93645 V -13.12968 Z"
         id="path117" />
    </clipPath>
    <clipPath
       clipPathUnits="userSpaceOnUse"
       id="clipPath119">
      <path
         d="M -13.12968,-13.12968 V 498.93645 H 498.93645 V -13.12968 Z"
         id="path119" />
    </clipPath>
    <clipPath
       clipPathUnits="userSpaceOnUse"
       id="clipPath121">
      <path
         d="M -13.12968,-13.12968 V 498.93645 H 498.93645 V -13.12968 Z"
         id="path121" />
    </clipPath>
    <clipPath
       clipPathUnits="userSpaceOnUse"
       id="clipPath123">
      <path
         d="M -13.12968,-13.12968 V 498.93645 H 498.93645 V -13.12968 Z"
         id="path123" />
    </clipPath>
    <clipPath
       clipPathUnits="userSpaceOnUse"
       id="clipPath125">
      <path
         d="M -13.12968,-13.12968 V 498.93645 H 498.93645 V -13.12968 Z"
         id="path125" />
    </clipPath>
    <clipPath
       clipPathUnits="userSpaceOnUse"
       id="clipPath127">
      <path
         d="M -13.12968,-13.12968 V 498.93645 H 498.93645 V -13.12968 Z"
         id="path127" />
    </clipPath>
    <clipPath
       clipPathUnits="userSpaceOnUse"
       id="clipPath129">
      <path
         d="M -13.12968,-13.12968 V 498.93645 H 498.93645 V -13.12968 Z"
         id="path129" />
    </clipPath>
    <clipPath
       clipPathUnits="userSpaceOnUse"
       id="clipPath131">
      <path
         d="M -13.12968,-13.12968 V 498.93645 H 498.93645 V -13.12968 Z"
         id="path131" />
    </clipPath>
    <clipPath
       clipPathUnits="userSpaceOnUse"
       id="clipPath133">
      <path
         d="M -13.12968,-13.12968 V 498.93645 H 498.93645 V -13.12968 Z"
         id="path133" />
    </clipPath>
    <clipPath
       clipPathUnits="userSpaceOnUse"
       id="clipPath135">
      <path
         d="M -13.12968,-13.12968 V 498.93645 H 498.93645 V -13.12968 Z"
         id="path135" />
    </clipPath>
    <clipPath
       clipPathUnits="userSpaceOnUse"
       id="clipPath137">
      <path
         d="M -13.12968,-13.12968 V 498.93645 H 498.93645 V -13.12968 Z"
         id="path137" />
    </clipPath>
    <clipPath
       clipPathUnits="userSpaceOnUse"
       id="clipPath139">
      <path
         d="M -13.12968,-13.12968 V 498.93645 H 498.93645 V -13.12968 Z"
         id="path139" />
    </clipPath>
    <clipPath
       clipPathUnits="userSpaceOnUse"
       id="clipPath141">
      <path
         d="M -13.12968,-13.12968 V 498.93645 H 498.93645 V -13.12968 Z"
         id="path141" />
    </clipPath>
    <clipPath
       clipPathUnits="userSpaceOnUse"
       id="clipPath143">
      <path
         d="M -13.12968,-13.12968 V 498.93645 H 498.93645 V -13.12968 Z"
         id="path143" />
    </clipPath>
    <clipPath
       clipPathUnits="userSpaceOnUse"
       id="clipPath145">
      <path
         d="M -13.12968,-13.12968 V 498.93645 H 498.93645 V -13.12968 Z"
         id="path145" />
    </clipPath>
    <clipPath
       clipPathUnits="userSpaceOnUse"
       id="clipPath147">
      <path
         d="M -13.12968,-13.12968 V 498.93645 H 498.93645 V -13.12968 Z"
         id="path147" />
    </clipPath>
    <clipPath
       clipPathUnits="userSpaceOnUse"
       id="clipPath149">
      <path
         d="M -13.12968,-13.12968 V 498.93645 H 498.93645 V -13.12968 Z"
         id="path149" />
    </clipPath>
    <clipPath
       clipPathUnits="userSpaceOnUse"
       id="clipPath151">
      <path
         d="M -13.12968,-13.12968 V 498.93645 H 498.93645 V -13.12968 Z"
         id="path151" />
    </clipPath>
    <clipPath
       clipPathUnits="userSpaceOnUse"
       id="clipPath153">
      <path
         d="M -13.12968,-13.12968 V 498.93645 H 498.93645 V -13.12968 Z"
         id="path153" />
    </clipPath>
    <clipPath
       clipPathUnits="userSpaceOnUse"
       id="clipPath155">
      <path
         d="M -13.12968,-13.12968 V 498.93645 H 498.93645 V -13.12968 Z"
         id="path155" />
    </clipPath>
    <clipPath
       clipPathUnits="userSpaceOnUse"
       id="clipPath157">
      <path
         d="M -13.12968,-13.12968 V 498.93645 H 498.93645 V -13.12968 Z"
         id="path157" />
    </clipPath>
    <clipPath
       clipPathUnits="userSpaceOnUse"
       id="clipPath159">
      <path
         d="M -13.12968,-13.12968 V 498.93645 H 498.93645 V -13.12968 Z"
         id="path159" />
    </clipPath>
    <clipPath
       clipPathUnits="userSpaceOnUse"
       id="clipPath161">
      <path
         d="M -13.12968,-13.12968 V 498.93645 H 498.93645 V -13.12968 Z"
         id="path161" />
    </clipPath>
    <clipPath
       clipPathUnits="userSpaceOnUse"
       id="clipPath163">
      <path
         d="M -13.12968,-13.12968 V 498.93645 H 498.93645 V -13.12968 Z"
         id="path163" />
    </clipPath>
    <clipPath
       clipPathUnits="userSpaceOnUse"
       id="clipPath165">
      <path
         d="M -13.12968,-13.12968 V 498.93645 H 498.93645 V -13.12968 Z"
         id="path165" />
    </clipPath>
    <clipPath
       clipPathUnits="userSpaceOnUse"
       id="clipPath167">
      <path
         d="M -13.12968,-13.12968 V 498.93645 H 498.93645 V -13.12968 Z"
         id="path167" />
    </clipPath>
    <clipPath
       clipPathUnits="userSpaceOnUse"
       id="clipPath169">
      <path
         d="M -13.12968,-13.12968 V 498.93645 H 498.93645 V -13.12968 Z"
         id="path169" />
    </clipPath>
    <clipPath
       clipPathUnits="userSpaceOnUse"
       id="clipPath171">
      <path
         d="M -13.12968,-13.12968 V 498.93645 H 498.93645 V -13.12968 Z"
         id="path171" />
    </clipPath>
    <clipPath
       clipPathUnits="userSpaceOnUse"
       id="clipPath173">
      <path
         d="M -13.12968,-13.12968 V 498.93645 H 498.93645 V -13.12968 Z"
         id="path173" />
    </clipPath>
    <clipPath
       clipPathUnits="userSpaceOnUse"
       id="clipPath175">
      <path
         d="M -13.12968,-13.12968 V 498.93645 H 498.93645 V -13.12968 Z"
         id="path175" />
    </clipPath>
    <clipPath
       clipPathUnits="userSpaceOnUse"
       id="clipPath177">
      <path
         d="M -13.12968,-13.12968 V 498.93645 H 498.93645 V -13.12968 Z"
         id="path177" />
    </clipPath>
    <clipPath
       clipPathUnits="userSpaceOnUse"
       id="clipPath179">
      <path
         d="M -13.12968,-13.12968 V 498.93645 H 498.93645 V -13.12968 Z"
         id="path179" />
    </clipPath>
    <clipPath
       clipPathUnits="userSpaceOnUse"
       id="clipPath181">
      <path
         d="M -13.12968,-13.12968 V 498.93645 H 498.93645 V -13.12968 Z"
         id="path181" />
    </clipPath>
    <clipPath
       clipPathUnits="userSpaceOnUse"
       id="clipPath183">
      <path
         d="M -13.12968,-13.12968 V 498.93645 H 498.93645 V -13.12968 Z"
         id="path183" />
    </clipPath>
    <clipPath
       clipPathUnits="userSpaceOnUse"
       id="clipPath185">
      <path
         d="M -13.12968,-13.12968 V 498.93645 H 498.93645 V -13.12968 Z"
         id="path185" />
    </clipPath>
    <clipPath
       clipPathUnits="userSpaceOnUse"
       id="clipPath187">
      <path
         d="M -13.12968,-13.12968 V 498.93645 H 498.93645 V -13.12968 Z"
         id="path187" />
    </clipPath>
    <clipPath
       clipPathUnits="userSpaceOnUse"
       id="clipPath189">
      <path
         d="M -13.12968,-13.12968 V 498.93645 H 498.93645 V -13.12968 Z"
         id="path189" />
    </clipPath>
    <clipPath
       clipPathUnits="userSpaceOnUse"
       id="clipPath191">
      <path
         d="M -13.12968,-13.12968 V 498.93645 H 498.93645 V -13.12968 Z"
         id="path191" />
    </clipPath>
    <clipPath
       clipPathUnits="userSpaceOnUse"
       id="clipPath193">
      <path
         d="M -13.12968,-13.12968 V 498.93645 H 498.93645 V -13.12968 Z"
         id="path193" />
    </clipPath>
    <clipPath
       clipPathUnits="userSpaceOnUse"
       id="clipPath195">
      <path
         d="M -13.12968,-13.12968 V 498.93645 H 498.93645 V -13.12968 Z"
         id="path195" />
    </clipPath>
    <clipPath
       clipPathUnits="userSpaceOnUse"
       id="clipPath197">
      <path
         d="M -13.12968,-13.12968 V 498.93645 H 498.93645 V -13.12968 Z"
         id="path197" />
    </clipPath>
    <clipPath
       clipPathUnits="userSpaceOnUse"
       id="clipPath199">
      <path
         d="M -13.12968,-13.12968 V 498.93645 H 498.93645 V -13.12968 Z"
         id="path199" />
    </clipPath>
    <clipPath
       clipPathUnits="userSpaceOnUse"
       id="clipPath201">
      <path
         d="M -13.12968,-13.12968 V 498.93645 H 498.93645 V -13.12968 Z"
         id="path201" />
    </clipPath>
    <clipPath
       clipPathUnits="userSpaceOnUse"
       id="clipPath203">
      <path
         d="M -13.12968,-13.12968 V 498.93645 H 498.93645 V -13.12968 Z"
         id="path203" />
    </clipPath>
    <clipPath
       clipPathUnits="userSpaceOnUse"
       id="clipPath205">
      <path
         d="M -13.12968,-13.12968 V 498.93645 H 498.93645 V -13.12968 Z"
         id="path205" />
    </clipPath>
    <clipPath
       clipPathUnits="userSpaceOnUse"
       id="clipPath207">
      <path
         d="M -13.12968,-13.12968 V 498.93645 H 498.93645 V -13.12968 Z"
         id="path207" />
    </clipPath>
    <clipPath
       clipPathUnits="userSpaceOnUse"
       id="clipPath209">
      <path
         d="M -13.12968,-13.12968 V 498.93645 H 498.93645 V -13.12968 Z"
         id="path209" />
    </clipPath>
    <clipPath
       clipPathUnits="userSpaceOnUse"
       id="clipPath211">
      <path
         d="M -13.12968,-13.12968 V 498.93645 H 498.93645 V -13.12968 Z"
         id="path211" />
    </clipPath>
    <clipPath
       clipPathUnits="userSpaceOnUse"
       id="clipPath213">
      <path
         d="M -13.12968,-13.12968 V 498.93645 H 498.93645 V -13.12968 Z"
         transform="matrix(1,0,0,-1,-127.174,98.699)"
         id="path213" />
    </clipPath>
    <clipPath
       clipPathUnits="userSpaceOnUse"
       id="clipPath215">
      <path
         d="M -13.12968,-13.12968 V 498.93645 H 498.93645 V -13.12968 Z"
         id="path215" />
    </clipPath>
    <clipPath
       clipPathUnits="userSpaceOnUse"
       id="clipPath217">
      <path
         d="M -13.12968,-13.12968 V 498.93645 H 498.93645 V -13.12968 Z"
         id="path217" />
    </clipPath>
    <clipPath
       clipPathUnits="userSpaceOnUse"
       id="clipPath219">
      <path
         d="M -13.12968,-13.12968 V 498.93645 H 498.93645 V -13.12968 Z"
         id="path219" />
    </clipPath>
    <clipPath
       clipPathUnits="userSpaceOnUse"
       id="clipPath221">
      <path
         d="M -13.12968,-13.12968 V 498.93645 H 498.93645 V -13.12968 Z"
         transform="matrix(1,0,0,-1,-231.57201,20.452001)"
         id="path221" />
    </clipPath>
    <clipPath
       clipPathUnits="userSpaceOnUse"
       id="clipPath223">
      <path
         d="M -13.12968,-13.12968 V 498.93645 H 498.93645 V -13.12968 Z"
         id="path223" />
    </clipPath>
    <clipPath
       clipPathUnits="userSpaceOnUse"
       id="clipPath225">
      <path
         d="M -13.12968,-13.12968 V 498.93645 H 498.93645 V -13.12968 Z"
         id="path225" />
    </clipPath>
    <clipPath
       clipPathUnits="userSpaceOnUse"
       id="clipPath227">
      <path
         d="M -13.12968,-13.12968 V 498.93645 H 498.93645 V -13.12968 Z"
         id="path227" />
    </clipPath>
    <clipPath
       clipPathUnits="userSpaceOnUse"
       id="clipPath229">
      <path
         d="M -13.12968,-13.12968 V 498.93645 H 498.93645 V -13.12968 Z"
         transform="matrix(1,0,0,-1,-257.233,46.287004)"
         id="path229" />
    </clipPath>
    <clipPath
       clipPathUnits="userSpaceOnUse"
       id="clipPath231">
      <path
         d="M -13.12968,-13.12968 V 498.93645 H 498.93645 V -13.12968 Z"
         id="path231" />
    </clipPath>
    <clipPath
       clipPathUnits="userSpaceOnUse"
       id="clipPath233">
      <path
         d="M -13.12968,-13.12968 V 498.93645 H 498.93645 V -13.12968 Z"
         id="path233" />
    </clipPath>
    <clipPath
       clipPathUnits="userSpaceOnUse"
       id="clipPath235">
      <path
         d="M -13.12968,-13.12968 V 498.93645 H 498.93645 V -13.12968 Z"
         id="path235" />
    </clipPath>
    <clipPath
       clipPathUnits="userSpaceOnUse"
       id="clipPath237">
      <path
         d="M -13.12968,-13.12968 V 498.93645 H 498.93645 V -13.12968 Z"
         transform="matrix(1,0,0,-1,-258.097,20.443001)"
         id="path237" />
    </clipPath>
    <clipPath
       clipPathUnits="userSpaceOnUse"
       id="clipPath239">
      <path
         d="M -13.12968,-13.12968 V 498.93645 H 498.93645 V -13.12968 Z"
         id="path239" />
    </clipPath>
    <clipPath
       clipPathUnits="userSpaceOnUse"
       id="clipPath241">
      <path
         d="M -13.12968,-13.12968 V 498.93645 H 498.93645 V -13.12968 Z"
         id="path241" />
    </clipPath>
    <clipPath
       clipPathUnits="userSpaceOnUse"
       id="clipPath243">
      <path
         d="M -13.12968,-13.12968 V 498.93645 H 498.93645 V -13.12968 Z"
         id="path243" />
    </clipPath>
    <clipPath
       clipPathUnits="userSpaceOnUse"
       id="clipPath245">
      <path
         d="M -13.12968,-13.12968 V 498.93645 H 498.93645 V -13.12968 Z"
         transform="matrix(1,0,0,-1,-336.16601,308.88201)"
         id="path245" />
    </clipPath>
    <clipPath
       clipPathUnits="userSpaceOnUse"
       id="clipPath247">
      <path
         d="M -13.12968,-13.12968 V 498.93645 H 498.93645 V -13.12968 Z"
         id="path247" />
    </clipPath>
    <clipPath
       clipPathUnits="userSpaceOnUse"
       id="clipPath249">
      <path
         d="M -13.12968,-13.12968 V 498.93645 H 498.93645 V -13.12968 Z"
         transform="matrix(1,0,0,-1,-124.27401,125.17)"
         id="path249" />
    </clipPath>
  </defs>
  <sodipodi:namedview
     id="namedview1"
     pagecolor="#ffffff"
     bordercolor="#000000"
     borderopacity="0.25"
     inkscape:showpageshadow="2"
     inkscape:pageopacity="0.0"
     inkscape:pagecheckerboard="0"
     inkscape:deskcolor="#d1d1d1" />
  <g
     id="g1"
     inkscape:groupmode="layer"
     inkscape:label="1"
     transform="translate(-82.60862,-150.91779)">
    <path
       id="path2"
       d="M 0,0 472.68314,472.68314"
       style="fill:none;stroke:#000000;stroke-width:1;stroke-linecap:butt;stroke-linejoin:miter;stroke-miterlimit:10;stroke-dasharray:0, 1.99255;stroke-dashoffset:0;stroke-opacity:1"
       transform="matrix(1.3333333,0,0,-1.3333333,83.648,782.20133)"
       clip-path="url(#clipPath3)" />
    <path
       id="path4"
       d="M 0,0 H 472.68314 M 0,26.2598 H 472.68314 M 0,52.5196 H 472.68314 M 0,78.7794 H 472.68314 M 0,105.03922 H 472.68314 M 0,131.29903 H 472.68314 M 0,157.55882 H 472.68314 M 0,183.81863 H 472.68314 M 0,210.07845 H 472.68314 M 0,236.33824 H 472.68314 M 0,262.59805 H 472.68314 M 0,288.85786 H 472.68314 M 0,315.11766 H 472.68314 M 0,341.37747 H 472.68314 M 0,367.63728 H 472.68314 M 0,393.89708 H 472.68314 M 0,420.15689 H 472.68314 M 0,446.4167 H 472.68314 M 0,472.6765 H 472.68314 M 0,0 V 472.68314 M 26.2598,0 V 472.68314 M 52.5196,0 V 472.68314 M 78.7794,0 V 472.68314 M 105.03922,0 V 472.68314 M 131.29903,0 V 472.68314 M 157.55882,0 V 472.68314 M 183.81863,0 V 472.68314 M 210.07845,0 V 472.68314 M 236.33824,0 V 472.68314 M 262.59805,0 V 472.68314 M 288.85786,0 V 472.68314 M 315.11766,0 V 472.68314 M 341.37747,0 V 472.68314 M 367.63728,0 V 472.68314 M 393.89708,0 V 472.68314 M 420.15689,0 V 472.68314 M 446.4167,0 V 472.68314 M 472.6765,0 v 472.68314"
       style="fill:none;stroke:#000000;stroke-width:0.3985;stroke-linecap:butt;stroke-linejoin:miter;stroke-miterlimit:10;stroke-dasharray:none;stroke-opacity:1"
       transform="matrix(1.3333333,0,0,-1.3333333,83.648,782.20133)"
       clip-path="url(#clipPath5)" />
    <path
       id="path6"
       d="M 0,0 H 472.68314 M 0,472.67317 H 472.68314 M 0,0 V 472.68314 M 472.67317,0 v 472.68314"
       style="fill:none;stroke:#000000;stroke-width:1.55907;stroke-linecap:square;stroke-linejoin:miter;stroke-miterlimit:10;stroke-dasharray:none;stroke-opacity:1"
       transform="matrix(1.3333333,0,0,-1.3333333,83.648,782.20133)"
       clip-path="url(#clipPath7)" />
    <path
       id="path8"
       d="m 239.6204,236.3383 c 0,1.81269 -1.46941,3.2821 -3.2821,3.2821 -1.81267,0 -3.28209,-1.46941 -3.28209,-3.2821 0,-1.81267 1.46942,-3.28209 3.28209,-3.28209 1.81269,0 3.2821,1.46942 3.2821,3.28209 z"
       style="fill:#000000;fill-opacity:1;fill-rule:nonzero;stroke:#000000;stroke-width:0.3985;stroke-linecap:butt;stroke-linejoin:miter;stroke-miterlimit:10;stroke-dasharray:none;stroke-opacity:1"
       transform="matrix(1.3333333,0,0,-1.3333333,83.648,782.20133)"
       clip-path="url(#clipPath9)" />
    <path
       id="path10"
       d="m 82.06152,78.77942 c 0,1.81268 -1.46942,3.2821 -3.2821,3.2821 -1.81267,0 -3.28209,-1.46942 -3.28209,-3.2821 0,-1.81267 1.46942,-3.28209 3.28209,-3.28209 1.81268,0 3.2821,1.46942 3.2821,3.28209 z"
       style="fill:#000000;fill-opacity:1;fill-rule:nonzero;stroke:#000000;stroke-width:0.3985;stroke-linecap:butt;stroke-linejoin:miter;stroke-miterlimit:10;stroke-dasharray:none;stroke-opacity:1"
       transform="matrix(1.3333333,0,0,-1.3333333,83.648,782.20133)"
       clip-path="url(#clipPath11)" />
    <path
       id="path12"
       d="m 397.17929,78.77942 c 0,1.81268 -1.46944,3.2821 -3.2821,3.2821 -1.81267,0 -3.28209,-1.46942 -3.28209,-3.2821 0,-1.81267 1.46942,-3.28209 3.28209,-3.28209 1.81266,0 3.2821,1.46942 3.2821,3.28209 z"
       style="fill:#000000;fill-opacity:1;fill-rule:nonzero;stroke:#000000;stroke-width:0.3985;stroke-linecap:butt;stroke-linejoin:miter;stroke-miterlimit:10;stroke-dasharray:none;stroke-opacity:1"
       transform="matrix(1.3333333,0,0,-1.3333333,83.648,782.20133)"
       clip-path="url(#clipPath13)" />
    <path
       id="path14"
       d="m 82.06152,393.89719 c 0,1.81266 -1.46942,3.2821 -3.2821,3.2821 -1.81267,0 -3.28209,-1.46944 -3.28209,-3.2821 0,-1.81267 1.46942,-3.28209 3.28209,-3.28209 1.81268,0 3.2821,1.46942 3.2821,3.28209 z"
       style="fill:#000000;fill-opacity:1;fill-rule:nonzero;stroke:#000000;stroke-width:0.3985;stroke-linecap:butt;stroke-linejoin:miter;stroke-miterlimit:10;stroke-dasharray:none;stroke-opacity:1"
       transform="matrix(1.3333333,0,0,-1.3333333,83.648,782.20133)"
       clip-path="url(#clipPath15)" />
    <path
       id="path16"
       d="m 397.17929,393.89719 c 0,1.81266 -1.46944,3.2821 -3.2821,3.2821 -1.81267,0 -3.28209,-1.46944 -3.28209,-3.2821 0,-1.81267 1.46942,-3.28209 3.28209,-3.28209 1.81266,0 3.2821,1.46942 3.2821,3.28209 z"
       style="fill:#000000;fill-opacity:1;fill-rule:nonzero;stroke:#000000;stroke-width:0.3985;stroke-linecap:butt;stroke-linejoin:miter;stroke-miterlimit:10;stroke-dasharray:none;stroke-opacity:1"
       transform="matrix(1.3333333,0,0,-1.3333333,83.648,782.20133)"
       clip-path="url(#clipPath17)" />
    <path
       id="path18"
       d="m 82.06152,78.77942 c 0,1.81268 -1.46942,3.2821 -3.2821,3.2821 -1.81267,0 -3.28209,-1.46942 -3.28209,-3.2821 0,-1.81267 1.46942,-3.28209 3.28209,-3.28209 1.81268,0 3.2821,1.46942 3.2821,3.28209 z"
       style="fill:#000000;fill-opacity:1;fill-rule:nonzero;stroke:#000000;stroke-width:0.3985;stroke-linecap:butt;stroke-linejoin:miter;stroke-miterlimit:10;stroke-dasharray:none;stroke-opacity:1"
       transform="matrix(1.3333333,0,0,-1.3333333,83.648,782.20133)"
       clip-path="url(#clipPath19)" />
    <path
       id="path20"
       d="m 397.17929,78.77942 c 0,1.81268 -1.46944,3.2821 -3.2821,3.2821 -1.81267,0 -3.28209,-1.46942 -3.28209,-3.2821 0,-1.81267 1.46942,-3.28209 3.28209,-3.28209 1.81266,0 3.2821,1.46942 3.2821,3.28209 z"
       style="fill:#000000;fill-opacity:1;fill-rule:nonzero;stroke:#000000;stroke-width:0.3985;stroke-linecap:butt;stroke-linejoin:miter;stroke-miterlimit:10;stroke-dasharray:none;stroke-opacity:1"
       transform="matrix(1.3333333,0,0,-1.3333333,83.648,782.20133)"
       clip-path="url(#clipPath21)" />
    <path
       id="path22"
       d="m 82.06152,393.89719 c 0,1.81266 -1.46942,3.2821 -3.2821,3.2821 -1.81267,0 -3.28209,-1.46944 -3.28209,-3.2821 0,-1.81267 1.46942,-3.28209 3.28209,-3.28209 1.81268,0 3.2821,1.46942 3.2821,3.28209 z"
       style="fill:#000000;fill-opacity:1;fill-rule:nonzero;stroke:#000000;stroke-width:0.3985;stroke-linecap:butt;stroke-linejoin:miter;stroke-miterlimit:10;stroke-dasharray:none;stroke-opacity:1"
       transform="matrix(1.3333333,0,0,-1.3333333,83.648,782.20133)"
       clip-path="url(#clipPath23)" />
    <path
       id="path24"
       d="m 397.17929,393.89719 c 0,1.81266 -1.46944,3.2821 -3.2821,3.2821 -1.81267,0 -3.28209,-1.46944 -3.28209,-3.2821 0,-1.81267 1.46942,-3.28209 3.28209,-3.28209 1.81266,0 3.2821,1.46942 3.2821,3.28209 z"
       style="fill:#000000;fill-opacity:1;fill-rule:nonzero;stroke:#000000;stroke-width:0.3985;stroke-linecap:butt;stroke-linejoin:miter;stroke-miterlimit:10;stroke-dasharray:none;stroke-opacity:1"
       transform="matrix(1.3333333,0,0,-1.3333333,83.648,782.20133)"
       clip-path="url(#clipPath25)" />
    <path
       id="path26"
       d="m 82.06152,236.3383 c 0,1.81269 -1.46942,3.2821 -3.2821,3.2821 -1.81267,0 -3.28209,-1.46941 -3.28209,-3.2821 0,-1.81267 1.46942,-3.28209 3.28209,-3.28209 1.81268,0 3.2821,1.46942 3.2821,3.28209 z"
       style="fill:#000000;fill-opacity:1;fill-rule:nonzero;stroke:#000000;stroke-width:0.3985;stroke-linecap:butt;stroke-linejoin:miter;stroke-miterlimit:10;stroke-dasharray:none;stroke-opacity:1"
       transform="matrix(1.3333333,0,0,-1.3333333,83.648,782.20133)"
       clip-path="url(#clipPath27)" />
    <path
       id="path28"
       d="m 239.6204,393.89719 c 0,1.81266 -1.46941,3.2821 -3.2821,3.2821 -1.81267,0 -3.28209,-1.46944 -3.28209,-3.2821 0,-1.81267 1.46942,-3.28209 3.28209,-3.28209 1.81269,0 3.2821,1.46942 3.2821,3.28209 z"
       style="fill:#000000;fill-opacity:1;fill-rule:nonzero;stroke:#000000;stroke-width:0.3985;stroke-linecap:butt;stroke-linejoin:miter;stroke-miterlimit:10;stroke-dasharray:none;stroke-opacity:1"
       transform="matrix(1.3333333,0,0,-1.3333333,83.648,782.20133)"
       clip-path="url(#clipPath29)" />
    <path
       id="path30"
       d="m 239.6204,78.77942 c 0,1.81268 -1.46941,3.2821 -3.2821,3.2821 -1.81267,0 -3.28209,-1.46942 -3.28209,-3.2821 0,-1.81267 1.46942,-3.28209 3.28209,-3.28209 1.81269,0 3.2821,1.46942 3.2821,3.28209 z"
       style="fill:#000000;fill-opacity:1;fill-rule:nonzero;stroke:#000000;stroke-width:0.3985;stroke-linecap:butt;stroke-linejoin:miter;stroke-miterlimit:10;stroke-dasharray:none;stroke-opacity:1"
       transform="matrix(1.3333333,0,0,-1.3333333,83.648,782.20133)"
       clip-path="url(#clipPath31)" />
    <path
       id="path32"
       d="m 397.17929,236.3383 c 0,1.81269 -1.46944,3.2821 -3.2821,3.2821 -1.81267,0 -3.28209,-1.46941 -3.28209,-3.2821 0,-1.81267 1.46942,-3.28209 3.28209,-3.28209 1.81266,0 3.2821,1.46942 3.2821,3.28209 z"
       style="fill:#000000;fill-opacity:1;fill-rule:nonzero;stroke:#000000;stroke-width:0.3985;stroke-linecap:butt;stroke-linejoin:miter;stroke-miterlimit:10;stroke-dasharray:none;stroke-opacity:1"
       transform="matrix(1.3333333,0,0,-1.3333333,83.648,782.20133)"
       clip-path="url(#clipPath33)" />
    <path
       id="path34"
       d="m 433.2867,420.15701 c 0,7.25142 -5.87827,13.12969 -13.12969,13.12969 -7.25141,0 -13.12968,-5.87827 -13.12968,-13.12969 0,-7.25141 5.87827,-13.12968 13.12968,-13.12968 7.25142,0 13.12969,5.87827 13.12969,13.12968 z"
       style="fill:#ffffff;fill-opacity:1;fill-rule:nonzero;stroke:#ffffff;stroke-width:0.3985;stroke-linecap:butt;stroke-linejoin:miter;stroke-miterlimit:10;stroke-dasharray:none;stroke-opacity:1"
       transform="matrix(1.3333333,0,0,-1.3333333,83.648,782.20133)"
       clip-path="url(#clipPath35)" />
    <path
       id="path36"
       d="m 433.23436,420.15701 c 0,7.22251 -5.85484,13.07735 -13.07735,13.07735 -7.2225,0 -13.07734,-5.85484 -13.07734,-13.07735 0,-7.2225 5.85484,-13.07734 13.07734,-13.07734 7.22251,0 13.07735,5.85484 13.07735,13.07734 z"
       style="fill:#000000;fill-opacity:1;fill-rule:nonzero;stroke:#ffffff;stroke-width:1.1998;stroke-linecap:butt;stroke-linejoin:miter;stroke-miterlimit:10;stroke-dasharray:none;stroke-opacity:1"
       transform="matrix(1.3333333,0,0,-1.3333333,83.648,782.20133)"
       clip-path="url(#clipPath37)" />
    <path
       id="path38"
       d="m 433.2867,393.89719 c 0,7.25141 -5.87827,13.1297 -13.12969,13.1297 -7.25141,0 -13.12968,-5.87829 -13.12968,-13.1297 0,-7.25142 5.87827,-13.12969 13.12968,-13.12969 7.25142,0 13.12969,5.87827 13.12969,13.12969 z"
       style="fill:#ffffff;fill-opacity:1;fill-rule:nonzero;stroke:#ffffff;stroke-width:0.3985;stroke-linecap:butt;stroke-linejoin:miter;stroke-miterlimit:10;stroke-dasharray:none;stroke-opacity:1"
       transform="matrix(1.3333333,0,0,-1.3333333,83.648,782.20133)"
       clip-path="url(#clipPath39)" />
    <path
       id="path40"
       d="m 433.23436,393.89719 c 0,7.22251 -5.85484,13.07736 -13.07735,13.07736 -7.2225,0 -13.07734,-5.85485 -13.07734,-13.07736 0,-7.22251 5.85484,-13.07735 13.07734,-13.07735 7.22251,0 13.07735,5.85484 13.07735,13.07735 z"
       style="fill:#000000;fill-opacity:1;fill-rule:nonzero;stroke:#ffffff;stroke-width:1.1998;stroke-linecap:butt;stroke-linejoin:miter;stroke-miterlimit:10;stroke-dasharray:none;stroke-opacity:1"
       transform="matrix(1.3333333,0,0,-1.3333333,83.648,782.20133)"
       clip-path="url(#clipPath41)" />
    <path
       id="path42"
       d="m 459.54651,341.37756 c 0,7.25142 -5.87827,13.12969 -13.12969,13.12969 -7.25142,0 -13.1297,-5.87827 -13.1297,-13.12969 0,-7.25142 5.87828,-13.12968 13.1297,-13.12968 7.25142,0 13.12969,5.87826 13.12969,13.12968 z"
       style="fill:#ffffff;fill-opacity:1;fill-rule:nonzero;stroke:#ffffff;stroke-width:0.3985;stroke-linecap:butt;stroke-linejoin:miter;stroke-miterlimit:10;stroke-dasharray:none;stroke-opacity:1"
       transform="matrix(1.3333333,0,0,-1.3333333,83.648,782.20133)"
       clip-path="url(#clipPath43)" />
    <path
       id="path44"
       d="m 459.49417,341.37756 c 0,7.22251 -5.85484,13.07735 -13.07735,13.07735 -7.2225,0 -13.07734,-5.85484 -13.07734,-13.07735 0,-7.2225 5.85484,-13.07734 13.07734,-13.07734 7.22251,0 13.07735,5.85484 13.07735,13.07734 z"
       style="fill:#000000;fill-opacity:1;fill-rule:nonzero;stroke:#ffffff;stroke-width:1.1998;stroke-linecap:butt;stroke-linejoin:miter;stroke-miterlimit:10;stroke-dasharray:none;stroke-opacity:1"
       transform="matrix(1.3333333,0,0,-1.3333333,83.648,782.20133)"
       clip-path="url(#clipPath45)" />
    <path
       id="path46"
       d="m 433.2867,315.11775 c 0,7.25142 -5.87827,13.1297 -13.12969,13.1297 -7.25141,0 -13.12968,-5.87828 -13.12968,-13.1297 0,-7.25142 5.87827,-13.12968 13.12968,-13.12968 7.25142,0 13.12969,5.87826 13.12969,13.12968 z"
       style="fill:#ffffff;fill-opacity:1;fill-rule:nonzero;stroke:#ffffff;stroke-width:0.3985;stroke-linecap:butt;stroke-linejoin:miter;stroke-miterlimit:10;stroke-dasharray:none;stroke-opacity:1"
       transform="matrix(1.3333333,0,0,-1.3333333,83.648,782.20133)"
       clip-path="url(#clipPath47)" />
    <path
       id="path48"
       d="m 433.23436,315.11775 c 0,7.22252 -5.85484,13.07736 -13.07735,13.07736 -7.2225,0 -13.07734,-5.85484 -13.07734,-13.07736 0,-7.2225 5.85484,-13.07735 13.07734,-13.07735 7.22251,0 13.07735,5.85485 13.07735,13.07735 z"
       style="fill:#000000;fill-opacity:1;fill-rule:nonzero;stroke:#ffffff;stroke-width:1.1998;stroke-linecap:butt;stroke-linejoin:miter;stroke-miterlimit:10;stroke-dasharray:none;stroke-opacity:1"
       transform="matrix(1.3333333,0,0,-1.3333333,83.648,782.20133)"
       clip-path="url(#clipPath49)" />
    <path
       id="path50"
       d="m 407.02689,288.85794 c 0,7.25142 -5.87829,13.12969 -13.1297,13.12969 -7.25142,0 -13.12969,-5.87827 -13.12969,-13.12969 0,-7.25142 5.87827,-13.1297 13.12969,-13.1297 7.25141,0 13.1297,5.87828 13.1297,13.1297 z"
       style="fill:#ffffff;fill-opacity:1;fill-rule:nonzero;stroke:#ffffff;stroke-width:0.3985;stroke-linecap:butt;stroke-linejoin:miter;stroke-miterlimit:10;stroke-dasharray:none;stroke-opacity:1"
       transform="matrix(1.3333333,0,0,-1.3333333,83.648,782.20133)"
       clip-path="url(#clipPath51)" />
    <path
       id="path52"
       d="m 406.97455,288.85794 c 0,7.2225 -5.85485,13.07735 -13.07736,13.07735 -7.22251,0 -13.07735,-5.85485 -13.07735,-13.07735 0,-7.2225 5.85484,-13.07734 13.07735,-13.07734 7.22251,0 13.07736,5.85484 13.07736,13.07734 z"
       style="fill:#000000;fill-opacity:1;fill-rule:nonzero;stroke:#ffffff;stroke-width:1.1998;stroke-linecap:butt;stroke-linejoin:miter;stroke-miterlimit:10;stroke-dasharray:none;stroke-opacity:1"
       transform="matrix(1.3333333,0,0,-1.3333333,83.648,782.20133)"
       clip-path="url(#clipPath53)" />
    <path
       id="path54"
       d="m 380.76707,288.85794 c 0,7.25142 -5.87826,13.12969 -13.12968,13.12969 -7.25142,0 -13.1297,-5.87827 -13.1297,-13.12969 0,-7.25142 5.87828,-13.1297 13.1297,-13.1297 7.25142,0 13.12968,5.87828 13.12968,13.1297 z"
       style="fill:#ffffff;fill-opacity:1;fill-rule:nonzero;stroke:#ffffff;stroke-width:0.3985;stroke-linecap:butt;stroke-linejoin:miter;stroke-miterlimit:10;stroke-dasharray:none;stroke-opacity:1"
       transform="matrix(1.3333333,0,0,-1.3333333,83.648,782.20133)"
       clip-path="url(#clipPath55)" />
    <path
       id="path56"
       d="m 380.71474,288.85794 c 0,7.2225 -5.85484,13.07735 -13.07735,13.07735 -7.2225,0 -13.07735,-5.85485 -13.07735,-13.07735 0,-7.2225 5.85485,-13.07734 13.07735,-13.07734 7.22251,0 13.07735,5.85484 13.07735,13.07734 z"
       style="fill:#000000;fill-opacity:1;fill-rule:nonzero;stroke:#ffffff;stroke-width:1.1998;stroke-linecap:butt;stroke-linejoin:miter;stroke-miterlimit:10;stroke-dasharray:none;stroke-opacity:1"
       transform="matrix(1.3333333,0,0,-1.3333333,83.648,782.20133)"
       clip-path="url(#clipPath57)" />
    <path
       id="path58"
       d="m 354.50725,288.85794 c 0,7.25142 -5.87827,13.12969 -13.12969,13.12969 -7.25142,0 -13.12968,-5.87827 -13.12968,-13.12969 0,-7.25142 5.87826,-13.1297 13.12968,-13.1297 7.25142,0 13.12969,5.87828 13.12969,13.1297 z"
       style="fill:#ffffff;fill-opacity:1;fill-rule:nonzero;stroke:#ffffff;stroke-width:0.3985;stroke-linecap:butt;stroke-linejoin:miter;stroke-miterlimit:10;stroke-dasharray:none;stroke-opacity:1"
       transform="matrix(1.3333333,0,0,-1.3333333,83.648,782.20133)"
       clip-path="url(#clipPath59)" />
    <path
       id="path60"
       d="m 354.45491,288.85794 c 0,7.2225 -5.85484,13.07735 -13.07735,13.07735 -7.2225,0 -13.07734,-5.85485 -13.07734,-13.07735 0,-7.2225 5.85484,-13.07734 13.07734,-13.07734 7.22251,0 13.07735,5.85484 13.07735,13.07734 z"
       style="fill:#000000;fill-opacity:1;fill-rule:nonzero;stroke:#ffffff;stroke-width:1.1998;stroke-linecap:butt;stroke-linejoin:miter;stroke-miterlimit:10;stroke-dasharray:none;stroke-opacity:1"
       transform="matrix(1.3333333,0,0,-1.3333333,83.648,782.20133)"
       clip-path="url(#clipPath61)" />
    <path
       id="path62"
       d="m 223.20819,420.15701 c 0,7.25142 -5.87826,13.12969 -13.12969,13.12969 -7.25141,0 -13.1297,-5.87827 -13.1297,-13.12969 0,-7.25141 5.87829,-13.12968 13.1297,-13.12968 7.25143,0 13.12969,5.87827 13.12969,13.12968 z"
       style="fill:#ffffff;fill-opacity:1;fill-rule:nonzero;stroke:#ffffff;stroke-width:0.3985;stroke-linecap:butt;stroke-linejoin:miter;stroke-miterlimit:10;stroke-dasharray:none;stroke-opacity:1"
       transform="matrix(1.3333333,0,0,-1.3333333,83.648,782.20133)"
       clip-path="url(#clipPath63)" />
    <path
       id="path64"
       d="m 223.15585,420.15701 c 0,7.22251 -5.85484,13.07735 -13.07735,13.07735 -7.2225,0 -13.07734,-5.85484 -13.07734,-13.07735 0,-7.2225 5.85484,-13.07734 13.07734,-13.07734 7.22251,0 13.07735,5.85484 13.07735,13.07734 z"
       style="fill:#000000;fill-opacity:1;fill-rule:nonzero;stroke:#ffffff;stroke-width:1.1998;stroke-linecap:butt;stroke-linejoin:miter;stroke-miterlimit:10;stroke-dasharray:none;stroke-opacity:1"
       transform="matrix(1.3333333,0,0,-1.3333333,83.648,782.20133)"
       clip-path="url(#clipPath65)" />
    <path
       id="path66"
       d="m 223.20819,367.63739 c 0,7.25142 -5.87826,13.12968 -13.12969,13.12968 -7.25141,0 -13.1297,-5.87826 -13.1297,-13.12968 0,-7.25142 5.87829,-13.1297 13.1297,-13.1297 7.25143,0 13.12969,5.87828 13.12969,13.1297 z"
       style="fill:#ffffff;fill-opacity:1;fill-rule:nonzero;stroke:#ffffff;stroke-width:0.3985;stroke-linecap:butt;stroke-linejoin:miter;stroke-miterlimit:10;stroke-dasharray:none;stroke-opacity:1"
       transform="matrix(1.3333333,0,0,-1.3333333,83.648,782.20133)"
       clip-path="url(#clipPath67)" />
    <path
       id="path68"
       d="m 223.15585,367.63739 c 0,7.22251 -5.85484,13.07735 -13.07735,13.07735 -7.2225,0 -13.07734,-5.85484 -13.07734,-13.07735 0,-7.2225 5.85484,-13.07735 13.07734,-13.07735 7.22251,0 13.07735,5.85485 13.07735,13.07735 z"
       style="fill:#000000;fill-opacity:1;fill-rule:nonzero;stroke:#ffffff;stroke-width:1.1998;stroke-linecap:butt;stroke-linejoin:miter;stroke-miterlimit:10;stroke-dasharray:none;stroke-opacity:1"
       transform="matrix(1.3333333,0,0,-1.3333333,83.648,782.20133)"
       clip-path="url(#clipPath69)" />
    <path
       id="path70"
       d="m 144.42874,420.15701 c 0,7.25142 -5.87826,13.12969 -13.12968,13.12969 -7.25142,0 -13.1297,-5.87827 -13.1297,-13.12969 0,-7.25141 5.87828,-13.12968 13.1297,-13.12968 7.25142,0 13.12968,5.87827 13.12968,13.12968 z"
       style="fill:#ffffff;fill-opacity:1;fill-rule:nonzero;stroke:#ffffff;stroke-width:0.3985;stroke-linecap:butt;stroke-linejoin:miter;stroke-miterlimit:10;stroke-dasharray:none;stroke-opacity:1"
       transform="matrix(1.3333333,0,0,-1.3333333,83.648,782.20133)"
       clip-path="url(#clipPath71)" />
    <path
       id="path72"
       d="m 144.3764,420.15701 c 0,7.22251 -5.85484,13.07735 -13.07734,13.07735 -7.22251,0 -13.07735,-5.85484 -13.07735,-13.07735 0,-7.2225 5.85484,-13.07734 13.07735,-13.07734 7.2225,0 13.07734,5.85484 13.07734,13.07734 z"
       style="fill:#000000;fill-opacity:1;fill-rule:nonzero;stroke:#ffffff;stroke-width:1.1998;stroke-linecap:butt;stroke-linejoin:miter;stroke-miterlimit:10;stroke-dasharray:none;stroke-opacity:1"
       transform="matrix(1.3333333,0,0,-1.3333333,83.648,782.20133)"
       clip-path="url(#clipPath73)" />
    <path
       id="path74"
       d="m 91.90912,420.15701 c 0,7.25142 -5.87827,13.12969 -13.1297,13.12969 -7.25142,0 -13.12969,-5.87827 -13.12969,-13.12969 0,-7.25141 5.87827,-13.12968 13.12969,-13.12968 7.25143,0 13.1297,5.87827 13.1297,13.12968 z"
       style="fill:#ffffff;fill-opacity:1;fill-rule:nonzero;stroke:#ffffff;stroke-width:0.3985;stroke-linecap:butt;stroke-linejoin:miter;stroke-miterlimit:10;stroke-dasharray:none;stroke-opacity:1"
       transform="matrix(1.3333333,0,0,-1.3333333,83.648,782.20133)"
       clip-path="url(#clipPath75)" />
    <path
       id="path76"
       d="m 91.85678,420.15701 c 0,7.22251 -5.85484,13.07735 -13.07736,13.07735 -7.2225,0 -13.07735,-5.85484 -13.07735,-13.07735 0,-7.2225 5.85485,-13.07734 13.07735,-13.07734 7.22252,0 13.07736,5.85484 13.07736,13.07734 z"
       style="fill:#000000;fill-opacity:1;fill-rule:nonzero;stroke:#ffffff;stroke-width:1.1998;stroke-linecap:butt;stroke-linejoin:miter;stroke-miterlimit:10;stroke-dasharray:none;stroke-opacity:1"
       transform="matrix(1.3333333,0,0,-1.3333333,83.648,782.20133)"
       clip-path="url(#clipPath77)" />
    <path
       id="path78"
       d="m 65.6493,393.89719 c 0,7.25141 -5.87826,13.1297 -13.12968,13.1297 -7.25142,0 -13.1297,-5.87829 -13.1297,-13.1297 0,-7.25142 5.87828,-13.12969 13.1297,-13.12969 7.25142,0 13.12968,5.87827 13.12968,13.12969 z"
       style="fill:#ffffff;fill-opacity:1;fill-rule:nonzero;stroke:#ffffff;stroke-width:0.3985;stroke-linecap:butt;stroke-linejoin:miter;stroke-miterlimit:10;stroke-dasharray:none;stroke-opacity:1"
       transform="matrix(1.3333333,0,0,-1.3333333,83.648,782.20133)"
       clip-path="url(#clipPath79)" />
    <path
       id="path80"
       d="m 65.59697,393.89719 c 0,7.22251 -5.85484,13.07736 -13.07735,13.07736 -7.2225,0 -13.07734,-5.85485 -13.07734,-13.07736 0,-7.22251 5.85484,-13.07735 13.07734,-13.07735 7.22251,0 13.07735,5.85484 13.07735,13.07735 z"
       style="fill:#000000;fill-opacity:1;fill-rule:nonzero;stroke:#ffffff;stroke-width:1.1998;stroke-linecap:butt;stroke-linejoin:miter;stroke-miterlimit:10;stroke-dasharray:none;stroke-opacity:1"
       transform="matrix(1.3333333,0,0,-1.3333333,83.648,782.20133)"
       clip-path="url(#clipPath81)" />
    <path
       id="path82"
       d="m 91.90912,78.77942 c 0,7.25143 -5.87827,13.1297 -13.1297,13.1297 -7.25142,0 -13.12969,-5.87827 -13.12969,-13.1297 0,-7.25142 5.87827,-13.12969 13.12969,-13.12969 7.25143,0 13.1297,5.87827 13.1297,13.12969 z"
       style="fill:#ffffff;fill-opacity:1;fill-rule:nonzero;stroke:#ffffff;stroke-width:0.3985;stroke-linecap:butt;stroke-linejoin:miter;stroke-miterlimit:10;stroke-dasharray:none;stroke-opacity:1"
       transform="matrix(1.3333333,0,0,-1.3333333,83.648,782.20133)"
       clip-path="url(#clipPath83)" />
    <path
       id="path84"
       d="m 91.85678,78.77942 c 0,7.22252 -5.85484,13.07736 -13.07736,13.07736 -7.2225,0 -13.07735,-5.85484 -13.07735,-13.07736 0,-7.2225 5.85485,-13.07735 13.07735,-13.07735 7.22252,0 13.07736,5.85485 13.07736,13.07735 z"
       style="fill:#000000;fill-opacity:1;fill-rule:nonzero;stroke:#ffffff;stroke-width:1.1998;stroke-linecap:butt;stroke-linejoin:miter;stroke-miterlimit:10;stroke-dasharray:none;stroke-opacity:1"
       transform="matrix(1.3333333,0,0,-1.3333333,83.648,782.20133)"
       clip-path="url(#clipPath85)" />
    <path
       id="path86"
       d="m 144.42874,52.51962 c 0,7.25142 -5.87826,13.12968 -13.12968,13.12968 -7.25142,0 -13.1297,-5.87826 -13.1297,-13.12968 0,-7.25142 5.87828,-13.1297 13.1297,-13.1297 7.25142,0 13.12968,5.87828 13.12968,13.1297 z"
       style="fill:#ffffff;fill-opacity:1;fill-rule:nonzero;stroke:#ffffff;stroke-width:0.3985;stroke-linecap:butt;stroke-linejoin:miter;stroke-miterlimit:10;stroke-dasharray:none;stroke-opacity:1"
       transform="matrix(1.3333333,0,0,-1.3333333,83.648,782.20133)"
       clip-path="url(#clipPath87)" />
    <path
       id="path88"
       d="m 144.3764,52.51962 c 0,7.22251 -5.85484,13.07735 -13.07734,13.07735 -7.22251,0 -13.07735,-5.85484 -13.07735,-13.07735 0,-7.2225 5.85484,-13.07734 13.07735,-13.07734 7.2225,0 13.07734,5.85484 13.07734,13.07734 z"
       style="fill:#000000;fill-opacity:1;fill-rule:nonzero;stroke:#ffffff;stroke-width:1.1998;stroke-linecap:butt;stroke-linejoin:miter;stroke-miterlimit:10;stroke-dasharray:none;stroke-opacity:1"
       transform="matrix(1.3333333,0,0,-1.3333333,83.648,782.20133)"
       clip-path="url(#clipPath89)" />
    <path
       id="path90"
       d="m 196.94838,78.77942 c 0,7.25143 -5.87828,13.1297 -13.1297,13.1297 -7.25142,0 -13.12968,-5.87827 -13.12968,-13.1297 0,-7.25142 5.87826,-13.12969 13.12968,-13.12969 7.25142,0 13.1297,5.87827 13.1297,13.12969 z"
       style="fill:#ffffff;fill-opacity:1;fill-rule:nonzero;stroke:#ffffff;stroke-width:0.3985;stroke-linecap:butt;stroke-linejoin:miter;stroke-miterlimit:10;stroke-dasharray:none;stroke-opacity:1"
       transform="matrix(1.3333333,0,0,-1.3333333,83.648,782.20133)"
       clip-path="url(#clipPath91)" />
    <path
       id="path92"
       d="m 196.89603,78.77942 c 0,7.22252 -5.85485,13.07736 -13.07735,13.07736 -7.2225,0 -13.07735,-5.85484 -13.07735,-13.07736 0,-7.2225 5.85485,-13.07735 13.07735,-13.07735 7.2225,0 13.07735,5.85485 13.07735,13.07735 z"
       style="fill:#000000;fill-opacity:1;fill-rule:nonzero;stroke:#ffffff;stroke-width:1.1998;stroke-linecap:butt;stroke-linejoin:miter;stroke-miterlimit:10;stroke-dasharray:none;stroke-opacity:1"
       transform="matrix(1.3333333,0,0,-1.3333333,83.648,782.20133)"
       clip-path="url(#clipPath93)" />
    <path
       id="path94"
       d="m 170.68857,78.77942 c 0,7.25143 -5.87827,13.1297 -13.1297,13.1297 -7.25142,0 -13.12969,-5.87827 -13.12969,-13.1297 0,-7.25142 5.87827,-13.12969 13.12969,-13.12969 7.25143,0 13.1297,5.87827 13.1297,13.12969 z"
       style="fill:#ffffff;fill-opacity:1;fill-rule:nonzero;stroke:#ffffff;stroke-width:0.3985;stroke-linecap:butt;stroke-linejoin:miter;stroke-miterlimit:10;stroke-dasharray:none;stroke-opacity:1"
       transform="matrix(1.3333333,0,0,-1.3333333,83.648,782.20133)"
       clip-path="url(#clipPath95)" />
    <path
       id="path96"
       d="m 170.63623,78.77942 c 0,7.22252 -5.85484,13.07736 -13.07736,13.07736 -7.22251,0 -13.07735,-5.85484 -13.07735,-13.07736 0,-7.2225 5.85484,-13.07735 13.07735,-13.07735 7.22252,0 13.07736,5.85485 13.07736,13.07735 z"
       style="fill:#000000;fill-opacity:1;fill-rule:nonzero;stroke:#ffffff;stroke-width:1.1998;stroke-linecap:butt;stroke-linejoin:miter;stroke-miterlimit:10;stroke-dasharray:none;stroke-opacity:1"
       transform="matrix(1.3333333,0,0,-1.3333333,83.648,782.20133)"
       clip-path="url(#clipPath97)" />
    <path
       id="path98"
       d="m 223.20819,52.51962 c 0,7.25142 -5.87826,13.12968 -13.12969,13.12968 -7.25141,0 -13.1297,-5.87826 -13.1297,-13.12968 0,-7.25142 5.87829,-13.1297 13.1297,-13.1297 7.25143,0 13.12969,5.87828 13.12969,13.1297 z"
       style="fill:#ffffff;fill-opacity:1;fill-rule:nonzero;stroke:#ffffff;stroke-width:0.3985;stroke-linecap:butt;stroke-linejoin:miter;stroke-miterlimit:10;stroke-dasharray:none;stroke-opacity:1"
       transform="matrix(1.3333333,0,0,-1.3333333,83.648,782.20133)"
       clip-path="url(#clipPath99)" />
    <path
       id="path100"
       d="m 223.15585,52.51962 c 0,7.22251 -5.85484,13.07735 -13.07735,13.07735 -7.2225,0 -13.07734,-5.85484 -13.07734,-13.07735 0,-7.2225 5.85484,-13.07734 13.07734,-13.07734 7.22251,0 13.07735,5.85484 13.07735,13.07734 z"
       style="fill:#000000;fill-opacity:1;fill-rule:nonzero;stroke:#ffffff;stroke-width:1.1998;stroke-linecap:butt;stroke-linejoin:miter;stroke-miterlimit:10;stroke-dasharray:none;stroke-opacity:1"
       transform="matrix(1.3333333,0,0,-1.3333333,83.648,782.20133)"
       clip-path="url(#clipPath101)" />
    <path
       id="path102"
       d="m 249.468,52.51962 c 0,7.25142 -5.87828,13.12968 -13.1297,13.12968 -7.25142,0 -13.12968,-5.87826 -13.12968,-13.12968 0,-7.25142 5.87826,-13.1297 13.12968,-13.1297 7.25142,0 13.1297,5.87828 13.1297,13.1297 z"
       style="fill:#ffffff;fill-opacity:1;fill-rule:nonzero;stroke:#ffffff;stroke-width:0.3985;stroke-linecap:butt;stroke-linejoin:miter;stroke-miterlimit:10;stroke-dasharray:none;stroke-opacity:1"
       transform="matrix(1.3333333,0,0,-1.3333333,83.648,782.20133)"
       clip-path="url(#clipPath103)" />
    <path
       id="path104"
       d="m 249.41566,52.51962 c 0,7.22251 -5.85484,13.07735 -13.07736,13.07735 -7.2225,0 -13.07734,-5.85484 -13.07734,-13.07735 0,-7.2225 5.85484,-13.07734 13.07734,-13.07734 7.22252,0 13.07736,5.85484 13.07736,13.07734 z"
       style="fill:#000000;fill-opacity:1;fill-rule:nonzero;stroke:#ffffff;stroke-width:1.1998;stroke-linecap:butt;stroke-linejoin:miter;stroke-miterlimit:10;stroke-dasharray:none;stroke-opacity:1"
       transform="matrix(1.3333333,0,0,-1.3333333,83.648,782.20133)"
       clip-path="url(#clipPath105)" />
    <path
       id="path106"
       d="m 433.2867,105.03925 c 0,7.25141 -5.87827,13.1297 -13.12969,13.1297 -7.25141,0 -13.12968,-5.87829 -13.12968,-13.1297 0,-7.25142 5.87827,-13.12969 13.12968,-13.12969 7.25142,0 13.12969,5.87827 13.12969,13.12969 z"
       style="fill:#ffffff;fill-opacity:1;fill-rule:nonzero;stroke:#ffffff;stroke-width:0.3985;stroke-linecap:butt;stroke-linejoin:miter;stroke-miterlimit:10;stroke-dasharray:none;stroke-opacity:1"
       transform="matrix(1.3333333,0,0,-1.3333333,83.648,782.20133)"
       clip-path="url(#clipPath107)" />
    <path
       id="path108"
       d="m 433.23436,105.03925 c 0,7.2225 -5.85484,13.07735 -13.07735,13.07735 -7.2225,0 -13.07734,-5.85485 -13.07734,-13.07735 0,-7.22251 5.85484,-13.07735 13.07734,-13.07735 7.22251,0 13.07735,5.85484 13.07735,13.07735 z"
       style="fill:#000000;fill-opacity:1;fill-rule:nonzero;stroke:#ffffff;stroke-width:1.1998;stroke-linecap:butt;stroke-linejoin:miter;stroke-miterlimit:10;stroke-dasharray:none;stroke-opacity:1"
       transform="matrix(1.3333333,0,0,-1.3333333,83.648,782.20133)"
       clip-path="url(#clipPath109)" />
    <path
       id="path110"
       d="m 433.2867,210.0785 c 0,7.25143 -5.87827,13.12969 -13.12969,13.12969 -7.25141,0 -13.12968,-5.87826 -13.12968,-13.12969 0,-7.25141 5.87827,-13.1297 13.12968,-13.1297 7.25142,0 13.12969,5.87829 13.12969,13.1297 z"
       style="fill:#ffffff;fill-opacity:1;fill-rule:nonzero;stroke:#ffffff;stroke-width:0.3985;stroke-linecap:butt;stroke-linejoin:miter;stroke-miterlimit:10;stroke-dasharray:none;stroke-opacity:1"
       transform="matrix(1.3333333,0,0,-1.3333333,83.648,782.20133)"
       clip-path="url(#clipPath111)" />
    <path
       id="path112"
       d="m 433.23436,210.0785 c 0,7.22251 -5.85484,13.07735 -13.07735,13.07735 -7.2225,0 -13.07734,-5.85484 -13.07734,-13.07735 0,-7.2225 5.85484,-13.07734 13.07734,-13.07734 7.22251,0 13.07735,5.85484 13.07735,13.07734 z"
       style="fill:#000000;fill-opacity:1;fill-rule:nonzero;stroke:#ffffff;stroke-width:1.1998;stroke-linecap:butt;stroke-linejoin:miter;stroke-miterlimit:10;stroke-dasharray:none;stroke-opacity:1"
       transform="matrix(1.3333333,0,0,-1.3333333,83.648,782.20133)"
       clip-path="url(#clipPath113)" />
    <path
       id="path114"
       d="m 144.42874,26.2598 c 0,7.25142 -5.87826,13.1297 -13.12968,13.1297 -7.25142,0 -13.1297,-5.87828 -13.1297,-13.1297 0,-7.25142 5.87828,-13.12969 13.1297,-13.12969 7.25142,0 13.12968,5.87827 13.12968,13.12969 z"
       style="fill:#ffffff;fill-opacity:1;fill-rule:nonzero;stroke:#ffffff;stroke-width:0.3985;stroke-linecap:butt;stroke-linejoin:miter;stroke-miterlimit:10;stroke-dasharray:none;stroke-opacity:1"
       transform="matrix(1.3333333,0,0,-1.3333333,83.648,782.20133)"
       clip-path="url(#clipPath115)" />
    <path
       id="path116"
       d="m 144.3764,26.2598 c 0,7.2225 -5.85484,13.07734 -13.07734,13.07734 -7.22251,0 -13.07735,-5.85484 -13.07735,-13.07734 0,-7.2225 5.85484,-13.07735 13.07735,-13.07735 7.2225,0 13.07734,5.85485 13.07734,13.07735 z"
       style="fill:#000000;fill-opacity:1;fill-rule:nonzero;stroke:#ffffff;stroke-width:1.1998;stroke-linecap:butt;stroke-linejoin:miter;stroke-miterlimit:10;stroke-dasharray:none;stroke-opacity:1"
       transform="matrix(1.3333333,0,0,-1.3333333,83.648,782.20133)"
       clip-path="url(#clipPath117)" />
    <path
       id="path118"
       d="m 407.02689,420.15701 c 0,7.25142 -5.87829,13.12969 -13.1297,13.12969 -7.25142,0 -13.12969,-5.87827 -13.12969,-13.12969 0,-7.25141 5.87827,-13.12968 13.12969,-13.12968 7.25141,0 13.1297,5.87827 13.1297,13.12968 z"
       style="fill:#ffffff;fill-opacity:1;fill-rule:nonzero;stroke:#ffffff;stroke-width:0.3985;stroke-linecap:butt;stroke-linejoin:miter;stroke-miterlimit:10;stroke-dasharray:none;stroke-opacity:1"
       transform="matrix(1.3333333,0,0,-1.3333333,83.648,782.20133)"
       clip-path="url(#clipPath119)" />
    <path
       id="path120"
       d="m 405.87805,420.15701 c 0,6.61693 -5.36394,11.98087 -11.98086,11.98087 -6.61692,0 -11.98085,-5.36394 -11.98085,-11.98087 0,-6.61691 5.36393,-11.98086 11.98085,-11.98086 6.61692,0 11.98086,5.36395 11.98086,11.98086 z"
       style="fill:#ffffff;fill-opacity:1;fill-rule:nonzero;stroke:#000000;stroke-width:1.1998;stroke-linecap:butt;stroke-linejoin:miter;stroke-miterlimit:10;stroke-dasharray:none;stroke-opacity:1"
       transform="matrix(1.3333333,0,0,-1.3333333,83.648,782.20133)"
       clip-path="url(#clipPath121)" />
    <path
       id="path122"
       d="m 407.02689,393.89719 c 0,7.25141 -5.87829,13.1297 -13.1297,13.1297 -7.25142,0 -13.12969,-5.87829 -13.12969,-13.1297 0,-7.25142 5.87827,-13.12969 13.12969,-13.12969 7.25141,0 13.1297,5.87827 13.1297,13.12969 z"
       style="fill:#ffffff;fill-opacity:1;fill-rule:nonzero;stroke:#ffffff;stroke-width:0.3985;stroke-linecap:butt;stroke-linejoin:miter;stroke-miterlimit:10;stroke-dasharray:none;stroke-opacity:1"
       transform="matrix(1.3333333,0,0,-1.3333333,83.648,782.20133)"
       clip-path="url(#clipPath123)" />
    <path
       id="path124"
       d="m 405.87805,393.89719 c 0,6.61692 -5.36394,11.98086 -11.98086,11.98086 -6.61692,0 -11.98085,-5.36394 -11.98085,-11.98086 0,-6.61692 5.36393,-11.98085 11.98085,-11.98085 6.61692,0 11.98086,5.36393 11.98086,11.98085 z"
       style="fill:#ffffff;fill-opacity:1;fill-rule:nonzero;stroke:#000000;stroke-width:1.1998;stroke-linecap:butt;stroke-linejoin:miter;stroke-miterlimit:10;stroke-dasharray:none;stroke-opacity:1"
       transform="matrix(1.3333333,0,0,-1.3333333,83.648,782.20133)"
       clip-path="url(#clipPath125)" />
    <path
       id="path126"
       d="m 407.02689,367.63739 c 0,7.25142 -5.87829,13.12968 -13.1297,13.12968 -7.25142,0 -13.12969,-5.87826 -13.12969,-13.12968 0,-7.25142 5.87827,-13.1297 13.12969,-13.1297 7.25141,0 13.1297,5.87828 13.1297,13.1297 z"
       style="fill:#ffffff;fill-opacity:1;fill-rule:nonzero;stroke:#ffffff;stroke-width:0.3985;stroke-linecap:butt;stroke-linejoin:miter;stroke-miterlimit:10;stroke-dasharray:none;stroke-opacity:1"
       transform="matrix(1.3333333,0,0,-1.3333333,83.648,782.20133)"
       clip-path="url(#clipPath127)" />
    <path
       id="path128"
       d="m 405.87805,367.63739 c 0,6.61691 -5.36394,11.98085 -11.98086,11.98085 -6.61692,0 -11.98085,-5.36394 -11.98085,-11.98085 0,-6.61693 5.36393,-11.98087 11.98085,-11.98087 6.61692,0 11.98086,5.36394 11.98086,11.98087 z"
       style="fill:#ffffff;fill-opacity:1;fill-rule:nonzero;stroke:#000000;stroke-width:1.1998;stroke-linecap:butt;stroke-linejoin:miter;stroke-miterlimit:10;stroke-dasharray:none;stroke-opacity:1"
       transform="matrix(1.3333333,0,0,-1.3333333,83.648,782.20133)"
       clip-path="url(#clipPath129)" />
    <path
       id="path130"
       d="m 407.02689,315.11775 c 0,7.25142 -5.87829,13.1297 -13.1297,13.1297 -7.25142,0 -13.12969,-5.87828 -13.12969,-13.1297 0,-7.25142 5.87827,-13.12968 13.12969,-13.12968 7.25141,0 13.1297,5.87826 13.1297,13.12968 z"
       style="fill:#ffffff;fill-opacity:1;fill-rule:nonzero;stroke:#ffffff;stroke-width:0.3985;stroke-linecap:butt;stroke-linejoin:miter;stroke-miterlimit:10;stroke-dasharray:none;stroke-opacity:1"
       transform="matrix(1.3333333,0,0,-1.3333333,83.648,782.20133)"
       clip-path="url(#clipPath131)" />
    <path
       id="path132"
       d="m 405.87805,315.11775 c 0,6.61693 -5.36394,11.98087 -11.98086,11.98087 -6.61692,0 -11.98085,-5.36394 -11.98085,-11.98087 0,-6.61691 5.36393,-11.98085 11.98085,-11.98085 6.61692,0 11.98086,5.36394 11.98086,11.98085 z"
       style="fill:#ffffff;fill-opacity:1;fill-rule:nonzero;stroke:#000000;stroke-width:1.1998;stroke-linecap:butt;stroke-linejoin:miter;stroke-miterlimit:10;stroke-dasharray:none;stroke-opacity:1"
       transform="matrix(1.3333333,0,0,-1.3333333,83.648,782.20133)"
       clip-path="url(#clipPath133)" />
    <path
       id="path134"
       d="m 380.76707,315.11775 c 0,7.25142 -5.87826,13.1297 -13.12968,13.1297 -7.25142,0 -13.1297,-5.87828 -13.1297,-13.1297 0,-7.25142 5.87828,-13.12968 13.1297,-13.12968 7.25142,0 13.12968,5.87826 13.12968,13.12968 z"
       style="fill:#ffffff;fill-opacity:1;fill-rule:nonzero;stroke:#ffffff;stroke-width:0.3985;stroke-linecap:butt;stroke-linejoin:miter;stroke-miterlimit:10;stroke-dasharray:none;stroke-opacity:1"
       transform="matrix(1.3333333,0,0,-1.3333333,83.648,782.20133)"
       clip-path="url(#clipPath135)" />
    <path
       id="path136"
       d="m 379.61824,315.11775 c 0,6.61693 -5.36394,11.98087 -11.98085,11.98087 -6.61693,0 -11.98087,-5.36394 -11.98087,-11.98087 0,-6.61691 5.36394,-11.98085 11.98087,-11.98085 6.61691,0 11.98085,5.36394 11.98085,11.98085 z"
       style="fill:#ffffff;fill-opacity:1;fill-rule:nonzero;stroke:#000000;stroke-width:1.1998;stroke-linecap:butt;stroke-linejoin:miter;stroke-miterlimit:10;stroke-dasharray:none;stroke-opacity:1"
       transform="matrix(1.3333333,0,0,-1.3333333,83.648,782.20133)"
       clip-path="url(#clipPath137)" />
    <path
       id="path138"
       d="m 328.24745,315.11775 c 0,7.25142 -5.87828,13.1297 -13.1297,13.1297 -7.25142,0 -13.12968,-5.87828 -13.12968,-13.1297 0,-7.25142 5.87826,-13.12968 13.12968,-13.12968 7.25142,0 13.1297,5.87826 13.1297,13.12968 z"
       style="fill:#ffffff;fill-opacity:1;fill-rule:nonzero;stroke:#ffffff;stroke-width:0.3985;stroke-linecap:butt;stroke-linejoin:miter;stroke-miterlimit:10;stroke-dasharray:none;stroke-opacity:1"
       transform="matrix(1.3333333,0,0,-1.3333333,83.648,782.20133)"
       clip-path="url(#clipPath139)" />
    <path
       id="path140"
       d="m 327.09862,315.11775 c 0,6.61693 -5.36394,11.98087 -11.98087,11.98087 -6.61691,0 -11.98085,-5.36394 -11.98085,-11.98087 0,-6.61691 5.36394,-11.98085 11.98085,-11.98085 6.61693,0 11.98087,5.36394 11.98087,11.98085 z"
       style="fill:#ffffff;fill-opacity:1;fill-rule:nonzero;stroke:#000000;stroke-width:1.1998;stroke-linecap:butt;stroke-linejoin:miter;stroke-miterlimit:10;stroke-dasharray:none;stroke-opacity:1"
       transform="matrix(1.3333333,0,0,-1.3333333,83.648,782.20133)"
       clip-path="url(#clipPath141)" />
    <path
       id="path142"
       d="m 275.72781,393.89719 c 0,7.25141 -5.87826,13.1297 -13.12968,13.1297 -7.25142,0 -13.12969,-5.87829 -13.12969,-13.1297 0,-7.25142 5.87827,-13.12969 13.12969,-13.12969 7.25142,0 13.12968,5.87827 13.12968,13.12969 z"
       style="fill:#ffffff;fill-opacity:1;fill-rule:nonzero;stroke:#ffffff;stroke-width:0.3985;stroke-linecap:butt;stroke-linejoin:miter;stroke-miterlimit:10;stroke-dasharray:none;stroke-opacity:1"
       transform="matrix(1.3333333,0,0,-1.3333333,83.648,782.20133)"
       clip-path="url(#clipPath143)" />
    <path
       id="path144"
       d="m 274.579,393.89719 c 0,6.61692 -5.36394,11.98086 -11.98087,11.98086 -6.61691,0 -11.98087,-5.36394 -11.98087,-11.98086 0,-6.61692 5.36396,-11.98085 11.98087,-11.98085 6.61693,0 11.98087,5.36393 11.98087,11.98085 z"
       style="fill:#ffffff;fill-opacity:1;fill-rule:nonzero;stroke:#000000;stroke-width:1.1998;stroke-linecap:butt;stroke-linejoin:miter;stroke-miterlimit:10;stroke-dasharray:none;stroke-opacity:1"
       transform="matrix(1.3333333,0,0,-1.3333333,83.648,782.20133)"
       clip-path="url(#clipPath145)" />
    <path
       id="path146"
       d="m 65.6493,367.63739 c 0,7.25142 -5.87826,13.12968 -13.12968,13.12968 -7.25142,0 -13.1297,-5.87826 -13.1297,-13.12968 0,-7.25142 5.87828,-13.1297 13.1297,-13.1297 7.25142,0 13.12968,5.87828 13.12968,13.1297 z"
       style="fill:#ffffff;fill-opacity:1;fill-rule:nonzero;stroke:#ffffff;stroke-width:0.3985;stroke-linecap:butt;stroke-linejoin:miter;stroke-miterlimit:10;stroke-dasharray:none;stroke-opacity:1"
       transform="matrix(1.3333333,0,0,-1.3333333,83.648,782.20133)"
       clip-path="url(#clipPath147)" />
    <path
       id="path148"
       d="m 64.50049,367.63739 c 0,6.61691 -5.36395,11.98085 -11.98087,11.98085 -6.61692,0 -11.98086,-5.36394 -11.98086,-11.98085 0,-6.61693 5.36394,-11.98087 11.98086,-11.98087 6.61692,0 11.98087,5.36394 11.98087,11.98087 z"
       style="fill:#ffffff;fill-opacity:1;fill-rule:nonzero;stroke:#000000;stroke-width:1.1998;stroke-linecap:butt;stroke-linejoin:miter;stroke-miterlimit:10;stroke-dasharray:none;stroke-opacity:1"
       transform="matrix(1.3333333,0,0,-1.3333333,83.648,782.20133)"
       clip-path="url(#clipPath149)" />
    <path
       id="path150"
       d="m 91.90912,367.63739 c 0,7.25142 -5.87827,13.12968 -13.1297,13.12968 -7.25142,0 -13.12969,-5.87826 -13.12969,-13.12968 0,-7.25142 5.87827,-13.1297 13.12969,-13.1297 7.25143,0 13.1297,5.87828 13.1297,13.1297 z"
       style="fill:#ffffff;fill-opacity:1;fill-rule:nonzero;stroke:#ffffff;stroke-width:0.3985;stroke-linecap:butt;stroke-linejoin:miter;stroke-miterlimit:10;stroke-dasharray:none;stroke-opacity:1"
       transform="matrix(1.3333333,0,0,-1.3333333,83.648,782.20133)"
       clip-path="url(#clipPath151)" />
    <path
       id="path152"
       d="m 90.76028,367.63739 c 0,6.61691 -5.36393,11.98085 -11.98086,11.98085 -6.61692,0 -11.98085,-5.36394 -11.98085,-11.98085 0,-6.61693 5.36393,-11.98087 11.98085,-11.98087 6.61693,0 11.98086,5.36394 11.98086,11.98087 z"
       style="fill:#ffffff;fill-opacity:1;fill-rule:nonzero;stroke:#000000;stroke-width:1.1998;stroke-linecap:butt;stroke-linejoin:miter;stroke-miterlimit:10;stroke-dasharray:none;stroke-opacity:1"
       transform="matrix(1.3333333,0,0,-1.3333333,83.648,782.20133)"
       clip-path="url(#clipPath153)" />
    <path
       id="path154"
       d="m 91.90912,262.59813 c 0,7.25142 -5.87827,13.12968 -13.1297,13.12968 -7.25142,0 -13.12969,-5.87826 -13.12969,-13.12968 0,-7.25142 5.87827,-13.12969 13.12969,-13.12969 7.25143,0 13.1297,5.87827 13.1297,13.12969 z"
       style="fill:#ffffff;fill-opacity:1;fill-rule:nonzero;stroke:#ffffff;stroke-width:0.3985;stroke-linecap:butt;stroke-linejoin:miter;stroke-miterlimit:10;stroke-dasharray:none;stroke-opacity:1"
       transform="matrix(1.3333333,0,0,-1.3333333,83.648,782.20133)"
       clip-path="url(#clipPath155)" />
    <path
       id="path156"
       d="m 90.76028,262.59813 c 0,6.61693 -5.36393,11.98087 -11.98086,11.98087 -6.61692,0 -11.98085,-5.36394 -11.98085,-11.98087 0,-6.61691 5.36393,-11.98087 11.98085,-11.98087 6.61693,0 11.98086,5.36396 11.98086,11.98087 z"
       style="fill:#ffffff;fill-opacity:1;fill-rule:nonzero;stroke:#000000;stroke-width:1.1998;stroke-linecap:butt;stroke-linejoin:miter;stroke-miterlimit:10;stroke-dasharray:none;stroke-opacity:1"
       transform="matrix(1.3333333,0,0,-1.3333333,83.648,782.20133)"
       clip-path="url(#clipPath157)" />
    <path
       id="path158"
       d="m 65.6493,131.29906 c 0,7.25142 -5.87826,13.12968 -13.12968,13.12968 -7.25142,0 -13.1297,-5.87826 -13.1297,-13.12968 0,-7.25142 5.87828,-13.1297 13.1297,-13.1297 7.25142,0 13.12968,5.87828 13.12968,13.1297 z"
       style="fill:#ffffff;fill-opacity:1;fill-rule:nonzero;stroke:#ffffff;stroke-width:0.3985;stroke-linecap:butt;stroke-linejoin:miter;stroke-miterlimit:10;stroke-dasharray:none;stroke-opacity:1"
       transform="matrix(1.3333333,0,0,-1.3333333,83.648,782.20133)"
       clip-path="url(#clipPath159)" />
    <path
       id="path160"
       d="m 64.50049,131.29906 c 0,6.61691 -5.36395,11.98086 -11.98087,11.98086 -6.61692,0 -11.98086,-5.36395 -11.98086,-11.98086 0,-6.61693 5.36394,-11.98087 11.98086,-11.98087 6.61692,0 11.98087,5.36394 11.98087,11.98087 z"
       style="fill:#ffffff;fill-opacity:1;fill-rule:nonzero;stroke:#000000;stroke-width:1.1998;stroke-linecap:butt;stroke-linejoin:miter;stroke-miterlimit:10;stroke-dasharray:none;stroke-opacity:1"
       transform="matrix(1.3333333,0,0,-1.3333333,83.648,782.20133)"
       clip-path="url(#clipPath161)" />
    <path
       id="path162"
       d="m 196.94838,52.51962 c 0,7.25142 -5.87828,13.12968 -13.1297,13.12968 -7.25142,0 -13.12968,-5.87826 -13.12968,-13.12968 0,-7.25142 5.87826,-13.1297 13.12968,-13.1297 7.25142,0 13.1297,5.87828 13.1297,13.1297 z"
       style="fill:#ffffff;fill-opacity:1;fill-rule:nonzero;stroke:#ffffff;stroke-width:0.3985;stroke-linecap:butt;stroke-linejoin:miter;stroke-miterlimit:10;stroke-dasharray:none;stroke-opacity:1"
       transform="matrix(1.3333333,0,0,-1.3333333,83.648,782.20133)"
       clip-path="url(#clipPath163)" />
    <path
       id="path164"
       d="m 195.79955,52.51962 c 0,6.61692 -5.36394,11.98087 -11.98087,11.98087 -6.61691,0 -11.98087,-5.36395 -11.98087,-11.98087 0,-6.61692 5.36396,-11.98086 11.98087,-11.98086 6.61693,0 11.98087,5.36394 11.98087,11.98086 z"
       style="fill:#ffffff;fill-opacity:1;fill-rule:nonzero;stroke:#000000;stroke-width:1.1998;stroke-linecap:butt;stroke-linejoin:miter;stroke-miterlimit:10;stroke-dasharray:none;stroke-opacity:1"
       transform="matrix(1.3333333,0,0,-1.3333333,83.648,782.20133)"
       clip-path="url(#clipPath165)" />
    <path
       id="path166"
       d="m 170.68857,52.51962 c 0,7.25142 -5.87827,13.12968 -13.1297,13.12968 -7.25142,0 -13.12969,-5.87826 -13.12969,-13.12968 0,-7.25142 5.87827,-13.1297 13.12969,-13.1297 7.25143,0 13.1297,5.87828 13.1297,13.1297 z"
       style="fill:#ffffff;fill-opacity:1;fill-rule:nonzero;stroke:#ffffff;stroke-width:0.3985;stroke-linecap:butt;stroke-linejoin:miter;stroke-miterlimit:10;stroke-dasharray:none;stroke-opacity:1"
       transform="matrix(1.3333333,0,0,-1.3333333,83.648,782.20133)"
       clip-path="url(#clipPath167)" />
    <path
       id="path168"
       d="m 169.53973,52.51962 c 0,6.61692 -5.36393,11.98087 -11.98086,11.98087 -6.61691,0 -11.98085,-5.36395 -11.98085,-11.98087 0,-6.61692 5.36394,-11.98086 11.98085,-11.98086 6.61693,0 11.98086,5.36394 11.98086,11.98086 z"
       style="fill:#ffffff;fill-opacity:1;fill-rule:nonzero;stroke:#000000;stroke-width:1.1998;stroke-linecap:butt;stroke-linejoin:miter;stroke-miterlimit:10;stroke-dasharray:none;stroke-opacity:1"
       transform="matrix(1.3333333,0,0,-1.3333333,83.648,782.20133)"
       clip-path="url(#clipPath169)" />
    <path
       id="path170"
       d="m 170.68857,26.2598 c 0,7.25142 -5.87827,13.1297 -13.1297,13.1297 -7.25142,0 -13.12969,-5.87828 -13.12969,-13.1297 0,-7.25142 5.87827,-13.12969 13.12969,-13.12969 7.25143,0 13.1297,5.87827 13.1297,13.12969 z"
       style="fill:#ffffff;fill-opacity:1;fill-rule:nonzero;stroke:#ffffff;stroke-width:0.3985;stroke-linecap:butt;stroke-linejoin:miter;stroke-miterlimit:10;stroke-dasharray:none;stroke-opacity:1"
       transform="matrix(1.3333333,0,0,-1.3333333,83.648,782.20133)"
       clip-path="url(#clipPath171)" />
    <path
       id="path172"
       d="m 169.53973,26.2598 c 0,6.61692 -5.36393,11.98086 -11.98086,11.98086 -6.61691,0 -11.98085,-5.36394 -11.98085,-11.98086 0,-6.61692 5.36394,-11.98087 11.98085,-11.98087 6.61693,0 11.98086,5.36395 11.98086,11.98087 z"
       style="fill:#ffffff;fill-opacity:1;fill-rule:nonzero;stroke:#000000;stroke-width:1.1998;stroke-linecap:butt;stroke-linejoin:miter;stroke-miterlimit:10;stroke-dasharray:none;stroke-opacity:1"
       transform="matrix(1.3333333,0,0,-1.3333333,83.648,782.20133)"
       clip-path="url(#clipPath173)" />
    <path
       id="path174"
       d="m 223.20819,26.2598 c 0,7.25142 -5.87826,13.1297 -13.12969,13.1297 -7.25141,0 -13.1297,-5.87828 -13.1297,-13.1297 0,-7.25142 5.87829,-13.12969 13.1297,-13.12969 7.25143,0 13.12969,5.87827 13.12969,13.12969 z"
       style="fill:#ffffff;fill-opacity:1;fill-rule:nonzero;stroke:#ffffff;stroke-width:0.3985;stroke-linecap:butt;stroke-linejoin:miter;stroke-miterlimit:10;stroke-dasharray:none;stroke-opacity:1"
       transform="matrix(1.3333333,0,0,-1.3333333,83.648,782.20133)"
       clip-path="url(#clipPath175)" />
    <path
       id="path176"
       d="m 222.05937,26.2598 c 0,6.61692 -5.36395,11.98086 -11.98087,11.98086 -6.61692,0 -11.98086,-5.36394 -11.98086,-11.98086 0,-6.61692 5.36394,-11.98087 11.98086,-11.98087 6.61692,0 11.98087,5.36395 11.98087,11.98087 z"
       style="fill:#ffffff;fill-opacity:1;fill-rule:nonzero;stroke:#000000;stroke-width:1.1998;stroke-linecap:butt;stroke-linejoin:miter;stroke-miterlimit:10;stroke-dasharray:none;stroke-opacity:1"
       transform="matrix(1.3333333,0,0,-1.3333333,83.648,782.20133)"
       clip-path="url(#clipPath177)" />
    <path
       id="path178"
       d="m 407.02689,52.51962 c 0,7.25142 -5.87829,13.12968 -13.1297,13.12968 -7.25142,0 -13.12969,-5.87826 -13.12969,-13.12968 0,-7.25142 5.87827,-13.1297 13.12969,-13.1297 7.25141,0 13.1297,5.87828 13.1297,13.1297 z"
       style="fill:#ffffff;fill-opacity:1;fill-rule:nonzero;stroke:#ffffff;stroke-width:0.3985;stroke-linecap:butt;stroke-linejoin:miter;stroke-miterlimit:10;stroke-dasharray:none;stroke-opacity:1"
       transform="matrix(1.3333333,0,0,-1.3333333,83.648,782.20133)"
       clip-path="url(#clipPath179)" />
    <path
       id="path180"
       d="m 405.87805,52.51962 c 0,6.61692 -5.36394,11.98087 -11.98086,11.98087 -6.61692,0 -11.98085,-5.36395 -11.98085,-11.98087 0,-6.61692 5.36393,-11.98086 11.98085,-11.98086 6.61692,0 11.98086,5.36394 11.98086,11.98086 z"
       style="fill:#ffffff;fill-opacity:1;fill-rule:nonzero;stroke:#000000;stroke-width:1.1998;stroke-linecap:butt;stroke-linejoin:miter;stroke-miterlimit:10;stroke-dasharray:none;stroke-opacity:1"
       transform="matrix(1.3333333,0,0,-1.3333333,83.648,782.20133)"
       clip-path="url(#clipPath181)" />
    <path
       id="path182"
       d="m 380.76707,78.77942 c 0,7.25143 -5.87826,13.1297 -13.12968,13.1297 -7.25142,0 -13.1297,-5.87827 -13.1297,-13.1297 0,-7.25142 5.87828,-13.12969 13.1297,-13.12969 7.25142,0 13.12968,5.87827 13.12968,13.12969 z"
       style="fill:#ffffff;fill-opacity:1;fill-rule:nonzero;stroke:#ffffff;stroke-width:0.3985;stroke-linecap:butt;stroke-linejoin:miter;stroke-miterlimit:10;stroke-dasharray:none;stroke-opacity:1"
       transform="matrix(1.3333333,0,0,-1.3333333,83.648,782.20133)"
       clip-path="url(#clipPath183)" />
    <path
       id="path184"
       d="m 379.61824,78.77942 c 0,6.61693 -5.36394,11.98086 -11.98085,11.98086 -6.61693,0 -11.98087,-5.36393 -11.98087,-11.98086 0,-6.61692 5.36394,-11.98085 11.98087,-11.98085 6.61691,0 11.98085,5.36393 11.98085,11.98085 z"
       style="fill:#ffffff;fill-opacity:1;fill-rule:nonzero;stroke:#000000;stroke-width:1.1998;stroke-linecap:butt;stroke-linejoin:miter;stroke-miterlimit:10;stroke-dasharray:none;stroke-opacity:1"
       transform="matrix(1.3333333,0,0,-1.3333333,83.648,782.20133)"
       clip-path="url(#clipPath185)" />
    <path
       id="path186"
       d="m 433.2867,157.55887 c 0,7.25143 -5.87827,13.1297 -13.12969,13.1297 -7.25141,0 -13.12968,-5.87827 -13.12968,-13.1297 0,-7.25142 5.87827,-13.12969 13.12968,-13.12969 7.25142,0 13.12969,5.87827 13.12969,13.12969 z"
       style="fill:#ffffff;fill-opacity:1;fill-rule:nonzero;stroke:#ffffff;stroke-width:0.3985;stroke-linecap:butt;stroke-linejoin:miter;stroke-miterlimit:10;stroke-dasharray:none;stroke-opacity:1"
       transform="matrix(1.3333333,0,0,-1.3333333,83.648,782.20133)"
       clip-path="url(#clipPath187)" />
    <path
       id="path188"
       d="m 432.13788,157.55887 c 0,6.61693 -5.36394,11.98086 -11.98087,11.98086 -6.61691,0 -11.98086,-5.36393 -11.98086,-11.98086 0,-6.61691 5.36395,-11.98085 11.98086,-11.98085 6.61693,0 11.98087,5.36394 11.98087,11.98085 z"
       style="fill:#ffffff;fill-opacity:1;fill-rule:nonzero;stroke:#000000;stroke-width:1.1998;stroke-linecap:butt;stroke-linejoin:miter;stroke-miterlimit:10;stroke-dasharray:none;stroke-opacity:1"
       transform="matrix(1.3333333,0,0,-1.3333333,83.648,782.20133)"
       clip-path="url(#clipPath189)" />
    <path
       id="path190"
       d="m 380.76707,157.55887 c 0,7.25143 -5.87826,13.1297 -13.12968,13.1297 -7.25142,0 -13.1297,-5.87827 -13.1297,-13.1297 0,-7.25142 5.87828,-13.12969 13.1297,-13.12969 7.25142,0 13.12968,5.87827 13.12968,13.12969 z"
       style="fill:#ffffff;fill-opacity:1;fill-rule:nonzero;stroke:#ffffff;stroke-width:0.3985;stroke-linecap:butt;stroke-linejoin:miter;stroke-miterlimit:10;stroke-dasharray:none;stroke-opacity:1"
       transform="matrix(1.3333333,0,0,-1.3333333,83.648,782.20133)"
       clip-path="url(#clipPath191)" />
    <path
       id="path192"
       d="m 379.61824,157.55887 c 0,6.61693 -5.36394,11.98086 -11.98085,11.98086 -6.61693,0 -11.98087,-5.36393 -11.98087,-11.98086 0,-6.61691 5.36394,-11.98085 11.98087,-11.98085 6.61691,0 11.98085,5.36394 11.98085,11.98085 z"
       style="fill:#ffffff;fill-opacity:1;fill-rule:nonzero;stroke:#000000;stroke-width:1.1998;stroke-linecap:butt;stroke-linejoin:miter;stroke-miterlimit:10;stroke-dasharray:none;stroke-opacity:1"
       transform="matrix(1.3333333,0,0,-1.3333333,83.648,782.20133)"
       clip-path="url(#clipPath193)" />
    <path
       id="path194"
       d="m 144.42874,131.29906 c 0,7.25142 -5.87826,13.12968 -13.12968,13.12968 -7.25142,0 -13.1297,-5.87826 -13.1297,-13.12968 0,-7.25142 5.87828,-13.1297 13.1297,-13.1297 7.25142,0 13.12968,5.87828 13.12968,13.1297 z"
       style="fill:#ffffff;fill-opacity:1;fill-rule:nonzero;stroke:#ffffff;stroke-width:0.3985;stroke-linecap:butt;stroke-linejoin:miter;stroke-miterlimit:10;stroke-dasharray:none;stroke-opacity:1"
       transform="matrix(1.3333333,0,0,-1.3333333,83.648,782.20133)"
       clip-path="url(#clipPath195)" />
    <path
       id="path196"
       d="m 143.27992,131.29906 c 0,6.61691 -5.36395,11.98086 -11.98086,11.98086 -6.61693,0 -11.98087,-5.36395 -11.98087,-11.98086 0,-6.61693 5.36394,-11.98087 11.98087,-11.98087 6.61691,0 11.98086,5.36394 11.98086,11.98087 z"
       style="fill:#ffffff;fill-opacity:1;fill-rule:nonzero;stroke:#000000;stroke-width:1.1998;stroke-linecap:butt;stroke-linejoin:miter;stroke-miterlimit:10;stroke-dasharray:none;stroke-opacity:1"
       transform="matrix(1.3333333,0,0,-1.3333333,83.648,782.20133)"
       clip-path="url(#clipPath197)" />
    <path
       id="path198"
       d="m 144.42874,78.77942 c 0,7.25143 -5.87826,13.1297 -13.12968,13.1297 -7.25142,0 -13.1297,-5.87827 -13.1297,-13.1297 0,-7.25142 5.87828,-13.12969 13.1297,-13.12969 7.25142,0 13.12968,5.87827 13.12968,13.12969 z"
       style="fill:#ffffff;fill-opacity:1;fill-rule:nonzero;stroke:#ffffff;stroke-width:0.3985;stroke-linecap:butt;stroke-linejoin:miter;stroke-miterlimit:10;stroke-dasharray:none;stroke-opacity:1"
       transform="matrix(1.3333333,0,0,-1.3333333,83.648,782.20133)"
       clip-path="url(#clipPath199)" />
    <path
       id="path200"
       d="m 143.27992,78.77942 c 0,6.61693 -5.36395,11.98086 -11.98086,11.98086 -6.61693,0 -11.98087,-5.36393 -11.98087,-11.98086 0,-6.61692 5.36394,-11.98085 11.98087,-11.98085 6.61691,0 11.98086,5.36393 11.98086,11.98085 z"
       style="fill:#ffffff;fill-opacity:1;fill-rule:nonzero;stroke:#000000;stroke-width:1.1998;stroke-linecap:butt;stroke-linejoin:miter;stroke-miterlimit:10;stroke-dasharray:none;stroke-opacity:1"
       transform="matrix(1.3333333,0,0,-1.3333333,83.648,782.20133)"
       clip-path="url(#clipPath201)" />
    <path
       id="path202"
       d="m 196.94838,0 c 0,7.25142 -5.87828,13.12968 -13.1297,13.12968 C 176.56726,13.12968 170.689,7.25142 170.689,0 c 0,-7.25142 5.87826,-13.12968 13.12968,-13.12968 7.25142,0 13.1297,5.87826 13.1297,13.12968 z"
       style="fill:#ffffff;fill-opacity:1;fill-rule:nonzero;stroke:#ffffff;stroke-width:0.3985;stroke-linecap:butt;stroke-linejoin:miter;stroke-miterlimit:10;stroke-dasharray:none;stroke-opacity:1"
       transform="matrix(1.3333333,0,0,-1.3333333,83.648,782.20133)"
       clip-path="url(#clipPath203)" />
    <path
       id="path204"
       d="m 195.79955,0 c 0,6.61691 -5.36394,11.98085 -11.98087,11.98085 -6.61691,0 -11.98087,-5.36394 -11.98087,-11.98085 0,-6.61691 5.36396,-11.98085 11.98087,-11.98085 6.61693,0 11.98087,5.36394 11.98087,11.98085 z"
       style="fill:#ffffff;fill-opacity:1;fill-rule:nonzero;stroke:#000000;stroke-width:1.1998;stroke-linecap:butt;stroke-linejoin:miter;stroke-miterlimit:10;stroke-dasharray:none;stroke-opacity:1"
       transform="matrix(1.3333333,0,0,-1.3333333,83.648,782.20133)"
       clip-path="url(#clipPath205)" />
    <path
       id="path206"
       d="m 144.42874,105.03925 c 0,7.25141 -5.87826,13.1297 -13.12968,13.1297 -7.25142,0 -13.1297,-5.87829 -13.1297,-13.1297 0,-7.25142 5.87828,-13.12969 13.1297,-13.12969 7.25142,0 13.12968,5.87827 13.12968,13.12969 z"
       style="fill:#ffffff;fill-opacity:1;fill-rule:nonzero;stroke:#ffffff;stroke-width:0.3985;stroke-linecap:butt;stroke-linejoin:miter;stroke-miterlimit:10;stroke-dasharray:none;stroke-opacity:1"
       transform="matrix(1.3333333,0,0,-1.3333333,83.648,782.20133)"
       clip-path="url(#clipPath207)" />
    <path
       id="path208"
       d="m 144.3764,105.03925 c 0,7.2225 -5.85484,13.07735 -13.07734,13.07735 -7.22251,0 -13.07735,-5.85485 -13.07735,-13.07735 0,-7.22251 5.85484,-13.07735 13.07735,-13.07735 7.2225,0 13.07734,5.85484 13.07734,13.07735 z"
       style="fill:#000000;fill-opacity:1;fill-rule:nonzero;stroke:#ffffff;stroke-width:1.1998;stroke-linecap:butt;stroke-linejoin:miter;stroke-miterlimit:10;stroke-dasharray:none;stroke-opacity:1"
       transform="matrix(1.3333333,0,0,-1.3333333,83.648,782.20133)"
       clip-path="url(#clipPath209)" />
    <path
       id="path210"
       d="m 139.7219,105.03925 c 0,4.6043 -3.73246,8.33675 -8.33677,8.33675 -4.60433,0 -8.33677,-3.73245 -8.33677,-8.33675 0,-4.60431 3.73244,-8.33677 8.33677,-8.33677 4.60431,0 8.33677,3.73246 8.33677,8.33677 z"
       style="fill:#000000;fill-opacity:1;fill-rule:nonzero;stroke:#000000;stroke-width:0.3985;stroke-linecap:butt;stroke-linejoin:miter;stroke-miterlimit:10;stroke-dasharray:none;stroke-opacity:1"
       transform="matrix(1.3333333,0,0,-1.3333333,83.648,782.20133)"
       clip-path="url(#clipPath211)" />
    <path
       id="path212"
       d="M 7.7003516,-8.28125e-4 V -0.91489063 H 5.4620703 V -12.059422 c 0,-0.621094 -0.09375,-0.621094 -0.7617187,-0.621094 -1.2773438,1.242188 -3.3046875,1.242188 -3.98437504,1.242188 v 0.902344 c 0.50390624,0 1.41796874,0 2.43750004,-0.328125 v 9.94921837 H 0.98550781 V -8.28125e-4 C 1.7237891,-0.05942188 3.4816016,-0.05942188 4.3136328,-0.05942188 c 0.8320313,0 2.6601563,0 3.3867188,0.058593755 z m 0,0"
       style="fill:#f9f9f9;fill-opacity:1;fill-rule:nonzero;stroke:none"
       aria-label="1"
       transform="matrix(1.3333333,0,0,1.3333333,253.21333,650.60267)"
       clip-path="url(#clipPath213)" />
    <path
       id="path214"
       d="m 249.468,26.2598 c 0,7.25142 -5.87828,13.1297 -13.1297,13.1297 -7.25142,0 -13.12968,-5.87828 -13.12968,-13.1297 0,-7.25142 5.87826,-13.12969 13.12968,-13.12969 7.25142,0 13.1297,5.87827 13.1297,13.12969 z"
       style="fill:#ffffff;fill-opacity:1;fill-rule:nonzero;stroke:#ffffff;stroke-width:0.3985;stroke-linecap:butt;stroke-linejoin:miter;stroke-miterlimit:10;stroke-dasharray:none;stroke-opacity:1"
       transform="matrix(1.3333333,0,0,-1.3333333,83.648,782.20133)"
       clip-path="url(#clipPath215)" />
    <path
       id="path216"
       d="m 248.31917,26.2598 c 0,6.61692 -5.36394,11.98086 -11.98087,11.98086 -6.61691,0 -11.98085,-5.36394 -11.98085,-11.98086 0,-6.61692 5.36394,-11.98087 11.98085,-11.98087 6.61693,0 11.98087,5.36395 11.98087,11.98087 z"
       style="fill:#ffffff;fill-opacity:1;fill-rule:nonzero;stroke:#000000;stroke-width:1.1998;stroke-linecap:butt;stroke-linejoin:miter;stroke-miterlimit:10;stroke-dasharray:none;stroke-opacity:1"
       transform="matrix(1.3333333,0,0,-1.3333333,83.648,782.20133)"
       clip-path="url(#clipPath217)" />
    <path
       id="path218"
       d="m 244.06215,26.2598 c 0,4.21826 -3.41951,7.63777 -7.63777,7.63777 -4.21826,0 -7.63776,-3.41951 -7.63776,-7.63777 0,-4.21827 3.4195,-7.63776 7.63776,-7.63776 4.21826,0 7.63777,3.41949 7.63777,7.63776 z"
       style="fill:#ffffff;fill-opacity:1;fill-rule:nonzero;stroke:#ffffff;stroke-width:0.3985;stroke-linecap:butt;stroke-linejoin:miter;stroke-miterlimit:10;stroke-dasharray:none;stroke-opacity:1"
       transform="matrix(1.3333333,0,0,-1.3333333,83.648,782.20133)"
       clip-path="url(#clipPath219)" />
    <path
       id="path220"
       d="M 8.3902422,-3.9363047 H 7.5582109 c -0.058594,0.421875 -0.1875,1.3007813 -0.3984375,1.5820313 -0.082031,0.140625 -1.6054687,0.140625 -1.6054687,0.140625 H 3.4214922 c 0.4804687,-0.421875 1.6171875,-1.546875 2.0976562,-1.96875 0.3515625,-0.3398438 1.265625,-1.1132813 1.6289063,-1.453125 0.8671875,-0.890625 1.2421875,-1.7226563 1.2421875,-2.625 0,-1.9453126 -1.6054688,-3.3515626 -3.7617188,-3.3515626 -1.875,0 -3.3164062,1.207031 -3.3164062,2.6953126 0,1.0429687 0.8554687,1.3125 1.2773437,1.3125 0.5625,0 1.2773438,-0.3867188 1.2773438,-1.2773438 0,-0.7265625 -0.46875,-1.1718748 -1.078125,-1.2773438 0.46875,-0.527344 1.1484375,-0.621094 1.453125,-0.621094 1.5,0 1.6992187,1.7929691 1.6992187,2.5195316 0,0.9960937 -0.3398437,2.2148437 -1.6523437,3.84375 l -2.8007813,3.51562496 c -0.1757812,0.2109375 -0.1757812,0.24609375 -0.1757812,0.5859375 v 0.31640625 h 6.5273437 z m 0,0"
       style="fill:#000000;fill-opacity:1;fill-rule:nonzero;stroke:none"
       aria-label="2"
       transform="matrix(1.3333333,0,0,1.3333333,392.41067,754.932)"
       clip-path="url(#clipPath221)" />
    <path
       id="path222"
       d="m 275.72781,52.51962 c 0,7.25142 -5.87826,13.12968 -13.12968,13.12968 -7.25142,0 -13.12969,-5.87826 -13.12969,-13.12968 0,-7.25142 5.87827,-13.1297 13.12969,-13.1297 7.25142,0 13.12968,5.87828 13.12968,13.1297 z"
       style="fill:#ffffff;fill-opacity:1;fill-rule:nonzero;stroke:#ffffff;stroke-width:0.3985;stroke-linecap:butt;stroke-linejoin:miter;stroke-miterlimit:10;stroke-dasharray:none;stroke-opacity:1"
       transform="matrix(1.3333333,0,0,-1.3333333,83.648,782.20133)"
       clip-path="url(#clipPath223)" />
    <path
       id="path224"
       d="m 275.67548,52.51962 c 0,7.22251 -5.85485,13.07735 -13.07735,13.07735 -7.2225,0 -13.07735,-5.85484 -13.07735,-13.07735 0,-7.2225 5.85485,-13.07734 13.07735,-13.07734 7.2225,0 13.07735,5.85484 13.07735,13.07734 z"
       style="fill:#000000;fill-opacity:1;fill-rule:nonzero;stroke:#ffffff;stroke-width:1.1998;stroke-linecap:butt;stroke-linejoin:miter;stroke-miterlimit:10;stroke-dasharray:none;stroke-opacity:1"
       transform="matrix(1.3333333,0,0,-1.3333333,83.648,782.20133)"
       clip-path="url(#clipPath225)" />
    <path
       id="path226"
       d="m 271.02097,52.51962 c 0,4.60431 -3.73246,8.33676 -8.33677,8.33676 -4.6043,0 -8.33676,-3.73245 -8.33676,-8.33676 0,-4.60432 3.73246,-8.33676 8.33676,-8.33676 4.60431,0 8.33677,3.73244 8.33677,8.33676 z"
       style="fill:#000000;fill-opacity:1;fill-rule:nonzero;stroke:#000000;stroke-width:0.3985;stroke-linecap:butt;stroke-linejoin:miter;stroke-miterlimit:10;stroke-dasharray:none;stroke-opacity:1"
       transform="matrix(1.3333333,0,0,-1.3333333,83.648,782.20133)"
       clip-path="url(#clipPath227)" />
    <path
       id="path228"
       d="m 9.4685,-3.4811875 c 0,-1.1484375 -0.5859375,-2.7773438 -2.9648437,-3.3164063 0.984375,-0.3867187 2.4375,-1.4296875 2.4375,-3.1875 0,-1.5703122 -1.4296875,-2.6953122 -3.75,-2.6953122 -2.0390625,0 -3.234375,1.417968 -3.234375,2.7656247 0,0.9140625 0.6328125,1.3710938 1.3359375,1.3710938 0.8671875,0 1.3476562,-0.609375 1.3476562,-1.3359375 0,-0.398438 -0.1640625,-1.21875 -1.2304687,-1.335938 0.5976562,-0.632812 1.3476562,-0.714843 1.6640625,-0.714843 1.1953125,0 1.21875,1.207031 1.21875,1.863281 0,0.140625 0,1.1953125 -0.2929688,1.9921875 C 5.6481875,-7.20775 5.1911563,-7.160875 4.4763125,-7.1257188 3.984125,-7.0905625 3.8552188,-7.067125 3.8552188,-6.739 c 0,0.3515625 0.1875,0.3515625 0.5390625,0.3515625 h 0.5039062 c 1.5234375,0 1.6054688,1.4296875 1.6054688,2.8828125 0,1.0429687 0,2.8828125 -1.453125,2.8828125 -0.6328125,0 -1.3945313,-0.24609375 -1.875,-0.6328125 0.5742187,-0.1171875 1.21875,-0.5625 1.21875,-1.4765625 0,-0.8671875 -0.6210938,-1.4648438 -1.4765625,-1.4648438 -0.8085938,0 -1.4882813,0.515625 -1.4882813,1.5 0,1.5703125 1.5351563,2.90625005 3.7148438,2.90625005 2.7890625,0 4.3242187,-1.68750005 4.3242187,-3.69140625 z m 0,0"
       style="fill:#f9f9f9;fill-opacity:1;fill-rule:nonzero;stroke:none"
       aria-label="3"
       transform="matrix(1.3333333,0,0,1.3333333,426.62533,720.48533)"
       clip-path="url(#clipPath229)" />
    <path
       id="path230"
       d="m 275.72781,26.2598 c 0,7.25142 -5.87826,13.1297 -13.12968,13.1297 -7.25142,0 -13.12969,-5.87828 -13.12969,-13.1297 0,-7.25142 5.87827,-13.12969 13.12969,-13.12969 7.25142,0 13.12968,5.87827 13.12968,13.12969 z"
       style="fill:#ffffff;fill-opacity:1;fill-rule:nonzero;stroke:#ffffff;stroke-width:0.3985;stroke-linecap:butt;stroke-linejoin:miter;stroke-miterlimit:10;stroke-dasharray:none;stroke-opacity:1"
       transform="matrix(1.3333333,0,0,-1.3333333,83.648,782.20133)"
       clip-path="url(#clipPath231)" />
    <path
       id="path232"
       d="m 274.579,26.2598 c 0,6.61692 -5.36394,11.98086 -11.98087,11.98086 -6.61691,0 -11.98087,-5.36394 -11.98087,-11.98086 0,-6.61692 5.36396,-11.98087 11.98087,-11.98087 6.61693,0 11.98087,5.36395 11.98087,11.98087 z"
       style="fill:#ffffff;fill-opacity:1;fill-rule:nonzero;stroke:#000000;stroke-width:1.1998;stroke-linecap:butt;stroke-linejoin:miter;stroke-miterlimit:10;stroke-dasharray:none;stroke-opacity:1"
       transform="matrix(1.3333333,0,0,-1.3333333,83.648,782.20133)"
       clip-path="url(#clipPath233)" />
    <path
       id="path234"
       d="m 270.32196,26.2598 c 0,4.21826 -3.41949,7.63777 -7.63776,7.63777 -4.21826,0 -7.63775,-3.41951 -7.63775,-7.63777 0,-4.21827 3.41949,-7.63776 7.63775,-7.63776 4.21827,0 7.63776,3.41949 7.63776,7.63776 z"
       style="fill:#ffffff;fill-opacity:1;fill-rule:nonzero;stroke:#ffffff;stroke-width:0.3985;stroke-linecap:butt;stroke-linejoin:miter;stroke-miterlimit:10;stroke-dasharray:none;stroke-opacity:1"
       transform="matrix(1.3333333,0,0,-1.3333333,83.648,782.20133)"
       clip-path="url(#clipPath235)" />
    <path
       id="path236"
       d="M 8.5078203,9.84375e-4 V -0.83104687 H 7.1601641 V -2.7646406 H 8.5078203 V -3.5966719 H 7.1601641 v -7.4648441 c 0,-0.445312 -0.011719,-0.574218 -0.515625,-0.574218 -0.28125,0 -0.3632813,0 -0.5507813,0.269531 l -5.43749999,7.7695311 v 0.8320313 H 4.9453203 v 1.93359373 H 3.2226641 V 9.84375e-4 c 0.6210937,-0.058593745 2.0742187,-0.058593745 2.765625,-0.058593745 0.7265625,0 1.828125,0 2.5195312,0.058593745 z M 5.1445391,-3.5966719 H 1.5234453 l 3.6210938,-5.1445312 z m 0,0"
       style="fill:#000000;fill-opacity:1;fill-rule:nonzero;stroke:none"
       aria-label="4"
       transform="matrix(1.3333333,0,0,1.3333333,427.77733,754.944)"
       clip-path="url(#clipPath237)" />
    <path
       id="path238"
       d="m 354.50725,315.11775 c 0,7.25142 -5.87827,13.1297 -13.12969,13.1297 -7.25142,0 -13.12968,-5.87828 -13.12968,-13.1297 0,-7.25142 5.87826,-13.12968 13.12968,-13.12968 7.25142,0 13.12969,5.87826 13.12969,13.12968 z"
       style="fill:#ffffff;fill-opacity:1;fill-rule:nonzero;stroke:#ffffff;stroke-width:0.3985;stroke-linecap:butt;stroke-linejoin:miter;stroke-miterlimit:10;stroke-dasharray:none;stroke-opacity:1"
       transform="matrix(1.3333333,0,0,-1.3333333,83.648,782.20133)"
       clip-path="url(#clipPath239)" />
    <path
       id="path240"
       d="m 354.45491,315.11775 c 0,7.22252 -5.85484,13.07736 -13.07735,13.07736 -7.2225,0 -13.07734,-5.85484 -13.07734,-13.07736 0,-7.2225 5.85484,-13.07735 13.07734,-13.07735 7.22251,0 13.07735,5.85485 13.07735,13.07735 z"
       style="fill:#000000;fill-opacity:1;fill-rule:nonzero;stroke:#ffffff;stroke-width:1.1998;stroke-linecap:butt;stroke-linejoin:miter;stroke-miterlimit:10;stroke-dasharray:none;stroke-opacity:1"
       transform="matrix(1.3333333,0,0,-1.3333333,83.648,782.20133)"
       clip-path="url(#clipPath241)" />
    <path
       id="path242"
       d="m 349.8004,315.11775 c 0,4.60433 -3.73245,8.33678 -8.33676,8.33678 -4.60431,0 -8.33676,-3.73245 -8.33676,-8.33678 0,-4.60431 3.73245,-8.33676 8.33676,-8.33676 4.60431,0 8.33676,3.73245 8.33676,8.33676 z"
       style="fill:#000000;fill-opacity:1;fill-rule:nonzero;stroke:#000000;stroke-width:0.3985;stroke-linecap:butt;stroke-linejoin:miter;stroke-miterlimit:10;stroke-dasharray:none;stroke-opacity:1"
       transform="matrix(1.3333333,0,0,-1.3333333,83.648,782.20133)"
       clip-path="url(#clipPath243)" />
    <path
       id="path244"
       d="m 9.1536641,-3.9135313 c 0,-2.4140625 -1.5820313,-4.0078125 -3.890625,-4.0078125 -0.3632813,0 -1.171875,0.023437 -2.0273438,0.609375 v -2.4492187 c 0.3046875,0.082031 0.421875,0.1054687 1.0078125,0.1054687 2.625,0 4.1601563,-2.1679692 4.1601563,-2.6718752 0,-0.140625 -0.035156,-0.351562 -0.2695313,-0.351562 -0.058594,0 -0.09375,0 -0.2578125,0.09375 -0.890625,0.375 -1.78125,0.527343 -2.5664062,0.527343 -1.1835938,0 -2.0390625,-0.316406 -2.578125,-0.539062 -0.1171875,-0.04687 -0.1757813,-0.08203 -0.234375,-0.08203 -0.2929688,0 -0.2929688,0.246093 -0.2929688,0.5625 v 5.5781247 c 0,0.3867188 0,0.6328125 0.4453125,0.6328125 0.2109375,0 0.2929688,-0.058594 0.3867188,-0.1875 0.2226562,-0.3164062 0.8203125,-1.125 2.15625,-1.125 1.21875,0 1.21875,1.40625 1.21875,3.1875 0,0.9140625 0,1.7695313 -0.2109375,2.34375 -0.2578125,0.7617188 -0.9492188,1.0664063 -1.5585938,1.0664063 -0.6679687,0 -1.4882812,-0.36328125 -1.9453125,-1.1953125 0.9023438,-0.046875 1.3359375,-0.6210938 1.3359375,-1.3007813 0,-1.03125 -0.8320312,-1.3125 -1.3007812,-1.3125 -0.2929688,0 -1.3007813,0.1757813 -1.3007813,1.3476563 0,1.5351562 1.1835938,3.29296875 3.2929688,3.29296875 2.5195312,0 4.4296875,-1.52343755 4.4296875,-4.12500005 z m 0,0"
       style="fill:#f9f9f9;fill-opacity:1;fill-rule:nonzero;stroke:none"
       aria-label="5"
       transform="matrix(1.3333333,0,0,1.3333333,531.86933,370.35867)"
       clip-path="url(#clipPath245)" />
    <path
       id="path246"
       d="m 139.63582,131.6559 c 0,4.60432 -3.73245,8.33678 -8.33676,8.33678 -4.60433,0 -8.33676,-3.73246 -8.33676,-8.33678 0,-4.60431 3.73243,-8.33676 8.33676,-8.33676 4.60431,0 8.33676,3.73245 8.33676,8.33676 z"
       style="fill:#ffffff;fill-opacity:1;fill-rule:nonzero;stroke:#ffffff;stroke-width:0.3985;stroke-linecap:butt;stroke-linejoin:miter;stroke-miterlimit:10;stroke-dasharray:none;stroke-opacity:1"
       transform="matrix(1.3333333,0,0,-1.3333333,83.648,782.20133)"
       clip-path="url(#clipPath247)" />
    <path
       id="path248"
       d="M 13.371836,4.453125e-4 V -0.86674219 H 11.789805 L 7.7116797,-12.480023 c -0.1640625,-0.46875 -0.3515625,-0.480469 -0.6914063,-0.480469 -0.328125,0 -0.5390625,0 -0.703125,0.480469 l -3.9375,11.1796871 c -0.09375,0.28125 -0.1171875,0.33984371 -0.65625,0.38671871 -0.3632812,0.046875 -0.79687496,0.046875 -1.07812496,0.046875 V 4.453125e-4 L 2.6140234,-0.05814844 4.8171484,4.453125e-4 V -0.86674219 c -0.1523437,0 -1.453125,0 -1.453125,-0.23437501 l 0.070312,-0.2226562 0.7265625,-2.0507813 h 4.0664063 l 0.8789062,2.50781251 H 7.5593359 V 4.453125e-4 C 8.2273047,-0.05814844 9.8444922,-0.05814844 10.582773,-0.05814844 c 0.726563,0 2.121094,0 2.789063,0.0585937525 z M 7.9108984,-4.2534609 H 4.4538672 l 1.734375,-4.8984375 z m 0,0"
       style="fill:#000000;fill-opacity:1;fill-rule:nonzero;stroke:none"
       aria-label="A"
       transform="matrix(1.3333333,0,0,1.3333333,249.34667,615.308)"
       clip-path="url(#clipPath249)" />
  </g>
</svg>
