<?xml version="1.0" encoding="UTF-8"?>
<!DOCTYPE svg PUBLIC "-//W3C//DTD SVG 1.1//EN" "http://www.w3.org/Graphics/SVG/1.1/DTD/svg11.dtd">
<svg xmlns="http://www.w3.org/2000/svg" version="1.1" width="166px" height="142px" style="shape-rendering:geometricPrecision; text-rendering:geometricPrecision; image-rendering:optimizeQuality; fill-rule:evenodd; clip-rule:evenodd" xmlns:xlink="http://www.w3.org/1999/xlink">
	<g>
		<path style="opacity:0.985" fill="#2ab5f4" d="M 80.5,6.5 C 80.5,51.5 80.5,96.5 80.5,141.5C 79.5,141.5 78.5,141.5 77.5,141.5C 51.8427,111.844 25.8427,82.5106 -0.5,53.5C -0.5,52.8333 -0.5,52.1667 -0.5,51.5C 7.83333,51.5 16.1667,51.5 24.5,51.5C 24.8274,41.3194 24.494,31.3194 23.5,21.5C 42.2434,15.9258 61.2434,10.9258 80.5,6.5 Z" />
	</g>
	<g>
		<path style="opacity:0.985" fill="#03579b" d="M 80.5,6.5 C 99.4324,10.898 118.099,15.898 136.5,21.5C 136.5,31.5 136.5,41.5 136.5,51.5C 144.833,51.5 153.167,51.5 161.5,51.5C 135.873,81.7954 109.873,111.795 83.5,141.5C 82.5,141.5 81.5,141.5 80.5,141.5C 80.5,96.5 80.5,51.5 80.5,6.5 Z" />
	</g>
	<g>
		<path style="opacity:0.942" fill="#03579b" d="M 23.5,21.5 C 23.5,31.1667 23.5,40.8333 23.5,50.5C 15.5,50.5 7.5,50.5 -0.5,50.5C -0.5,50.1667 -0.5,49.8333 -0.5,49.5C 7.87438,40.4611 15.8744,31.1278 23.5,21.5 Z" />
	</g>
	<g>
		<path style="opacity:1" fill="#209ddd" d="M 136.5,21.5 C 137.167,21.5 137.5,21.8333 137.5,22.5C 137.5,31.8333 137.5,41.1667 137.5,50.5C 145.167,50.5 152.833,50.5 160.5,50.5C 161.167,50.5 161.5,50.8333 161.5,51.5C 153.167,51.5 144.833,51.5 136.5,51.5C 136.5,41.5 136.5,31.5 136.5,21.5 Z" />
	</g>
	<g>
		<path style="opacity:0.943" fill="#2bb6f5" d="M 137.5,22.5 C 145.916,31.2461 153.582,40.5794 160.5,50.5C 152.833,50.5 145.167,50.5 137.5,50.5C 137.5,41.1667 137.5,31.8333 137.5,22.5 Z" />
	</g>
	<g>
		<path style="opacity:1" fill="#127abc" d="M 23.5,21.5 C 24.494,31.3194 24.8274,41.3194 24.5,51.5C 16.1667,51.5 7.83333,51.5 -0.5,51.5C -0.5,51.1667 -0.5,50.8333 -0.5,50.5C 7.5,50.5 15.5,50.5 23.5,50.5C 23.5,40.8333 23.5,31.1667 23.5,21.5 Z" />
	</g>
</svg>
