<?xml version="1.0" encoding="UTF-8" standalone="no"?>
<!-- Created with Inkscape (http://www.inkscape.org/) -->

<svg
   version="1.1"
   id="svg1"
   width="396.85068"
   height="559.37067"
   viewBox="0 0 396.85068 559.37067"
   sodipodi:docname="Tecnicas_de_Go_1.pdf"
   xmlns:inkscape="http://www.inkscape.org/namespaces/inkscape"
   xmlns:sodipodi="http://sodipodi.sourceforge.net/DTD/sodipodi-0.dtd"
   xmlns="http://www.w3.org/2000/svg"
   xmlns:svg="http://www.w3.org/2000/svg">
  <defs
     id="defs1">
    <clipPath
       clipPathUnits="userSpaceOnUse"
       id="clipPath9">
      <path
         d="m -10.63004,-10.63004 v 201.971 h 201.971 v -201.971 z"
         id="path9" />
    </clipPath>
    <clipPath
       clipPathUnits="userSpaceOnUse"
       id="clipPath11">
      <path
         d="m -10.63004,-10.63004 v 201.971 h 201.971 v -201.971 z"
         id="path11" />
    </clipPath>
    <clipPath
       clipPathUnits="userSpaceOnUse"
       id="clipPath13">
      <path
         d="m -10.63004,-10.63004 v 201.971 h 201.971 v -201.971 z"
         id="path13" />
    </clipPath>
    <clipPath
       clipPathUnits="userSpaceOnUse"
       id="clipPath15">
      <path
         d="m -10.63004,-10.63004 v 201.971 h 201.971 v -201.971 z"
         id="path15" />
    </clipPath>
    <clipPath
       clipPathUnits="userSpaceOnUse"
       id="clipPath17">
      <path
         d="m -10.63004,-10.63004 v 201.971 h 201.971 v -201.971 z"
         id="path17" />
    </clipPath>
    <clipPath
       clipPathUnits="userSpaceOnUse"
       id="clipPath19">
      <path
         d="m -10.63004,-10.63004 v 201.971 h 201.971 v -201.971 z"
         id="path19" />
    </clipPath>
    <clipPath
       clipPathUnits="userSpaceOnUse"
       id="clipPath21">
      <path
         d="m -10.63004,-10.63004 v 201.971 h 201.971 v -201.971 z"
         id="path21" />
    </clipPath>
    <clipPath
       clipPathUnits="userSpaceOnUse"
       id="clipPath23">
      <path
         d="m -10.63004,-10.63004 v 201.971 h 201.971 v -201.971 z"
         id="path23" />
    </clipPath>
    <clipPath
       clipPathUnits="userSpaceOnUse"
       id="clipPath25">
      <path
         d="m -10.63004,-10.63004 v 201.971 h 201.971 v -201.971 z"
         id="path25" />
    </clipPath>
    <clipPath
       clipPathUnits="userSpaceOnUse"
       id="clipPath27">
      <path
         d="m -10.63004,-10.63004 v 201.971 h 201.971 v -201.971 z"
         id="path27" />
    </clipPath>
    <clipPath
       clipPathUnits="userSpaceOnUse"
       id="clipPath29">
      <path
         d="m -10.63004,-10.63004 v 201.971 h 201.971 v -201.971 z"
         id="path29" />
    </clipPath>
    <clipPath
       clipPathUnits="userSpaceOnUse"
       id="clipPath31">
      <path
         d="m -10.63004,-10.63004 v 201.971 h 201.971 v -201.971 z"
         id="path31" />
    </clipPath>
    <clipPath
       clipPathUnits="userSpaceOnUse"
       id="clipPath33">
      <path
         d="m -10.63004,-10.63004 v 201.971 h 201.971 v -201.971 z"
         id="path33" />
    </clipPath>
    <clipPath
       clipPathUnits="userSpaceOnUse"
       id="clipPath35">
      <path
         d="m -10.63004,-10.63004 v 201.971 h 201.971 v -201.971 z"
         id="path35" />
    </clipPath>
    <clipPath
       clipPathUnits="userSpaceOnUse"
       id="clipPath37">
      <path
         d="m -10.63004,-10.63004 v 201.971 h 201.971 v -201.971 z"
         id="path37" />
    </clipPath>
    <clipPath
       clipPathUnits="userSpaceOnUse"
       id="clipPath39">
      <path
         d="m -10.63004,-10.63004 v 201.971 h 201.971 v -201.971 z"
         id="path39" />
    </clipPath>
    <clipPath
       clipPathUnits="userSpaceOnUse"
       id="clipPath41">
      <path
         d="m -10.63004,-10.63004 v 201.971 h 201.971 v -201.971 z"
         id="path41" />
    </clipPath>
    <clipPath
       clipPathUnits="userSpaceOnUse"
       id="clipPath43">
      <path
         d="m -10.63004,-10.63004 v 201.971 h 201.971 v -201.971 z"
         id="path43" />
    </clipPath>
    <clipPath
       clipPathUnits="userSpaceOnUse"
       id="clipPath45">
      <path
         d="m -10.63004,-10.63004 v 201.971 h 201.971 v -201.971 z"
         id="path45" />
    </clipPath>
  </defs>
  <sodipodi:namedview
     id="namedview1"
     pagecolor="#ffffff"
     bordercolor="#000000"
     borderopacity="0.25"
     inkscape:showpageshadow="2"
     inkscape:pageopacity="0.0"
     inkscape:pagecheckerboard="0"
     inkscape:deskcolor="#d1d1d1" />
  <g
     id="g1"
     inkscape:groupmode="layer"
     inkscape:label="">
    <path
       id="path1"
       d="M 0,0 H 225.468 V 1.594 H 0 Z"
       style="fill:#000000;fill-opacity:1;fill-rule:nonzero;stroke:none"
       transform="matrix(1.3333333,0,0,-1.3333333,53.782667,44.650667)" />
    <path
       id="path2"
       d="M 0,0 H 225.468"
       style="fill:none;stroke:#000000;stroke-width:0.398;stroke-linecap:butt;stroke-linejoin:miter;stroke-miterlimit:10;stroke-dasharray:none;stroke-opacity:1"
       transform="matrix(1.3333333,0,0,-1.3333333,53.782667,47.041333)" />
    <path
       id="path3"
       d="m 9.1185859,-14.741391 c 0,-0.820312 -0.023437,-0.84375 0.7265625,-0.84375 h 1.7578126 c 1.359375,0 2.308594,0.199219 2.871094,0.621094 0.375,0.269531 0.550781,1.183594 0.621093,1.804688 0.128907,0.152343 0.550782,0.152343 0.644532,-0.04687 -0.07031,-0.75 0.09375,-2.753907 0.375,-3.773438 -0.04687,-0.09375 -0.328125,-0.117187 -0.445313,-0.07031 -0.375,0.644531 -0.597656,0.691406 -1.933594,0.691406 H 3.6928047 c -1.1367188,0 -1.9570313,0.02344 -2.109375,-0.761719 -0.070312,-0.08203 -0.3867188,-0.05859 -0.46875,0 -0.17578126,0.984375 -0.53906251,2.566406 -0.93750001,3.691406 0.09375,0.199219 0.4453125,0.316407 0.64453125,0.164063 0.26953126,-0.609375 0.51562496,-1.160156 1.11328126,-1.699219 0.6210937,-0.574219 1.9804687,-0.621094 3.046875,-0.621094 h 1.359375 c 0.75,0 0.75,0.02344 0.75,0.785157 v 11.0859371 c 0,2.6015625 -0.1289063,2.97656252 -1.5351563,3.09375002 l -0.890625,0.0703125 c -0.1992187,0.12890625 -0.1523437,0.550781255 0,0.62109375 1.5820313,-0.046875 2.4492188,-0.070312495 3.4453125,-0.070312495 0.984375,0 1.828125,0.023437495 3.2460936,0.070312495 0.140625,-0.070312495 0.199219,-0.515625 0.04687,-0.62109375 l -0.796875,-0.0703125 C 9.1771797,-0.73748438 9.1185859,-1.1124844 9.1185859,-3.7140469 Z m 7.1162111,12.1406254 c 0,1.71093747 -0.09375,1.86328122 -1.160156,1.98046872 l -0.667969,0.0703125 c -0.175781,0.12890625 -0.152344,0.550781255 0.04687,0.62109375 1.183594,-0.046875 1.957031,-0.070312495 2.753906,-0.070312495 h 2.179688 c 1.335937,0 2.648437,0.023437495 4.207031,0.070312495 0.269531,-0.46875 0.621094,-1.71093747 0.75,-2.74218747 -0.08203,-0.2226563 -0.480469,-0.28125 -0.644531,-0.1054688 -0.726563,1.98046877 -1.640625,2.06250002 -3.222657,2.06250002 -1.417968,0 -1.863281,-0.10546875 -2.085937,-0.35156252 -0.222656,-0.2695312 -0.269531,-1.0429687 -0.269531,-1.78125 v -1.7929687 c 0,-0.4921875 0,-0.5625 0.46875,-0.5625 h 1.160156 c 1.324219,0 1.441406,0.1992187 1.640625,0.9375 l 0.128906,0.46875 c 0.117188,0.1757812 0.492188,0.1523437 0.609375,-0.046875 -0.04687,-0.7148438 -0.04687,-1.1601563 -0.04687,-1.78125 0,-0.5742188 0,-1.0195313 0.04687,-1.734375 -0.117187,-0.1992188 -0.492187,-0.2226563 -0.609375,-0.046875 l -0.128906,0.46875 c -0.199219,0.7382812 -0.316406,0.9375 -1.640625,0.9375 h -1.160156 c -0.46875,0 -0.46875,-0.046875 -0.46875,-0.4921875 v -2.7539063 c 0,-0.7617191 0.02344,-0.7968751 0.890625,-0.7968751 h 1.089843 c 0.597657,0 1.710938,0 2.109375,0.5976564 0.140625,0.2226562 0.292969,0.5507812 0.445313,1.1953125 0.152344,0.1757812 0.539062,0.140625 0.644531,-0.058594 -0.128906,-1.0546875 -0.246094,-2.2265619 -0.269531,-2.5195309 -0.222656,0.04687 -1.21875,0.07031 -2.308594,0.07031 h -3.515625 c -0.820312,0 -1.59375,-0.02344 -2.308594,-0.07031 -0.199218,0.09375 -0.222656,0.515625 -0.04687,0.621094 l 0.339844,0.07031 c 0.949219,0.1992187 1.042969,0.2695312 1.042969,1.9804687 z m 5.578125,-12.3398434 c 0.269531,-0.304688 0.539062,-0.621094 0.539062,-0.820313 0,-0.175781 -0.140625,-0.46875 -0.539062,-0.714844 -0.328125,-0.28125 -0.597656,-0.351562 -0.773438,-0.328125 -0.199218,0 -0.363281,0.292969 -0.5625,0.597657 l -1.957031,3.644531 c 0.04687,0.222656 0.363281,0.398437 0.5625,0.363281 z m 10.77539,3.832031 c -1.898437,0 -3.609375,0.503906 -4.828125,1.4414061 -1.242187,0.9726563 -2.085937,2.4609375 -2.085937,4.4648438 0,1.9804687 1.019531,3.4921875 2.355469,4.40624997 1.265625,0.8671875 2.800781,1.1484375 4.371093,1.1484375 1.699219,0 2.625,-0.3984375 3.339844,-0.52734375 0.292969,-0.4453125 0.691406,-1.58203122 0.820313,-2.67187502 -0.128907,-0.2460937 -0.527344,-0.2460937 -0.644532,-0.023437 -0.269531,0.6445313 -1.242187,2.49609377 -3.574218,2.49609377 -2.332032,0 -4.453125,-1.87499997 -4.453125,-5.20312497 0,-3.375 2.097656,-4.8046884 4.230468,-4.8046884 2.238282,0 3.082032,1.1601571 3.445313,2.5312509 0.175781,0.1875 0.550781,0.140625 0.644531,-0.058594 -0.140625,-0.984375 -0.222656,-2.2031249 -0.222656,-2.7187499 -0.199219,0 -1.78125,-0.480469 -3.398438,-0.480469 z m 15.700196,7.0429686 c 0,0.5976563 0,0.9492188 -0.152344,0.9960938 -0.269531,-0.1992188 -1.710937,-1.7578125 -2.261719,-2.3085938 l -2.320312,-2.4023437 c -1.019531,-1.0429688 -1.933594,-2.109375 -2.4375,-3.0468749 -0.292969,0.04687 -0.644531,0.07031 -0.984375,0.07031 -0.527344,0 -1.195313,0 -2.132813,-0.07031 -0.222656,0.09375 -0.222656,0.46875 -0.04687,0.621094 l 0.363282,0.07031 c 0.257812,0.04687 0.726562,0.1992189 0.925781,0.3515626 0.492187,0.3632813 0.515625,0.7148438 0.515625,1.5351563 v 4.4296875 c 0,2.4609375 -0.199219,3.12890622 -0.84375,3.19921872 l -0.738281,0.0703125 c -0.175782,0.12890625 -0.175782,0.52734375 0.02344,0.62109375 0.867188,-0.046875 1.335938,-0.070312495 2.050781,-0.070312495 0.726563,0 1.289063,0.023437495 2.214844,0.070312495 0.199219,-0.1171875 0.246094,-0.46875 0.04687,-0.62109375 l -0.796875,-0.0703125 C 40.800227,-0.69060938 40.647883,-1.3351406 40.647883,-3.8195156 v -3.2695313 c 0,-0.7617187 0,-1.0429687 0.105469,-1.0429687 0.316406,0.28125 0.960937,0.9257812 1.910156,1.9101562 l 3.761719,4.0195313 c 1.535156,1.65234372 2.027343,2.17968747 2.308593,2.51953122 0.222657,0.0585938 0.445313,-0.0703125 0.515625,-0.22265625 -0.07031,-0.36328125 -0.07031,-2.37890627 -0.07031,-2.87109377 v -4.1601562 c 0,-2.4609375 0.199219,-3.1289059 0.84375,-3.1992189 l 0.738281,-0.07031 c 0.175781,-0.128907 0.175781,-0.503907 -0.02344,-0.621094 -0.796875,0.04687 -1.335938,0.07031 -2.0625,0.07031 -0.714844,0 -1.289063,-0.02344 -2.203125,-0.07031 -0.199219,0.117187 -0.222657,0.46875 -0.04687,0.621094 l 0.796875,0.07031 c 0.914062,0.07031 1.066406,0.7148439 1.066406,3.1992189 z m 5.821289,1.4648438 c 0,1.71093747 -0.09375,1.80468747 -1.160156,1.98046872 l -0.480469,0.0703125 c -0.164063,0.12890625 -0.140625,0.550781255 0.05859,0.62109375 0.960937,-0.046875 1.734375,-0.070312495 2.519531,-0.070312495 0.773437,0 1.59375,0.023437495 2.53125,0.070312495 0.199219,-0.070312495 0.222656,-0.4921875 0.04687,-0.62109375 l -0.46875,-0.0703125 C 56.090266,-0.79607813 55.996516,-0.88982813 55.996516,-2.6007656 v -5.5546875 c 0,-1.7109375 0.09375,-1.8046875 1.160156,-1.9804689 l 0.46875,-0.07031 c 0.175781,-0.128907 0.152344,-0.550782 -0.04687,-0.621094 -0.960938,0.04687 -1.734375,0.07031 -2.53125,0.07031 -0.785156,0 -1.558594,-0.02344 -2.519531,-0.07031 -0.199219,0.07031 -0.222657,0.492187 -0.05859,0.621094 l 0.480469,0.07031 c 1.066406,0.1757814 1.160156,0.2695314 1.160156,1.9804689 z m 12.336914,-8.5078124 c -1.898438,0 -3.609375,0.503906 -4.828125,1.4414061 -1.242188,0.9726563 -2.085938,2.4609375 -2.085938,4.4648438 0,1.9804687 1.019532,3.4921875 2.355469,4.40624997 1.265625,0.8671875 2.800781,1.1484375 4.371094,1.1484375 1.699219,0 2.625,-0.3984375 3.339844,-0.52734375 0.292968,-0.4453125 0.691406,-1.58203122 0.820312,-2.67187502 -0.128906,-0.2460937 -0.527344,-0.2460937 -0.644531,-0.023437 -0.269531,0.6445313 -1.242188,2.49609377 -3.574219,2.49609377 -2.332031,0 -4.453125,-1.87499997 -4.453125,-5.20312497 0,-3.375 2.097656,-4.8046884 4.230469,-4.8046884 2.238281,0 3.082031,1.1601571 3.445312,2.5312509 0.175782,0.1875 0.550782,0.140625 0.644532,-0.058594 -0.140625,-0.984375 -0.222657,-2.2031249 -0.222657,-2.7187499 -0.199218,0 -1.78125,-0.480469 -3.398437,-0.480469 z m 10.96582,7.2656249 c 0.5625,0 0.644531,0.023437 0.84375,0.5976562 l 0.585938,1.6054688 c 0.304687,0.77343747 0.328125,0.92578122 -0.316407,1.01953122 l -0.492187,0.0703125 c -0.222656,0.10546875 -0.199219,0.550781255 0.04687,0.62109375 0.621094,-0.046875 1.335937,-0.070312495 2.226562,-0.070312495 0.84375,0 1.417969,0.023437495 2.0625,0.070312495 0.246094,-0.046875 0.292969,-0.4921875 0.07031,-0.62109375 l -0.398438,-0.0703125 C 81.150812,-0.79607813 80.928156,-1.1124844 80.635187,-1.9327969 l -2.238281,-5.9179687 c -0.5625,-1.5117188 -0.960937,-2.8007814 -1.066406,-3.0585934 -0.04687,-0.140625 -0.199219,-0.199219 -0.398438,-0.117188 -0.117187,0.292969 -0.585937,0.761719 -1.03125,0.9375 -0.05859,0.4687501 -0.222656,1.0664064 -0.644531,2.0859376 l -2.378906,5.6953125 c -0.503906,1.1953125 -0.773438,1.46484377 -1.546875,1.64062502 l -0.5625,0.1171875 c -0.175781,0.12890625 -0.175781,0.52734375 0.04687,0.62109375 0.445312,-0.0234375 1.042969,-0.070312495 1.734375,-0.070312495 0.691406,0 1.335937,0.023437495 1.957031,0.070312495 0.246094,-0.046875 0.269531,-0.4921875 0.08203,-0.62109375 l -0.679687,-0.1171875 c -0.46875,-0.10546875 -0.539063,-0.19921875 -0.269531,-0.99609372 l 0.574218,-1.5820313 c 0.199219,-0.5742187 0.269532,-0.5976562 0.84375,-0.5976562 z m -2.109375,-0.796875 c -0.550781,0 -0.597656,-0.046875 -0.328125,-0.7148438 l 0.902344,-2.203125 c 0.222656,-0.515625 0.316406,-0.75 0.386719,-0.84375 h 0.05859 c 0.07031,0.1289063 0.164063,0.328125 0.363282,0.890625 l 0.773437,2.109375 c 0.269531,0.7148438 0.199219,0.7617188 -0.445312,0.7617188 z m 11.903321,0.1523437 c 1.40625,0.7265625 1.734375,1.5351563 1.734375,2.3320313 0,1.1367187 -0.820313,1.78124997 -2.085938,1.78124997 -1.664062,0 -2.753906,-1.75781247 -2.953125,-2.64843747 -0.175781,-0.2226563 -0.539062,-0.1992188 -0.644531,0.046875 0,1.3125 0.304687,2.20312497 0.527344,2.55468747 0.339843,0.24609375 1.335937,0.7734375 2.847656,0.7734375 2.449219,0 4.042969,-1.21875 4.042969,-3.15234377 0,-1.6640625 -1.125,-2.7070312 -2.015625,-3.1523437 l -1.535157,-0.7851563 c -0.984375,-0.5273437 -1.664062,-1.0664062 -1.664062,-1.9570312 0,-0.84375 0.550781,-1.6875004 2.015625,-1.6875004 1.464844,0 2.109375,1.2656254 2.308594,2.1328129 0.117187,0.1757812 0.5625,0.140625 0.632812,-0.058594 0.03516,-1.0546875 -0.140625,-2.0039059 -0.339844,-2.4257809 -0.84375,-0.140625 -1.441406,-0.375 -2.308593,-0.375 -2.496094,0 -3.890625,1.2656247 -3.890625,3.0820309 0,1.3828125 1.019531,2.3554688 2.203125,2.9765625 z m 13.204103,1.8867188 c 0,1.71093747 -0.0937,1.80468747 -1.160158,1.98046872 l -0.480469,0.0703125 c -0.164062,0.12890625 -0.140625,0.550781255 0.05859,0.62109375 0.960937,-0.046875 1.734377,-0.070312495 2.519537,-0.070312495 0.75,0 1.86328,0.128906245 2.97656,0.128906245 1.24219,0 2.625,-0.19921875 3.75,-0.7734375 1.98047,-1.01953122 3,-2.82421872 3,-4.78125002 0,-2.2851562 -1.17187,-4.0898437 -3.42187,-4.8632816 -1.17188,-0.398437 -2.37891,-0.539062 -3.77344,-0.539062 -2.00391,0 -3.39844,0.04687 -4.781256,0.140625 -0.222656,0.08203 -0.246094,0.550781 -0.02344,0.621094 l 0.738281,0.1054684 c 0.574215,0.070312 0.597655,0.4921875 0.597655,2.109375 z m 1.88672,-6.2695313 c 0,-0.5507812 0,-0.8671875 0.15234,-0.9726562 0.1875,-0.1640629 0.66797,-0.2695309 1.47656,-0.2695309 2.80078,0 4.9336,1.5820309 4.9336,4.6406246 0,3.0234375 -1.45313,4.87500002 -4.42969,4.87500002 -1.88672,0 -2.13281,-0.78515622 -2.13281,-2.37890622 z m 12.3164,6.2695313 c 0,1.71093747 -0.0937,1.86328122 -1.16015,1.98046872 l -0.66797,0.0703125 c -0.17578,0.12890625 -0.15235,0.550781255 0.0469,0.62109375 1.1836,-0.046875 1.95703,-0.070312495 2.75391,-0.070312495 h 2.17969 c 1.33593,0 2.64843,0.023437495 4.20703,0.070312495 0.26953,-0.46875 0.62109,-1.71093747 0.75,-2.74218747 -0.082,-0.2226563 -0.48047,-0.28125 -0.64453,-0.1054688 -0.72657,1.98046877 -1.64063,2.06250002 -3.22266,2.06250002 -1.41797,0 -1.86328,-0.10546875 -2.08594,-0.35156252 -0.22265,-0.2695312 -0.26953,-1.0429687 -0.26953,-1.78125 v -1.7929687 c 0,-0.4921875 0,-0.5625 0.46875,-0.5625 h 1.16016 c 1.32422,0 1.4414,0.1992187 1.64062,0.9375 l 0.12891,0.46875 c 0.11719,0.1757812 0.49219,0.1523437 0.60937,-0.046875 -0.0469,-0.7148438 -0.0469,-1.1601563 -0.0469,-1.78125 0,-0.5742188 0,-1.0195313 0.0469,-1.734375 -0.11718,-0.1992188 -0.49218,-0.2226563 -0.60937,-0.046875 l -0.12891,0.46875 c -0.19922,0.7382812 -0.3164,0.9375 -1.64062,0.9375 h -1.16016 c -0.46875,0 -0.46875,-0.046875 -0.46875,-0.4921875 v -2.7539063 c 0,-0.7617191 0.0234,-0.7968751 0.89063,-0.7968751 h 1.08984 c 0.59766,0 1.71094,0 2.10938,0.5976564 0.14062,0.2226562 0.29296,0.5507812 0.44531,1.1953125 0.15234,0.1757812 0.53906,0.140625 0.64453,-0.058594 -0.12891,-1.0546875 -0.24609,-2.2265619 -0.26953,-2.5195309 -0.22266,0.04687 -1.21875,0.07031 -2.3086,0.07031 h -3.51562 c -0.82031,0 -1.59375,-0.02344 -2.30859,-0.07031 -0.19922,0.09375 -0.22266,0.515625 -0.0469,0.621094 l 0.33984,0.07031 c 0.94922,0.1992187 1.04297,0.2695312 1.04297,1.9804687 z m 30.76758,-1.3125 c 0,-1.265625 0.0234,-1.9570313 1.05469,-2.0859375 l 0.39844,-0.046875 c 0.17578,-0.1523438 0.15234,-0.515625 -0.0234,-0.6210938 -0.82031,0.046875 -1.66406,0.070312 -2.625,0.070312 -1.46485,0 -2.82422,-0.023437 -3.53906,-0.070312 -0.17579,0.070312 -0.19922,0.515625 0,0.6210938 l 1.08984,0.1289062 c 1.53516,0.1640625 1.60547,0.3164063 1.60547,2.4023438 v 0.984375 c 0,0.796875 -0.11719,1.2421875 -0.2461,1.4179687 -0.26953,0.42187502 -1.19531,0.73828127 -2.73046,0.73828127 -4.98047,0 -7.42969,-3.73828127 -7.42969,-8.49609377 0,-3.7148441 2.10937,-7.1367191 6.91406,-7.1367191 2.53125,0 4.38281,0.84375 5.07422,3.515625 0.15234,0.152344 0.59766,0.128907 0.67969,-0.07031 -0.22266,-1.488281 -0.375,-2.777344 -0.375,-3.597656 -0.30469,0.04687 -1.06641,-0.128907 -1.53516,-0.222657 -0.42187,-0.09375 -1.73437,-0.375 -3.15234,-0.375 -3.73828,0 -6.19922,1.171875 -7.85157,2.90625 -1.53515,1.628907 -2.23828,3.761719 -2.23828,5.8710941 0,2.1796875 0.79688,4.1367188 2.28516,5.625 1.91016,1.93359377 4.60547,2.75390627 7.55859,2.75390627 1.33594,0 3.11719,-0.3046875 4.44141,-0.64453125 0.46875,-0.12890625 0.91406,-0.22265625 1.20703,-0.22265625 0.10547,-0.0820313 0.10547,-0.22265625 0.0234,-0.3046875 -0.44531,-0.1640625 -0.58594,-0.76171877 -0.58594,-1.75781247 z m 9.51563,-7.1953124 c -3.59766,0 -6.12891,2.5312499 -6.12891,5.8359374 0,3.1171875 2.28516,5.62499997 6.12891,5.62499997 3.49218,0 6.02343,-2.43749997 6.02343,-5.77734377 0,-3.0234375 -2.03906,-5.6835936 -6.02343,-5.6835936 z m -0.17579,0.726562 c 2.73047,0 3.98438,2.6718754 3.98438,5.3320316 0,3.3867188 -1.80469,4.67578127 -3.69141,4.67578127 -2.87109,0 -4.03125,-2.74218747 -4.03125,-5.29687497 0,-3.5039063 1.95703,-4.7109379 3.73828,-4.7109379 z m 0,0"
       style="fill:#000000;fill-opacity:1;fill-rule:nonzero;stroke:none"
       aria-label="TécnicasdeGo"
       transform="matrix(1.3333333,0,0,1.3333333,95.642667,96.788)" />
    <path
       id="path4"
       d="m 3.9605391,-1.7213594 c 0.2460937,0.609375 0.5039062,1.31250003 0.65625,1.91015628 0.070312,0.0234375 0.140625,0.046875 0.2109375,0.046875 0.058594,0 0.1171875,-0.0234375 0.1640625,-0.046875 0.2460937,-0.76171875 0.9140625,-2.42578128 1.4882812,-3.74999998 l 0.7734375,-1.7578125 c 0.6445313,-1.4648438 1.2070313,-2.625 1.6054688,-3.3046875 0.1875,-0.2929688 0.4101562,-0.46875 0.75,-0.4921875 l 0.4335934,-0.035156 c 0.07031,-0.070312 0.07031,-0.3046875 -0.03516,-0.3632812 -0.4687499,0.035156 -0.9140624,0.046875 -1.3828124,0.046875 -0.5507813,0 -1.0898438,-0.011719 -1.5,-0.046875 -0.09375,0.058594 -0.1289063,0.28125 -0.023437,0.3632812 l 0.2578125,0.035156 c 0.5039062,0.046875 0.6445312,0.1640625 0.6445312,0.2695312 0,0.09375 -0.011719,0.2578125 -0.1289062,0.5625 -0.2460938,0.609375 -0.9140625,2.2265625 -1.3359375,3.2109375 -0.328125,0.7617188 -0.9257813,2.2382813 -1.3710938,3.1757813 -0.726559,-1.6289063 -1.382809,-3.28125 -2.039059,-4.9453125 -0.4453125,-1.0898438 -0.6914062,-1.8632813 -0.7148437,-2.0039063 0.011719,-0.1171875 0.1289062,-0.1992187 0.6679687,-0.2695312 l 0.2226563,-0.035156 c 0.09375,-0.082031 0.070312,-0.3046875 -0.035156,-0.3632812 -0.5976562,0.035156 -1.1015625,0.046875 -1.734375,0.046875 -0.62109374,0 -1.07812499,-0.011719 -1.48828124,-0.046875 -0.1171875,0.082031 -0.12890625,0.28125 -0.03515625,0.3632812 l 0.2578125,0.035156 c 0.62109375,0.070312 0.83203129,0.3632812 1.16015629,1.171875 z m 7.8193359,-4.6992187 c -2.0859375,0 -3.5390625,1.453125 -3.5390625,3.3632812 0,1.8164063 1.3125,3.25781253 3.5390625,3.25781253 2.015625,0 3.480469,-1.40625003 3.480469,-3.33984373 0,-1.7460938 -1.171875,-3.28125 -3.480469,-3.28125 z m -0.105469,0.4101562 c 1.582032,0 2.308594,1.546875 2.308594,3.0820313 0,1.96874998 -1.042969,2.71874998 -2.132812,2.71874998 -1.664063,0 -2.3437505,-1.59374998 -2.3437505,-3.07031248 0,-2.0273438 1.1367185,-2.7304688 2.1679685,-2.7304688 z m 5.645508,4.5 c 0,0.99609378 -0.05859,1.05468753 -0.679687,1.14843753 l -0.269532,0.046875 c -0.105468,0.0703125 -0.09375,0.31640625 0.02344,0.36328125 0.5625,-0.03515625 1.007812,-0.046875 1.464844,-0.046875 h 1.171875 c 0.738281,0 1.5,0.01171875 2.402343,0.046875 0.152344,-0.28125 0.351563,-0.99609375 0.433594,-1.59374998 -0.04687,-0.1289063 -0.28125,-0.1640625 -0.375,-0.058594 -0.421875,1.14843753 -0.949219,1.19531253 -1.828125,1.19531253 -0.738281,0 -0.972656,-0.10546875 -1.101562,-0.234375 -0.128907,-0.140625 -0.152344,-0.55078123 -0.152344,-0.99609373 v -3.0820313 c 0,-0.984375 0.07031,-0.9960937 0.667969,-1.1484375 l 0.1875,-0.035156 c 0.105468,-0.070312 0.08203,-0.3164063 -0.02344,-0.3632813 -0.480469,0.035156 -0.925781,0.046875 -1.382812,0.046875 -0.457032,0 -0.902344,-0.011719 -1.464844,-0.046875 -0.117188,0.046875 -0.128906,0.2929688 -0.02344,0.3632813 l 0.269532,0.035156 c 0.621093,0.1054688 0.679687,0.1640625 0.679687,1.1484375 z m 5.496094,-0.9140625 c 0,0.9375 0.175781,1.59375003 0.609375,2.02734378 0.433594,0.41015625 1.125,0.59765625 2.039062,0.59765625 1.816407,0 2.671875,-0.9609375 2.671875,-2.80078123 v -1.4179688 c 0,-1.4179687 0.105469,-1.8046875 0.480469,-1.8515625 l 0.433594,-0.035156 c 0.105469,-0.070312 0.105469,-0.2929688 -0.01172,-0.3632813 -0.457031,0.035156 -0.773437,0.046875 -1.195312,0.046875 -0.410157,0 -0.75,-0.011719 -1.207032,-0.046875 -0.105468,0.070312 -0.128906,0.2695313 -0.02344,0.3632813 l 0.304687,0.035156 c 0.609375,0.09375 0.703125,0.421875 0.703125,1.8515625 v 1.3359375 c 0,1.4179688 -0.5625,2.40234378 -1.851562,2.40234378 -1.394531,0 -1.863281,-0.98437498 -1.863281,-2.41406248 v -2.0273438 c 0,-0.984375 0.04687,-1.0429687 0.667968,-1.1484375 l 0.269532,-0.035156 c 0.105468,-0.070312 0.09375,-0.3164063 -0.02344,-0.3632813 -0.5625,0.035156 -1.007812,0.046875 -1.464844,0.046875 -0.457031,0 -0.902343,-0.011719 -1.394531,-0.046875 -0.117187,0.046875 -0.128906,0.2929688 -0.02344,0.3632813 l 0.199218,0.035156 c 0.597657,0.1289063 0.679688,0.1640625 0.679688,1.1484375 z m 9.963867,-1.8046875 c -0.492187,-0.9492187 -0.75,-1.40625 -0.75,-2.0390625 -0.457031,0.046875 -0.761719,0.046875 -1.042969,0.046875 -0.386718,0 -0.714843,-0.011719 -1.101562,-0.046875 -0.128906,0.058594 -0.117188,0.2929688 -0.03516,0.3632813 l 0.351562,0.035156 c 0.480469,0.058594 0.644531,0.28125 0.644531,0.7382813 0,0.9726562 -0.09375,3.28125 -0.199218,4.0546875 -0.08203,0.50390623 -0.117188,0.64453123 -0.597657,0.71484373 l -0.292968,0.046875 c -0.117188,0.0703125 -0.105469,0.3046875 0,0.36328125 0.445312,-0.03515625 0.867187,-0.046875 1.183593,-0.046875 0.386719,0 0.808594,0.01171875 1.183594,0.046875 0.09375,-0.05859375 0.105469,-0.3046875 0.01172,-0.36328125 l -0.46875,-0.046875 c -0.410156,-0.0351563 -0.421875,-0.3515625 -0.421875,-1.08984373 0,-0.703125 0.01172,-1.3007813 0.02344,-1.875 0.02344,-0.3984375 0.03516,-1.359375 0.09375,-1.4296875 0.117188,0.035156 0.410157,0.796875 0.574219,1.1132812 l 0.925781,1.8046875 c 0.246094,0.4804688 0.691407,1.39453128 0.855469,1.91015628 0.08203,0.05859375 0.199219,0.05859375 0.269531,0 0.152344,-0.45703125 0.902344,-1.94531248 1.019532,-2.16796878 l 0.867187,-1.640625 c 0.210938,-0.375 0.574219,-1.0898437 0.621094,-1.0898437 0.04687,0.023437 0.04687,0.234375 0.04687,0.4101562 v 3.3164063 c 0,0.57421873 0,0.69140623 -0.457031,0.73828123 l -0.316407,0.046875 c -0.105468,0.0585938 -0.09375,0.29296875 0.01172,0.36328125 0.398438,-0.03515625 0.84375,-0.046875 1.265625,-0.046875 0.351563,0 0.914063,0.01171875 1.429688,0.046875 0.117187,-0.05859375 0.117187,-0.3046875 0.01172,-0.36328125 l -0.410156,-0.046875 c -0.445312,-0.0351563 -0.445312,-0.38671875 -0.480469,-0.70312503 -0.07031,-0.8554687 -0.07031,-2.0742187 -0.07031,-3.5976562 0,-0.84375 0.03516,-1.1132813 0.691406,-1.2070313 l 0.316406,-0.035156 c 0.09375,-0.070312 0.08203,-0.3164063 -0.04687,-0.3632813 -0.410156,0.035156 -0.832031,0.046875 -1.171875,0.046875 -0.234375,0 -0.515625,-0.011719 -0.832031,-0.046875 -0.234375,0.6796875 -0.304687,0.9140625 -0.996094,2.2382813 l -0.714843,1.3828125 c -0.269532,0.515625 -0.527344,0.9726562 -0.585938,0.9960937 -0.05859,-0.035156 -0.421875,-0.6914062 -0.515625,-0.8671875 z m 7.740234,2.71875 c 0,0.99609378 -0.05859,1.07812503 -0.679687,1.14843753 l -0.386719,0.046875 c -0.105469,0.0703125 -0.08203,0.31640625 0.02344,0.36328125 0.691406,-0.03515625 1.136718,-0.046875 1.59375,-0.046875 h 1.265625 c 0.773437,0 1.535156,0.01171875 2.4375,0.046875 0.164062,-0.28125 0.363281,-0.99609375 0.433593,-1.59374998 -0.04687,-0.1289063 -0.269531,-0.1640625 -0.375,-0.058594 -0.421875,1.14843753 -0.949218,1.19531253 -1.863281,1.19531253 -0.820312,0 -1.078125,-0.0585938 -1.207031,-0.2109375 -0.128906,-0.15234375 -0.152344,-0.59765623 -0.152344,-1.03125003 v -1.03125 c 0,-0.28125 0,-0.328125 0.269531,-0.328125 h 0.667969 c 0.761719,0 0.832031,0.1171875 0.949219,0.5390625 l 0.07031,0.28125 c 0.07031,0.09375 0.292969,0.082031 0.363282,-0.035156 -0.03516,-0.4101563 -0.03516,-0.6679688 -0.03516,-1.03125 0,-0.328125 0,-0.5859375 0.03516,-1.0078125 -0.07031,-0.1054688 -0.292969,-0.1289063 -0.363282,-0.023437 l -0.07031,0.2695312 c -0.117188,0.4335938 -0.1875,0.5507813 -0.949219,0.5507813 h -0.667969 c -0.269531,0 -0.269531,-0.035156 -0.269531,-0.2929688 v -1.59375 c 0,-0.4335937 0.01172,-0.4570312 0.515625,-0.4570312 h 0.621094 c 0.351562,0 0.996094,0 1.230469,0.3515625 0.08203,0.1289062 0.164062,0.3164062 0.257812,0.6796875 0.08203,0.1054687 0.304688,0.09375 0.363281,-0.023437 -0.07031,-0.6210938 -0.140625,-1.2890625 -0.152343,-1.4648438 -0.128907,0.035156 -0.703125,0.046875 -1.335938,0.046875 h -2.039062 c -0.46875,0 -0.914063,-0.011719 -1.335938,-0.046875 -0.105469,0.058594 -0.128906,0.3046875 -0.02344,0.3632813 l 0.199218,0.035156 c 0.550782,0.1171875 0.609375,0.1640625 0.609375,1.1484375 z m 10.341797,-0.6679687 c 0,1.52343748 -0.03516,1.72265623 -0.878906,1.81640623 l -0.363281,0.046875 c -0.08203,0.0820313 -0.04687,0.31640625 0.03516,0.36328125 0.714844,-0.03515625 1.207031,-0.046875 1.804688,-0.046875 0.574218,0 1.066406,0.01171875 1.78125,0.046875 0.08203,-0.046875 0.117187,-0.3046875 0.02344,-0.36328125 l -0.351562,-0.046875 c -0.855469,-0.09375 -0.878907,-0.29296875 -0.878907,-1.81640623 v -5.109375 c 0,-1.5234375 0.02344,-1.7578125 0.878907,-1.828125 l 0.351562,-0.035156 c 0.09375,-0.058594 0.05859,-0.3164062 -0.02344,-0.3632812 -0.714844,0.035156 -1.207032,0.046875 -1.78125,0.046875 -0.597657,0 -1.089844,-0.011719 -1.804688,-0.046875 -0.08203,0.046875 -0.117187,0.3046875 -0.03516,0.3632812 l 0.363281,0.035156 c 0.84375,0.070312 0.878906,0.3046875 0.878906,1.828125 z m 0,0"
       style="fill:#000000;fill-opacity:1;fill-rule:nonzero;stroke:none"
       aria-label="VolumeI"
       transform="matrix(1.3333333,0,0,1.3333333,167.856,132.03733)" />
    <path
       id="path5"
       d="m 2.2043594,-2.5774141 c 0,1.80468754 -0.035156,2.03906254 -1.03125,2.14453129 l -0.51562502,0.0585938 c -0.10546875,0.09375 -0.0703125,0.3749999975 0.0351563,0.421875 C 1.6535781,0.01242969 2.2043594,7.109375e-4 2.9309219,7.109375e-4 h 1.5820312 c 1.7695313,0 3.4101563,0.0117187525 4.2890625,0.0468750025 0.234375,-0.45703125 0.7148438,-2.21484374 0.7148438,-2.40234374 0,-0.1289063 -0.328125,-0.1875 -0.421875,-0.1054688 -0.3515625,0.8789063 -0.796875,1.50000004 -1.1367188,1.69921879 -0.28125,0.1640625 -0.6445312,0.22265625 -2.109375,0.22265625 -1.359375,0 -1.6875,-0.19921875 -1.875,-0.38671875 C 3.6692031,-1.2531953 3.6106094,-1.6985078 3.6106094,-2.7883516 v -5.9882812 c 0,-1.8046872 0.035156,-2.0859372 1.0546875,-2.1679692 l 0.4101562,-0.03516 c 0.1054688,-0.07031 0.070312,-0.386719 -0.035156,-0.433594 -0.8554688,0.03516 -1.4414063,0.04687 -2.109375,0.04687 -0.6914063,0 -1.2773438,-0.01172 -2.23828127,-0.04687 -0.10546875,0.04687 -0.140625,0.363282 -0.0351563,0.433594 l 0.43359377,0.03516 c 1.078125,0.08203 1.1132813,0.363282 1.1132813,2.1679692 z m 9.1201176,0.7734375 c 0,1.18359379 -0.07031,1.25390629 -0.808594,1.37109379 l -0.328125,0.0585938 c -0.117188,0.0820313 -0.105469,0.3749999975 0.03516,0.421875 0.679688,-0.03515625 1.207031,-0.0468750025 1.757813,-0.0468750025 0.539062,0 1.101562,0.0117187525 1.757812,0.0468750025 0.140625,-0.0468750025 0.152344,-0.33984375 0.03516,-0.421875 l -0.328125,-0.0585938 c -0.738281,-0.1171875 -0.808593,-0.1875 -0.808593,-1.37109379 v -3.8554687 c 0,-1.1953125 0.07031,-1.265625 0.808593,-1.3828125 l 0.328125,-0.046875 c 0.117188,-0.09375 0.105469,-0.3867188 -0.03516,-0.4335938 -0.667969,0.035156 -1.207031,0.046875 -1.757812,0.046875 -0.550782,0 -1.078125,-0.011719 -1.757813,-0.046875 -0.140625,0.046875 -0.152344,0.3398438 -0.03516,0.4335938 l 0.328125,0.046875 c 0.738281,0.1171875 0.808594,0.1875 0.808594,1.3828125 z m 4.924804,0 c 0,1.18359379 -0.07031,1.25390629 -0.808593,1.37109379 l -0.328125,0.0585938 c -0.117188,0.0820313 -0.105469,0.3749999975 0.03516,0.421875 0.679687,-0.03515625 1.253906,-0.0468750025 1.804687,-0.0468750025 0.621094,0 1.195313,0.0468750025 1.535157,0.0468750025 0.808593,0 1.6875,-0.08203125 2.34375,-0.38671875 0.667968,-0.328125 1.136718,-0.86718744 1.136718,-1.79296874 0,-1.1953125 -0.914062,-1.7460938 -1.535156,-1.875 -0.375,-0.09375 -0.492187,-0.1054687 -0.433594,-0.2226562 0.878907,-0.3164063 1.382813,-0.7734375 1.382813,-1.5234375 0,-0.8085938 -0.46875,-1.2890625 -1.089844,-1.5117188 -0.632812,-0.234375 -1.335937,-0.2578125 -2.179687,-0.2578125 -0.996094,0 -2.015625,0.035156 -2.871094,0.1054688 -0.164063,0.046875 -0.175781,0.375 -0.02344,0.4335937 l 0.539063,0.058594 c 0.480469,0.070312 0.492187,0.3515625 0.492187,1.4648437 z m 1.3125,-1.6523437 c 0,-0.2226563 0.03516,-0.2929688 0.808594,-0.2929688 1.113281,0 2.15625,0.4101563 2.15625,1.7695313 0,1.13671874 -0.808594,1.53515624 -1.675781,1.53515624 -1.066406,0 -1.289063,-0.31640625 -1.289063,-1.34765624 z m 0,-3.1054688 c 0,-0.3046875 0.03516,-0.4570312 0.761719,-0.4570312 0.867188,0 1.652344,0.3867187 1.652344,1.4296875 0,1.078125 -0.75,1.3359375 -1.828125,1.3359375 -0.550781,0 -0.585938,-0.011719 -0.585938,-0.2929688 z m 6.966797,4.7578125 c 0,1.18359379 -0.07031,1.28906254 -0.808594,1.37109379 l -0.457031,0.0585938 c -0.128906,0.0820313 -0.105469,0.3749999975 0.02344,0.421875 0.832031,-0.03515625 1.371093,-0.0468750025 1.921875,-0.0468750025 h 1.511718 c 0.925782,0 1.839844,0.0117187525 2.929688,0.0468750025 0.1875,-0.328125 0.421875,-1.18359379 0.515625,-1.91015629 -0.05859,-0.1523438 -0.328125,-0.1875 -0.457031,-0.070312 -0.492188,1.38281254 -1.136719,1.42968754 -2.238282,1.42968754 -0.972656,0 -1.289062,-0.0585938 -1.441406,-0.234375 -0.152344,-0.1875 -0.1875,-0.72656254 -0.1875,-1.24218754 v -1.2421875 c 0,-0.3398438 0,-0.3867188 0.328125,-0.3867188 h 0.808594 c 0.914062,0 0.996094,0.1289063 1.136719,0.6445313 l 0.08203,0.328125 c 0.08203,0.1289062 0.351562,0.1054687 0.433594,-0.035156 -0.03516,-0.4921875 -0.03516,-0.8085937 -0.03516,-1.2304687 0,-0.3984375 0,-0.7148437 0.03516,-1.2070312 -0.08203,-0.140625 -0.351563,-0.1640625 -0.433594,-0.035156 l -0.08203,0.328125 c -0.140625,0.515625 -0.222657,0.65625 -1.136719,0.65625 h -0.808594 c -0.328125,0 -0.328125,-0.035156 -0.328125,-0.3515625 V -6.421163 c 0,-0.5273437 0.01172,-0.5507812 0.621094,-0.5507812 h 0.75 c 0.421875,0 1.195312,0 1.464844,0.4101562 0.105468,0.1640625 0.210937,0.3867188 0.316406,0.8320313 0.105469,0.1171875 0.375,0.1054687 0.445312,-0.035156 -0.08203,-0.7382812 -0.175781,-1.546875 -0.1875,-1.7578125 -0.152343,0.035156 -0.84375,0.046875 -1.605468,0.046875 h -2.4375 c -0.574219,0 -1.101563,-0.011719 -1.605469,-0.046875 -0.140625,0.070312 -0.152344,0.3632813 -0.03516,0.4335938 l 0.246093,0.046875 c 0.644532,0.140625 0.714844,0.1875 0.714844,1.3828125 z m 7.713867,0 c 0,1.18359379 -0.07031,1.21875004 -0.808593,1.37109379 l -0.257813,0.0585938 c -0.152344,0.0703125 -0.140625,0.3749999975 0.03516,0.421875 0.609375,-0.03515625 1.136719,-0.0468750025 1.6875,-0.0468750025 0.539063,0 1.101563,0.0117187525 1.828125,0.0468750025 0.140625,-0.0468750025 0.152344,-0.33984375 0.03516,-0.421875 l -0.398438,-0.0585938 c -0.738281,-0.10546875 -0.808594,-0.1875 -0.808594,-1.37109379 v -1.2304687 c 0,-0.234375 0.03516,-0.2695313 0.480469,-0.2695313 0.28125,0 0.550781,0.070312 0.691406,0.2695313 0.363282,0.5507812 0.820313,1.3125 1.253907,1.8632812 0.761718,0.96093754 1.382812,1.28906254 2.414062,1.28906254 0.328125,0 0.5625,-0.03515625 0.714844,-0.08203125 0.07031,-0.046875 0.07031,-0.2109375 0,-0.28125 -0.269531,-0.0117188 -0.597656,-0.09375 -0.902344,-0.3515625 -0.574219,-0.46874999 -1.335937,-1.31249999 -2.191406,-2.75390629 -0.04687,-0.09375 -0.07031,-0.1992187 0,-0.2578125 0.667969,-0.2460937 1.535156,-0.75 1.535156,-1.8515625 0,-1.8046875 -1.746094,-2.0625 -3.339844,-2.0625 -0.949218,0 -1.910156,0.035156 -2.859375,0.1054688 -0.175781,0.046875 -0.140625,0.4101562 0,0.4335937 l 0.480469,0.058594 c 0.398438,0.058594 0.410156,0.3515625 0.410156,1.4648437 z m 1.3125,-4.734375 c 0,-0.4453125 0.117188,-0.4804687 0.761719,-0.4804687 1.195313,0 1.804688,0.75 1.804688,1.6171875 0,1.1835937 -0.585938,1.6289062 -1.710938,1.6289062 -0.84375,0 -0.855469,0 -0.855469,-0.421875 z m 6.811524,4.734375 c 0,1.18359379 -0.07031,1.25390629 -0.808594,1.37109379 l -0.328125,0.0585938 c -0.117187,0.0820313 -0.105469,0.3749999975 0.03516,0.421875 0.679688,-0.03515625 1.207032,-0.0468750025 1.757813,-0.0468750025 0.515625,0 1.289062,0.0820312525 2.0625,0.0820312525 0.867187,0 1.828125,-0.12890625 2.601562,-0.52734375 1.382813,-0.70312509 2.085938,-1.96875009 2.085938,-3.32812509 0,-1.5820312 -0.808594,-2.8359375 -2.378906,-3.375 -0.808594,-0.2695312 -1.652344,-0.375 -2.613282,-0.375 -1.394531,0 -2.355468,0.035156 -3.328125,0.1054688 -0.152343,0.046875 -0.164062,0.375 -0.01172,0.4335937 l 0.515625,0.058594 c 0.398437,0.058594 0.410156,0.3515625 0.410156,1.4648438 z m 1.3125,-4.359375 c 0,-0.375 0,-0.5976562 0.105469,-0.6679687 0.128906,-0.1171875 0.457031,-0.1875 1.03125,-0.1875 1.945312,0 3.421875,1.1015625 3.421875,3.2109375 0,2.109375 -1.007813,3.39843749 -3.082032,3.39843749 -1.300781,0 -1.476562,-0.55078125 -1.476562,-1.65234379 z m 11.188476,3.4921875 c 0.398438,0 0.445313,0.023437 0.585938,0.421875 l 0.410156,1.1132813 c 0.210938,0.53906249 0.222656,0.63281249 -0.222656,0.70312499 l -0.339844,0.0585938 c -0.152344,0.0703125 -0.140625,0.3749999975 0.03516,0.421875 0.421875,-0.03515625 0.925782,-0.0468750025 1.546875,-0.0468750025 0.585938,0 0.984375,0.0117187525 1.429688,0.0468750025 0.164062,-0.03515625 0.199219,-0.33984375 0.04687,-0.421875 l -0.269531,-0.0585938 c -0.621094,-0.1171875 -0.773438,-0.33984375 -0.984375,-0.91406249 l -1.546875,-4.1132813 c -0.398438,-1.0429687 -0.679688,-1.9453125 -0.738282,-2.109375 -0.03516,-0.1054687 -0.140625,-0.140625 -0.28125,-0.09375 -0.08203,0.2109375 -0.410156,0.5390625 -0.726562,0.65625 -0.03516,0.328125 -0.152344,0.7382813 -0.445313,1.453125 l -1.652343,3.9492188 c -0.339844,0.83203124 -0.527344,1.01953124 -1.066407,1.13671874 l -0.398437,0.09375 c -0.117188,0.0820313 -0.117188,0.36328125 0.03516,0.421875 0.316406,-0.01171875 0.726563,-0.0468750025 1.207031,-0.0468750025 0.480469,0 0.925782,0.0117187525 1.359375,0.0468750025 0.175782,-0.03515625 0.1875,-0.33984375 0.05859,-0.421875 l -0.46875,-0.09375 c -0.328125,-0.0703125 -0.375,-0.12890625 -0.1875,-0.67968754 l 0.398438,-1.1015625 c 0.128906,-0.3984375 0.1875,-0.421875 0.574218,-0.421875 z m -1.464843,-0.5507812 c -0.375,0 -0.410157,-0.035156 -0.222657,-0.4921875 l 0.621094,-1.5351563 c 0.152344,-0.3632812 0.222656,-0.515625 0.269531,-0.5859375 h 0.03516 c 0.05859,0.082031 0.128906,0.2226563 0.257812,0.6210938 l 0.539063,1.4648437 c 0.1875,0.4921875 0.140625,0.5273438 -0.316407,0.5273438 z m 6.697265,1.4179687 c 0,1.18359379 -0.07031,1.25390629 -0.808594,1.37109379 l -0.328125,0.0585938 c -0.117187,0.0820313 -0.105468,0.3749999975 0.03516,0.421875 0.679687,-0.03515625 1.207031,-0.0468750025 1.757812,-0.0468750025 0.515625,0 1.289063,0.0820312525 2.0625,0.0820312525 0.867188,0 1.828125,-0.12890625 2.601563,-0.52734375 1.382812,-0.70312509 2.085937,-1.96875009 2.085937,-3.32812509 0,-1.5820311 -0.808594,-2.8359374 -2.378906,-3.3749999 -0.808594,-0.2695312 -1.652344,-0.375 -2.613281,-0.375 -1.394532,0 -2.355469,0.035156 -3.328125,0.1054688 -0.152344,0.046875 -0.164063,0.375 -0.01172,0.4335937 l 0.515625,0.058594 c 0.398437,0.058594 0.410156,0.3515625 0.410156,1.4648437 z m 1.3125,-4.359375 c 0,-0.375 0,-0.5976562 0.105469,-0.6679687 0.128906,-0.1171875 0.457031,-0.1875 1.03125,-0.1875 1.945312,0 3.421875,1.1015625 3.421875,3.2109375 0,2.109375 -1.007813,3.39843749 -3.082031,3.39843749 -1.300782,0 -1.476563,-0.55078125 -1.476563,-1.65234379 z m 8.551758,4.359375 c 0,1.18359379 -0.07031,1.28906254 -0.808594,1.37109379 l -0.457031,0.0585938 c -0.128906,0.0820313 -0.105469,0.3749999975 0.02344,0.421875 0.832031,-0.03515625 1.371093,-0.0468750025 1.921875,-0.0468750025 h 1.511718 c 0.925782,0 1.839844,0.0117187525 2.929688,0.0468750025 0.1875,-0.328125 0.421875,-1.18359379 0.515625,-1.91015629 -0.05859,-0.1523438 -0.328125,-0.1875 -0.457031,-0.070312 -0.492188,1.38281254 -1.136719,1.42968754 -2.238282,1.42968754 -0.972656,0 -1.289062,-0.0585938 -1.441406,-0.234375 -0.152344,-0.1875 -0.1875,-0.72656254 -0.1875,-1.24218754 v -1.2421875 c 0,-0.3398438 0,-0.3867188 0.328125,-0.3867188 h 0.808594 c 0.914062,0 0.996094,0.1289063 1.136719,0.6445313 l 0.08203,0.328125 c 0.08203,0.1289062 0.351562,0.1054687 0.433594,-0.035156 -0.03516,-0.4921875 -0.03516,-0.8085937 -0.03516,-1.2304687 0,-0.3984375 0,-0.7148437 0.03516,-1.2070312 -0.08203,-0.140625 -0.351563,-0.1640625 -0.433594,-0.035156 l -0.08203,0.328125 c -0.140625,0.515625 -0.222657,0.65625 -1.136719,0.65625 H 69.60475 c -0.328125,0 -0.328125,-0.035156 -0.328125,-0.3515625 V -6.421163 c 0,-0.5273437 0.01172,-0.5507812 0.621094,-0.5507812 h 0.75 c 0.421875,0 1.195312,0 1.464844,0.4101562 0.105468,0.1640625 0.210937,0.3867188 0.316406,0.8320313 0.105469,0.1171875 0.375,0.1054687 0.445312,-0.035156 -0.08203,-0.7382812 -0.175781,-1.546875 -0.1875,-1.7578125 -0.152343,0.035156 -0.84375,0.046875 -1.605468,0.046875 h -2.4375 c -0.574219,0 -1.101563,-0.011719 -1.605469,-0.046875 -0.140625,0.070312 -0.152344,0.3632813 -0.03516,0.4335938 l 0.246093,0.046875 c 0.644532,0.140625 0.714844,0.1875 0.714844,1.3828125 z m 9.28125,-1.3125 c 0.984375,0.5039063 1.207031,1.0664063 1.207031,1.6171875 0,0.79687504 -0.574218,1.24218754 -1.453125,1.24218754 -1.148437,0 -1.910156,-1.21875004 -2.039062,-1.83984374 -0.128906,-0.1523438 -0.386719,-0.140625 -0.457031,0.035156 0,0.9140625 0.210937,1.52343754 0.363281,1.76953129 0.246094,0.17578125 0.9375,0.5390625 1.980469,0.5390625 1.710937,0 2.8125,-0.84375 2.8125,-2.19140629 0,-1.1484375 -0.785157,-1.875 -1.394532,-2.1914062 L 77.1985,-4.6867891 c -0.691406,-0.3515625 -1.160156,-0.7382812 -1.160156,-1.359375 0,-0.5859375 0.375,-1.171875 1.394531,-1.171875 1.019531,0 1.464844,0.8789063 1.605469,1.4882813 0.08203,0.1171875 0.386719,0.1054687 0.445312,-0.035156 0.01172,-0.7382812 -0.105468,-1.3945312 -0.246093,-1.6875 -0.585938,-0.1054687 -0.996094,-0.2578125 -1.59375,-0.2578125 -1.746094,0 -2.707032,0.8789063 -2.707032,2.1328125 0,0.9609375 0.703125,1.640625 1.535157,2.0625 z m 9.172852,1.3125 c 0,1.18359379 -0.07031,1.28906254 -0.808594,1.37109379 l -0.457031,0.0585938 c -0.128907,0.0820313 -0.105469,0.3749999975 0.02344,0.421875 0.832028,-0.0351563 1.371091,-0.0468750525 1.921872,-0.0468750525 h 1.511719 c 0.925781,0 1.839844,0.0117187525 2.929687,0.0468750025 0.1875,-0.328125 0.421875,-1.18359374 0.515625,-1.91015624 -0.05859,-0.1523438 -0.328125,-0.1875 -0.457031,-0.070312 -0.492187,1.38281249 -1.136719,1.42968749 -2.238281,1.42968749 -0.972656,0 -1.289063,-0.0585938 -1.441406,-0.234375 -0.152344,-0.1875 -0.1875,-0.72656249 -0.1875,-1.24218749 v -1.2421875 c 0,-0.3398438 0,-0.3867188 0.328125,-0.3867188 h 0.808593 c 0.914063,0 0.996094,0.1289063 1.136719,0.6445313 l 0.08203,0.328125 c 0.08203,0.1289062 0.351563,0.1054687 0.433594,-0.035156 -0.03516,-0.4921875 -0.03516,-0.8085937 -0.03516,-1.2304687 0,-0.3984375 0,-0.7148438 0.03516,-1.2070313 -0.08203,-0.140625 -0.351562,-0.1640625 -0.433594,-0.035156 l -0.08203,0.328125 c -0.140625,0.515625 -0.222656,0.65625 -1.136719,0.65625 h -0.808593 c -0.328125,0 -0.328125,-0.035156 -0.328125,-0.3515625 v -1.9101563 c 0,-0.5273437 0.01172,-0.5507812 0.621093,-0.5507812 h 0.75 c 0.421875,0 1.195313,0 1.464844,0.4101562 0.105469,0.1640625 0.210938,0.3867188 0.316406,0.8320313 0.105469,0.1171875 0.375,0.1054687 0.445313,-0.035156 -0.08203,-0.7382812 -0.175781,-1.546875 -0.1875,-1.7578125 -0.152344,0.035156 -0.84375,0.046875 -1.605469,0.046875 h -2.4375 c -0.574219,0 -1.101562,-0.011719 -1.605469,-0.046875 -0.140625,0.070312 -0.152343,0.3632813 -0.03516,0.4335938 l 0.246094,0.046875 c 0.644531,0.140625 0.714844,0.1875 0.714844,1.3828125 z M 101.1194,-2.0617891 c 0.29297,0.7148438 0.60937,1.55859379 0.79687,2.28515629 0.082,0.0351563 0.17578,0.0585938 0.25782,0.0585938 0.0703,0 0.14062,-0.0234375 0.1875,-0.0585938 0.29296,-0.9140625 1.10156,-2.90624999 1.79296,-4.48828129 l 0.92579,-2.1210937 c 0.77343,-1.7578125 1.45312,-3.1523438 1.93359,-3.9609372 0.22266,-0.363282 0.48047,-0.5625 0.89062,-0.597657 l 0.51563,-0.03516 c 0.0937,-0.09375 0.0937,-0.363281 -0.0352,-0.433594 -0.5625,0.03516 -1.10156,0.04687 -1.66406,0.04687 -0.65625,0 -1.3125,-0.01172 -1.79297,-0.04687 -0.11719,0.07031 -0.15234,0.328125 -0.0351,0.433594 l 0.3164,0.03516 c 0.59766,0.07031 0.77344,0.199219 0.77344,0.328125 0,0.117188 -0.0234,0.304688 -0.16406,0.6679692 -0.28125,0.7382812 -1.10157,2.6835937 -1.59375,3.8554687 -0.39844,0.9140625 -1.125,2.6835938 -1.65235,3.8203125 -0.86718,-1.9570312 -1.65234,-3.9375 -2.44922,-5.9414062 -0.527339,-1.3007813 -0.820308,-2.2382812 -0.855464,-2.4023442 0.01172,-0.140625 0.152344,-0.246093 0.808594,-0.328125 l 0.25781,-0.03516 c 0.11719,-0.105469 0.082,-0.363281 -0.0351,-0.433594 -0.726567,0.03516 -1.324223,0.04687 -2.085942,0.04687 -0.738281,0 -1.289062,-0.01172 -1.792968,-0.04687 -0.128907,0.08203 -0.152344,0.328125 -0.03516,0.433594 l 0.316407,0.03516 c 0.738281,0.08203 0.996093,0.445313 1.394531,1.4062504 z m 7.06055,0.2578125 c 0,1.18359379 -0.0703,1.25390629 -0.8086,1.37109379 l -0.32812,0.0585938 c -0.11719,0.0820313 -0.10547,0.3749999975 0.0352,0.421875 0.67969,-0.03515625 1.20703,-0.0468750025 1.75782,-0.0468750025 0.53906,0 1.10156,0.0117187525 1.75781,0.0468750025 0.14062,-0.0468750025 0.15234,-0.33984375 0.0352,-0.421875 l -0.32812,-0.0585938 c -0.73828,-0.1171875 -0.80859,-0.1875 -0.80859,-1.37109379 v -3.8554687 c 0,-1.1953125 0.0703,-1.265625 0.80859,-1.3828125 l 0.32812,-0.046875 c 0.11719,-0.09375 0.10547,-0.3867188 -0.0352,-0.4335938 -0.66797,0.035156 -1.20703,0.046875 -1.75781,0.046875 -0.55079,0 -1.07813,-0.011719 -1.75782,-0.046875 -0.14062,0.046875 -0.15234,0.3398438 -0.0352,0.4335938 l 0.32812,0.046875 c 0.73828,0.1171875 0.8086,0.1875 0.8086,1.3828125 z m 4.92187,0 c 0,1.18359379 -0.0703,1.25390629 -0.80859,1.37109379 l -0.32813,0.0585938 c -0.11719,0.0820313 -0.10547,0.3749999975 0.0352,0.421875 0.67969,-0.03515625 1.20703,-0.0468750025 1.75781,-0.0468750025 0.51563,0 1.28906,0.0820312525 2.0625,0.0820312525 0.86719,0 1.82813,-0.12890625 2.60156,-0.52734375 1.38282,-0.70312499 2.08594,-1.96874999 2.08594,-3.32812509 0,-1.5820311 -0.80859,-2.8359374 -2.37891,-3.3749999 -0.80859,-0.2695312 -1.65234,-0.375 -2.61328,-0.375 -1.39453,0 -2.35547,0.035156 -3.32812,0.1054688 -0.15235,0.046875 -0.16406,0.375 -0.0117,0.4335937 l 0.51562,0.058594 c 0.39844,0.058594 0.41016,0.3515625 0.41016,1.4648437 z m 1.3125,-4.359375 c 0,-0.375 0,-0.5976562 0.10547,-0.6679687 0.12891,-0.1171875 0.45703,-0.1875 1.03125,-0.1875 1.94531,0 3.42187,1.1015625 3.42187,3.2109375 0,2.109375 -1.00781,3.39843749 -3.08203,3.39843749 -1.30078,0 -1.47656,-0.55078125 -1.47656,-1.65234379 z m 11.18848,3.4921875 c 0.39843,0 0.44531,0.023437 0.58593,0.421875 l 0.41016,1.1132813 c 0.21094,0.53906249 0.22266,0.63281249 -0.22266,0.70312499 l -0.33984,0.0585938 c -0.15234,0.0703125 -0.14062,0.3749999975 0.0352,0.421875 0.42187,-0.03515625 0.92578,-0.0468750025 1.54687,-0.0468750025 0.58594,0 0.98438,0.0117187525 1.42969,0.0468750025 0.16406,-0.03515625 0.19922,-0.33984375 0.0469,-0.421875 l -0.26953,-0.0585938 c -0.62109,-0.1171875 -0.77343,-0.33984375 -0.98437,-0.91406249 l -1.54688,-4.1132813 c -0.39843,-1.0429687 -0.67968,-1.9453125 -0.73828,-2.109375 -0.0352,-0.1054687 -0.14062,-0.140625 -0.28125,-0.09375 -0.082,0.2109375 -0.41015,0.5390625 -0.72656,0.65625 -0.0352,0.328125 -0.15234,0.7382813 -0.44531,1.453125 l -1.65235,3.9492188 c -0.33984,0.83203124 -0.52734,1.01953124 -1.0664,1.13671874 l -0.39844,0.09375 c -0.11719,0.0820313 -0.11719,0.36328125 0.0352,0.421875 0.3164,-0.01171875 0.72656,-0.0468750025 1.20703,-0.0468750025 0.48047,0 0.92578,0.0117187525 1.35937,0.0468750025 0.17578,-0.03515625 0.1875,-0.33984375 0.0586,-0.421875 l -0.46875,-0.09375 c -0.32813,-0.0703125 -0.375,-0.12890625 -0.1875,-0.67968754 l 0.39843,-1.1015625 c 0.12891,-0.3984375 0.1875,-0.421875 0.57422,-0.421875 z m -1.46485,-0.5507812 c -0.375,0 -0.41015,-0.035156 -0.22265,-0.4921875 l 0.62109,-1.5351563 c 0.15234,-0.3632812 0.22266,-0.515625 0.26953,-0.5859375 h 0.0352 c 0.0586,0.082031 0.1289,0.2226563 0.25781,0.6210938 l 0.53906,1.4648437 c 0.1875,0.4921875 0.14063,0.5273438 -0.3164,0.5273438 z m 14.10645,-4.4882813 c -2.4961,0 -4.25391,1.7578125 -4.25391,4.0429688 0,2.1679687 1.58203,3.91406249 4.25391,3.91406249 2.42578,0 4.18359,-1.68749999 4.18359,-4.01953129 0,-2.0976562 -1.41797,-3.9375 -4.18359,-3.9375 z m -0.12891,0.4921875 c 1.89844,0 2.77735,1.8632813 2.77735,3.703125 0,2.3671875 -1.25391,3.25781254 -2.56641,3.25781254 -1.99219,0 -2.80078,-1.91015624 -2.80078,-3.67968754 0,-2.4375 1.35937,-3.28125 2.58984,-3.28125 z m 6.61524,4.3125 c 0,1.1132813 0.22265,1.91015629 0.73828,2.42578129 0.51562,0.4921875 1.34765,0.7265625 2.44922,0.7265625 2.17968,0 3.19922,-1.16015625 3.19922,-3.36328129 v -1.6992187 c 0,-1.7109375 0.14062,-2.1679688 0.58593,-2.2265625 l 0.51563,-0.046875 c 0.11719,-0.09375 0.11719,-0.3515625 -0.0117,-0.4335938 -0.55078,0.035156 -0.9375,0.046875 -1.42969,0.046875 -0.5039,0 -0.90234,-0.011719 -1.45312,-0.046875 -0.14063,0.082031 -0.15235,0.328125 -0.0352,0.4335938 l 0.36328,0.046875 c 0.73828,0.1054687 0.84375,0.5039062 0.84375,2.2265625 v 1.59375 c 0,1.7109375 -0.66797,2.88281249 -2.21484,2.88281249 -1.67578,0 -2.23828,-1.17187499 -2.23828,-2.89453129 v -2.4257812 c 0,-1.1953125 0.0703,-1.265625 0.80859,-1.3828125 l 0.32813,-0.046875 c 0.11718,-0.09375 0.0937,-0.3867188 -0.0352,-0.4335938 -0.67969,0.035156 -1.20703,0.046875 -1.75781,0.046875 -0.55078,0 -1.08985,-0.011719 -1.67578,-0.046875 -0.12891,0.046875 -0.15235,0.3398438 -0.0352,0.4335938 l 0.24609,0.046875 c 0.72657,0.1523437 0.8086,0.1875 0.8086,1.3828125 z m 16.85449,-5.671875 c -0.53906,-1.1015625 -0.96094,-2.1679689 -0.89063,-2.8359379 -0.57421,0.04687 -1.04296,0.04687 -1.42968,0.04687 -0.4336,0 -0.84375,-0.01172 -1.35938,-0.04687 -0.14062,0.07031 -0.16406,0.328125 -0.0703,0.433594 l 0.26953,0.03516 c 1.05469,0.128907 1.19531,0.398438 1.16016,1.4765629 -0.0352,0.9492188 -0.10547,2.4140625 -0.1875,3.84375 -0.10547,1.6992188 -0.19922,2.6484375 -0.29297,3.7851563 -0.10547,1.20703124 -0.35156,1.30078124 -1.07813,1.40624999 l -0.375,0.0585938 c -0.10547,0.0820313 -0.0703,0.33984375 0.0352,0.421875 0.58594,-0.03515625 1.20703,-0.0468750025 1.75781,-0.0468750025 0.65625,0 1.32422,0.0117187525 1.91016,0.0468750025 0.11719,-0.0468750025 0.14062,-0.328125 0.0117,-0.421875 l -0.64453,-0.0585938 c -0.67969,-0.046875 -0.77344,-0.328125 -0.77344,-1.59374999 0,-1.4648438 0.0586,-3 0.11719,-4.0546875 0.0469,-0.9960938 0.10546,-1.9921875 0.16406,-3.0585938 h 0.0352 c 0.38672,0.796875 0.75,1.6875 1.10157,2.4726563 l 1.55859,3.328125 c 0.38672,0.84375 1.21875,2.53124999 1.51172,3.44531249 0.0352,0.046875 0.11719,0.0703125 0.15234,0.0703125 0.0703,0 0.14063,-0.0234375 0.17578,-0.0703125 0.30469,-0.796875 1.07813,-2.41406249 1.85157,-3.92578129 l 1.53515,-3.0117187 c 0.35157,-0.6679688 0.9961,-2.0507813 1.125,-2.2382813 h 0.0352 l 0.0469,7.171875 c 0,1.10156254 0,1.38281254 -0.84375,1.46484379 l -0.5039,0.0585938 c -0.0937,0.09375 -0.082,0.33984375 0.0352,0.421875 0.71485,-0.03515625 1.48829,-0.0468750025 2.08594,-0.0468750025 0.6211,0 1.32422,0.0117187525 2.02735,0.0468750025 0.1289,-0.05859375 0.14062,-0.328125 0.0351,-0.421875 l -0.55078,-0.0585938 c -0.80859,-0.0703125 -0.78516,-0.52734375 -0.84375,-1.39453129 -0.12891,-2.4726562 -0.15234,-5.6601562 -0.1875,-7.4882812 -0.0117,-1.2070317 0.12891,-1.5234377 1.20703,-1.6289067 l 0.36328,-0.03516 c 0.082,-0.07031 0.082,-0.363281 -0.0234,-0.433594 -0.52735,0.03516 -1.10157,0.04687 -1.52344,0.04687 -0.35156,0 -0.70313,0 -1.28906,-0.04687 -0.0352,0.796875 -0.53907,1.7343754 -1.3125,3.3046879 l -1.61719,3.2929688 c -0.4336,0.8789062 -0.86719,1.7695312 -1.32422,2.578125 h -0.0352 c -0.41015,-0.7617188 -0.79687,-1.546875 -1.19531,-2.3554688 z m 15.87598,0.8671875 c -2.4961,0 -4.25391,1.7578125 -4.25391,4.0429688 0,2.1679687 1.58203,3.91406249 4.25391,3.91406249 2.42578,0 4.18359,-1.68749999 4.18359,-4.01953129 0,-2.0976562 -1.41797,-3.9375 -4.18359,-3.9375 z m -0.12891,0.4921875 c 1.89844,0 2.77734,1.8632813 2.77734,3.703125 0,2.3671875 -1.2539,3.25781254 -2.5664,3.25781254 -1.99219,0 -2.80078,-1.91015624 -2.80078,-3.67968754 0,-2.4375 1.35937,-3.28125 2.58984,-3.28125 z m 6.76758,5.4140625 c 0,1.18359379 -0.0703,1.21875004 -0.8086,1.37109379 l -0.25781,0.0585938 c -0.15234,0.0703125 -0.14062,0.3749999975 0.0352,0.421875 0.60937,-0.03515625 1.13672,-0.0468750025 1.6875,-0.0468750025 0.53906,0 1.10156,0.0117187525 1.82812,0.0468750025 0.14063,-0.0468750025 0.15235,-0.33984375 0.0352,-0.421875 l -0.39844,-0.0585938 c -0.73828,-0.10546875 -0.80859,-0.1875 -0.80859,-1.37109379 v -1.2304687 c 0,-0.234375 0.0351,-0.2695313 0.48047,-0.2695313 0.28125,0 0.55078,0.070312 0.6914,0.2695313 0.36328,0.5507812 0.82031,1.3125 1.25391,1.8632812 0.76172,0.96093754 1.38281,1.28906254 2.41406,1.28906254 0.32813,0 0.5625,-0.03515625 0.71484,-0.08203125 0.0703,-0.046875 0.0703,-0.2109375 0,-0.28125 -0.26953,-0.0117188 -0.59765,-0.09375 -0.90234,-0.3515625 -0.57422,-0.46874999 -1.33594,-1.31249999 -2.19141,-2.75390629 -0.0469,-0.09375 -0.0703,-0.1992187 0,-0.2578125 0.66797,-0.2460937 1.53516,-0.75 1.53516,-1.8515625 0,-1.8046875 -1.74609,-2.0625 -3.33984,-2.0625 -0.94922,0 -1.91016,0.035156 -2.85938,0.1054688 -0.17578,0.046875 -0.14062,0.4101562 0,0.4335937 l 0.48047,0.058594 c 0.39844,0.058594 0.41016,0.3515625 0.41016,1.4648437 z m 1.3125,-4.734375 c 0,-0.4453125 0.11718,-0.4804687 0.76172,-0.4804687 1.19531,0 1.80468,0.75 1.80468,1.6171875 0,1.1835937 -0.58593,1.6289062 -1.71093,1.6289062 -0.84375,0 -0.85547,0 -0.85547,-0.421875 z m 8.1416,4.734375 c 0,1.18359379 -0.0703,1.28906254 -0.80859,1.37109379 l -0.46875,0.0585938 c -0.11719,0.0820313 -0.10547,0.3749999975 0.0351,0.421875 0.72656,-0.03515625 1.34766,-0.0468750025 1.89844,-0.0468750025 0.52734,0 1.18359,0.0117187525 1.88672,0.0468750025 0.14062,-0.0468750025 0.15234,-0.33984375 0.0352,-0.421875 l -0.45703,-0.0585938 c -0.75,-0.0820312 -0.80859,-0.1875 -0.80859,-1.37109379 v -4.7226562 c 0,-0.4453125 0.0469,-0.4453125 0.375,-0.4453125 h 0.58594 c 1.03125,0 1.47656,0.140625 1.59375,1.2539062 0.0703,0.140625 0.36328,0.1289063 0.43359,-0.011719 -0.0352,-0.65625 0.0352,-1.5703125 0.17578,-2.015625 -0.0586,-0.082031 -0.1875,-0.1171875 -0.3164,-0.046875 -0.12891,0.3046875 -0.25782,0.3164062 -0.89063,0.3164062 h -4.78125 c -0.69141,0 -0.9375,0.023437 -0.94922,-0.3164062 -0.0703,-0.070312 -0.24609,-0.070312 -0.3164,0 -0.082,0.421875 -0.26954,1.2890625 -0.45704,2.0273437 0.0703,0.140625 0.25782,0.1875 0.42188,0.082031 0.42187,-1.1835938 0.86719,-1.2890625 1.91016,-1.2890625 h 0.53906 c 0.33984,0 0.36328,0 0.36328,0.4453125 z m 6.45117,0 c 0,1.18359379 -0.0703,1.28906254 -0.80859,1.37109379 l -0.45703,0.0585938 c -0.12891,0.0820313 -0.10547,0.3749999975 0.0234,0.421875 0.83203,-0.03515625 1.3711,-0.0468750025 1.92188,-0.0468750025 h 1.51172 c 0.92578,0 1.83984,0.0117187525 2.92968,0.0468750025 0.1875,-0.328125 0.42188,-1.18359379 0.51563,-1.91015629 -0.0586,-0.1523438 -0.32813,-0.1875 -0.45703,-0.070312 -0.49219,1.38281254 -1.13672,1.42968754 -2.23828,1.42968754 -0.97266,0 -1.28907,-0.0585938 -1.44141,-0.234375 -0.15234,-0.1875 -0.1875,-0.72656254 -0.1875,-1.24218754 v -1.2421875 c 0,-0.3398438 0,-0.3867188 0.32813,-0.3867188 h 0.80859 c 0.91406,0 0.99609,0.1289063 1.13672,0.6445313 l 0.082,0.328125 c 0.082,0.1289062 0.35156,0.1054687 0.43359,-0.035156 -0.0351,-0.4921875 -0.0351,-0.8085937 -0.0351,-1.2304687 0,-0.3984375 0,-0.7148437 0.0351,-1.2070312 -0.082,-0.140625 -0.35156,-0.1640625 -0.43359,-0.035156 l -0.082,0.328125 c -0.14063,0.515625 -0.22266,0.65625 -1.13672,0.65625 h -0.80859 c -0.32813,0 -0.32813,-0.035156 -0.32813,-0.3515625 V -6.421163 c 0,-0.5273437 0.0117,-0.5507812 0.62109,-0.5507812 h 0.75 c 0.42188,0 1.19532,0 1.46485,0.4101562 0.10547,0.1640625 0.21094,0.3867188 0.3164,0.8320313 0.10547,0.1171875 0.375,0.1054687 0.44532,-0.035156 -0.082,-0.7382812 -0.17578,-1.546875 -0.1875,-1.7578125 -0.15235,0.035156 -0.84375,0.046875 -1.60547,0.046875 h -2.4375 c -0.57422,0 -1.10156,-0.011719 -1.60547,-0.046875 -0.14063,0.070312 -0.15234,0.3632813 -0.0352,0.4335938 l 0.2461,0.046875 c 0.64453,0.140625 0.71484,0.1875 0.71484,1.3828125 z m 0,0"
       style="fill:#000000;fill-opacity:1;fill-rule:nonzero;stroke:none"
       aria-label="LiberdadeseVidaouMorte"
       transform="matrix(1.3333333,0,0,1.3333333,66.818667,170.23733)" />
    <path
       id="path6"
       d="M 0,0 H 225.468 V 1.594 H 0 Z"
       style="fill:#000000;fill-opacity:1;fill-rule:nonzero;stroke:none"
       transform="matrix(1.3333333,0,0,-1.3333333,53.782667,207.49733)" />
    <path
       id="path7"
       d="M 0,0 H 225.468"
       style="fill:none;stroke:#000000;stroke-width:0.398;stroke-linecap:butt;stroke-linejoin:miter;stroke-miterlimit:10;stroke-dasharray:none;stroke-opacity:1"
       transform="matrix(1.3333333,0,0,-1.3333333,53.782667,209.88933)" />
    <path
       id="path8"
       d="M 0,0 H 170.08086 M 0,21.2601 H 170.08086 M 0,42.5202 H 170.08086 M 0,63.7803 H 170.08086 M 0,85.0404 H 170.08086 M 0,106.3005 H 170.08086 M 0,127.56061 H 170.08086 M 0,148.82072 H 170.08086 M 0,170.08083 H 170.08086 M 0,0 V 170.08086 M 21.2601,0 V 170.08086 M 42.5202,0 V 170.08086 M 63.7803,0 V 170.08086 M 85.0404,0 V 170.08086 M 106.3005,0 V 170.08086 M 127.56061,0 V 170.08086 M 148.82072,0 V 170.08086 M 170.08083,0 v 170.08086"
       style="fill:none;stroke:#000000;stroke-width:0.3985;stroke-linecap:butt;stroke-linejoin:miter;stroke-miterlimit:10;stroke-dasharray:none;stroke-opacity:1"
       transform="matrix(1.3333333,0,0,-1.3333333,90.585333,462.844)"
       clip-path="url(#clipPath9)" />
    <path
       id="path10"
       d="M 0,0 H 170.08086 M 0,170.07089 H 170.08086 M 0,0 V 170.08086 M 170.07089,0 v 170.08086"
       style="fill:none;stroke:#000000;stroke-width:1.27559;stroke-linecap:square;stroke-linejoin:miter;stroke-miterlimit:10;stroke-dasharray:none;stroke-opacity:1"
       transform="matrix(1.3333333,0,0,-1.3333333,90.585333,462.844)"
       clip-path="url(#clipPath11)" />
    <path
       id="path12"
       d="m 87.69792,85.04042 c 0,1.46771 -1.18979,2.6575 -2.6575,2.6575 -1.4677,0 -2.6575,-1.18979 -2.6575,-2.6575 0,-1.4677 1.1898,-2.6575 2.6575,-2.6575 1.46771,0 2.6575,1.1898 2.6575,2.6575 z"
       style="fill:#000000;fill-opacity:1;fill-rule:nonzero;stroke:#000000;stroke-width:0.3985;stroke-linecap:butt;stroke-linejoin:miter;stroke-miterlimit:10;stroke-dasharray:none;stroke-opacity:1"
       transform="matrix(1.3333333,0,0,-1.3333333,90.585333,462.844)"
       clip-path="url(#clipPath13)" />
    <path
       id="path14"
       d="m 45.1777,42.5202 c 0,1.4677 -1.1898,2.6575 -2.6575,2.6575 -1.46771,0 -2.6575,-1.1898 -2.6575,-2.6575 0,-1.46771 1.18979,-2.6575 2.6575,-2.6575 1.4677,0 2.6575,1.18979 2.6575,2.6575 z"
       style="fill:#000000;fill-opacity:1;fill-rule:nonzero;stroke:#000000;stroke-width:0.3985;stroke-linecap:butt;stroke-linejoin:miter;stroke-miterlimit:10;stroke-dasharray:none;stroke-opacity:1"
       transform="matrix(1.3333333,0,0,-1.3333333,90.585333,462.844)"
       clip-path="url(#clipPath15)" />
    <path
       id="path16"
       d="m 130.21814,42.5202 c 0,1.4677 -1.1898,2.6575 -2.65752,2.6575 -1.46769,0 -2.6575,-1.1898 -2.6575,-2.6575 0,-1.46771 1.18981,-2.6575 2.6575,-2.6575 1.46772,0 2.65752,1.18979 2.65752,2.6575 z"
       style="fill:#000000;fill-opacity:1;fill-rule:nonzero;stroke:#000000;stroke-width:0.3985;stroke-linecap:butt;stroke-linejoin:miter;stroke-miterlimit:10;stroke-dasharray:none;stroke-opacity:1"
       transform="matrix(1.3333333,0,0,-1.3333333,90.585333,462.844)"
       clip-path="url(#clipPath17)" />
    <path
       id="path18"
       d="m 45.1777,127.56062 c 0,1.46772 -1.1898,2.65752 -2.6575,2.65752 -1.46771,0 -2.6575,-1.1898 -2.6575,-2.65752 0,-1.46769 1.18979,-2.6575 2.6575,-2.6575 1.4677,0 2.6575,1.18981 2.6575,2.6575 z"
       style="fill:#000000;fill-opacity:1;fill-rule:nonzero;stroke:#000000;stroke-width:0.3985;stroke-linecap:butt;stroke-linejoin:miter;stroke-miterlimit:10;stroke-dasharray:none;stroke-opacity:1"
       transform="matrix(1.3333333,0,0,-1.3333333,90.585333,462.844)"
       clip-path="url(#clipPath19)" />
    <path
       id="path20"
       d="m 130.21814,127.56062 c 0,1.46772 -1.1898,2.65752 -2.65752,2.65752 -1.46769,0 -2.6575,-1.1898 -2.6575,-2.65752 0,-1.46769 1.18981,-2.6575 2.6575,-2.6575 1.46772,0 2.65752,1.18981 2.65752,2.6575 z"
       style="fill:#000000;fill-opacity:1;fill-rule:nonzero;stroke:#000000;stroke-width:0.3985;stroke-linecap:butt;stroke-linejoin:miter;stroke-miterlimit:10;stroke-dasharray:none;stroke-opacity:1"
       transform="matrix(1.3333333,0,0,-1.3333333,90.585333,462.844)"
       clip-path="url(#clipPath21)" />
    <path
       id="path22"
       d="m 45.1777,42.5202 c 0,1.4677 -1.1898,2.6575 -2.6575,2.6575 -1.46771,0 -2.6575,-1.1898 -2.6575,-2.6575 0,-1.46771 1.18979,-2.6575 2.6575,-2.6575 1.4677,0 2.6575,1.18979 2.6575,2.6575 z"
       style="fill:#000000;fill-opacity:1;fill-rule:nonzero;stroke:#000000;stroke-width:0.3985;stroke-linecap:butt;stroke-linejoin:miter;stroke-miterlimit:10;stroke-dasharray:none;stroke-opacity:1"
       transform="matrix(1.3333333,0,0,-1.3333333,90.585333,462.844)"
       clip-path="url(#clipPath23)" />
    <path
       id="path24"
       d="m 130.21814,42.5202 c 0,1.4677 -1.1898,2.6575 -2.65752,2.6575 -1.46769,0 -2.6575,-1.1898 -2.6575,-2.6575 0,-1.46771 1.18981,-2.6575 2.6575,-2.6575 1.46772,0 2.65752,1.18979 2.65752,2.6575 z"
       style="fill:#000000;fill-opacity:1;fill-rule:nonzero;stroke:#000000;stroke-width:0.3985;stroke-linecap:butt;stroke-linejoin:miter;stroke-miterlimit:10;stroke-dasharray:none;stroke-opacity:1"
       transform="matrix(1.3333333,0,0,-1.3333333,90.585333,462.844)"
       clip-path="url(#clipPath25)" />
    <path
       id="path26"
       d="m 45.1777,127.56062 c 0,1.46772 -1.1898,2.65752 -2.6575,2.65752 -1.46771,0 -2.6575,-1.1898 -2.6575,-2.65752 0,-1.46769 1.18979,-2.6575 2.6575,-2.6575 1.4677,0 2.6575,1.18981 2.6575,2.6575 z"
       style="fill:#000000;fill-opacity:1;fill-rule:nonzero;stroke:#000000;stroke-width:0.3985;stroke-linecap:butt;stroke-linejoin:miter;stroke-miterlimit:10;stroke-dasharray:none;stroke-opacity:1"
       transform="matrix(1.3333333,0,0,-1.3333333,90.585333,462.844)"
       clip-path="url(#clipPath27)" />
    <path
       id="path28"
       d="m 130.21814,127.56062 c 0,1.46772 -1.1898,2.65752 -2.65752,2.65752 -1.46769,0 -2.6575,-1.1898 -2.6575,-2.65752 0,-1.46769 1.18981,-2.6575 2.6575,-2.6575 1.46772,0 2.65752,1.18981 2.65752,2.6575 z"
       style="fill:#000000;fill-opacity:1;fill-rule:nonzero;stroke:#000000;stroke-width:0.3985;stroke-linecap:butt;stroke-linejoin:miter;stroke-miterlimit:10;stroke-dasharray:none;stroke-opacity:1"
       transform="matrix(1.3333333,0,0,-1.3333333,90.585333,462.844)"
       clip-path="url(#clipPath29)" />
    <path
       id="path30"
       d="m 95.67047,63.7803 c 0,5.87088 -4.75917,10.63005 -10.63005,10.63005 -5.87088,0 -10.63003,-4.75917 -10.63003,-10.63005 0,-5.87088 4.75915,-10.63005 10.63003,-10.63005 5.87088,0 10.63005,4.75917 10.63005,10.63005 z"
       style="fill:#ffffff;fill-opacity:1;fill-rule:nonzero;stroke:#ffffff;stroke-width:0.3985;stroke-linecap:butt;stroke-linejoin:miter;stroke-miterlimit:10;stroke-dasharray:none;stroke-opacity:1"
       transform="matrix(1.3333333,0,0,-1.3333333,90.585333,462.844)"
       clip-path="url(#clipPath31)" />
    <path
       id="path32"
       d="m 95.62764,63.7803 c 0,5.84723 -4.73999,10.58722 -10.58722,10.58722 -5.84723,0 -10.58722,-4.73999 -10.58722,-10.58722 0,-5.84723 4.73999,-10.58722 10.58722,-10.58722 5.84723,0 10.58722,4.73999 10.58722,10.58722 z"
       style="fill:#000000;fill-opacity:1;fill-rule:nonzero;stroke:#ffffff;stroke-width:0.97136;stroke-linecap:butt;stroke-linejoin:miter;stroke-miterlimit:10;stroke-dasharray:none;stroke-opacity:1"
       transform="matrix(1.3333333,0,0,-1.3333333,90.585333,462.844)"
       clip-path="url(#clipPath33)" />
    <path
       id="path34"
       d="m 95.67047,106.30052 c 0,5.87088 -4.75917,10.63005 -10.63005,10.63005 -5.87088,0 -10.63003,-4.75917 -10.63003,-10.63005 0,-5.87088 4.75915,-10.63003 10.63003,-10.63003 5.87088,0 10.63005,4.75915 10.63005,10.63003 z"
       style="fill:#ffffff;fill-opacity:1;fill-rule:nonzero;stroke:#ffffff;stroke-width:0.3985;stroke-linecap:butt;stroke-linejoin:miter;stroke-miterlimit:10;stroke-dasharray:none;stroke-opacity:1"
       transform="matrix(1.3333333,0,0,-1.3333333,90.585333,462.844)"
       clip-path="url(#clipPath35)" />
    <path
       id="path36"
       d="m 95.62764,106.30052 c 0,5.84723 -4.73999,10.58722 -10.58722,10.58722 -5.84723,0 -10.58722,-4.73999 -10.58722,-10.58722 0,-5.84722 4.73999,-10.58722 10.58722,-10.58722 5.84723,0 10.58722,4.74 10.58722,10.58722 z"
       style="fill:#000000;fill-opacity:1;fill-rule:nonzero;stroke:#ffffff;stroke-width:0.97136;stroke-linecap:butt;stroke-linejoin:miter;stroke-miterlimit:10;stroke-dasharray:none;stroke-opacity:1"
       transform="matrix(1.3333333,0,0,-1.3333333,90.585333,462.844)"
       clip-path="url(#clipPath37)" />
    <path
       id="path38"
       d="m 74.41035,85.04042 c 0,5.87088 -4.75917,10.63005 -10.63005,10.63005 -5.87088,0 -10.63005,-4.75917 -10.63005,-10.63005 0,-5.87088 4.75917,-10.63003 10.63005,-10.63003 5.87088,0 10.63005,4.75915 10.63005,10.63003 z"
       style="fill:#ffffff;fill-opacity:1;fill-rule:nonzero;stroke:#ffffff;stroke-width:0.3985;stroke-linecap:butt;stroke-linejoin:miter;stroke-miterlimit:10;stroke-dasharray:none;stroke-opacity:1"
       transform="matrix(1.3333333,0,0,-1.3333333,90.585333,462.844)"
       clip-path="url(#clipPath39)" />
    <path
       id="path40"
       d="m 73.47995,85.04042 c 0,5.35703 -4.34262,9.69966 -9.69965,9.69966 -5.35702,0 -9.69964,-4.34263 -9.69964,-9.69966 0,-5.35702 4.34262,-9.69965 9.69964,-9.69965 5.35703,0 9.69965,4.34263 9.69965,9.69965 z"
       style="fill:#ffffff;fill-opacity:1;fill-rule:nonzero;stroke:#000000;stroke-width:0.97136;stroke-linecap:butt;stroke-linejoin:miter;stroke-miterlimit:10;stroke-dasharray:none;stroke-opacity:1"
       transform="matrix(1.3333333,0,0,-1.3333333,90.585333,462.844)"
       clip-path="url(#clipPath41)" />
    <path
       id="path42"
       d="m 116.93057,85.04042 c 0,5.87088 -4.75917,10.63005 -10.63005,10.63005 -5.87088,0 -10.63003,-4.75917 -10.63003,-10.63005 0,-5.87088 4.75915,-10.63003 10.63003,-10.63003 5.87088,0 10.63005,4.75915 10.63005,10.63003 z"
       style="fill:#ffffff;fill-opacity:1;fill-rule:nonzero;stroke:#ffffff;stroke-width:0.3985;stroke-linecap:butt;stroke-linejoin:miter;stroke-miterlimit:10;stroke-dasharray:none;stroke-opacity:1"
       transform="matrix(1.3333333,0,0,-1.3333333,90.585333,462.844)"
       clip-path="url(#clipPath43)" />
    <path
       id="path44"
       d="m 116.00018,85.04042 c 0,5.35703 -4.34263,9.69966 -9.69966,9.69966 -5.35702,0 -9.69964,-4.34263 -9.69964,-9.69966 0,-5.35702 4.34262,-9.69965 9.69964,-9.69965 5.35703,0 9.69966,4.34263 9.69966,9.69965 z"
       style="fill:#ffffff;fill-opacity:1;fill-rule:nonzero;stroke:#000000;stroke-width:0.97136;stroke-linecap:butt;stroke-linejoin:miter;stroke-miterlimit:10;stroke-dasharray:none;stroke-opacity:1"
       transform="matrix(1.3333333,0,0,-1.3333333,90.585333,462.844)"
       clip-path="url(#clipPath45)" />
    <path
       id="path46"
       d="m 3.6079922,-10.26682 c 0,-0.550782 0.023437,-0.609375 0.9375,-0.609375 1.7929687,0 2.765625,1.0781247 2.765625,2.7539059 0,1.4882813 -0.6679688,2.5429688 -2.53125,2.8828125 -0.09375,0.035156 -0.09375,0.2929688 0.023437,0.3515625 0.703125,0 1.6171875,-0.1523437 2.3789062,-0.515625 0.7382813,-0.3632812 1.7109375,-1.1601562 1.7109375,-2.7421875 0,-1.1835937 -0.5742187,-2.0859374 -1.3710937,-2.5781254 -0.8085938,-0.503906 -1.875,-0.691406 -3.3046875,-0.691406 -1.4296875,0 -2.4960938,0.02344 -3.41015626,0.140625 -0.140625,0.07031 -0.15234375,0.328125 -0.0351563,0.433594 l 0.62109376,0.05859 c 0.7734375,0.09375 0.8085938,0.386718 0.8085938,1.8515622 v 6.3515625 c 0,1.80468749 -0.035156,2.01562499 -1.03125,2.14453124 l -0.36328131,0.0585938 c -0.10546875,0.09375 -0.0703125,0.375 0.0351563,0.421875 0.76171871,-0.03515625 1.38281251,-0.046875 2.09765621,-0.046875 0.6914063,0 1.2539063,0.01171875 2.2382813,0.046875 0.1054687,-0.046875 0.140625,-0.33984375 0.035156,-0.421875 l -0.46875,-0.0585938 C 3.6431484,-0.55197656 3.6079922,-0.77463281 3.6079922,-2.5793203 Z m 9.4775388,6.1054684 c -0.550781,0 -0.621093,0 -0.621093,-0.4570312 v -1.0429688 c 0,-1.1953125 0.08203,-1.2421875 0.808593,-1.3828125 l 0.257813,-0.046875 c 0.117187,-0.09375 0.105469,-0.3867187 -0.03516,-0.4335937 -0.597657,0.035156 -1.136719,0.046875 -1.6875,0.046875 -0.550782,0 -1.078125,-0.011719 -1.8281255,-0.046875 -0.1289062,0.046875 -0.1523437,0.3398437 -0.035156,0.4335937 l 0.3984375,0.046875 c 0.738281,0.1054688 0.808594,0.1875 0.808594,1.3828125 v 3.8554688 c 0,1.18359374 -0.08203,1.18359374 -0.808594,1.37109374 l -0.1875,0.0585938 c -0.117188,0.0820313 -0.105469,0.375 0.03516,0.421875 0.539063,-0.03515625 1.066406,-0.046875 1.617188,-0.046875 0.539062,0 1.101562,0.01171875 1.898437,0.046875 0.128906,-0.046875 0.152344,-0.33984375 0.03516,-0.421875 l -0.46875,-0.0585938 c -0.738281,-0.0820312 -0.808593,-0.1875 -0.808593,-1.37109374 v -1.359375 c 0,-0.4335938 0.03516,-0.4453125 0.621093,-0.4453125 h 3.023438 c 0.585937,0 0.621094,0.011719 0.621094,0.4453125 v 1.359375 c 0,1.18359374 -0.07031,1.25390624 -0.808594,1.37109374 l -0.328125,0.0585938 c -0.117188,0.0820313 -0.105469,0.375 0.03516,0.421875 0.667969,-0.03515625 1.207031,-0.046875 1.757813,-0.046875 0.539062,0 1.101562,0.01171875 1.828125,0.046875 0.128906,-0.046875 0.152343,-0.33984375 0.03516,-0.421875 l -0.398438,-0.0585938 c -0.738281,-0.10546875 -0.808593,-0.1875 -0.808593,-1.37109374 v -3.8554688 c 0,-1.1953125 0.07031,-1.265625 0.808593,-1.3828125 l 0.328125,-0.046875 c 0.117188,-0.09375 0.105469,-0.3867187 -0.03516,-0.4335937 -0.667969,0.035156 -1.207031,0.046875 -1.757812,0.046875 -0.550782,0 -1.089844,-0.011719 -1.757813,-0.046875 -0.140625,0.046875 -0.152344,0.3398437 -0.03516,0.4335937 l 0.328125,0.046875 c 0.738281,0.1171875 0.808594,0.1875 0.808594,1.3828125 v 1.0429688 c 0,0.4570312 -0.07031,0.4570312 -0.621094,0.4570312 z m 8.569336,2.3554688 c 0,1.18359374 -0.07031,1.25390624 -0.808594,1.37109374 l -0.328125,0.0585938 c -0.117187,0.0820313 -0.105468,0.375 0.03516,0.421875 0.679687,-0.03515625 1.207031,-0.046875 1.757812,-0.046875 0.539063,0 1.101563,0.01171875 1.757813,0.046875 0.140625,-0.046875 0.152343,-0.33984375 0.03516,-0.421875 l -0.328125,-0.0585938 c -0.738281,-0.1171875 -0.808594,-0.1875 -0.808594,-1.37109374 v -3.8554688 c 0,-1.1953125 0.07031,-1.265625 0.808594,-1.3828125 l 0.328125,-0.046875 c 0.117187,-0.09375 0.105469,-0.3867187 -0.03516,-0.4335937 -0.667969,0.035156 -1.207032,0.046875 -1.757813,0.046875 -0.550781,0 -1.078125,-0.011719 -1.757812,-0.046875 -0.140625,0.046875 -0.152344,0.3398437 -0.03516,0.4335937 l 0.328125,0.046875 c 0.738282,0.1171875 0.808594,0.1875 0.808594,1.3828125 z m 4.921875,0 c 0,1.18359374 -0.07031,1.25390624 -0.808594,1.37109374 l -0.328125,0.0585938 c -0.117187,0.0820313 -0.105468,0.375 0.03516,0.421875 0.679687,-0.03515625 1.207031,-0.046875 1.757812,-0.046875 h 1.417969 c 0.867187,0 1.78125,0.01171875 2.871094,0.046875 0.1875,-0.328125 0.433593,-1.18359374 0.515625,-1.91015624 -0.04687,-0.1523437 -0.328125,-0.1875 -0.445313,-0.070312 -0.503906,1.38281249 -1.136719,1.42968749 -2.191406,1.42968749 -0.890625,0 -1.171875,-0.1171875 -1.324219,-0.26953125 -0.152344,-0.17578125 -0.1875,-0.65624994 -0.1875,-1.18359374 v -3.703125 c 0,-1.1953125 0.08203,-1.2070312 0.808594,-1.3828125 l 0.222656,-0.046875 c 0.117188,-0.09375 0.105469,-0.3867187 -0.03516,-0.4335937 -0.5625,0.035156 -1.101563,0.046875 -1.652344,0.046875 -0.550781,0 -1.078125,-0.011719 -1.757812,-0.046875 -0.140625,0.046875 -0.152344,0.3398437 -0.03516,0.4335937 l 0.328125,0.046875 c 0.738282,0.1171875 0.808594,0.1875 0.808594,1.3828125 z m 7.265625,0 c 0,1.18359374 -0.07031,1.25390624 -0.808594,1.37109374 l -0.328125,0.0585938 c -0.117187,0.0820313 -0.105468,0.375 0.03516,0.421875 0.679687,-0.03515625 1.207031,-0.046875 1.757812,-0.046875 0.539063,0 1.101563,0.01171875 1.757813,0.046875 0.140625,-0.046875 0.152343,-0.33984375 0.03516,-0.421875 l -0.328125,-0.0585938 c -0.738281,-0.1171875 -0.808594,-0.1875 -0.808594,-1.37109374 v -3.8554688 c 0,-1.1953125 0.07031,-1.265625 0.808594,-1.3828125 l 0.328125,-0.046875 c 0.117187,-0.09375 0.105469,-0.3867187 -0.03516,-0.4335937 -0.667969,0.035156 -1.207032,0.046875 -1.757813,0.046875 -0.550781,0 -1.078125,-0.011719 -1.757812,-0.046875 -0.140625,0.046875 -0.152344,0.3398437 -0.03516,0.4335937 l 0.328125,0.046875 c 0.738282,0.1171875 0.808594,0.1875 0.808594,1.3828125 z m 4.924805,0 c 0,1.18359374 -0.07031,1.21874999 -0.808594,1.37109374 l -0.257812,0.0585938 c -0.117188,0.0820313 -0.105469,0.375 0.03516,0.421875 0.609375,-0.03515625 1.136719,-0.046875 1.6875,-0.046875 0.539062,0 1.101562,0.01171875 1.828125,0.046875 0.140625,-0.046875 0.152344,-0.33984375 0.03516,-0.421875 l -0.398437,-0.0585938 c -0.738282,-0.10546875 -0.808594,-0.1875 -0.808594,-1.37109374 v -4.6289063 c 0,-0.4921875 0,-0.5859375 0.703125,-0.5859375 1.171875,0 1.875,0.6210938 1.875,1.7460938 0,1.1132812 -0.527344,1.7460937 -1.59375,1.96875 -0.07031,0.070312 -0.07031,0.2226562 0.01172,0.3046875 0.328125,0.035156 0.984375,-0.046875 1.570312,-0.2578125 0.632813,-0.2226563 1.429688,-0.7734375 1.429688,-1.9570313 0,-1.21875 -0.832032,-1.8046875 -1.394532,-2.015625 -0.480468,-0.1757812 -1.101562,-0.2929687 -2.074218,-0.2929687 -0.902344,0 -1.78125,0.035156 -2.753907,0.1054687 -0.152343,0.046875 -0.164062,0.375 -0.01172,0.4335938 l 0.515625,0.082031 c 0.398437,0.070312 0.410156,0.328125 0.410156,1.4414063 z m 7.675781,0 c 0,1.18359374 -0.07031,1.21874999 -0.808594,1.37109374 l -0.257812,0.0585938 c -0.117188,0.0820313 -0.105469,0.375 0.03516,0.421875 0.609375,-0.03515625 1.136719,-0.046875 1.6875,-0.046875 0.539063,0 1.101563,0.01171875 1.828125,0.046875 0.140625,-0.046875 0.152344,-0.33984375 0.03516,-0.421875 l -0.398437,-0.0585938 c -0.738281,-0.10546875 -0.808594,-0.1875 -0.808594,-1.37109374 v -4.6289063 c 0,-0.4921875 0,-0.5859375 0.703125,-0.5859375 1.171875,0 1.875,0.6210938 1.875,1.7460938 0,1.1132812 -0.527344,1.7460937 -1.59375,1.96875 -0.07031,0.070312 -0.07031,0.2226562 0.01172,0.3046875 0.328125,0.035156 0.984375,-0.046875 1.570312,-0.2578125 0.632813,-0.2226563 1.429688,-0.7734375 1.429688,-1.9570313 0,-1.21875 -0.832031,-1.8046875 -1.394531,-2.015625 -0.480469,-0.1757812 -1.101563,-0.2929687 -2.074219,-0.2929687 -0.902344,0 -1.78125,0.035156 -2.753906,0.1054687 -0.152344,0.046875 -0.164063,0.375 -0.01172,0.4335938 l 0.515625,0.082031 c 0.398437,0.070312 0.410156,0.328125 0.410156,1.4414063 z m 7.368164,0 c 0,1.18359374 -0.07031,1.28906249 -0.808594,1.37109374 l -0.457031,0.0585938 c -0.128906,0.0820313 -0.105469,0.375 0.02344,0.421875 0.832031,-0.03515625 1.371093,-0.046875 1.921875,-0.046875 h 1.511718 c 0.925782,0 1.839844,0.01171875 2.929688,0.046875 0.1875,-0.328125 0.421875,-1.18359374 0.515625,-1.91015624 -0.05859,-0.1523437 -0.328125,-0.1875 -0.457031,-0.070312 -0.492188,1.38281249 -1.136719,1.42968749 -2.238282,1.42968749 -0.972656,0 -1.289062,-0.0585938 -1.441406,-0.234375 -0.152344,-0.1875 -0.1875,-0.72656249 -0.1875,-1.24218749 V -3.223851 c 0,-0.3398437 0,-0.3867187 0.328125,-0.3867187 h 0.808594 c 0.914062,0 0.996094,0.1289062 1.136719,0.6445312 l 0.08203,0.328125 c 0.08203,0.1289063 0.351562,0.1054688 0.433594,-0.035156 -0.03516,-0.4921875 -0.03516,-0.8085938 -0.03516,-1.2304688 0,-0.3984375 0,-0.7148437 0.03516,-1.2070312 -0.08203,-0.140625 -0.351563,-0.1640625 -0.433594,-0.035156 l -0.08203,0.328125 c -0.140625,0.515625 -0.222657,0.65625 -1.136719,0.65625 h -0.808594 c -0.328125,0 -0.328125,-0.035156 -0.328125,-0.3515625 v -1.9101562 c 0,-0.5273438 0.01172,-0.5507813 0.621094,-0.5507813 h 0.75 c 0.421875,0 1.195312,0 1.464844,0.4101563 0.105468,0.1640625 0.210937,0.3867187 0.316406,0.8320312 0.105469,0.1171875 0.375,0.1054688 0.445312,-0.035156 -0.08203,-0.7382813 -0.175781,-1.546875 -0.1875,-1.7578125 -0.152343,0.035156 -0.84375,0.046875 -1.605468,0.046875 h -2.4375 c -0.574219,0 -1.101563,-0.011719 -1.605469,-0.046875 -0.140625,0.070312 -0.152344,0.3632812 -0.03516,0.4335937 l 0.246093,0.046875 c 0.644532,0.140625 0.714844,0.1875 0.714844,1.3828125 z m 13.822266,-8.3320312 c 0,-0.65625 0,-0.691406 0.527344,-0.691406 h 1.042968 c 0.726563,0 1.289063,0 1.675782,0.105468 0.855468,0.222657 1.066406,0.8554692 1.195312,1.6289067 0.128906,0.1054687 0.363281,0.058594 0.421875,-0.046875 -0.03516,-0.65625 -0.05859,-1.4765627 -0.05859,-2.2734377 -0.222656,0.04687 -1.21875,0.04687 -2.320312,0.04687 h -3.164063 c -0.691406,0 -1.277343,-0.01172 -2.003906,-0.04687 -0.09375,0.04687 -0.128906,0.363281 -0.03516,0.433594 l 0.28125,0.03516 c 0.996094,0.117188 1.03125,0.363281 1.03125,2.1679689 v 6.1992188 c 0,1.80468749 -0.03516,2.02734374 -1.03125,2.14453124 l -0.433594,0.0585938 c -0.105469,0.09375 -0.07031,0.375 0.03516,0.421875 0.808594,-0.03515625 1.394532,-0.046875 2.15625,-0.046875 0.679688,0 1.265625,0.01171875 2.285157,0.046875 0.105468,-0.046875 0.140625,-0.3515625 0.03516,-0.421875 l -0.585938,-0.0585938 c -1.019531,-0.0820312 -1.054687,-0.33984375 -1.054687,-2.14453124 v -2.4023438 c 0,-0.4453125 0.05859,-0.4570312 0.574219,-0.4570312 h 1.171875 c 0.65625,0 1.078125,0.011719 1.324218,0.082031 0.328125,0.1054688 0.46875,0.3515625 0.550782,0.65625 l 0.175781,0.6679688 c 0.117187,0.1054687 0.375,0.1054687 0.445312,0 0,-0.3984375 -0.07031,-1.0429688 -0.07031,-1.6640625 0,-0.6445313 0.07031,-1.3242188 0.07031,-1.7460938 -0.07031,-0.09375 -0.363281,-0.09375 -0.445312,0 l -0.164063,0.6914063 c -0.09375,0.4453125 -0.234375,0.5390625 -0.421875,0.609375 -0.210937,0.058594 -0.761718,0.09375 -1.464843,0.09375 H 68.20761 c -0.515625,0 -0.574219,0 -0.574219,-0.4570313 z m 8.976562,7.4648437 c 0.398438,0 0.445313,0.023437 0.585938,0.421875 l 0.410156,1.1132812 c 0.210938,0.53906254 0.222656,0.63281254 -0.222656,0.70312504 l -0.339844,0.0585938 c -0.152344,0.0703125 -0.140625,0.375 0.03516,0.421875 0.421875,-0.03515625 0.925782,-0.046875 1.546875,-0.046875 0.585938,0 0.984375,0.01171875 1.429688,0.046875 0.164062,-0.03515625 0.199219,-0.33984375 0.04687,-0.421875 l -0.269531,-0.0585938 c -0.621094,-0.1171875 -0.773438,-0.33984375 -0.984375,-0.91406254 l -1.546875,-4.1132812 c -0.398438,-1.0429688 -0.679688,-1.9453125 -0.738282,-2.109375 -0.03516,-0.1054688 -0.140625,-0.140625 -0.28125,-0.09375 -0.08203,0.2109375 -0.410156,0.5390625 -0.726562,0.65625 -0.03516,0.328125 -0.152344,0.7382812 -0.445313,1.453125 l -1.652343,3.9492187 c -0.339844,0.83203129 -0.527344,1.01953129 -1.066407,1.13671879 l -0.398437,0.09375 c -0.117188,0.0820313 -0.117188,0.36328125 0.03516,0.421875 0.316406,-0.01171875 0.726563,-0.046875 1.207031,-0.046875 0.480469,0 0.925782,0.01171875 1.359375,0.046875 0.175782,-0.03515625 0.1875,-0.33984375 0.05859,-0.421875 l -0.46875,-0.09375 c -0.328125,-0.0703125 -0.375,-0.12890625 -0.1875,-0.67968749 l 0.398438,-1.1015625 c 0.128906,-0.3984375 0.1875,-0.421875 0.574218,-0.421875 z m -1.464843,-0.5507813 c -0.375,0 -0.410157,-0.035156 -0.222657,-0.4921875 l 0.621094,-1.5351562 c 0.152344,-0.3632813 0.222656,-0.515625 0.269531,-0.5859375 h 0.03516 c 0.05859,0.082031 0.128906,0.2226562 0.257812,0.6210937 l 0.539063,1.4648438 c 0.1875,0.4921875 0.140625,0.5273437 -0.316407,0.5273437 z m 12.624023,0.3984375 c 0,0.4101563 0,0.65625 -0.105469,0.6914063 -0.1875,-0.140625 -1.195312,-1.21875 -1.570312,-1.6054688 l -1.617188,-1.6640625 c -0.703125,-0.7265625 -1.347656,-1.4648437 -1.6875,-2.1210937 -0.210937,0.035156 -0.445312,0.046875 -0.691406,0.046875 -0.363281,0 -0.820312,0 -1.476562,-0.046875 -0.152344,0.070312 -0.152344,0.328125 -0.03516,0.4335937 l 0.257813,0.046875 c 0.175781,0.035156 0.503906,0.140625 0.632812,0.2460938 0.351563,0.2578125 0.363282,0.4921875 0.363282,1.0664062 v 3.0820313 c 0,1.69921874 -0.140625,2.16796874 -0.585938,2.21484374 l -0.515625,0.0585938 c -0.117187,0.0820313 -0.117187,0.36328125 0.02344,0.421875 0.597656,-0.03515625 0.925781,-0.046875 1.429687,-0.046875 0.492188,0 0.890625,0.01171875 1.523438,0.046875 0.140625,-0.08203125 0.175781,-0.328125 0.03516,-0.421875 l -0.550781,-0.0585938 C 82.566,-0.48166406 82.460531,-0.92697656 82.460531,-2.6496328 v -2.2734375 c 0,-0.5390625 0,-0.7265625 0.07031,-0.7265625 0.222656,0.1875 0.667969,0.6445312 1.324219,1.3242187 l 2.613281,2.7890625 c 1.066406,1.16015629 1.417969,1.52343754 1.605469,1.75781254 0.152343,0.0351563 0.304687,-0.046875 0.363281,-0.15234375 C 88.3785,-0.18869531 88.3785,-1.5832266 88.3785,-1.9347891 v -2.8828125 c 0,-1.7109375 0.140625,-2.1679687 0.585938,-2.2265625 l 0.515625,-0.046875 c 0.128906,-0.09375 0.128906,-0.3515625 -0.01172,-0.4335937 -0.550781,0.035156 -0.925781,0.046875 -1.429688,0.046875 -0.503906,0 -0.890625,-0.011719 -1.535156,-0.046875 -0.128906,0.082031 -0.152344,0.328125 -0.03516,0.4335937 l 0.550781,0.046875 c 0.644531,0.058594 0.75,0.5039063 0.75,2.2265625 z m 6.673828,0.1523438 c 0.398438,0 0.445313,0.023437 0.585938,0.421875 l 0.410156,1.1132812 c 0.210937,0.53906254 0.222656,0.63281254 -0.222656,0.70312504 l -0.339844,0.0585938 c -0.152344,0.0703125 -0.140625,0.375 0.03516,0.421875 0.421875,-0.03515625 0.925781,-0.046875 1.546875,-0.046875 0.585938,0 0.984375,0.01171875 1.429688,0.046875 0.164062,-0.03515625 0.199218,-0.33984375 0.04687,-0.421875 l -0.269532,-0.0585938 c -0.621093,-0.1171875 -0.773437,-0.33984375 -0.984375,-0.91406254 l -1.546875,-4.1132812 c -0.398437,-1.0429688 -0.679687,-1.9453125 -0.738281,-2.109375 -0.03516,-0.1054688 -0.140625,-0.140625 -0.28125,-0.09375 -0.08203,0.2109375 -0.410156,0.5390625 -0.726562,0.65625 -0.03516,0.328125 -0.152344,0.7382812 -0.445313,1.453125 l -1.652344,3.9492187 c -0.339843,0.83203129 -0.527343,1.01953129 -1.066406,1.13671879 l -0.398437,0.09375 c -0.117188,0.0820313 -0.117188,0.36328125 0.03516,0.421875 0.316406,-0.01171875 0.726562,-0.046875 1.207031,-0.046875 0.480469,0 0.925781,0.01171875 1.359375,0.046875 0.175781,-0.03515625 0.1875,-0.33984375 0.05859,-0.421875 l -0.46875,-0.09375 c -0.328125,-0.0703125 -0.375,-0.12890625 -0.1875,-0.67968749 l 0.398437,-1.1015625 c 0.128907,-0.3984375 0.1875,-0.421875 0.574219,-0.421875 z m -1.464844,-0.5507813 c -0.375,0 -0.410156,-0.035156 -0.222656,-0.4921875 l 0.621094,-1.5351562 c 0.152344,-0.3632813 0.222656,-0.515625 0.269531,-0.5859375 h 0.03516 c 0.05859,0.082031 0.128907,0.2226562 0.257813,0.6210937 l 0.539062,1.4648438 c 0.1875,0.4921875 0.140625,0.5273437 -0.316406,0.5273437 z m 6.697266,1.4179688 c 0,1.18359374 -0.07031,1.21874999 -0.808594,1.37109374 l -0.257812,0.0585938 c -0.152344,0.0703125 -0.140625,0.375 0.03516,0.421875 0.609375,-0.03515625 1.136719,-0.046875 1.687501,-0.046875 0.53906,0 1.10156,0.01171875 1.82812,0.046875 0.14063,-0.046875 0.15234,-0.33984375 0.0352,-0.421875 l -0.39844,-0.0585938 c -0.73828,-0.10546875 -0.80859,-0.1875 -0.80859,-1.37109374 v -1.2304688 c 0,-0.234375 0.0352,-0.2695312 0.48046,-0.2695312 0.28125,0 0.55079,0.070312 0.69141,0.2695312 0.36328,0.5507813 0.82031,1.3125 1.25391,1.8632813 0.76172,0.96093749 1.38281,1.28906249 2.41406,1.28906249 0.32812,0 0.5625,-0.03515625 0.71484,-0.08203125 0.0703,-0.046875 0.0703,-0.2109375 0,-0.28125 -0.26953,-0.0117188 -0.59765,-0.09375 -0.90234,-0.3515625 -0.57422,-0.46875004 -1.33594,-1.31250004 -2.19141,-2.75390624 -0.0469,-0.09375 -0.0703,-0.1992188 0,-0.2578125 0.66797,-0.2460938 1.53516,-0.75 1.53516,-1.8515625 0,-1.8046875 -1.74609,-2.0625 -3.33984,-2.0625 -0.94922,0 -1.910157,0.035156 -2.859376,0.1054687 -0.175781,0.046875 -0.140625,0.4101563 0,0.4335938 l 0.480469,0.058594 c 0.398437,0.058594 0.410156,0.3515625 0.410156,1.4648438 z m 1.312505,-4.734375 c 0,-0.4453125 0.11718,-0.4804688 0.76171,-0.4804688 1.19532,0 1.80469,0.75 1.80469,1.6171875 0,1.1835938 -0.58594,1.6289063 -1.71094,1.6289063 -0.84375,0 -0.85546,0 -0.85546,-0.421875 z m 9.95214,-1.171875 c -2.49609,0 -4.2539,1.7578125 -4.2539,4.0429687 0,2.1679688 1.58203,3.91406254 4.2539,3.91406254 2.42578,0 4.1836,-1.68750004 4.1836,-4.01953124 0,-2.0976563 -1.41797,-3.9375 -4.1836,-3.9375 z m -0.1289,0.4921875 c 1.89843,0 2.77734,1.8632812 2.77734,3.703125 0,2.3671875 -1.25391,3.25781249 -2.56641,3.25781249 -1.99218,0 -2.80078,-1.91015629 -2.80078,-3.67968749 0,-2.4375 1.35938,-3.28125 2.58985,-3.28125 z m 0,0"
       style="fill:#000000;fill-opacity:1;fill-rule:nonzero;stroke:none"
       aria-label="PhilippeFanaro"
       transform="matrix(1.3333333,0,0,1.3333333,126.912,504.568)" />
  </g>
</svg>
